<svg xmlns="http://www.w3.org/2000/svg" viewBox="0 0 65.29 75.8"><defs><style>.cls-1{fill:none;stroke:#52bd94;stroke-linecap:round;stroke-linejoin:round;stroke-width:4px;}</style></defs><title>Asset 1</title><g id="Layer_2" data-name="Layer 2"><g id="Layer_1-2" data-name="Layer 1"><circle class="cls-1" cx="32.64" cy="25.16" r="4.52"/><line class="cls-1" x1="33.01" y1="29.55" x2="33.01" y2="73.8"/><path class="cls-1" d="M45.67,10.86a21.49,21.49,0,0,1,5.42,11.77c1.08,9.22-4.47,15.75-5.42,16.83"/><path class="cls-1" d="M54.66,2a35,35,0,0,1,8.6,21.43A35.54,35.54,0,0,1,54,48.32"/><path class="cls-1" d="M19.62,10.86A21.49,21.49,0,0,0,14.2,22.63c-1.08,9.22,4.47,15.75,5.42,16.83"/><path class="cls-1" d="M10.63,2A35,35,0,0,0,2,23.43a35.49,35.49,0,0,0,9.29,24.89"/></g></g></svg>