<svg xmlns="http://www.w3.org/2000/svg" viewBox="0 0 74.21 76.76"><defs><style>.cls-1{fill:none;stroke:#52bd94;stroke-miterlimit:10;stroke-width:4px;}</style></defs><title>Asset 3</title><g id="Layer_2" data-name="Layer 2"><g id="Layer_1-2" data-name="Layer 1"><path class="cls-1" d="M3.2,36.12l3.9.2a1.26,1.26,0,0,1,1.2,1.26V73.5a1.26,1.26,0,0,0,1.26,1.26H63.82a1.26,1.26,0,0,0,1.27-1.26V37.79a1.25,1.25,0,0,1,1.22-1.26L71,36.41a1.26,1.26,0,0,0,.83-2.18l-10.72-10a1.28,1.28,0,0,1-.4-.92V10.25A1.26,1.26,0,0,0,59.39,9l-8.62.2a1.27,1.27,0,0,0-1.24,1.27h0a1.26,1.26,0,0,1-2.1,1L37.35,2.32a1.25,1.25,0,0,0-1.71,0L2.39,34A1.26,1.26,0,0,0,3.2,36.12Z"/><rect class="cls-1" x="23.73" y="40.55" width="26.39" height="18.53" rx="1.02"/><rect class="cls-1" x="32.96" y="34.28" width="8.22" height="5.85" rx="1.06"/><rect class="cls-1" x="34.36" y="48.63" width="5.19" height="3.85"/><path class="cls-1" d="M23.73,47.33s10,2.74,26.39,0"/></g></g></svg>