<svg xmlns="http://www.w3.org/2000/svg" viewBox="0 0 153.98 147.57"><defs><style>.cls-1{fill:#52bd94;}</style></defs><title>Asset 8</title><g id="Layer_2" data-name="Layer 2"><g id="Layer_1-2" data-name="Layer 1"><path class="cls-1" d="M154,80.2a16,16,0,0,0-16-16h-6.41v-8.8C131.53,25.44,107.76.46,77.84,0A54.58,54.58,0,0,0,22.46,54.54v9.62H16a16,16,0,0,0-16,16V99.45a16,16,0,0,0,16,16H32.61a2.68,2.68,0,0,0,2.68-2.68v-46a2.68,2.68,0,0,0-2.68-2.67H28.87V55.34C28.87,29,49.72,6.92,76.06,6.42a48.18,48.18,0,0,1,49.05,48.12v9.62h-3.74a2.68,2.68,0,0,0-2.68,2.67v46a2.68,2.68,0,0,0,2.68,2.68h3.74v16a9.62,9.62,0,0,1-9.62,9.62H86.61a3.21,3.21,0,0,0-3.2,3.21h0a3.21,3.21,0,0,0,3.2,3.21h28.88a16.05,16.05,0,0,0,16-16v-16h6.41a16,16,0,0,0,16-16ZM28.87,109.07H16a9.62,9.62,0,0,1-9.62-9.62V80.2A9.62,9.62,0,0,1,16,70.57H28.87Zm118.7-9.62a9.63,9.63,0,0,1-9.63,9.62H125.11V70.57h12.83a9.63,9.63,0,0,1,9.63,9.63Z"/></g></g></svg>