<svg xmlns="http://www.w3.org/2000/svg" viewBox="0 0 100.17 117.85"><defs><style>.cls-1{fill:#52bd94;}</style></defs><title>Asset 10</title><g id="Layer_2" data-name="Layer 2"><g id="Layer_1-2" data-name="Layer 1"><path class="cls-1" d="M97.64,30.82,70.12,2.65A8.84,8.84,0,0,0,63.82,0H20.62a8.83,8.83,0,0,0-8.83,8.84v2.95H8.84A8.83,8.83,0,0,0,0,20.62V46.84a2.95,2.95,0,1,0,5.89,0V20.62a3,3,0,0,1,3-2.94h2.95V97.23a8.83,8.83,0,0,0,8.83,8.84H82.5V109a3,3,0,0,1-3,2.95H8.84A3,3,0,0,1,5.89,109V47.14a2.95,2.95,0,1,0-5.89,0V109a8.84,8.84,0,0,0,8.84,8.84H79.55A8.84,8.84,0,0,0,88.39,109v-2.94h3a8.83,8.83,0,0,0,8.83-8.84V37A8.62,8.62,0,0,0,97.64,30.82Zm-26.93-19L91,32.41H73.66a3,3,0,0,1-3-2.95ZM94.28,97.23a2.94,2.94,0,0,1-2.94,2.94H20.62a2.94,2.94,0,0,1-2.94-2.94V8.84a3,3,0,0,1,2.94-2.95h43.2a2.89,2.89,0,0,1,1,.21V29.46a8.84,8.84,0,0,0,8.84,8.84H94.28ZM75.51,47.79A3,3,0,0,1,76,51.93h0L52.39,81.41a3,3,0,0,1-2.3,1.09,3,3,0,0,1-1.83-.65L33.53,70.06a2.95,2.95,0,0,1,3.67-4.61v0L49.62,75.4,71.36,48.26a2.94,2.94,0,0,1,4.14-.48Z"/></g></g></svg>