<svg xmlns="http://www.w3.org/2000/svg" viewBox="0 0 80.36 81.07"><defs><style>.cls-1{fill:none;stroke:#52bd94;stroke-linecap:round;stroke-linejoin:round;stroke-width:4px;}</style></defs><title>Asset 5</title><g id="Layer_2" data-name="Layer 2"><g id="Layer_1-2" data-name="Layer 1"><rect class="cls-1" x="14.15" y="13.07" width="52.86" height="56.29"/><line class="cls-1" x1="18.58" y1="72.36" x2="18.58" y2="79.07"/><line class="cls-1" x1="26" y1="72.36" x2="26" y2="79.07"/><line class="cls-1" x1="33.43" y1="72.36" x2="33.43" y2="79.07"/><line class="cls-1" x1="40.86" y1="72.36" x2="40.86" y2="79.07"/><line class="cls-1" x1="48.29" y1="72.36" x2="48.29" y2="79.07"/><line class="cls-1" x1="55.72" y1="72.36" x2="55.72" y2="79.07"/><line class="cls-1" x1="63.15" y1="72.36" x2="63.15" y2="79.07"/><line class="cls-1" x1="18.29" y1="2" x2="18.29" y2="8.71"/><line class="cls-1" x1="25.72" y1="2" x2="25.72" y2="8.71"/><line class="cls-1" x1="33.15" y1="2" x2="33.15" y2="8.71"/><line class="cls-1" x1="40.58" y1="2" x2="40.58" y2="8.71"/><line class="cls-1" x1="48" y1="2" x2="48" y2="8.71"/><line class="cls-1" x1="55.43" y1="2" x2="55.43" y2="8.71"/><line class="cls-1" x1="62.86" y1="2" x2="62.86" y2="8.71"/><line class="cls-1" x1="9.15" y1="17.74" x2="2.44" y2="17.67"/><line class="cls-1" x1="9.08" y1="25.17" x2="2.36" y2="25.1"/><line class="cls-1" x1="9" y1="32.59" x2="2.29" y2="32.53"/><line class="cls-1" x1="8.93" y1="40.02" x2="2.22" y2="39.96"/><line class="cls-1" x1="8.86" y1="47.45" x2="2.15" y2="47.39"/><line class="cls-1" x1="8.79" y1="54.88" x2="2.07" y2="54.81"/><line class="cls-1" x1="8.71" y1="62.31" x2="2" y2="62.24"/><line class="cls-1" x1="78.36" y1="17.77" x2="71.65" y2="17.71"/><line class="cls-1" x1="78.29" y1="25.2" x2="71.58" y2="25.13"/><line class="cls-1" x1="78.22" y1="32.63" x2="71.51" y2="32.56"/><line class="cls-1" x1="78.15" y1="40.06" x2="71.43" y2="39.99"/><line class="cls-1" x1="78.07" y1="47.48" x2="71.36" y2="47.42"/><line class="cls-1" x1="78" y1="54.91" x2="71.29" y2="54.85"/><line class="cls-1" x1="77.93" y1="62.34" x2="71.21" y2="62.27"/><rect class="cls-1" x="30.77" y="30.46" width="19.73" height="20.36"/></g></g></svg>