<svg xmlns="http://www.w3.org/2000/svg" viewBox="0 0 72.34 71.54"><defs><style>.cls-1{fill:none;stroke:#52bd94;stroke-miterlimit:10;stroke-width:4px;}</style></defs><title>Asset 2</title><g id="Layer_2" data-name="Layer 2"><g id="Layer_1-2" data-name="Layer 1"><path class="cls-1" d="M33.62,2.75a2.57,2.57,0,0,1,2.64,1.4c.54.86-.34,1.3-.81,1.78C32.7,8.68,30,11.46,27.11,14.12c-1.07,1-1.09,1.56,0,2.63C40.79,30.58,54.43,44.48,68.15,58.3c1.4,1.41,1.57,2.24,0,3.57a59.91,59.91,0,0,0-5.08,5c-1,1.11-1.72,1.16-2.85,0Q42.48,48.78,24.64,30.77c-1.95-2-3.94-3.9-5.83-5.93-.9-1-1.51-1.14-2.5-.07-1.69,1.84-3.57,3.51-5.31,5.32-.9.93-1.57,1.16-2.57.06-1.82-2-3.75-3.91-5.7-5.79-.89-.86-1-1.49-.07-2.43,5.11-5,10.17-10,15.25-15A3.16,3.16,0,0,1,19.18,6C24.12,4.86,29.08,3.77,33.62,2.75Z"/><path class="cls-1" d="M4,60.31C1.66,55,4.71,47.77,10.42,44.94a12.32,12.32,0,0,1,8.67-1,2.74,2.74,0,0,0,3.1-.93c1.53-1.64,3.22-3.14,4.75-4.78.8-.86,1.35-1,2.21,0,1.79,1.94,3.64,3.83,5.56,5.64.9.86.85,1.39,0,2.2-1.75,1.61-3.36,3.37-5.1,5a2.36,2.36,0,0,0-.73,2.59A12.92,12.92,0,0,1,14.49,69.42c-.69-.08-1.66,0-1.92-.67s.64-1,1.08-1.5c2.32-2.34,4.69-4.64,7-7,1.6-1.61,1.6-2.35,0-4-1.43-1.47-2.92-2.87-4.3-4.38s-2.44-1.24-3.7,0c-2.65,2.67-5.34,5.3-8,7.94A3.18,3.18,0,0,1,4,60.31Z"/><path class="cls-1" d="M57.18,27.91c-.13,0-.28.05-.39,0-3.68-1.51-5.78.8-8,3.16S46.6,33.32,44.32,31c-1.45-1.45-2.83-3-4.33-4.35-.88-.82-1-1.38,0-2.21,1.38-1.23,2.6-2.63,4-3.86a2.47,2.47,0,0,0,.78-2.76A12.92,12.92,0,0,1,59,2.09c.71.08,1.71,0,2,.6.37.75-.63,1.17-1.1,1.65-2.32,2.35-4.7,4.64-7,7-1.52,1.53-1.53,2.3,0,3.84s3,3,4.45,4.52c1.21,1.29,2.33,1.23,3.54,0q3.78-3.8,7.61-7.52c.35-.33.62-1,1.22-.78s.42.91.51,1.42A12.89,12.89,0,0,1,57.18,27.91Z"/></g></g></svg>