<svg xmlns="http://www.w3.org/2000/svg" viewBox="0 0 149.79 149.79"><defs><style>.cls-1{fill:#52bd94;}</style></defs><title>Asset 9</title><g id="Layer_2" data-name="Layer 2"><g id="Layer_1-2" data-name="Layer 1"><path class="cls-1" d="M126.42,50.83H67.19a2.2,2.2,0,0,0,0,4.39h59.23a2.2,2.2,0,0,0,0-4.39Zm0-13.16H67.19a2.2,2.2,0,0,0,0,4.39h59.23a2.2,2.2,0,0,0,0-4.39ZM108.87,64H67.19a2.2,2.2,0,0,0,0,4.39h41.68a2.2,2.2,0,0,0,0-4.39ZM37.28,46.52c0-4.88-3.55-8.84-7.9-8.84s-7.89,4-7.89,8.84,3.54,8.84,7.89,8.84S37.28,51.38,37.28,46.52ZM29.38,51c-1.94,0-3.51-2-3.51-4.45s1.58-4.45,3.51-4.45,3.52,2,3.52,4.45S31.3,51,29.37,51Zm115.29-26.1a5.13,5.13,0,0,0,5.12-5.12V13.9a5.12,5.12,0,0,0-5.12-5.12H87.74V5.12A5.13,5.13,0,0,0,82.62,0H67.17a5.13,5.13,0,0,0-5.12,5.12V8.78H5.12A5.12,5.12,0,0,0,0,13.9v5.85a5.13,5.13,0,0,0,5.12,5.12H8.78V89.23H5.12A5.12,5.12,0,0,0,0,94.35v5.85a5.12,5.12,0,0,0,5.12,5.12H46.84L23.7,145.4H2.19a2.2,2.2,0,0,0,0,4.39H147.6a2.2,2.2,0,0,0,0-4.39H126.09L103,105.32h41.72a5.12,5.12,0,0,0,5.12-5.12V94.35a5.12,5.12,0,0,0-5.12-5.12H141V24.87ZM66.44,5.12a.73.73,0,0,1,.73-.73H82.62a.73.73,0,0,1,.73.73V8.78H66.44ZM28.77,145.4l23.14-40.08H64.26L41.12,145.4Zm17.41,0,23.16-40.08H80.45l23.14,40.08Zm74.84,0H108.67L85.53,105.32H97.88Zm23.65-51.78a.73.73,0,0,1,.73.73v5.85a.73.73,0,0,1-.73.73H5.12a.73.73,0,0,1-.73-.73V94.35a.73.73,0,0,1,.73-.73ZM13.17,89.23V24.87H136.62V89.23Zm-8-68.75a.73.73,0,0,1-.73-.73V13.9a.73.73,0,0,1,.73-.73H144.67a.73.73,0,0,1,.73.73v5.85a.73.73,0,0,1-.73.73Zm42.2,18.8a2.19,2.19,0,0,0-2.87,1.17l-13,30.83a2.19,2.19,0,0,0,1.17,2.87h0a2.08,2.08,0,0,0,.85.17,2.19,2.19,0,0,0,2-1.34l13-30.84A2.2,2.2,0,0,0,47.32,39.28Zm3.11,19.47c-4.36,0-7.89,4-7.89,8.84s3.54,8.84,7.89,8.84,7.92-4,7.92-8.84S54.8,58.75,50.43,58.75Zm0,13.29c-1.94,0-3.51-2-3.51-4.45s1.58-4.45,3.51-4.45,3.53,2,3.53,4.45S52.37,72,50.43,72Z"/></g></g></svg>