<svg xmlns="http://www.w3.org/2000/svg" viewBox="0 0 76.77 85.09"><defs><style>.cls-1{fill:none;stroke:#52bd94;stroke-linecap:round;stroke-linejoin:round;stroke-width:4px;}</style></defs><title>Asset 6</title><g id="Layer_2" data-name="Layer 2"><g id="Layer_1-2" data-name="Layer 1"><path class="cls-1" d="M17.77,46.84c-5.44.89-10.83-1.15-13.69-5.29C-.22,35.33,2.86,26.86,6.84,23.7S18.61,19.94,18.65,20h0c-.06-.16-.14-.37-.22-.63A14.16,14.16,0,0,1,20.69,7C25.79.33,35.5,2.2,36.34,2.37A17.92,17.92,0,0,1,46.74,9a19,19,0,0,1,3.9,11,8.83,8.83,0,0,1,6.3-4,9.06,9.06,0,0,1,8.23,3.65c1.52,2,2.59,5,1.94,7.55a3.28,3.28,0,0,1-2.22,2.44,7.61,7.61,0,0,1,5.55.1c4.1,1.94,5.78,8.75,2.88,13.14a10,10,0,0,1-9.63,4"/><rect class="cls-1" x="22.22" y="33.8" width="37.31" height="24.51"/><polyline class="cls-1" points="22.23 33.8 40.86 49.91 59.53 33.8"/><line class="cls-1" x1="22.22" y1="58.31" x2="36.4" y2="46.05"/><line class="cls-1" x1="59.53" y1="58.31" x2="45.33" y2="46.05"/><polygon class="cls-1" points="37.51 63.4 44.39 63.4 44.39 74.55 47.83 74.55 40.88 83.09 34.48 74.69 37.37 74.83 37.51 63.4"/></g></g></svg>