<svg xmlns="http://www.w3.org/2000/svg" viewBox="0 0 57.89 58.49"><defs><style>.cls-1{fill:none;stroke:#52bd94;stroke-linecap:round;stroke-linejoin:round;stroke-width:4px;}</style></defs><title>Asset 4</title><g id="Layer_2" data-name="Layer 2"><g id="Layer_1-2" data-name="Layer 1"><path class="cls-1" d="M2.07,9.77a44.94,44.94,0,0,0,8.7,29.09,44.45,44.45,0,0,0,38,17.56S51.81,45.64,51,44.16,39.19,36,36.1,37.66s-6.27,5.81-6.27,5.81L14.89,28.06s6.42-5,6-7.19S15.59,6.7,14,6.39,3.72,8,2.07,9.77Z"/><path class="cls-1" d="M29.83,17.3c5.93-.28,9.73,4.86,10.42,10.22"/><path class="cls-1" d="M29.83,9.87c10.53-.2,18.24,7.83,18.58,18.07"/><path class="cls-1" d="M29.83,2.13c13.75-1.49,25,9.75,26,23.1a17.51,17.51,0,0,1,0,2.71"/></g></g></svg>