<svg xmlns="http://www.w3.org/2000/svg" viewBox="0 0 75.18 84.57"><defs><style>.cls-1{fill:none;stroke:#52bd94;stroke-linecap:round;stroke-linejoin:round;stroke-width:4px;}</style></defs><title>Asset 7</title><g id="Layer_2" data-name="Layer 2"><g id="Layer_1-2" data-name="Layer 1"><path class="cls-1" d="M4.31,13.79,37.74,2,71.38,13.79s13.5,45.85-33.53,68.78C37.85,82.57-8.76,67.86,4.31,13.79Z"/><ellipse class="cls-1" cx="37.18" cy="43.71" rx="14.43" ry="16"/><line class="cls-1" x1="48.37" y1="32.7" x2="53.62" y2="27.34"/><line class="cls-1" x1="51.61" y1="43.71" x2="59.07" y2="43.71"/><line class="cls-1" x1="48.37" y1="53.82" x2="54.14" y2="59.71"/><line class="cls-1" x1="26.72" y1="54.73" x2="21.57" y2="59.71"/><line class="cls-1" x1="22.77" y1="42.93" x2="16.11" y2="42.93"/><line class="cls-1" x1="26.72" y1="32.7" x2="21.57" y2="26.64"/><line class="cls-1" x1="37.21" y1="35.5" x2="37.21" y2="59.71"/><path class="cls-1" d="M31.84,27.49a5.94,5.94,0,0,1,9.67-6.75,6.34,6.34,0,0,1,.77,7.42"/></g></g></svg>