<svg xmlns="http://www.w3.org/2000/svg" viewBox="0 0 116.44 109.01"><defs><style>.cls-1{fill:#52bd94;}</style></defs><title>Asset 13</title><g id="Layer_2" data-name="Layer 2"><g id="Layer_1-2" data-name="Layer 1"><path class="cls-1" d="M54.5,109A54.51,54.51,0,1,1,109,54.5a5,5,0,1,1-9.91,0A44.59,44.59,0,1,0,86,86a4.95,4.95,0,0,1,7,7A54.85,54.85,0,0,1,54.5,109Z"/><path class="cls-1" d="M93.7,43.78h20.7a2,2,0,0,1,1.75,3.07L105.8,64.24a2,2,0,0,1-3.5,0L92,46.85a2,2,0,0,1,.72-2.79A2,2,0,0,1,93.7,43.78Z"/></g></g></svg>