<svg width="196" height="138" viewBox="0 0 196 138" fill="none" xmlns="http://www.w3.org/2000/svg">
<path fill-rule="evenodd" clip-rule="evenodd" d="M86.1861 117.521H126.492C126.594 124.497 129.463 130.732 137.257 135.658H75.4347C81.6554 131.14 86.2147 125.649 86.1861 117.521ZM65.7513 48.4212V132.736C65.7513 134.342 64.4357 135.658 62.8313 135.658H3.42153C1.81556 135.658 0.5 134.342 0.5 132.736V48.4212C0.5 46.8168 1.81556 45.5012 3.42153 45.5012H62.8234C64.4357 45.5012 65.7513 46.8152 65.7513 48.4212ZM33.1225 125.946C34.9696 125.946 36.4709 127.445 36.4709 129.293C36.4709 131.14 34.9696 132.641 33.1225 132.641C31.2753 132.641 29.774 131.14 29.774 129.293C29.782 127.445 31.2753 125.946 33.1225 125.946ZM61.7903 50.7127V122.977H4.87198V50.7127H61.7903ZM163.223 70.2636H188.522C190.447 70.2636 192.204 71.0492 193.456 72.3108C194.726 73.5819 195.5 75.3291 195.5 77.2445V130.681C195.5 132.608 194.716 134.364 193.456 135.615C192.183 136.888 190.438 137.66 188.522 137.66H163.223C161.297 137.66 159.54 136.876 158.29 135.615C157.019 134.345 156.244 132.598 156.244 130.681V77.235C156.244 75.3085 157.028 73.5517 158.29 72.2997C159.559 71.0301 161.297 70.2636 163.223 70.2636ZM158.648 127.966H193.086V77.8761H158.648V127.966ZM175.863 130.15C177.442 130.15 178.733 131.421 178.733 133.019C178.733 134.599 177.461 135.889 175.863 135.889C174.284 135.889 172.993 134.618 172.993 133.019C172.993 131.441 174.264 130.15 175.863 130.15ZM28.2712 0.0976562H182.855C185.302 0.0976562 187.299 2.09242 187.299 4.54105V54.8942H180.989V10.0445C180.989 7.88788 179.228 6.11052 177.055 6.11052H34.0556C31.8989 6.11052 30.1216 7.87201 30.1216 10.0445V35.7178H23.8278V4.54105C23.8278 2.09242 25.8242 0.0976562 28.2712 0.0976562ZM75.1332 95.975H147.303V111.389H75.1332V95.975Z" fill="#1C9EF8"/>
</svg>
