<svg width="150" height="148" viewBox="0 0 150 148" fill="none" xmlns="http://www.w3.org/2000/svg">
<path d="M112.726 83.1071V138.194C112.726 142.069 109.589 145.206 105.714 145.206H46.6596C42.7842 145.206 39.647 142.069 39.647 138.194V9.01267C39.647 5.13725 42.7842 2 46.6596 2H105.714C109.589 2 112.726 5.13725 112.726 9.01267V62.8995" stroke="white" stroke-width="4" stroke-miterlimit="10" stroke-linecap="round" stroke-linejoin="round"/>
<path d="M39.7393 18.978H112.726" stroke="white" stroke-width="4" stroke-miterlimit="10" stroke-linecap="round" stroke-linejoin="round"/>
<path d="M67.8822 10.6736H84.5835" stroke="white" stroke-width="4" stroke-miterlimit="10" stroke-linecap="round" stroke-linejoin="round"/>
<path d="M2 54.0415H99.2547" stroke="white" stroke-width="4" stroke-miterlimit="10" stroke-linecap="round" stroke-linejoin="round"/>
<path d="M28.5743 20.6389H4.49133V44.7219H28.5743V20.6389Z" stroke="white" stroke-width="4" stroke-miterlimit="10" stroke-linecap="round" stroke-linejoin="round"/>
<path d="M28.6666 87.3516H4.58362V135.148H28.6666V87.3516Z" stroke="white" stroke-width="4" stroke-miterlimit="10" stroke-linecap="round" stroke-linejoin="round"/>
<path d="M147.605 62.8073H62.2536V83.1071H147.605V62.8073Z" stroke="white" stroke-width="4" stroke-miterlimit="10" stroke-linecap="round" stroke-linejoin="round"/>
<path d="M39.7393 126.752H112.726" stroke="white" stroke-width="4" stroke-miterlimit="10" stroke-linecap="round" stroke-linejoin="round"/>
<path d="M70.9272 136.071H81.8153" stroke="#52BD94" stroke-width="4" stroke-miterlimit="10" stroke-linecap="round" stroke-linejoin="round"/>
<path d="M23.3148 101.285H10.489" stroke="#52BD94" stroke-width="4" stroke-miterlimit="10" stroke-linecap="round" stroke-linejoin="round"/>
<path d="M23.5917 111.711H10.7659" stroke="#52BD94" stroke-width="4" stroke-miterlimit="10" stroke-linecap="round" stroke-linejoin="round"/>
<path d="M23.7762 122.046H10.9504" stroke="#52BD94" stroke-width="4" stroke-miterlimit="10" stroke-linecap="round" stroke-linejoin="round"/>
<path d="M16.9481 79.2317C21.4835 79.2317 25.1603 75.5549 25.1603 71.0195C25.1603 66.484 21.4835 62.8073 16.9481 62.8073C12.4126 62.8073 8.73584 66.484 8.73584 71.0195C8.73584 75.5549 12.4126 79.2317 16.9481 79.2317Z" stroke="white" stroke-width="4" stroke-miterlimit="10" stroke-linecap="round" stroke-linejoin="round"/>
<path d="M67.5131 73.5109H111.619" stroke="white" stroke-width="4" stroke-miterlimit="10" stroke-linecap="round" stroke-linejoin="round"/>
<path d="M141.146 73.5109H112.726" stroke="white" stroke-width="4" stroke-miterlimit="10" stroke-linecap="round" stroke-linejoin="round"/>
<path d="M145.483 50.7197H120.939" stroke="#52BD94" stroke-width="4" stroke-miterlimit="10" stroke-linecap="round" stroke-linejoin="round"/>
<path d="M145.483 41.1234H120.939" stroke="#52BD94" stroke-width="4" stroke-miterlimit="10" stroke-linecap="round" stroke-linejoin="round"/>
<path d="M145.483 31.5271H120.939" stroke="#52BD94" stroke-width="4" stroke-miterlimit="10" stroke-linecap="round" stroke-linejoin="round"/>
<path d="M145.483 21.9308H120.939" stroke="#52BD94" stroke-width="4" stroke-miterlimit="10" stroke-linecap="round" stroke-linejoin="round"/>
<path d="M16.3944 25.2526V40.2006" stroke="#52BD94" stroke-width="4" stroke-miterlimit="10" stroke-linecap="round" stroke-linejoin="round"/>
<path d="M8.92041 32.7266H24.1453" stroke="#52BD94" stroke-width="4" stroke-miterlimit="10" stroke-linecap="round" stroke-linejoin="round"/>
</svg>
