<svg width="156" height="144" viewBox="0 0 156 144" fill="none" xmlns="http://www.w3.org/2000/svg">
<g clip-path="url(#clip0_139_69)">
<path d="M96.3828 12.7385C95.7377 12.9231 95.1849 13.1077 94.632 13.2L93.6184 11.2615V16.4308C93.7106 16.4308 93.8949 16.4308 93.987 16.4308C94.1713 16.4308 94.3556 16.4308 94.4477 16.3385C95.0927 16.0615 95.8299 15.8769 96.567 15.6923V12.6462C96.4749 12.6462 96.4749 12.7385 96.3828 12.7385ZM95.4613 93.0462L93.6184 92.4923V133.754C93.6184 133.846 93.6184 133.938 93.6184 134.031C93.4341 137.908 90.2091 141.046 86.339 141.046H17.876C14.0981 141.046 10.9652 138.185 10.5966 134.492C10.5966 134.215 10.5966 134.031 10.5966 133.754V10.2462C10.5966 6.18462 13.9138 2.95385 17.876 2.95385H86.2469C88.9191 2.95385 91.2227 4.33846 92.5127 6.46154C92.8813 6.46154 93.1577 6.55385 93.5263 6.64615C94.4477 6.92308 95.277 7.47692 95.922 8.21538C96.1063 8.4 96.1985 8.58462 96.3828 8.76923C95.6456 3.78462 91.407 0 86.2469 0H17.876C12.2552 0 7.64796 4.61539 7.64796 10.2462V133.754C7.64796 136.615 8.84584 139.2 10.6887 141.046C12.5316 142.892 15.1116 144 17.876 144H86.2469C89.0112 144 91.5913 142.892 93.4341 141.046C95.3692 139.2 96.567 136.615 96.567 133.754V93.3231L95.4613 93.0462ZM93.6184 85.5692V88.6154L96.567 89.4462V86.4L93.6184 85.5692Z" fill="white"/>
<path d="M36.2126 25.9385H20.0874C19.2581 25.9385 18.6131 26.5846 18.6131 27.4154V43.5692C18.6131 44.4 19.2581 45.0462 20.0874 45.0462H36.2126C37.0419 45.0462 37.6869 44.4 37.6869 43.5692V27.4154C37.6869 26.6769 36.9498 25.9385 36.2126 25.9385ZM34.7383 42.0923H21.5617V28.8923H34.7383V42.0923Z" fill="#52BD94"/>
<path d="M60.078 25.9385H44.0449C43.2156 25.9385 42.5706 26.5846 42.5706 27.4154V43.5692C42.5706 44.4 43.2156 45.0462 44.0449 45.0462H60.1701C60.8151 45.0462 61.2758 44.6769 61.5523 44.1231C61.6444 43.9385 61.6444 43.7539 61.6444 43.5692V27.4154C61.5523 26.6769 60.9073 25.9385 60.078 25.9385ZM58.6958 42.0923H45.5192V28.8923H58.6958V42.0923Z" fill="white"/>
<path d="M36.2126 51.0461H20.0874C19.2581 51.0461 18.6131 51.6923 18.6131 52.5231V68.6769C18.6131 69.5077 19.2581 70.1538 20.0874 70.1538H36.2126C37.0419 70.1538 37.6869 69.5077 37.6869 68.6769V52.4308C37.6869 51.6923 36.9498 51.0461 36.2126 51.0461ZM34.7383 67.1077H21.5617V53.9077H34.7383V67.1077Z" fill="white"/>
<path d="M60.078 51.0461H44.0449C43.2156 51.0461 42.5706 51.6923 42.5706 52.5231V68.6769C42.5706 69.5077 43.2156 70.1538 44.0449 70.1538H60.1701C60.9994 70.1538 61.6444 69.5077 61.6444 68.6769V52.4308C61.5523 51.6923 60.9073 51.0461 60.078 51.0461ZM58.6958 67.1077H45.5192V53.9077H58.6958V67.1077Z" fill="white"/>
<path d="M36.2126 76.0615H20.0874C19.2581 76.0615 18.6131 76.7077 18.6131 77.5384V93.6923C18.6131 94.5231 19.2581 95.1692 20.0874 95.1692H36.2126C37.0419 95.1692 37.6869 94.5231 37.6869 93.6923V77.5384C37.6869 76.7077 36.9498 76.0615 36.2126 76.0615ZM34.7383 92.1231H21.5617V79.0154H34.7383V92.1231Z" fill="white"/>
<path d="M60.078 76.0615H44.0449C43.2156 76.0615 42.5706 76.7077 42.5706 77.5384V93.6923C42.5706 94.5231 43.2156 95.1692 44.0449 95.1692H60.1701C60.9994 95.1692 61.6444 94.5231 61.6444 93.6923V77.5384C61.5523 76.7077 60.9073 76.0615 60.078 76.0615ZM58.6958 92.1231H45.5192V79.0154H58.6958V92.1231Z" fill="#52BD94"/>
<path d="M36.2126 101.077H20.0874C19.2581 101.077 18.6131 101.723 18.6131 102.554V118.708C18.6131 119.538 19.2581 120.185 20.0874 120.185H36.2126C37.0419 120.185 37.6869 119.538 37.6869 118.708V102.554C37.6869 101.723 36.9498 101.077 36.2126 101.077ZM34.7383 117.231H21.5617V104.031H34.7383V117.231Z" fill="#52BD94"/>
<path d="M60.078 101.077H44.0449C43.2156 101.077 42.5706 101.723 42.5706 102.554V118.708C42.5706 119.538 43.2156 120.185 44.0449 120.185H60.1701C60.9994 120.185 61.6444 119.538 61.6444 118.708V102.554C61.5523 101.723 60.9073 101.077 60.078 101.077ZM58.6958 117.231H45.5192V104.031H58.6958V117.231Z" fill="white"/>
<path d="M85.2333 101.077H69.1081C68.2788 101.077 67.6338 101.723 67.6338 102.554V118.708C67.6338 119.538 68.2788 120.185 69.1081 120.185H85.2333C86.0626 120.185 86.7076 119.538 86.7076 118.708V102.554C86.7076 101.723 86.0626 101.077 85.2333 101.077ZM83.759 117.231H70.5824V104.031H83.759V117.231Z" fill="#52BD94"/>
<path d="M85.2333 88.523C84.5883 87.323 84.404 86.123 84.6804 84.923C84.3119 84.7384 84.0354 84.5538 83.6669 84.2769V92.2153H70.5824V79.0153H77.1246C77.0325 78.923 76.9403 78.8307 76.8482 78.7384C76.5718 78.4615 76.3875 78.2769 76.111 78C75.466 78.2769 74.7289 78.4615 73.9917 78.4615C73.531 78.4615 73.1624 78.3692 72.7017 78.2769H72.6096H72.5174C71.3195 77.9077 70.3981 77.1692 69.7531 76.1538H69.1081C68.2788 76.1538 67.6338 76.8 67.6338 77.6307V93.7846C67.6338 94.6153 68.2788 95.2615 69.1081 95.2615H85.2333C86.0626 95.2615 86.7076 94.6153 86.7076 93.7846V90.2769C86.0626 89.723 85.6019 89.1692 85.2333 88.523Z" fill="white"/>
<path d="M83.114 10.7077L79.9811 12.3692C79.3361 12.6461 78.8754 13.1077 78.5068 13.5692H9.12227C8.29297 13.5692 7.64796 12.923 7.64796 12.0923C7.64796 11.2615 8.29297 10.6154 9.12227 10.6154H83.114V10.7077Z" fill="white"/>
<path d="M95.4613 132.554C95.4613 133.385 94.8163 134.031 93.987 134.031H93.5263L11.0573 134.585C10.873 134.585 10.6887 134.585 10.5966 134.492C10.0437 134.308 9.58298 133.754 9.58298 133.108C9.58298 132.462 9.95156 131.908 10.5044 131.723C10.6887 131.631 10.873 131.631 11.0573 131.631L93.5263 131.077H93.8949C94.8163 131.169 95.4613 131.815 95.4613 132.554Z" fill="white"/>
<path d="M154.526 144H1.47431C0.645009 144 0 143.354 0 142.523C0 141.692 0.645009 141.046 1.47431 141.046H154.526C155.355 141.046 156 141.692 156 142.523C156 143.354 155.355 144 154.526 144Z" fill="white"/>
<path d="M147.338 54.5539C147.154 54.1846 146.878 53.9077 146.417 53.8154L143.561 52.9846C144.113 47.8154 143.561 42.5539 141.994 37.6616L144.574 36.2769C144.943 36.0923 145.127 35.8154 145.311 35.4462C145.403 35.0769 145.403 34.7077 145.219 34.3385L139.967 24.6462C139.783 24.2769 139.506 24 139.138 23.9077C139.045 23.9077 138.953 23.9077 138.953 23.9077C138.861 23.9077 138.769 23.9077 138.769 23.9077C138.585 23.9077 138.4 23.9077 138.216 24C138.124 24 138.124 24 138.032 24.0923L135.452 25.4769C132.227 21.4154 128.08 18.0923 123.473 15.6923L124.302 13.0154C124.395 12.6462 124.395 12.2769 124.21 11.9077C124.026 11.5385 123.75 11.3539 123.289 11.1692L112.692 8.03078C112.6 7.93848 112.416 7.93848 112.324 7.93848C112.047 7.93848 111.863 8.03078 111.587 8.12309C111.218 8.30771 110.942 8.58463 110.849 8.95386L110.112 11.5385C109.744 11.5385 109.467 11.4462 109.099 11.4462C108.177 11.3539 107.348 11.3539 106.426 11.3539C106.334 11.3539 106.15 11.3539 106.058 11.3539C105.597 11.3539 105.136 11.3539 104.676 11.3539C104.215 11.3539 103.754 11.3539 103.294 11.4462C103.201 11.4462 103.109 11.4462 103.109 11.4462C102.464 11.5385 101.819 11.5385 101.174 11.6308C100.529 11.7231 99.8842 11.8154 99.2392 12C98.3178 12.1846 97.4885 12.3692 96.6592 12.5539H96.567C96.0142 12.7385 95.3692 12.8308 94.8163 13.0154L93.8027 11.0769L93.6184 10.7077C93.5263 10.6154 93.5263 10.5231 93.4341 10.4308C93.2498 10.2462 92.9734 10.0616 92.7891 9.96925C92.6048 9.96925 92.5127 9.87694 92.3284 9.87694C92.052 9.87694 91.8677 9.96925 91.5913 10.0616L90.9462 10.4308L85.6019 13.3846L81.9161 15.4154C81.179 15.7846 80.9025 16.7077 81.3633 17.3539L82.5611 19.5692C78.4146 22.8923 75.0053 27.0462 72.6096 31.7539L70.306 31.0154C70.2138 31.0154 70.1217 31.0154 70.1217 31.0154C70.0295 31.0154 70.0295 31.0154 69.9374 31.0154C69.661 31.0154 69.4767 31.1077 69.2924 31.2C69.1081 31.2923 69.0159 31.3846 68.9238 31.4769C68.7395 31.6616 68.6474 31.8462 68.5552 32.1231L65.4223 42.6462C65.3302 43.0154 65.3302 43.3846 65.5145 43.7539C65.6988 44.1231 66.0673 44.3077 66.4359 44.4923L68.7395 45.1385C68.1866 50.4 68.7395 55.7539 70.3981 60.8308L68.2788 62.0308C67.9102 62.2154 67.6338 62.4923 67.5416 62.8616C67.4495 63.2308 67.4495 63.6 67.6338 63.9692L72.886 73.6616C73.0703 74.0308 73.3467 74.2154 73.8074 74.4C73.8996 74.4 74.0839 74.4923 74.176 74.4923C74.4524 74.4923 74.6367 74.4 74.9132 74.3077L77.1246 73.1077C77.9539 74.0308 78.7832 74.9539 79.6125 75.8769C80.6261 76.8923 81.7318 77.9077 82.9297 78.8308C83.2983 79.1077 83.6669 79.3846 84.0354 79.6616C84.9569 80.4 85.9705 81.0462 86.984 81.6C87.8133 82.0616 88.5505 82.5231 89.3798 82.8923L88.6426 85.3846C88.5505 85.7539 88.5505 86.1231 88.7348 86.4923C88.9191 86.8615 89.1955 87.0462 89.6562 87.2308L93.8949 88.5231L96.8435 89.3539L100.253 90.3692C100.437 90.3692 100.529 90.3692 100.714 90.3692C101.359 90.3692 101.911 90 102.096 89.3539L102.833 86.7692C103.386 86.8616 103.939 86.8616 104.491 86.8616L103.386 83.8154C102.925 83.8154 102.464 83.7231 101.911 83.6308C101.819 83.6308 101.819 83.6308 101.727 83.6308C101.082 83.6308 100.529 84.0923 100.345 84.6462L99.6078 87.0462L96.8435 86.2154L93.8949 85.3846L91.8677 84.8308L92.5127 82.5231C92.697 81.7846 92.4206 81.0462 91.6834 80.7692C90.0248 80.0308 88.4584 79.1077 86.8919 78.0923C85.8783 77.4462 84.8647 76.7077 83.9433 75.8769C81.9161 74.2154 80.1654 72.3692 78.5989 70.3385C78.3225 69.9692 77.8618 69.7846 77.4011 69.7846C77.1246 69.7846 76.9403 69.8769 76.6639 69.9692L74.6367 71.0769L70.7667 63.9692L72.7017 62.8616C73.3467 62.4923 73.6231 61.7539 73.3467 61.1077C71.4117 55.7539 70.7667 50.0308 71.596 44.4C71.596 44.1231 71.596 43.7539 71.4117 43.4769C71.2274 43.1077 70.951 42.9231 70.5824 42.8308L68.4631 42.1846L70.7667 34.4308L72.886 35.0769C73.0703 35.0769 73.1624 35.1692 73.2546 35.1692C73.4389 35.1692 73.6231 35.1692 73.7153 35.0769C73.8996 34.9846 73.9917 34.9846 74.176 34.8C74.3603 34.7077 74.4524 34.5231 74.5446 34.3385C76.9403 29.2616 80.6261 24.7385 85.1412 21.3231C85.694 20.8616 85.8783 20.1231 85.5097 19.4769L84.404 17.5385L91.4991 13.6616L92.6048 15.7846C92.7891 16.1539 93.1577 16.4308 93.5263 16.5231C93.6184 16.5231 93.8027 16.5231 93.8949 16.5231C94.0791 16.5231 94.2634 16.5231 94.3556 16.4308C95.0006 16.1539 95.7377 15.9692 96.4749 15.7846C97.3042 15.5077 98.1335 15.3231 98.8706 15.1385C99.6999 14.9539 100.529 14.7692 101.359 14.6769C102.925 14.4923 104.491 14.4 105.966 14.4C107.624 14.4 109.283 14.4923 110.849 14.7692C110.942 14.7692 111.034 14.7692 111.034 14.7692C111.679 14.7692 112.232 14.3077 112.416 13.7539L113.153 11.3539L120.893 13.6616L120.156 16.1539C119.972 16.8923 120.248 17.6308 120.893 17.9077C125.869 20.3077 130.292 23.9077 133.701 28.3385C133.978 28.7077 134.438 28.8923 134.899 28.8923C135.175 28.8923 135.36 28.8 135.636 28.7077L137.94 27.4154L141.81 34.5231L139.414 35.8154C138.769 36.1846 138.493 36.9231 138.769 37.5692C140.612 42.7385 141.257 48.4616 140.428 53.9077C140.336 54.6462 140.796 55.2923 141.441 55.4769L144.021 56.2154L141.718 63.9692L139.138 63.2308C138.953 63.1385 138.861 63.1385 138.769 63.1385C138.585 63.1385 138.493 63.1385 138.308 63.2308C138.216 63.2308 138.216 63.2308 138.216 63.2308C138.032 63.3231 137.94 63.3231 137.848 63.4154C137.755 63.4154 137.755 63.5077 137.663 63.6C137.571 63.6923 137.479 63.7846 137.387 63.9692C135.913 67.2 133.885 70.1539 131.49 72.7385L132.595 75.7846C135.36 73.0154 137.663 69.7846 139.414 66.3692L142.271 67.2C142.363 67.2 142.547 67.2923 142.639 67.2923C142.916 67.2923 143.1 67.2 143.284 67.1077C143.376 67.0154 143.561 66.9231 143.653 66.8308C143.837 66.6462 143.929 66.4616 144.021 66.1846L147.154 55.5692C147.523 55.2923 147.523 54.9231 147.338 54.5539Z" fill="#52BD94"/>
<path d="M126.33 76.2462L126.422 76.6154L126.79 77.5385L126.33 76.2462ZM127.988 80.7693L128.08 81.0462L127.988 80.7693ZM108.546 80.677L108.269 80.7693L109.559 83.9078H109.652C109.652 83.9078 109.744 83.9078 109.836 83.9078L108.546 80.677ZM110.849 86.7693H110.757L111.863 89.5385L110.849 86.7693ZM126.33 76.2462L126.422 76.6154L126.79 77.5385L126.33 76.2462ZM127.988 80.7693L128.08 81.0462L127.988 80.7693ZM108.546 80.677L108.269 80.7693L109.559 83.9078H109.652C109.652 83.9078 109.744 83.9078 109.836 83.9078L108.546 80.677ZM126.33 76.2462L126.422 76.6154L126.79 77.5385L126.33 76.2462ZM127.988 80.7693L128.08 81.0462L127.988 80.7693ZM108.546 80.677L108.269 80.7693L109.559 83.9078H109.652C109.652 83.9078 109.744 83.9078 109.836 83.9078L108.546 80.677Z" fill="white"/>
<path d="M143.653 119.262L130.937 87.7847C130.753 87.4154 130.66 87.0462 130.476 86.677C129.37 83.9077 128.172 81.0462 127.067 78.277C126.975 78 126.882 77.8154 126.79 77.5385L126.422 76.6154C126.33 76.5231 126.33 76.3385 126.237 76.2462C125.961 75.5077 125.685 74.8616 125.408 74.2154C124.395 71.7231 123.381 69.2308 122.367 66.6462C125.592 62.8616 129.37 56.9539 130.2 49.2C130.476 46.9847 130.845 43.2924 129.278 38.9539C126.882 31.9385 120.985 26.4924 114.259 25.1077C112.139 24.6462 109.836 24.6462 107.624 24.9231C107.164 25.0154 106.795 25.2923 106.611 25.6616C106.334 26.0308 106.334 26.4924 106.519 26.9539L113.429 43.2924L107.256 50.8616L98.5021 49.5693L96.4749 44.8616L93.5263 38.1231L91.2227 32.7693C91.0384 32.3077 90.6698 32.0308 90.2091 31.9385C89.7484 31.8462 89.2877 31.9385 88.9191 32.2154C88.8269 32.3077 76.3875 42.8308 83.8511 58.5231C86.1548 63.3231 89.3798 67.0154 93.342 69.6C93.4341 69.6 93.4341 69.6924 93.5263 69.6924C94.4477 70.3385 95.4613 70.8 96.4749 71.2616C99.1471 72.4616 102.096 73.2 105.136 73.3847L106.795 77.3539L107.809 79.7539C107.993 80.1231 108.085 80.4 108.269 80.7693C108.73 81.7847 109.191 82.8923 109.652 83.9077C110.02 84.8308 110.481 85.7539 110.849 86.7693L111.863 89.5385V89.6308L112.416 90.9231L127.159 126.462C127.159 126.462 127.159 126.554 127.251 126.554C128.449 128.954 130.568 130.708 133.148 131.446C133.978 131.723 134.899 131.815 135.728 131.815C137.295 131.815 138.769 131.446 140.059 130.615C143.745 128.4 145.311 123.508 143.653 119.262ZM138.585 128.123C137.295 128.954 135.544 129.139 133.978 128.585C132.227 128.123 130.753 126.923 129.923 125.262L115.364 90.277L114.627 88.4308L113.706 86.2154L112.6 83.4462C112.508 83.4462 112.324 83.5385 112.232 83.5385C112.324 83.5385 112.508 83.4462 112.6 83.4462L110.942 79.3847L109.652 76.2462L107.624 71.3539C107.44 70.8 106.887 70.4308 106.334 70.4308C102.833 70.3385 99.5157 69.5077 96.6592 67.9385C96.1985 67.6616 95.6456 67.3847 95.1849 67.0154C94.7242 66.7385 94.2634 66.3693 93.8027 66C90.8541 63.7847 88.5505 60.7385 86.7076 57.1385C81.4554 46.7077 86.6155 38.9539 89.3798 35.9077L93.6184 45.5077L96.1985 51.5077C96.2906 51.6923 96.3827 51.877 96.4749 51.9693C96.6592 52.1539 97.0278 52.3385 97.3042 52.4308L107.624 54C108.177 54.0924 108.638 53.9077 109.006 53.4462L116.194 44.4923C116.562 44.0308 116.654 43.477 116.378 43.0154L109.928 27.6923C111.218 27.6923 112.416 27.6923 113.614 27.9693C119.327 29.1693 124.395 33.877 126.514 39.877C127.804 43.5693 127.435 46.8 127.251 48.8308C126.514 56.3077 122.644 61.8462 119.603 65.2616C119.234 65.7231 119.142 66.277 119.327 66.8308L122.828 75.6L123.197 76.4308L124.21 79.0154L125.5 82.3385L126.606 85.1077L128.172 89.077L130.292 94.4308L140.704 120.277C142.086 123.231 141.073 126.646 138.585 128.123Z" fill="white"/>
</g>
<defs>
<clipPath id="clip0_139_69">
<rect width="156" height="144" fill="white"/>
</clipPath>
</defs>
</svg>
