<svg width="105" height="94" viewBox="0 0 105 94" fill="none" xmlns="http://www.w3.org/2000/svg">
<g clip-path="url(#clip0_1_146)">
<path d="M52.5003 56.7872C57.669 56.7872 61.859 52.6161 61.859 47.4706C61.859 42.3252 57.669 38.1541 52.5003 38.1541C47.3316 38.1541 43.1416 42.3252 43.1416 47.4706C43.1416 52.6161 47.3316 56.7872 52.5003 56.7872Z" fill="#61DAFB"/>
<path d="M52.4996 66.5579C80.2339 66.5579 102.717 58.0121 102.717 47.4702C102.717 36.9284 80.2339 28.3826 52.4996 28.3826C24.7653 28.3826 2.28223 36.9284 2.28223 47.4702C2.28223 58.0121 24.7653 66.5579 52.4996 66.5579Z" stroke="#61DAFB" stroke-width="5"/>
<path d="M35.8945 57.0141C49.7617 80.9247 68.4376 96.0351 77.6083 90.7642C86.7791 85.4933 82.9719 61.837 69.1047 37.9265C55.2376 14.0159 36.5617 -1.09451 27.3909 4.1764C18.2202 9.44731 22.0274 33.1036 35.8945 57.0141Z" stroke="#61DAFB" stroke-width="5"/>
<path d="M35.895 37.9267C22.0278 61.8373 18.2206 85.4935 27.3914 90.7644C36.5621 96.0353 55.238 80.9249 69.1052 57.0144C82.9723 33.1038 86.7795 9.44754 77.6088 4.17663C68.438 -1.09428 49.7621 14.0161 35.895 37.9267Z" stroke="#61DAFB" stroke-width="5"/>
</g>
<defs>
<clipPath id="clip0_1_146">
<rect width="105" height="93" fill="white" transform="translate(0 0.970459)"/>
</clipPath>
</defs>
</svg>
