<svg width="97" height="96" viewBox="0 0 97 96" fill="none" xmlns="http://www.w3.org/2000/svg">
<path d="M48.1544 0.0681152C23.8208 0.068117 25.3404 10.6206 25.3404 10.6206L25.3675 21.5529H48.5884V24.8353H16.1443C16.1443 24.8353 0.573242 23.0694 0.573242 47.6221C0.57324 72.1749 14.164 71.3042 14.164 71.3042H22.275V59.9107C22.275 59.9107 21.8378 46.32 35.6487 46.32C49.4596 46.32 58.6797 46.32 58.6797 46.32C58.6797 46.32 71.6194 46.5292 71.6194 33.8144C71.6194 21.0996 71.6194 12.7908 71.6194 12.7908C71.6194 12.7908 73.584 0.0681152 48.1544 0.0681152ZM35.3503 7.41959C37.6606 7.41959 39.5279 9.28687 39.5279 11.5972C39.5279 13.9075 37.6606 15.7748 35.3503 15.7748C33.04 15.7748 31.1727 13.9075 31.1727 11.5972C31.1727 9.28687 33.04 7.41959 35.3503 7.41959Z" fill="url(#paint0_linear_1_133)"/>
<path d="M48.8459 95.4213C73.1795 95.4213 71.6599 84.8688 71.6599 84.8688L71.6328 73.9365H48.4119V70.6541H80.856C80.856 70.6541 96.4271 72.42 96.4271 47.8673C96.4271 23.3145 82.8363 24.1852 82.8363 24.1852H74.7253V35.5786C74.7253 35.5786 75.1625 49.1694 61.3516 49.1694C47.5407 49.1694 38.3206 49.1694 38.3206 49.1694C38.3206 49.1694 25.3809 48.9602 25.3809 61.675C25.3809 74.3898 25.3809 82.6986 25.3809 82.6986C25.3809 82.6986 23.4163 95.4213 48.8459 95.4213ZM61.65 88.0698C59.3397 88.0698 57.4724 86.2025 57.4724 83.8922C57.4724 81.5819 59.3397 79.7146 61.65 79.7146C63.9603 79.7146 65.8276 81.5819 65.8276 83.8922C65.8276 86.2025 63.9603 88.0698 61.65 88.0698Z" fill="url(#paint1_linear_1_133)"/>
<defs>
<linearGradient id="paint0_linear_1_133" x1="9.78493" y1="8.40292" x2="57.1816" y2="55.9581" gradientUnits="userSpaceOnUse">
<stop stop-color="#387EB8"/>
<stop offset="1" stop-color="#366994"/>
</linearGradient>
<linearGradient id="paint1_linear_1_133" x1="38.9418" y1="38.6544" x2="89.846" y2="87.4232" gradientUnits="userSpaceOnUse">
<stop stop-color="#FFE052"/>
<stop offset="1" stop-color="#FFC331"/>
</linearGradient>
</defs>
</svg>
