<svg width="38" height="51" viewBox="0 0 38 51" fill="none" xmlns="http://www.w3.org/2000/svg">
<path d="M19.3924 0.765625C13.015 0.765625 7.05099 5.46482 7.05099 12.898V22.2405C7.04713 22.5109 7.09749 22.7794 7.19913 23.0304C7.30077 23.2813 7.45166 23.5096 7.64305 23.7022C7.83443 23.8948 8.06248 24.0477 8.31395 24.1521C8.56542 24.2565 8.83529 24.3103 9.10788 24.3103C9.38047 24.3103 9.65034 24.2565 9.90181 24.1521C10.1533 24.0477 10.3813 23.8948 10.5727 23.7022C10.7641 23.5096 10.915 23.2813 11.0166 23.0304C11.1183 22.7794 11.1686 22.5109 11.1648 22.2405V12.898C11.1648 7.50202 14.8823 4.84696 19.3924 4.84696C24.3359 4.84696 27.6199 7.78657 27.6199 12.898V22.2325C27.6161 22.5029 27.6664 22.7715 27.7681 23.0224C27.8697 23.2734 28.0206 23.5017 28.212 23.6943C28.4034 23.8868 28.6314 24.0398 28.8829 24.1441C29.1344 24.2485 29.4042 24.3023 29.6768 24.3023C29.9494 24.3023 30.2193 24.2485 30.4708 24.1441C30.7222 24.0398 30.9503 23.8868 31.1417 23.6943C31.333 23.5017 31.4839 23.2734 31.5856 23.0224C31.6872 22.7715 31.7376 22.5029 31.7337 22.2325V12.898C31.7337 5.83532 26.2173 0.765625 19.3924 0.765625Z" fill="url(#paint0_linear_28_225)"/>
<path d="M19.3929 50.7652C29.6168 50.7652 37.905 42.5425 37.905 32.3992C37.905 22.2559 29.6168 14.0332 19.3929 14.0332C9.16899 14.0332 0.880859 22.2559 0.880859 32.3992C0.880859 42.5425 9.16899 50.7652 19.3929 50.7652Z" fill="url(#paint1_linear_28_225)"/>
<path d="M19.3931 26.2754C17.114 26.2754 15.2793 28.0957 15.2793 30.3567C15.2793 31.4873 15.7329 32.5124 16.4765 33.2503C16.7208 33.4928 17.0362 33.649 17.3362 33.8243V40.5601C17.3323 40.8305 17.3827 41.099 17.4843 41.3499C17.586 41.6008 17.7369 41.8292 17.9283 42.0218C18.1196 42.2144 18.3477 42.3673 18.5992 42.4717C18.8506 42.576 19.1205 42.6298 19.3931 42.6298C19.6657 42.6298 19.9355 42.576 20.187 42.4717C20.4385 42.3673 20.6665 42.2144 20.8579 42.0218C21.0493 41.8292 21.2002 41.6008 21.3018 41.3499C21.4035 41.099 21.4538 40.8305 21.45 40.5601V33.8163C21.7462 33.6421 22.0598 33.4902 22.3017 33.2503C23.0452 32.5124 23.5069 31.4873 23.5069 30.3567C23.5069 28.0957 21.6721 26.2754 19.3931 26.2754Z" fill="url(#paint2_linear_28_225)"/>
<defs>
<linearGradient id="paint0_linear_28_225" x1="7.05099" y1="12.539" x2="31.7337" y2="12.539" gradientUnits="userSpaceOnUse">
<stop stop-color="#485960"/>
<stop offset="1" stop-color="#323E42"/>
</linearGradient>
<linearGradient id="paint1_linear_28_225" x1="0.880859" y1="32.3992" x2="37.905" y2="32.3992" gradientUnits="userSpaceOnUse">
<stop stop-color="#FCD635"/>
<stop offset="1" stop-color="#F7C028"/>
</linearGradient>
<linearGradient id="paint2_linear_28_225" x1="15.2786" y1="34.4515" x2="23.5062" y2="34.4515" gradientUnits="userSpaceOnUse">
<stop stop-color="#485960"/>
<stop offset="1" stop-color="#323E42"/>
</linearGradient>
</defs>
</svg>
