<svg width="73" height="73" viewBox="0 0 73 73" fill="none" xmlns="http://www.w3.org/2000/svg">
<path d="M16.2583 15.9493V53.6368C16.2583 46.4368 3.3208 46.3243 3.3208 53.6368V15.9493C3.3208 14.1493 4.1083 12.4618 5.2333 11.3368C6.3583 10.0993 8.0458 9.42432 9.8458 9.42432C13.3333 9.42432 16.2583 12.3493 16.2583 15.9493Z" fill="#F7941E" stroke="black" stroke-miterlimit="10"/>
<path d="M63.1708 23.938H16.2583V53.638C16.2583 46.438 3.3208 46.3255 3.3208 53.638V58.2505C3.3208 61.513 5.9083 64.1005 9.1708 64.1005H63.1708C66.4333 64.1005 69.0208 61.513 69.0208 58.2505V29.788C69.1333 26.5255 66.4333 23.938 63.1708 23.938ZM43.5958 30.1255C46.2958 30.1255 48.5458 32.488 48.5458 35.3005C48.5458 38.113 46.2958 40.4755 43.5958 40.4755C40.8958 40.4755 38.6458 38.113 38.6458 35.3005C38.6458 32.3755 40.8958 30.1255 43.5958 30.1255ZM27.9583 30.1255C30.6583 30.1255 32.9083 32.488 32.9083 35.3005C32.9083 38.113 30.6583 40.4755 27.9583 40.4755C25.2583 40.4755 23.0083 38.113 23.0083 35.3005C23.0083 32.3755 25.2583 30.1255 27.9583 30.1255ZM19.6333 46.888C19.6333 45.8755 20.4208 45.088 21.4333 45.088H41.7958C42.8083 45.088 43.5958 45.8755 43.5958 46.888V47.0005C43.5958 48.013 42.8083 48.8005 41.7958 48.8005H21.4333C20.4208 48.688 19.6333 48.013 19.6333 46.888ZM36.1708 55.7755C36.1708 56.788 35.3833 57.5755 34.3708 57.5755H21.4333C20.4208 57.5755 19.6333 56.788 19.6333 55.7755V55.663C19.6333 54.6505 20.4208 53.863 21.4333 53.863H34.4833C35.3833 53.9755 36.1708 54.763 36.1708 55.7755ZM64.1833 55.7755C64.1833 56.788 63.3958 57.5755 62.3833 57.5755H42.0208C41.0083 57.5755 40.2208 56.788 40.2208 55.7755V55.663C40.2208 54.6505 41.0083 53.863 42.0208 53.863H62.4958C63.3958 53.9755 64.1833 54.763 64.1833 55.7755ZM64.1833 47.0005C64.1833 48.013 63.3958 48.8005 62.3833 48.8005H49.4458C48.4333 48.8005 47.6458 48.013 47.6458 47.0005V46.888C47.6458 45.8755 48.4333 45.088 49.4458 45.088H62.4958C63.3958 45.088 64.1833 45.8755 64.1833 47.0005ZM59.2333 40.4755C56.5333 40.4755 54.2833 38.113 54.2833 35.3005C54.2833 32.488 56.5333 30.1255 59.2333 30.1255C61.9333 30.1255 64.1833 32.488 64.1833 35.3005C64.1833 38.113 61.9333 40.4755 59.2333 40.4755Z" fill="#FBB040" stroke="black" stroke-miterlimit="10"/>
<path d="M32.9083 35.3005C32.9083 38.113 30.6583 40.4755 27.9583 40.4755C25.2583 40.4755 23.0083 38.113 23.0083 35.3005C23.0083 32.488 25.2583 30.1255 27.9583 30.1255C30.6583 30.1255 32.9083 32.3755 32.9083 35.3005ZM48.5458 35.3005C48.5458 38.113 46.2958 40.4755 43.5958 40.4755C40.8958 40.4755 38.6458 38.113 38.6458 35.3005C38.6458 32.488 40.8958 30.1255 43.5958 30.1255C46.2958 30.1255 48.5458 32.3755 48.5458 35.3005ZM64.1833 35.3005C64.1833 38.113 61.9333 40.4755 59.2333 40.4755C56.5333 40.4755 54.2833 38.113 54.2833 35.3005C54.2833 32.488 56.5333 30.1255 59.2333 30.1255C61.9333 30.1255 64.1833 32.3755 64.1833 35.3005Z" fill="#ED1C24" stroke="black" stroke-miterlimit="10"/>
<path d="M64.1833 46.8864C64.1833 48.0114 63.3958 48.6864 62.3833 48.6864H49.4458C48.4333 48.6864 47.6458 47.8989 47.6458 46.8864C47.6458 45.8739 48.4333 45.0864 49.4458 45.0864H62.4958C63.3958 45.0864 64.1833 45.8739 64.1833 46.8864ZM43.5958 46.8864C43.5958 48.0114 42.8083 48.6864 41.7958 48.6864H21.4333C20.4208 48.6864 19.6333 47.8989 19.6333 46.8864C19.6333 45.8739 20.4208 45.0864 21.4333 45.0864H41.7958C42.8083 45.0864 43.5958 45.8739 43.5958 46.8864Z" fill="#009444" stroke="black" stroke-miterlimit="10"/>
<path d="M36.1708 55.663C36.1708 56.788 35.3833 57.463 34.3708 57.463H21.4333C20.4208 57.463 19.6333 56.6755 19.6333 55.663V55.5505C19.6333 54.538 20.4208 53.7505 21.4333 53.7505H34.4833C35.3833 53.9755 36.1708 54.763 36.1708 55.663ZM64.1833 55.663C64.1833 56.788 63.3958 57.463 62.3833 57.463H42.0208C41.0083 57.463 40.2208 56.6755 40.2208 55.663V55.5505C40.2208 54.538 41.0083 53.7505 42.0208 53.7505H62.4958C63.3958 53.9755 64.1833 54.763 64.1833 55.663Z" fill="#39B54A" stroke="black" stroke-miterlimit="10"/>
</svg>
