<svg width="53" height="57" viewBox="0 0 53 57" fill="none" xmlns="http://www.w3.org/2000/svg">
<path d="M10.5691 51.7222C10.0827 51.7222 9.59633 51.7222 9.35314 51.479L5.70534 49.2903C4.97578 49.0471 4.73259 48.3176 4.4894 47.588C4.24622 46.8585 4.4894 46.1289 4.73259 45.6425L21.7557 15.9737C22.4852 14.7578 24.1875 14.2714 25.4035 15.001L29.0513 17.1897C30.2672 17.9192 30.7536 19.6215 30.024 20.8375L12.7578 50.2631C12.2714 51.2358 11.5418 51.7222 10.5691 51.7222ZM22.7284 16.4601L23.7012 16.9465L6.67808 46.6153V46.8585L10.3259 49.0471H10.5691L27.5922 19.3783V19.1352L23.9443 16.9465L22.7284 16.4601ZM50.2085 37.3742H43.3993C42.6697 37.3742 42.1834 36.8878 42.1834 36.1582C42.1834 35.4287 42.6697 34.9423 43.3993 34.9423H49.9653C50.2085 34.6991 50.2085 34.2127 50.2085 34.2127V27.6467H38.2924C37.5628 27.6467 37.0764 27.1603 37.0764 26.4308C37.0764 25.7012 37.5628 25.2148 38.2924 25.2148H50.2085C51.6676 25.2148 52.6404 26.4308 52.6404 27.6467V34.2127C52.8836 35.4287 51.9108 37.3742 50.2085 37.3742Z" fill="white"/>
<path d="M30.996 27.6428H25.4027C24.6732 27.6428 24.1868 27.1564 24.1868 26.4269C24.1868 25.6973 24.6732 25.2109 25.4027 25.2109H30.996C31.7256 25.2109 32.2119 25.6973 32.2119 26.4269C32.2119 27.1564 31.7256 27.6428 30.996 27.6428ZM35.8597 37.3703H20.0526C19.323 37.3703 18.8367 36.8839 18.8367 36.1543C18.8367 35.4248 19.323 34.9384 20.0526 34.9384H35.8597C36.5893 34.9384 37.0757 35.4248 37.0757 36.1543C37.0757 36.8839 36.5893 37.3703 35.8597 37.3703ZM11.0547 37.3703H3.02952C1.32722 37.3703 0.597656 35.1816 0.597656 34.2089V27.6428C0.597656 26.1837 1.81359 25.2109 3.02952 25.2109H16.1616C16.8912 25.2109 17.3775 25.6973 17.3775 26.4269C17.3775 27.1564 16.8912 27.6428 16.1616 27.6428H3.02952V34.2089C3.02952 34.452 3.27271 34.9384 3.27271 34.9384H11.0547C11.7843 34.9384 12.2706 35.4248 12.2706 36.1543C12.2706 36.8839 11.7843 37.3703 11.0547 37.3703ZM4.48865 56.3389C4.00227 56.3389 3.5159 56.0957 3.27271 55.8525C3.02952 55.6093 2.78634 55.1229 2.78634 54.1502L3.5159 48.5569C3.75909 47.0978 5.21821 46.125 6.67733 46.8546L10.3251 49.0432C11.0547 49.5296 11.5411 50.016 11.5411 50.7456C11.5411 51.4751 11.2979 52.2047 10.5683 52.4479L5.70458 55.6093C5.21821 56.0957 4.97502 56.3389 4.48865 56.3389ZM5.70458 49.2864L5.21821 53.1774L8.37963 50.9887L5.70458 49.2864Z" fill="white"/>
<path d="M40.4817 42.4808C39.9953 42.4808 39.2658 42.2376 38.5362 41.9945C38.0498 41.7513 36.5907 41.0217 28.0792 21.0804C27.836 20.3508 28.0792 19.8645 28.8087 19.3781C29.5383 19.1349 30.0247 19.3781 30.5111 20.1076C35.1316 30.8079 39.0226 39.0762 39.9953 40.049C40.7249 40.2921 40.7249 40.2921 41.4545 40.049L41.6976 39.8058C42.184 39.5626 42.9136 39.0762 42.9136 38.5898V38.1035C42.9136 38.1035 42.9136 37.8603 42.6704 37.8603C42.4272 37.6171 42.184 36.8875 41.6976 35.9148L40.2385 33.2397L39.9953 32.9965L39.7521 32.7534C39.7521 32.5102 39.509 32.5102 39.509 32.267L38.7794 30.8079C38.7794 30.8079 38.7794 30.5647 38.5362 30.5647C34.8884 23.7554 32.2134 19.1349 30.7542 16.703C29.7815 15.0007 28.5656 13.0552 27.3496 11.1097C26.1337 8.92105 24.4314 6.24599 23.2154 4.54369C24.1882 7.70511 26.6201 13.0552 27.836 15.7303L28.3224 16.9462C28.5656 17.6758 28.3224 18.1621 27.5928 18.6485C26.8632 18.8917 26.3769 18.6485 25.8905 17.919L25.4041 16.703C20.5404 5.75962 19.3245 1.86863 21.5131 0.652697C23.4586 -0.320051 24.9178 2.355 29.2951 9.8938C30.5111 11.8393 31.4838 13.7848 32.4565 15.2439C34.1589 17.6758 36.8339 22.5395 40.2385 29.3487L41.4545 31.5374L41.2113 32.267L42.184 31.7806L43.6431 34.4557C44.1295 35.4284 44.6159 36.158 44.6159 36.4012C45.1023 37.3739 45.1023 38.1035 44.8591 39.0762C44.3727 40.2921 43.1568 41.2649 42.184 41.7513H41.9408C41.6976 42.2376 41.2113 42.4808 40.4817 42.4808Z" fill="white"/>
<path d="M44.1289 48.5605C43.1562 48.5605 42.1835 48.0741 41.6971 47.3446L39.5084 43.94C39.022 43.2104 39.022 42.4809 39.2652 41.7513C39.5084 41.0217 39.9948 40.5354 40.4811 40.049L42.6698 39.0762C43.8858 38.3467 45.5881 39.0762 46.3176 40.2922L48.0199 43.6968C48.7495 44.9127 48.2631 46.615 47.0472 47.5878L45.5881 48.5605C45.1017 48.3173 44.6153 48.5605 44.1289 48.5605ZM41.6971 42.4809L43.8858 45.8855C44.1289 46.1287 44.1289 46.1287 44.3721 46.1287L45.8313 45.1559C46.0744 45.1559 46.0744 44.6695 46.0744 44.6695L44.3721 41.2649C44.3721 41.0217 44.1289 41.0217 44.1289 41.0217L41.9403 42.2377L40.9675 43.2104L41.6971 42.4809Z" fill="white"/>
<path d="M50.4509 55.8552C49.9645 55.8552 49.4781 55.6121 49.235 55.1257C48.9918 54.8825 48.2622 54.6393 47.7758 54.3961C46.5599 53.9097 44.8576 53.1802 43.8848 51.7211C42.4257 49.7756 42.6689 47.8301 44.3712 46.371L44.6144 46.1278C46.8031 44.9118 48.7486 44.9118 49.9645 46.371C52.1532 48.8028 51.6668 54.3961 51.6668 54.8825C51.6668 55.3689 51.1804 55.8552 50.4509 55.8552ZM45.8303 47.8301C45.344 48.3165 44.8576 48.8028 45.8303 50.0188C46.5599 50.9915 47.5326 51.4779 48.7486 51.9643C48.9918 51.9643 49.235 52.2074 49.235 52.2074C49.235 50.5051 48.9918 48.5596 48.2622 47.8301C47.5326 47.3437 46.8031 47.3437 45.8303 47.8301Z" fill="white"/>
</svg>
