<svg width="467" height="403" viewBox="0 0 467 403" fill="none" xmlns="http://www.w3.org/2000/svg">
<g opacity="0.8">
<path d="M233.104 402.39C361.796 402.39 466.122 396.299 466.122 388.785C466.122 381.272 361.796 375.181 233.104 375.181C104.411 375.181 0.0852051 381.272 0.0852051 388.785C0.0852051 396.299 104.411 402.39 233.104 402.39Z" fill="#F5F5F5"/>
<path d="M325.847 368.968C326.018 368.6 326.098 368.197 326.081 367.792C326.065 367.387 325.952 366.992 325.752 366.64C325.553 366.287 325.272 365.987 324.933 365.765C324.594 365.543 324.207 365.405 323.804 365.362C324.168 364.304 324.197 363.16 323.888 362.084C323.578 361.009 322.945 360.055 322.074 359.353C321.868 359.163 321.607 359.045 321.328 359.017C321.028 359.047 320.746 359.174 320.523 359.377L315.716 362.79C315.335 363.026 315.015 363.347 314.779 363.728C313.805 365.615 317.302 368.03 315.86 369.58C315.452 370.025 314.791 370.121 314.274 370.446C313.132 371.155 313 372.705 312.471 373.931C311.942 375.157 310.067 376.118 309.394 374.977C309.911 373.775 308.349 372.789 307.063 372.645C305.777 372.501 304.455 372.417 303.746 371.227C301.931 372.801 297.869 368.379 297.965 366.6C297.249 366.729 296.59 367.079 296.082 367.6C295.573 368.122 295.24 368.789 295.129 369.508C294.92 370.981 294.868 372.471 294.973 373.955C294.973 376.839 293.999 379.664 294.047 382.548C294.047 384.795 294.961 387.295 297.016 388.196C298.041 388.558 299.129 388.705 300.213 388.629L323.636 388.473C324.198 388.515 324.762 388.424 325.282 388.209C326.34 387.656 326.556 386.262 326.652 385.072L327.914 369.809L325.847 368.968Z" fill="white"/>
<path opacity="0.3" d="M325.847 368.968C326.018 368.6 326.098 368.197 326.081 367.792C326.065 367.387 325.952 366.992 325.752 366.64C325.553 366.287 325.272 365.987 324.933 365.765C324.594 365.543 324.207 365.405 323.804 365.362C324.168 364.304 324.197 363.16 323.888 362.084C323.578 361.009 322.945 360.055 322.074 359.353C321.868 359.163 321.607 359.045 321.328 359.017C321.028 359.047 320.746 359.174 320.523 359.377L315.716 362.79C315.335 363.026 315.015 363.347 314.779 363.728C313.805 365.615 317.302 368.03 315.86 369.58C315.452 370.025 314.791 370.121 314.274 370.446C313.132 371.155 313 372.705 312.471 373.931C311.942 375.157 310.067 376.118 309.394 374.977C309.911 373.775 308.349 372.789 307.063 372.645C305.777 372.501 304.455 372.417 303.746 371.227C301.931 372.801 297.869 368.379 297.965 366.6C297.249 366.729 296.59 367.079 296.082 367.6C295.573 368.122 295.24 368.789 295.129 369.508C294.92 370.981 294.868 372.471 294.973 373.955C294.973 376.839 293.999 379.664 294.047 382.548C294.047 384.795 294.961 387.295 297.016 388.196C298.041 388.558 299.129 388.705 300.213 388.629L323.636 388.473C324.198 388.515 324.762 388.424 325.282 388.209C326.34 387.656 326.556 386.262 326.652 385.072L327.914 369.809L325.847 368.968Z" fill="white"/>
<path d="M327.205 344.21H290.863L291.163 347.888L291.379 350.508L291.932 357.322L292.245 361.252L292.665 366.468L292.846 368.703L292.906 369.364L293.122 371.996L293.41 375.602L293.591 377.837L293.771 380.108L293.987 382.74L294.155 384.735L294.336 386.971L294.408 387.944H327.758L327.842 386.971L328.022 384.735L328.179 382.728L328.395 380.096L328.587 377.837L328.768 375.602L329.056 371.996L329.272 369.376V368.715L329.453 366.48L329.873 361.264L330.198 357.346L330.739 350.52L330.955 347.9L331.255 344.222L327.205 344.21ZM329.392 346.614L328.695 345.917H329.453L329.392 346.614ZM329.248 348.837L329.188 349.727L325.931 352.972L322.194 349.246L325.535 345.905H326.328L329.248 348.837ZM328.311 360.471L325.907 362.875L322.17 359.137L325.907 355.423L328.479 357.995L328.311 360.471ZM293.723 357.971L296.307 355.399L300.032 359.113L296.307 362.85L293.903 360.447L293.723 357.971ZM324.729 354.185L320.992 357.911L317.266 354.185L320.992 350.448L324.729 354.185ZM318.865 345.905H323.131L320.992 348.044L318.865 345.905ZM319.778 359.125L316.052 362.863L312.327 359.125L316.052 355.411L319.778 359.125ZM307.387 364.064L311.125 360.339L314.851 364.064L311.125 367.802L307.387 364.064ZM309.911 369.004L306.174 372.729L302.46 369.004L306.186 365.278L309.911 369.004ZM316.052 365.278L319.778 369.004L316.052 372.729L312.327 369.004L316.052 365.278ZM311.125 357.923L307.387 354.197L311.125 350.46L314.851 354.197L311.125 357.923ZM309.923 359.125L306.198 362.863L302.472 359.125L306.198 355.411L309.923 359.125ZM301.258 357.923L297.533 354.197L301.258 350.46L304.984 354.197L301.258 357.923ZM301.258 360.327L304.984 364.052L301.258 367.79L297.533 364.052L301.258 360.327ZM304.984 373.931L301.258 377.657L297.533 373.931L301.258 370.206L304.984 373.931ZM306.186 375.133L309.923 378.871L306.198 382.596L302.472 378.871L306.186 375.133ZM307.387 373.931L311.125 370.206L314.851 373.931L311.125 377.657L307.387 373.931ZM316.052 375.133L319.778 378.871L316.052 382.596L312.327 378.871L316.052 375.133ZM320.956 380.084L324.693 383.822L322.29 386.226H319.634L317.23 383.822L320.956 380.084ZM317.23 373.943L320.956 370.218L324.693 373.943L320.956 377.681L317.23 373.943ZM317.23 364.064L320.956 360.339L324.693 364.064L320.956 367.802L317.23 364.064ZM319.742 349.258L316.016 352.984L312.291 349.258L315.632 345.917H316.413L319.742 349.258ZM311.089 348.056L308.95 345.917H313.216L311.089 348.056ZM309.887 349.258L306.162 352.984L302.436 349.258L305.765 345.917H306.558L309.887 349.258ZM303.349 345.917L301.222 348.056L299.095 345.917H303.349ZM296.679 345.917L300.008 349.258L296.283 352.984L293.038 349.739L292.966 348.849L295.886 345.917H296.679ZM293.482 345.917L292.785 346.614V345.917H293.482ZM293.254 352.371L295.081 354.197L293.519 355.748L293.254 352.371ZM294.264 364.882L294.119 363.115L295.081 364.076L294.264 364.894V364.882ZM294.444 367.117L296.283 365.278L300.008 369.004L296.283 372.729L294.78 371.227L294.444 367.117ZM294.997 374.027V373.859L295.081 373.943L294.997 374.027ZM295.646 381.971L295.177 376.251L296.283 375.145L300.008 378.883L296.283 382.608L295.646 381.971ZM295.994 386.238L295.922 385.384L296.283 385.024L297.485 386.226L295.994 386.238ZM297.497 383.834L301.222 380.096L304.948 383.834L302.544 386.238H299.912L297.497 383.834ZM304.948 386.238L306.15 385.036L307.351 386.238H304.948ZM309.755 386.238L307.351 383.834L311.089 380.096L314.815 383.834L312.411 386.238H309.755ZM314.803 386.238L316.004 385.036L317.206 386.238H314.803ZM326.172 386.238H324.681L325.883 385.036L326.244 385.396L326.172 386.238ZM326.52 381.971L325.883 382.608L322.158 378.883L325.895 375.145L327.001 376.251L326.52 381.971ZM327.181 373.847V374.027L327.109 373.943L327.205 373.847H327.181ZM327.397 371.227L325.883 372.729L322.146 369.004L325.883 365.278L327.722 367.117L327.397 371.227ZM327.902 364.882L327.085 364.064L328.046 363.115L327.902 364.882ZM328.924 352.359L328.647 355.76L327.085 354.197L328.924 352.359Z" fill="white"/>
<g opacity="0.6">
<path opacity="0.6" d="M327.205 344.209H290.863L291.163 347.887L291.379 350.507L291.932 357.321L292.245 361.251L292.665 366.467L292.846 368.702L292.906 369.363L293.122 371.995L293.41 375.601L293.591 377.836L293.771 380.107L293.987 382.739L294.155 384.734L294.336 386.97L294.408 387.943H327.758L327.842 386.97L328.022 384.734L328.179 382.727L328.395 380.095L328.587 377.836L328.768 375.601L329.056 371.995L329.272 369.375V368.714L329.453 366.479L329.873 361.263L330.198 357.345L330.739 350.519L330.955 347.899L331.255 344.222L327.205 344.209ZM329.392 346.613L328.695 345.916H329.453L329.392 346.613ZM329.248 348.836L329.188 349.726L325.931 352.971L322.194 349.245L325.535 345.904H326.328L329.248 348.836ZM328.311 360.47L325.907 362.874L322.17 359.136L325.907 355.422L328.479 357.994L328.311 360.47ZM293.723 357.97L296.307 355.398L300.032 359.112L296.307 362.85L293.903 360.446L293.723 357.97ZM324.729 354.184L320.992 357.91L317.266 354.184L320.992 350.447L324.729 354.184ZM318.865 345.904H323.131L320.992 348.043L318.865 345.904ZM319.778 359.124L316.052 362.862L312.327 359.124L316.052 355.41L319.778 359.124ZM307.387 364.063L311.125 360.338L314.851 364.063L311.125 367.801L307.387 364.063ZM309.911 369.003L306.174 372.728L302.46 369.003L306.186 365.277L309.911 369.003ZM316.052 365.277L319.778 369.003L316.052 372.728L312.327 369.003L316.052 365.277ZM311.125 357.922L307.387 354.196L311.125 350.459L314.851 354.196L311.125 357.922ZM309.923 359.124L306.198 362.862L302.472 359.124L306.198 355.41L309.923 359.124ZM301.258 357.922L297.533 354.196L301.258 350.459L304.984 354.196L301.258 357.922ZM301.258 360.326L304.984 364.051L301.258 367.789L297.533 364.051L301.258 360.326ZM304.984 373.93L301.258 377.656L297.533 373.93L301.258 370.205L304.984 373.93ZM306.186 375.132L309.923 378.87L306.198 382.595L302.472 378.87L306.186 375.132ZM307.387 373.93L311.125 370.205L314.851 373.93L311.125 377.656L307.387 373.93ZM316.052 375.132L319.778 378.87L316.052 382.595L312.327 378.87L316.052 375.132ZM320.956 380.083L324.693 383.821L322.29 386.225H319.634L317.23 383.821L320.956 380.083ZM317.23 373.942L320.956 370.217L324.693 373.942L320.956 377.68L317.23 373.942ZM317.23 364.063L320.956 360.338L324.693 364.063L320.956 367.801L317.23 364.063ZM319.742 349.257L316.016 352.983L312.291 349.257L315.632 345.916H316.413L319.742 349.257ZM311.089 348.055L308.95 345.916H313.216L311.089 348.055ZM309.887 349.257L306.162 352.983L302.436 349.257L305.765 345.916H306.558L309.887 349.257ZM303.349 345.916L301.222 348.055L299.095 345.916H303.349ZM296.679 345.916L300.008 349.257L296.283 352.983L293.038 349.738L292.966 348.848L295.886 345.916H296.679ZM293.482 345.916L292.785 346.613V345.916H293.482ZM293.254 352.37L295.081 354.196L293.519 355.747L293.254 352.37ZM294.264 364.881L294.119 363.114L295.081 364.075L294.264 364.893V364.881ZM294.444 367.116L296.283 365.277L300.008 369.003L296.283 372.728L294.78 371.226L294.444 367.116ZM294.997 374.026V373.858L295.081 373.942L294.997 374.026ZM295.646 381.97L295.177 376.25L296.283 375.144L300.008 378.882L296.283 382.607L295.646 381.97ZM295.994 386.237L295.922 385.383L296.283 385.023L297.485 386.225L295.994 386.237ZM297.497 383.833L301.222 380.095L304.948 383.833L302.544 386.237H299.912L297.497 383.833ZM304.948 386.237L306.15 385.035L307.351 386.237H304.948ZM309.755 386.237L307.351 383.833L311.089 380.095L314.815 383.833L312.411 386.237H309.755ZM314.803 386.237L316.004 385.035L317.206 386.237H314.803ZM326.172 386.237H324.681L325.883 385.035L326.244 385.395L326.172 386.237ZM326.52 381.97L325.883 382.607L322.158 378.882L325.895 375.144L327.001 376.25L326.52 381.97ZM327.181 373.846V374.026L327.109 373.942L327.205 373.846H327.181ZM327.397 371.226L325.883 372.728L322.146 369.003L325.883 365.277L327.722 367.116L327.397 371.226ZM327.902 364.881L327.085 364.063L328.046 363.114L327.902 364.881ZM328.924 352.358L328.647 355.759L327.085 354.196L328.924 352.358Z" fill="white"/>
</g>
<path d="M290.502 347.443H331.652C332.741 347.443 333.623 346.561 333.623 345.472V344.655C333.623 343.567 332.741 342.684 331.652 342.684H290.502C289.414 342.684 288.531 343.567 288.531 344.655V345.472C288.531 346.561 289.414 347.443 290.502 347.443Z" fill="white"/>
<path d="M328.407 385.384H293.759C292.67 385.384 291.788 386.267 291.788 387.355V388.172C291.788 389.261 292.67 390.143 293.759 390.143H328.407C329.495 390.143 330.378 389.261 330.378 388.172V387.355C330.378 386.267 329.495 385.384 328.407 385.384Z" fill="white"/>
<path d="M448.732 0.925781H150.611C147.87 0.925781 145.648 3.148 145.648 5.88924V220.953C145.648 223.694 147.87 225.916 150.611 225.916H448.732C451.473 225.916 453.695 223.694 453.695 220.953V5.88924C453.695 3.148 451.473 0.925781 448.732 0.925781Z" fill="white"/>
<path opacity="0.4" d="M453.695 13.0879H145.648V216.169H453.695V13.0879Z" fill="black"/>
<path d="M446.484 9.74681C448.084 9.74681 449.381 8.45007 449.381 6.85046C449.381 5.25085 448.084 3.9541 446.484 3.9541C444.885 3.9541 443.588 5.25085 443.588 6.85046C443.588 8.45007 444.885 9.74681 446.484 9.74681Z" fill="white"/>
<path d="M436.714 9.74681C438.313 9.74681 439.61 8.45007 439.61 6.85046C439.61 5.25085 438.313 3.9541 436.714 3.9541C435.114 3.9541 433.817 5.25085 433.817 6.85046C433.817 8.45007 435.114 9.74681 436.714 9.74681Z" fill="white"/>
<path d="M426.943 9.74681C428.542 9.74681 429.839 8.45007 429.839 6.85046C429.839 5.25085 428.542 3.9541 426.943 3.9541C425.343 3.9541 424.046 5.25085 424.046 6.85046C424.046 8.45007 425.343 9.74681 426.943 9.74681Z" fill="white"/>
<path d="M246.888 118.631H146.79V206.339H246.888V118.631Z" fill="#141F13"/>
<path d="M246.888 28.9878H146.79V116.696H246.888V28.9878Z" fill="#141F13"/>
<path d="M349.282 28.9878H249.184V116.696H349.282V28.9878Z" fill="white"/>
<path d="M451.688 28.9878H351.59V116.696H451.688V28.9878Z" fill="white"/>
<path d="M349.282 118.631H249.184V206.339H349.282V118.631Z" fill="#141F13"/>
<path d="M451.688 118.631H351.59V206.339H451.688V118.631Z" fill="white"/>
<path d="M434.538 116.696L436.81 97.5634C437.113 95.0926 436.487 92.5973 435.055 90.5612C433.623 88.5251 431.486 87.0931 429.058 86.5429C403.075 80.7622 387.572 86.4828 387.572 86.4828C381.757 95.8941 377.264 106.061 374.22 116.696H434.538Z" fill="#141F13"/>
<path d="M415.778 85.7132C418.005 85.4686 420.249 85.4244 422.484 85.581C416.836 80.8579 419.636 68.8639 421.931 62.3501L404.469 72.2169C404.672 73.0512 404.816 73.8985 404.902 74.7528C405.121 76.2794 404.939 77.8369 404.373 79.2715C403.343 81.1134 401.929 82.712 400.227 83.9586L407.221 87.0713L415.778 85.7132Z" fill="#E4897B"/>
<path opacity="0.2" d="M417.929 68.6235C417.232 76.6276 408.627 78.8269 404.409 79.2715C404.975 77.8369 405.157 76.2794 404.938 74.7528L417.929 68.6235Z" fill="black"/>
<path d="M394.963 44.4071C394.963 44.4071 393.593 55.7882 400.203 60.5835C406.813 65.3787 405.383 37.5688 405.383 37.5688L394.963 44.4071Z" fill="#141F13"/>
<path d="M420.585 68.4557C420.239 69.1596 419.837 69.8347 419.384 70.4747C418.095 72.3843 416.252 73.8529 414.103 74.6824C411.954 75.5119 409.603 75.6625 407.365 75.1137C407.048 75.0439 406.735 74.9556 406.428 74.8493C403.48 73.9273 400.98 71.9446 399.41 69.2849C399.41 69.2008 399.301 69.0926 399.241 69.0085C399.025 68.6239 398.833 68.2273 398.64 67.8067C398.27 66.9224 397.945 66.0199 397.667 65.1026C395.263 57.375 395.552 44.4556 402.727 40.0209C408.435 36.4155 417.461 37.6173 421.054 43.3499C422.088 44.9723 420.934 49.2147 421.114 51.1256C421.967 58.8893 422.833 63.8287 420.585 68.4557Z" fill="#E4897B"/>
<path d="M408.135 55.8844C408.303 56.5815 407.979 57.2424 407.498 57.3266C407.017 57.4107 406.548 56.8819 406.428 56.1248C406.308 55.3676 406.584 54.7547 407.053 54.6826C407.522 54.6105 408.003 55.1633 408.135 55.8844Z" fill="#141F13"/>
<path d="M400.011 57.2668C400.179 57.9758 399.842 58.6368 399.374 58.7089C398.905 58.7811 398.436 58.2643 398.304 57.5071C398.172 56.75 398.472 56.1371 398.929 56.065C399.386 55.9929 399.89 56.5938 400.011 57.2668Z" fill="#141F13"/>
<path d="M402.655 57.1826C402.169 59.5265 401.36 61.7915 400.251 63.9127C400.811 64.1862 401.424 64.3333 402.047 64.3437C402.67 64.354 403.288 64.2274 403.856 63.9728L402.655 57.1826Z" fill="#DE5753"/>
<path d="M410.202 52.8199C410.126 52.8442 410.045 52.8481 409.967 52.8312C409.889 52.8143 409.816 52.7773 409.757 52.7238C409.374 52.3505 408.911 52.0707 408.402 51.906C407.893 51.7413 407.354 51.6963 406.825 51.7744C406.715 51.7999 406.599 51.7816 406.503 51.7232C406.406 51.6648 406.336 51.5711 406.308 51.4619C406.294 51.4082 406.291 51.3521 406.299 51.2972C406.307 51.2422 406.326 51.1895 406.356 51.1423C406.385 51.095 406.423 51.0542 406.469 51.0224C406.515 50.9906 406.566 50.9684 406.621 50.9571C407.292 50.8415 407.982 50.8904 408.631 51.0997C409.28 51.309 409.868 51.6725 410.346 52.1589C410.424 52.2396 410.467 52.3473 410.467 52.4594C410.467 52.5715 410.424 52.6792 410.346 52.7599C410.301 52.7872 410.253 52.8075 410.202 52.8199Z" fill="#141F13"/>
<path d="M396.045 55.0673C395.968 55.1113 395.88 55.1322 395.792 55.1274C395.738 55.1123 395.688 55.0865 395.644 55.0515C395.6 55.0165 395.563 54.9731 395.536 54.9238C395.51 54.8746 395.493 54.8204 395.487 54.7645C395.482 54.7087 395.487 54.6523 395.504 54.5986C395.678 53.94 396.008 53.333 396.466 52.8288C396.924 52.3247 397.497 51.9383 398.136 51.7023C398.244 51.6722 398.36 51.6855 398.459 51.7394C398.557 51.7932 398.631 51.8833 398.664 51.9907C398.695 52.099 398.681 52.2148 398.627 52.3135C398.574 52.4123 398.483 52.4861 398.376 52.5195C397.879 52.7214 397.436 53.036 397.081 53.4385C396.727 53.8411 396.47 54.3205 396.333 54.839C396.303 54.895 396.262 54.9442 396.213 54.9835C396.163 55.0228 396.106 55.0513 396.045 55.0673Z" fill="#141F13"/>
<path d="M424.479 45.6572C424.479 45.4168 424.575 45.1765 424.611 44.9121C425.813 36.3913 413.326 31.3797 402.053 32.4373C397.138 32.906 398.268 41.3067 398.268 41.3067C398.268 41.3067 395.48 41.3067 394.218 43.0012C391.994 46.0057 395.42 52.6157 395.42 52.6157C393.701 43.0012 398.676 42.4724 398.676 42.4724C398.676 42.4724 399.878 46.198 402.102 45.8615C404.325 45.525 409.949 40.0808 412.714 40.7298C413.586 40.9148 414.394 41.3266 415.057 41.9238C415.719 42.5209 416.213 43.2822 416.487 44.1309C416.527 44.9839 416.385 45.8356 416.07 46.6293C415.755 47.423 415.275 48.1404 414.66 48.7338C412.257 51.3898 416.295 57.0624 419.071 58.793C419.071 58.793 418.975 57.3628 420.213 57.5912C421.451 57.8195 422.04 65.2587 420.117 69.0924C420.117 69.0924 423.277 65.487 424.335 57.4109C424.933 53.519 424.982 49.5625 424.479 45.6572Z" fill="#141F13"/>
<path d="M405.635 67.4939C406.687 67.4708 407.719 67.1957 408.643 66.6918C409.567 66.1879 410.357 65.4697 410.947 64.5975C410.964 64.5727 410.976 64.5446 410.982 64.5149C410.987 64.4853 410.987 64.4547 410.98 64.4253C410.973 64.3959 410.96 64.3682 410.942 64.344C410.924 64.3199 410.901 64.2998 410.875 64.285C410.851 64.2692 410.825 64.2582 410.797 64.2527C410.769 64.2471 410.74 64.2472 410.712 64.2527C410.684 64.2583 410.658 64.2694 410.634 64.2852C410.61 64.3011 410.59 64.3214 410.574 64.3451C410.012 65.1432 409.272 65.7996 408.413 66.2626C407.554 66.7257 406.599 66.9826 405.623 67.0132C405.564 67.0131 405.508 67.0355 405.466 67.0757C405.423 67.116 405.398 67.171 405.395 67.2295C405.394 67.288 405.417 67.3443 405.457 67.3868C405.497 67.4293 405.552 67.4547 405.611 67.4578L405.635 67.4939Z" fill="#141F13"/>
<path d="M426.186 57.7111C425.547 59.8716 424.077 61.6908 422.1 62.7707C419.468 64.1889 417.509 61.9896 417.677 59.1653C417.87 56.6535 419.42 52.8078 422.34 52.5914C425.261 52.3751 426.931 55.0431 426.186 57.7111Z" fill="#E4897B"/>
<path opacity="0.1" d="M407.366 75.1135C407.048 75.0437 406.735 74.9554 406.428 74.8491C403.481 73.9271 400.98 71.9444 399.41 69.2847C401.501 69.0564 405.863 68.6237 406.753 69.0083C407.642 69.3929 407.486 73.3348 407.366 75.1135Z" fill="black"/>
<path d="M394.17 116.696H400.023L406.392 93.2125L412.185 87.0713H402.042L404.409 92.9842L394.17 116.696Z" fill="white"/>
<path d="M372.621 112.309L372.249 116.696H381.755C389.891 97.3829 397.451 83.3818 397.451 83.3818L387.572 86.4825C364.738 93.1645 362.815 108.115 366.709 111.937C370.602 115.759 372.621 112.309 372.621 112.309Z" fill="white"/>
<path opacity="0.5" d="M372.621 112.309L372.249 116.696H381.755C389.891 97.3829 397.451 83.3818 397.451 83.3818L387.572 86.4825C364.738 93.1645 362.815 108.115 366.709 111.937C370.602 115.759 372.621 112.309 372.621 112.309Z" fill="white"/>
<path d="M379.724 116.696H381.935C389.338 100.748 401.633 82.0358 401.633 82.0358C396.593 82.0239 391.599 82.9997 386.935 84.9081L389.471 91.9747L383.353 93.1765L379.724 116.696Z" fill="white"/>
<path opacity="0.4" d="M379.724 116.696H381.935C389.338 100.748 401.633 82.0358 401.633 82.0358C396.593 82.0239 391.599 82.9997 386.935 84.9081L389.471 91.9747L383.353 93.1765L379.724 116.696Z" fill="white"/>
<path opacity="0.2" d="M377.152 116.696C378.41 113.991 379.082 111.05 379.123 108.067L372.621 112.309L372.249 116.696H377.152Z" fill="black"/>
<path d="M398.412 84.3676L403.087 80.1372L407.257 85.8218L420.477 80.1372L423.794 85.4973L410.983 91.8548L406.729 87.7567L402.042 90.7131L398.412 84.3676Z" fill="#141F13"/>
<path opacity="0.2" d="M398.412 84.3676L403.087 80.1372L407.257 85.8218L420.477 80.1372L423.794 85.4973L410.983 91.8548L406.729 87.7567L402.042 90.7131L398.412 84.3676Z" fill="white"/>
<path d="M383.329 98.4886L397.439 83.3819C399.261 83.3495 401.013 82.6677 402.378 81.459C404.469 79.488 407.317 70.7629 406.62 70.1981C405.923 69.6332 397.511 68.9362 396.717 69.9216C395.924 70.9071 392.439 79.7284 392.439 79.7284L377.32 91.5542L383.329 98.4886Z" fill="#E4897B"/>
<path d="M384.892 85.2806L387.68 82.8169L394.362 87.9967L391.333 92.0227L384.892 85.2806Z" fill="#141F13"/>
<path opacity="0.2" d="M384.892 85.2806L387.68 82.8169L394.362 87.9967L391.333 92.0227L384.892 85.2806Z" fill="white"/>
<path d="M385.649 83.7065L393.653 90.0401C393.653 90.0401 375.049 119.508 368.283 113.283C361.517 107.058 364.978 97.311 385.649 83.7065Z" fill="white"/>
<path opacity="0.6" d="M385.649 83.7065L393.653 90.0401C393.653 90.0401 375.049 119.508 368.283 113.283C361.517 107.058 364.978 97.311 385.649 83.7065Z" fill="white"/>
<path d="M436.966 116.696L438.168 95.5685C438.261 93.5199 437.704 91.4943 436.578 89.7808C435.451 88.0672 433.812 86.7532 431.895 86.0261L421.355 82.0361C421.355 82.0361 421.799 97.9 423.025 116.66L436.966 116.696Z" fill="white"/>
<path opacity="0.5" d="M436.966 116.696L438.168 95.5685C438.261 93.5199 437.704 91.4943 436.578 89.7808C435.451 88.0672 433.812 86.7532 431.895 86.0261L421.355 82.0361C421.355 82.0361 421.799 97.9 423.025 116.66L436.966 116.696Z" fill="white"/>
<path d="M427.34 116.696L431.221 105.796L425.393 100.484L432.063 98.4887C427.82 85.413 420.946 80.9663 420.946 80.9663C419.239 89.379 420.946 105.976 422.304 116.696H427.34Z" fill="white"/>
<path opacity="0.4" d="M427.34 116.696L431.221 105.796L425.393 100.484L432.063 98.4887C427.82 85.413 420.946 80.9663 420.946 80.9663C419.239 89.379 420.946 105.976 422.304 116.696H427.34Z" fill="white"/>
<path d="M374.292 114.124C375.494 114.581 384.928 115.206 384.928 115.206L387.127 116.696H402.486L386.863 109.329C386.274 107.605 385.095 106.145 383.534 105.207C381.01 103.813 371.828 103.777 371.516 104.606C371.203 105.435 373.102 113.655 374.292 114.124Z" fill="#E4897B"/>
<path d="M397.655 116.696L399.073 114.148L393.232 111.588L391.153 116.696H397.655Z" fill="#141F13"/>
<path opacity="0.2" d="M397.655 116.696L399.073 114.148L393.232 111.588L391.153 116.696H397.655Z" fill="white"/>
<path d="M429.419 116.696C436.389 105.796 441.292 92.5276 435.596 88.6698C435.596 88.6698 431.221 87.468 413.158 115.025C413.158 115.025 411.175 119.28 396.333 112.622L394.398 116.708L429.419 116.696Z" fill="white"/>
<path opacity="0.6" d="M429.419 116.696C436.389 105.796 441.292 92.5276 435.596 88.6698C435.596 88.6698 431.221 87.468 413.158 115.025C413.158 115.025 411.175 119.28 396.333 112.622L394.398 116.708L429.419 116.696Z" fill="white"/>
<path opacity="0.3" d="M349.282 118.631H249.184V206.339H349.282V118.631Z" fill="white"/>
<path d="M164.012 116.696C166.415 110.434 180.536 98.236 180.536 98.236V85.6411C173.326 86.9871 155.671 102.178 155.214 116.66L164.012 116.696Z" fill="white"/>
<path opacity="0.6" d="M164.012 116.696C165.213 113.715 168.951 109.401 172.592 105.687C176.643 101.601 180.536 98.2481 180.536 98.2481V85.6411C173.326 86.9871 155.659 102.178 155.214 116.66L164.012 116.696Z" fill="white"/>
<path opacity="0.2" d="M172.593 105.687C176.643 101.601 180.536 98.248 180.536 98.248V94.5825C180.536 94.5825 173.59 98.0317 172.593 105.687Z" fill="black"/>
<path d="M231.397 116.696C233.2 105.615 235.002 96.4814 235.784 92.3471C235.912 91.7119 235.787 91.0514 235.434 90.5076C235.081 89.9638 234.529 89.58 233.897 89.4388C231.313 88.8739 228.645 88.3932 225.965 87.9846C213.842 86.285 201.611 85.4816 189.37 85.581C183.938 85.581 180.536 85.7372 180.536 85.7372C178.061 94.6065 176.583 105.651 175.729 116.756L231.397 116.696Z" fill="white"/>
<path opacity="0.7" d="M231.409 116.696L231.553 115.77C233.296 105.11 234.978 96.3612 235.771 92.3471C235.808 92.1283 235.808 91.905 235.771 91.6861C235.748 91.1525 235.547 90.6418 235.201 90.2348C234.855 89.8279 234.384 89.5478 233.861 89.4388C231.265 88.8739 228.609 88.3932 225.929 87.9846C213.806 86.285 201.574 85.4816 189.334 85.581C183.901 85.581 180.5 85.7372 180.5 85.7372C178.025 94.6065 176.546 105.651 175.693 116.756L231.409 116.696Z" fill="white"/>
<path d="M200.078 99.7983C215.701 101.457 226.169 88.1408 226.169 88.1408L225.965 87.9846C213.842 86.285 201.611 85.4816 189.37 85.581C189.37 85.581 185.38 98.236 200.078 99.7983Z" fill="white"/>
<path d="M217.384 86.7589C212.985 90.761 202.205 89.2827 202.205 89.2827C202.205 89.2827 195.475 87.444 196.881 85.3408C200.847 84.6798 202.77 82.829 203.563 80.4615C203.996 78.9968 204.131 77.4603 203.96 75.9427C203.899 75.092 203.791 74.2454 203.635 73.4069L216.963 63.54C215.221 70.0178 213.081 82.0358 217.384 86.7589Z" fill="#E4897B"/>
<path opacity="0.2" d="M213.875 69.8135C213.346 77.8055 206.772 80.0168 203.551 80.4615C203.984 78.9969 204.119 77.4603 203.948 75.9427L213.875 69.8135Z" fill="black"/>
<path d="M215.425 81.6875L202.686 87.4321L201.929 82.8292L197.254 84.4396C196.435 84.7269 195.737 85.2816 195.273 86.0143C194.808 86.747 194.604 87.6148 194.694 88.4777L195.222 93.5253L201.688 89.992L204.909 94.5468L220.22 87.1797L215.425 81.6875Z" fill="white"/>
<path opacity="0.3" d="M215.425 81.6875L202.686 87.4321L201.929 82.8292L197.254 84.4396C196.435 84.7269 195.737 85.2816 195.273 86.0143C194.808 86.747 194.604 87.6148 194.694 88.4777L195.222 93.5253L201.688 89.992L204.909 94.5468L220.22 87.1797L215.425 81.6875Z" fill="white"/>
<path d="M193.54 43.4697C193.54 43.4697 189.934 55.9445 196.028 61.7372C202.121 67.5299 205.27 43.8303 205.27 43.8303L193.54 43.4697Z" fill="#141F13"/>
<path opacity="0.2" d="M193.54 43.4697C193.54 43.4697 189.934 55.9445 196.028 61.7372C202.121 67.5299 205.27 43.8303 205.27 43.8303L193.54 43.4697Z" fill="white"/>
<path d="M193.444 68.912C193.576 69.3566 193.72 69.8013 193.888 70.2219C195.117 73.2875 197.462 75.7738 200.45 77.1804C203.131 78.4674 206.195 78.7074 209.043 77.8534C211.072 77.2148 212.891 76.0397 214.307 74.4523C218.802 69.573 218.477 64.1288 218.67 54.8989C218.754 52.7425 218.284 50.6004 217.305 48.6774C216.325 46.7545 214.869 45.1148 213.075 43.9153C211.281 42.7157 209.209 41.9962 207.058 41.8256C204.907 41.655 202.747 42.039 200.787 42.9409C191.893 46.9429 191.148 60.6916 193.444 68.912Z" fill="#E4897B"/>
<path d="M204.777 57.9997C204.849 58.7328 204.428 59.3698 203.936 59.3818C203.443 59.3938 203.022 58.8049 202.986 58.0598C202.95 57.3147 203.347 56.6777 203.827 56.6657C204.308 56.6537 204.741 57.2426 204.777 57.9997Z" fill="#141F13"/>
<path d="M196.28 58.3241C196.364 59.0692 195.932 59.7062 195.439 59.7182C194.946 59.7302 194.537 59.1414 194.501 58.3842C194.465 57.6271 194.85 57.0141 195.343 57.0021C195.835 56.9901 196.256 57.6151 196.28 58.3241Z" fill="#141F13"/>
<path d="M198.996 58.6006C198.188 60.9326 197.059 63.141 195.643 65.1625C196.171 65.5046 196.766 65.7289 197.388 65.8201C198.01 65.9114 198.645 65.8674 199.248 65.6912L198.996 58.6006Z" fill="#DE5753"/>
<path d="M192.999 54.8149C193.067 54.8588 193.146 54.8822 193.227 54.8822C193.308 54.8822 193.388 54.8588 193.456 54.8149C193.908 54.4969 194.427 54.2871 194.973 54.2017C195.519 54.1162 196.077 54.1575 196.604 54.3221C196.657 54.3458 196.714 54.3587 196.772 54.3601C196.83 54.3614 196.887 54.3511 196.941 54.3298C196.995 54.3085 197.044 54.2767 197.085 54.2361C197.126 54.1956 197.159 54.1472 197.181 54.0938C197.226 53.9868 197.227 53.8667 197.184 53.7589C197.142 53.6512 197.059 53.5644 196.953 53.5169C196.293 53.2883 195.587 53.2204 194.896 53.3186C194.204 53.4168 193.546 53.6784 192.975 54.0818C192.876 54.1457 192.807 54.2461 192.782 54.3609C192.758 54.4758 192.779 54.5958 192.843 54.6947C192.885 54.7459 192.939 54.787 192.999 54.8149Z" fill="#141F13"/>
<path d="M206.327 54.5504C206.415 54.5416 206.498 54.5082 206.567 54.4543C206.647 54.3696 206.691 54.2579 206.691 54.1418C206.691 54.0257 206.647 53.914 206.567 53.8293C206.027 53.3812 205.387 53.0698 204.701 52.9213C204.015 52.7728 203.303 52.7916 202.626 52.976C202.517 53.0144 202.427 53.0934 202.376 53.1966C202.324 53.2997 202.315 53.4189 202.349 53.5289C202.39 53.6385 202.471 53.7283 202.576 53.7798C202.681 53.8312 202.802 53.8403 202.914 53.8053C203.452 53.6818 204.012 53.6836 204.55 53.8107C205.087 53.9378 205.589 54.1868 206.015 54.5384C206.115 54.5771 206.225 54.5813 206.327 54.5504Z" fill="#141F13"/>
<path d="M211.471 43.6499L210.93 47.712C211.618 48.0439 212.153 48.6241 212.43 49.3355C212.707 50.0469 212.703 50.8368 212.42 51.5458C211.074 54.9589 212.961 60.2829 215.569 62.4221C215.569 62.4221 215.665 60.9439 216.915 61.3045C218.165 61.665 217.732 69.3926 215.257 73.0461C215.257 73.0461 218.982 69.7532 221.146 61.665C223.153 54.1898 223.453 47.9404 221.939 45.032L211.471 43.6499Z" fill="#141F13"/>
<path d="M200.655 70.5342C200.6 70.5517 200.541 70.5517 200.486 70.5342C200.421 70.4881 200.376 70.4188 200.361 70.3406C200.345 70.2624 200.36 70.1812 200.402 70.1136C201.378 68.6635 202.847 67.6172 204.537 67.1692C204.576 67.1605 204.617 67.1598 204.657 67.1673C204.696 67.1747 204.734 67.1901 204.768 67.2126C204.802 67.235 204.83 67.264 204.853 67.2979C204.875 67.3317 204.89 67.3697 204.897 67.4095C204.911 67.4859 204.896 67.5648 204.853 67.6298C204.811 67.6948 204.744 67.7408 204.669 67.7581C203.135 68.1809 201.802 69.135 200.907 70.4501C200.874 70.4818 200.834 70.5058 200.79 70.5204C200.747 70.5349 200.7 70.5396 200.655 70.5342Z" fill="#141F13"/>
<path opacity="0.1" d="M196.484 74.2959C197.608 75.5042 198.955 76.4837 200.45 77.1802C203.131 78.4672 206.195 78.7072 209.043 77.8533C207.777 76.7162 206.236 75.9291 204.573 75.5698C201.928 74.8663 199.217 74.4394 196.484 74.2959Z" fill="black"/>
<path opacity="0.2" d="M211.471 43.6499L210.93 47.712C211.618 48.0439 212.153 48.6241 212.43 49.3355C212.707 50.0469 212.703 50.8368 212.42 51.5458C211.074 54.9589 212.961 60.2829 215.569 62.4221C215.569 62.4221 215.665 60.9439 216.915 61.3045C218.165 61.665 217.732 69.3926 215.257 73.0461C215.257 73.0461 218.982 69.7532 221.146 61.665C223.153 54.1898 223.453 47.9404 221.939 45.032L211.471 43.6499Z" fill="white"/>
<path d="M222.575 46.8949C222.575 46.8949 223.573 41.5589 215.172 37.3886C206.772 33.2183 197.566 37.9775 191.953 34.3841C186.341 30.7907 186.137 45.5609 198.131 47.2194C206.259 48.1619 214.475 48.0528 222.575 46.8949Z" fill="#141F13"/>
<path opacity="0.3" d="M222.575 46.8949C222.575 46.8949 223.573 41.5589 215.172 37.3886C206.772 33.2183 197.566 37.9775 191.953 34.3841C186.341 30.7907 186.137 45.5609 198.131 47.2194C206.259 48.1619 214.475 48.0528 222.575 46.8949Z" fill="white"/>
<path d="M222.984 62.3139C222.054 64.4292 220.326 66.0919 218.177 66.9409C215.293 68.0225 213.586 65.5107 214.139 62.6504C214.668 60.1026 216.783 56.389 219.799 56.5573C222.816 56.7255 224.114 59.682 222.984 62.3139Z" fill="#E4897B"/>
<path d="M208.719 92.059L207.445 85.2808C207.445 85.2808 210.089 82.7811 209.776 80.4736C209.464 78.1661 197.758 74.3444 195.643 74.1882C193.528 74.0319 194.357 82.4927 194.994 84.043C195.631 85.5933 202.686 87.4441 202.686 87.4441L203.563 94.5949L208.719 92.059Z" fill="#E4897B"/>
<path opacity="0.2" d="M229.823 116.696C230.436 116.396 231.025 116.083 231.553 115.771C233.296 105.111 234.978 96.3616 235.772 92.3475C235.808 92.1287 235.808 91.9054 235.772 91.6865C228.176 99.4262 216.35 112.37 217.745 116.696H229.823Z" fill="black"/>
<path d="M225.7 116.696C234.437 108.86 242.033 98.0558 236.661 90.7608C231.95 84.3432 219.835 107.586 216.146 109.185C212.456 110.783 209.259 89.4629 209.259 89.4629L202.049 91.6021C202.049 91.6021 203.371 106.961 207.072 116.696H225.7Z" fill="white"/>
<path opacity="0.6" d="M225.7 116.696C234.437 108.86 242.033 98.0558 236.661 90.7608C231.95 84.3432 219.835 107.586 216.146 109.185C212.456 110.783 209.259 89.4629 209.259 89.4629L202.049 91.6021C202.049 91.6021 203.371 106.961 207.072 116.696H225.7Z" fill="white"/>
<path d="M280.166 116.696C282.702 114.136 284.348 112.333 284.348 112.333L282.954 91.0254C278.94 93.1646 266.91 109.221 260.589 116.696H280.166Z" fill="white"/>
<path opacity="0.5" d="M280.166 116.696C282.702 114.136 284.348 112.333 284.348 112.333L282.954 91.0254C278.94 93.1646 266.91 109.221 260.589 116.696H280.166Z" fill="white"/>
<path opacity="0.2" d="M280.154 116.696C282.702 114.136 284.349 112.333 284.349 112.333L284.024 107.273L282.378 102.37C278.676 106.212 276.645 111.362 276.729 116.696H280.154Z" fill="black"/>
<path d="M322.29 116.696C322.879 114.581 323.492 112.333 324.309 109.882C325.126 107.43 325.859 104.966 326.773 102.214C327.454 100.139 328.203 97.9357 329.02 95.6042C324.142 94.0454 319.157 92.8405 314.105 91.9987C308.785 91.051 303.403 90.4847 298.001 90.3042C291.019 90.3042 282.979 91.0253 282.979 91.0253C282.979 91.0253 281.777 91.3017 281.116 98.7169C280.767 102.454 280.419 108.223 280.395 116.744L322.29 116.696Z" fill="white"/>
<path opacity="0.5" d="M322.29 116.696C322.879 114.581 323.492 112.333 324.309 109.882C325.126 107.43 325.859 104.966 326.773 102.214C327.454 100.139 328.203 97.9357 329.02 95.6042C324.142 94.0454 319.157 92.8405 314.105 91.9987C308.785 91.051 303.403 90.4847 298.001 90.3042C291.019 90.3042 282.979 91.0253 282.979 91.0253C282.979 91.0253 281.777 91.3017 281.116 98.7169C280.767 102.454 280.419 108.223 280.395 116.744L322.29 116.696Z" fill="white"/>
<path d="M299.96 116.696L309.815 99.0534L298.422 105.435L291.812 97.1426L294.228 116.696H299.96Z" fill="#141F13"/>
<path d="M310.2 89.7632C316.713 91.3015 318.684 96.5174 317.963 101.265L313.216 99.6781C307.745 101.658 302.613 104.471 298.001 108.019C298.001 108.019 294.396 101.409 290.959 99.2455L286.079 99.8223C286.079 99.8223 293.687 85.8934 310.2 89.7632Z" fill="#141F13"/>
<path opacity="0.1" d="M310.2 89.7632C316.713 91.3015 318.684 96.5174 317.963 101.265L313.216 99.6781C307.745 101.658 302.613 104.471 298.001 108.019C298.001 108.019 294.396 101.409 290.959 99.2455L286.079 99.8223C286.079 99.8223 293.687 85.8934 310.2 89.7632Z" fill="white"/>
<path d="M298.386 91.8427C298.737 91.6562 299.102 91.4995 299.479 91.374C300.309 90.725 301.318 89.1386 301.27 85.3649C301.232 83.8589 301.091 82.3572 300.849 80.8702L311.509 78.8872C311.509 78.8872 307.904 86.0981 310.909 91.374C311.942 91.8427 312.567 92.5037 312.459 93.369C311.654 99.5222 298.422 105.483 298.422 105.483C298.422 105.483 291.992 95.376 298.386 91.8427Z" fill="#EEC1BB"/>
<path opacity="0.2" d="M300.849 80.834C301.091 82.321 301.232 83.8228 301.27 85.3288C308.481 85.3288 311.509 78.8511 311.509 78.8511L300.849 80.834Z" fill="black"/>
<path d="M305.609 45.6692C305.609 45.6692 293.11 44.0828 290.802 54.0818C290.143 56.9366 290.307 59.9198 291.275 62.6852C292.243 65.4506 293.975 67.8848 296.271 69.7053L305.609 45.6692Z" fill="#141F13"/>
<path d="M306.738 51.0293C297.472 50.5245 294.228 55.3197 293.026 64.826C291.523 76.7119 293.699 85.3289 305.428 83.418C321.34 80.8341 322.121 51.8705 306.738 51.0293Z" fill="#EEC1BB"/>
<path d="M299.035 64.6338C298.221 65.9753 297.248 67.214 296.138 68.3233C296.387 68.7277 296.744 69.0545 297.169 69.2669C297.594 69.4793 298.069 69.5687 298.542 69.5251L299.035 64.6338Z" fill="#D4827D"/>
<path d="M304.755 64.1891C304.695 64.9463 305.056 65.5953 305.56 65.6313C306.065 65.6674 306.522 65.0905 306.582 64.3334C306.642 63.5762 306.281 62.9272 305.777 62.8792C305.272 62.8311 304.815 63.432 304.755 64.1891Z" fill="#141F13"/>
<path d="M305.981 62.9389L304.383 62.1577C304.383 62.1577 305.092 63.6119 305.981 62.9389Z" fill="#141F13"/>
<path d="M295.309 63.2878C295.309 64.045 295.622 64.6939 296.126 64.742C296.631 64.7901 297.088 64.1892 297.148 63.432C297.208 62.6749 296.847 62.0259 296.343 61.9899C295.838 61.9538 295.369 62.5307 295.309 63.2878Z" fill="#141F13"/>
<path d="M296.547 62.0375L294.948 61.2563C294.948 61.2563 295.658 62.7225 296.547 62.0375Z" fill="#141F13"/>
<path d="M309.13 59.8263C309.066 59.8263 309.004 59.8111 308.947 59.7818C308.891 59.7525 308.842 59.7101 308.805 59.658C308.353 59.1592 307.794 58.7692 307.17 58.5173C306.545 58.2655 305.872 58.1583 305.2 58.2038C305.093 58.2079 304.988 58.172 304.906 58.1031C304.824 58.0343 304.77 57.9374 304.755 57.8313C304.749 57.7216 304.785 57.6137 304.857 57.5306C304.929 57.4475 305.031 57.3958 305.14 57.3866C305.947 57.3292 306.756 57.4612 307.503 57.7721C308.25 58.083 308.914 58.5642 309.442 59.1773C309.506 59.2657 309.532 59.3752 309.517 59.4827C309.501 59.5902 309.444 59.6875 309.358 59.7542C309.289 59.7962 309.211 59.8209 309.13 59.8263Z" fill="#141F13"/>
<path d="M294.744 57.9997C294.673 57.9988 294.604 57.9795 294.543 57.9437C294.482 57.9079 294.431 57.8568 294.396 57.7954C294.368 57.749 294.349 57.6974 294.341 57.6438C294.333 57.5901 294.336 57.5353 294.349 57.4828C294.363 57.4302 294.387 57.3808 294.419 57.3375C294.452 57.2942 294.493 57.2579 294.54 57.2306C295.137 56.8315 295.817 56.5714 296.528 56.4695C297.239 56.3676 297.965 56.4264 298.65 56.6417C298.699 56.6638 298.743 56.6953 298.78 56.7344C298.817 56.7735 298.845 56.8195 298.864 56.8698C298.883 56.92 298.892 56.9735 298.891 57.0271C298.889 57.0808 298.877 57.1336 298.854 57.1825C298.836 57.2332 298.808 57.2795 298.77 57.3184C298.733 57.3573 298.688 57.3879 298.638 57.4083C298.588 57.4287 298.535 57.4384 298.481 57.4368C298.427 57.4351 298.374 57.4222 298.326 57.3988C297.76 57.2332 297.164 57.1958 296.582 57.2893C296 57.3829 295.446 57.605 294.961 57.9396C294.894 57.9761 294.82 57.9966 294.744 57.9997Z" fill="#141F13"/>
<path d="M316.028 67.1935C316.028 67.1935 312.122 59.3457 313.096 53.5049C313.096 53.5049 295.153 44.9961 293.218 63.588C293.218 63.588 292.34 46.943 308.276 47.4478C324.212 47.9525 322.878 71.2436 314.285 77.7333C314.249 77.7333 318.432 72.0968 316.028 67.1935Z" fill="#141F13"/>
<path d="M304.01 44.9478C304.01 44.9478 296.403 43.073 294.239 45.092C292.076 47.111 307.459 61.3284 315.511 62.7586C315.511 62.7586 318.24 71.664 316.076 75.8342C316.076 75.8342 325.138 72.6735 325.559 58.8767C325.979 45.08 311.497 39.9723 304.01 44.9478Z" fill="#141F13"/>
<path d="M314.394 69.0684C314.466 68.5395 314.642 68.0302 314.911 67.5694C315.181 67.1086 315.538 66.7054 315.963 66.3828C316.389 66.0603 316.873 65.8247 317.39 65.6895C317.906 65.5544 318.444 65.5223 318.973 65.5951C321.821 66.0638 322.866 72.0368 315.644 73.0583C314.61 73.2026 314.093 72.169 314.394 69.0684Z" fill="#EEC1BB"/>
<path d="M318.432 50.404C318.432 50.404 321.593 42.364 330.065 42.9288C338.538 43.4937 339.836 56.7256 335.377 66.4963C330.919 76.267 333.947 79.4277 333.947 79.4277C333.947 79.4277 329.2 78.8508 329.2 70.0897C328.941 71.9445 328.844 73.8184 328.912 75.6901C328.912 75.6901 325.751 71.2314 328.767 62.7586C331.784 54.2859 322.157 58.1677 322.157 58.1677L318.432 50.404Z" fill="#141F13"/>
<path d="M309.767 63.0232C309.723 63.0339 309.678 63.0339 309.635 63.0232C298.818 59.1294 294.624 46.0897 294.576 45.9575C294.546 45.8524 294.558 45.7396 294.609 45.6431C294.661 45.5466 294.748 45.474 294.852 45.4408C294.904 45.424 294.958 45.4174 295.011 45.4217C295.065 45.4259 295.118 45.4407 295.166 45.4653C295.214 45.4898 295.257 45.5237 295.291 45.5649C295.326 45.606 295.353 45.6537 295.369 45.7052C295.369 45.8374 299.455 58.4924 309.911 62.2541C310.014 62.2921 310.097 62.3686 310.144 62.4673C310.191 62.566 310.198 62.6792 310.163 62.7828C310.129 62.8584 310.073 62.9218 310.002 62.9647C309.932 63.0077 309.849 63.0281 309.767 63.0232Z" fill="#141F13"/>
<path d="M300.717 75.3898H300.405C300.351 75.3899 300.297 75.3789 300.247 75.3575C300.198 75.3361 300.153 75.3047 300.116 75.2653C300.078 75.2259 300.05 75.1793 300.031 75.1284C300.013 75.0774 300.005 75.0232 300.008 74.9692C300.015 74.8597 300.063 74.757 300.144 74.683C300.225 74.6089 300.331 74.5693 300.441 74.5726C302.307 74.5682 304.1 73.8401 305.44 72.5415C305.517 72.4652 305.621 72.4224 305.729 72.4224C305.837 72.4224 305.941 72.4652 306.017 72.5415C306.094 72.6181 306.136 72.7218 306.136 72.83C306.136 72.9381 306.094 73.0418 306.017 73.1184C304.6 74.5166 302.707 75.3279 300.717 75.3898Z" fill="#141F13"/>
<path d="M302.051 68.0106C301.543 68.0493 301.035 67.9337 300.593 67.6791C300.151 67.4245 299.796 67.0425 299.575 66.5832C299.353 66.1238 299.276 65.6084 299.352 65.1041C299.428 64.5999 299.654 64.1303 300.001 63.7566C300.348 63.3829 300.799 63.1225 301.297 63.0094C301.794 62.8963 302.314 62.9358 302.788 63.1226C303.263 63.3095 303.67 63.635 303.956 64.0568C304.243 64.4785 304.396 64.9769 304.395 65.4868C304.411 65.8074 304.363 66.128 304.253 66.4297C304.143 66.7314 303.974 67.008 303.756 67.2432C303.537 67.4785 303.274 67.6676 302.981 67.7994C302.688 67.9312 302.372 68.003 302.051 68.0106ZM302.051 63.5639C301.662 63.5251 301.271 63.605 300.928 63.7932C300.585 63.9814 300.307 64.269 300.131 64.6181C299.955 64.9672 299.889 65.3615 299.942 65.7489C299.994 66.1364 300.163 66.4989 300.425 66.7886C300.688 67.0783 301.032 67.2817 301.413 67.3719C301.793 67.4622 302.192 67.435 302.557 67.2941C302.921 67.1532 303.235 66.905 303.456 66.5824C303.677 66.2598 303.794 65.8778 303.794 65.4868C303.817 65.001 303.646 64.5259 303.32 64.1655C302.993 63.8051 302.537 63.5888 302.051 63.5639Z" fill="#141F13"/>
<path d="M294.792 67.6141C294.286 67.6405 293.784 67.5146 293.35 67.2525C292.915 66.9904 292.57 66.6042 292.358 66.1438C292.145 65.6834 292.076 65.1699 292.158 64.6696C292.241 64.1693 292.471 63.7052 292.82 63.3372C293.169 62.9693 293.62 62.7143 294.115 62.6052C294.61 62.4962 295.127 62.5381 295.598 62.7255C296.069 62.9129 296.473 63.2373 296.758 63.6567C297.043 64.0761 297.195 64.5712 297.196 65.0783C297.214 65.4049 297.165 65.7317 297.053 66.0387C296.94 66.3458 296.766 66.6266 296.541 66.864C296.316 67.1014 296.045 67.2904 295.744 67.4193C295.443 67.5483 295.12 67.6146 294.792 67.6141ZM294.792 63.1554C294.404 63.119 294.013 63.2011 293.672 63.391C293.33 63.5808 293.055 63.8695 292.88 64.219C292.706 64.5686 292.642 64.9627 292.696 65.3494C292.75 65.7362 292.92 66.0976 293.183 66.3861C293.446 66.6746 293.791 66.8767 294.171 66.9657C294.551 67.0548 294.949 67.0268 295.313 66.8853C295.677 66.7438 295.99 66.4955 296.21 66.1729C296.43 65.8504 296.548 65.4688 296.547 65.0783C296.557 64.5986 296.379 64.1341 296.051 63.7838C295.723 63.4336 295.272 63.2253 294.792 63.2034V63.1554Z" fill="#141F13"/>
<path d="M300.008 65.7874C299.951 65.7902 299.893 65.7757 299.844 65.7457C299.795 65.7157 299.756 65.6716 299.732 65.6191C299.625 65.3939 299.473 65.1932 299.284 65.0298C299.096 64.8663 298.876 64.7437 298.638 64.6697C298.339 64.6522 298.039 64.705 297.764 64.824C297.488 64.9429 297.244 65.1247 297.052 65.3547C296.994 65.4105 296.916 65.4417 296.835 65.4417C296.755 65.4417 296.677 65.4105 296.619 65.3547C296.564 65.2986 296.533 65.2231 296.533 65.1444C296.533 65.0658 296.564 64.9903 296.619 64.9341C296.88 64.6379 297.209 64.4081 297.576 64.2639C297.944 64.1197 298.341 64.0652 298.734 64.1049C299.066 64.1974 299.374 64.3601 299.637 64.5819C299.901 64.8038 300.113 65.0796 300.261 65.3908C300.279 65.426 300.289 65.4646 300.292 65.5041C300.294 65.5437 300.288 65.5832 300.275 65.6204C300.261 65.6576 300.24 65.6917 300.213 65.7204C300.186 65.7491 300.153 65.7719 300.116 65.7874H300.008Z" fill="#141F13"/>
<path d="M304.094 65.7874C304.017 65.7875 303.942 65.7575 303.886 65.7037C303.83 65.6499 303.797 65.5766 303.794 65.499C303.794 65.4201 303.823 65.3441 303.877 65.2861C303.93 65.2282 304.004 65.1926 304.082 65.1865C304.563 65.1865 315.608 64.838 316.966 64.8981C317.047 64.9042 317.122 64.9415 317.176 65.002C317.229 65.0626 317.258 65.1416 317.254 65.2226C317.248 65.3001 317.212 65.3723 317.154 65.4238C317.095 65.4754 317.019 65.5023 316.942 65.499C315.596 65.4389 304.227 65.7874 304.106 65.7874H304.094Z" fill="#141F13"/>
<path d="M337.877 116.696C333.502 105.206 329.02 95.604 329.02 95.604C329.02 95.604 321.701 106.252 321.04 116.696H337.877Z" fill="white"/>
<path opacity="0.5" d="M337.877 116.696C333.502 105.206 329.02 95.604 329.02 95.604C329.02 95.604 321.701 106.252 321.04 116.696H337.877Z" fill="white"/>
<path d="M340.617 206.351C338.213 199.765 335.81 194.188 335.81 194.188L325.763 202.986L327.517 206.351H340.617Z" fill="#E4897B"/>
<path d="M269.674 206.351C272.078 203.442 273.773 201.303 273.773 201.303L263.954 193.155C263.954 193.155 259.147 200.57 255.229 206.375L269.674 206.351Z" fill="#E4897B"/>
<path d="M272.078 206.351L277.907 202.265L275.648 175.128C268.22 176.33 257.428 197.962 257.428 197.962L265.841 206.375L272.078 206.351Z" fill="white"/>
<path opacity="0.2" d="M265.853 206.351H272.078L276.261 203.419L277.907 202.217L275.648 175.068C268.22 176.342 257.428 197.902 257.428 197.902L264.855 205.269L265.853 206.351Z" fill="white"/>
<path d="M267.68 206.351L257.428 195.595L255.662 198.551L263.87 206.351H267.68Z" fill="white"/>
<path opacity="0.2" d="M272.078 206.351L276.26 203.419L274.277 191.653C274.277 191.653 266.514 196.556 264.855 205.353L265.853 206.351H272.078Z" fill="black"/>
<path d="M326.412 206.351C328.887 191.064 331.303 179.43 331.303 179.43C307.519 173.686 275.587 175.128 275.587 175.128C273.087 184.045 271.609 195.162 270.78 206.375L326.412 206.351Z" fill="white"/>
<path opacity="0.2" d="M326.412 206.351C326.58 205.281 326.748 204.224 326.916 203.19C329.212 189.49 331.303 179.43 331.303 179.43C307.519 173.686 275.587 175.128 275.587 175.128C273.087 184.045 271.621 195.162 270.78 206.375L326.412 206.351Z" fill="white"/>
<path opacity="0.2" d="M326.412 206.351C326.58 205.281 326.748 204.223 326.916 203.19L323.407 199.897C322.557 201.958 322.015 204.132 321.797 206.351H326.412Z" fill="black"/>
<path d="M289.132 206.351H292.905C293.317 199.472 294.294 192.638 295.826 185.92L302.496 180.464L297.244 178.769L292.437 179.033L293.723 185.343C293.723 185.343 291.439 195.005 289.132 206.351Z" fill="#141F13"/>
<path d="M312.423 176.209C308.024 180.211 297.232 178.733 297.232 178.733C297.232 178.733 290.502 176.882 291.92 174.779C295.886 174.13 297.809 172.28 298.59 169.972C299.027 168.504 299.166 166.964 298.999 165.441C298.935 164.594 298.822 163.752 298.662 162.917L312.002 153.039C310.26 159.492 308.12 171.486 312.423 176.209Z" fill="#E4897B"/>
<path opacity="0.2" d="M308.926 159.252C308.397 167.256 301.823 169.455 298.602 169.912C299.039 168.444 299.178 166.904 299.011 165.381L308.926 159.252Z" fill="black"/>
<path d="M310.464 171.126L297.725 176.883L296.979 172.268L292.292 173.914C291.475 174.202 290.778 174.757 290.316 175.49C289.853 176.223 289.652 177.091 289.745 177.952L290.273 183.012L296.739 179.406L299.96 183.961L315.259 176.594L310.464 171.126Z" fill="white"/>
<path opacity="0.3" d="M310.464 171.126L297.725 176.883L296.979 172.268L292.292 173.914C291.475 174.202 290.778 174.757 290.316 175.49C289.853 176.223 289.652 177.091 289.745 177.952L290.273 183.012L296.739 179.406L299.96 183.961L315.259 176.594L310.464 171.126Z" fill="white"/>
<path d="M284.673 134.459C284.673 134.459 282.69 147.294 289.48 152.257C296.27 157.221 296.354 133.317 296.354 133.317L284.673 134.459Z" fill="#141F13"/>
<path d="M309.25 162.557C307.814 164.666 305.726 166.247 303.305 167.057C300.885 167.866 298.266 167.86 295.85 167.039C292.715 166.043 290.074 163.896 288.459 161.03C288.234 160.64 288.029 160.239 287.846 159.829C284.517 151.969 283.483 138.196 291.8 133.124C293.633 131.997 295.723 131.356 297.873 131.262C300.023 131.168 302.162 131.624 304.087 132.586C306.012 133.548 307.659 134.986 308.874 136.762C310.089 138.539 310.83 140.596 311.028 142.739C312.062 151.74 313.084 157.1 309.25 162.557Z" fill="#E4897B"/>
<path d="M297.677 147.438C297.857 148.171 297.52 148.844 297.028 148.928C296.535 149.013 296.054 148.472 295.922 147.727C295.79 146.982 296.09 146.321 296.571 146.248C297.052 146.176 297.544 146.693 297.677 147.438Z" fill="#141F13"/>
<path d="M289.3 148.844C289.48 149.577 289.132 150.25 288.651 150.335C288.17 150.419 287.665 149.866 287.545 149.133C287.425 148.4 287.714 147.727 288.194 147.642C288.675 147.558 289.18 148.135 289.3 148.844Z" fill="#141F13"/>
<path d="M291.992 148.76C291.489 151.174 290.656 153.508 289.516 155.695C290.077 155.964 290.689 156.109 291.311 156.122C291.933 156.134 292.551 156.013 293.122 155.767L291.992 148.76Z" fill="#DE5753"/>
<path d="M285.598 145.792C285.674 145.814 285.754 145.818 285.831 145.804C285.908 145.789 285.981 145.756 286.043 145.708C286.451 145.334 286.94 145.06 287.472 144.905C288.003 144.751 288.563 144.721 289.108 144.818C289.164 144.835 289.222 144.839 289.28 144.832C289.338 144.825 289.394 144.807 289.445 144.777C289.495 144.748 289.539 144.709 289.574 144.662C289.609 144.616 289.635 144.563 289.648 144.506C289.678 144.394 289.664 144.276 289.608 144.175C289.552 144.074 289.458 143.999 289.348 143.965C288.663 143.822 287.953 143.845 287.278 144.031C286.603 144.217 285.982 144.561 285.466 145.035C285.384 145.118 285.338 145.23 285.338 145.347C285.338 145.464 285.384 145.576 285.466 145.66C285.502 145.711 285.546 145.756 285.598 145.792Z" fill="#141F13"/>
<path d="M298.782 143.808C298.868 143.791 298.947 143.749 299.011 143.688C299.07 143.587 299.088 143.467 299.061 143.353C299.034 143.239 298.965 143.14 298.866 143.075C298.274 142.701 297.599 142.475 296.901 142.416C296.202 142.358 295.499 142.468 294.852 142.739C294.748 142.791 294.668 142.881 294.63 142.992C294.592 143.102 294.598 143.222 294.648 143.328C294.702 143.43 294.794 143.507 294.904 143.543C295.013 143.579 295.133 143.571 295.237 143.52C295.755 143.327 296.311 143.256 296.861 143.312C297.411 143.369 297.941 143.551 298.41 143.845C298.471 143.867 298.536 143.875 298.6 143.869C298.665 143.863 298.727 143.842 298.782 143.808Z" fill="#141F13"/>
<path d="M302.484 132.343V136.441C303.206 136.685 303.809 137.191 304.174 137.859C304.54 138.527 304.64 139.308 304.455 140.047C303.553 143.592 306.113 148.64 308.962 150.43C308.962 150.43 308.877 148.94 310.163 149.145C311.449 149.349 312.026 157.052 310.031 161.006C310.031 161.006 313.3 157.257 314.418 148.988C315.439 141.309 314.947 135.083 313.072 132.391L302.484 132.343Z" fill="#141F13"/>
<path d="M316.304 149.337C315.639 151.567 314.118 153.442 312.074 154.553C309.358 156.007 307.327 153.724 307.519 150.815C307.723 148.231 309.346 144.278 312.326 144.049C315.307 143.821 317.086 146.633 316.304 149.337Z" fill="#E4897B"/>
<path d="M294.179 158.014C294.822 158.993 295.392 160.017 295.886 161.079L296.487 160.911C299.179 160.129 300.164 158.867 300.441 157.726C300.569 157.16 300.569 156.573 300.441 156.007C300.364 155.687 300.242 155.38 300.08 155.094C298.638 156.319 296.949 157.221 295.129 157.738C294.54 157.93 294.179 158.014 294.179 158.014Z" fill="#141F13"/>
<path d="M295.093 157.749L295.621 158.639C298.157 157.894 299.828 157.028 300.429 156.019C300.352 155.699 300.23 155.392 300.068 155.105C298.619 156.334 296.922 157.236 295.093 157.749Z" fill="white"/>
<path d="M296.487 160.91C299.179 160.129 300.164 158.867 300.441 157.726C299.422 158.039 298.469 158.536 297.629 159.192C297.078 159.632 296.679 160.232 296.487 160.91Z" fill="#DE5753"/>
<path d="M307.964 147.306L306.762 146.597C306.762 146.597 307.52 151.512 305.957 152.894C305.957 152.894 300.549 153.471 298.662 153.976C297.368 154.479 296.298 155.43 295.646 156.656C295.646 156.656 291.403 155.754 289.565 158.939C288.038 157.577 286.832 155.895 286.031 154.012C286.031 154.012 286.175 163.001 291.211 167.785C296.247 172.568 304.431 170.188 308.277 166.451C312.122 162.713 307.964 147.306 307.964 147.306ZM304.359 161.475C304.034 161.957 303.59 162.345 303.069 162.601C302.548 162.858 301.969 162.974 301.389 162.937C300.81 162.901 300.25 162.713 299.765 162.394C299.28 162.074 298.888 161.633 298.626 161.115L296.944 162.04C296.944 162.04 298.794 163.602 297.388 165.044C295.982 166.487 291.632 165.97 291.187 161.824C290.742 157.677 295.994 157.209 295.994 157.209C296.649 156.547 297.43 156.025 298.291 155.672C299.152 155.318 300.075 155.142 301.006 155.154C301.73 155.183 302.433 155.4 303.048 155.785C303.662 156.169 304.166 156.706 304.509 157.345C304.852 157.983 305.023 158.699 305.005 159.423C304.987 160.148 304.781 160.855 304.407 161.475H304.359Z" fill="#141F13"/>
<path d="M302.472 136.442C302.472 136.442 282.041 143.412 284.445 129.639C284.445 129.639 295.465 123.15 305.068 124.964C314.67 126.779 313.925 136.742 313.925 136.742L302.472 136.442Z" fill="#141F13"/>
<path d="M343.249 206.351C342.047 202.433 335.305 181.521 331.303 179.43C328.939 181.659 327.039 184.335 325.714 187.302C322.986 192.854 322.397 203.983 322.397 203.983L324.164 206.387L343.249 206.351Z" fill="white"/>
<path opacity="0.2" d="M343.249 206.351C342.047 202.433 335.305 181.521 331.303 179.43C328.939 181.659 327.039 184.335 325.714 187.302C322.986 192.854 322.397 203.983 322.397 203.983L324.164 206.387L343.249 206.351Z" fill="white"/>
<path opacity="0.6" d="M451.688 118.631H351.59V206.339H451.688V118.631Z" fill="white"/>
<path d="M376.707 206.351C380.493 202.673 383.137 199.765 383.137 199.765L381.743 178.469C377.272 180.872 362.814 200.558 357.442 206.351H376.707Z" fill="#141F13"/>
<path opacity="0.3" d="M376.707 206.351C380.493 202.673 383.137 199.765 383.137 199.765L381.743 178.469C377.272 180.872 362.814 200.558 357.442 206.351H376.707Z" fill="white"/>
<path opacity="0.2" d="M376.707 206.351C380.493 202.685 383.137 199.765 383.137 199.765L382.813 194.717L381.214 189.802C379.124 191.977 377.546 194.592 376.596 197.455C375.646 200.318 375.347 203.357 375.722 206.351H376.707Z" fill="black"/>
<path d="M422.028 150.803C420.994 154.769 426.667 165.729 424.371 185.655C422.076 205.581 400.203 204.38 390.372 197.673C380.541 190.967 382.248 154.961 385.625 147.846C389.002 140.732 422.028 150.803 422.028 150.803Z" fill="#141F13"/>
<path d="M420.477 206.351C421.198 203.623 422.064 200.63 423.097 197.313C423.834 194.909 424.656 192.358 425.561 189.658C426.25 187.614 426.995 185.391 427.796 182.987C422.916 181.434 417.932 180.23 412.882 179.382C407.551 178.445 402.162 177.879 396.754 177.688C389.771 177.688 381.731 178.421 381.731 178.421C381.731 178.421 380.589 178.685 379.88 186.1C379.496 190.162 379.111 196.604 379.159 206.303L420.477 206.351Z" fill="#141F13"/>
<path opacity="0.3" d="M420.477 206.351C421.198 203.623 422.064 200.63 423.097 197.313C423.834 194.909 424.656 192.358 425.561 189.658C426.25 187.614 426.995 185.391 427.796 182.987C422.916 181.434 417.932 180.23 412.882 179.382C407.551 178.445 402.162 177.879 396.754 177.688C389.771 177.688 381.731 178.421 381.731 178.421C381.731 178.421 380.589 178.685 379.88 186.1C379.496 190.162 379.111 196.604 379.159 206.303L420.477 206.351Z" fill="white"/>
<path d="M403.219 176.702C407.534 176.967 414.432 176.919 418.843 183.817H410.671L415.117 189.249C415.117 189.249 400.804 192.662 396.333 202.048C396.333 202.048 389.915 190.92 386.43 188.336C388.556 186.219 390.986 184.432 393.641 183.036C391.328 182.048 388.908 181.33 386.43 180.896C386.43 180.896 397.391 176.354 403.219 176.702Z" fill="white"/>
<path d="M411.247 180.752C411.247 180.752 400.167 193.251 396.742 199.284C395.184 192.684 395.346 185.794 397.21 179.274L411.247 180.752Z" fill="white"/>
<path opacity="0.6" d="M411.247 180.752C411.247 180.752 400.167 193.251 396.742 199.284C395.184 192.684 395.346 185.794 397.21 179.274L411.247 180.752Z" fill="white"/>
<path d="M399.734 185.668C408.591 184.538 411.247 180.752 411.247 180.752C405.623 175.452 410.298 166.331 410.298 166.331L399.638 168.326C399.88 169.808 400.021 171.306 400.059 172.808C400.131 179.274 397.21 179.334 397.21 179.334C395.348 182.783 399.734 185.668 399.734 185.668Z" fill="#EEC1BB"/>
<path opacity="0.2" d="M399.638 168.266C399.881 169.748 400.021 171.246 400.059 172.748C407.27 172.748 410.298 166.271 410.298 166.271L399.638 168.266Z" fill="black"/>
<path d="M405.527 138.52C396.261 138.016 393.016 142.811 391.814 152.317C390.312 164.203 392.487 172.82 404.217 170.909C420.129 168.253 420.91 139.302 405.527 138.52Z" fill="#EEC1BB"/>
<path d="M397.823 152.065C397.012 153.412 396.039 154.655 394.927 155.767C395.176 156.171 395.533 156.498 395.957 156.71C396.382 156.922 396.858 157.012 397.33 156.968L397.823 152.065Z" fill="#D4827D"/>
<path d="M403.544 151.62C403.484 152.389 403.844 153.026 404.349 153.075C404.854 153.123 405.311 152.522 405.371 151.765C405.431 151.007 405.07 150.358 404.565 150.322C404.061 150.286 403.604 150.863 403.544 151.62Z" fill="#141F13"/>
<path d="M404.77 150.371L403.171 149.602C403.171 149.602 403.88 151.056 404.77 150.371Z" fill="#141F13"/>
<path d="M394.146 150.731C394.086 151.488 394.446 152.137 394.951 152.173C395.456 152.209 395.912 151.632 395.972 150.875C396.033 150.118 395.672 149.457 395.167 149.421C394.662 149.385 394.146 149.962 394.146 150.731Z" fill="#141F13"/>
<path d="M395.347 149.481L393.749 148.7C393.749 148.7 394.446 150.154 395.347 149.481Z" fill="#141F13"/>
<path d="M407.93 147.27C407.863 147.272 407.797 147.256 407.738 147.225C407.679 147.193 407.629 147.147 407.594 147.09C407.143 146.59 406.583 146.201 405.958 145.951C405.333 145.701 404.66 145.597 403.988 145.648C403.879 145.651 403.773 145.614 403.691 145.542C403.608 145.471 403.556 145.371 403.544 145.263C403.537 145.153 403.574 145.045 403.645 144.962C403.717 144.879 403.819 144.828 403.928 144.818C404.735 144.762 405.544 144.894 406.291 145.205C407.038 145.516 407.702 145.997 408.231 146.609C408.294 146.697 408.321 146.807 408.305 146.914C408.289 147.022 408.232 147.119 408.147 147.186C408.083 147.233 408.009 147.262 407.93 147.27Z" fill="#141F13"/>
<path d="M393.533 145.443C393.462 145.442 393.393 145.423 393.332 145.387C393.27 145.351 393.22 145.3 393.184 145.239C393.156 145.192 393.138 145.141 393.13 145.087C393.122 145.034 393.125 144.979 393.138 144.926C393.151 144.874 393.175 144.824 393.208 144.781C393.241 144.738 393.282 144.701 393.329 144.674C393.923 144.269 394.603 144.006 395.316 143.906C396.029 143.806 396.755 143.871 397.439 144.097C397.538 144.142 397.615 144.223 397.656 144.324C397.696 144.425 397.696 144.537 397.655 144.638C397.61 144.737 397.529 144.815 397.428 144.855C397.327 144.895 397.215 144.895 397.114 144.854C396.55 144.682 395.954 144.64 395.371 144.731C394.788 144.823 394.233 145.046 393.749 145.383C393.683 145.42 393.609 145.44 393.533 145.443Z" fill="#141F13"/>
<path d="M398.46 160.67C398.837 161.737 399.139 162.83 399.362 163.939C399.562 163.951 399.762 163.951 399.962 163.939C402.679 163.819 403.892 162.869 404.421 161.848C404.66 161.341 404.779 160.786 404.77 160.225C404.771 159.909 404.731 159.594 404.65 159.288C403.012 160.11 401.217 160.569 399.386 160.634L398.46 160.67Z" fill="#141F13"/>
<path d="M399.385 160.61L399.674 161.571C402.222 161.439 404.012 161.018 404.769 160.201C404.771 159.885 404.73 159.57 404.649 159.264C403.012 160.085 401.216 160.544 399.385 160.61Z" fill="white"/>
<path d="M399.963 163.915C402.679 163.795 403.893 162.845 404.421 161.824C403.388 161.889 402.375 162.137 401.429 162.557C400.81 162.845 400.297 163.32 399.963 163.915Z" fill="#DE5753"/>
<path d="M414.805 154.625C414.805 154.625 410.887 146.777 411.86 140.937C411.86 140.937 393.917 132.44 391.995 151.02C391.995 151.02 391.105 134.375 407.041 134.879C422.977 135.384 421.643 158.675 413.05 165.165C413.038 165.165 417.221 159.54 414.805 154.625Z" fill="#141F13"/>
<path d="M413.182 156.548C413.255 156.019 413.43 155.51 413.7 155.049C413.969 154.588 414.327 154.185 414.752 153.862C415.177 153.54 415.662 153.304 416.178 153.169C416.694 153.034 417.232 153.002 417.761 153.075C420.609 153.543 421.655 159.516 414.432 160.538C413.374 160.646 412.882 159.612 413.182 156.548Z" fill="#EEC1BB"/>
<path d="M409.397 140.023C408.768 147.684 410.664 155.34 414.793 161.824C420.009 169.695 414.024 176.582 414.024 176.582C414.024 176.582 426.39 172.315 420.994 154.769C420.994 154.769 426.811 139.085 415.37 134.867C415.37 134.867 415.31 130.06 404.962 130.997C394.614 131.935 386.298 140.768 384.711 152.065C383.125 163.362 389.026 175.969 389.026 175.969C389.026 175.969 382.765 135.925 409.397 140.023Z" fill="#141F13"/>
<path d="M409.974 140.203C409.292 142.887 409.033 145.66 409.204 148.424C409.367 151.222 409.814 153.996 410.538 156.704C411.259 159.431 412.304 162.062 413.651 164.54C414.971 167.04 416.748 169.27 418.891 171.114C416.672 169.332 414.805 167.152 413.387 164.684C411.939 162.225 410.789 159.603 409.962 156.872C409.118 154.133 408.563 151.314 408.303 148.46C408.021 145.566 408.195 142.646 408.82 139.807L409.974 140.203Z" fill="#141F13"/>
<path opacity="0.2" d="M420.477 206.35C420.634 205.774 420.79 205.149 420.958 204.596C419.84 200.678 418.687 203.743 418.687 203.743C418.501 204.603 418.364 205.474 418.278 206.35H420.477Z" fill="black"/>
<path d="M436.113 206.35C431.93 195.198 427.796 182.987 427.796 182.987C419.215 186.376 418.747 203.935 418.747 203.935L420.093 206.338L436.113 206.35Z" fill="#141F13"/>
<path opacity="0.3" d="M436.113 206.35C431.93 195.198 427.796 182.987 427.796 182.987C419.215 186.376 418.747 203.935 418.747 203.935L420.093 206.338L436.113 206.35Z" fill="white"/>
<path opacity="0.5" d="M246.888 118.631H146.79V206.339H246.888V118.631Z" fill="white"/>
<path d="M198.215 132.896L188.168 142.956H186.089V132.896H198.215Z" fill="white"/>
<path d="M200.318 135.901V142.955H193.264L200.318 135.901Z" fill="white"/>
<path d="M205.39 141.982L201.58 140.78V135.228L205.39 134.026V141.982Z" fill="white"/>
<path d="M195.739 152.173C192.441 152.174 189.245 151.031 186.695 148.939C184.146 146.847 182.4 143.936 181.757 140.701C181.113 137.467 181.611 134.109 183.166 131.201C184.721 128.292 187.236 126.013 190.283 124.751C193.33 123.489 196.721 123.323 199.876 124.281C203.032 125.239 205.758 127.262 207.59 130.004C209.421 132.747 210.245 136.04 209.92 139.322C209.596 142.604 208.143 145.672 205.81 148.003C204.49 149.329 202.921 150.381 201.192 151.096C199.464 151.812 197.61 152.178 195.739 152.173ZM195.739 124.88C193.592 124.879 191.477 125.407 189.583 126.418C187.688 127.43 186.073 128.893 184.879 130.678C183.686 132.463 182.951 134.515 182.74 136.652C182.53 138.789 182.85 140.945 183.672 142.929C184.494 144.913 185.793 146.663 187.454 148.025C189.115 149.386 191.085 150.317 193.192 150.735C195.298 151.152 197.475 151.043 199.53 150.418C201.584 149.793 203.452 148.67 204.969 147.15C206.791 145.324 208.03 142.999 208.532 140.469C209.033 137.939 208.774 135.317 207.786 132.935C206.799 130.552 205.127 128.515 202.983 127.082C200.839 125.648 198.318 124.882 195.739 124.88Z" fill="white"/>
<path d="M204.965 127.861L185.666 147.16L186.516 148.009L205.815 128.71L204.965 127.861Z" fill="white"/>
<path d="M33.3031 366.624L63.0839 363.703V321.844H74.8856V363.691L104.799 366.624C106.232 366.767 107.561 367.438 108.527 368.506C109.493 369.574 110.028 370.964 110.026 372.404V376.875H28.0632V372.404C28.0651 370.963 28.6021 369.573 29.5703 368.505C30.5384 367.437 31.8687 366.767 33.3031 366.624Z" fill="#141F13"/>
<path opacity="0.3" d="M33.3031 366.624L63.0839 363.703V321.844H74.8856V363.691L104.799 366.624C106.232 366.767 107.561 367.438 108.527 368.506C109.493 369.574 110.028 370.964 110.026 372.404V376.875H28.0632V372.404C28.0651 370.963 28.6021 369.573 29.5703 368.505C30.5384 367.437 31.8687 366.767 33.3031 366.624Z" fill="white"/>
<path d="M99.1622 382.415C99.1622 383.941 99.6147 385.433 100.463 386.702C101.31 387.971 102.515 388.96 103.925 389.544C105.335 390.128 106.886 390.28 108.383 389.983C109.88 389.685 111.255 388.95 112.334 387.871C113.413 386.792 114.147 385.417 114.445 383.921C114.743 382.424 114.59 380.873 114.006 379.463C113.422 378.053 112.433 376.848 111.164 376C109.896 375.152 108.404 374.7 106.878 374.7C104.832 374.7 102.869 375.513 101.422 376.96C99.9751 378.407 99.1622 380.369 99.1622 382.415Z" fill="white"/>
<path d="M38.9396 382.415C38.942 383.944 38.4911 385.438 37.6439 386.711C36.7968 387.983 35.5915 388.975 34.1803 389.562C32.7692 390.149 31.2157 390.305 29.7162 390.009C28.2167 389.713 26.8387 388.979 25.7563 387.9C24.6738 386.821 23.9357 385.445 23.6352 383.947C23.3347 382.448 23.4853 380.894 24.068 379.481C24.6507 378.068 25.6393 376.86 26.9088 376.009C28.1782 375.158 29.6716 374.702 31.2 374.7C32.2148 374.698 33.22 374.896 34.1581 375.283C35.0963 375.67 35.9491 376.238 36.6677 376.955C37.3864 377.671 37.957 378.522 38.3468 379.459C38.7366 380.396 38.938 381.401 38.9396 382.415Z" fill="white"/>
<path d="M71.9293 330.834H65.9924C64.676 330.834 63.4135 330.311 62.4827 329.38C61.5519 328.449 61.0289 327.187 61.0289 325.87L61.0289 293.578H76.9288L76.9288 325.87C76.9289 326.525 76.7993 327.174 76.5476 327.778C76.2959 328.383 75.9271 328.932 75.4623 329.393C74.9976 329.854 74.4462 330.219 73.8398 330.466C73.2335 330.714 72.5841 330.839 71.9293 330.834Z" fill="#141F13"/>
<path opacity="0.5" d="M71.9293 330.834H65.9924C64.676 330.834 63.4135 330.311 62.4827 329.38C61.5519 328.449 61.0289 327.187 61.0289 325.87L61.0289 293.578H76.9288L76.9288 325.87C76.9289 326.525 76.7993 327.174 76.5476 327.778C76.2959 328.383 75.9271 328.932 75.4623 329.393C74.9976 329.854 74.4462 330.219 73.8398 330.466C73.2335 330.714 72.5841 330.839 71.9293 330.834Z" fill="white"/>
<path d="M40.8145 228.115C40.8145 228.115 38.5191 283.939 54.0344 293.554H36.3198C36.3198 293.554 22.5711 274.541 26.4529 228.115H40.8145Z" fill="#141F13"/>
<path opacity="0.5" d="M40.8145 228.115C40.8145 228.115 38.5191 283.939 54.0344 293.554H36.3198C36.3198 293.554 22.5711 274.541 26.4529 228.115H40.8145Z" fill="white"/>
<path d="M36.2836 285.742H103.789C105.383 285.742 106.911 286.375 108.038 287.502C109.165 288.629 109.798 290.158 109.798 291.751V297.832H30.2745V291.751C30.2745 290.158 30.9076 288.629 32.0345 287.502C33.1615 286.375 34.6899 285.742 36.2836 285.742Z" fill="white"/>
<path d="M110.687 291.787H29.3732C28.039 291.787 26.9575 292.869 26.9575 294.203V295.417C26.9575 296.751 28.039 297.832 29.3732 297.832H110.687C112.022 297.832 113.103 296.751 113.103 295.417V294.203C113.103 292.869 112.022 291.787 110.687 291.787Z" fill="white"/>
<path opacity="0.6" d="M110.687 291.787H29.3732C28.039 291.787 26.9575 292.869 26.9575 294.203V295.417C26.9575 296.751 28.039 297.832 29.3732 297.832H110.687C112.022 297.832 113.103 296.751 113.103 295.417V294.203C113.103 292.869 112.022 291.787 110.687 291.787Z" fill="white"/>
<path d="M24.542 239.46H48.0734C57.7507 239.46 65.5957 231.615 65.5957 221.938V215.713C65.5957 206.035 57.7507 198.19 48.0734 198.19H24.542C14.8646 198.19 7.01962 206.035 7.01962 215.713V221.938C7.01962 231.615 14.8646 239.46 24.542 239.46Z" fill="white"/>
<path d="M99.2703 189.622C102.455 190.932 120.518 213.97 120.987 218.826C121.576 224.714 115.603 225.832 109.101 224.306C102.599 222.779 107.527 216.398 107.527 216.398L97.5156 202.385L99.2703 189.622Z" fill="#141F13"/>
<path d="M96.386 246.996H73.5516C73.5516 246.996 77.9503 216.83 78.6713 216.398C79.3924 215.965 95.3524 214.896 95.3524 214.896V231.721L96.386 246.996Z" fill="#141F13"/>
<path d="M70.355 181.437C71.1842 181.269 79.8973 177.664 84.6324 181.305C89.3676 184.947 94.7036 197.073 86.2188 201.471C77.7341 205.87 66.9058 203.575 65.6078 196.953C64.3099 190.331 70.355 181.437 70.355 181.437Z" fill="#141F13"/>
<path d="M63.5647 154.24C63.5647 154.24 57.8441 167.46 61.8461 172.364C65.8481 177.267 91.9514 181.161 96.4822 176.558C101.013 171.955 95.076 153.724 95.076 153.724L63.5647 154.24Z" fill="#141F13"/>
<path d="M166.175 348.092L159.373 349.726L155.935 340.34L152.811 331.807L160.55 328.502L163.531 338.862L166.175 348.092Z" fill="#E4897B"/>
<path opacity="0.2" d="M163.531 338.862L155.935 340.34L152.811 331.807L160.55 328.502L163.531 338.862Z" fill="black"/>
<path d="M162.846 333.911L153.424 337.408C153.424 337.408 128.27 274.529 123.102 274.313C117.935 274.097 65.2954 298.277 52.1116 284.865C38.9277 271.453 57.9884 239.124 57.9884 239.124C57.9884 239.124 89.7161 234.605 92.1077 241.768C92.6987 243.879 93.1484 246.027 93.4537 248.198C93.8143 250.385 94.0546 252.224 94.0546 252.224C95.0401 251.983 126.888 243.811 139.435 252.224C152.21 260.853 162.846 333.911 162.846 333.911Z" fill="#141F13"/>
<path opacity="0.2" d="M162.846 333.911L153.424 337.408C153.424 337.408 128.27 274.529 123.102 274.313C117.935 274.097 65.2954 298.277 52.1116 284.865C38.9277 271.453 57.9884 239.124 57.9884 239.124C57.9884 239.124 89.7161 234.605 92.1077 241.768C92.6987 243.879 93.1484 246.027 93.4537 248.198C93.8143 250.385 94.0546 252.224 94.0546 252.224C95.0401 251.983 126.888 243.811 139.435 252.224C152.21 260.853 162.846 333.911 162.846 333.911Z" fill="white"/>
<path d="M108.62 374.916L101.842 373.173L103.152 363.463L104.354 354.545L112.731 355.303L110.555 365.686L108.62 374.916Z" fill="#E4897B"/>
<path opacity="0.2" d="M110.507 365.891L103.104 363.643L104.33 354.642L112.719 355.351L110.507 365.891Z" fill="black"/>
<path d="M149.53 333.922L163.254 329.259L163.843 334.884L153.436 338.561L149.53 333.922Z" fill="#141F13"/>
<path d="M74.8977 288.086C74.8977 288.086 77.0369 288.146 110.315 286.595C110.315 286.595 105.352 328.19 102.635 359.341L112.586 361.035C112.586 361.035 136.358 294.347 136.106 283.747C135.853 273.147 123.739 270.046 123.739 270.046C123.739 270.046 99.9914 283.747 74.8977 288.086Z" fill="#141F13"/>
<path opacity="0.1" d="M74.8977 288.086C74.8977 288.086 77.0369 288.146 110.315 286.595C110.315 286.595 105.352 328.19 102.635 359.341L112.586 361.035C112.586 361.035 136.358 294.347 136.106 283.747C135.853 273.147 123.739 270.046 123.739 270.046C123.739 270.046 99.9914 283.747 74.8977 288.086Z" fill="white"/>
<path d="M101.181 356.324L114.858 357.875L112.214 363.235L101.145 361.816L101.181 356.324Z" fill="#141F13"/>
<path opacity="0.3" d="M94.0546 252.224L75.4987 256.094C75.4987 256.094 85.7621 250.433 93.4537 248.198C93.8142 250.385 94.0546 252.224 94.0546 252.224Z" fill="black"/>
<path d="M58.7576 234.197L57.9884 239.136L92.1077 241.768L93.0091 235.927L58.7576 234.197Z" fill="#141F13"/>
<path opacity="0.2" d="M58.7576 234.197L57.9884 239.136L92.1077 241.768L93.0091 235.927L58.7576 234.197Z" fill="black"/>
<path d="M70.395 233.87L68.7094 233.697L67.8269 242.28L69.5125 242.454L70.395 233.87Z" fill="#141F13"/>
<path d="M85.005 235.93L77.5332 235.45L77.1683 241.123L84.6402 241.603L85.005 235.93Z" fill="white"/>
<path d="M91.3544 234.794L89.6687 234.621L88.7862 243.204L90.4718 243.378L91.3544 234.794Z" fill="#141F13"/>
<path opacity="0.2" d="M70.395 233.87L68.7094 233.697L67.8269 242.28L69.5125 242.454L70.395 233.87Z" fill="white"/>
<path opacity="0.2" d="M91.3544 234.794L89.6687 234.621L88.7862 243.204L90.4718 243.378L91.3544 234.794Z" fill="white"/>
<path d="M97.035 188.877C91.3367 185.252 84.8111 183.135 78.0704 182.723C67.122 182.159 57.2792 188.192 57.2792 188.192L58.7334 234.197L92.9849 235.927C92.9849 235.927 103.813 205.233 97.035 188.877Z" fill="white"/>
<path d="M95.3645 158.134C95.3645 158.134 100.304 135.913 79.741 138.112C53.9382 140.876 63.7329 172.965 76.5322 170.957C89.3314 168.95 95.3645 158.134 95.3645 158.134Z" fill="#141F13"/>
<path opacity="0.2" d="M91.1222 187.903L91.7351 197.59L84.3079 190.932C84.3079 190.932 83.8031 195.739 82.0846 203.731C81.5441 199.57 80.3687 195.517 78.5993 191.713L71.5808 198.851L66.9899 187.903C66.9899 187.903 81.051 177.712 91.1222 187.903Z" fill="black"/>
<path d="M81.76 195.763L78.0705 186.653L71.2562 183.6C77.2653 179.442 74.2487 170.14 74.2487 170.14L83.9713 173.565C83.5226 174.92 83.1732 176.306 82.9258 177.712C81.9163 183.721 84.6444 184.249 84.6444 184.249L82.7695 186.965L81.76 195.763Z" fill="#E4897B"/>
<path opacity="0.2" d="M83.9594 173.565C83.5107 174.92 83.1613 176.306 82.9139 177.712C78.2629 175.849 74.2368 170.14 74.2368 170.14L83.9594 173.565Z" fill="black"/>
<path d="M84.2958 144.53C93.081 145.287 95.4966 150.226 95.3644 159.324C95.1962 170.705 91.9994 178.553 81.2312 175.164C66.6052 170.609 69.7179 143.328 84.2958 144.53Z" fill="#E4897B"/>
<path d="M89.728 158.351C90.3203 159.722 91.0748 161.017 91.9754 162.208C91.6882 162.551 91.3111 162.807 90.8864 162.947C90.4618 163.087 90.0065 163.106 89.5718 163.002L89.728 158.351Z" fill="#DE5753"/>
<path d="M84.416 157.173C84.416 157.894 83.9473 158.459 83.4666 158.375C82.9858 158.29 82.6253 157.738 82.6734 157.017C82.7214 156.295 83.1421 155.731 83.6228 155.755C84.1035 155.779 84.4641 156.452 84.416 157.173Z" fill="#141F13"/>
<path d="M83.4304 155.827L85.0408 155.31C85.0408 155.31 84.1755 156.548 83.4304 155.827Z" fill="#141F13"/>
<path d="M93.4176 157.581C93.4176 158.303 92.9369 158.867 92.4562 158.783C91.9754 158.699 91.6269 158.146 91.663 157.425C91.699 156.704 92.1437 156.139 92.6244 156.163C93.1051 156.187 93.4537 156.86 93.4176 157.581Z" fill="#141F13"/>
<path d="M92.4199 156.236L94.0303 155.719C94.0303 155.719 93.165 156.993 92.4199 156.236Z" fill="#141F13"/>
<path d="M80.9308 152.534C80.8752 152.535 80.8201 152.524 80.7685 152.504C80.717 152.483 80.67 152.452 80.6303 152.414C80.5885 152.374 80.5551 152.327 80.5324 152.274C80.5096 152.221 80.4978 152.165 80.4978 152.107C80.4978 152.05 80.5096 151.993 80.5324 151.94C80.5551 151.888 80.5885 151.84 80.6303 151.801C81.2133 151.288 81.9082 150.919 82.6595 150.722C83.4108 150.526 84.1975 150.509 84.9568 150.671C85.0688 150.697 85.1665 150.765 85.2292 150.862C85.292 150.958 85.3149 151.075 85.2933 151.188C85.2819 151.244 85.2594 151.297 85.2272 151.345C85.1949 151.392 85.1535 151.433 85.1054 151.464C85.0573 151.496 85.0035 151.517 84.947 151.527C84.8906 151.538 84.8326 151.537 84.7766 151.524C84.1613 151.398 83.5258 151.412 82.9164 151.564C82.3071 151.715 81.7395 152.002 81.2553 152.402C81.2125 152.444 81.1619 152.477 81.1062 152.5C81.0505 152.523 80.9909 152.534 80.9308 152.534Z" fill="#141F13"/>
<path d="M94.7034 152.738C94.6035 152.735 94.5069 152.702 94.427 152.642C94.0215 152.265 93.5368 151.985 93.0085 151.821C92.4803 151.656 91.9219 151.612 91.3744 151.692C91.2645 151.722 91.1473 151.707 91.0483 151.651C90.9494 151.594 90.8765 151.501 90.8456 151.392C90.8157 151.28 90.8303 151.162 90.8864 151.061C90.9425 150.96 91.0356 150.885 91.1461 150.851C91.8253 150.734 92.5221 150.773 93.1841 150.965C93.8461 151.156 94.456 151.495 94.9678 151.957C95.0132 151.992 95.0512 152.036 95.0794 152.086C95.1077 152.136 95.1257 152.191 95.1324 152.248C95.1391 152.305 95.1344 152.363 95.1185 152.418C95.1027 152.473 95.0759 152.525 95.0399 152.57C95.0008 152.622 94.95 152.664 94.8916 152.694C94.8331 152.723 94.7687 152.738 94.7034 152.738Z" fill="#141F13"/>
<path d="M73.4314 158.495C73.4314 158.495 78.1545 151.645 78.0103 146.02C78.0103 146.02 96.0374 140.408 95.3644 158.134C95.3644 158.134 98.4049 142.607 83.3463 140.96C68.2876 139.314 66.4489 161.391 73.7318 168.602C73.6837 168.65 70.499 162.797 73.4314 158.495Z" fill="#141F13"/>
<path d="M74.7054 160.478C74.7134 159.967 74.6199 159.459 74.4305 158.984C74.2411 158.509 73.9595 158.076 73.6019 157.711C73.2443 157.346 72.8178 157.055 72.3472 156.855C71.8765 156.655 71.3709 156.551 70.8596 156.548C68.1195 156.62 66.3408 162.088 72.9868 164.011C73.9483 164.336 74.5732 163.434 74.7054 160.478Z" fill="#E4897B"/>
<path d="M90.0887 166.583C89.5612 167.523 89.0994 168.499 88.7066 169.503L88.1538 169.383C85.63 168.818 84.6565 167.736 84.332 166.691C84.1785 166.18 84.1537 165.639 84.2599 165.116C84.3074 164.821 84.3964 164.534 84.5243 164.263C85.9246 165.298 87.5314 166.02 89.2354 166.378C89.7281 166.523 90.0887 166.583 90.0887 166.583Z" fill="#141F13"/>
<path d="M89.2112 166.378L88.7786 167.232C86.3749 166.703 84.8126 166.03 84.2357 165.116C84.2832 164.821 84.3722 164.534 84.5001 164.263C85.9004 165.298 87.5072 166.02 89.2112 166.378Z" fill="white"/>
<path d="M88.1295 169.383C85.6057 168.818 84.6322 167.736 84.3077 166.691C85.2605 166.933 86.1635 167.339 86.9758 167.893C87.5024 168.261 87.9047 168.781 88.1295 169.383Z" fill="#DE5753"/>
<path d="M84.0795 145.179C84.0795 145.179 79.2723 159.312 70.2227 158.398C61.1731 157.485 76.7485 140.371 76.7485 140.371C76.7485 140.371 92.0836 136.045 98.7296 144.554C105.376 153.062 95.3886 158.206 95.3886 158.206C95.3886 158.206 96.8788 146.993 84.0795 145.179Z" fill="#141F13"/>
<path d="M76.7845 157.245C76.7245 157.244 76.6661 157.225 76.6169 157.191C76.5676 157.157 76.5297 157.108 76.5081 157.052C76.4806 156.976 76.4841 156.892 76.5178 156.817C76.5514 156.743 76.6126 156.685 76.6884 156.656C83.8992 153.928 83.755 144.241 83.755 144.145C83.755 144.065 83.7867 143.989 83.843 143.932C83.8994 143.876 83.9758 143.844 84.0555 143.844C84.0944 143.843 84.1332 143.849 84.1696 143.863C84.206 143.877 84.2392 143.898 84.2672 143.925C84.2953 143.952 84.3176 143.984 84.3329 144.02C84.3481 144.056 84.356 144.094 84.3559 144.133C84.3559 144.229 84.5001 154.336 76.8927 157.221L76.7845 157.245Z" fill="#141F13"/>
<path d="M73.8762 180.043L78.0585 186.653L72.8186 195.763L69.0209 184.069L73.8762 180.043Z" fill="white"/>
<path d="M82.7577 181.305V186.966L88.947 193.804L86.928 183.985L82.7577 181.305Z" fill="white"/>
<path d="M177.424 361.288C176.394 360.814 175.286 360.533 174.155 360.458C174.155 360.458 170.225 358.151 166.331 349.173H161.957C161.217 349.18 160.497 349.415 159.895 349.845C159.293 350.275 158.838 350.879 158.592 351.577C158.522 351.77 158.481 351.973 158.471 352.178C158.517 353.237 158.63 354.293 158.808 355.339C159.453 358.816 160.308 362.252 161.368 365.626L162.101 365.446L160.755 358.908C160.31 356.697 162.642 358.836 163.723 361.071C164.805 363.307 166.463 365.566 171.295 364.46C176.931 363.114 179.191 362.309 177.424 361.288Z" fill="#141F13"/>
<path d="M165.538 346.818C165.538 346.818 171.006 358.247 174.155 360.458C174.155 360.458 169.937 362.97 165.538 357.37C159.854 350.159 158.471 352.154 158.471 352.154C158.586 350.906 158.815 349.671 159.156 348.464C160.01 346.133 165.538 346.818 165.538 346.818Z" fill="#E4897B"/>
<path d="M117.237 388.496C116.348 387.792 115.338 387.254 114.257 386.91C114.257 386.91 110.988 383.737 109.329 374.087L105.087 373.029C104.367 372.862 103.614 372.92 102.928 373.195C102.242 373.47 101.658 373.949 101.253 374.568C101.134 374.74 101.045 374.931 100.989 375.132C100.782 376.168 100.642 377.216 100.568 378.269C100.351 381.803 100.351 385.347 100.568 388.881H101.325L101.566 382.223C101.662 379.964 103.417 382.596 103.969 385.023C104.522 387.451 105.568 390.035 110.519 390.107C116.324 390.191 118.716 389.939 117.237 388.496Z" fill="#141F13"/>
<path d="M109.125 371.671C109.125 371.671 111.721 384.086 114.257 386.97C114.257 386.97 109.558 388.413 106.613 381.935C102.816 373.522 100.989 375.193 100.989 375.193C101.394 374.005 101.909 372.859 102.527 371.767C103.909 369.676 109.125 371.671 109.125 371.671Z" fill="#E4897B"/>
<path d="M67.9153 183.528C67.9153 183.528 78.5753 215.196 63.5527 251.154L48.9628 249.255L57.9883 228.824L56.0174 187.675L67.9153 183.528Z" fill="#141F13"/>
<path d="M88.1296 184.658C88.1296 184.658 93.009 192.518 92.4201 216.398L95.3645 250.205L98.2008 248.198L95.8813 231.709C95.8813 231.709 102.047 202.685 99.2704 189.646L88.1296 184.658Z" fill="#141F13"/>
<path d="M84.6323 181.305C84.6323 181.305 92.9128 185.656 97.1431 191.605L94.0545 194.453L98.2007 200.462L92.42 216.338C92.42 216.338 89.2833 186.593 84.6323 181.305Z" fill="#141F13"/>
<path opacity="0.2" d="M84.6323 181.305C84.6323 181.305 92.9128 185.656 97.1431 191.605L94.0545 194.453L98.2007 200.462L92.42 216.338C92.42 216.338 89.2833 186.593 84.6323 181.305Z" fill="white"/>
<path d="M70.3549 181.438C70.3549 181.438 74.1526 203.07 71.2442 218.105L62.1586 197.518L67.3624 192.518L60.428 187.567C63.2035 184.765 66.6063 182.664 70.3549 181.438Z" fill="#141F13"/>
<path opacity="0.2" d="M70.3549 181.438C70.3549 181.438 74.1526 203.07 71.2442 218.105L62.1586 197.518L67.3624 192.518L60.428 187.567C63.2035 184.765 66.6063 182.664 70.3549 181.438Z" fill="white"/>
<path d="M81.1111 219.558L93.4056 220.424C94.4009 219.767 95.4857 219.257 96.6264 218.909C98.1287 218.549 106.866 217.599 108.452 218.212C110.039 218.825 111.457 224.005 111.313 225.075C111.168 226.144 97.9604 226.505 97.5398 226.541C97.1192 226.577 95.6169 225.183 95.6169 225.183L81.1111 225.051V219.558Z" fill="#E4897B"/>
<path d="M56.0174 187.626C48.0134 192.434 43.6508 218.333 48.9628 222.383C54.2748 226.433 90.7737 226.541 90.7737 226.541L91.9755 218.825C91.9755 218.825 60.6203 215.689 59.0219 212.648C57.4235 209.608 57.9884 197.589 57.9884 197.589L56.0174 187.626Z" fill="#141F13"/>
<path d="M197.578 390.143H203.912L215.293 231.708H206.892L197.578 390.143Z" fill="#141F13"/>
<path opacity="0.7" d="M197.578 390.143H203.912L214.74 239.581L215.293 231.973H206.892L206.435 239.581L197.578 390.143Z" fill="white"/>
<path opacity="0.2" d="M206.436 239.208H214.74L215.293 231.973H206.892L206.436 239.208Z" fill="black"/>
<path d="M151.104 390.143H157.438L158.471 231.708H150.071L151.104 390.143Z" fill="#141F13"/>
<path opacity="0.7" d="M150.059 231.973L150.227 257.524L151.092 390.143H157.438L158.303 257.524L158.471 231.973H150.059Z" fill="white"/>
<path opacity="0.2" d="M150.059 231.973L150.227 257.812H158.303L158.471 231.973H150.059Z" fill="black"/>
<path d="M83.8632 390.143H90.1967L101.578 231.708H93.1772L83.8632 390.143Z" fill="#141F13"/>
<path opacity="0.7" d="M83.8632 390.143H90.1967L101.025 239.581L101.578 231.973H93.1772L92.7205 239.581L83.8632 390.143Z" fill="white"/>
<path opacity="0.2" d="M92.7205 239.208H101.025L101.578 231.973H93.1772L92.7205 239.208Z" fill="black"/>
<path d="M270.035 390.143H276.369L267.055 231.708H258.654L270.035 390.143Z" fill="#141F13"/>
<path opacity="0.7" d="M258.654 231.973L259.207 239.581L270.035 390.143H276.357L267.511 239.581L267.055 231.973H258.654Z" fill="white"/>
<path opacity="0.2" d="M267.055 231.973H258.654L259.207 239.208H267.511L267.055 231.973Z" fill="black"/>
<path d="M271.117 235.687L89.1149 235.687C88.4264 235.687 87.7661 235.413 87.2793 234.926C86.7925 234.44 86.519 233.779 86.519 233.091V227.755L273.749 227.755V233.091C273.749 233.435 273.68 233.775 273.548 234.093C273.415 234.41 273.22 234.698 272.976 234.939C272.731 235.181 272.44 235.371 272.121 235.5C271.802 235.628 271.46 235.692 271.117 235.687Z" fill="white"/>
<path opacity="0.6" d="M271.117 235.687L89.1149 235.687C88.4264 235.687 87.7661 235.413 87.2793 234.926C86.7925 234.44 86.519 233.779 86.519 233.091V227.755L273.749 227.755V233.091C273.749 233.435 273.68 233.775 273.548 234.093C273.415 234.41 273.22 234.698 272.976 234.939C272.731 235.181 272.44 235.371 272.121 235.5C271.802 235.628 271.46 235.692 271.117 235.687Z" fill="white"/>
<path opacity="0.2" d="M86.5188 231.721L273.724 231.721V227.755L86.5188 227.755V231.721Z" fill="black"/>
<path d="M82.5892 228.776H277.643C278.235 228.776 278.804 228.541 279.223 228.122C279.642 227.702 279.878 227.134 279.878 226.541C279.875 225.949 279.638 225.382 279.22 224.964C278.801 224.545 278.234 224.309 277.643 224.306H82.5892C81.9964 224.306 81.4278 224.541 81.0086 224.96C80.5894 225.38 80.3539 225.948 80.3539 226.541C80.3539 227.134 80.5894 227.702 81.0086 228.122C81.4278 228.541 81.9964 228.776 82.5892 228.776Z" fill="white"/>
<path opacity="0.6" d="M82.5892 228.776H277.643C278.235 228.776 278.804 228.541 279.223 228.122C279.642 227.702 279.878 227.134 279.878 226.541C279.875 225.949 279.638 225.382 279.22 224.964C278.801 224.545 278.234 224.309 277.643 224.306H82.5892C81.9964 224.306 81.4278 224.541 81.0086 224.96C80.5894 225.38 80.3539 225.948 80.3539 226.541C80.3539 227.134 80.5894 227.702 81.0086 228.122C81.4278 228.541 81.9964 228.776 82.5892 228.776Z" fill="white"/>
<path d="M197.65 224.306L196.629 220.46H154.71L135.409 222.383L134.663 224.306H197.65Z" fill="#141F13"/>
<path opacity="0.4" d="M154.709 220.46V224.306H197.65L196.629 220.46H154.709Z" fill="black"/>
<path d="M163.134 202C163.078 202.467 163.122 202.942 163.264 203.391C163.406 203.84 163.643 204.253 163.958 204.603C164.274 204.953 164.661 205.231 165.093 205.418C165.525 205.605 165.992 205.698 166.463 205.689H230.7C231.705 205.669 232.668 205.283 233.409 204.604C234.15 203.925 234.618 202.999 234.726 202L238.536 160.886C238.589 160.419 238.542 159.946 238.398 159.499C238.254 159.052 238.017 158.64 237.703 158.291C237.388 157.942 237.003 157.664 236.572 157.476C236.142 157.287 235.677 157.192 235.207 157.196H170.97C169.964 157.212 168.998 157.596 168.256 158.276C167.514 158.956 167.047 159.885 166.944 160.886L163.134 202Z" fill="#141F13"/>
<path opacity="0.4" d="M166.68 205.69H230.7C231.705 205.669 232.668 205.283 233.409 204.604C234.15 203.925 234.618 203 234.726 202L238.536 160.886C238.582 160.484 238.553 160.077 238.452 159.685H174.443C173.439 159.705 172.475 160.091 171.734 160.77C170.993 161.449 170.525 162.375 170.417 163.374L166.608 204.488C166.564 204.89 166.588 205.296 166.68 205.69Z" fill="black"/>
<path d="M210.81 180.476H197.518L201.063 218.513L180.056 221.662V224.306H224.294V221.662L215.233 218.513L210.81 180.476Z" fill="#141F13"/>
<path opacity="0.1" d="M197.518 180.476L207.361 223.705L215.233 223.476L210.81 180.476H197.518Z" fill="white"/>
<path d="M204.609 154.396H202.049V158.855H204.609V154.396Z" fill="#141F13"/>
<path d="M202.049 154.228H198.96C198.646 153.599 198.493 152.901 198.515 152.197C198.481 151.497 198.635 150.8 198.96 150.178H202.049V154.228Z" fill="#141F13"/>
<path d="M207.325 152.029C207.325 152.766 207.106 153.486 206.697 154.099C206.287 154.711 205.706 155.189 205.025 155.471C204.344 155.753 203.595 155.827 202.872 155.683C202.15 155.539 201.486 155.184 200.965 154.663C200.444 154.142 200.089 153.478 199.945 152.756C199.801 152.033 199.875 151.284 200.157 150.603C200.439 149.922 200.917 149.34 201.529 148.931C202.142 148.522 202.862 148.303 203.599 148.303C204.089 148.302 204.574 148.397 205.027 148.584C205.479 148.77 205.891 149.045 206.237 149.391C206.583 149.737 206.858 150.149 207.044 150.601C207.231 151.054 207.326 151.539 207.325 152.029Z" fill="#141F13"/>
<path opacity="0.1" d="M207.325 152.029C207.325 152.766 207.106 153.486 206.697 154.099C206.287 154.711 205.706 155.189 205.025 155.471C204.344 155.753 203.595 155.827 202.872 155.683C202.15 155.539 201.486 155.184 200.965 154.663C200.444 154.142 200.089 153.478 199.945 152.756C199.801 152.033 199.875 151.284 200.157 150.603C200.439 149.922 200.917 149.34 201.529 148.931C202.142 148.522 202.862 148.303 203.599 148.303C204.089 148.302 204.574 148.397 205.027 148.584C205.479 148.77 205.891 149.045 206.237 149.391C206.583 149.737 206.858 150.149 207.044 150.601C207.231 151.054 207.326 151.539 207.325 152.029Z" fill="white"/>
<path d="M249.003 195.594V224.305H234.69C234.788 214.331 236.19 204.412 238.86 194.801C239.033 194.188 239.401 193.649 239.909 193.265C240.417 192.881 241.036 192.673 241.672 192.674H246.083C246.467 192.674 246.846 192.749 247.201 192.896C247.555 193.043 247.877 193.258 248.148 193.529C248.419 193.8 248.634 194.122 248.781 194.477C248.928 194.831 249.003 195.211 249.003 195.594Z" fill="#141F13"/>
<path opacity="0.4" d="M249.004 195.594V224.305H241.793V196.664C241.793 195.609 242.212 194.597 242.958 193.851C243.704 193.105 244.716 192.686 245.771 192.686H246.035C246.422 192.68 246.806 192.75 247.165 192.893C247.524 193.036 247.851 193.249 248.127 193.52C248.403 193.79 248.623 194.113 248.773 194.469C248.924 194.825 249.002 195.208 249.004 195.594Z" fill="black"/>
<path d="M157.666 195.594V224.305H143.353C143.451 214.331 144.853 204.412 147.523 194.801C147.696 194.188 148.064 193.649 148.572 193.265C149.079 192.881 149.699 192.673 150.335 192.674H154.746C155.129 192.674 155.509 192.749 155.863 192.896C156.218 193.043 156.54 193.258 156.811 193.529C157.082 193.8 157.297 194.122 157.444 194.477C157.591 194.831 157.666 195.211 157.666 195.594Z" fill="#141F13"/>
<path opacity="0.4" d="M157.666 195.594V224.305H150.455V196.664C150.455 195.609 150.874 194.597 151.62 193.851C152.366 193.105 153.378 192.686 154.433 192.686H154.698C155.084 192.68 155.468 192.75 155.827 192.893C156.186 193.036 156.513 193.249 156.79 193.52C157.066 193.79 157.285 194.113 157.436 194.469C157.586 194.825 157.665 195.208 157.666 195.594Z" fill="black"/>
</g>
</svg>
