<svg width="148" height="30" viewBox="0 0 148 30" fill="none" xmlns="http://www.w3.org/2000/svg">
<path fill-rule="evenodd" clip-rule="evenodd" d="M8.27353 11.5059L0 6.24565L8.33215 0.948242L16.6576 6.24165L24.9836 0.948242L33.3154 6.24565L25.0419 11.5059L33.3155 16.7663L24.9835 22.0638L16.6577 16.7703L8.33203 22.0638L0 16.7663L8.27353 11.5059ZM16.6576 6.24964L24.925 11.5059L16.6577 16.7622L8.3904 11.5059L16.6576 6.24964ZM104.699 21.5881C105.505 23.5076 107.116 24.7007 109.585 24.7007C113.406 24.7007 115.901 21.8994 115.901 16.9191V16.4781C115.901 11.4979 113.25 9.03371 109.689 9.00777C107.324 9.00777 105.661 10.0713 104.829 12.0167V4.13789H101.008V24.3117H104.387L104.699 21.5881ZM111.976 16.9191C111.976 19.8761 110.599 21.3286 108.338 21.3286C106.18 21.3286 104.751 19.7204 104.751 16.9191V16.6078C104.751 14.0399 106.232 12.302 108.39 12.302C110.469 12.302 111.976 13.8064 111.976 16.5559V16.9191ZM125.284 24.701C120.45 24.701 117.695 22.0812 117.695 17.1528V16.7378C117.695 11.7056 120.918 9.00801 125.284 9.00801C129.755 9.00801 132.848 11.7575 132.848 16.7378V17.1528C132.848 22.0812 129.807 24.701 125.284 24.701ZM125.259 21.3032C127.437 21.3032 128.805 19.8247 128.805 17.1011V16.738C128.805 13.9366 127.437 12.3024 125.284 12.3024C123.157 12.3024 121.738 13.8328 121.738 16.738V17.1011C121.738 19.7987 123.081 21.3032 125.259 21.3032ZM137.89 16.5562L132.198 24.3119H136.772L140.125 19.3576L143.582 24.3119H148L142.386 16.5303L147.714 9.34521H143.244L140.177 13.8326L137.136 9.34521H132.639L137.89 16.5562ZM84.3325 29.4474V9.34482H87.5176L87.9074 12.1981C88.7132 10.2786 90.0372 8.99336 92.5063 8.99336C96.327 8.99336 98.9059 11.7429 98.9059 16.775V17.19C98.9059 22.1184 96.0411 24.6863 92.5063 24.6863C90.1152 24.6863 88.8691 23.6371 88.0634 21.8992V29.4474H84.3325ZM91.2641 21.3428C93.4993 21.3428 95.0126 19.8643 95.0126 17.1148V16.7776C95.0126 13.7946 93.3953 12.3161 91.342 12.3161C89.1588 12.3161 87.9248 13.9878 87.9248 16.7633V17.0486C87.9248 19.6943 89.1068 21.3428 91.2641 21.3428ZM67.3108 17.1167C67.3108 22.045 69.9149 24.6648 74.7485 24.6648C79.4355 24.6648 82.1608 22.045 82.1608 17.1167V16.7016C82.1608 11.7214 79.31 8.97188 74.7485 8.97188C70.1871 8.97188 67.3108 11.6695 67.3108 16.7016V17.1167ZM78.1987 17.065C78.1987 19.7886 77.0131 21.2671 74.7234 21.2671C72.4337 21.2671 71.2729 19.7626 71.2729 17.065V16.7018C71.2729 13.7967 72.521 12.2663 74.7483 12.2663C76.9755 12.2663 78.1987 13.9005 78.1987 16.7018V17.065ZM61.0152 24.3117H57.1348V9.34503H60.3542L60.8481 12.8208C61.4459 10.4345 62.9793 9.21533 65.7604 9.21533H66.4777V13.184H65.1106C61.8877 13.184 61.0152 14.2993 61.0152 17.4639V24.3117ZM39.8472 5.96309V24.3118H46.8516C51.478 24.3118 54.9608 21.6141 54.9608 15.6482V14.3772C54.9608 8.43723 51.2701 5.96309 46.7476 5.96309H39.8472ZM43.7979 9.16328H46.5397C49.1648 9.16328 50.9582 10.8493 50.9582 14.5585V15.5183C50.9582 19.2275 49.2168 20.9136 46.6697 20.9136H43.7979V9.16328ZM16.7175 29.1169L8.3855 23.8194L16.7175 18.5225L25.0497 23.8194L16.7175 29.1169Z" fill="#545961"/>
</svg>
