<svg width="110" height="43" viewBox="0 0 110 43" fill="none" xmlns="http://www.w3.org/2000/svg">
<path fill-rule="evenodd" clip-rule="evenodd" d="M108.659 20.5452L108.659 20.5454C108.356 21.6827 107.214 25.9694 103.681 25.9694C102.104 25.9694 101.003 24.8083 100.343 23.3932C105.258 22.3047 106.908 18.4586 106.908 15.8461C106.908 12.7983 104.708 11.6735 102.837 11.6735C99.7931 11.6735 95.7955 14.5036 95.7955 19.9825C95.7955 20.4905 95.8322 20.9622 95.8689 21.3976C94.8053 21.071 93.8884 20.5268 93.265 19.5834C94.1818 15.5196 94.0351 11.6372 92.128 11.6372C91.0644 11.6372 90.1476 13.016 90.1476 16.0638C90.1476 17.2612 90.4776 18.6037 91.1011 19.8011C90.6977 21.6516 89.3774 26.1508 87.6536 26.1508C85.6184 26.1508 85.8994 17.8303 86.01 14.5542C86.027 14.052 86.0399 13.6684 86.0399 13.4514C86.0399 12.1089 82.7759 10.7301 82.079 11.4195C81.7856 11.7098 81.7123 13.524 81.7123 15.8461C81.7123 17.7692 81.859 20.0188 82.2991 22.1233C82.079 23.2481 81.0888 26.1871 79.2917 26.1871C76.9949 26.1871 77.537 19.0666 77.799 15.6268C77.8549 14.8923 77.8981 14.3256 77.8981 14.0319C77.8981 12.8346 74.7807 11.7098 74.0105 12.4354C73.7171 12.7257 73.497 14.8665 73.497 18.1683C73.497 19.5471 73.5704 20.9985 73.7904 22.3772C73.497 23.8286 72.3234 26.1871 70.453 26.1871C67.4583 26.1871 68.7549 14.8176 69.5626 7.73544L69.5728 7.64595C70.0495 7.5734 70.5628 7.50084 71.0762 7.42829L71.0765 7.42825C71.1819 7.41666 71.2892 7.40438 71.3973 7.39199C72.6442 7.24926 74.0105 7.09285 74.0105 7.82737C74.0105 9.67785 75.2574 10.2584 76.1743 10.2584C77.2012 10.2584 78.0814 9.46015 78.0814 7.93622C78.0814 6.44858 76.7611 5.0335 74.4506 5.0335C72.9102 5.0335 71.3332 5.21492 69.7928 5.46891C69.8223 5.14808 69.8518 4.84808 69.8792 4.56963C69.9539 3.80887 70.0129 3.20888 70.0129 2.7839C70.0129 1.22369 66.7488 -0.30024 66.0887 0.352871C65.9786 0.461723 65.5385 2.92903 65.1351 6.37601C62.8612 6.81142 60.6241 7.21054 58.3869 7.21054C57.6167 7.21054 57.7267 9.53272 60.3307 9.53272C61.8343 9.53272 63.338 9.20616 64.8784 8.80704C64.6583 11.2018 64.5116 13.8505 64.5116 16.3904C64.5116 18.6763 64.6583 20.6719 64.9517 22.3772C64.6583 23.6472 63.7414 26.2233 62.0177 26.2233C59.2716 26.2233 59.9017 18.4128 60.191 14.8267C60.2494 14.1024 60.294 13.5504 60.294 13.27C60.294 12.4717 57.2866 10.7301 56.6631 11.3469C56.5898 11.4195 56.5164 11.9275 56.5164 11.9275C56.5164 11.9275 56.113 11.6372 55.0128 11.6372C50.7951 11.6372 47.421 16.7895 47.421 21.4701C47.421 21.6878 47.421 21.9056 47.4577 22.1233C46.7975 23.6472 45.1471 26.2596 42.1764 26.2596C40.6728 26.2596 39.6092 25.28 38.8757 24.01C43.4967 22.7038 45.2938 18.7126 45.2938 16.1364C45.2938 13.1248 42.7266 11.6372 40.8561 11.6372C37.592 11.6372 34.0346 14.8665 34.0346 20.3091C34.0346 21.9056 34.328 23.2481 34.8414 24.4091C34.2546 25.3162 33.3744 26.2233 32.1641 26.2233C29.3988 26.2233 30.4272 18.6923 30.8883 15.3156L30.8883 15.3156C30.9899 14.5723 31.0639 14.0303 31.0639 13.8142C31.0639 13.524 31.0639 12.9434 30.5137 12.5806C30.0204 12.2209 27.8356 11.8613 26.1202 11.5789C25.4128 11.4624 24.7852 11.3591 24.389 11.2743V10.4761C24.389 8.29906 23.032 7.82737 22.1151 7.82737C20.6114 7.82737 20.318 9.49643 20.318 9.89556C20.318 10.2947 20.4281 11.7098 21.9317 12.5443C21.9317 16.5718 19.3278 26.1145 12.3595 26.1145C7.07831 26.1145 5.1712 20.7445 5.1712 16.7532C5.1712 10.0044 9.16879 4.8158 11.7361 4.8158C13.3452 4.8158 13.4409 6.35819 13.5369 7.90493C13.6334 9.46044 13.7302 11.0204 15.3669 11.0204C17.6408 11.0204 17.9708 8.84332 17.9708 7.82737C17.9708 5.9406 15.9904 2.42106 11.7361 2.42106C4.98782 2.42106 0 10.5487 0 17.5152C0 24.2277 4.65775 29.5978 11.1859 29.5978C21.2716 29.5978 23.7655 19.0028 24.279 13.0885C24.5133 13.1529 24.8631 13.231 25.2235 13.3115C25.8784 13.4577 26.5682 13.6118 26.6628 13.7054C26.7798 13.8211 26.6837 14.6293 26.5443 15.801L26.5443 15.801L26.5443 15.8012L26.5443 15.8012C26.3777 17.2018 26.1494 19.1216 26.1494 20.9985C26.1494 25.3162 27.5797 28.7995 31.0272 28.7995C33.191 28.7995 34.9148 27.2393 35.8316 26.0419C37.2253 27.8198 39.2424 28.7269 41.2229 28.7269C44.6337 28.7269 46.8709 26.6225 47.9711 24.9534C48.9247 27.4933 50.8685 28.7269 52.6289 28.7269C55.0861 28.7269 56.5531 25.4614 56.6265 24.9534C57.36 27.2393 59.0837 28.7995 61.0275 28.7995C63.4847 28.7995 64.9884 26.5862 65.5752 25.2074C66.4554 27.5296 67.8491 28.7995 69.8662 28.7995C72.1767 28.7995 73.6804 26.7313 74.3772 25.3525C75.1107 27.3844 76.321 28.7995 78.2281 28.7995C80.7954 28.7995 82.4091 26.1871 82.9226 24.8808C83.7661 27.1304 85.0864 28.7269 87.1402 28.7269C89.4141 28.7269 91.3945 25.4977 92.5681 21.8693C93.5217 22.7764 94.7686 23.4295 96.2723 23.6109C97.4092 26.8765 100.087 28.6907 102.911 28.6907C107.825 28.6907 109.732 23.6835 109.952 22.5224C110.246 21.325 109.109 19.9099 108.742 20.2728C108.728 20.2863 108.702 20.3842 108.659 20.5452ZM40.7094 13.1973C42.7632 13.1973 41.5529 20.962 38.1788 22.232C37.9221 21.3974 37.8121 20.5992 37.8121 19.9824C37.7754 17.3699 38.839 13.1973 40.7094 13.1973ZM53.2156 25.5342C49.6215 25.5342 52.152 13.2339 55.0127 13.2339C56.9198 13.2339 56.6264 25.5342 53.2156 25.5342ZM102.36 13.27C104.341 13.27 103.204 21.2888 99.7565 21.7968C99.5731 21.1436 99.4998 20.4905 99.4998 19.9826C99.4998 17.3701 100.49 13.27 102.36 13.27ZM42.5886 34.4976C42.6973 34.4976 42.7697 34.5734 42.8059 34.6493L45.8106 41.8562C45.883 42.0079 45.7744 42.1976 45.5934 42.1976H44.3988C44.2901 42.1976 44.2177 42.1217 44.1815 42.0458L43.7109 40.832C43.6747 40.7562 43.6023 40.6803 43.4937 40.6803H40.4165C40.3079 40.6803 40.2355 40.7562 40.1993 40.832L39.7649 42.0458C39.7287 42.1217 39.6563 42.1976 39.5477 42.1976H38.3168C38.1358 42.1976 38.0272 42.0079 38.0996 41.8562L41.1406 34.6493C41.1768 34.5734 41.2492 34.4976 41.3578 34.4976H42.5886ZM41.2129 39.2012H42.7696C42.9144 39.2012 43.0592 39.0115 43.023 38.8598L42.2266 36.7736C42.1542 36.5839 41.8646 36.5839 41.7921 36.7736L40.9957 38.8598C40.9233 39.0115 41.0319 39.2012 41.2129 39.2012ZM34.2157 34.4978H33.0224C32.9478 34.4978 32.8733 34.5356 32.836 34.6111L30.7104 38.1969C30.5985 38.3101 30.524 38.3101 30.4494 38.1969L28.3984 34.6111C28.3611 34.5356 28.2865 34.4978 28.212 34.4978H27.056C26.9068 34.4978 26.7949 34.6111 26.7949 34.7621V41.9336C26.7949 42.0846 26.9068 42.1978 27.056 42.1978H28.212C28.3611 42.1978 28.473 42.0846 28.473 41.9336V38.2346C28.473 38.0081 28.6967 37.8949 28.8459 38.0836L30.4494 40.7258C30.5613 40.8768 30.7477 40.8768 30.8223 40.7258L32.4631 38.0836C32.6122 37.8949 32.836 38.0081 32.836 38.2346V41.9336C32.836 42.0846 32.9478 42.1978 33.097 42.1978H34.2903C34.4395 42.1978 34.5513 42.0846 34.5513 41.9336V34.7621C34.4767 34.6111 34.3649 34.4978 34.2157 34.4978ZM64.3805 37.7062C64.3093 37.7817 64.3093 37.9327 64.3805 38.0081L66.9446 41.8204C67.0515 41.9714 66.9446 42.1978 66.7666 42.1978H65.4133C65.342 42.1978 65.2708 42.1601 65.2352 42.0846L63.4546 39.367C63.3833 39.2537 63.2053 39.2537 63.0984 39.367L62.1725 40.5371C62.1725 40.5559 62.1636 40.5842 62.1547 40.6126C62.1458 40.6409 62.1369 40.6692 62.1369 40.688V41.9336C62.1369 42.0469 62.0656 42.1601 61.9232 42.1601H60.8548C60.748 42.1601 60.6411 42.0846 60.6411 41.9336V34.7243C60.6411 34.6111 60.7123 34.4978 60.8548 34.4978H61.9232C62.03 34.4978 62.1369 34.5733 62.1369 34.7243V37.6684C62.1369 37.8949 62.3862 38.0081 62.5286 37.8194L64.9859 34.5733C65.0215 34.5356 65.0928 34.4978 65.164 34.4978H66.3748C66.5529 34.4978 66.6597 34.7243 66.5529 34.8753L64.3805 37.7062ZM76.5972 40.6427H73.0843C72.9379 40.6427 72.8281 40.5289 72.8281 40.3772V39.2392C72.8281 39.0875 72.9379 38.9737 73.0843 38.9737H75.4262C75.5726 38.9737 75.6824 38.8599 75.6824 38.7082V37.8737C75.6824 37.722 75.5726 37.6082 75.4262 37.6082H73.0843C72.9379 37.6082 72.8281 37.4944 72.8281 37.3427V36.2427C72.8281 36.091 72.9379 35.9772 73.0843 35.9772H76.341C76.4874 35.9772 76.5972 35.8634 76.5972 35.7116V34.7634C76.5972 34.6116 76.4874 34.4978 76.341 34.4978H71.4742C71.3278 34.4978 71.218 34.6116 71.218 34.7634V41.9323C71.218 42.0841 71.3278 42.1978 71.4742 42.1978H76.5972C76.7436 42.1978 76.8534 42.0841 76.8534 41.9323V40.9841C76.8899 40.7565 76.7436 40.6427 76.5972 40.6427ZM80.6039 34.4978H86.5609C86.6706 34.4978 86.7802 34.6023 86.7071 34.7068V35.6123C86.7071 35.7168 86.634 35.8212 86.4879 35.8212H84.5509C84.4413 35.8212 84.3316 35.8909 84.3316 36.0302V41.2889C84.3316 41.3934 84.2585 41.4978 84.1124 41.4978H82.9794C82.8698 41.4978 82.7601 41.4282 82.7601 41.2889V36.0302C82.7601 35.9257 82.687 35.8212 82.5409 35.8212H80.6039C80.4943 35.8212 80.3846 35.7516 80.3846 35.6123V34.7068C80.3846 34.6023 80.4577 34.4978 80.6039 34.4978ZM52.5017 34.4976C54.5213 34.4976 55.7052 35.7054 55.7052 37.3662C55.7052 38.3853 55.2874 39.0647 54.7302 39.5554C54.6606 39.6309 54.6258 39.7441 54.6606 39.8574L55.6008 41.8579C55.6704 42.0088 55.5659 42.1976 55.3918 42.1976H54.1731C54.0686 42.1976 53.999 42.1221 53.9642 42.0466L53.1633 40.3103C53.1067 40.1876 53.0501 40.1895 52.9002 40.1946C52.8656 40.1957 52.826 40.1971 52.7803 40.1971H52.641H51.8053C51.5963 40.1971 51.5615 40.2348 51.5615 40.4235V41.9333C51.5615 42.0466 51.4919 42.1598 51.3526 42.1598H50.2731C50.1687 42.1598 50.0642 42.0843 50.0642 41.9333V34.7618C50.0642 34.6485 50.1339 34.5353 50.2731 34.5353C51.0392 34.4976 51.7704 34.4976 52.5017 34.4976ZM52.3276 38.7335L52.3278 38.7335C52.4206 38.7293 52.5134 38.7251 52.6062 38.7251C53.6856 38.6496 54.1731 38.0835 54.1731 37.3663C54.1731 36.4982 53.4767 36.0452 52.5713 36.0075C52.2579 35.9697 52.0142 35.9697 51.7705 35.9697C51.666 35.9697 51.5615 36.0452 51.5615 36.1962V38.4986C51.5615 38.6119 51.6312 38.7251 51.7705 38.7251C51.9562 38.7503 52.1419 38.7419 52.3276 38.7335Z" fill="#545961"/>
</svg>
