<svg width="116" height="37" viewBox="0 0 116 37" fill="none" xmlns="http://www.w3.org/2000/svg">
<path fill-rule="evenodd" clip-rule="evenodd" d="M61.162 9.22699C61.162 10.5003 60.1153 11.6 58.7778 11.6C57.4403 11.6 56.3936 10.5582 56.3936 9.22699C56.3936 7.8958 57.3821 6.854 58.7778 6.854C60.1734 6.96976 61.162 8.01156 61.162 9.22699ZM51.4508 13.9731C51.4508 14.2047 51.4508 14.5519 51.4508 14.5519C51.4508 14.5519 50.3459 13.105 47.9617 13.105C44.0073 13.105 40.9253 16.1146 40.9253 20.224C40.9253 24.3333 43.9492 27.3429 47.9617 27.3429C50.404 27.3429 51.4508 25.8381 51.4508 25.8381V26.4748C51.4508 26.7641 51.6834 26.9957 51.9741 26.9957H54.8817V13.4522C54.8817 13.4522 52.2067 13.4522 51.9741 13.4522C51.6834 13.4522 51.4508 13.7416 51.4508 13.9731ZM51.4506 22.6551C50.9273 23.4654 49.8224 24.1599 48.543 24.1599C46.217 24.1599 44.4724 22.713 44.4724 20.2821C44.4724 17.8512 46.2751 16.4043 48.543 16.4043C49.8224 16.4043 50.9854 17.0988 51.4506 17.9091V22.6551ZM57.0914 13.4521H60.5805V26.9956H57.0914V13.4521ZM109.021 13.1048C106.637 13.1048 105.532 14.5517 105.532 14.5517V6.96973H102.043V27.0533C102.043 27.0533 104.718 27.0533 104.95 27.0533C105.241 27.0533 105.474 26.8218 105.474 26.5324V25.8958C105.474 25.8958 106.579 27.4006 108.963 27.4006C112.917 27.4006 115.999 24.3909 115.999 20.2816C116.057 16.1144 112.975 13.1048 109.021 13.1048ZM108.439 24.1019C107.102 24.1019 106.055 23.4073 105.532 22.597V17.7353C106.055 17.0408 107.218 16.2305 108.439 16.2305C110.765 16.2305 112.51 17.6774 112.51 20.1083C112.51 22.5392 110.765 24.1019 108.439 24.1019ZM100.24 19.0085V27.1114H96.751V19.4137C96.751 17.1564 96.0531 16.2883 94.076 16.2883C93.0292 16.2883 91.9244 16.8092 91.2265 17.6194V27.0535H87.7374V13.4522H90.4706C90.7613 13.4522 90.9939 13.6838 90.9939 13.9731V14.5519C91.9825 13.5101 93.3782 13.105 94.7156 13.105C96.2276 13.105 97.5069 13.5101 98.4955 14.3783C99.7749 15.4201 100.24 16.6934 100.24 19.0085ZM79.3054 13.1048C76.9211 13.1048 75.8163 14.5517 75.8163 14.5517V6.96973H72.3271V27.0533C72.3271 27.0533 75.0021 27.0533 75.2347 27.0533C75.5255 27.0533 75.7581 26.8218 75.7581 26.5324V25.8958C75.7581 25.8958 76.863 27.4006 79.2472 27.4006C83.2015 27.4006 86.2836 24.3909 86.2836 20.2816C86.3417 16.1144 83.2597 13.1048 79.3054 13.1048ZM78.7238 24.1019C77.3863 24.1019 76.3395 23.4073 75.8162 22.597V17.7353C76.3395 17.0408 77.5026 16.2305 78.7238 16.2305C81.0498 16.2305 82.7944 17.6774 82.7944 20.1083C82.7944 22.5392 81.0498 24.1019 78.7238 24.1019ZM69.3034 13.105C70.3501 13.105 70.8735 13.2786 70.8735 13.2786V16.4619C70.8735 16.4619 67.9659 15.478 66.1632 17.5616V27.0535H62.6741V13.4522C62.6741 13.4522 65.3491 13.4522 65.5817 13.4522C65.8724 13.4522 66.105 13.6838 66.105 13.9731V14.5519C66.8028 13.7995 68.2566 13.105 69.3034 13.105ZM33.191 25.8381C33.0165 25.433 32.8421 24.9121 32.6676 24.5648C32.3769 23.9281 32.0861 23.2915 31.8535 22.7127L31.7953 22.6548C29.2948 17.2722 26.6198 11.7738 23.7704 6.33329L23.6541 6.10178C23.3633 5.58088 23.0726 5.0021 22.7818 4.42332C22.4329 3.78667 22.084 3.09213 21.5025 2.45548C20.3394 1.00853 18.653 0.198242 16.9085 0.198242C15.1058 0.198242 13.4775 1.00853 12.2563 2.33972C11.6748 3.03426 11.2677 3.67091 10.9188 4.36544C10.6281 4.94422 10.3373 5.523 10.0465 6.0439L9.93024 6.27541C7.13895 11.658 4.40582 17.1564 1.90529 22.597L1.84714 22.6548C1.61453 23.2336 1.32377 23.8703 1.03301 24.5069C0.858556 24.9121 0.684101 25.3172 0.509645 25.7802C0.0444307 27.1114 -0.130025 28.3847 0.102583 29.658C0.509645 32.3783 2.31235 34.6355 4.81288 35.6195C5.74331 36.0246 6.73189 36.1982 7.72047 36.1982C8.01123 36.1982 8.36014 36.1404 8.6509 36.1404C9.87209 36.0246 11.0933 35.6195 12.2563 34.9249C13.7683 34.1146 15.1639 32.8992 16.734 31.1629C18.3041 32.8992 19.7579 34.0568 21.2117 34.9249C22.4329 35.6195 23.6541 36.0246 24.8171 36.1404C25.1079 36.1982 25.4568 36.1982 25.7475 36.1982C26.7361 36.1982 27.7829 36.0246 28.6551 35.6195C31.2138 34.6355 32.9584 32.3204 33.3654 29.658C33.7725 28.3847 33.6562 27.1693 33.191 25.8381ZM16.8503 27.6902C14.8731 25.2593 13.6519 22.9442 13.1867 20.9764C13.0122 20.1661 12.9541 19.4137 13.0704 18.777C13.1285 18.1982 13.3612 17.6773 13.6519 17.2722C14.3497 16.2882 15.5128 15.7095 16.8503 15.7095C18.1878 15.7095 19.4089 16.2882 20.0486 17.2722C20.3394 17.6773 20.572 18.1982 20.6301 18.777C20.7464 19.4137 20.6883 20.1661 20.5138 20.9764C20.0486 22.8863 18.7693 25.2014 16.8503 27.6902ZM31.2721 29.3685C31.0394 31.2206 29.7601 32.8412 27.9574 33.5936C27.0851 33.9408 26.1547 34.0566 25.2243 33.9408C24.2938 33.8251 23.4216 33.5357 22.4911 33.0148C21.2118 32.3203 19.8743 31.1627 18.3623 29.5421C20.7466 26.6482 22.2004 23.928 22.7237 21.555C22.9563 20.4553 23.0145 19.4135 22.8982 18.4875C22.7819 17.5614 22.433 16.7511 21.9096 16.0566C20.8047 14.436 18.8857 13.51 16.7922 13.51C14.6988 13.51 12.7798 14.4939 11.6749 16.0566C11.1515 16.7511 10.8608 17.6193 10.6863 18.4875C10.57 19.4135 10.57 20.4553 10.8608 21.555C11.3841 23.928 12.8961 26.6482 15.2221 29.5421C13.7102 31.2206 12.3727 32.3203 11.0934 33.0148C10.1629 33.5357 9.2325 33.8251 8.36023 33.9408C7.37165 34.0566 6.44122 33.883 5.62709 33.5936C3.82438 32.899 2.6032 31.2206 2.31244 29.3685C2.19613 28.4424 2.25428 27.5743 2.66135 26.5325C2.77765 26.1852 2.95211 25.8379 3.12656 25.3749C3.35917 24.7961 3.64993 24.1595 3.94069 23.5807L3.99884 23.5228C6.49937 18.1402 9.17435 12.6418 11.9656 7.31704L12.0819 7.08553C12.3727 6.56463 12.6635 5.98585 12.9542 5.40707C13.245 4.8283 13.5939 4.3074 13.9428 3.84437C14.6988 2.97621 15.7455 2.51318 16.8504 2.51318C17.9553 2.51318 19.002 2.97621 19.758 3.84437C20.1651 4.3074 20.4558 4.8283 20.7466 5.40707C21.0373 5.92797 21.3281 6.50675 21.6188 7.08553L21.7351 7.31704C24.4683 12.6997 27.1433 18.1981 29.6438 23.5228V23.5807C29.9346 24.1595 30.1672 24.7961 30.4579 25.3749C30.6324 25.7801 30.8068 26.1852 30.9231 26.5325C31.3302 27.5164 31.4465 28.4424 31.2721 29.3685Z" fill="#545961"/>
</svg>
