<svg width="126" height="37" viewBox="0 0 126 37" fill="none" xmlns="http://www.w3.org/2000/svg">
<path fill-rule="evenodd" clip-rule="evenodd" d="M26.7029 6.81699C26.8292 6.81712 27.0181 6.88023 27.0181 7.06918C27.0813 7.25832 30.8688 32.9816 30.8688 32.9816L19.948 35.3144L19.9516 35.24L0 31.5313C0 31.5313 2.52505 11.6083 2.6513 10.9779C2.77469 10.0536 2.83778 10.0326 3.72447 9.7379L3.78758 9.71692C3.91383 9.71692 5.17635 9.33863 6.94389 8.77121C7.63828 5.87103 9.78457 0.196777 14.3297 0.196777C14.8978 0.196777 15.5922 0.575061 16.1603 1.26858H16.2866C18.2435 1.26858 19.3166 2.90781 19.9479 4.73618C20.5792 4.54704 21.021 4.42094 21.021 4.42094C21.0412 4.42094 21.0693 4.41934 21.1032 4.41742C21.1973 4.41206 21.3356 4.40419 21.4687 4.42123C21.5639 4.42266 21.6585 4.45937 21.7256 4.50436C21.7448 4.51692 21.7626 4.53108 21.7786 4.54704L23.8617 6.6276C23.8617 6.6276 26.5762 6.81674 26.7024 6.81674L26.7029 6.81699ZM17.8332 5.43143L17.8332 5.43144C17.6206 5.48954 17.3997 5.54992 17.1704 5.61861V5.24033C17.1704 4.10548 16.981 3.22282 16.7285 2.5293C17.8017 2.59234 18.496 3.79024 18.8748 5.11423C18.5532 5.23468 18.206 5.32956 17.8332 5.43143ZM16.034 5.80801C16.034 4.48401 15.8446 3.47526 15.5921 2.78174C14.4558 3.22307 13.1933 4.48401 12.562 7.06895C13.7614 6.69067 14.9608 6.31239 16.034 5.99715V5.80801ZM14.2034 1.521C14.3928 1.521 14.5821 1.58404 14.7715 1.71014C13.3196 2.40366 11.7415 4.10594 11.1102 7.57353C10.3712 7.81956 9.63217 8.02719 8.92317 8.22639L8.92307 8.22641L8.92297 8.22644L8.92231 8.22663C8.72316 8.28258 8.52638 8.33786 8.33264 8.39315C9.15328 5.74516 10.9839 1.521 14.2034 1.521ZM16.3497 12.8072L15.0241 16.7792C15.0241 16.7792 13.8247 16.1487 12.4359 16.1487C10.3527 16.1487 10.2265 17.4727 10.2265 17.7879C10.2265 18.5135 10.972 19.0603 11.8714 19.72C13.2385 20.7227 14.9609 21.9861 14.9609 24.534C14.9609 27.8755 12.8146 30.0191 9.97396 30.0191C6.56514 30.0191 4.79761 27.8755 4.79761 27.8755L5.68138 24.8492C5.68138 24.8492 7.51204 26.4254 9.02707 26.4254C10.0371 26.4254 10.4158 25.6688 10.4158 25.0383C10.4158 23.9863 9.66119 23.3841 8.81463 22.7085C7.7333 21.8456 6.50202 20.8631 6.50202 18.6706C6.50202 15.3921 8.83769 12.2397 13.6353 12.2397C15.4659 12.2397 16.3497 12.8072 16.3497 12.8072ZM108.262 14.2575H111.229L110.66 17.3468H107.693L105.421 29.2628H101.128L103.401 17.4099H101.381L102.012 14.1945H104.032L104.158 13.501C104.474 11.7356 105.168 9.97031 106.62 8.70936C107.757 7.70061 109.272 7.25928 110.787 7.25928C112.365 7.25928 113.122 7.63756 113.122 7.63756L112.302 10.9791C112.302 10.9791 111.67 10.7899 110.913 10.7899C109.524 10.7899 108.64 12.1139 108.388 13.564L108.262 14.2575ZM58.8336 13.9425C56.9398 13.9425 55.4879 14.8251 54.2885 16.2122H54.2253L55.8666 7.57471H51.574L47.4077 29.3891H51.7003L53.1522 21.9495C53.7203 19.1124 55.1722 17.4101 56.4979 17.4101C57.4448 17.4101 57.8235 18.0406 57.8235 18.9863C57.8235 19.5537 57.7604 20.3103 57.6342 20.8777L55.9929 29.3891H60.3486L62.053 20.5624C62.2424 19.6167 62.3686 18.5449 62.3686 17.7884C62.3055 15.3926 61.043 13.9425 58.8336 13.9425ZM43.5571 20.2472C42.484 19.6797 41.9158 19.1754 41.9158 18.4818C41.9158 17.5992 42.6733 17.0318 43.9359 17.0318C45.3246 17.0318 46.5872 17.5992 46.5872 17.5992L47.5972 14.5729C47.5972 14.5729 46.7134 13.8794 43.999 13.8794C40.2746 13.8794 37.6864 16.023 37.6864 18.9862C37.6864 20.6885 38.8858 22.0125 40.5271 22.8952C41.8527 23.6517 42.2946 24.1561 42.2946 24.9127C42.2946 25.7323 41.6633 26.3628 40.4008 26.3628C38.5701 26.3628 36.9289 25.417 36.9289 25.417L35.8557 28.4433C35.8557 28.4433 37.4339 29.5151 40.0852 29.5151C43.9359 29.5151 46.6503 27.6237 46.6503 24.2191C46.5872 22.5169 45.1984 21.2559 43.5571 20.2472ZM63.4419 23.7147C63.4419 18.6079 66.8507 13.9424 71.9639 13.9424C75.9409 13.9424 77.7716 16.7795 77.7716 19.9319C77.7716 25.1648 74.3627 29.7042 69.3126 29.7042C65.4619 29.7042 63.4419 27.0562 63.4419 23.7147ZM69.8808 26.3626C68.4289 26.3626 67.7976 25.1017 67.7976 23.5885C67.7976 21.1297 69.0601 17.1577 71.3958 17.1577C72.9108 17.1577 73.4158 18.4817 73.4158 19.7427C73.3527 22.3276 72.0902 26.3626 69.8808 26.3626ZM84.1472 16.4643C84.1472 16.4643 85.7885 13.9424 88.6923 13.9424C91.7855 13.9424 93.048 16.4643 93.048 19.3644C93.048 24.5974 89.7655 29.7042 84.7785 29.7042C83.1372 29.7042 82.2535 29.1368 82.2535 29.1368H82.1903L80.9909 35.4415H76.7615L79.6653 19.8688C80.044 18.1035 80.3597 15.7708 80.549 14.1946H84.3366L84.0841 16.4643H84.1472ZM84.5891 26.3624C83.4528 26.3624 82.8215 25.732 82.8215 25.732L83.5159 21.76C84.0209 19.112 85.4097 17.3467 86.8616 17.3467C88.1873 17.3467 88.566 18.5446 88.566 19.6794C88.6292 22.5166 86.9879 26.3624 84.5891 26.3624ZM96.7095 10.2225C96.7095 8.83547 97.7826 7.76367 99.1714 7.76367C100.434 7.76367 101.318 8.70938 101.318 9.90728C101.255 11.4835 100.118 12.3661 98.7926 12.3661H98.7295C97.5301 12.3661 96.7095 11.4835 96.7095 10.2225ZM93.1743 29.2627H97.4669L100.371 14.1313H96.0781L93.1743 29.2627ZM121.455 14.2573C121.455 14.2573 118.804 21.0034 117.604 24.6601H117.541C117.478 23.4622 116.468 14.2573 116.468 14.2573H111.986L114.574 28.1277C114.637 28.443 114.574 28.6321 114.511 28.8212C114.006 29.767 113.185 30.7127 112.175 31.4062C111.355 31.9736 110.471 32.3519 109.777 32.6041L110.976 36.1978C111.86 36.0086 113.627 35.3151 115.142 33.865C117.099 32.0367 118.867 29.1995 120.761 25.4167L126 14.2573H121.455Z" fill="#545961"/>
</svg>
