<svg width="86" height="85" viewBox="0 0 86 85" fill="none" xmlns="http://www.w3.org/2000/svg">
<circle cx="43.0439" cy="42.3728" r="38.0803" fill="white" stroke="white" stroke-width="8"/>
<mask id="mask0_1_126" style="mask-type:alpha" maskUnits="userSpaceOnUse" x="20" y="11" width="46" height="63">
<path d="M48.6678 11.4419H24.7663C22.4464 11.4419 20.5483 13.34 20.5483 15.6598V69.0867C20.5483 71.4066 22.4464 73.3046 24.7663 73.3046H61.3215C63.6414 73.3046 65.5394 71.4066 65.5394 69.0867V28.3136L48.6678 11.4419Z" fill="white"/>
</mask>
<g mask="url(#mask0_1_126)">
<path d="M48.6678 11.4419H24.7663C22.4464 11.4419 20.5483 13.34 20.5483 15.6598V69.0867C20.5483 71.4066 22.4464 73.3046 24.7663 73.3046H61.3215C63.6414 73.3046 65.5394 71.4066 65.5394 69.0867V28.3136L55.6976 21.2837L48.6678 11.4419Z" fill="#0F9D58"/>
</g>
<mask id="mask1_1_126" style="mask-type:alpha" maskUnits="userSpaceOnUse" x="20" y="11" width="46" height="63">
<path d="M48.6678 11.4419H24.7663C22.4464 11.4419 20.5483 13.34 20.5483 15.6598V69.0867C20.5483 71.4066 22.4464 73.3046 24.7663 73.3046H61.3215C63.6414 73.3046 65.5394 71.4066 65.5394 69.0867V28.3136L48.6678 11.4419Z" fill="white"/>
</mask>
<g mask="url(#mask1_1_126)">
<path d="M31.7959 41.6704V62.057H54.2914V41.6704H31.7959ZM41.6377 59.2451H34.6078V55.7301H41.6377V59.2451ZM41.6377 53.6212H34.6078V50.1062H41.6377V53.6212ZM41.6377 47.9973H34.6078V44.4824H41.6377V47.9973ZM51.4795 59.2451H44.4496V55.7301H51.4795V59.2451ZM51.4795 53.6212H44.4496V50.1062H51.4795V53.6212ZM51.4795 47.9973H44.4496V44.4824H51.4795V47.9973Z" fill="#F1F1F1"/>
</g>
<mask id="mask2_1_126" style="mask-type:alpha" maskUnits="userSpaceOnUse" x="20" y="11" width="46" height="63">
<path d="M48.6678 11.4419H24.7663C22.4464 11.4419 20.5483 13.34 20.5483 15.6598V69.0867C20.5483 71.4066 22.4464 73.3046 24.7663 73.3046H61.3215C63.6414 73.3046 65.5394 71.4066 65.5394 69.0867V28.3136L48.6678 11.4419Z" fill="white"/>
</mask>
<g mask="url(#mask2_1_126)">
<path d="M49.9016 27.0801L65.5395 42.7145V28.3138L49.9016 27.0801Z" fill="url(#paint0_linear_1_126)"/>
</g>
<mask id="mask3_1_126" style="mask-type:alpha" maskUnits="userSpaceOnUse" x="20" y="11" width="46" height="63">
<path d="M48.6678 11.4419H24.7663C22.4464 11.4419 20.5483 13.34 20.5483 15.6598V69.0867C20.5483 71.4066 22.4464 73.3046 24.7663 73.3046H61.3215C63.6414 73.3046 65.5394 71.4066 65.5394 69.0867V28.3136L48.6678 11.4419Z" fill="white"/>
</mask>
<g mask="url(#mask3_1_126)">
<path d="M48.6675 11.4419V24.0956C48.6675 26.426 50.555 28.3136 52.8854 28.3136H65.5391L48.6675 11.4419Z" fill="#87CEAC"/>
</g>
<mask id="mask4_1_126" style="mask-type:alpha" maskUnits="userSpaceOnUse" x="20" y="11" width="46" height="63">
<path d="M48.6678 11.4419H24.7663C22.4464 11.4419 20.5483 13.34 20.5483 15.6598V69.0867C20.5483 71.4066 22.4464 73.3046 24.7663 73.3046H61.3215C63.6414 73.3046 65.5394 71.4066 65.5394 69.0867V28.3136L48.6678 11.4419Z" fill="white"/>
</mask>
<g mask="url(#mask4_1_126)">
<path d="M24.7663 11.4419C22.4464 11.4419 20.5483 13.34 20.5483 15.6598V16.0113C20.5483 13.6914 22.4464 11.7934 24.7663 11.7934H48.6678V11.4419H24.7663Z" fill="white" fill-opacity="0.2"/>
</g>
<mask id="mask5_1_126" style="mask-type:alpha" maskUnits="userSpaceOnUse" x="20" y="11" width="46" height="63">
<path d="M48.6678 11.4419H24.7663C22.4464 11.4419 20.5483 13.34 20.5483 15.6598V69.0867C20.5483 71.4066 22.4464 73.3046 24.7663 73.3046H61.3215C63.6414 73.3046 65.5394 71.4066 65.5394 69.0867V28.3136L48.6678 11.4419Z" fill="white"/>
</mask>
<g mask="url(#mask5_1_126)">
<path d="M61.3215 72.9528H24.7663C22.4464 72.9528 20.5483 71.0547 20.5483 68.7349V69.0864C20.5483 71.4062 22.4464 73.3043 24.7663 73.3043H61.3215C63.6414 73.3043 65.5394 71.4062 65.5394 69.0864V68.7349C65.5394 71.0547 63.6414 72.9528 61.3215 72.9528Z" fill="#263238" fill-opacity="0.2"/>
</g>
<mask id="mask6_1_126" style="mask-type:alpha" maskUnits="userSpaceOnUse" x="20" y="11" width="46" height="63">
<path d="M48.6678 11.4419H24.7663C22.4464 11.4419 20.5483 13.34 20.5483 15.6598V69.0867C20.5483 71.4066 22.4464 73.3046 24.7663 73.3046H61.3215C63.6414 73.3046 65.5394 71.4066 65.5394 69.0867V28.3136L48.6678 11.4419Z" fill="white"/>
</mask>
<g mask="url(#mask6_1_126)">
<path d="M52.8856 28.3136C50.5552 28.3136 48.6677 26.4261 48.6677 24.0957V24.4472C48.6677 26.7776 50.5552 28.6651 52.8856 28.6651H65.5394V28.3136H52.8856Z" fill="#263238" fill-opacity="0.1"/>
</g>
<path d="M48.6678 11.4419H24.7663C22.4464 11.4419 20.5483 13.34 20.5483 15.6598V69.0867C20.5483 71.4066 22.4464 73.3046 24.7663 73.3046H61.3215C63.6414 73.3046 65.5394 71.4066 65.5394 69.0867V28.3136L48.6678 11.4419Z" fill="url(#paint1_radial_1_126)"/>
<defs>
<linearGradient id="paint0_linear_1_126" x1="57.7214" y1="28.4225" x2="57.7214" y2="42.7167" gradientUnits="userSpaceOnUse">
<stop stop-color="#263238" stop-opacity="0.2"/>
<stop offset="1" stop-color="#263238" stop-opacity="0.02"/>
</linearGradient>
<radialGradient id="paint1_radial_1_126" cx="0" cy="0" r="1" gradientUnits="userSpaceOnUse" gradientTransform="translate(21.9737 12.6715) scale(72.5475)">
<stop stop-color="white" stop-opacity="0.1"/>
<stop offset="1" stop-color="white" stop-opacity="0"/>
</radialGradient>
</defs>
</svg>
