<svg width="37" height="37" viewBox="0 0 37 37" fill="none" xmlns="http://www.w3.org/2000/svg">
<path d="M11.1531 6.24452C11.1531 6.24452 11.3301 2.15935 15.7559 1.16724H35.8197V28.2461C35.8197 28.2461 34.9936 35.4827 27.5582 35.7161C20.0638 36.0079 7.78943 35.7161 7.78943 35.7161C7.78943 35.7161 11.0941 34.1404 11.2711 30.7556C11.4481 27.3123 11.1531 6.24452 11.1531 6.24452Z" stroke="#FEFEFE" stroke-width="3" stroke-miterlimit="10" stroke-linecap="round" stroke-linejoin="round"/>
<path d="M11.2121 11.2051H5.72404C5.72404 11.2051 1.2982 11.4969 1.23919 16.0489C1.18018 20.601 1.18018 31.3975 1.18018 31.3975C1.18018 31.3975 2.06534 35.8912 7.43536 35.8328C7.43536 35.8328 10.2089 34.8991 11.0941 31.806" stroke="#FEFEFE" stroke-width="3" stroke-miterlimit="10" stroke-linecap="round" stroke-linejoin="round"/>
<path d="M22.7783 8.57886H17.7623V13.5394H22.7783V8.57886Z" stroke="#FEFEFE" stroke-width="3" stroke-miterlimit="10" stroke-linecap="round" stroke-linejoin="round"/>
<path d="M16.7592 19.8423H30.3317" stroke="#FEFEFE" stroke-width="3" stroke-miterlimit="10" stroke-linecap="round" stroke-linejoin="round"/>
<path d="M16.7592 26.1453H30.3317" stroke="#FEFEFE" stroke-width="3" stroke-miterlimit="10" stroke-linecap="round" stroke-linejoin="round"/>
<path d="M1.18018 19.8423H11.3301" stroke="#FEFEFE" stroke-width="3" stroke-miterlimit="10" stroke-linecap="round" stroke-linejoin="round"/>
</svg>
