<svg width="47" height="45" viewBox="0 0 47 45" fill="none" xmlns="http://www.w3.org/2000/svg">
<path d="M33.6509 9.27772L25.9675 2.37645C25.0488 1.55487 23.7126 1.63703 22.7939 2.45861C15.9456 9.1134 9.01381 15.8504 2.16553 22.5052C9.01381 29.1599 15.8621 35.8969 22.6268 42.5517C23.462 43.3733 24.7983 43.4554 25.7169 42.6339L33.5674 35.7326C34.0685 35.2396 34.152 34.5002 33.6509 34.0073C29.8927 30.3102 26.051 26.5309 22.2928 22.8338C26.051 18.8902 29.8927 14.9466 33.6509 11.003C34.152 10.5101 34.152 9.68851 33.6509 9.27772Z" stroke="#21A6DF" stroke-width="3" stroke-miterlimit="10" stroke-linecap="round" stroke-linejoin="round"/>
<path d="M31.897 22.5051L39.2463 29.9814C41.0837 28.2561 43.0045 26.5308 44.8419 24.7233C45.0924 24.3947 45.343 23.7374 45.4265 22.9159C45.51 21.437 44.8419 20.369 44.5913 20.0403L39.4134 14.9465C36.9079 17.4934 34.4024 20.0403 31.897 22.5051Z" stroke="#21A6DF" stroke-width="3" stroke-miterlimit="10" stroke-linecap="round" stroke-linejoin="round"/>
</svg>
