<svg width="37" height="34" viewBox="0 0 37 34" fill="none" xmlns="http://www.w3.org/2000/svg">
<path d="M36.0584 29.4837C35.9643 29.4837 35.9172 29.4837 35.8231 29.4365L7.2022 22.6837C6.77854 22.5893 6.49609 22.2115 6.49609 21.7865V7.8087C6.49609 7.3837 6.77854 7.00592 7.2022 6.91148L35.8231 0.0170321C36.1055 -0.0301901 36.388 0.0170321 36.6233 0.205921C36.8587 0.39481 36.9999 0.678143 36.9999 0.961477V28.5865C36.9999 28.8698 36.8587 29.1531 36.6233 29.342C36.4821 29.4365 36.2467 29.4837 36.0584 29.4837ZM8.33197 21.0309L35.117 27.3587V2.09481L8.33197 8.51703V21.0309Z" fill="#21A6DF"/>
<path d="M7.39058 22.6838C7.34351 22.6838 7.34351 22.6838 7.29644 22.6838L2.91857 22.2588C1.27099 22.1171 0 20.7477 0 19.0477V10.3588C0 8.65881 1.31807 7.24214 3.01272 7.10047L7.29644 6.81714C7.57888 6.81714 7.81425 6.91158 8.00254 7.05325C8.19084 7.19492 8.28499 7.47825 8.28499 7.76158V21.7394C8.28499 22.0227 8.19084 22.2588 7.95547 22.4477C7.86132 22.6366 7.62595 22.6838 7.39058 22.6838ZM6.44911 8.80047L3.15394 8.98936C2.44784 9.03658 1.88295 9.65047 1.88295 10.3588V19.0477C1.88295 19.756 2.40076 20.3227 3.10687 20.4171L6.44911 20.7477V8.80047Z" fill="#21A6DF"/>
<path d="M17.888 17.7253C17.6527 17.7253 17.4644 17.6309 17.2761 17.4892L6.77862 8.51697C6.40203 8.18641 6.35495 7.57252 6.68447 7.19474C7.01399 6.81697 7.62595 6.76974 8.00254 7.1003L17.888 15.5531L32.1514 4.40863C32.5751 4.07808 33.1399 4.17252 33.4695 4.5503C33.799 4.9753 33.7048 5.54197 33.3282 5.87252L18.4529 17.4892C18.3117 17.6309 18.0763 17.7253 17.888 17.7253Z" fill="#21A6DF"/>
<path d="M12.9924 33.9698C11.2978 33.9698 9.8385 32.3642 9.22654 30.7587C8.9441 30.0031 8.9441 29.3892 8.89702 29.1531C8.80287 27.3115 8.84995 24.9504 8.9441 22.3059C8.9441 21.7865 9.36776 21.4087 9.88557 21.4087H9.93265C10.4505 21.4087 10.8741 21.8809 10.827 22.4004C10.7329 24.9976 10.7329 27.3115 10.827 29.0587C10.827 29.2004 10.8741 29.6254 11.0153 30.0976C11.3449 31.042 12.2393 32.0809 12.9924 32.0809C13.2749 32.0809 13.5573 31.892 13.8868 31.6559C15.6286 30.2865 17.5115 25.8004 18.1235 24.1948C18.2647 23.7698 18.7354 23.5337 19.1591 23.5809C19.6298 23.6754 19.9123 24.0531 19.9123 24.5254C19.9123 25.0448 17.4174 31.2309 15.0166 33.1198C14.593 33.4976 13.9339 33.9226 12.9924 33.9698C13.0395 33.9698 13.0395 33.9698 12.9924 33.9698Z" fill="#21A6DF"/>
</svg>
