<svg width="47" height="45" viewBox="0 0 47 45" fill="none" xmlns="http://www.w3.org/2000/svg">
<path d="M33.4854 9.27772L25.8019 2.37645C24.8833 1.55487 23.547 1.63703 22.6284 2.45861C15.7801 9.1134 8.84828 15.8504 2 22.5052C8.84828 29.1599 15.6966 35.8969 22.4613 42.5517C23.2965 43.3733 24.6327 43.4554 25.5514 42.6339L33.4019 35.7326C33.903 35.2396 33.9865 34.5002 33.4854 34.0073C29.7272 30.3102 25.8855 26.5309 22.1273 22.8338C25.8855 18.8902 29.7272 14.9466 33.4854 11.003C33.9865 10.5101 33.9865 9.68851 33.4854 9.27772Z" stroke="#FEFEFE" stroke-width="3" stroke-miterlimit="10" stroke-linecap="round" stroke-linejoin="round"/>
<path d="M31.7316 22.5051L39.0809 29.9814C40.9183 28.2561 42.8391 26.5308 44.6765 24.7233C44.927 24.3947 45.1776 23.7374 45.2611 22.9159C45.3446 21.437 44.6765 20.369 44.4259 20.0403L39.248 14.9465C36.7425 17.4934 34.237 20.0403 31.7316 22.5051Z" stroke="#FEFEFE" stroke-width="3" stroke-miterlimit="10" stroke-linecap="round" stroke-linejoin="round"/>
</svg>
