<svg width="36" height="35" viewBox="0 0 36 35" fill="none" xmlns="http://www.w3.org/2000/svg">
<path d="M1.2042 19.1952C1.2042 13.1446 1.2042 7.09388 1.2042 1.04321H28.4668C28.4668 1.04321 33.1404 1.40834 34.0232 6.36363C34.906 11.3189 29.1419 13.1967 26.1819 14.0313C24.2086 14.6051 15.0173 17.7869 9.20123 19.8733C6.34515 20.8644 4.31993 21.5946 4.31993 21.5946C4.31993 21.5946 1.30806 22.5857 1.2042 25.8197C1.15227 28.1669 1.25613 30.5141 1.2042 32.8614C1.2042 33.1744 1.25613 33.4873 1.46384 33.696C1.87927 34.0611 2.55435 33.9568 2.76206 33.9568C4.94307 33.6438 19.9505 33.6438 22.8066 33.696C25.2472 33.7481 26.9609 33.8525 29.038 32.8092C30.7517 31.9747 32.2057 30.6185 32.9327 28.845C33.2962 28.0104 34.5425 25.4024 33.7116 22.2206C33.0885 19.8733 31.6864 18.4128 31.0113 17.839" stroke="#21A6DF" stroke-width="3" stroke-miterlimit="10" stroke-linecap="round" stroke-linejoin="round"/>
<path d="M11.6419 12.936C13.2479 12.936 14.5499 11.6282 14.5499 10.015C14.5499 8.40178 13.2479 7.09399 11.6419 7.09399C10.0358 7.09399 8.73389 8.40178 8.73389 10.015C8.73389 11.6282 10.0358 12.936 11.6419 12.936Z" stroke="#21A6DF" stroke-width="3" stroke-miterlimit="10" stroke-linecap="round" stroke-linejoin="round"/>
<path d="M21.8719 27.4368C23.4779 27.4368 24.7799 26.129 24.7799 24.5157C24.7799 22.9025 23.4779 21.5947 21.8719 21.5947C20.2658 21.5947 18.9639 22.9025 18.9639 24.5157C18.9639 26.129 20.2658 27.4368 21.8719 27.4368Z" stroke="#21A6DF" stroke-width="3" stroke-miterlimit="10" stroke-linecap="round" stroke-linejoin="round"/>
</svg>
