<svg width="116" height="110" viewBox="0 0 116 110" fill="none" xmlns="http://www.w3.org/2000/svg">
<path d="M38.6278 92.4685H11.7372C11.2277 92.4685 10.7392 92.6709 10.379 93.0311C10.0188 93.3913 9.81641 93.8798 9.81641 94.3893C9.81641 102.862 16.71 109.755 25.1825 109.755C33.6549 109.755 40.5485 102.862 40.5485 94.3893C40.5485 93.8798 40.3462 93.3913 39.9859 93.0311C39.6257 92.6709 39.1372 92.4685 38.6278 92.4685Z" fill="#4D4D4D"/>
<path d="M32.6524 94.3889H17.7127C17.4295 94.3889 17.1578 94.5014 16.9576 94.7017C16.7573 94.902 16.6448 95.1736 16.6448 95.4569C16.6467 100.163 20.4748 103.993 25.1825 103.993C29.8903 103.993 33.7184 100.163 33.7184 95.4569C33.7186 95.3167 33.6912 95.1779 33.6378 95.0483C33.5843 94.9188 33.5058 94.801 33.4068 94.7018C33.3078 94.6026 33.1902 94.5239 33.0608 94.4702C32.9313 94.4166 32.7925 94.3889 32.6524 94.3889Z" fill="white"/>
<path d="M105.854 92.4685H78.9637C78.4543 92.4685 77.9658 92.6709 77.6055 93.0311C77.2453 93.3913 77.043 93.8798 77.043 94.3893C77.043 102.862 83.9366 109.755 92.409 109.755C100.881 109.755 107.775 102.862 107.775 94.3893C107.775 93.8798 107.573 93.3913 107.213 93.0311C106.852 92.6709 106.364 92.4685 105.854 92.4685Z" fill="#4D4D4D"/>
<path d="M99.8789 94.3889H84.9393C84.656 94.3889 84.3844 94.5014 84.1841 94.7017C83.9839 94.902 83.8713 95.1736 83.8713 95.4569C83.8733 100.163 87.7013 103.993 92.4091 103.993C97.1169 103.993 100.945 100.163 100.945 95.4569C100.945 95.3167 100.918 95.1779 100.864 95.0483C100.811 94.9188 100.732 94.801 100.633 94.7018C100.534 94.6026 100.417 94.5239 100.287 94.4702C100.158 94.4166 100.019 94.3889 99.8789 94.3889Z" fill="white"/>
<path d="M104.769 92.6606L76.945 79.2153C76.6844 79.0896 76.3989 79.024 76.1095 79.0232H59.7562C58.6978 79.0232 57.8354 78.1608 57.8354 77.1025V57.8949C57.8354 57.3855 57.633 56.8969 57.2728 56.5367C56.9126 56.1765 56.4241 55.9741 55.9146 55.9741H17.4995C17.1068 55.9742 16.7235 56.0947 16.4014 56.3193C16.0793 56.5439 15.8337 56.8618 15.6978 57.2303L2.25253 93.7247C2.145 94.015 2.1093 94.327 2.1485 94.6341C2.18769 94.9412 2.30061 95.2343 2.47762 95.4883C2.65462 95.7423 2.89046 95.9497 3.16499 96.0928C3.43953 96.2359 3.74461 96.3104 4.0542 96.31H103.934C104.368 96.3096 104.79 96.1619 105.13 95.8908C105.469 95.6198 105.707 95.2416 105.804 94.8179C105.901 94.3943 105.852 93.9502 105.664 93.5584C105.476 93.1665 105.16 92.85 104.769 92.6606Z" fill="#D43239"/>
<path d="M17.1386 56.0293C16.8152 56.0879 16.5125 56.2292 16.2601 56.4396C16.0076 56.65 15.8139 56.9222 15.698 57.2298L9.00035 75.4078C3.63184 79.9927 0.212891 86.7941 0.212891 94.3887C0.212891 94.8982 0.415255 95.3867 0.775467 95.7469C1.13568 96.1071 1.62423 96.3095 2.13365 96.3095H61.0548C39.5462 92.9751 22.2593 76.8926 17.1386 56.0293Z" fill="#AC282E"/>
<path d="M23.262 0.271973H2.13362C1.77721 0.272683 1.42801 0.372448 1.12502 0.560128C0.82202 0.747807 0.577155 1.01601 0.417763 1.3348C0.25837 1.65358 0.190724 2.0104 0.222378 2.36541C0.254032 2.72041 0.38374 3.05963 0.597019 3.34518L5.49495 9.87576L0.597019 16.4063C0.382243 16.6915 0.251283 17.0309 0.218866 17.3865C0.186448 17.742 0.253858 18.0995 0.413515 18.4188C0.573173 18.7382 0.818746 19.0066 1.12262 19.194C1.4265 19.3814 1.77662 19.4803 2.13362 19.4795H23.262C23.7714 19.4795 24.2599 19.2772 24.6201 18.917C24.9803 18.5568 25.1827 18.0682 25.1827 17.5588V2.19273C25.1827 1.68331 24.9803 1.19476 24.6201 0.83455C24.2599 0.474338 23.7714 0.271973 23.262 0.271973Z" fill="#D43239"/>
<path d="M38.6278 36.7664H19.4203C18.9109 36.7664 18.4223 36.9687 18.0621 37.3289C17.7019 37.6891 17.4995 38.1777 17.4995 38.6871V50.2117C17.4995 50.7211 17.7019 51.2096 18.0621 51.5698C18.4223 51.9301 18.9109 52.1324 19.4203 52.1324H38.6278C39.1373 52.1324 39.6258 51.9301 39.986 51.5698C40.3462 51.2096 40.5486 50.7211 40.5486 50.2117V38.6871C40.5486 38.1777 40.3462 37.6891 39.986 37.3289C39.6258 36.9687 39.1373 36.7664 38.6278 36.7664Z" fill="#FF8000"/>
<path d="M80.8847 29.0832H71.2809C70.7714 29.0832 70.2829 28.8809 69.9227 28.5206C69.5625 28.1604 69.3601 27.6719 69.3601 27.1625C69.3601 26.653 69.5625 26.1645 69.9227 25.8043C70.2829 25.4441 70.7714 25.2417 71.2809 25.2417H80.8847C81.3941 25.2417 81.8826 25.4441 82.2428 25.8043C82.603 26.1645 82.8054 26.653 82.8054 27.1625C82.8054 27.6719 82.603 28.1604 82.2428 28.5206C81.8826 28.8809 81.3941 29.0832 80.8847 29.0832Z" fill="#666666"/>
<path d="M96.1027 42.1756C96.0352 41.8154 95.866 41.482 95.6152 41.2149C95.3644 40.9477 95.0423 40.7579 94.6871 40.6678L87.1193 38.747C86.8359 38.6751 86.5398 38.6688 86.2535 38.7287C85.9673 38.7886 85.6985 38.913 85.4677 39.0925C85.2368 39.272 85.05 39.5019 84.9215 39.7646C84.793 40.0272 84.7262 40.3158 84.7261 40.6082V74.0697C84.7259 74.562 84.9147 75.0355 85.2536 75.3926C85.5924 75.7496 86.0554 75.963 86.547 75.9886L100.157 76.6954C100.448 76.7109 100.738 76.6599 101.005 76.5464C101.273 76.4329 101.511 76.2599 101.702 76.0404C101.893 75.8221 102.033 75.563 102.109 75.2828C102.186 75.0025 102.197 74.7086 102.144 74.4232L96.1027 42.1756Z" fill="#D43239"/>
<path d="M103.934 17.5588H92.2939C88.7598 17.5629 85.3716 18.9686 82.8726 21.4676C80.3736 23.9666 78.9679 27.3548 78.9638 30.8889V31.1194C78.9679 34.6535 80.3736 38.0417 82.8726 40.5407C85.3716 43.0397 88.7598 44.4454 92.2939 44.4494H103.934C104.443 44.4494 104.932 44.2471 105.292 43.8869C105.652 43.5267 105.854 43.0381 105.854 42.5287V19.4796C105.854 18.9702 105.652 18.4816 105.292 18.1214C104.932 17.7612 104.443 17.5588 103.934 17.5588ZM59.7562 48.291H17.4996C14.3226 48.291 11.7373 50.8763 11.7373 54.0532V57.8947C11.7373 58.4042 11.9397 58.8927 12.2999 59.2529C12.6601 59.6131 13.1486 59.8155 13.6581 59.8155H59.7562C60.2657 59.8155 60.7542 59.6131 61.1144 59.2529C61.4746 58.8927 61.677 58.4042 61.677 57.8947V50.2117C61.677 49.7023 61.4746 49.2137 61.1144 48.8535C60.7542 48.4933 60.2657 48.291 59.7562 48.291Z" fill="#4D4D4D"/>
<path d="M86.6467 82.8645H98.1713V86.706H86.6467V82.8645Z" fill="white"/>
<path d="M21.3411 0.271973H25.1826V31.0041H21.3411V0.271973Z" fill="#4D4D4D"/>
<path d="M103.934 17.5588H100.092V44.4494H103.934C104.443 44.4494 104.932 44.2471 105.292 43.8869C105.652 43.5267 105.855 43.0381 105.855 42.5287V19.4796C105.855 18.9702 105.652 18.4816 105.292 18.1214C104.932 17.7612 104.443 17.5588 103.934 17.5588Z" fill="#E6E6E6"/>
<path d="M38.6278 36.7664H19.4203C18.9109 36.7664 18.4223 36.9687 18.0621 37.3289C17.7019 37.6891 17.4995 38.1777 17.4995 38.6871V42.5286H40.5486V38.6871C40.5486 38.1777 40.3462 37.6891 39.986 37.3289C39.6258 36.9687 39.1373 36.7664 38.6278 36.7664Z" fill="#E57300"/>
<path d="M40.5487 29.0833H17.4996C16.9902 29.0833 16.5016 29.2856 16.1414 29.6458C15.7812 30.006 15.5789 30.4946 15.5789 31.004V38.687C15.5789 39.1965 15.7812 39.685 16.1414 40.0452C16.5016 40.4054 16.9902 40.6078 17.4996 40.6078H40.5487C41.0581 40.6078 41.5467 40.4054 41.9069 40.0452C42.2671 39.685 42.4695 39.1965 42.4695 38.687V31.004C42.4695 30.4946 42.2671 30.006 41.9069 29.6458C41.5467 29.2856 41.0581 29.0833 40.5487 29.0833Z" fill="#FF8000"/>
<path d="M92.409 71.3399C79.6993 71.3399 69.3599 81.6794 69.3599 94.389C69.3599 94.8985 69.5623 95.387 69.9225 95.7472C70.2827 96.1074 70.7712 96.3098 71.2807 96.3098H113.537C114.047 96.3098 114.535 96.1074 114.896 95.7472C115.256 95.387 115.458 94.8985 115.458 94.389C115.458 81.6794 105.119 71.3399 92.409 71.3399ZM25.1825 69.4192C11.4145 69.4192 0.212646 80.621 0.212646 94.389C0.212646 94.8985 0.415011 95.387 0.775223 95.7472C1.13543 96.1074 1.62399 96.3098 2.1334 96.3098H48.2316C48.741 96.3098 49.2295 96.1074 49.5898 95.7472C49.95 95.387 50.1523 94.8985 50.1523 94.389C50.1523 80.621 38.9505 69.4192 25.1825 69.4192Z" fill="#BF2D33"/>
<path d="M19.4203 77.1023H30.9448V80.9438H19.4203V77.1023ZM17.4995 84.7853H32.8656V88.6268H17.4995V84.7853Z" fill="white"/>
</svg>
