<svg width="113" height="114" viewBox="0 0 113 114" fill="none" xmlns="http://www.w3.org/2000/svg">
<path opacity="0.3" d="M85.2093 90.7113C85.2093 90.7113 72.8381 103.564 43.8776 92.693C43.8776 92.693 56.2771 109.905 76.3485 112.481L85.2093 90.7113ZM21.0035 60.5618C21.0035 60.5618 13.728 97.5339 2.29102 97.5339H21.0035V60.5618Z" fill="#485EFF"/>
<path d="M54.2106 35.6777C54.7202 36.2439 55.2581 36.7535 55.8243 37.2064C57.353 39.3863 59.9857 43.5477 60.1556 46.7184C60.1556 46.7184 60.4953 49.4927 63.9491 49.4927H66.8083C70.2621 49.4927 70.6018 46.7184 70.6018 46.7184C70.7716 43.3779 73.7441 38.8484 75.1879 36.7818C78.217 34.0641 80.1137 30.1291 80.1137 25.7411C80.1137 17.5314 73.461 10.907 65.2796 10.907C65.1381 10.907 64.9682 10.907 64.8267 10.907C61.9674 10.9919 59.3063 11.8978 57.0699 13.3699C55.0033 14.7288 53.3047 16.5972 52.144 18.8053C51.04 20.8719 50.4455 23.2216 50.4455 25.7411C50.4172 29.5629 51.8609 33.0449 54.2106 35.6777Z" fill="#5C77FF"/>
<path d="M110.263 57.0513C110.122 56.8531 109.952 56.6267 109.895 56.5417C109.782 56.3436 109.471 55.5509 109.216 54.9281C108.083 52.0688 106.923 49.3794 105.479 48.0772C104.601 47.2845 104.516 45.7841 104.601 44.9349C107.914 41.4811 106.838 36.8667 105.649 34.5736C105.451 23.6745 102.846 18.6637 100.978 16.4273C102.167 15.6629 103.327 14.5022 103.158 12.8603C102.903 10.4823 99.9021 8.52894 93.4475 6.49067C89.5974 5.27336 85.8606 4.50901 85.0679 4.33915C76.0372 0.46076 67.2896 0.121047 61.4862 0.545688C55.2015 0.743854 49.0866 2.6972 43.8777 6.15095C38.5555 9.34992 34.7904 13.5397 32.6106 18.6071C30.0627 23.4197 28.7322 28.8551 28.7322 34.3188C28.7322 41.7925 31.1385 48.8982 35.668 54.8148C36.1492 55.4377 37.0268 55.5509 37.6496 55.0696C38.2725 54.5884 38.3857 53.7108 37.9044 53.088C33.7429 47.6526 31.5631 41.1697 31.5631 34.3188C31.5631 29.2798 32.8087 24.2973 35.1301 19.8527C35.1584 19.8244 35.1584 19.7678 35.1867 19.7395C37.1118 15.1817 40.5089 11.4165 45.3498 8.52894C45.3781 8.52894 45.3781 8.50064 45.4064 8.50064C50.219 5.30167 55.8243 3.51818 61.5994 3.34832C61.6277 3.34832 61.6277 3.34832 61.656 3.34832C67.1481 2.95199 75.4993 3.23508 84.0488 7.00024C84.1337 7.02855 84.2469 7.08516 84.3319 7.08516C84.3602 7.08516 88.4934 7.90614 92.5982 9.20837C100.044 11.5581 100.298 13.1434 100.298 13.1434C100.298 13.1434 100.185 13.8228 97.9204 14.7853C97.4108 15.0118 97.0711 15.4931 97.0711 16.0593C97.0428 16.5971 97.3542 17.1067 97.8638 17.3615C97.9204 17.3898 102.648 20.1641 102.818 34.9416C102.818 35.1964 102.875 35.4229 103.016 35.6494C103.044 35.706 105.592 40.1506 102.28 43.208C102.054 43.4062 101.912 43.6892 101.855 43.9723C101.827 44.1422 101.148 47.964 103.582 50.1438C104.658 51.1063 105.847 54.1354 106.555 55.9189C107.008 57.0513 107.234 57.6458 107.489 58.0138C107.602 58.1837 107.744 58.3818 107.97 58.6649C109.612 60.8731 109.98 61.8356 110.009 62.2319C109.98 62.2319 109.952 62.2319 109.924 62.2602C106.272 62.9113 104.148 64.9213 104.064 65.0062C103.696 65.3459 103.554 65.8272 103.639 66.3085C103.639 66.3651 104.743 72.4233 101.94 73.3009C101.289 73.4991 100.893 74.1219 100.95 74.8013C101.034 75.5656 100.978 77.8587 99.8171 78.4532C99.3925 78.6797 99.1094 79.1043 99.0528 79.5573L98.7414 82.5298C98.7131 82.8978 98.798 83.2375 99.0245 83.5206C100.015 84.7945 102.308 88.6446 101.119 91.0226C100.242 92.7778 97.3825 93.712 92.8813 93.7403L84.1054 90.2865C83.3977 90.0034 82.5767 90.3432 82.2936 91.0509L74.1122 110.301C69.4694 109.367 50.9551 104.696 44.727 89.2674C44.4439 88.5314 43.6229 88.1917 42.8869 88.4747C42.1508 88.7578 41.8111 89.5788 42.0942 90.3149C45.2932 98.2698 51.9742 104.753 61.4012 109.084C68.4503 112.34 74.5085 113.245 74.7633 113.274C74.8199 113.274 74.9048 113.302 74.9615 113.302C75.5277 113.302 76.0372 112.962 76.2637 112.453L84.3319 93.4289L92.0604 96.4863C92.2302 96.5429 92.4001 96.5712 92.5699 96.5995C92.6265 96.5995 92.7115 96.5995 92.7681 96.5995C98.5715 96.5995 102.223 95.1558 103.611 92.3248C105.479 88.5597 102.591 83.832 101.544 82.3316L101.714 80.5481C103.356 79.2176 103.667 76.9528 103.696 75.594C106.611 73.8954 106.866 69.6207 106.47 66.6765C107.178 66.1952 108.508 65.4309 110.348 65.0912C111.82 64.8364 112.358 63.9305 112.556 63.4492C113.406 61.5525 111.82 59.1462 110.263 57.0513Z" fill="#284172"/>
<path d="M42.8584 86.6914L75.584 74.3485C76.1502 74.122 76.6881 73.8389 77.1977 73.4992L96.8444 60.0239C97.8353 59.3445 98.3731 58.2404 98.3165 57.0231C98.2599 55.8341 97.5805 54.7583 96.533 54.1922C92.6263 52.0406 88.6913 52.8899 86.285 53.7958L87.7288 50.8233C88.0968 50.0873 88.0968 49.2663 87.7571 48.5303C87.4174 47.7942 86.7946 47.228 86.0019 47.0299C85.0394 46.7468 84.1052 46.6335 83.171 46.6335C77.1411 46.6335 74.112 52.2671 73.7439 52.9749L66.8081 64.7516H62.59C62.3635 64.7516 62.1654 64.8082 61.9955 64.8931C63.5242 63.874 64.7982 62.0339 65.6758 59.4577C66.0438 58.4386 65.8739 57.2779 65.2228 56.4003C64.6 55.5227 63.5525 54.9848 62.4768 54.9848H41.7826C39.4329 54.9848 37.2248 55.8907 35.5545 57.561L30.1474 62.9681C29.6379 63.4776 28.9867 63.8457 28.3073 64.0155V62.0339C28.3073 61.2412 27.6845 60.6184 26.8918 60.6184H22.419V60.5618C22.419 59.7691 21.7961 59.1463 21.0035 59.1463H2.29096C1.4983 59.1463 0.875488 59.7691 0.875488 60.5618C0.875488 61.3544 1.4983 61.9772 2.29096 61.9772H19.588V62.0339V93.4007V96.1184H2.29096C1.4983 96.1184 0.875488 96.7412 0.875488 97.5339C0.875488 98.3265 1.4983 98.9494 2.29096 98.9494H21.0035C21.7961 98.9494 22.419 98.3265 22.419 97.5339V94.8162H26.8918C27.6845 94.8162 28.3073 94.1934 28.3073 93.4007V87.7388H37.1682C39.1215 87.7388 41.0466 87.3991 42.8584 86.6914ZM76.2635 54.3337C76.2918 54.3054 76.2918 54.2771 76.3201 54.2205C76.3484 54.1639 78.7264 49.4362 83.2276 49.4362C83.8504 49.4362 84.5015 49.5211 85.1526 49.691L82.0386 56.0606L71.649 62.1754L76.2635 54.3337ZM25.4764 91.9852H22.419V63.4493H25.4764V65.5725V86.3233V91.9852ZM28.3073 66.9031C29.7511 66.6766 31.1099 65.9972 32.1574 64.9497L37.5645 59.5426C38.6969 58.4103 40.1973 57.7875 41.7826 57.7875H62.4768C62.7316 57.7875 62.8448 57.929 62.9014 58.0139C62.958 58.0989 63.043 58.2687 62.958 58.5235C62.3919 60.1938 61.0896 62.9964 58.9381 62.9964H43.9058C43.1131 62.9964 42.4903 63.6192 42.4903 64.4119C42.4903 65.2045 43.1131 65.8273 43.9058 65.8273H58.9381C59.9006 65.8273 60.8065 65.5725 61.6558 65.0913C61.3444 65.3461 61.1462 65.7424 61.1462 66.1954C61.1462 66.988 61.769 67.6108 62.5617 67.6108H67.6857C67.7423 67.6108 67.799 67.6108 67.8839 67.6108C67.9122 67.6108 67.9122 67.6108 67.9405 67.6108C67.9971 67.6108 68.0254 67.5825 68.082 67.5825C68.1104 67.5825 68.1387 67.5542 68.167 67.5542C68.1953 67.5542 68.2519 67.5259 68.2802 67.5259C68.3368 67.4976 68.3935 67.4693 68.4501 67.441L77.9054 61.8923L83.8787 58.382L85.5207 57.4194C85.549 57.4194 85.549 57.3911 85.5773 57.3911C85.6339 57.3628 90.588 54.2205 95.2308 56.7683C95.4856 56.9099 95.5422 57.1363 95.5422 57.2496C95.5422 57.3628 95.5139 57.5893 95.2874 57.7591L75.6407 71.2344C75.3293 71.4609 74.9895 71.6308 74.6215 71.7723L41.8675 84.0586C40.3671 84.6248 38.7818 84.9079 37.1682 84.9079H28.3073V66.9031Z" fill="#284172"/>
<path d="M17.9179 90.598C17.9179 88.2766 16.0495 86.4082 13.7281 86.4082C11.4068 86.4082 9.53833 88.2766 9.53833 90.598C9.53833 92.9193 11.4068 94.7878 13.7281 94.7878C16.0495 94.7878 17.9179 92.9193 17.9179 90.598ZM12.3693 90.598C12.3693 89.8336 12.9921 89.2391 13.7281 89.2391C14.4925 89.2391 15.087 89.8619 15.087 90.598C15.087 91.334 14.4642 91.9568 13.7281 91.9568C12.9638 91.9851 12.3693 91.3623 12.3693 90.598ZM73.4327 25.9393C73.1779 25.5429 72.725 25.3165 72.2437 25.3165C72.1305 25.3165 72.0455 25.3165 71.9606 25.3165C70.9415 25.3165 70.6584 25.1749 70.6584 25.1466C70.5734 25.09 70.262 24.8918 69.6675 24.1558C69.4128 23.8161 68.9881 23.6179 68.5635 23.6179C68.1388 23.6179 67.7425 23.7877 67.4594 24.1275C66.8932 24.8069 66.5818 25.005 66.4969 25.0334C66.4969 25.0334 66.1855 25.1749 65.223 25.1749C64.2321 25.1749 63.9207 25.0334 63.9207 25.0334C63.8358 24.9767 63.5244 24.7786 62.9582 24.0708C62.7034 23.7311 62.2788 23.533 61.8541 23.533C61.4295 23.533 61.0332 23.7311 60.7501 24.0425C60.1556 24.7503 59.8442 24.9484 59.7876 25.0051C59.7876 25.0051 59.5045 25.1466 58.4853 25.1466C58.4004 25.1466 58.3155 25.1466 58.2022 25.1466C57.721 25.1466 57.2963 25.3731 57.0132 25.7694C56.7584 26.1657 56.7018 26.647 56.8717 27.0999C58.1456 30.1857 59.2214 33.0166 60.0706 35.4795C60.9482 38.1123 61.571 40.7734 61.7126 45.2746C61.7409 46.0389 62.3637 46.6618 63.1281 46.6618H67.6859C68.4502 46.6618 69.073 46.0673 69.1013 45.2746C69.2429 40.462 69.5826 37.8292 70.3753 35.5362C71.1962 33.0732 72.272 30.2706 73.5459 27.2132C73.7441 26.8452 73.7158 26.3356 73.4327 25.9393ZM67.7142 34.6869C66.9215 37.0366 66.5252 39.5844 66.3553 43.8591H64.5152C64.2887 39.8109 63.6659 37.2064 62.7883 34.6303C62.0806 32.592 61.2596 30.3272 60.2688 27.8643C60.6085 27.7794 60.8916 27.6661 61.1464 27.5529C61.3729 27.4114 61.6277 27.2698 61.8824 27.0433C62.1372 27.2698 62.3637 27.4114 62.6185 27.5529C63.2413 27.8926 64.0906 28.0342 65.2513 28.0342C66.3836 28.0342 67.2046 27.8926 67.8274 27.5812C68.0539 27.468 68.2804 27.2981 68.5352 27.0999C68.7899 27.3264 69.0447 27.4963 69.2995 27.6378C69.5543 27.7794 69.8657 27.8926 70.2337 27.9775C69.2429 30.4405 68.3936 32.6769 67.7142 34.6869ZM69.0164 51.4744H61.9108C61.1181 51.4744 60.4953 52.0972 60.4953 52.8898C60.4953 53.6825 61.1181 54.3053 61.9108 54.3053H69.0164C69.8091 54.3053 70.4319 53.6825 70.4319 52.8898C70.4319 52.0972 69.8091 51.4744 69.0164 51.4744Z" fill="#284172"/>
<path d="M77.1127 42.7267C76.773 42.7267 76.405 42.5568 76.2068 42.2454C75.8671 41.7358 75.9804 41.0564 76.4899 40.7167C77.0561 40.3204 77.594 39.8957 78.1036 39.4711C78.5565 39.0748 79.2643 39.1314 79.6606 39.5843C80.0569 40.0373 80.0003 40.745 79.5473 41.1413C78.9812 41.6509 78.3584 42.1039 77.7355 42.5568C77.5374 42.6701 77.3392 42.7267 77.1127 42.7267ZM53.3611 42.6984C53.1347 42.6984 52.9082 42.6417 52.7383 42.5002C52.1155 42.0756 51.4927 41.5943 50.9265 41.0847C50.4736 40.6884 50.417 39.9807 50.8133 39.5277C51.2096 39.0748 51.9174 39.0181 52.3703 39.4145C52.8799 39.8674 53.4178 40.2921 53.9839 40.6884C54.4935 41.0281 54.6068 41.7358 54.267 42.2171C54.0406 42.5285 53.7008 42.6984 53.3611 42.6984ZM81.7838 38.2255C81.5573 38.2255 81.3308 38.1406 81.1327 37.999C80.6514 37.631 80.5382 36.9516 80.9062 36.442C81.3025 35.9041 81.6989 35.3096 82.0386 34.7434C82.35 34.2055 83.0294 34.0357 83.539 34.3471C84.0485 34.6585 84.2467 35.3379 83.9353 35.8475C83.539 36.4986 83.1143 37.1497 82.6614 37.7725C82.4632 38.0839 82.1235 38.2255 81.7838 38.2255ZM48.6901 38.1689C48.3504 38.1689 48.0107 38.0273 47.8125 37.7159C47.3595 37.0931 46.9349 36.442 46.5669 35.7909C46.2555 35.253 46.4536 34.5736 46.9632 34.2905C47.5011 33.9791 48.1805 34.1772 48.4636 34.6868C48.8033 35.2813 49.1713 35.8475 49.596 36.4137C49.964 36.8949 49.8508 37.6027 49.3695 37.9707C49.1713 38.0839 48.9166 38.1689 48.6901 38.1689ZM84.728 32.4504C84.6147 32.4504 84.5015 32.4221 84.3883 32.3937C83.7938 32.2239 83.4824 31.6011 83.6522 31.0066C83.8504 30.3555 84.0202 29.676 84.1335 29.0249C84.2467 28.4304 84.8129 28.0341 85.4357 28.1473C86.0302 28.2606 86.4265 28.8268 86.3133 29.4496C86.1717 30.1856 85.9736 30.95 85.7471 31.686C85.6339 32.139 85.2092 32.4504 84.728 32.4504ZM45.7742 32.3654C45.293 32.3654 44.8683 32.054 44.7268 31.5728C44.5003 30.8367 44.3304 30.1007 44.1889 29.3363C44.0756 28.7418 44.472 28.1473 45.0665 28.0624C45.661 27.9492 46.2555 28.3455 46.3404 28.94C46.4536 29.6194 46.6235 30.2705 46.8217 30.9217C46.9915 31.5161 46.6801 32.1106 46.0856 32.3088C46.0007 32.3654 45.8874 32.3654 45.7742 32.3654ZM85.5489 26.0241C84.9544 26.0241 84.4732 25.5712 84.4449 24.9767C84.4166 24.2972 84.3316 23.6178 84.2467 22.9384C84.1618 22.3439 84.5581 21.7777 85.1526 21.6645C85.7471 21.5795 86.3133 21.9759 86.4265 22.5704C86.5398 23.3347 86.6247 24.0991 86.653 24.8634C86.6813 25.4862 86.2001 25.9958 85.6056 26.0241C85.6056 26.0241 85.5773 26.0241 85.5489 26.0241ZM44.9815 25.9392C44.9532 25.9392 44.9532 25.9392 44.9249 25.9392C44.3021 25.9109 43.8492 25.4013 43.8775 24.7785C43.9058 24.0142 43.9907 23.2498 44.1323 22.4854C44.2455 21.8909 44.8117 21.4663 45.4062 21.5795C46.0007 21.6928 46.4253 22.259 46.3121 22.8535C46.1989 23.5329 46.1422 24.2123 46.0856 24.8917C46.0573 25.4579 45.576 25.9392 44.9815 25.9392ZM84.1618 19.6828C83.7371 19.6828 83.3125 19.428 83.1426 19.0034C82.8879 18.3806 82.5765 17.7578 82.2651 17.1633C81.982 16.6254 82.1518 15.946 82.6897 15.6629C83.2276 15.3798 83.907 15.5496 84.1901 16.0875C84.5581 16.7669 84.8978 17.4464 85.1809 18.1541C85.4074 18.7203 85.1526 19.3714 84.5864 19.5979C84.4449 19.6545 84.3033 19.6828 84.1618 19.6828ZM46.397 19.5979C46.2555 19.5979 46.1139 19.5696 45.9724 19.513C45.4062 19.2865 45.1514 18.6354 45.3779 18.0692C45.661 17.3614 46.0007 16.682 46.3687 16.0026C46.6801 15.4647 47.3312 15.2665 47.8691 15.5779C48.407 15.861 48.6052 16.5405 48.2937 17.0783C47.954 17.6728 47.6709 18.2956 47.4162 18.9185C47.2463 19.3431 46.8217 19.5979 46.397 19.5979ZM80.7363 14.1908C80.4249 14.1908 80.1135 14.0775 79.9154 13.8228C79.4624 13.3132 78.9812 12.8319 78.4716 12.3507C78.0186 11.9543 77.9903 11.2466 78.3867 10.7937C78.783 10.3407 79.4907 10.3124 79.9437 10.7087C80.5099 11.2183 81.0477 11.7562 81.5573 12.3507C81.9536 12.8036 81.9253 13.5114 81.4724 13.9077C81.2459 14.0775 80.9911 14.1908 80.7363 14.1908ZM49.8508 14.1059C49.596 14.1059 49.3129 14.0209 49.1147 13.8228C48.6618 13.4264 48.6335 12.7187 49.0298 12.2657C49.5394 11.6996 50.0772 11.1617 50.6434 10.6521C51.0964 10.2558 51.8041 10.2841 52.2004 10.737C52.5968 11.19 52.5685 11.8977 52.1155 12.2941C51.606 12.747 51.1247 13.2283 50.6717 13.7378C50.4736 13.9926 50.1622 14.1059 49.8508 14.1059ZM75.6973 10.0859C75.4991 10.0859 75.3292 10.0293 75.1594 9.94437C74.5649 9.60466 73.9421 9.29325 73.3193 9.01016C72.7531 8.75537 72.4983 8.10426 72.7531 7.53807C73.0079 6.97188 73.659 6.7171 74.2252 6.97188C74.9329 7.28329 75.6123 7.623 76.2635 8.01933C76.8013 8.33073 76.9712 9.01016 76.6598 9.51973C76.4333 9.88775 76.0653 10.0859 75.6973 10.0859ZM54.9182 10.0293C54.5218 10.0293 54.1538 9.83113 53.9556 9.46311C53.6442 8.92523 53.8424 8.24581 54.3803 7.96271C55.0314 7.59469 55.7391 7.22667 56.4186 6.94357C56.9847 6.68879 57.6359 6.94357 57.8623 7.50976C58.0888 8.07595 57.8623 8.72707 57.2961 8.95354C56.6733 9.23664 56.0505 9.54804 55.456 9.88775C55.2862 10.001 55.088 10.0293 54.9182 10.0293ZM69.639 7.76454C69.5541 7.76454 69.4975 7.76454 69.4126 7.73624C68.7332 7.59469 68.0537 7.48145 67.3743 7.42483C66.7798 7.36821 66.3268 6.83033 66.3835 6.20753C66.4401 5.61303 66.978 5.16008 67.6008 5.2167C68.3651 5.30163 69.1295 5.41486 69.8655 5.58472C70.46 5.69796 70.8564 6.29246 70.7148 6.88695C70.6016 7.39652 70.1486 7.76454 69.639 7.76454ZM61.0047 7.73624C60.4951 7.73624 60.0422 7.36821 59.9289 6.85864C59.8157 6.26415 60.1837 5.66965 60.7782 5.55641C61.5142 5.41486 62.2786 5.27332 63.043 5.2167C63.6658 5.16008 64.2036 5.61303 64.2603 6.20753C64.3169 6.80202 63.8639 7.36821 63.2694 7.42483C62.59 7.48145 61.9106 7.59469 61.2312 7.73624C61.1462 7.73624 61.0613 7.73624 61.0047 7.73624Z" fill="#5C77FF"/>
</svg>
