<svg width="111" height="111" viewBox="0 0 111 111" fill="none" xmlns="http://www.w3.org/2000/svg">
<circle cx="55.9106" cy="55.3687" r="51.0762" fill="white" stroke="white" stroke-width="8"/>
<g clip-path="url(#clip0_1_121)">
<path d="M102.055 55.3788C102.055 29.8937 81.3957 9.23389 55.9105 9.23389C30.4254 9.23389 9.76562 29.8937 9.76562 55.3788C9.76562 78.411 26.6401 97.5013 48.7004 100.963V68.7175H36.9839V55.3788H48.7004V45.2125C48.7004 33.6474 55.5895 27.2592 66.1299 27.2592C71.1787 27.2592 76.4594 28.1605 76.4594 28.1605V39.5165H70.6406C64.9083 39.5165 63.1207 43.0735 63.1207 46.7228V55.3788H75.9187L73.8728 68.7175H63.1207V100.963C85.1809 97.5013 102.055 78.411 102.055 55.3788Z" fill="#1877F2"/>
<path d="M73.8723 68.7176L75.9182 55.3788H63.1202V46.7228C63.1202 43.0735 64.9078 39.5165 70.6401 39.5165H76.4589V28.1605C76.4589 28.1605 71.1782 27.2593 66.1294 27.2593C55.589 27.2593 48.6999 33.6474 48.6999 45.2125V55.3788H36.9834V68.7176H48.6999V100.963C53.4776 101.711 58.3425 101.711 63.1202 100.963V68.7176H73.8723Z" fill="white"/>
</g>
<defs>
<clipPath id="clip0_1_121">
<rect width="92.2898" height="92.2898" fill="white" transform="translate(9.76562 9.23389)"/>
</clipPath>
</defs>
</svg>
