<svg width="88" height="88" viewBox="0 0 88 88" fill="none" xmlns="http://www.w3.org/2000/svg">
<circle cx="44.0002" cy="44.3884" r="39.4499" fill="white" stroke="white" stroke-width="8"/>
<g clip-path="url(#clip0_1_67)">
<path d="M24.386 51.7391L21.9334 60.8949L12.9693 61.0846C10.2903 56.1157 8.77075 50.4306 8.77075 44.3893C8.77075 38.5474 10.1915 33.0383 12.7099 28.1875H12.7118L20.6924 29.6506L24.1884 37.5834C23.4567 39.7165 23.0579 42.0065 23.0579 44.3893C23.0582 46.9754 23.5266 49.4531 24.386 51.7391Z" fill="#FBBB00"/>
<path d="M78.6147 37.8076C79.0193 39.9387 79.2303 42.1396 79.2303 44.389C79.2303 46.9112 78.9651 49.3715 78.4599 51.7447C76.745 59.8204 72.2638 66.8721 66.0561 71.8623L66.0541 71.8604L56.0021 71.3475L54.5795 62.4664C58.6986 60.0507 61.9177 56.2703 63.6134 51.7447H44.7751V37.8076H63.8882H78.6147Z" fill="#518EF8"/>
<path d="M66.054 71.8598L66.0559 71.8617C60.0185 76.7145 52.3492 79.618 44.0006 79.618C30.5843 79.618 18.9199 72.1192 12.9695 61.0838L24.3862 51.7383C27.3613 59.6784 35.0209 65.3307 44.0006 65.3307C47.8603 65.3307 51.4763 64.2873 54.5791 62.4659L66.054 71.8598Z" fill="#28B446"/>
<path d="M66.4875 17.2697L55.0746 26.6133C51.8633 24.606 48.0673 23.4465 44.0005 23.4465C34.8175 23.4465 27.0147 29.358 24.1886 37.5829L12.7119 28.187H12.71C18.5732 16.8826 30.3848 9.15918 44.0005 9.15918C52.5485 9.15918 60.3861 12.2041 66.4875 17.2697Z" fill="#F14336"/>
</g>
<defs>
<clipPath id="clip0_1_67">
<rect width="70.4593" height="70.4593" fill="white" transform="translate(8.77075 9.15918)"/>
</clipPath>
</defs>
</svg>
