<svg width="36" height="36" viewBox="0 0 36 36" fill="none" xmlns="http://www.w3.org/2000/svg">
<path d="M1.07665 12.0036L17.5663 21.5163C17.6981 21.5929 17.8478 21.6333 18.0002 21.6333C18.1527 21.6333 18.3024 21.5929 18.4342 21.5163L34.9238 12.0036C35.0557 11.9274 35.1652 11.8178 35.2413 11.686C35.4812 11.2709 35.339 10.7399 34.9238 10.5L18.4342 0.995765C18.165 0.843209 17.8355 0.843209 17.5663 0.995765L1.07665 10.5C0.944752 10.5762 0.835314 10.6857 0.759142 10.8175C0.51929 11.2327 0.661464 11.7637 1.07665 12.0036ZM18.0002 2.75016L32.7524 11.2526L18.0002 19.7636L3.24804 11.2526L18.0002 2.75016ZM34.0525 24.2826L18.0002 33.6462L1.94781 24.2826C1.534 24.0411 1.00281 24.1807 0.761261 24.5945C0.519713 25.0084 0.659345 25.5395 1.07315 25.7811L17.5628 35.4006C17.6954 35.4785 17.8464 35.5195 18.0002 35.5193C18.154 35.5195 18.3049 35.4785 18.4375 35.4006L34.9271 25.7811C35.3409 25.5395 35.4805 25.0084 35.239 24.5945C34.9975 24.1807 34.4663 24.0411 34.0525 24.2826ZM34.0525 17.3396L18.0002 26.7032L1.94781 17.3396C1.534 17.0981 1.00281 17.2377 0.761261 17.6515C0.519713 18.0653 0.659345 18.5965 1.07315 18.8381L17.5628 28.4576C17.6954 28.5355 17.8464 28.5765 18.0002 28.5763C18.154 28.5765 18.3049 28.5355 18.4375 28.4576L34.9271 18.8381C35.3409 18.5965 35.4805 18.0653 35.239 17.6515C34.9975 17.2377 34.4663 17.0981 34.0525 17.3396Z" fill="#21A6DF"/>
</svg>
