<svg width="40" height="40" viewBox="0 0 40 40" fill="none" xmlns="http://www.w3.org/2000/svg">
<path d="M29.6352 6.20732L26.8655 8.97705L27.7887 9.9003L30.5585 7.13056L29.6352 6.20732Z" fill="#21A6DF"/>
<path d="M32.4045 11.0942H28.7114V12.3999H32.4045V11.0942Z" fill="#21A6DF"/>
<path d="M25.6719 4.36084H24.3662V8.05391H25.6719V4.36084Z" fill="#21A6DF"/>
<path d="M26.5283 22.8066C26.9331 22.8066 27.1812 23.0175 27.1812 23.1331H28.4868C28.468 22.7693 28.3299 22.4218 28.0939 22.1443C27.8579 21.8668 27.5372 21.6747 27.1812 21.5976V20.8481H25.8755V21.5976C25.5195 21.6747 25.1987 21.8668 24.9627 22.1443C24.7267 22.4218 24.5887 22.7693 24.5698 23.1331C24.5906 23.3691 24.6579 23.5986 24.7677 23.8085C24.8776 24.0184 25.0278 24.2046 25.2098 24.3562C25.3918 24.5079 25.602 24.6221 25.8282 24.6923C26.0545 24.7625 26.2924 24.7872 26.5283 24.7651C26.9331 24.7651 27.1812 24.976 27.1812 25.0916C27.1812 25.2071 26.9331 25.418 26.5283 25.418C26.1236 25.418 25.8755 25.2071 25.8755 25.0916H24.5698C24.5887 25.4553 24.7267 25.8028 24.9627 26.0803C25.1987 26.3578 25.5195 26.5499 25.8755 26.627V27.3765H27.1812V26.627C27.5372 26.5499 27.8579 26.3578 28.0939 26.0803C28.3299 25.8028 28.468 25.4553 28.4868 25.0916C28.466 24.8556 28.3987 24.626 28.2889 24.4161C28.1791 24.2062 28.0289 24.02 27.8469 23.8684C27.6649 23.7167 27.4547 23.6025 27.2284 23.5323C27.0021 23.4622 26.7642 23.4374 26.5283 23.4595C26.1236 23.4595 25.8755 23.2486 25.8755 23.1331C25.8755 23.0175 26.1236 22.8066 26.5283 22.8066Z" fill="#21A6DF"/>
<path d="M29.331 19.7127L30.3566 19.274C30.4546 19.2319 30.5408 19.1665 30.6077 19.0834C30.6746 19.0004 30.7201 18.9022 30.7403 18.7974C30.7604 18.6927 30.7546 18.5846 30.7233 18.4826C30.6921 18.3807 30.6363 18.2879 30.5609 18.2125L26.3658 14.0174C27.2465 12.7933 27.2948 11.2533 26.4037 10.3615C26.1307 10.1028 25.8009 9.9116 25.4407 9.80333C25.0805 9.69506 24.7 9.67271 24.3296 9.73805C23.7568 9.8287 23.2145 10.0567 22.7491 10.4026L18.5553 6.20949C18.4798 6.1341 18.387 6.07836 18.285 6.04714C18.183 6.01592 18.0749 6.01017 17.9702 6.0304C17.8654 6.05062 17.7672 6.09621 17.6842 6.16317C17.6012 6.23012 17.5358 6.31641 17.4938 6.41448L13.3914 15.9902L6.55168 22.828C6.42929 22.9504 6.36054 23.1164 6.36054 23.2895C6.36054 23.4627 6.42929 23.6287 6.55168 23.7511L7.47348 24.6736L6.29381 25.8539C6.08519 26.0624 5.91969 26.3099 5.80677 26.5824C5.69386 26.8549 5.63574 27.1469 5.63574 27.4419C5.63574 27.7368 5.69386 28.0289 5.80677 28.3014C5.91969 28.5739 6.08519 28.8214 6.29381 29.0299L7.73331 30.4661C7.94186 30.6748 8.18947 30.8403 8.462 30.9532C8.73454 31.0661 9.02665 31.1243 9.32165 31.1243C9.61665 31.1243 9.90876 31.0661 10.1813 30.9532C10.4538 30.8403 10.7014 30.6748 10.91 30.4661L12.0903 29.2865L13.0147 30.2141C13.1371 30.3361 13.3028 30.4046 13.4756 30.4046C13.6484 30.4046 13.8141 30.3361 13.9365 30.2141L14.8622 29.2884L17.6309 32.0571C17.6737 32.0999 17.7223 32.1366 17.7752 32.1661L21.9298 34.4739C22.0538 34.5428 22.1969 34.5695 22.3375 34.5498C22.478 34.5301 22.6083 34.4652 22.7086 34.3649L24.5548 32.5186C24.6263 32.4472 24.6801 32.3602 24.7122 32.2644C24.7443 32.1686 24.7537 32.0667 24.7398 31.9666C24.7258 31.8666 24.6888 31.7712 24.6316 31.6879C24.5745 31.6045 24.4988 31.5356 24.4106 31.4865L20.3375 29.2238L17.6342 26.5204L20.7769 23.377L21.4049 23.1094C21.3393 23.4396 21.3061 23.7754 21.3057 24.1121C21.3044 25.0197 21.5396 25.912 21.9882 26.701C22.4368 27.49 23.0833 28.1485 23.8639 28.6115C24.6445 29.0746 25.5323 29.3262 26.4397 29.3416C27.3472 29.357 28.243 29.1356 29.0389 28.6993C29.8348 28.263 30.5032 27.6269 30.9783 26.8535C31.4534 26.0802 31.7188 25.1964 31.7483 24.2893C31.7777 23.3822 31.5703 22.483 31.1464 21.6805C30.7225 20.8779 30.0968 20.1997 29.331 19.7127ZM24.5144 11.03C24.6841 10.9963 24.8593 11.0016 25.0267 11.0456C25.1941 11.0896 25.3493 11.1711 25.4806 11.284C25.6653 11.5482 25.7595 11.8652 25.7489 12.1875C25.7383 12.5097 25.6235 12.8199 25.4218 13.0714L23.6938 11.3434C23.9438 11.1859 24.2228 11.0798 24.5144 11.0313V11.03ZM9.98884 29.5463C9.80976 29.7176 9.57146 29.8133 9.32361 29.8133C9.07575 29.8133 8.83746 29.7176 8.65837 29.5463L7.22214 28.1101C7.04589 27.9337 6.94689 27.6945 6.94689 27.4452C6.94689 27.1958 7.04589 26.9566 7.22214 26.7802L8.40181 25.5999L11.1724 28.3699L9.98884 29.5463ZM13.4795 28.8282L12.5577 27.9116L12.5525 27.9038L8.8614 24.21L8.85357 24.2055L7.9396 23.2915L11.634 19.5971L17.1746 25.1377L16.2606 26.0517C16.2567 26.0556 16.2521 26.0563 16.2482 26.0595L14.402 27.9064C14.3974 27.9103 14.3961 27.9162 14.3922 27.9207L13.4795 28.8282ZM19.4791 30.2089C19.522 30.2516 19.5706 30.2883 19.6233 30.3179L23.022 32.2072L22.1354 33.0951L18.4913 31.0713L15.7873 28.3679L16.7111 27.4416L19.4791 30.2089ZM20.1482 22.2254C20.0718 22.2586 20.0023 22.3057 19.9432 22.3645L18.0957 24.2127L12.5577 18.6721L14.4053 16.8245C14.4644 16.7658 14.5116 16.6962 14.5443 16.6196L18.3157 7.81219L28.9569 18.4534L27.6512 19.0135C26.5884 18.7769 25.4782 18.8805 24.4774 19.3095C23.4767 19.7385 22.6362 20.4713 22.0747 21.4042L20.1482 22.2254ZM26.5284 28.0291C25.7536 28.0291 24.9963 27.7994 24.3522 27.369C23.708 26.9386 23.206 26.3268 22.9095 25.6111C22.6131 24.8953 22.5355 24.1078 22.6866 23.3479C22.8378 22.5881 23.2108 21.8902 23.7586 21.3424C24.3064 20.7946 25.0044 20.4215 25.7642 20.2704C26.524 20.1192 27.3116 20.1968 28.0273 20.4933C28.7431 20.7898 29.3548 21.2918 29.7852 21.936C30.2156 22.5801 30.4454 23.3374 30.4454 24.1121C30.4443 25.1507 30.0313 26.1464 29.2969 26.8807C28.5626 27.6151 27.5669 28.0281 26.5284 28.0291Z" fill="#21A6DF"/>
<path d="M38.5685 18.6024C38.3498 18.4303 38.1577 18.2268 37.9986 17.9985C38.0957 17.7249 38.2371 17.4691 38.4171 17.2412C38.635 17.0058 38.8013 16.7273 38.9051 16.4237C39.009 16.1202 39.0482 15.7982 39.0203 15.4786C38.8597 14.8218 38.2212 14.4811 37.6572 14.1801C37.4025 14.0659 37.1665 13.9138 36.9573 13.729C36.9859 13.4413 37.0618 13.1603 37.1819 12.8973C37.3377 12.6152 37.4328 12.3037 37.461 11.9827C37.4892 11.6617 37.45 11.3384 37.3458 11.0334C37.1548 10.7721 36.9106 10.5541 36.6293 10.3939C36.348 10.2337 36.0359 10.1348 35.7137 10.1038C35.4388 10.0543 35.1729 9.96362 34.9251 9.83485C34.8856 9.54963 34.8929 9.2599 34.9466 8.97703C35.0312 8.66531 35.0495 8.33932 35.0004 8.02009C34.9513 7.70086 34.8358 7.39548 34.6613 7.12363C34.414 6.91601 34.1255 6.76315 33.8148 6.67516C33.5041 6.58716 33.1783 6.56602 32.8589 6.61312C32.5798 6.63092 32.2997 6.60693 32.0278 6.54196C31.9235 6.27528 31.8627 5.99359 31.8476 5.70764C31.8564 5.38401 31.797 5.06215 31.6733 4.76297C31.5496 4.46379 31.3643 4.19399 31.1295 3.97111C30.8403 3.82823 30.524 3.74852 30.2017 3.73726C29.8793 3.72601 29.5582 3.78347 29.2598 3.90582C28.9928 3.9915 28.7143 4.03554 28.434 4.03639C28.2703 3.80404 28.1453 3.54677 28.0638 3.27453C27.836 2.67589 27.5774 1.99694 26.9488 1.7567C26.6338 1.68803 26.3077 1.68746 25.9925 1.75501C25.6772 1.82256 25.38 1.95669 25.1208 2.1484C24.8805 2.29523 24.6195 2.40525 24.3466 2.47481C24.1348 2.28897 23.9537 2.07085 23.8099 1.82851C23.4444 1.30037 23.0265 0.701721 22.358 0.620117C22.0377 0.631345 21.7232 0.709863 21.4352 0.850568C21.1471 0.991272 20.8919 1.19101 20.6861 1.43681C20.486 1.64078 20.2551 1.81215 20.002 1.94471C19.7443 1.81501 19.51 1.64337 19.3087 1.43681C19.1027 1.19123 18.8474 0.991641 18.5594 0.850956C18.2714 0.710272 17.9571 0.631629 17.6368 0.620117C16.965 0.701721 16.5504 1.30037 16.1849 1.82851C16.0427 2.06655 15.8668 2.28271 15.6626 2.47024C15.3852 2.40556 15.1205 2.29525 14.8792 2.14383C14.6198 1.95249 14.3226 1.8186 14.0074 1.75106C13.6922 1.68353 13.3663 1.68389 13.0513 1.75213C12.4219 1.99302 12.1641 2.67197 11.9362 3.27062C11.855 3.5395 11.7344 3.79491 11.5785 4.02856C11.2945 4.03455 11.0116 3.99261 10.7415 3.90452C10.4431 3.7825 10.1222 3.72523 9.8 3.73648C9.4778 3.74774 9.16166 3.82726 8.87248 3.9698C8.63774 4.19274 8.4525 4.46255 8.32878 4.76171C8.20507 5.06088 8.14564 5.38271 8.15437 5.70633C8.13848 5.98889 8.08039 6.26747 7.98202 6.53282C7.70835 6.60472 7.42476 6.63141 7.14248 6.61181C6.82297 6.5645 6.49706 6.58561 6.18632 6.67373C5.87558 6.76186 5.58711 6.91499 5.34001 7.12298C5.16567 7.39499 5.05023 7.70048 5.00109 8.0198C4.95196 8.33912 4.97022 8.66519 5.05472 8.97703C5.10725 9.25685 5.11649 9.54308 5.08214 9.82571C4.83396 9.96165 4.5651 10.0558 4.28634 10.1045C3.96406 10.135 3.65194 10.2337 3.3706 10.3938C3.08926 10.5539 2.8451 10.772 2.65425 11.0334C2.54961 11.3384 2.51006 11.6618 2.53818 11.983C2.56629 12.3041 2.66143 12.6158 2.81746 12.8979C2.93549 13.1587 3.01235 13.4362 3.0453 13.7205C2.83702 13.9096 2.59961 14.0639 2.3422 14.1775C1.77815 14.4784 1.13903 14.8192 0.978433 15.476C0.950511 15.7956 0.989752 16.1175 1.09364 16.4211C1.19752 16.7246 1.36375 17.0031 1.58165 17.2386C1.75907 17.4648 1.90065 17.7169 2.00142 17.9861C1.84468 18.2196 1.65187 18.4267 1.43019 18.5998C1.15847 18.7796 0.927639 19.0146 0.752735 19.2895C0.577832 19.5643 0.46277 19.873 0.415039 20.1953C0.46327 20.5173 0.578695 20.8255 0.753814 21.0999C0.928932 21.3743 1.15983 21.6088 1.4315 21.7882C1.65025 21.9603 1.84231 22.1638 2.00142 22.3921C1.90432 22.6657 1.76295 22.9215 1.58296 23.1494C1.36502 23.3848 1.19877 23.6633 1.09488 23.9669C0.990998 24.2704 0.951776 24.5924 0.979739 24.912C1.14034 25.5688 1.77881 25.9095 2.34285 26.2105C2.59755 26.3247 2.8335 26.4768 3.04269 26.6616C3.0141 26.9493 2.93822 27.2303 2.81812 27.4933C2.6623 27.7754 2.56723 28.0869 2.53901 28.4079C2.51079 28.7289 2.55004 29.0522 2.65425 29.3571C2.84527 29.6185 3.08946 29.8365 3.37076 29.9967C3.65206 30.1569 3.96409 30.2558 4.28634 30.2868C4.56115 30.3366 4.82697 30.4273 5.07496 30.5557C5.11438 30.841 5.10711 31.1307 5.05341 31.4136C4.96881 31.7253 4.95049 32.0513 4.99963 32.3705C5.04876 32.6897 5.16427 32.9951 5.3387 33.267C5.58601 33.4746 5.87452 33.6274 6.18521 33.7154C6.4959 33.8034 6.82171 33.8246 7.14117 33.7775C7.42018 33.76 7.70024 33.784 7.97223 33.8486C8.07653 34.1153 8.13736 34.397 8.15241 34.683C8.1436 35.0066 8.20299 35.3284 8.32671 35.6276C8.45043 35.9268 8.63572 36.1966 8.87052 36.4195C9.15971 36.5624 9.47599 36.6421 9.79836 36.6533C10.1207 36.6646 10.4418 36.6071 10.7402 36.4848C11.0071 36.3988 11.2857 36.3547 11.5661 36.3542C11.7297 36.5866 11.8547 36.8438 11.9362 37.1161C12.1641 37.7147 12.4226 38.3937 13.0513 38.6339C13.3663 38.7024 13.6923 38.7029 14.0075 38.6354C14.3227 38.5679 14.6199 38.4338 14.8792 38.2422C15.124 38.1042 15.3838 37.9947 15.6535 37.9158C15.8652 38.1016 16.0463 38.3197 16.1901 38.5621C16.5557 39.0902 16.9735 39.6889 17.642 39.7705C17.9625 39.7599 18.2771 39.6817 18.5653 39.5409C18.8534 39.4002 19.1085 39.2001 19.3139 38.9538C19.514 38.7498 19.7449 38.5784 19.9981 38.4459C20.2557 38.5756 20.49 38.7472 20.6914 38.9538C21.0833 39.4029 21.6236 39.6962 22.2138 39.7803C22.2629 39.7798 22.3119 39.7767 22.3607 39.7711C23.0324 39.6895 23.447 39.0909 23.8126 38.5627C23.9547 38.3247 24.1306 38.1085 24.3348 37.921C24.6132 37.9825 24.8785 38.0931 25.1182 38.2474C25.3777 38.4385 25.6749 38.5723 25.9901 38.6398C26.3052 38.7073 26.6311 38.7071 26.9461 38.6391C27.5755 38.3982 27.8333 37.7193 28.0612 37.1206C28.1432 36.8523 28.2645 36.5976 28.4209 36.3647C28.7048 36.3602 28.9874 36.4021 29.2578 36.4887C29.5562 36.6109 29.8771 36.6682 30.1994 36.657C30.5216 36.6457 30.8378 36.5661 31.1269 36.4234C31.3616 36.2005 31.5469 35.9307 31.6706 35.6315C31.7943 35.3323 31.8537 35.0105 31.845 34.6869C31.8609 34.4043 31.919 34.1257 32.0174 33.8604C32.2922 33.7878 32.5772 33.7609 32.8608 33.7807C33.1803 33.8281 33.5062 33.8069 33.817 33.7188C34.1277 33.6307 34.4162 33.4776 34.6633 33.2696C34.8376 32.9977 34.953 32.6923 35.0021 32.3731C35.0513 32.0539 35.033 31.7279 34.9486 31.4162C34.8961 31.1364 34.8869 30.8501 34.9212 30.5675C35.1693 30.4316 35.4382 30.3374 35.717 30.2887C36.0392 30.2582 36.3513 30.1595 36.6327 29.9994C36.914 29.8393 37.1582 29.6212 37.349 29.3598C37.4537 29.0548 37.4932 28.7314 37.4651 28.4102C37.437 28.0891 37.3419 27.7774 37.1858 27.4953C37.0678 27.2345 36.9909 26.957 36.958 26.6727C37.1663 26.4836 37.4037 26.3293 37.6611 26.2157C38.2251 25.9148 38.8643 25.574 39.0249 24.9172C39.0528 24.5976 39.0135 24.2757 38.9097 23.9721C38.8058 23.6686 38.6395 23.3901 38.4216 23.1546C38.2442 22.9284 38.1026 22.6763 38.0019 22.4071C38.1586 22.1736 38.3514 21.9665 38.5731 21.7934C38.8445 21.613 39.0749 21.3775 39.2492 21.1021C39.4236 20.8268 39.538 20.5178 39.585 20.1953C39.5368 19.8733 39.4213 19.5651 39.2462 19.2907C39.0711 19.0163 38.8402 18.7818 38.5685 18.6024ZM37.695 20.8174C37.2025 21.1562 36.8494 21.6621 36.7014 22.2413C36.7119 22.847 36.9375 23.4292 37.3379 23.8838C37.5045 24.1024 37.6449 24.3396 37.7564 24.5908C37.5463 24.7864 37.3049 24.9453 37.0422 25.0609C36.484 25.2751 36.0209 25.682 35.7365 26.2079C35.6019 26.7968 35.681 27.4144 35.9598 27.9503C36.0703 28.2042 36.1505 28.4702 36.1987 28.7428C35.9491 28.8793 35.6787 28.9739 35.3984 29.0229C34.8022 29.0952 34.2519 29.3796 33.8479 29.8239C33.578 30.3631 33.5086 30.9807 33.652 31.5663C33.6991 31.84 33.714 32.1183 33.6964 32.3954C33.4226 32.4676 33.1388 32.4945 32.8562 32.4751C32.2599 32.402 31.6571 32.5467 31.1589 32.8824C30.7687 33.3409 30.555 33.9236 30.5563 34.5256C30.5363 34.8027 30.4853 35.0766 30.4042 35.3423C30.1223 35.3452 29.8418 35.3031 29.5731 35.2176C29.01 35.0028 28.3883 34.9984 27.8223 35.2052C27.3328 35.5541 26.9867 36.0689 26.8482 36.6539C26.7634 36.9183 26.6491 37.1723 26.5074 37.4111C26.2333 37.3492 25.9718 37.2406 25.7345 37.09C25.2388 36.7435 24.6345 36.5884 24.0332 36.6532C23.4748 36.8724 23.0156 37.288 22.7419 37.8218C22.5958 38.0578 22.4236 38.2768 22.2288 38.4746C21.9803 38.3454 21.7538 38.1777 21.5577 37.9778C21.1563 37.5203 20.6031 37.2233 20 37.1415C19.3982 37.2243 18.8463 37.5212 18.4456 37.9778C18.2529 38.1668 18.0406 38.3349 17.8124 38.4792C17.5938 38.2918 17.4077 38.0697 17.2614 37.8218C16.9877 37.2888 16.5294 36.8736 15.972 36.6539C15.8699 36.6288 15.7651 36.6161 15.66 36.616C15.1662 36.6627 14.6905 36.8254 14.2714 37.0906C14.0378 37.2282 13.79 37.3402 13.5324 37.4249C13.3662 37.1902 13.2394 36.93 13.157 36.6545C13.0182 36.0697 12.6722 35.5551 12.183 35.2059C11.6168 34.9994 10.9953 35.0038 10.4321 35.2183C10.1706 35.2951 9.90163 35.3435 9.62977 35.3626C9.52453 35.0954 9.46324 34.813 9.44828 34.5263C9.44944 33.9242 9.23604 33.3414 8.84637 32.8824C8.34799 32.5469 7.74537 32.4023 7.14901 32.4751C6.87519 32.4891 6.60067 32.4711 6.33101 32.4215C6.29219 32.1374 6.29968 31.8488 6.3532 31.567C6.49628 30.9813 6.42688 30.3639 6.15735 29.8246C5.75353 29.3803 5.20348 29.0961 4.60753 29.0236C4.33736 28.9711 4.07438 28.8867 3.82413 28.7722C3.85414 28.4882 3.92975 28.2109 4.04805 27.9509C4.32559 27.4141 4.40312 26.796 4.26675 26.2072C3.982 25.6816 3.51901 25.2749 2.96109 25.0602C2.70797 24.9442 2.47044 24.7968 2.25407 24.6215C2.35109 24.3553 2.48992 24.1063 2.66535 23.8838C3.06556 23.4291 3.29115 22.8469 3.30186 22.2413C3.15385 21.6621 2.80083 21.1562 2.30825 20.8174C2.08585 20.6416 1.88821 20.4365 1.7207 20.2077C1.75073 20.0726 2.1124 19.7468 2.30825 19.5732C2.80083 19.2344 3.15385 18.7285 3.30186 18.1493C3.29143 17.5436 3.0658 16.9614 2.66535 16.5068C2.49742 16.2884 2.35566 16.0511 2.24297 15.7998C2.45305 15.6042 2.69447 15.4453 2.95717 15.3297C3.51533 15.1155 3.97845 14.7086 4.26283 14.1827C4.39748 13.5938 4.31834 12.9762 4.03956 12.4403C3.92903 12.1864 3.84883 11.9204 3.80063 11.6478C4.05031 11.5113 4.32069 11.4167 4.601 11.3677C5.19719 11.2953 5.74749 11.011 6.15148 10.5667C6.42133 10.0275 6.49075 9.40991 6.34733 8.82426C6.30032 8.55057 6.28542 8.27232 6.30294 7.99517C6.57678 7.92296 6.8606 7.89605 7.14313 7.91552C7.73951 7.98858 8.34223 7.84393 8.8405 7.50815C9.23071 7.04971 9.4444 6.467 9.44306 5.86497C9.46507 5.58813 9.51807 5.31462 9.60104 5.04959C9.88297 5.04609 10.1636 5.0882 10.4321 5.17428C10.9953 5.38872 11.6168 5.39313 12.183 5.18668C12.6725 4.83775 13.0186 4.32298 13.157 3.73804C13.2418 3.47363 13.3562 3.2196 13.4978 2.98076C13.772 3.04267 14.0334 3.15132 14.2708 3.30195C14.7665 3.64821 15.3708 3.80335 15.972 3.7387C16.5299 3.51874 16.9884 3.10277 17.2614 2.56882C17.4075 2.33275 17.5796 2.11378 17.7745 1.91599C18.023 2.0452 18.2495 2.21287 18.4456 2.4128C18.8462 2.8696 19.3981 3.16654 20 3.24907C20.6019 3.16632 21.1537 2.86941 21.5544 2.4128C21.7472 2.22376 21.9594 2.05569 22.1877 1.91142C22.4074 2.09851 22.5946 2.32064 22.7419 2.56882C23.0145 3.10171 23.4716 3.51728 24.028 3.73804C24.6279 3.80101 25.2304 3.64599 25.7254 3.3013C25.959 3.16372 26.2068 3.05166 26.4644 2.96705C26.6306 3.2017 26.7574 3.4619 26.8397 3.73739C26.9786 4.32216 27.3246 4.83681 27.8138 5.18603C28.3798 5.39312 29.0016 5.38871 29.5647 5.17362C29.826 5.09644 30.0951 5.04806 30.367 5.02935C30.4722 5.29648 30.5335 5.5789 30.5485 5.86563C30.5473 6.4677 30.7607 7.05049 31.1504 7.50946C31.6488 7.84496 32.2514 7.98959 32.8478 7.91683C33.1216 7.90283 33.3961 7.92079 33.6658 7.97036C33.7046 8.25454 33.6971 8.54313 33.6436 8.82491C33.5005 9.41059 33.5699 10.028 33.8394 10.5673C34.2432 11.0116 34.7933 11.2959 35.3892 11.3684C35.6594 11.4208 35.9224 11.5052 36.1726 11.6197C36.1426 11.9037 36.067 12.181 35.9487 12.441C35.6697 12.9768 35.5903 13.5944 35.7248 14.1834C36.0095 14.709 36.4725 15.1157 37.0305 15.3304C37.2836 15.4464 37.5211 15.5938 37.7375 15.7691C37.6404 16.0353 37.5016 16.2843 37.3262 16.5068C36.926 16.9615 36.7004 17.5437 36.6897 18.1493C36.8377 18.7285 37.1907 19.2344 37.6833 19.5732C37.9123 19.7492 38.1132 19.959 38.2793 20.1953C38.1168 20.4308 37.9199 20.6405 37.695 20.8174Z" fill="#21A6DF"/>
</svg>
