<svg width="85" height="86" viewBox="0 0 85 86" fill="none" xmlns="http://www.w3.org/2000/svg">
<circle cx="42.5292" cy="43.0314" r="38.4035" fill="white" stroke="white" stroke-width="8"/>
<path fill-rule="evenodd" clip-rule="evenodd" d="M42.5292 76.9305C61.251 76.9305 76.4281 61.7535 76.4281 43.0317C76.4281 24.3098 61.251 9.13281 42.5292 9.13281C23.8074 9.13281 8.63037 24.3098 8.63037 43.0317C8.63037 61.7535 23.8074 76.9305 42.5292 76.9305Z" fill="#007EBB"/>
<path fill-rule="evenodd" clip-rule="evenodd" d="M64.1866 62.806H55.6736V48.3065C55.6736 44.3311 54.1631 42.1095 51.0166 42.1095C47.5936 42.1095 45.8052 44.4214 45.8052 48.3065V62.806H37.6011V35.1847H45.8052V38.9053C45.8052 38.9053 48.272 34.3408 54.1334 34.3408C59.9921 34.3408 64.1866 37.9185 64.1866 45.3179V62.806ZM27.8136 31.5679C25.0191 31.5679 22.7546 29.2857 22.7546 26.471C22.7546 23.6563 25.0191 21.374 27.8136 21.374C30.6081 21.374 32.8712 23.6563 32.8712 26.471C32.8712 29.2857 30.6081 31.5679 27.8136 31.5679ZM23.5773 62.806H32.1321V35.1847H23.5773V62.806Z" fill="white"/>
</svg>
