<svg width="35" height="35" viewBox="0 0 35 35" fill="none" xmlns="http://www.w3.org/2000/svg">
<path d="M1.03867 19.1952C1.03867 13.1446 1.03867 7.09388 1.03867 1.04321H28.3013C28.3013 1.04321 32.9749 1.40834 33.8577 6.36363C34.7404 11.3189 28.9764 13.1967 26.0164 14.0313C24.0431 14.6051 14.8517 17.7869 9.0357 19.8733C6.17962 20.8644 4.1544 21.5946 4.1544 21.5946C4.1544 21.5946 1.14253 22.5857 1.03867 25.8197C0.986743 28.1669 1.0906 30.5141 1.03867 32.8614C1.03867 33.1744 1.0906 33.4873 1.29832 33.696C1.71375 34.0611 2.38882 33.9568 2.59654 33.9568C4.77754 33.6438 19.785 33.6438 22.641 33.696C25.0817 33.7481 26.7953 33.8525 28.8725 32.8092C30.5861 31.9747 32.0402 30.6185 32.7672 28.845C33.1307 28.0104 34.3769 25.4024 33.5461 22.2206C32.9229 19.8733 31.5209 18.4128 30.8458 17.839" stroke="#FEFEFE" stroke-width="3" stroke-miterlimit="10" stroke-linecap="round" stroke-linejoin="round"/>
<path d="M11.4764 12.936C13.0824 12.936 14.3844 11.6282 14.3844 10.015C14.3844 8.40178 13.0824 7.09399 11.4764 7.09399C9.87032 7.09399 8.56836 8.40178 8.56836 10.015C8.56836 11.6282 9.87032 12.936 11.4764 12.936Z" stroke="#FEFEFE" stroke-width="3" stroke-miterlimit="10" stroke-linecap="round" stroke-linejoin="round"/>
<path d="M21.7064 27.4368C23.3124 27.4368 24.6144 26.129 24.6144 24.5157C24.6144 22.9025 23.3124 21.5947 21.7064 21.5947C20.1003 21.5947 18.7983 22.9025 18.7983 24.5157C18.7983 26.129 20.1003 27.4368 21.7064 27.4368Z" stroke="#FEFEFE" stroke-width="3" stroke-miterlimit="10" stroke-linecap="round" stroke-linejoin="round"/>
</svg>
