<svg width="41" height="36" viewBox="0 0 41 36" fill="none" xmlns="http://www.w3.org/2000/svg">
<path d="M30.5916 16.6574L21.2693 0.45512C21.0883 0.182048 20.8168 0 20.5 0C20.1832 0 19.8664 0.182048 19.7307 0.45512L0.135762 34.5891C-0.0452539 34.8622 -0.0452539 35.2263 0.135762 35.4994C0.271523 35.7724 0.5883 35.9545 0.905077 35.9545H7.96468V34.134H3.5298C3.07726 34.134 2.76049 33.6334 2.98675 33.2238L19.9117 3.7775C20.1832 3.32238 20.862 3.32238 21.1336 3.7775L29.5508 18.3869L30.5916 20.1618L31.6777 18.3869L30.5916 16.6574Z" fill="#FEFEFE"/>
<path d="M30.5916 16.6574L21.2693 0.45512C21.0883 0.182048 20.8168 0 20.5 0C20.1832 0 19.8664 0.182048 19.7307 0.45512L0.135762 34.5891C-0.0452539 34.8622 -0.0452539 35.2263 0.135762 35.4994C0.271523 35.7724 0.5883 35.9545 0.905077 35.9545H7.96468V34.134H3.5298C3.07726 34.134 2.76049 33.6334 2.98675 33.2238L19.9117 3.7775C20.1832 3.32238 20.862 3.32238 21.1336 3.7775L29.5508 18.3869L30.5916 20.1618L31.6777 18.3869L30.5916 16.6574Z" stroke="white"/>
<path d="M40.8642 35.4993C40.6832 35.7723 40.4117 35.9544 40.0949 35.9544H15.5673C13.6214 35.7268 12.2185 35.2717 11.8565 34.9531C11.4039 34.589 11.2229 34.1339 11.2229 34.1339C11.2031 34.094 11.1919 34.0541 11.1819 34.018C11.169 33.9718 11.1578 33.9319 11.1324 33.9064C10.6834 32.326 11.4816 31.1489 12.1571 30.1527L12.1732 30.1289L12.1733 30.1288C12.309 29.9468 12.4448 29.7648 12.5353 29.5372L19.3686 18.3868C19.5044 18.1592 19.7759 17.9772 20.0927 17.9316C20.3642 17.9316 20.681 18.0227 20.862 18.2502L25.9304 24.3488L29.5507 18.3412L30.5916 20.1162L26.8355 26.3514C26.6997 26.5789 26.4282 26.761 26.1114 26.8065C25.8399 26.8065 25.5231 26.7155 25.3421 26.4879L20.2284 20.4803L14.0739 30.5385C14.006 30.6522 13.9381 30.7546 13.8703 30.857C13.8024 30.9594 13.7345 31.0619 13.6666 31.1756C12.8973 32.3589 12.8521 32.541 12.8521 32.7686C12.8914 33.2433 13.3411 33.5805 13.4877 33.6904C13.5098 33.707 13.5249 33.7184 13.5309 33.7243C13.7571 33.8608 13.9381 33.9064 14.2097 33.9519C14.4889 34.0143 14.8531 34.0553 15.2879 34.1042C15.4873 34.1267 15.7016 34.1508 15.9293 34.1794H37.3344C37.8774 34.1794 38.1942 33.5878 37.9227 33.1327L30.5463 20.2072L31.6324 18.4323L40.8642 34.589C41.0452 34.8621 41.0452 35.2262 40.8642 35.4993Z" fill="#FEFEFE"/>
<path d="M40.8642 35.4993C40.6832 35.7723 40.4117 35.9544 40.0949 35.9544H15.5673C13.6214 35.7268 12.2185 35.2717 11.8565 34.9531C11.4039 34.589 11.2229 34.1339 11.2229 34.1339C11.2031 34.094 11.1919 34.0541 11.1819 34.018C11.169 33.9718 11.1578 33.9319 11.1324 33.9064C10.6834 32.326 11.4816 31.1489 12.1571 30.1527L12.1732 30.1289L12.1733 30.1288C12.309 29.9468 12.4448 29.7648 12.5353 29.5372L19.3686 18.3868C19.5044 18.1592 19.7759 17.9772 20.0927 17.9316C20.3642 17.9316 20.681 18.0227 20.862 18.2502L25.9304 24.3488L29.5507 18.3412L30.5916 20.1162L26.8355 26.3514C26.6997 26.5789 26.4282 26.761 26.1114 26.8065C25.8399 26.8065 25.5231 26.7155 25.3421 26.4879L20.2284 20.4803L14.0739 30.5385C14.006 30.6522 13.9381 30.7546 13.8703 30.857C13.8024 30.9594 13.7345 31.0619 13.6666 31.1756C12.8973 32.3589 12.8521 32.541 12.8521 32.7686C12.8914 33.2433 13.3411 33.5805 13.4877 33.6904C13.5098 33.707 13.5249 33.7184 13.5309 33.7243C13.7571 33.8608 13.9381 33.9064 14.2097 33.9519C14.4889 34.0143 14.8531 34.0553 15.2879 34.1042C15.4873 34.1267 15.7016 34.1508 15.9293 34.1794H37.3344C37.8774 34.1794 38.1942 33.5878 37.9227 33.1327L30.5463 20.2072L31.6324 18.4323L40.8642 34.589C41.0452 34.8621 41.0452 35.2262 40.8642 35.4993Z" stroke="white"/>
<path d="M38.7827 4.77878C38.3754 4.50571 37.7871 4.64225 37.5156 5.09737L36.339 7.05438L30.5917 16.6574L29.5056 18.4324L30.5465 20.2074L31.6325 18.4324L38.0133 7.82809L39.0994 6.00761C39.371 5.598 39.2352 5.00634 38.7827 4.77878Z" fill="#FEFEFE"/>
<path d="M38.7827 4.77878C38.3754 4.50571 37.7871 4.64225 37.5156 5.09737L36.339 7.05438L30.5917 16.6574L29.5056 18.4324L30.5465 20.2074L31.6325 18.4324L38.0133 7.82809L39.0994 6.00761C39.371 5.598 39.2352 5.00634 38.7827 4.77878Z" stroke="white"/>
<path d="M39.5971 11.5602C39.1898 11.5602 38.8278 11.2871 38.7373 10.8775L37.7417 6.64486L33.5331 7.9647C33.0353 8.10124 32.5375 7.82817 32.4018 7.37305C32.266 6.87242 32.5375 6.37178 32.9901 6.23525L38.1038 4.64233C38.33 4.5513 38.6015 4.59681 38.8278 4.73335C39.0541 4.86989 39.1898 5.05193 39.2804 5.32501L40.5022 10.5134C40.638 11.014 40.3212 11.5146 39.8234 11.6057C39.7329 11.5602 39.6424 11.5602 39.5971 11.5602Z" fill="#FEFEFE"/>
<path d="M39.5971 11.5602C39.1898 11.5602 38.8278 11.2871 38.7373 10.8775L37.7417 6.64486L33.5331 7.9647C33.0353 8.10124 32.5375 7.82817 32.4018 7.37305C32.266 6.87242 32.5375 6.37178 32.9901 6.23525L38.1038 4.64233C38.33 4.5513 38.6015 4.59681 38.8278 4.73335C39.0541 4.86989 39.1898 5.05193 39.2804 5.32501L40.5022 10.5134C40.638 11.014 40.3212 11.5146 39.8234 11.6057C39.7329 11.5602 39.6424 11.5602 39.5971 11.5602Z" stroke="white"/>
</svg>
