<svg width="1056" height="76" viewBox="0 0 1056 76" fill="none" xmlns="http://www.w3.org/2000/svg">
<path d="M183.246 54.0229L183.692 55.4551L183.246 54.0229ZM472.412 54.0229L471.768 55.3777L472.412 54.0229ZM839.73 7.94146L839.361 6.48752L839.73 7.94146ZM3.16395 38.527C3.86056 38.9753 4.78874 38.7741 5.23711 38.0775C5.68548 37.3809 5.48425 36.4527 4.78764 36.0043L3.16395 38.527ZM13.2004 40.6693C12.4575 40.3026 11.5581 40.6076 11.1914 41.3505C10.8248 42.0934 11.1298 42.9928 11.8727 43.3594L13.2004 40.6693ZM17.2254 45.8654C17.9822 46.2023 18.8689 45.8619 19.2058 45.105C19.5426 44.3482 19.2022 43.4616 18.4454 43.1247L17.2254 45.8654ZM27.4113 46.8256C26.6378 46.5291 25.7703 46.9157 25.4738 47.6893C25.1772 48.4628 25.5639 49.3303 26.3374 49.6268L27.4113 46.8256ZM31.8989 51.6704C32.6803 51.9455 33.5368 51.5351 33.8119 50.7537C34.087 49.9723 33.6766 49.1158 32.8952 48.8407L31.8989 51.6704ZM42.1119 51.8656C41.3196 51.6237 40.4812 52.07 40.2393 52.8623C39.9975 53.6546 40.4437 54.493 41.236 54.7349L42.1119 51.8656ZM46.9051 56.3906C47.7031 56.6133 48.5304 56.1469 48.7531 55.349C48.9758 54.551 48.5095 53.7237 47.7115 53.501L46.9051 56.3906ZM57.104 55.9249C56.298 55.7335 55.4894 56.2317 55.298 57.0377C55.1066 57.8437 55.6048 58.6523 56.4109 58.8437L57.104 55.9249ZM62.1656 60.1403C62.9758 60.3131 63.7727 59.7963 63.9455 58.9861C64.1183 58.1759 63.6015 57.3791 62.7913 57.2063L62.1656 60.1403ZM72.3457 59.0534C71.5295 58.9117 70.753 59.4585 70.6113 60.2748C70.4696 61.091 71.0165 61.8675 71.8327 62.0092L72.3457 59.0534ZM77.6616 62.9522C78.4809 63.0751 79.2447 62.5106 79.3676 61.6913C79.4905 60.872 78.926 60.1083 78.1067 59.9854L77.6616 62.9522ZM87.7213 61.2401C86.8979 61.1487 86.1563 61.7421 86.0649 62.5654C85.9735 63.3888 86.5669 64.1304 87.3902 64.2218L87.7213 61.2401ZM93.2636 64.8049C94.0889 64.8772 94.8164 64.2667 94.8887 63.4415C94.9609 62.6162 94.3505 61.8886 93.5252 61.8164L93.2636 64.8049ZM103.216 62.4741C102.389 62.4343 101.686 63.0728 101.646 63.9003C101.606 64.7277 102.245 65.4308 103.072 65.4707L103.216 62.4741ZM108.966 65.6843C109.794 65.7045 110.482 65.0494 110.502 64.2212C110.522 63.393 109.867 62.7053 109.039 62.6852L108.966 65.6843ZM118.758 62.7263C117.93 62.7395 117.269 63.4217 117.282 64.25C117.295 65.0784 117.978 65.7391 118.806 65.7259L118.758 62.7263ZM124.698 65.5597C125.526 65.5262 126.17 64.828 126.136 64.0003C126.103 63.1725 125.405 62.5287 124.577 62.5622L124.698 65.5597ZM134.278 61.9686C133.452 62.0364 132.838 62.7606 132.905 63.5863C132.973 64.4119 133.697 65.0263 134.523 64.9585L134.278 61.9686ZM140.39 64.4028C141.214 64.3143 141.81 63.5749 141.721 62.7512C141.633 61.9275 140.893 61.3315 140.07 61.42L140.39 64.4028ZM149.706 60.1775C148.887 60.3009 148.323 61.065 148.446 61.8842C148.57 62.7034 149.334 63.2674 150.153 63.144L149.706 60.1775ZM155.969 62.1912C156.785 62.0467 157.329 61.2683 157.185 60.4526C157.04 59.6369 156.262 59.0927 155.446 59.2371L155.969 62.1912ZM164.971 57.3372C164.162 57.5169 163.652 58.3181 163.832 59.1268C164.011 59.9355 164.813 60.4455 165.621 60.2658L164.971 57.3372ZM171.361 58.9118C172.164 58.7111 172.653 57.8968 172.452 57.0931C172.252 56.2893 171.437 55.8005 170.634 56.0013L171.361 58.9118ZM179.998 53.443C179.204 53.6788 178.751 54.5137 178.987 55.3079C179.223 56.1021 180.058 56.5547 180.852 56.3189L179.998 53.443ZM186.622 54.5319C187.411 54.2803 187.847 53.4365 187.596 52.6472C187.344 51.8579 186.5 51.422 185.711 51.6736L186.622 54.5319ZM195.195 48.5368C194.411 48.8054 193.994 49.6584 194.262 50.4421C194.531 51.2258 195.384 51.6434 196.167 51.3748L195.195 48.5368ZM201.848 49.3881C202.628 49.1098 203.035 48.2516 202.756 47.4713C202.478 46.6911 201.62 46.2842 200.84 46.5626L201.848 49.3881ZM210.213 43.1124C209.439 43.406 209.049 44.272 209.343 45.0467C209.636 45.8213 210.502 46.2112 211.277 45.9176L210.213 43.1124ZM216.936 43.7367C217.708 43.4348 218.088 42.5646 217.786 41.7932C217.484 41.0217 216.614 40.6412 215.843 40.9431L216.936 43.7367ZM225.121 37.2268C224.354 37.5403 223.987 38.4161 224.3 39.1829C224.614 39.9497 225.49 40.3172 226.257 40.0036L225.121 37.2268ZM231.83 37.7012C232.594 37.3824 232.956 36.5041 232.637 35.7395C232.318 34.9749 231.44 34.6135 230.675 34.9323L231.83 37.7012ZM239.902 31.0436C239.14 31.3674 238.784 32.248 239.108 33.0105C239.432 33.7731 240.312 34.1288 241.075 33.805L239.902 31.0436ZM246.61 31.4522C247.373 31.1283 247.728 30.2476 247.405 29.4851C247.081 28.7227 246.2 28.3671 245.437 28.6911L246.61 31.4522ZM254.682 24.7943C253.917 25.1126 253.555 25.9907 253.873 26.7555C254.192 27.5203 255.07 27.8823 255.834 27.5639L254.682 24.7943ZM261.387 25.2824C262.155 24.9716 262.525 24.0971 262.215 23.3292C261.904 22.5613 261.029 22.1907 260.261 22.5016L261.387 25.2824ZM269.625 18.8441C268.849 19.1343 268.455 19.9986 268.745 20.7745C269.035 21.5504 269.9 21.9442 270.676 21.6539L269.625 18.8441ZM276.305 19.6177C277.088 19.3451 277.501 18.49 277.228 17.7077C276.956 16.9254 276.1 16.5122 275.318 16.7848L276.305 19.6177ZM284.924 13.6868C284.13 13.9208 283.675 14.7547 283.909 15.5494C284.143 16.3441 284.977 16.7986 285.772 16.5646L284.924 13.6868ZM291.519 14.9802C292.322 14.7745 292.806 13.9572 292.6 13.1547C292.394 12.3522 291.577 11.8684 290.775 12.0741L291.519 14.9802ZM300.652 9.88586C299.838 10.0372 299.3 10.8202 299.452 11.6347C299.603 12.4492 300.386 12.9867 301.201 12.8354L300.652 9.88586ZM307.07 11.8751C307.89 11.7592 308.461 11.0003 308.345 10.18C308.229 9.35977 307.47 8.78874 306.65 8.90462L307.07 11.8751ZM316.729 7.85885C315.903 7.91385 315.277 8.62852 315.332 9.45512C315.387 10.2817 316.102 10.9072 316.928 10.8522L316.729 7.85885ZM322.861 10.5874C323.689 10.5684 324.345 9.88151 324.326 9.0533C324.307 8.22509 323.62 7.56914 322.792 7.5882L322.861 10.5874ZM332.931 7.7077C332.103 7.66996 331.402 8.31025 331.364 9.13781C331.326 9.96538 331.966 10.6668 332.794 10.7046L332.931 7.7077ZM338.717 11.0879C339.542 11.1568 340.268 10.5434 340.336 9.71784C340.405 8.89229 339.792 8.1672 338.966 8.09831L338.717 11.0879ZM349.018 9.23248C348.198 9.11673 347.439 9.68789 347.323 10.5082C347.207 11.3285 347.778 12.0873 348.599 12.2031L349.018 9.23248ZM354.484 13.1262C355.301 13.2668 356.077 12.7189 356.217 11.9025C356.358 11.0861 355.81 10.3103 354.994 10.1697L354.484 13.1262ZM364.89 12.109C364.081 11.932 363.281 12.4445 363.104 13.2538C362.927 14.0631 363.44 14.8627 364.249 15.0397L364.89 12.109ZM370.145 16.4048C370.95 16.6011 371.762 16.1079 371.958 15.3031C372.154 14.4982 371.661 13.6866 370.856 13.4903L370.145 16.4048ZM380.602 16.0529C379.805 15.8287 378.976 16.2935 378.752 17.091C378.528 17.8885 378.993 18.7168 379.79 18.941L380.602 16.0529ZM385.459 20.591C386.253 20.8296 387.089 20.3799 387.328 19.5866C387.566 18.7933 387.117 17.9567 386.323 17.7181L385.459 20.591ZM395.926 20.7523C395.14 20.4923 394.291 20.9192 394.031 21.7057C393.771 22.4923 394.198 23.3407 394.985 23.6007L395.926 20.7523ZM400.703 25.5375C401.486 25.8089 402.34 25.3943 402.611 24.6116C402.883 23.8289 402.468 22.9744 401.685 22.703L400.703 25.5375ZM411.106 26.084C410.329 25.7961 409.466 26.1924 409.178 26.9692C408.89 27.746 409.287 28.6091 410.064 28.897L411.106 26.084ZM415.744 31.0402C416.517 31.337 417.385 30.9506 417.682 30.1772C417.979 29.4038 417.592 28.5362 416.819 28.2393L415.744 31.0402ZM426.134 31.9071C425.365 31.5972 424.491 31.9688 424.181 32.7371C423.871 33.5054 424.243 34.3794 425.011 34.6893L426.134 31.9071ZM430.563 36.9587C431.328 37.2756 432.206 36.9121 432.523 36.1466C432.84 35.3812 432.476 34.5038 431.711 34.1869L430.563 36.9587ZM440.996 38.1089C440.235 37.7814 439.353 38.1328 439.025 38.8937C438.698 39.6547 439.049 40.537 439.81 40.8645L440.996 38.1089ZM445.273 43.2399C446.031 43.5731 446.916 43.2283 447.249 42.4698C447.582 41.7113 447.237 40.8264 446.479 40.4932L445.273 43.2399ZM455.698 44.6067C454.943 44.2649 454.055 44.5996 453.713 45.3542C453.371 46.1089 453.706 46.9977 454.46 47.3395L455.698 44.6067ZM459.881 49.8148C460.633 50.1613 461.524 49.8321 461.87 49.0795C462.217 48.327 461.888 47.4362 461.135 47.0897L459.881 49.8148ZM470.257 51.3427C469.508 50.9892 468.614 51.3099 468.261 52.0591C467.907 52.8083 468.228 53.7023 468.977 54.0558L470.257 51.3427ZM474.49 56.6457C475.243 56.9899 476.133 56.658 476.477 55.9045C476.821 55.151 476.49 54.2611 475.736 53.9169L474.49 56.6457ZM484.743 57.761C483.973 57.455 483.101 57.831 482.795 58.6008C482.489 59.3706 482.865 60.2428 483.635 60.5488L484.743 57.761ZM489.229 62.6765C490.008 62.9595 490.869 62.5576 491.152 61.779C491.434 61.0004 491.033 60.1398 490.254 59.8569L489.229 62.6765ZM499.546 62.9777C498.754 62.7331 497.914 63.1765 497.67 63.968C497.425 64.7595 497.869 65.5994 498.66 65.8439L499.546 62.9777ZM504.387 67.5237C505.186 67.7455 506.012 67.2782 506.234 66.48C506.456 65.6818 505.989 64.8549 505.19 64.6332L504.387 67.5237ZM514.702 67.0365C513.894 66.8522 513.09 67.3576 512.905 68.1653C512.721 68.9729 513.227 69.7771 514.034 69.9613L514.702 67.0365ZM519.869 71.2089C520.681 71.3711 521.471 70.8441 521.633 70.0317C521.796 69.2193 521.268 68.4292 520.456 68.267L519.869 71.2089ZM530.121 69.9765C529.302 69.8499 528.536 70.411 528.409 71.2297C528.283 72.0484 528.844 72.8147 529.662 72.9412L530.121 69.9765ZM535.568 73.7774C536.39 73.8832 537.142 73.3029 537.247 72.4812C537.353 71.6596 536.773 70.9077 535.951 70.8019L535.568 73.7774ZM545.713 71.857C544.888 71.7845 544.16 72.3947 544.088 73.22C544.015 74.0452 544.625 74.773 545.451 74.8455L545.713 71.857ZM551.397 75.298C552.224 75.3513 552.937 74.7244 552.99 73.8977C553.044 73.071 552.417 72.3575 551.59 72.3042L551.397 75.298ZM561.403 72.7539C560.575 72.7311 559.885 73.3839 559.862 74.212C559.839 75.0401 560.492 75.7299 561.32 75.7527L561.403 72.7539ZM567.283 75.8538C568.112 75.8591 568.788 75.1919 568.793 74.3635C568.798 73.5351 568.131 72.8592 567.303 72.8538L567.283 75.8538ZM577.132 72.752C576.303 72.7742 575.65 73.4635 575.672 74.2917C575.695 75.1198 576.384 75.7731 577.212 75.7509L577.132 72.752ZM583.161 75.5345C583.989 75.4966 584.629 74.7951 584.591 73.9675C584.553 73.1399 583.852 72.4998 583.024 72.5377L583.161 75.5345ZM592.844 71.9394C592.018 72.002 591.399 72.7223 591.462 73.5484C591.525 74.3745 592.245 74.9934 593.071 74.9308L592.844 71.9394ZM599.001 74.4309C599.826 74.3544 600.433 73.6237 600.356 72.7988C600.28 71.9739 599.549 71.3672 598.724 71.4437L599.001 74.4309ZM608.51 70.4033C607.687 70.5017 607.1 71.2482 607.199 72.0708C607.297 72.8934 608.044 73.4804 608.866 73.3821L608.51 70.4033ZM614.774 72.6301C615.595 72.5194 616.171 71.7641 616.06 70.9431C615.95 70.1221 615.194 69.5463 614.373 69.657L614.774 72.6301ZM624.111 68.2258C623.293 68.3558 622.735 69.1244 622.865 69.9425C622.995 70.7607 623.764 71.3186 624.582 71.1887L624.111 68.2258ZM630.451 70.2163C631.268 70.0756 631.815 69.2997 631.675 68.4833C631.534 67.6669 630.758 67.1192 629.942 67.26L630.451 70.2163ZM639.633 65.4846C638.819 65.6422 638.288 66.4292 638.445 67.2425C638.603 68.0558 639.39 68.5874 640.203 68.4299L639.633 65.4846ZM646.031 67.2655C646.843 67.0985 647.365 66.3054 647.198 65.494C647.031 64.6825 646.238 64.1601 645.427 64.327L646.031 67.2655ZM655.062 62.2528C654.253 62.4344 653.745 63.2368 653.927 64.0451C654.108 64.8534 654.911 65.3615 655.719 65.1799L655.062 62.2528ZM661.511 63.8482C662.318 63.6586 662.818 62.8511 662.628 62.0447C662.439 61.2383 661.631 60.7383 660.825 60.9279L661.511 63.8482ZM670.404 58.5956C669.601 58.7977 669.113 59.6128 669.315 60.4162C669.517 61.2196 670.332 61.707 671.136 61.5049L670.404 58.5956ZM676.89 60.0307C677.691 59.8217 678.172 59.0024 677.963 58.2008C677.754 57.3992 676.935 56.9188 676.133 57.1278L676.89 60.0307ZM685.66 54.5753C684.861 54.7949 684.391 55.6204 684.611 56.4192C684.831 57.218 685.656 57.6876 686.455 57.468L685.66 54.5753ZM692.179 55.8721C692.976 55.6467 693.439 54.8178 693.214 54.0206C692.989 53.2234 692.16 52.7599 691.362 52.9852L692.179 55.8721ZM700.837 50.2496C700.042 50.4836 699.588 51.3176 699.822 52.1123C700.056 52.9069 700.89 53.3614 701.685 53.1273L700.837 50.2496ZM707.381 51.431C708.174 51.1922 708.624 50.3556 708.385 49.5623C708.146 48.769 707.309 48.3195 706.516 48.5583L707.381 51.431ZM715.954 45.6712C715.163 45.9169 714.721 46.7575 714.966 47.5486C715.212 48.3398 716.053 48.7819 716.844 48.5362L715.954 45.6712ZM722.502 46.7642C723.292 46.5149 723.73 45.6723 723.481 44.8823C723.232 44.0923 722.389 43.654 721.599 43.9033L722.502 46.7642ZM731.009 40.898C730.221 41.1525 729.788 41.9979 730.042 42.7863C730.297 43.5746 731.142 44.0074 731.931 43.7528L731.009 40.898ZM737.571 41.9212C738.358 41.6641 738.788 40.8173 738.531 40.0297C738.274 39.2422 737.427 38.8123 736.64 39.0694L737.571 41.9212ZM746.009 35.9867C745.223 36.2472 744.797 37.0959 745.057 37.8823C745.318 38.6687 746.166 39.095 746.953 38.8345L746.009 35.9867ZM752.601 36.9574C753.387 36.6954 753.812 35.8459 753.55 35.06C753.288 34.2741 752.438 33.8493 751.653 34.1113L752.601 36.9574ZM761.021 30.9779C760.235 31.2413 759.812 32.0915 760.075 32.8769C760.339 33.6624 761.189 34.0856 761.974 33.8222L761.021 30.9779ZM767.586 31.9389C768.372 31.6753 768.795 30.8249 768.531 30.0396C768.267 29.2542 767.417 28.8313 766.632 29.0949L767.586 31.9389ZM776.01 25.9498C775.225 26.2127 774.801 27.0627 775.064 27.8483C775.327 28.6339 776.177 29.0576 776.962 28.7947L776.01 25.9498ZM782.582 26.9182C783.368 26.6564 783.793 25.8071 783.532 25.0211C783.27 24.2351 782.42 23.8101 781.634 24.0719L782.582 26.9182ZM791.013 20.9683C790.226 21.2268 789.797 22.0744 790.056 22.8614C790.314 23.6485 791.162 24.077 791.949 23.8185L791.013 20.9683ZM797.595 21.9752C798.383 21.7196 798.815 20.8736 798.559 20.0856C798.303 19.2976 797.457 18.866 796.669 19.1216L797.595 21.9752ZM806.096 16.1036C805.306 16.3528 804.867 17.1953 805.117 17.9853C805.366 18.7754 806.208 19.2138 806.998 18.9646L806.096 16.1036ZM812.632 17.2066C813.424 16.9624 813.867 16.1227 813.623 15.3311C813.379 14.5394 812.539 14.0957 811.748 14.3399L812.632 17.2066ZM821.222 11.4826C820.427 11.7163 819.973 12.55 820.206 13.3448C820.44 14.1396 821.274 14.5945 822.068 14.3608L821.222 11.4826ZM827.771 12.7143C828.568 12.4885 829.031 11.6594 828.805 10.8623C828.58 10.0652 827.751 9.60204 826.953 9.82779L827.771 12.7143ZM836.517 7.21994C835.715 7.42937 835.235 8.24891 835.445 9.05043C835.654 9.85194 836.474 10.3319 837.275 10.1225L836.517 7.21994ZM842.927 8.70536C843.733 8.51628 844.234 7.70915 844.045 6.90259C843.856 6.09603 843.049 5.59547 842.242 5.78455L842.927 8.70536ZM851.973 3.79448C851.157 3.93825 850.612 4.71619 850.756 5.53205C850.9 6.3479 851.678 6.89273 852.493 6.74895L851.973 3.79448ZM858.282 5.81966C859.102 5.70051 859.67 4.93933 859.551 4.11951C859.431 3.2997 858.67 2.7317 857.85 2.85085L858.282 5.81966ZM867.695 1.65219C866.871 1.734 866.269 2.46861 866.351 3.29299C866.433 4.11736 867.167 4.71934 867.992 4.63753L867.695 1.65219ZM873.841 4.13087C874.667 4.06947 875.287 3.34997 875.226 2.52382C875.164 1.69768 874.445 1.07772 873.619 1.13912L873.841 4.13087ZM883.51 0.594619C882.682 0.62485 882.035 1.32048 882.065 2.14836C882.096 2.97623 882.791 3.62285 883.619 3.59262L883.51 0.594619ZM889.496 3.43968C890.324 3.42663 890.985 2.74456 890.972 1.91623C890.959 1.08791 890.277 0.426999 889.449 0.440048L889.496 3.43968ZM899.345 0.44471C898.517 0.431304 897.835 1.09192 897.821 1.92024C897.808 2.74856 898.469 3.43091 899.297 3.44432L899.345 0.44471ZM905.179 3.59231C906.007 3.62044 906.701 2.97206 906.729 2.14411C906.758 1.31616 906.109 0.622172 905.281 0.594042L905.179 3.59231ZM915.16 1.06842C914.333 1.0174 913.622 1.64634 913.571 2.4732C913.52 3.30005 914.149 4.01171 914.975 4.06272L915.16 1.06842ZM920.848 4.47127C921.674 4.53515 922.395 3.91736 922.459 3.0914C922.523 2.26544 921.905 1.54408 921.079 1.48021L920.848 4.47127ZM930.926 2.36457C930.102 2.28049 929.366 2.88043 929.282 3.70458C929.198 4.52873 929.798 5.265 930.622 5.34908L930.926 2.36457ZM936.472 5.98737C937.295 6.08292 938.039 5.49328 938.135 4.67039C938.23 3.84749 937.641 3.10294 936.818 3.00739L936.472 5.98737ZM946.625 4.25755C945.804 4.14376 945.047 4.71673 944.933 5.5373C944.819 6.35788 945.392 7.11533 946.213 7.22911L946.625 4.25755ZM952.034 8.07436C952.853 8.19861 953.617 7.63536 953.742 6.8163C953.866 5.99725 953.303 5.23255 952.484 5.1083L952.034 8.07436ZM962.243 6.69268C961.427 6.55155 960.651 7.0989 960.51 7.91522C960.369 8.73154 960.916 9.5077 961.732 9.64883L962.243 6.69268ZM967.523 10.686C968.338 10.8369 969.12 10.2989 969.271 9.48438C969.422 8.66982 968.884 7.88713 968.07 7.73618L967.523 10.686ZM977.774 9.63427C976.963 9.46723 976.17 9.9896 976.003 10.801C975.836 11.6124 976.358 12.4056 977.169 12.5727L977.774 9.63427ZM982.918 13.7914C983.728 13.968 984.527 13.455 984.703 12.6456C984.88 11.8362 984.367 11.0369 983.558 10.8603L982.918 13.7914ZM993.209 13.0658C992.403 12.8732 991.594 13.3703 991.401 14.176C991.209 14.9818 991.706 15.7911 992.512 15.9836L993.209 13.0658ZM998.223 17.3849C999.026 17.5871 999.841 17.0999 1000.04 16.2965C1000.25 15.4932 999.759 14.6779 998.955 14.4757L998.223 17.3849ZM1008.53 16.9918C1007.73 16.7727 1006.9 17.2428 1006.68 18.0417C1006.47 18.8406 1006.94 19.6659 1007.73 19.885L1008.53 16.9918ZM1013.41 21.4809C1014.2 21.7107 1015.03 21.2517 1015.26 20.4558C1015.49 19.6599 1015.03 18.8284 1014.24 18.5986L1013.41 21.4809ZM1023.67 21.4451C1022.88 21.1959 1022.04 21.6343 1021.79 22.4243C1021.54 23.2144 1021.98 24.0569 1022.77 24.3061L1023.67 21.4451ZM1028.37 26.124C1029.15 26.3867 1030 25.9627 1030.27 25.177C1030.53 24.3913 1030.11 23.5414 1029.32 23.2788L1028.37 26.124ZM1038.65 26.572C1037.88 26.2818 1037.01 26.6756 1036.72 27.4515C1036.43 28.2275 1036.82 29.0917 1037.6 29.3819L1038.65 26.572ZM1043.09 31.5252C1043.86 31.8382 1044.74 31.4702 1045.05 30.7032C1045.36 29.9362 1045 29.0606 1044.23 28.7476L1043.09 31.5252ZM1053.29 32.8602C1052.56 32.4782 1051.65 32.7645 1051.27 33.4996C1050.89 34.2347 1051.18 35.1403 1051.91 35.5222L1053.29 32.8602ZM0.695242 36.8117C1.39647 37.3466 2.22232 37.9209 3.16395 38.527L4.78764 36.0043C3.89725 35.4312 3.13916 34.9028 2.51472 34.4264L0.695242 36.8117ZM11.8727 43.3594C13.5232 44.1741 15.3098 45.0128 17.2254 45.8654L18.4454 43.1247C16.5641 42.2873 14.8135 41.4654 13.2004 40.6693L11.8727 43.3594ZM26.3374 49.6268C28.1189 50.3098 29.9738 50.9926 31.8989 51.6704L32.8952 48.8407C30.996 48.172 29.1669 47.4987 27.4113 46.8256L26.3374 49.6268ZM41.236 54.7349C43.0778 55.2971 44.9682 55.85 46.9051 56.3906L47.7115 53.501C45.798 52.967 43.9307 52.4208 42.1119 51.8656L41.236 54.7349ZM56.4109 58.8437C58.2941 59.2909 60.2129 59.7239 62.1656 60.1403L62.7913 57.2063C60.8614 56.7947 58.9651 56.3668 57.104 55.9249L56.4109 58.8437ZM71.8327 62.0092C73.7488 62.3417 75.6922 62.6567 77.6616 62.9522L78.1067 59.9854C76.1603 59.6933 74.2395 59.3821 72.3457 59.0534L71.8327 62.0092ZM87.3902 64.2218C89.327 64.4368 91.2851 64.6318 93.2636 64.8049L93.5252 61.8164C91.5702 61.6452 89.6352 61.4526 87.7213 61.2401L87.3902 64.2218ZM103.072 65.4707C105.02 65.5645 106.985 65.6362 108.966 65.6843L109.039 62.6852C107.082 62.6376 105.141 62.5668 103.216 62.4741L103.072 65.4707ZM118.806 65.7259C120.757 65.6947 122.721 65.6397 124.698 65.5597L124.577 62.5622C122.625 62.6412 120.685 62.6955 118.758 62.7263L118.806 65.7259ZM134.523 64.9585C136.469 64.7989 138.425 64.614 140.39 64.4028L140.07 61.42C138.129 61.6284 136.198 61.811 134.278 61.9686L134.523 64.9585ZM150.153 63.144C152.084 62.8531 154.023 62.5358 155.969 62.1912L155.446 59.2371C153.526 59.5772 151.612 59.8904 149.706 60.1775L150.153 63.144ZM165.621 60.2658C167.529 59.842 169.442 59.391 171.361 58.9118L170.634 56.0013C168.741 56.474 166.853 56.919 164.971 57.3372L165.621 60.2658ZM180.852 56.3189C181.798 56.0381 182.744 55.7502 183.692 55.4551L182.8 52.5908C181.865 52.8819 180.931 53.1659 179.998 53.443L180.852 56.3189ZM183.692 55.4551C184.677 55.1484 185.653 54.8406 186.622 54.5319L185.711 51.6736C184.749 51.9803 183.778 52.2861 182.8 52.5908L183.692 55.4551ZM196.167 51.3748C198.092 50.7151 199.985 50.0525 201.848 49.3881L200.84 46.5626C198.989 47.2229 197.108 47.8813 195.195 48.5368L196.167 51.3748ZM211.277 45.9176C213.195 45.1904 215.081 44.463 216.936 43.7367L215.843 40.9431C213.997 41.6657 212.121 42.3892 210.213 43.1124L211.277 45.9176ZM226.257 40.0036C228.144 39.2318 230.001 38.4638 231.83 37.7012L230.675 34.9323C228.851 35.6927 227.001 36.458 225.121 37.2268L226.257 40.0036ZM241.075 33.805C242.944 33.0113 244.791 32.2253 246.61 31.4522L245.437 28.6911C243.614 29.4658 241.773 30.2495 239.902 31.0436L241.075 33.805ZM255.834 27.5639C257.703 26.7861 259.553 26.0249 261.387 25.2824L260.261 22.5016C258.416 23.2484 256.558 24.0135 254.682 24.7943L255.834 27.5639ZM270.676 21.6539C272.559 20.9492 274.434 20.2697 276.305 19.6177L275.318 16.7848C273.423 17.445 271.527 18.1323 269.625 18.8441L270.676 21.6539ZM285.772 16.5646C287.681 16.0023 289.595 15.4733 291.519 14.9802L290.775 12.0741C288.814 12.5765 286.866 13.1151 284.924 13.6868L285.772 16.5646ZM301.201 12.8354C303.137 12.4755 305.092 12.1546 307.07 11.8751L306.65 8.90462C304.628 9.19028 302.63 9.51828 300.652 9.88586L301.201 12.8354ZM316.928 10.8522C318.876 10.7226 320.852 10.6336 322.861 10.5874L322.792 7.5882C320.74 7.63541 318.72 7.72638 316.729 7.85885L316.928 10.8522ZM332.794 10.7046C334.734 10.793 336.707 10.9202 338.717 11.0879L338.966 8.09831C336.92 7.92756 334.909 7.79791 332.931 7.7077L332.794 10.7046ZM348.599 12.2031C350.526 12.475 352.487 12.7823 354.484 13.1262L354.994 10.1697C352.967 9.82077 350.976 9.50877 349.018 9.23248L348.599 12.2031ZM364.249 15.0397C366.181 15.4622 368.145 15.9169 370.145 16.4048L370.856 13.4903C368.834 12.9969 366.846 12.5367 364.89 12.109L364.249 15.0397ZM379.79 18.941C381.65 19.4639 383.54 20.0137 385.459 20.591L386.323 17.7181C384.387 17.1357 382.48 16.5809 380.602 16.0529L379.79 18.941ZM394.985 23.6007C396.863 24.2214 398.768 24.8669 400.703 25.5375L401.685 22.703C399.738 22.0277 397.818 21.3777 395.926 20.7523L394.985 23.6007ZM410.064 28.897C411.931 29.5891 413.824 30.3034 415.744 31.0402L416.819 28.2393C414.889 27.4985 412.985 26.7802 411.106 26.084L410.064 28.897ZM425.011 34.6893C426.839 35.4264 428.689 36.1828 430.563 36.9587L431.711 34.1869C429.828 33.4076 427.97 32.6477 426.134 31.9071L425.011 34.6893ZM439.81 40.8645C441.61 41.6392 443.431 42.4309 445.273 43.2399L446.479 40.4932C444.63 39.6813 442.803 38.8866 440.996 38.1089L439.81 40.8645ZM454.46 47.3395C456.248 48.1491 458.054 48.9741 459.881 49.8148L461.135 47.0897C459.304 46.2465 457.491 45.4189 455.698 44.6067L454.46 47.3395ZM468.977 54.0558C469.903 54.4926 470.833 54.9332 471.768 55.3777L473.056 52.6681C472.118 52.2225 471.185 51.7807 470.257 51.3427L468.977 54.0558ZM471.768 55.3777C472.674 55.808 473.581 56.2307 474.49 56.6457L475.736 53.9169C474.841 53.5081 473.948 53.0919 473.056 52.6681L471.768 55.3777ZM483.635 60.5488C485.494 61.2877 487.359 61.9968 489.229 62.6765L490.254 59.8569C488.411 59.1873 486.574 58.4888 484.743 57.761L483.635 60.5488ZM498.66 65.8439C500.564 66.4322 502.473 66.9919 504.387 67.5237L505.19 64.6332C503.304 64.109 501.422 63.5574 499.546 62.9777L498.66 65.8439ZM514.034 69.9613C515.974 70.404 517.919 70.8196 519.869 71.2089L520.456 68.267C518.533 67.8829 516.615 67.473 514.702 67.0365L514.034 69.9613ZM529.662 72.9412C531.627 73.2449 533.596 73.5234 535.568 73.7774L535.951 70.8019C534.004 70.5512 532.06 70.2762 530.121 69.9765L529.662 72.9412ZM545.451 74.8455C547.43 75.0193 549.412 75.1699 551.397 75.298L551.59 72.3042C549.628 72.1776 547.669 72.0288 545.713 71.857L545.451 74.8455ZM561.32 75.7527C563.306 75.8074 565.294 75.8409 567.283 75.8538L567.303 72.8538C565.334 72.8411 563.367 72.808 561.403 72.7539L561.32 75.7527ZM577.212 75.7509C579.194 75.6977 581.177 75.6254 583.161 75.5345L583.024 72.5377C581.058 72.6277 579.094 72.6993 577.132 72.752L577.212 75.7509ZM593.071 74.9308C595.047 74.7812 597.024 74.6143 599.001 74.4309L598.724 71.4437C596.763 71.6256 594.803 71.791 592.844 71.9394L593.071 74.9308ZM608.866 73.3821C610.836 73.1465 612.805 72.8957 614.774 72.6301L614.373 69.657C612.419 69.9206 610.464 70.1696 608.51 70.4033L608.866 73.3821ZM624.582 71.1887C626.539 70.8778 628.496 70.5535 630.451 70.2163L629.942 67.26C627.999 67.5949 626.055 67.9171 624.111 68.2258L624.582 71.1887ZM640.203 68.4299C642.148 68.0532 644.09 67.6649 646.031 67.2655L645.427 64.327C643.497 64.7242 641.565 65.1102 639.633 65.4846L640.203 68.4299ZM655.719 65.1799C657.652 64.7458 659.583 64.3017 661.511 63.8482L660.825 60.9279C658.906 61.3791 656.984 61.821 655.062 62.2528L655.719 65.1799ZM671.136 61.5049C673.057 61.0216 674.975 60.53 676.89 60.0307L676.133 57.1278C674.226 57.625 672.316 58.1145 670.404 58.5956L671.136 61.5049ZM686.455 57.468C688.366 56.9425 690.274 56.4104 692.179 55.8721L691.362 52.9852C689.465 53.5216 687.564 54.0518 685.66 54.5753L686.455 57.468ZM701.685 53.1273C703.588 52.5668 705.487 52.0011 707.381 51.431L706.516 48.5583C704.627 49.1268 702.734 49.6908 700.837 50.2496L701.685 53.1273ZM716.844 48.5362C718.735 47.9488 720.621 47.3579 722.502 46.7642L721.599 43.9033C719.722 44.4957 717.841 45.0852 715.954 45.6712L716.844 48.5362ZM731.931 43.7528C733.817 43.1438 735.697 42.533 737.571 41.9212L736.64 39.0694C734.769 39.6803 732.892 40.29 731.009 40.898L731.931 43.7528ZM746.953 38.8345C748.843 38.2085 750.726 37.5825 752.601 36.9574L751.653 34.1113C749.779 34.7359 747.897 35.3613 746.009 35.9867L746.953 38.8345ZM761.974 33.8222C763.853 33.1921 765.724 32.5641 767.586 31.9389L766.632 29.0949C764.769 29.7201 762.899 30.3479 761.021 30.9779L761.974 33.8222ZM776.962 28.7947C778.845 28.1646 780.719 27.5388 782.582 26.9182L781.634 24.0719C779.769 24.693 777.894 25.3193 776.01 25.9498L776.962 28.7947ZM791.949 23.8185C793.842 23.1967 795.725 22.582 797.595 21.9752L796.669 19.1216C794.795 19.7296 792.909 20.3455 791.013 20.9683L791.949 23.8185ZM806.998 18.9646C808.89 18.3681 810.768 17.7818 812.632 17.2066L811.748 14.3399C809.877 14.9171 807.993 15.5053 806.096 16.1036L806.998 18.9646ZM822.068 14.3608C823.986 13.7972 825.887 13.248 827.771 12.7143L826.953 9.82779C825.059 10.3644 823.148 10.9164 821.222 11.4826L822.068 14.3608ZM837.275 10.1225C838.221 9.87537 839.162 9.63295 840.098 9.3954L839.361 6.48752C838.417 6.72687 837.469 6.97107 836.517 7.21994L837.275 10.1225ZM840.098 9.3954C841.036 9.15763 841.979 8.92766 842.927 8.70536L842.242 5.78455C841.276 6.01092 840.316 6.2452 839.361 6.48752L840.098 9.3954ZM852.493 6.74895C854.406 6.41191 856.336 6.10246 858.282 5.81966L857.85 2.85085C855.876 3.13784 853.916 3.45204 851.973 3.79448L852.493 6.74895ZM867.992 4.63753C869.93 4.44519 871.88 4.2766 873.841 4.13087L873.619 1.13912C871.634 1.28662 869.659 1.45734 867.695 1.65219L867.992 4.63753ZM883.619 3.59262C885.571 3.52134 887.53 3.47064 889.496 3.43968L889.449 0.440048C887.463 0.47133 885.483 0.522565 883.51 0.594619L883.619 3.59262ZM899.297 3.44432C901.255 3.476 903.216 3.5256 905.179 3.59231L905.281 0.594042C903.301 0.526744 901.321 0.47669 899.345 0.44471L899.297 3.44432ZM914.975 4.06272C916.934 4.18354 918.892 4.31999 920.848 4.47127L921.079 1.48021C919.108 1.32775 917.134 1.19022 915.16 1.06842L914.975 4.06272ZM930.622 5.34908C932.576 5.54851 934.527 5.76154 936.472 5.98737L936.818 3.00739C934.859 2.77999 932.895 2.56544 930.926 2.36457L930.622 5.34908ZM946.213 7.22911C948.162 7.4994 950.103 7.78143 952.034 8.07436L952.484 5.1083C950.54 4.81348 948.587 4.52961 946.625 4.25755L946.213 7.22911ZM961.732 9.64883C963.676 9.98488 965.607 10.3309 967.523 10.686L968.07 7.73618C966.142 7.37896 964.199 7.03082 962.243 6.69268L961.732 9.64883ZM977.169 12.5727C979.105 12.9712 981.022 13.3778 982.918 13.7914L983.558 10.8603C981.65 10.4442 979.722 10.0352 977.774 9.63427L977.169 12.5727ZM992.512 15.9836C994.443 16.4452 996.348 16.9127 998.223 17.3849L998.955 14.4757C997.068 14.0006 995.152 13.5302 993.209 13.0658L992.512 15.9836ZM1007.73 19.885C1009.67 20.4146 1011.56 20.9471 1013.41 21.4809L1014.24 18.5986C1012.38 18.061 1010.47 17.5249 1008.53 16.9918L1007.73 19.885ZM1022.77 24.3061C1024.7 24.915 1026.57 25.5218 1028.37 26.124L1029.32 23.2788C1027.5 22.671 1025.62 22.059 1023.67 21.4451L1022.77 24.3061ZM1037.6 29.3819C1039.55 30.1129 1041.39 30.829 1043.09 31.5252L1044.23 28.7476C1042.49 28.0392 1040.63 27.3123 1038.65 26.572L1037.6 29.3819ZM1051.91 35.5222C1052.85 36.0075 1053.67 36.4691 1054.4 36.9039L1055.94 34.3342C1055.16 33.8607 1054.27 33.3684 1053.29 32.8602L1051.91 35.5222Z" fill="#52BD94" fill-opacity="0.5"/>
</svg>
