<svg width="51" height="51" viewBox="0 0 51 51" fill="none" xmlns="http://www.w3.org/2000/svg">
<path d="M26.199 40.7579V47.2096C26.1965 48.0643 25.8558 48.8833 25.2514 49.4877C24.647 50.0921 23.828 50.4328 22.9732 50.4354H3.61838C2.76363 50.4328 1.94462 50.0921 1.34022 49.4877C0.735812 48.8833 0.395131 48.0643 0.392578 47.2096V27.8547C0.395131 27 0.735812 26.1809 1.34022 25.5765C1.94462 24.9721 2.76363 24.6315 3.61838 24.6289H10.07V37.5321C10.0726 38.3869 10.4132 39.2059 11.0176 39.8103C11.622 40.4147 12.4411 40.7554 13.2958 40.7579H26.199Z" fill="#F1967F"/>
<path d="M26.1993 27.8547V40.7579H13.2961C12.4414 40.7554 11.6224 40.4147 11.0179 39.8103C10.4135 39.2059 10.0729 38.3869 10.0703 37.5321V24.6289H22.9735C23.8283 24.6315 24.6473 24.9721 25.2517 25.5765C25.8561 26.1809 26.1968 27 26.1993 27.8547V27.8547Z" fill="#ED6649"/>
<path d="M50.3929 3.66135V37.5323C50.3903 38.3871 50.0497 39.2061 49.4453 39.8105C48.8409 40.4149 48.0218 40.7556 47.1671 40.7581H26.1993V27.8549C26.1968 27.0001 25.8561 26.1811 25.2517 25.5767C24.6473 24.9723 23.8283 24.6316 22.9735 24.6291H10.0703V3.66135C10.0729 2.8066 10.4135 1.98759 11.0179 1.38318C11.6224 0.77878 12.4414 0.4381 13.2961 0.435547H47.1671C48.0218 0.4381 48.8409 0.77878 49.4453 1.38318C50.0497 1.98759 50.3903 2.8066 50.3929 3.66135V3.66135Z" fill="#F1967F"/>
<path d="M45.5543 10.9204C45.3405 10.9204 45.1353 10.8354 44.9841 10.6842C44.8329 10.5329 44.7479 10.3278 44.7479 10.1139V6.08165H40.7156C40.5017 6.08165 40.2966 5.99669 40.1454 5.84545C39.9941 5.69421 39.9092 5.48909 39.9092 5.2752C39.9092 5.06132 39.9941 4.85619 40.1454 4.70495C40.2966 4.55372 40.5017 4.46875 40.7156 4.46875H45.5543C45.7682 4.46875 45.9734 4.55372 46.1246 4.70495C46.2758 4.85619 46.3608 5.06132 46.3608 5.2752V10.1139C46.3608 10.3278 46.2758 10.5329 46.1246 10.6842C45.9734 10.8354 45.7682 10.9204 45.5543 10.9204Z" fill="#575854"/>
<path d="M29.4251 22.2094C29.2654 22.2097 29.1092 22.1625 28.9763 22.0739C28.8434 21.9853 28.7398 21.8593 28.6787 21.7118C28.6175 21.5642 28.6015 21.4018 28.6328 21.2452C28.664 21.0886 28.741 20.9448 28.8541 20.832L44.9831 4.70294C45.1352 4.55604 45.339 4.47476 45.5504 4.47659C45.7619 4.47843 45.9641 4.56324 46.1136 4.71277C46.2632 4.86229 46.348 5.06456 46.3498 5.27601C46.3517 5.48746 46.2704 5.69117 46.1235 5.84327L29.9944 21.9723C29.8436 22.1236 29.6388 22.2089 29.4251 22.2094Z" fill="#575854"/>
</svg>
