<svg width="29" height="51" viewBox="0 0 29 51" fill="none" xmlns="http://www.w3.org/2000/svg">
<path d="M24.8762 0.0976562H3.90842C2.12686 0.0976562 0.682617 1.5419 0.682617 3.32346V46.8718C0.682617 48.6534 2.12686 50.0977 3.90842 50.0977H24.8762C26.6577 50.0977 28.102 48.6534 28.102 46.8718V3.32346C28.102 1.5419 26.6577 0.0976562 24.8762 0.0976562Z" fill="#E0E0E2"/>
<path d="M28.102 6.54883H0.682617V40.4198H28.102V6.54883Z" fill="#82C8EC"/>
<path d="M14.3922 46.8723C15.283 46.8723 16.0051 46.1502 16.0051 45.2594C16.0051 44.3686 15.283 43.6465 14.3922 43.6465C13.5014 43.6465 12.7793 44.3686 12.7793 45.2594C12.7793 46.1502 13.5014 46.8723 14.3922 46.8723Z" fill="#AFAEB3"/>
<path d="M14.3924 4.13048C14.8378 4.13048 15.1988 3.76942 15.1988 3.32403C15.1988 2.87864 14.8378 2.51758 14.3924 2.51758C13.947 2.51758 13.5859 2.87864 13.5859 3.32403C13.5859 3.76942 13.947 4.13048 14.3924 4.13048Z" fill="#AFAEB3"/>
<path d="M23.263 22.6777H5.52111C4.63032 22.6777 3.9082 23.3999 3.9082 24.2906V25.9035C3.9082 26.7943 4.63032 27.5164 5.52111 27.5164H23.263C24.1538 27.5164 24.8759 26.7943 24.8759 25.9035V24.2906C24.8759 23.3999 24.1538 22.6777 23.263 22.6777Z" fill="#E0E0E2"/>
<path d="M23.263 30.7422H5.52111C4.63032 30.7422 3.9082 31.4643 3.9082 32.3551V33.968C3.9082 34.8588 4.63032 35.5809 5.52111 35.5809H23.263C24.1538 35.5809 24.8759 34.8588 24.8759 33.968V32.3551C24.8759 31.4643 24.1538 30.7422 23.263 30.7422Z" fill="#E0E0E2"/>
<path d="M14.3926 19.4532C16.6196 19.4532 18.4249 17.6479 18.4249 15.4209C18.4249 13.194 16.6196 11.3887 14.3926 11.3887C12.1657 11.3887 10.3604 13.194 10.3604 15.4209C10.3604 17.6479 12.1657 19.4532 14.3926 19.4532Z" fill="#FBEB9A"/>
</svg>
