<svg width="156" height="192" viewBox="0 0 156 192" fill="none" xmlns="http://www.w3.org/2000/svg">
<path d="M123.578 49.3723C120.777 36.7851 112.958 26.2476 102.17 19.8925L110.687 5.0475C111.549 3.54518 111.031 1.63121 109.529 0.767591C108.028 -0.0896643 106.114 0.42384 105.251 1.92616L96.5552 17.0809C90.9066 14.7171 84.6512 13.3994 78.0011 13.3994C71.351 13.3994 65.0977 14.7192 59.4491 17.0809L50.7535 1.92616C49.892 0.425962 47.9759 -0.0939081 46.4736 0.767591C44.9734 1.62909 44.4535 3.54518 45.315 5.0475L53.8324 19.8946C43.0446 26.2497 35.2253 36.7893 32.4244 49.3765C31.6987 52.6358 34.2386 55.7211 37.5764 55.7211H118.426C121.766 55.7168 124.303 52.6315 123.578 49.3723Z" fill="#3DDC84"/>
<path d="M99.4217 42.4525C97.2807 42.4525 95.5449 40.7168 95.5449 38.5779C95.5449 36.4369 97.2807 34.7012 99.4195 34.7012C101.561 34.7012 103.296 36.4369 103.296 38.5758C103.296 40.7147 101.563 42.4504 99.4217 42.4525Z" fill="white"/>
<path d="M56.5799 42.4525C54.4389 42.4525 52.7031 40.7168 52.7031 38.5779C52.7031 36.4369 54.4389 34.7012 56.5778 34.7012C58.7188 34.7012 60.4545 36.4369 60.4545 38.5758C60.4524 40.7168 58.7188 42.4504 56.5799 42.4525Z" fill="white"/>
<path d="M105.708 151.144H50.2922C39.8905 151.144 31.458 142.711 31.458 132.309V70.831C31.458 68.5585 33.2998 66.7188 35.5703 66.7188H120.428C122.701 66.7188 124.54 68.5606 124.54 70.831V132.309C124.542 142.711 116.11 151.144 105.708 151.144Z" fill="#3DDC84"/>
<path d="M11.2767 139.887C5.17828 139.887 0.236328 134.945 0.236328 128.846V77.7591C0.236328 71.6628 5.17828 66.7188 11.2767 66.7188C17.373 66.7188 22.317 71.6607 22.317 77.7591V128.846C22.3149 134.943 17.373 139.887 11.2767 139.887Z" fill="#3DDC84"/>
<path d="M144.724 139.887C138.626 139.887 133.684 134.945 133.684 128.846V77.7591C133.684 71.6628 138.626 66.7188 144.724 66.7188C150.82 66.7188 155.764 71.6607 155.764 77.7591V128.846C155.764 134.943 150.822 139.887 144.724 139.887Z" fill="#3DDC84"/>
<path d="M96.6497 191.322C90.5513 191.322 85.6094 186.38 85.6094 180.282V129.195C85.6094 123.098 90.5513 118.154 96.6497 118.154C102.746 118.154 107.69 123.096 107.69 129.195V180.282C107.69 186.38 102.748 191.322 96.6497 191.322Z" fill="#3DDC84"/>
<path d="M59.3509 191.322C53.2525 191.322 48.3105 186.38 48.3105 180.282V129.195C48.3105 123.098 53.2525 118.154 59.3509 118.154C65.4472 118.154 70.3912 123.096 70.3912 129.195V180.282C70.3912 186.38 65.4472 191.322 59.3509 191.322Z" fill="#3DDC84"/>
</svg>
