<svg width="195" height="196" viewBox="0 0 195 196" fill="none" xmlns="http://www.w3.org/2000/svg">
<path fill-rule="evenodd" clip-rule="evenodd" d="M195 42.5743V153.074C195.011 158.626 193.926 164.125 191.806 169.256C189.687 174.387 186.575 179.049 182.65 182.974C178.724 186.9 174.062 190.011 168.931 192.131C163.8 194.25 158.301 195.335 152.75 195.324H42.25C36.6986 195.335 31.1996 194.25 26.0686 192.131C20.9376 190.011 16.2756 186.9 12.3501 182.974C8.4246 179.049 5.31291 174.387 3.19358 169.256C1.07425 164.125 -0.0110071 158.626 8.41618e-05 153.074V42.5743C-0.0110071 37.0228 1.07425 31.5238 3.19358 26.3928C5.31291 21.2618 8.4246 16.5998 12.3501 12.6743C16.2756 8.74882 20.9376 5.63713 26.0686 3.5178C31.1996 1.39847 36.6986 0.313212 42.25 0.324303H152.75C158.301 0.313212 163.8 1.39847 168.931 3.5178C174.062 5.63713 178.724 8.74882 182.65 12.6743C186.575 16.5998 189.687 21.2618 191.806 26.3928C193.926 31.5238 195.011 37.0228 195 42.5743Z" fill="url(#paint0_linear_1_92)"/>
<path fill-rule="evenodd" clip-rule="evenodd" d="M134.225 112.449H158.437C160.807 112.449 163.081 113.391 164.757 115.067C166.433 116.743 167.375 119.016 167.375 121.387C167.375 123.757 166.433 126.03 164.757 127.706C163.081 129.383 160.807 130.324 158.437 130.324H134.225V112.449Z" fill="white"/>
<path fill-rule="evenodd" clip-rule="evenodd" d="M104.487 112.45C106.176 112.44 107.85 112.765 109.412 113.407C110.974 114.049 112.393 114.994 113.587 116.188C114.782 117.382 115.727 118.801 116.368 120.363C117.01 121.925 117.335 123.599 117.325 125.288C117.331 127.015 117 128.726 116.35 130.325H36.5625C34.1921 130.325 31.9188 129.384 30.2427 127.708C28.5666 126.031 27.625 123.758 27.625 121.388C27.625 119.017 28.5666 116.744 30.2427 115.068C31.9188 113.392 34.1921 112.45 36.5625 112.45H104.487ZM102.212 53.6254V69.2254H91.8124L79.1375 47.4504C78.5807 46.49 78.2188 45.4293 78.0723 44.3289C77.9259 43.2285 77.9978 42.1101 78.284 41.0375C78.5702 39.965 79.0651 38.9594 79.7402 38.0782C80.4154 37.1971 81.2577 36.4577 82.2188 35.9023C83.18 35.347 84.2413 34.9866 85.3418 34.8417C86.4424 34.6969 87.5608 34.7704 88.6329 35.0582C89.7051 35.3459 90.71 35.8422 91.5901 36.5186C92.4703 37.1951 93.2085 38.0384 93.7624 39.0004L102.212 53.6254ZM111.15 68.7379L155.512 145.6C156.698 147.647 157.021 150.082 156.411 152.367C155.802 154.653 154.31 156.603 152.262 157.788C150.215 158.973 147.781 159.296 145.496 158.687C143.21 158.077 141.26 156.585 140.075 154.538L113.262 107.9C110.825 103.35 109.037 99.7754 107.9 97.8254C105.229 93.2757 104.103 87.9841 104.689 82.7413C105.275 77.4984 107.541 72.5859 111.15 68.7379Z" fill="white"/>
<path fill-rule="evenodd" clip-rule="evenodd" d="M74.751 120.574H54.1135L100.751 39.8116C101.936 37.7645 103.886 36.272 106.172 35.6625C108.457 35.053 110.891 35.3764 112.938 36.5616C114.986 37.7468 116.478 39.6967 117.088 41.9823C117.697 44.2679 117.374 46.702 116.188 48.7491L74.751 120.574ZM63.8635 139.262L55.251 154.374C54.6642 155.388 53.8834 156.276 52.9534 156.988C52.0233 157.7 50.9621 158.221 49.8304 158.523C48.6987 158.825 47.5186 158.901 46.3575 158.747C45.1965 158.592 44.0772 158.211 43.0635 157.624C42.0499 157.037 41.1618 156.256 40.4499 155.326C39.738 154.396 39.2162 153.335 38.9144 152.203C38.6126 151.072 38.5367 149.892 38.691 148.731C38.8453 147.569 39.2267 146.45 39.8135 145.437L46.151 134.387C48.1191 133.407 50.2904 132.906 52.4885 132.924C54.7812 132.849 57.0511 133.399 59.0549 134.515C61.0588 135.632 62.721 137.272 63.8635 139.262Z" fill="white"/>
<defs>
<linearGradient id="paint0_linear_1_92" x1="97.4984" y1="195.324" x2="97.4984" y2="0.324312" gradientUnits="userSpaceOnUse">
<stop stop-color="#1D6FF2"/>
<stop offset="1" stop-color="#1AC8FC"/>
</linearGradient>
</defs>
</svg>
