<svg width="147" height="142" viewBox="0 0 147 142" fill="none" xmlns="http://www.w3.org/2000/svg">
<path d="M53.0346 121.701H13.9516C7.29919 121.701 1.8479 116.257 1.8479 109.522V32.4782C1.8479 25.8349 7.29919 20.3911 13.9516 20.3911H53.0346C59.687 20.3911 65.1383 25.8349 65.1383 32.4782V109.614C65.2307 116.257 59.7794 121.701 53.0346 121.701Z" stroke="white" stroke-width="4" stroke-miterlimit="10" stroke-linecap="round" stroke-linejoin="round"/>
<path d="M1.8479 42.72H65.2307" stroke="white" stroke-width="4" stroke-miterlimit="10" stroke-linecap="round" stroke-linejoin="round"/>
<path d="M14.3212 35.6153C16.0051 35.6153 17.3702 34.2521 17.3702 32.5705C17.3702 30.8889 16.0051 29.5256 14.3212 29.5256C12.6373 29.5256 11.2722 30.8889 11.2722 32.5705C11.2722 34.2521 12.6373 35.6153 14.3212 35.6153Z" fill="white"/>
<path d="M24.0226 35.6153C25.7066 35.6153 27.0717 34.2521 27.0717 32.5705C27.0717 30.8889 25.7066 29.5256 24.0226 29.5256C22.3387 29.5256 20.9736 30.8889 20.9736 32.5705C20.9736 34.2521 22.3387 35.6153 24.0226 35.6153Z" fill="white"/>
<path d="M11.8265 89.4996H55.4368" stroke="#52BD94" stroke-width="4" stroke-miterlimit="10" stroke-linecap="round" stroke-linejoin="round"/>
<path d="M11.8265 102.602H55.4368" stroke="white" stroke-width="4" stroke-miterlimit="10" stroke-linecap="round" stroke-linejoin="round"/>
<path d="M133.048 121.701H93.9654C87.313 121.701 81.8617 116.257 81.8617 109.614V32.4782C81.8617 25.8349 87.313 20.3911 93.9654 20.3911H133.048C139.701 20.3911 145.152 25.8349 145.152 32.4782V109.614C145.152 116.257 139.793 121.701 133.048 121.701Z" stroke="white" stroke-width="4" stroke-miterlimit="10" stroke-linecap="round" stroke-linejoin="round"/>
<path d="M81.8617 42.72H145.152" stroke="white" stroke-width="4" stroke-miterlimit="10" stroke-linecap="round" stroke-linejoin="round"/>
<path d="M94.335 35.6153C96.0189 35.6153 97.384 34.2521 97.384 32.5705C97.384 30.8889 96.0189 29.5256 94.335 29.5256C92.6511 29.5256 91.286 30.8889 91.286 32.5705C91.286 34.2521 92.6511 35.6153 94.335 35.6153Z" fill="white"/>
<path d="M104.036 35.6153C105.72 35.6153 107.085 34.2521 107.085 32.5705C107.085 30.8889 105.72 29.5256 104.036 29.5256C102.353 29.5256 100.987 30.8889 100.987 32.5705C100.987 34.2521 102.353 35.6153 104.036 35.6153Z" fill="white"/>
<path d="M91.8404 89.4996H135.451" stroke="white" stroke-width="4" stroke-miterlimit="10" stroke-linecap="round" stroke-linejoin="round"/>
<path d="M91.8404 102.602H135.451" stroke="#52BD94" stroke-width="4" stroke-miterlimit="10" stroke-linecap="round" stroke-linejoin="round"/>
<path d="M33.6317 128.252C33.6317 128.252 73.8234 155.102 112.537 128.252" stroke="#52BD94" stroke-width="4" stroke-miterlimit="10" stroke-linecap="round" stroke-linejoin="round"/>
<path d="M33.6317 13.7479C33.6317 13.7479 73.8234 -13.102 112.537 13.7479" stroke="#52BD94" stroke-width="4" stroke-miterlimit="10" stroke-linecap="round" stroke-linejoin="round"/>
<path d="M42.3168 79.3502H37.9742L36.4959 73.9987H29.9359L28.7348 77.8739C28.3652 78.9812 27.7184 79.5348 26.7945 79.5348C25.7781 79.5348 25.2238 78.9812 25.2238 77.9662C25.2238 77.7817 25.3162 77.4126 25.5009 76.859L31.5066 58.0364C31.599 57.5751 31.8762 57.1137 32.3381 56.7446C32.8001 56.3756 33.2621 56.191 33.7241 56.191C34.8328 56.191 35.4796 56.8369 35.8491 58.0364L42.3168 79.3502ZM35.6644 70.9539L33.5393 63.2034C33.5393 63.2034 33.4469 63.1111 33.4469 63.0188C33.3545 63.0188 33.3545 63.1111 33.3545 63.2034L31.0446 70.8616H35.6644V70.9539Z" fill="white"/>
<path d="M120.483 72.7992C120.483 74.9213 119.744 76.5821 118.173 77.7816C116.787 78.7966 115.031 79.3502 112.814 79.3502H108.471C107.64 79.3502 106.901 79.0734 106.346 78.4275C105.792 77.7816 105.515 77.1357 105.515 76.3053V56.4678H113.184C115.031 56.4678 116.417 56.8368 117.618 57.6673C118.912 58.5899 119.466 59.8817 119.466 61.6348C119.466 63.9415 118.265 65.6945 115.771 66.8018C118.912 67.909 120.483 69.8466 120.483 72.7992ZM115.678 62.0961C115.678 60.8044 115.216 59.9739 114.2 59.5126C113.553 59.1435 112.537 58.959 111.151 58.959H109.488V65.51H110.874C114.107 65.6023 115.678 64.4028 115.678 62.0961ZM116.14 72.5224C116.14 70.7693 115.401 69.6621 113.923 69.0162C113.184 68.7394 111.705 68.5548 109.488 68.4626V74.46C109.488 75.1981 109.58 75.6595 109.673 75.844C109.857 76.2131 110.227 76.3976 110.874 76.3976C112.537 76.3976 113.738 76.1208 114.569 75.6595C115.586 75.1059 116.14 74.0909 116.14 72.5224Z" fill="white"/>
</svg>
