<svg width="93" height="94" viewBox="0 0 93 94" fill="none" xmlns="http://www.w3.org/2000/svg">
<g clip-path="url(#clip0_1_138)">
<path d="M20.6705 0.394287C21.2154 0.394287 71.2756 0.394287 72.1838 0.394287C74.6904 0.394287 77.1244 0.793897 79.4857 1.62944C82.9006 2.8646 85.9885 5.04429 88.3135 7.87788C90.6748 10.7115 92.2369 14.199 92.7818 17.8318C92.9998 19.1759 93.0361 20.5201 93.0361 21.8642C93.0361 23.0994 93.0361 66.6205 93.0361 68.5822C93.0361 69.7447 93.0361 70.9435 93.0361 72.106C93.0361 73.7044 92.9635 75.3392 92.6365 76.9013C91.9099 80.4978 90.2025 83.8763 87.7322 86.6009C85.2982 89.3255 82.1013 91.3599 78.6502 92.4498C76.5431 93.1037 74.3635 93.3943 72.1474 93.3943C71.1666 93.3943 20.5252 93.3943 19.7623 93.358C16.0568 93.1763 12.3877 91.9775 9.29979 89.9068C6.28455 87.8724 3.81424 85.0388 2.21581 81.7693C0.835337 78.972 0.145102 75.8478 0.145102 72.7236C0.145102 71.997 0.145102 21.7916 0.145102 21.065C0.072446 17.9771 0.726352 14.9255 2.07049 12.1646C3.6326 8.89507 6.06659 6.02515 9.08182 3.99077C12.1697 1.88374 15.8025 0.648584 19.508 0.466943C19.8713 0.394287 20.2709 0.394287 20.6705 0.394287Z" fill="url(#paint0_linear_1_138)"/>
<path d="M52.567 14.199C83.2279 35.0513 73.3104 58.047 73.3104 58.047C73.3104 58.047 82.0291 67.8919 78.5053 76.5017C78.5053 76.5017 74.9088 70.4712 68.8783 70.4712C63.0658 70.4712 59.651 76.5017 47.9533 76.5017C21.9061 76.5017 9.59082 54.7412 9.59082 54.7412C33.0588 70.1806 49.0795 59.2458 49.0795 59.2458C38.508 53.1064 16.0209 23.7533 16.0209 23.7533C35.6018 40.4279 44.0662 44.8236 44.0662 44.8236C39.0166 40.6459 24.8486 20.2294 24.8486 20.2294C36.183 31.7091 58.7065 47.7298 58.7065 47.7298C65.1002 30.0017 52.567 14.199 52.567 14.199Z" fill="white"/>
</g>
<defs>
<linearGradient id="paint0_linear_1_138" x1="55.3239" y1="-2.92421" x2="37.7531" y2="96.7243" gradientUnits="userSpaceOnUse">
<stop stop-color="#FAAE42"/>
<stop offset="1" stop-color="#EF3E31"/>
</linearGradient>
<clipPath id="clip0_1_138">
<rect width="93" height="93" fill="white" transform="translate(0 0.394287)"/>
</clipPath>
</defs>
</svg>
