<svg width="257" height="24" viewBox="0 0 257 24" fill="none" xmlns="http://www.w3.org/2000/svg">
<path d="M0.94641 18V0.959999H4.25841V15.096H12.9464V18H0.94641ZM20.3643 18.24C19.3403 18.24 18.4203 18.072 17.6043 17.736C16.7883 17.384 16.0923 16.904 15.5163 16.296C14.9563 15.688 14.5243 14.992 14.2203 14.208C13.9163 13.424 13.7643 12.6 13.7643 11.736C13.7643 10.856 13.9163 10.024 14.2203 9.24C14.5243 8.456 14.9563 7.76 15.5163 7.152C16.0923 6.544 16.7883 6.072 17.6043 5.736C18.4203 5.384 19.3403 5.208 20.3643 5.208C21.3883 5.208 22.3003 5.384 23.1003 5.736C23.9163 6.072 24.6123 6.544 25.1883 7.152C25.7643 7.76 26.1963 8.456 26.4843 9.24C26.7883 10.024 26.9403 10.856 26.9403 11.736C26.9403 12.6 26.7883 13.424 26.4843 14.208C26.1963 14.992 25.7643 15.688 25.1883 16.296C24.6283 16.904 23.9403 17.384 23.1243 17.736C22.3083 18.072 21.3883 18.24 20.3643 18.24ZM17.0763 11.736C17.0763 12.472 17.2203 13.128 17.5083 13.704C17.7963 14.264 18.1883 14.704 18.6843 15.024C19.1803 15.344 19.7403 15.504 20.3643 15.504C20.9723 15.504 21.5243 15.344 22.0203 15.024C22.5163 14.688 22.9083 14.24 23.1963 13.68C23.5003 13.104 23.6523 12.448 23.6523 11.712C23.6523 10.992 23.5003 10.344 23.1963 9.768C22.9083 9.192 22.5163 8.744 22.0203 8.424C21.5243 8.104 20.9723 7.944 20.3643 7.944C19.7403 7.944 19.1803 8.112 18.6843 8.448C18.1883 8.768 17.7963 9.216 17.5083 9.792C17.2203 10.352 17.0763 11 17.0763 11.736ZM34.031 18.072C33.199 18.072 32.431 17.912 31.727 17.592C31.039 17.256 30.439 16.792 29.927 16.2C29.431 15.608 29.047 14.928 28.775 14.16C28.503 13.392 28.367 12.576 28.367 11.712C28.367 10.8 28.511 9.952 28.799 9.168C29.087 8.384 29.487 7.696 29.999 7.104C30.527 6.496 31.143 6.032 31.847 5.712C32.567 5.376 33.359 5.208 34.223 5.208C35.199 5.208 36.055 5.432 36.791 5.88C37.527 6.312 38.135 6.896 38.615 7.632V5.424H41.423V17.4C41.423 18.648 41.119 19.712 40.511 20.592C39.919 21.488 39.095 22.168 38.039 22.632C36.983 23.112 35.783 23.352 34.439 23.352C33.079 23.352 31.927 23.12 30.983 22.656C30.039 22.208 29.231 21.568 28.559 20.736L30.311 19.032C30.791 19.624 31.391 20.088 32.111 20.424C32.847 20.76 33.623 20.928 34.439 20.928C35.127 20.928 35.751 20.8 36.311 20.544C36.887 20.304 37.343 19.92 37.679 19.392C38.031 18.88 38.207 18.216 38.207 17.4V15.816C37.791 16.536 37.199 17.096 36.431 17.496C35.679 17.88 34.879 18.072 34.031 18.072ZM35.111 15.504C35.463 15.504 35.799 15.448 36.119 15.336C36.439 15.224 36.735 15.072 37.007 14.88C37.279 14.688 37.519 14.464 37.727 14.208C37.935 13.936 38.095 13.664 38.207 13.392V10.392C38.015 9.896 37.743 9.464 37.391 9.096C37.055 8.728 36.671 8.448 36.239 8.256C35.823 8.048 35.383 7.944 34.919 7.944C34.423 7.944 33.975 8.048 33.575 8.256C33.175 8.464 32.831 8.76 32.543 9.144C32.255 9.512 32.031 9.928 31.871 10.392C31.727 10.84 31.655 11.312 31.655 11.808C31.655 12.32 31.743 12.8 31.919 13.248C32.095 13.696 32.335 14.088 32.639 14.424C32.959 14.76 33.327 15.024 33.743 15.216C34.175 15.408 34.631 15.504 35.111 15.504ZM50.1299 18.24C49.1059 18.24 48.1859 18.072 47.3699 17.736C46.5539 17.384 45.8579 16.904 45.2819 16.296C44.7219 15.688 44.2899 14.992 43.9859 14.208C43.6819 13.424 43.5299 12.6 43.5299 11.736C43.5299 10.856 43.6819 10.024 43.9859 9.24C44.2899 8.456 44.7219 7.76 45.2819 7.152C45.8579 6.544 46.5539 6.072 47.3699 5.736C48.1859 5.384 49.1059 5.208 50.1299 5.208C51.1539 5.208 52.0659 5.384 52.8659 5.736C53.6819 6.072 54.3779 6.544 54.9539 7.152C55.5299 7.76 55.9619 8.456 56.2499 9.24C56.5539 10.024 56.7059 10.856 56.7059 11.736C56.7059 12.6 56.5539 13.424 56.2499 14.208C55.9619 14.992 55.5299 15.688 54.9539 16.296C54.3939 16.904 53.7059 17.384 52.8899 17.736C52.0739 18.072 51.1539 18.24 50.1299 18.24ZM46.8419 11.736C46.8419 12.472 46.9859 13.128 47.2739 13.704C47.5619 14.264 47.9539 14.704 48.4499 15.024C48.9459 15.344 49.5059 15.504 50.1299 15.504C50.7379 15.504 51.2899 15.344 51.7859 15.024C52.2819 14.688 52.6739 14.24 52.9619 13.68C53.2659 13.104 53.4179 12.448 53.4179 11.712C53.4179 10.992 53.2659 10.344 52.9619 9.768C52.6739 9.192 52.2819 8.744 51.7859 8.424C51.2899 8.104 50.7379 7.944 50.1299 7.944C49.5059 7.944 48.9459 8.112 48.4499 8.448C47.9539 8.768 47.5619 9.216 47.2739 9.792C46.9859 10.352 46.8419 11 46.8419 11.736ZM68.8362 0.959999H72.1962L78.4602 18H75.0522L73.4682 13.752H67.5162L65.9562 18H62.5482L68.8362 0.959999ZM72.8682 11.424L70.5162 4.392L68.0682 11.424H72.8682ZM87.5532 18.24C86.5772 18.24 85.7132 18.024 84.9612 17.592C84.2252 17.144 83.6492 16.544 83.2332 15.792V23.112H80.0172V5.424H82.8252V7.584C83.3052 6.848 83.9132 6.272 84.6492 5.856C85.3852 5.424 86.2252 5.208 87.1692 5.208C88.0172 5.208 88.7932 5.376 89.4972 5.712C90.2172 6.048 90.8412 6.52 91.3692 7.128C91.8972 7.72 92.3052 8.408 92.5932 9.192C92.8972 9.96 93.0492 10.792 93.0492 11.688C93.0492 12.904 92.8092 14.008 92.3292 15C91.8652 15.992 91.2172 16.784 90.3852 17.376C89.5692 17.952 88.6252 18.24 87.5532 18.24ZM86.4732 15.504C86.9692 15.504 87.4172 15.4 87.8172 15.192C88.2172 14.984 88.5612 14.704 88.8492 14.352C89.1532 13.984 89.3772 13.576 89.5212 13.128C89.6812 12.664 89.7612 12.184 89.7612 11.688C89.7612 11.16 89.6732 10.672 89.4972 10.224C89.3372 9.776 89.0972 9.384 88.7772 9.048C88.4572 8.696 88.0812 8.424 87.6492 8.232C87.2332 8.04 86.7772 7.944 86.2812 7.944C85.9772 7.944 85.6652 8 85.3452 8.112C85.0412 8.208 84.7452 8.352 84.4572 8.544C84.1692 8.736 83.9132 8.96 83.6892 9.216C83.4812 9.472 83.3292 9.752 83.2332 10.056V13.008C83.4252 13.472 83.6812 13.896 84.0012 14.28C84.3372 14.664 84.7212 14.968 85.1532 15.192C85.5852 15.4 86.0252 15.504 86.4732 15.504ZM102.764 18.24C101.788 18.24 100.924 18.024 100.172 17.592C99.4362 17.144 98.8602 16.544 98.4442 15.792V23.112H95.2282V5.424H98.0362V7.584C98.5162 6.848 99.1242 6.272 99.8602 5.856C100.596 5.424 101.436 5.208 102.38 5.208C103.228 5.208 104.004 5.376 104.708 5.712C105.428 6.048 106.052 6.52 106.58 7.128C107.108 7.72 107.516 8.408 107.804 9.192C108.108 9.96 108.26 10.792 108.26 11.688C108.26 12.904 108.02 14.008 107.54 15C107.076 15.992 106.428 16.784 105.596 17.376C104.78 17.952 103.836 18.24 102.764 18.24ZM101.684 15.504C102.18 15.504 102.628 15.4 103.028 15.192C103.428 14.984 103.772 14.704 104.06 14.352C104.364 13.984 104.588 13.576 104.732 13.128C104.892 12.664 104.972 12.184 104.972 11.688C104.972 11.16 104.884 10.672 104.708 10.224C104.548 9.776 104.308 9.384 103.988 9.048C103.668 8.696 103.292 8.424 102.86 8.232C102.444 8.04 101.988 7.944 101.492 7.944C101.188 7.944 100.876 8 100.556 8.112C100.252 8.208 99.9562 8.352 99.6682 8.544C99.3802 8.736 99.1242 8.96 98.9002 9.216C98.6922 9.472 98.5402 9.752 98.4442 10.056V13.008C98.6362 13.472 98.8922 13.896 99.2122 14.28C99.5482 14.664 99.9322 14.968 100.364 15.192C100.796 15.4 101.236 15.504 101.684 15.504ZM116.517 18V0.959999H122.709C124.565 0.959999 126.117 1.344 127.365 2.112C128.613 2.864 129.549 3.888 130.173 5.184C130.797 6.464 131.109 7.888 131.109 9.456C131.109 11.184 130.765 12.688 130.077 13.968C129.389 15.248 128.413 16.24 127.149 16.944C125.901 17.648 124.421 18 122.709 18H116.517ZM127.773 9.456C127.773 8.352 127.573 7.384 127.173 6.552C126.773 5.704 126.197 5.048 125.445 4.584C124.693 4.104 123.781 3.864 122.709 3.864H119.829V15.096H122.709C123.797 15.096 124.717 14.856 125.469 14.376C126.221 13.88 126.789 13.208 127.173 12.36C127.573 11.496 127.773 10.528 127.773 9.456ZM139.216 18.24C138.208 18.24 137.296 18.072 136.48 17.736C135.664 17.384 134.968 16.912 134.392 16.32C133.816 15.712 133.368 15.024 133.048 14.256C132.744 13.472 132.592 12.648 132.592 11.784C132.592 10.584 132.856 9.488 133.384 8.496C133.928 7.504 134.696 6.712 135.688 6.12C136.696 5.512 137.88 5.208 139.24 5.208C140.616 5.208 141.792 5.512 142.768 6.12C143.744 6.712 144.488 7.504 145 8.496C145.528 9.472 145.792 10.528 145.792 11.664C145.792 11.856 145.784 12.056 145.768 12.264C145.752 12.456 145.736 12.616 145.72 12.744H136C136.064 13.384 136.248 13.944 136.552 14.424C136.872 14.904 137.272 15.272 137.752 15.528C138.248 15.768 138.776 15.888 139.336 15.888C139.976 15.888 140.576 15.736 141.136 15.432C141.712 15.112 142.104 14.696 142.312 14.184L145.072 14.952C144.768 15.592 144.328 16.16 143.752 16.656C143.192 17.152 142.528 17.544 141.76 17.832C140.992 18.104 140.144 18.24 139.216 18.24ZM135.928 10.704H142.504C142.44 10.064 142.256 9.512 141.952 9.048C141.664 8.568 141.28 8.2 140.8 7.944C140.32 7.672 139.784 7.536 139.192 7.536C138.616 7.536 138.088 7.672 137.608 7.944C137.144 8.2 136.76 8.568 136.456 9.048C136.168 9.512 135.992 10.064 135.928 10.704ZM150.784 18L146.152 5.424H149.488L152.656 15.072L155.848 5.424H158.896L154.288 18H150.784ZM165.981 18.24C164.957 18.24 164.037 18.072 163.221 17.736C162.405 17.384 161.709 16.904 161.133 16.296C160.573 15.688 160.141 14.992 159.837 14.208C159.533 13.424 159.381 12.6 159.381 11.736C159.381 10.856 159.533 10.024 159.837 9.24C160.141 8.456 160.573 7.76 161.133 7.152C161.709 6.544 162.405 6.072 163.221 5.736C164.037 5.384 164.957 5.208 165.981 5.208C167.005 5.208 167.917 5.384 168.717 5.736C169.533 6.072 170.229 6.544 170.805 7.152C171.381 7.76 171.813 8.456 172.101 9.24C172.405 10.024 172.557 10.856 172.557 11.736C172.557 12.6 172.405 13.424 172.101 14.208C171.813 14.992 171.381 15.688 170.805 16.296C170.245 16.904 169.557 17.384 168.741 17.736C167.925 18.072 167.005 18.24 165.981 18.24ZM162.693 11.736C162.693 12.472 162.837 13.128 163.125 13.704C163.413 14.264 163.805 14.704 164.301 15.024C164.797 15.344 165.357 15.504 165.981 15.504C166.589 15.504 167.141 15.344 167.637 15.024C168.133 14.688 168.525 14.24 168.813 13.68C169.117 13.104 169.269 12.448 169.269 11.712C169.269 10.992 169.117 10.344 168.813 9.768C168.525 9.192 168.133 8.744 167.637 8.424C167.141 8.104 166.589 7.944 165.981 7.944C165.357 7.944 164.797 8.112 164.301 8.448C163.805 8.768 163.413 9.216 163.125 9.792C162.837 10.352 162.693 11 162.693 11.736ZM174.704 0.48H177.92V13.968C177.92 14.544 178.016 14.936 178.208 15.144C178.4 15.336 178.664 15.432 179 15.432C179.256 15.432 179.52 15.4 179.792 15.336C180.064 15.272 180.304 15.192 180.512 15.096L180.944 17.544C180.512 17.752 180.008 17.912 179.432 18.024C178.856 18.136 178.336 18.192 177.872 18.192C176.864 18.192 176.08 17.928 175.52 17.4C174.976 16.856 174.704 16.088 174.704 15.096V0.48ZM189.881 18.24C188.905 18.24 188.041 18.024 187.289 17.592C186.553 17.144 185.977 16.544 185.561 15.792V23.112H182.345V5.424H185.153V7.584C185.633 6.848 186.241 6.272 186.977 5.856C187.713 5.424 188.553 5.208 189.497 5.208C190.345 5.208 191.121 5.376 191.825 5.712C192.545 6.048 193.169 6.52 193.697 7.128C194.225 7.72 194.633 8.408 194.921 9.192C195.225 9.96 195.377 10.792 195.377 11.688C195.377 12.904 195.137 14.008 194.657 15C194.193 15.992 193.545 16.784 192.713 17.376C191.897 17.952 190.953 18.24 189.881 18.24ZM188.801 15.504C189.297 15.504 189.745 15.4 190.145 15.192C190.545 14.984 190.889 14.704 191.177 14.352C191.481 13.984 191.705 13.576 191.849 13.128C192.009 12.664 192.089 12.184 192.089 11.688C192.089 11.16 192.001 10.672 191.825 10.224C191.665 9.776 191.425 9.384 191.105 9.048C190.785 8.696 190.409 8.424 189.977 8.232C189.561 8.04 189.105 7.944 188.609 7.944C188.305 7.944 187.993 8 187.673 8.112C187.369 8.208 187.073 8.352 186.785 8.544C186.497 8.736 186.241 8.96 186.017 9.216C185.809 9.472 185.657 9.752 185.561 10.056V13.008C185.753 13.472 186.009 13.896 186.329 14.28C186.665 14.664 187.049 14.968 187.481 15.192C187.913 15.4 188.353 15.504 188.801 15.504ZM217.092 18H213.876V10.944C213.876 9.952 213.7 9.224 213.348 8.76C213.012 8.28 212.54 8.04 211.932 8.04C211.308 8.04 210.708 8.288 210.132 8.784C209.572 9.264 209.172 9.896 208.932 10.68V18H205.716V10.944C205.716 9.936 205.54 9.2 205.188 8.736C204.852 8.272 204.38 8.04 203.772 8.04C203.148 8.04 202.548 8.28 201.972 8.76C201.412 9.24 201.012 9.872 200.772 10.656V18H197.556V5.424H200.46V7.752C200.94 6.936 201.58 6.312 202.38 5.88C203.18 5.432 204.1 5.208 205.14 5.208C206.18 5.208 206.988 5.464 207.564 5.976C208.156 6.488 208.532 7.12 208.692 7.872C209.204 7.008 209.852 6.352 210.636 5.904C211.436 5.44 212.332 5.208 213.324 5.208C214.108 5.208 214.74 5.352 215.22 5.64C215.716 5.912 216.1 6.288 216.372 6.768C216.644 7.232 216.828 7.76 216.924 8.352C217.036 8.944 217.092 9.544 217.092 10.152V18ZM225.724 18.24C224.716 18.24 223.804 18.072 222.988 17.736C222.172 17.384 221.476 16.912 220.9 16.32C220.324 15.712 219.876 15.024 219.556 14.256C219.252 13.472 219.1 12.648 219.1 11.784C219.1 10.584 219.364 9.488 219.892 8.496C220.436 7.504 221.204 6.712 222.196 6.12C223.204 5.512 224.388 5.208 225.748 5.208C227.124 5.208 228.3 5.512 229.276 6.12C230.252 6.712 230.996 7.504 231.508 8.496C232.036 9.472 232.3 10.528 232.3 11.664C232.3 11.856 232.292 12.056 232.276 12.264C232.26 12.456 232.244 12.616 232.228 12.744H222.508C222.572 13.384 222.756 13.944 223.06 14.424C223.38 14.904 223.78 15.272 224.26 15.528C224.756 15.768 225.284 15.888 225.844 15.888C226.484 15.888 227.084 15.736 227.644 15.432C228.22 15.112 228.612 14.696 228.82 14.184L231.58 14.952C231.276 15.592 230.836 16.16 230.26 16.656C229.7 17.152 229.036 17.544 228.268 17.832C227.5 18.104 226.652 18.24 225.724 18.24ZM222.436 10.704H229.012C228.948 10.064 228.764 9.512 228.46 9.048C228.172 8.568 227.788 8.2 227.308 7.944C226.828 7.672 226.292 7.536 225.7 7.536C225.124 7.536 224.596 7.672 224.116 7.944C223.652 8.2 223.268 8.568 222.964 9.048C222.676 9.512 222.5 10.064 222.436 10.704ZM245.947 18H242.731V10.944C242.731 9.936 242.555 9.2 242.203 8.736C241.851 8.272 241.363 8.04 240.739 8.04C240.307 8.04 239.867 8.152 239.419 8.376C238.987 8.6 238.595 8.912 238.243 9.312C237.891 9.696 237.635 10.144 237.475 10.656V18H234.259V5.424H237.163V7.752C237.483 7.208 237.891 6.752 238.387 6.384C238.883 6 239.451 5.712 240.091 5.52C240.747 5.312 241.435 5.208 242.155 5.208C242.939 5.208 243.579 5.352 244.075 5.64C244.587 5.912 244.971 6.288 245.227 6.768C245.499 7.232 245.683 7.76 245.779 8.352C245.891 8.944 245.947 9.544 245.947 10.152V18ZM256.209 17.352C255.937 17.464 255.609 17.592 255.225 17.736C254.841 17.88 254.425 17.992 253.977 18.072C253.545 18.168 253.105 18.216 252.657 18.216C252.065 18.216 251.521 18.112 251.025 17.904C250.529 17.696 250.129 17.368 249.825 16.92C249.537 16.456 249.393 15.856 249.393 15.12V7.896H247.737V5.424H249.393V1.344H252.609V5.424H255.249V7.896H252.609V14.04C252.625 14.472 252.745 14.784 252.969 14.976C253.193 15.168 253.473 15.264 253.809 15.264C254.145 15.264 254.473 15.208 254.793 15.096C255.113 14.984 255.369 14.888 255.561 14.808L256.209 17.352Z" fill="white"/>
</svg>
