<svg width="74" height="73" viewBox="0 0 74 73" fill="none" xmlns="http://www.w3.org/2000/svg">
<path d="M37.4382 37.2761C47.2608 37.2761 55.2236 29.3792 55.2236 19.638C55.2236 9.89681 47.2608 2 37.4382 2C27.6155 2 19.6527 9.89681 19.6527 19.638C19.6527 29.3792 27.6155 37.2761 37.4382 37.2761Z" stroke="#1C0732" stroke-width="3" stroke-miterlimit="10" stroke-linecap="round" stroke-linejoin="round"/>
<path d="M54.2945 25.2981H65.1782V61.693H9.63182V25.2981H20.6482" stroke="#1C0732" stroke-width="3" stroke-miterlimit="10" stroke-linecap="round" stroke-linejoin="round"/>
<path d="M19.6527 19.6379H4.65454V65.9707H70.1555V19.6379H55.2236" stroke="#1C0732" stroke-width="3" stroke-miterlimit="10" stroke-linecap="round" stroke-linejoin="round"/>
<path d="M72.3455 65.9707H2V71.3674H72.3455V65.9707Z" stroke="#1C0732" stroke-width="3" stroke-miterlimit="10" stroke-linecap="round" stroke-linejoin="round"/>
<path d="M29.4082 52.0182H33.7882V56.7567H41.0882V52.0182H45.3355L37.3718 43.4624L29.4082 52.0182Z" stroke="#1C0732" stroke-width="3" stroke-miterlimit="10" stroke-linecap="round" stroke-linejoin="round"/>
<path d="M21.6436 11.543C21.6436 11.543 29.5409 10.49 32.3282 19.638C35.1155 28.7861 33.9209 26.2194 38.5664 29.5759C43.2118 32.9324 43.61 36.223 43.61 36.223" stroke="#1C0732" stroke-width="3" stroke-miterlimit="10" stroke-linecap="round" stroke-linejoin="round"/>
<path d="M53.1 28.0622C53.1 28.0622 43.4773 29.9707 44.6718 22.0731C45.8664 14.1755 46.9945 17.4662 45.2027 9.8318C45.2027 9.8318 44.8045 6.67275 48.3218 5.68555" stroke="#1C0732" stroke-width="3" stroke-miterlimit="10" stroke-linecap="round" stroke-linejoin="round"/>
</svg>
