<svg width="72" height="72" viewBox="0 0 72 72" fill="none" xmlns="http://www.w3.org/2000/svg">
<path fill-rule="evenodd" clip-rule="evenodd" d="M71.7019 15.8667V56.1345C71.7059 58.1575 71.3104 60.1614 70.5381 62.0313C69.7658 63.9011 68.6319 65.6 67.2014 67.0305C65.7709 68.461 64.072 69.5949 62.2022 70.3672C60.3323 71.1395 58.3284 71.535 56.3054 71.531H16.0376C14.0146 71.535 12.0107 71.1395 10.1409 70.3672C8.27106 69.5949 6.57216 68.461 5.14166 67.0305C3.71116 65.6 2.57721 63.9011 1.8049 62.0313C1.03259 60.1614 0.637102 58.1575 0.641144 56.1345V15.8667C0.637102 13.8437 1.03259 11.8398 1.8049 9.96998C2.57721 8.10016 3.71116 6.40126 5.14166 4.97076C6.57216 3.54026 8.27106 2.40632 10.1409 1.634C12.0107 0.861687 14.0146 0.466204 16.0376 0.470246H56.3054C58.3284 0.466204 60.3323 0.861687 62.2022 1.634C64.072 2.40632 65.7709 3.54026 67.2014 4.97076C68.6319 6.40126 69.7658 8.10016 70.5381 9.96998C71.3104 11.8398 71.7059 13.8437 71.7019 15.8667Z" fill="url(#paint0_linear_28_453)"/>
<path fill-rule="evenodd" clip-rule="evenodd" d="M49.5542 41.3306H58.3776C59.2414 41.3306 60.0698 41.6737 60.6806 42.2845C61.2914 42.8953 61.6345 43.7237 61.6345 44.5875C61.6345 45.4513 61.2914 46.2797 60.6806 46.8905C60.0698 47.5013 59.2414 47.8445 58.3776 47.8445H49.5542V41.3306Z" fill="white"/>
<path fill-rule="evenodd" clip-rule="evenodd" d="M38.7183 41.33C39.3336 41.3263 39.9436 41.4448 40.5129 41.6786C41.0821 41.9124 41.5993 42.2568 42.0344 42.692C42.4696 43.1271 42.814 43.6443 43.0478 44.2135C43.2816 44.7828 43.4001 45.3928 43.3964 46.0081C43.3988 46.6374 43.2781 47.261 43.0411 47.8439H13.9654C13.1016 47.8439 12.2732 47.5007 11.6624 46.8899C11.0516 46.2791 10.7085 45.4507 10.7085 44.5869C10.7085 43.7231 11.0516 42.8947 11.6624 42.2839C12.2732 41.6731 13.1016 41.33 13.9654 41.33H38.7183ZM37.8892 19.8933V25.5782H34.0993L29.4804 17.6431C29.2775 17.2931 29.1456 16.9065 29.0922 16.5056C29.0388 16.1046 29.0651 15.697 29.1694 15.3061C29.2736 14.9153 29.454 14.5488 29.7 14.2277C29.9461 13.9066 30.253 13.6372 30.6033 13.4348C30.9535 13.2324 31.3403 13.1011 31.7413 13.0483C32.1424 12.9955 32.5499 13.0223 32.9406 13.1272C33.3313 13.232 33.6975 13.4129 34.0183 13.6594C34.339 13.9059 34.608 14.2132 34.8099 14.5638L37.8892 19.8933ZM41.1462 25.4005L57.3125 53.4103C57.7444 54.1563 57.8622 55.0433 57.6401 55.8762C57.418 56.7091 56.8741 57.4197 56.1281 57.8516C55.3821 58.2835 54.4951 58.4014 53.6622 58.1793C52.8293 57.9571 52.1187 57.4133 51.6868 56.6673L41.916 39.6719C41.0277 38.0138 40.3763 36.711 39.9618 36.0004C38.9887 34.3425 38.5781 32.4141 38.7916 30.5036C39.0051 28.593 39.8311 26.8028 41.1462 25.4005Z" fill="white"/>
<path fill-rule="evenodd" clip-rule="evenodd" d="M27.8805 44.2915H20.3599L37.3553 14.8605C37.7872 14.1145 38.4978 13.5706 39.3307 13.3485C40.1636 13.1264 41.0506 13.2443 41.7966 13.6762C42.5426 14.1081 43.0865 14.8186 43.3086 15.6515C43.5307 16.4844 43.4128 17.3715 42.9809 18.1175L27.8805 44.2915ZM23.913 51.1015L20.7745 56.6087C20.5606 56.9781 20.2761 57.3017 19.9372 57.5612C19.5982 57.8206 19.2115 58.0107 18.7991 58.1207C18.3867 58.2307 17.9567 58.2583 17.5335 58.2021C17.1104 58.1459 16.7026 58.0069 16.3332 57.7931C15.9638 57.5792 15.6401 57.2947 15.3807 56.9557C15.1213 56.6168 14.9311 56.2301 14.8212 55.8177C14.7112 55.4053 14.6835 54.9752 14.7397 54.5521C14.796 54.129 14.935 53.7211 15.1488 53.3518L17.4583 49.325C18.1755 48.9681 18.9667 48.7855 19.7678 48.792C20.6032 48.7646 21.4304 48.965 22.1607 49.3719C22.8909 49.7787 23.4966 50.3766 23.913 51.1015Z" fill="white"/>
<defs>
<linearGradient id="paint0_linear_28_453" x1="36.1709" y1="71.531" x2="36.1709" y2="0.470249" gradientUnits="userSpaceOnUse">
<stop stop-color="#1D6FF2"/>
<stop offset="1" stop-color="#1AC8FC"/>
</linearGradient>
</defs>
</svg>
