<svg width="732" height="732" viewBox="0 0 732 732" fill="none" xmlns="http://www.w3.org/2000/svg">
<path d="M358.67 620.065C515.225 620.065 642.137 612.656 642.137 603.516C642.137 594.375 515.225 586.966 358.67 586.966C202.115 586.966 75.2028 594.375 75.2028 603.516C75.2028 612.656 202.115 620.065 358.67 620.065Z" fill="white" fill-opacity="0.14"/>
<path d="M166.227 273.031H112.133C110.944 273.054 109.763 272.824 108.67 272.356C107.577 271.888 106.596 271.192 105.792 270.315C104.988 269.438 104.381 268.4 104.01 267.27C103.638 266.14 103.512 264.944 103.639 263.762L114.955 134.433C115.214 131.955 116.368 129.657 118.201 127.969C120.034 126.282 122.42 125.321 124.911 125.267H138.975C139.597 125.258 140.198 125.494 140.649 125.923C141.1 126.352 141.365 126.94 141.387 127.562V128C141.414 128.869 141.782 129.692 142.412 130.292C143.041 130.891 143.881 131.218 144.75 131.202H158.113C159.079 131.184 160.01 130.837 160.752 130.217C161.494 129.598 162.002 128.743 162.192 127.796L162.294 127.357C162.424 126.746 162.758 126.196 163.242 125.8C163.726 125.404 164.33 125.185 164.955 125.179H179.034C180.218 125.165 181.393 125.4 182.48 125.868C183.568 126.337 184.546 127.028 185.35 127.898C186.147 128.782 186.752 129.822 187.124 130.952C187.497 132.082 187.63 133.278 187.514 134.462L176.183 263.806C175.937 266.294 174.789 268.607 172.954 270.306C171.12 272.006 168.727 272.975 166.227 273.031ZM124.911 126.699C122.785 126.751 120.751 127.572 119.186 129.011C117.621 130.449 116.632 132.408 116.402 134.521L105.086 263.864C104.976 264.845 105.076 265.837 105.38 266.776C105.684 267.714 106.185 268.577 106.849 269.307C107.513 270.036 108.326 270.615 109.232 271.005C110.138 271.395 111.117 271.588 112.104 271.569H166.198C168.325 271.517 170.361 270.694 171.927 269.252C173.492 267.81 174.48 265.849 174.706 263.733L186.022 134.404C186.123 133.419 186.016 132.423 185.709 131.482C185.401 130.54 184.901 129.673 184.239 128.936C183.572 128.218 182.761 127.647 181.859 127.262C180.958 126.877 179.985 126.685 179.005 126.699H164.926C164.636 126.709 164.358 126.815 164.136 127C163.914 127.186 163.759 127.44 163.698 127.723L163.595 128.161C163.316 129.414 162.624 130.537 161.629 131.348C160.635 132.16 159.396 132.613 158.113 132.635H144.765C143.516 132.659 142.308 132.188 141.404 131.325C140.501 130.463 139.975 129.278 139.94 128.03V127.591C139.936 127.47 139.909 127.351 139.859 127.241C139.809 127.13 139.738 127.031 139.65 126.948C139.562 126.865 139.458 126.801 139.345 126.758C139.231 126.715 139.111 126.695 138.99 126.699H124.911Z" fill="#52BD94"/>
<path d="M185.745 145.544H114.648V147.006H185.745V145.544Z" fill="#52BD94"/>
<path d="M179.019 125.237H164.955V126.699H179.019V125.237Z" fill="#52BD94"/>
<path d="M165.803 205.969H124.311L127.937 164.478H169.429L165.803 205.969ZM125.905 204.507H164.458L167.835 165.94H129.282L125.905 204.507Z" fill="#52BD94"/>
<path d="M166.3 252.826H115.452L116.797 237.446H167.645L166.3 252.826ZM117.045 251.364H164.955L166.051 238.893H118.127L117.045 251.364Z" fill="#52BD94"/>
<path d="M132.849 227.3C132.284 227.299 131.725 227.18 131.209 226.948C130.694 226.716 130.233 226.378 129.857 225.955C129.482 225.533 129.2 225.035 129.03 224.496C128.86 223.957 128.807 223.388 128.873 222.826C128.994 221.66 129.539 220.578 130.404 219.786C131.268 218.994 132.393 218.546 133.566 218.528C134.131 218.52 134.692 218.632 135.211 218.856C135.73 219.08 136.196 219.412 136.578 219.829C136.957 220.25 137.244 220.746 137.42 221.285C137.596 221.824 137.658 222.394 137.601 222.958C137.489 224.142 136.94 225.242 136.062 226.044C135.184 226.847 134.039 227.294 132.849 227.3ZM133.493 219.99C132.692 220.005 131.924 220.31 131.33 220.847C130.736 221.385 130.357 222.119 130.262 222.914C130.22 223.278 130.257 223.646 130.37 223.994C130.484 224.343 130.671 224.662 130.92 224.931C131.166 225.195 131.466 225.404 131.798 225.545C132.13 225.686 132.488 225.756 132.849 225.75C133.65 225.735 134.418 225.43 135.012 224.893C135.606 224.355 135.985 223.621 136.08 222.826C136.113 222.463 136.072 222.096 135.959 221.75C135.846 221.403 135.663 221.083 135.423 220.808C135.172 220.553 134.871 220.352 134.539 220.219C134.207 220.085 133.851 220.022 133.493 220.034V219.99Z" fill="#52BD94"/>
<path d="M143.361 227.299C142.798 227.311 142.238 227.202 141.72 226.981C141.202 226.759 140.737 226.431 140.355 226.016C139.973 225.601 139.684 225.11 139.507 224.575C139.33 224.04 139.268 223.474 139.326 222.913C139.444 221.748 139.986 220.667 140.848 219.875C141.71 219.082 142.834 218.634 144.004 218.615C144.567 218.609 145.125 218.72 145.642 218.943C146.158 219.166 146.623 219.494 147.004 219.908C147.386 220.321 147.677 220.81 147.858 221.343C148.038 221.876 148.105 222.441 148.054 223.001C147.93 224.166 147.384 225.246 146.52 226.037C145.656 226.829 144.533 227.277 143.361 227.299ZM144.004 219.989C143.204 220.005 142.436 220.309 141.842 220.847C141.248 221.384 140.869 222.118 140.773 222.913C140.732 223.275 140.768 223.641 140.879 223.987C140.991 224.334 141.176 224.652 141.421 224.921C141.666 225.19 141.967 225.403 142.301 225.546C142.636 225.689 142.997 225.758 143.361 225.75C144.162 225.734 144.93 225.43 145.524 224.892C146.118 224.355 146.497 223.621 146.592 222.826C146.634 222.464 146.598 222.098 146.486 221.751C146.375 221.405 146.19 221.087 145.945 220.818C145.699 220.549 145.399 220.336 145.064 220.193C144.73 220.05 144.368 219.981 144.004 219.989Z" fill="#52BD94"/>
<path d="M153.888 227.3C153.321 227.308 152.76 227.198 152.239 226.976C151.717 226.755 151.248 226.427 150.861 226.013C150.482 225.589 150.196 225.09 150.019 224.549C149.843 224.008 149.781 223.436 149.838 222.87C149.959 221.706 150.501 220.626 151.363 219.835C152.225 219.043 153.346 218.594 154.516 218.572C155.082 218.561 155.644 218.671 156.163 218.896C156.683 219.12 157.148 219.453 157.528 219.873C157.912 220.291 158.203 220.786 158.382 221.326C158.561 221.865 158.624 222.436 158.566 223.001C158.445 224.165 157.902 225.245 157.041 226.036C156.179 226.828 155.058 227.277 153.888 227.3ZM154.516 219.99C153.716 220.005 152.947 220.31 152.354 220.847C151.76 221.384 151.38 222.118 151.285 222.914C151.25 223.277 151.29 223.644 151.403 223.991C151.516 224.339 151.7 224.659 151.943 224.931C152.192 225.197 152.493 225.407 152.828 225.548C153.163 225.689 153.524 225.758 153.888 225.75C154.687 225.734 155.453 225.429 156.044 224.891C156.636 224.354 157.012 223.62 157.104 222.826C157.146 222.464 157.11 222.098 156.998 221.752C156.886 221.405 156.702 221.087 156.456 220.818C156.211 220.549 155.911 220.336 155.576 220.193C155.242 220.05 154.88 219.981 154.516 219.99Z" fill="#52BD94"/>
<path d="M589.227 419.523H518.13V420.985H589.227V419.523Z" fill="#52BD94"/>
<path d="M569.666 547.01H515.572C514.383 547.029 513.204 546.795 512.113 546.325C511.021 545.854 510.042 545.156 509.24 544.279C508.438 543.401 507.832 542.363 507.462 541.233C507.092 540.103 506.966 538.908 507.092 537.726L518.408 408.383C518.668 405.902 519.824 403.602 521.66 401.914C523.496 400.226 525.885 399.267 528.379 399.216H542.443C543.067 399.208 543.668 399.446 544.117 399.879C544.565 400.311 544.826 400.903 544.841 401.526V401.965C544.864 402.832 545.229 403.655 545.856 404.255C546.483 404.855 547.321 405.182 548.189 405.167H561.625C562.578 405.146 563.496 404.807 564.233 404.203C564.97 403.598 565.483 402.764 565.689 401.833L565.777 401.395C565.917 400.785 566.256 400.24 566.74 399.846C567.225 399.451 567.828 399.23 568.452 399.216H582.517C583.702 399.2 584.877 399.433 585.965 399.902C587.053 400.37 588.03 401.063 588.833 401.936C589.634 402.819 590.241 403.861 590.614 404.995C590.987 406.128 591.117 407.327 590.996 408.515L579.68 537.843C579.42 540.331 578.257 542.637 576.412 544.326C574.567 546.015 572.167 546.97 569.666 547.01ZM528.364 400.678C526.237 400.73 524.201 401.553 522.635 402.995C521.07 404.437 520.082 406.398 519.855 408.515L508.54 537.843C508.436 538.829 508.541 539.825 508.848 540.767C509.155 541.709 509.658 542.576 510.323 543.311C510.989 544.032 511.799 544.603 512.701 544.989C513.603 545.374 514.576 545.565 515.557 545.548H569.651C571.776 545.496 573.811 544.675 575.376 543.236C576.941 541.798 577.93 539.84 578.16 537.726L589.476 408.383C589.586 407.403 589.486 406.41 589.182 405.471C588.878 404.533 588.377 403.67 587.713 402.94C587.049 402.211 586.236 401.632 585.33 401.242C584.424 400.852 583.445 400.659 582.458 400.678H568.394C568.103 400.69 567.825 400.796 567.6 400.981C567.376 401.165 567.218 401.419 567.151 401.702L567.063 402.14C566.782 403.396 566.087 404.521 565.091 405.334C564.094 406.148 562.853 406.604 561.566 406.629H548.189C546.943 406.648 545.739 406.176 544.838 405.314C543.938 404.452 543.413 403.269 543.379 402.023V401.585C543.379 401.463 543.355 401.343 543.307 401.231C543.26 401.119 543.191 401.018 543.103 400.933C543.016 400.849 542.913 400.782 542.799 400.739C542.686 400.695 542.565 400.674 542.443 400.678H528.364Z" fill="#52BD94"/>
<path d="M578.745 439.845H525.323C524.776 439.852 524.233 439.743 523.73 439.525C523.228 439.307 522.778 438.985 522.409 438.581C522.04 438.176 521.761 437.697 521.591 437.177C521.42 436.657 521.362 436.106 521.42 435.561C521.534 434.439 522.055 433.397 522.884 432.632C523.714 431.867 524.795 431.432 525.923 431.409H579.359C579.907 431.4 580.452 431.507 580.956 431.724C581.46 431.941 581.912 432.262 582.283 432.667C582.652 433.073 582.933 433.552 583.107 434.073C583.28 434.594 583.343 435.146 583.292 435.693C583.174 436.822 582.645 437.868 581.807 438.633C580.969 439.398 579.88 439.83 578.745 439.845ZM525.923 432.871C525.157 432.889 524.424 433.185 523.862 433.704C523.299 434.224 522.945 434.931 522.867 435.693C522.832 436.036 522.869 436.383 522.978 436.711C523.086 437.038 523.263 437.339 523.496 437.593C523.726 437.849 524.008 438.052 524.323 438.188C524.639 438.324 524.98 438.391 525.323 438.383H578.745C579.51 438.366 580.243 438.069 580.806 437.55C581.369 437.03 581.722 436.323 581.8 435.561C581.834 435.219 581.797 434.874 581.691 434.547C581.586 434.22 581.414 433.918 581.186 433.661C580.955 433.407 580.672 433.206 580.357 433.07C580.042 432.934 579.702 432.866 579.359 432.871H525.923Z" fill="#52BD94"/>
<path d="M577.531 453.822H524.095C523.547 453.831 523.002 453.724 522.498 453.507C521.994 453.291 521.542 452.969 521.171 452.565C520.805 452.16 520.527 451.682 520.356 451.164C520.185 450.645 520.124 450.096 520.177 449.553C520.291 448.428 520.815 447.384 521.647 446.619C522.48 445.853 523.564 445.42 524.695 445.401H578.116C578.664 445.389 579.208 445.495 579.711 445.71C580.215 445.926 580.666 446.246 581.036 446.65C581.405 447.055 581.684 447.533 581.854 448.054C582.024 448.574 582.08 449.125 582.02 449.67C581.909 450.791 581.391 451.833 580.564 452.598C579.737 453.363 578.658 453.799 577.531 453.822ZM524.709 446.863C523.945 446.877 523.212 447.17 522.649 447.687C522.086 448.204 521.732 448.909 521.654 449.67C521.62 450.014 521.657 450.362 521.762 450.691C521.868 451.021 522.04 451.325 522.268 451.585C522.502 451.834 522.786 452.031 523.1 452.164C523.415 452.297 523.754 452.364 524.095 452.36H577.531C578.321 452.351 579.078 452.045 579.652 451.503C580.226 450.961 580.576 450.223 580.631 449.436C580.666 449.09 580.628 448.742 580.519 448.412C580.411 448.082 580.235 447.778 580.002 447.521C579.769 447.27 579.486 447.071 579.171 446.938C578.856 446.804 578.517 446.739 578.175 446.746L524.709 446.863Z" fill="#52BD94"/>
<path d="M576.245 467.682H522.882C522.334 467.693 521.79 467.588 521.287 467.372C520.783 467.157 520.332 466.836 519.962 466.432C519.592 466.028 519.314 465.55 519.144 465.029C518.974 464.508 518.918 463.957 518.978 463.413C519.096 462.289 519.62 461.247 520.451 460.482C521.283 459.717 522.366 459.283 523.496 459.261H576.917C577.465 459.253 578.008 459.362 578.51 459.58C579.013 459.798 579.463 460.12 579.832 460.525C580.201 460.93 580.48 461.408 580.65 461.929C580.821 462.449 580.879 463 580.821 463.544C580.702 464.677 580.169 465.725 579.325 466.489C578.48 467.252 577.383 467.677 576.245 467.682ZM523.437 460.723C522.672 460.74 521.939 461.036 521.376 461.556C520.813 462.075 520.46 462.782 520.382 463.544C520.342 463.885 520.376 464.231 520.481 464.558C520.586 464.885 520.761 465.185 520.992 465.439C521.224 465.693 521.507 465.894 521.823 466.028C522.139 466.163 522.48 466.228 522.823 466.22H576.245C577.009 466.206 577.742 465.913 578.305 465.396C578.868 464.878 579.222 464.173 579.3 463.413C579.343 463.07 579.31 462.723 579.206 462.394C579.102 462.066 578.928 461.763 578.696 461.508C578.464 461.253 578.18 461.05 577.863 460.915C577.546 460.779 577.204 460.714 576.859 460.723H523.437Z" fill="#52BD94"/>
<path d="M572.97 505.84H519.548C519.001 505.847 518.458 505.738 517.956 505.52C517.453 505.302 517.003 504.98 516.634 504.576C516.265 504.171 515.986 503.692 515.816 503.172C515.645 502.651 515.587 502.101 515.645 501.556C515.759 500.435 516.281 499.395 517.111 498.632C517.94 497.87 519.021 497.438 520.148 497.419H573.584C574.132 497.407 574.675 497.513 575.179 497.728C575.682 497.944 576.134 498.264 576.504 498.668C576.873 499.073 577.152 499.551 577.322 500.072C577.492 500.593 577.548 501.144 577.488 501.688C577.37 502.812 576.846 503.854 576.014 504.619C575.182 505.383 574.1 505.818 572.97 505.84ZM520.148 498.881C519.385 498.898 518.653 499.192 518.091 499.709C517.529 500.225 517.174 500.929 517.092 501.688C517.071 502.025 517.12 502.362 517.235 502.679C517.351 502.996 517.531 503.286 517.765 503.53C517.994 503.786 518.277 503.988 518.592 504.125C518.908 504.261 519.249 504.327 519.592 504.319H573.014C573.779 504.302 574.512 504.006 575.075 503.486C575.638 502.967 575.991 502.26 576.069 501.498C576.107 501.156 576.071 500.809 575.966 500.482C575.86 500.154 575.686 499.853 575.455 499.597C575.223 499.346 574.94 499.147 574.625 499.013C574.31 498.879 573.97 498.814 573.628 498.822L520.148 498.881Z" fill="#52BD94"/>
<path d="M571.756 519.758H518.32C517.773 519.77 517.229 519.666 516.725 519.451C516.22 519.237 515.768 518.918 515.396 518.515C515.028 518.108 514.748 517.629 514.574 517.108C514.4 516.587 514.337 516.036 514.388 515.489C514.505 514.365 515.029 513.323 515.861 512.558C516.693 511.793 517.775 511.359 518.905 511.337H572.327C572.873 511.33 573.414 511.438 573.916 511.655C574.417 511.873 574.867 512.193 575.235 512.596C575.604 512.999 575.883 513.476 576.055 513.995C576.226 514.513 576.286 515.062 576.23 515.606C576.12 516.725 575.604 517.765 574.78 518.529C573.956 519.294 572.88 519.731 571.756 519.758ZM518.934 512.799C518.17 512.813 517.437 513.106 516.874 513.623C516.311 514.14 515.957 514.845 515.879 515.606C515.845 515.95 515.882 516.298 515.987 516.627C516.093 516.956 516.265 517.261 516.493 517.521C516.727 517.769 517.011 517.967 517.325 518.1C517.64 518.233 517.979 518.3 518.32 518.296H571.756C572.521 518.282 573.254 517.989 573.816 517.472C574.379 516.955 574.734 516.249 574.812 515.489C574.847 515.143 574.809 514.795 574.701 514.465C574.592 514.135 574.416 513.831 574.183 513.574C573.951 513.323 573.667 513.124 573.352 512.991C573.038 512.857 572.698 512.792 572.356 512.799H518.934Z" fill="#52BD94"/>
<path d="M570.528 533.676H517.107C516.559 533.688 516.016 533.583 515.512 533.367C515.009 533.152 514.557 532.831 514.187 532.427C513.818 532.023 513.539 531.544 513.369 531.023C513.199 530.503 513.143 529.952 513.203 529.407C513.321 528.284 513.845 527.241 514.677 526.477C515.509 525.712 516.591 525.278 517.721 525.255H571.142C571.69 525.248 572.233 525.357 572.735 525.575C573.238 525.793 573.688 526.115 574.057 526.52C574.426 526.924 574.705 527.403 574.875 527.923C575.046 528.444 575.104 528.994 575.046 529.539C574.928 530.661 574.404 531.702 573.572 532.464C572.739 533.226 571.657 533.658 570.528 533.676ZM517.765 526.717C516.999 526.735 516.266 527.031 515.704 527.55C515.141 528.07 514.787 528.777 514.709 529.539C514.669 529.88 514.703 530.226 514.808 530.553C514.914 530.88 515.088 531.18 515.32 531.434C515.551 531.687 515.834 531.888 516.15 532.023C516.466 532.158 516.807 532.223 517.151 532.214H570.572C571.337 532.198 572.07 531.904 572.635 531.388C573.2 530.872 573.558 530.168 573.642 529.407C573.678 529.064 573.64 528.717 573.532 528.39C573.423 528.062 573.247 527.761 573.014 527.507C572.783 527.253 572.5 527.051 572.185 526.915C571.87 526.779 571.53 526.711 571.186 526.717H517.765Z" fill="#52BD94"/>
<path d="M604.842 284.083H550.748C549.564 284.102 548.39 283.87 547.301 283.404C546.213 282.938 545.235 282.248 544.432 281.379C543.633 280.493 543.028 279.45 542.655 278.318C542.283 277.185 542.151 275.986 542.268 274.8L553.584 145.457C553.847 142.979 555.005 140.682 556.84 138.997C558.676 137.312 561.063 136.355 563.555 136.304H577.619C578.242 136.293 578.845 136.527 579.297 136.957C579.748 137.386 580.012 137.977 580.031 138.6V139.038C580.058 139.907 580.426 140.73 581.056 141.329C581.685 141.929 582.525 142.256 583.394 142.24H596.713C597.664 142.221 598.581 141.884 599.318 141.282C600.054 140.68 600.568 139.849 600.777 138.921L600.88 138.468C601.01 137.858 601.344 137.311 601.828 136.917C602.312 136.524 602.917 136.307 603.54 136.304H617.605C618.795 136.281 619.976 136.511 621.07 136.98C622.164 137.449 623.145 138.147 623.947 139.026C624.75 139.904 625.356 140.944 625.724 142.076C626.093 143.208 626.216 144.405 626.084 145.588L614.769 274.931C614.507 277.402 613.355 279.693 611.528 281.377C609.702 283.061 607.325 284.023 604.842 284.083ZM563.525 137.766C561.4 137.818 559.366 138.639 557.801 140.078C556.236 141.517 555.246 143.475 555.017 145.588L543.701 274.931C543.592 275.911 543.694 276.902 543.999 277.838C544.304 278.775 544.806 279.636 545.47 280.364C546.134 281.092 546.945 281.669 547.851 282.059C548.756 282.448 549.733 282.64 550.718 282.621H604.812C606.938 282.57 608.972 281.749 610.537 280.31C612.102 278.871 613.091 276.913 613.321 274.8L624.637 145.457C624.745 144.476 624.643 143.484 624.337 142.546C624.031 141.608 623.529 140.746 622.863 140.018C622.197 139.29 621.384 138.713 620.477 138.324C619.57 137.936 618.591 137.746 617.605 137.766H603.54C603.251 137.775 602.973 137.878 602.748 138.06C602.523 138.242 602.365 138.494 602.298 138.775L602.21 139.228C601.923 140.48 601.227 141.6 600.231 142.411C599.235 143.221 597.997 143.676 596.713 143.702H583.35C582.101 143.726 580.893 143.255 579.99 142.393C579.086 141.53 578.56 140.346 578.526 139.097V138.658C578.522 138.537 578.494 138.418 578.444 138.308C578.395 138.198 578.323 138.098 578.235 138.015C578.147 137.933 578.043 137.868 577.93 137.825C577.817 137.782 577.696 137.763 577.575 137.766H563.525Z" fill="#52BD94"/>
<path d="M624.345 156.612H553.248V158.074H624.345V156.612Z" fill="#52BD94"/>
<path d="M608.292 268.981H550.747L554.315 227.49H611.918L608.292 268.981ZM552.341 267.519H606.947L610.324 228.952H555.777L552.341 267.519Z" fill="#52BD94"/>
<path d="M555.486 227.65L554.601 228.813L607.17 268.831L608.056 267.668L555.486 227.65Z" fill="#52BD94"/>
<path d="M610.717 227.643L551.14 267.662L551.955 268.875L611.532 228.857L610.717 227.643Z" fill="#52BD94"/>
<path d="M615.821 182.972H558.277L559.622 167.591H617.181L615.821 182.972ZM559.87 181.51H614.476L615.573 169.053H560.967L559.87 181.51Z" fill="#52BD94"/>
<path d="M616.193 167.601L558.901 181.535L559.246 182.956L616.538 169.021L616.193 167.601Z" fill="#52BD94"/>
<path d="M560.448 167.592L560.089 169.009L614.944 182.931L615.304 181.513L560.448 167.592Z" fill="#52BD94"/>
<path d="M614.067 202.987H556.522L557.867 187.592H615.412L614.067 202.987ZM558.116 201.525H612.795L613.891 189.054H559.213L558.116 201.525Z" fill="#52BD94"/>
<path d="M614.452 187.621L557.159 201.555L557.505 202.976L614.797 189.041L614.452 187.621Z" fill="#52BD94"/>
<path d="M558.7 187.608L558.341 189.025L613.196 202.946L613.555 201.529L558.7 187.608Z" fill="#52BD94"/>
<path d="M612.312 223.001H554.768L556.113 207.606H613.657L612.312 223.001ZM556.362 221.539H610.982L612.064 209.068H557.458L556.362 221.539Z" fill="#52BD94"/>
<path d="M612.693 207.615L555.401 221.549L555.746 222.97L613.038 209.035L612.693 207.615Z" fill="#52BD94"/>
<path d="M556.952 207.624L556.592 209.041L611.447 222.962L611.807 221.545L556.952 207.624Z" fill="#52BD94"/>
<path d="M596.537 350.59C591.911 350.59 587.388 349.218 583.541 346.648C579.695 344.078 576.696 340.424 574.926 336.15C573.156 331.876 572.692 327.172 573.595 322.635C574.497 318.097 576.725 313.929 579.997 310.658C583.268 307.386 587.436 305.158 591.974 304.256C596.511 303.353 601.215 303.816 605.489 305.587C609.763 307.357 613.417 310.355 615.987 314.202C618.557 318.049 619.929 322.572 619.929 327.198C619.929 333.402 617.465 339.352 613.078 343.739C608.691 348.126 602.741 350.59 596.537 350.59ZM596.537 305.268C592.2 305.268 587.96 306.554 584.354 308.964C580.747 311.374 577.937 314.799 576.277 318.806C574.617 322.813 574.183 327.222 575.029 331.476C575.875 335.73 577.964 339.638 581.031 342.705C584.098 345.772 588.005 347.861 592.259 348.707C596.513 349.553 600.922 349.119 604.93 347.459C608.937 345.799 612.362 342.988 614.772 339.382C617.181 335.775 618.467 331.536 618.467 327.198C618.46 321.387 616.146 315.817 612.034 311.71C607.922 307.604 602.349 305.297 596.537 305.297V305.268Z" fill="#52BD94"/>
<path d="M592.502 340.736L581.596 326.321L582.765 325.429L591.917 337.549C596.183 323.968 604.779 312.157 616.391 303.923L619.652 301.627L620.485 302.826L617.181 305.151C605.439 313.466 596.863 325.515 592.853 339.332L592.502 340.736Z" fill="#52BD94"/>
<path d="M434.679 158.191H396.667L358.407 595.782H396.419C405.091 595.626 413.405 592.299 419.789 586.429C426.174 580.559 430.187 572.553 431.068 563.925L463.788 190.048C464.231 185.989 463.804 181.882 462.536 178.001C461.268 174.12 459.188 170.554 456.434 167.54C453.68 164.526 450.315 162.133 446.564 160.521C442.813 158.909 438.762 158.115 434.679 158.191Z" fill="#263238"/>
<path d="M388.626 595.782H232.192C228.113 595.854 224.066 595.056 220.319 593.442C216.572 591.828 213.212 589.434 210.462 586.42C207.712 583.406 205.636 579.841 204.371 575.963C203.107 572.084 202.683 567.98 203.128 563.925L235.833 190.047C236.714 181.419 240.727 173.413 247.112 167.543C253.496 161.673 261.81 158.346 270.482 158.19H426.916C430.996 158.116 435.046 158.912 438.794 160.525C442.543 162.139 445.905 164.532 448.656 167.546C451.408 170.56 453.485 174.126 454.751 178.006C456.016 181.886 456.44 185.991 455.995 190.047L423.276 563.925C422.391 572.551 418.378 580.556 411.994 586.425C405.61 592.295 397.297 595.623 388.626 595.782Z" fill="#52BD94"/>
<path d="M426.258 165.501H385.6C384.275 165.518 382.995 165.984 381.97 166.823C380.945 167.662 380.235 168.825 379.957 170.121L379.679 171.393C378.978 174.549 377.235 177.378 374.732 179.425C372.229 181.472 369.111 182.618 365.878 182.679H327.222C324.161 182.738 321.2 181.585 318.985 179.471C316.769 177.357 315.479 174.453 315.395 171.393V170.121C315.357 168.867 314.825 167.678 313.917 166.814C313.008 165.949 311.795 165.477 310.541 165.501H269.839C263.158 165.623 256.753 168.188 251.835 172.711C246.916 177.233 243.824 183.401 243.143 190.048L210.438 563.925C210.095 567.05 210.421 570.212 211.396 573.202C212.37 576.191 213.97 578.938 216.089 581.26C218.208 583.583 220.798 585.427 223.685 586.671C226.573 587.914 229.692 588.528 232.836 588.472H389.27C395.952 588.35 402.358 585.786 407.279 581.263C412.201 576.741 415.296 570.573 415.98 563.925L448.685 190.048C449.029 186.92 448.701 183.755 447.725 180.764C446.749 177.773 445.146 175.024 443.024 172.701C440.902 170.378 438.309 168.535 435.418 167.293C432.527 166.051 429.404 165.44 426.258 165.501Z" fill="#1E003D"/>
<g opacity="0.2">
<path opacity="0.2" d="M338.231 169.638C338.149 170.481 337.759 171.264 337.136 171.839C336.513 172.413 335.701 172.738 334.854 172.752C334.456 172.758 334.06 172.68 333.695 172.522C333.329 172.364 333.001 172.13 332.733 171.835C332.464 171.541 332.262 171.193 332.139 170.814C332.015 170.435 331.974 170.034 332.018 169.638C332.104 168.797 332.495 168.018 333.117 167.446C333.74 166.875 334.55 166.552 335.395 166.538C335.792 166.532 336.186 166.61 336.55 166.767C336.915 166.924 337.242 167.157 337.51 167.45C337.778 167.743 337.981 168.09 338.106 168.467C338.23 168.844 338.273 169.243 338.231 169.638Z" fill="black"/>
<path opacity="0.2" d="M360.527 166.539H349.883C349.039 166.552 348.228 166.875 347.606 167.447C346.983 168.018 346.592 168.798 346.506 169.638C346.46 170.033 346.499 170.434 346.621 170.813C346.742 171.192 346.943 171.54 347.211 171.835C347.478 172.13 347.805 172.364 348.17 172.523C348.535 172.681 348.93 172.759 349.328 172.752H359.986C360.833 172.738 361.645 172.413 362.268 171.839C362.891 171.265 363.281 170.481 363.363 169.638C363.407 169.243 363.366 168.843 363.242 168.464C363.119 168.086 362.916 167.739 362.648 167.445C362.379 167.152 362.051 166.919 361.685 166.763C361.319 166.606 360.924 166.53 360.527 166.539Z" fill="black"/>
</g>
<path d="M260.818 182.621H264.108L264.4 179.331H261.111L260.818 182.621Z" fill="#263238"/>
<path d="M267.69 179.331L267.397 182.62H270.687L270.979 179.331L271.257 176.042H267.968L267.69 179.331Z" fill="#263238"/>
<path d="M274.839 172.752L274.547 176.041L274.269 179.331L273.976 182.62H277.266L277.558 179.331L277.836 176.041L278.128 172.752H274.839Z" fill="#263238"/>
<path d="M416.273 172.971L416.068 175.383H414.46L414.036 180.208H415.644L415.425 182.62H429.899L430.732 172.971H416.273ZM422.121 180.208H417.296L417.72 175.383H422.545L422.121 180.208Z" fill="#263238"/>
<path opacity="0.8" d="M409.723 433.719H198.142L215.95 230.267H427.516L409.723 433.719Z" fill="#263238"/>
<path d="M404.124 427.593H192.558L210.35 224.141H421.931L404.124 427.593Z" fill="#52BD94"/>
<g opacity="0.8">
<path opacity="0.8" d="M404.124 427.593H192.558L210.35 224.141H421.931L404.124 427.593Z" fill="#1E003D"/>
<path opacity="0.8" d="M404.796 428.324H191.739L191.812 427.52L209.692 223.41H422.735L404.796 428.324ZM193.347 426.862H403.451L421.127 224.872H211.023L193.347 426.862Z" fill="#52BD94"/>
</g>
<path opacity="0.8" d="M392.354 371.555H214.137L225.526 241.349H403.743L392.354 371.555Z" fill="#1E003D"/>
<path d="M393.027 372.286H213.333L224.853 240.618H404.548L393.027 372.286ZM214.926 370.824H391.682L402.939 242.08H226.198L214.926 370.824Z" fill="#52BD94"/>
<path d="M225.969 240.749L225.07 241.902L391.9 372.104L392.8 370.951L225.969 240.749Z" fill="#52BD94"/>
<path d="M403.313 240.682L213.75 370.965L214.578 372.17L404.141 241.887L403.313 240.682Z" fill="#52BD94"/>
<path d="M283.231 390.619C283.045 392.44 282.199 394.13 280.852 395.369C279.505 396.608 277.751 397.311 275.921 397.344C275.059 397.36 274.205 397.192 273.413 396.851C272.622 396.511 271.912 396.005 271.331 395.369C270.75 394.733 270.312 393.98 270.044 393.161C269.777 392.342 269.687 391.476 269.78 390.619C269.969 388.8 270.816 387.112 272.163 385.873C273.509 384.634 275.261 383.931 277.09 383.894C277.952 383.879 278.807 384.047 279.598 384.387C280.389 384.728 281.099 385.233 281.68 385.869C282.261 386.506 282.7 387.258 282.967 388.077C283.234 388.896 283.324 389.763 283.231 390.619Z" fill="#52BD94"/>
<path d="M308.29 390.619C308.104 392.44 307.258 394.13 305.911 395.369C304.564 396.608 302.809 397.311 300.98 397.344C300.119 397.358 299.266 397.188 298.477 396.847C297.687 396.505 296.979 396 296.4 395.364C295.82 394.728 295.383 393.976 295.116 393.158C294.85 392.34 294.76 391.474 294.854 390.619C295.039 388.798 295.886 387.109 297.233 385.869C298.579 384.63 300.334 383.928 302.164 383.894C303.025 383.878 303.879 384.046 304.67 384.387C305.46 384.728 306.169 385.233 306.749 385.87C307.329 386.506 307.766 387.259 308.032 388.078C308.297 388.897 308.385 389.764 308.29 390.619Z" fill="#52BD94"/>
<path d="M333.363 390.619C333.177 392.44 332.331 394.13 330.984 395.369C329.637 396.608 327.883 397.311 326.053 397.345C325.192 397.36 324.338 397.192 323.547 396.852C322.756 396.511 322.047 396.005 321.467 395.369C320.888 394.732 320.45 393.979 320.185 393.16C319.919 392.341 319.831 391.475 319.927 390.619C320.113 388.799 320.959 387.109 322.306 385.87C323.653 384.63 325.407 383.928 327.237 383.894C328.097 383.881 328.95 384.051 329.74 384.392C330.53 384.734 331.238 385.239 331.817 385.875C332.396 386.511 332.834 387.263 333.1 388.081C333.367 388.899 333.456 389.764 333.363 390.619Z" fill="#52BD94"/>
<path d="M281.593 542.199H182.528L190.862 446.936H289.927L281.593 542.199Z" fill="#52BD94"/>
<g opacity="0.8">
<path opacity="0.8" d="M281.593 542.199H182.528L190.862 446.936H289.927L281.593 542.199Z" fill="#1E003D"/>
<path opacity="0.8" d="M282.266 543.004H181.724L190.189 446.278H290.731L282.266 543.004ZM183.332 541.542H280.921L289.123 447.74H191.534L183.332 541.542Z" fill="#52BD94"/>
</g>
<path d="M276.082 515.957H192.631L197.967 454.991H281.418L276.082 515.957Z" fill="#1E003D"/>
<path d="M276.754 516.688H191.841L197.294 454.26H282.207L276.754 516.688ZM193.42 515.226H275.394L280.599 455.722H198.639L193.42 515.226Z" fill="#52BD94"/>
<path d="M198.411 454.401L197.511 455.553L275.631 516.521L276.53 515.368L198.411 454.401Z" fill="#52BD94"/>
<path d="M281.008 454.336L192.245 515.341L193.074 516.546L281.837 455.541L281.008 454.336Z" fill="#52BD94"/>
<path d="M224.985 524.889C224.899 525.741 224.503 526.532 223.872 527.112C223.242 527.691 222.42 528.019 221.564 528.033C221.156 528.05 220.749 527.979 220.372 527.824C219.994 527.669 219.655 527.434 219.377 527.135C219.099 526.837 218.889 526.481 218.762 526.093C218.634 525.706 218.593 525.295 218.64 524.889C218.725 524.036 219.121 523.243 219.751 522.661C220.381 522.079 221.203 521.749 222.061 521.731C222.465 521.73 222.866 521.813 223.236 521.974C223.607 522.135 223.941 522.372 224.216 522.669C224.49 522.966 224.701 523.316 224.833 523.698C224.965 524.081 225.017 524.486 224.985 524.889Z" fill="#52BD94"/>
<path d="M236.725 524.889C236.636 525.74 236.239 526.529 235.609 527.108C234.979 527.687 234.159 528.016 233.303 528.033C232.896 528.048 232.491 527.975 232.114 527.819C231.738 527.663 231.4 527.428 231.122 527.13C230.845 526.832 230.635 526.477 230.507 526.091C230.379 525.704 230.335 525.294 230.379 524.889C230.468 524.037 230.864 523.246 231.494 522.665C232.124 522.084 232.944 521.752 233.801 521.731C234.205 521.73 234.605 521.813 234.976 521.974C235.347 522.135 235.681 522.372 235.955 522.669C236.23 522.966 236.441 523.316 236.573 523.698C236.705 524.081 236.757 524.486 236.725 524.889Z" fill="#52BD94"/>
<path d="M248.464 524.889C248.375 525.74 247.979 526.529 247.349 527.108C246.719 527.687 245.899 528.016 245.043 528.033C244.636 528.048 244.231 527.975 243.854 527.819C243.478 527.663 243.14 527.428 242.862 527.13C242.585 526.832 242.375 526.477 242.247 526.091C242.118 525.704 242.075 525.294 242.119 524.889C242.205 524.036 242.6 523.243 243.231 522.661C243.861 522.079 244.683 521.749 245.54 521.731C245.945 521.73 246.345 521.813 246.716 521.974C247.087 522.135 247.42 522.372 247.695 522.669C247.97 522.966 248.18 523.316 248.313 523.698C248.445 524.081 248.497 524.486 248.464 524.889Z" fill="#52BD94"/>
<path d="M394.094 542.199H295.029L303.363 446.936H402.428L394.094 542.199Z" fill="#52BD94"/>
<g opacity="0.8">
<path opacity="0.8" d="M394.094 542.199H295.029L303.362 446.936H402.428L394.094 542.199Z" fill="#1E003D"/>
<path opacity="0.8" d="M394.767 543.004H294.24L302.705 446.278H403.232L394.767 543.004ZM295.833 541.542H393.495L401.711 447.74H304.035L295.833 541.542Z" fill="#52BD94"/>
</g>
<path d="M388.583 515.957H305.132L310.468 454.991H393.919L388.583 515.957Z" fill="#1E003D"/>
<path d="M389.255 516.688H304.313L309.766 454.26H394.694L389.255 516.688ZM305.921 515.226H387.895L393.1 455.722H311.14L305.921 515.226Z" fill="#52BD94"/>
<path d="M310.925 454.386L310.026 455.538L388.145 516.506L389.045 515.353L310.925 454.386Z" fill="#52BD94"/>
<path d="M393.504 454.344L304.741 515.349L305.569 516.554L394.332 455.548L393.504 454.344Z" fill="#52BD94"/>
<path d="M337.486 524.889C337.4 525.742 337.004 526.532 336.373 527.112C335.742 527.691 334.921 528.019 334.065 528.033C333.657 528.05 333.25 527.979 332.873 527.824C332.495 527.669 332.155 527.434 331.877 527.135C331.6 526.837 331.39 526.481 331.262 526.093C331.135 525.706 331.094 525.295 331.141 524.889C331.226 524.036 331.621 523.243 332.252 522.661C332.882 522.079 333.704 521.749 334.562 521.731C334.97 521.716 335.377 521.789 335.754 521.946C336.132 522.103 336.471 522.339 336.749 522.639C337.027 522.939 337.236 523.295 337.363 523.684C337.491 524.072 337.532 524.483 337.486 524.889Z" fill="#52BD94"/>
<path d="M349.225 524.889C349.14 525.742 348.744 526.532 348.113 527.112C347.482 527.691 346.661 528.019 345.804 528.033C345.397 528.05 344.99 527.979 344.612 527.824C344.235 527.669 343.895 527.434 343.617 527.135C343.339 526.837 343.13 526.481 343.002 526.093C342.875 525.706 342.833 525.295 342.88 524.889C342.966 524.036 343.361 523.243 343.992 522.661C344.622 522.079 345.444 521.749 346.301 521.731C346.71 521.716 347.117 521.789 347.494 521.946C347.872 522.103 348.211 522.339 348.489 522.639C348.767 522.939 348.976 523.295 349.103 523.684C349.23 524.072 349.272 524.483 349.225 524.889Z" fill="#52BD94"/>
<path d="M360.965 524.889C360.879 525.741 360.484 526.532 359.853 527.112C359.222 527.691 358.401 528.019 357.544 528.033C357.137 528.048 356.732 527.975 356.355 527.819C355.979 527.663 355.64 527.428 355.363 527.13C355.086 526.832 354.876 526.477 354.747 526.091C354.619 525.704 354.576 525.294 354.62 524.889C354.709 524.034 355.108 523.242 355.74 522.66C356.373 522.078 357.197 521.748 358.056 521.731C358.459 521.732 358.858 521.816 359.227 521.979C359.596 522.141 359.928 522.378 360.201 522.674C360.474 522.971 360.683 523.321 360.815 523.702C360.946 524.083 360.998 524.487 360.965 524.889Z" fill="#52BD94"/>
<path d="M392.325 215.706H287.617L288.845 201.67H393.553L392.325 215.706Z" fill="#52BD94"/>
<path d="M276.052 212.562H259.868V214.025H276.052V212.562Z" fill="#263238"/>
<path d="M276.52 207.094H260.336V208.556H276.52V207.094Z" fill="#263238"/>
<path d="M277.003 201.626H260.818V203.088H277.003V201.626Z" fill="#263238"/>
<g opacity="0.2">
<path opacity="0.2" d="M327.339 182.679L219.356 584.188C223.278 587.016 228.001 588.517 232.836 588.472H241.286L350.41 182.679H327.339Z" fill="#1E003D"/>
<path opacity="0.2" d="M426.258 165.501H385.6C384.275 165.517 382.995 165.984 381.97 166.823C380.945 167.662 380.235 168.825 379.957 170.121L379.679 171.392C378.992 174.464 377.321 177.228 374.92 179.263C372.518 181.297 369.518 182.492 366.375 182.665L257.236 588.472H340.483L448.671 186.173C448.321 180.502 445.794 175.186 441.618 171.334C437.442 167.482 431.939 165.392 426.258 165.501Z" fill="#1E003D"/>
</g>
<path d="M448.217 193.366H242.763V195.559H448.217V193.366Z" fill="#52BD94"/>
<path d="M466.127 246.101C466.309 245.631 466.605 245.214 466.99 244.887C467.327 244.694 467.7 244.569 468.086 244.522C471.007 243.74 474.068 243.64 477.034 244.229C477.256 244.268 477.46 244.376 477.618 244.536C477.722 244.698 477.777 244.886 477.779 245.077C478.013 246.729 478.232 248.381 478.452 250.019C478.564 250.377 478.555 250.761 478.425 251.113C478.295 251.465 478.053 251.764 477.735 251.963C475.132 253.968 472.342 255.716 469.402 257.183C467.94 257.475 463.437 256.013 462.092 255.443C460.747 254.873 464.811 248.835 466.127 246.101Z" fill="#CB7A63"/>
<path d="M433.247 296.232C434.562 285.808 457.852 257.694 460.922 253.63C462.618 251.364 469.694 253.045 471.156 257.343C464.797 266.115 461.288 273.615 456.946 283.586C454.792 288.188 452.406 292.677 449.796 297.037C437.984 313.469 432.676 300.765 433.247 296.232Z" fill="#52BD94"/>
<g opacity="0.1">
<path opacity="0.1" d="M433.247 296.232C434.562 285.808 457.852 257.694 460.922 253.63C462.618 251.364 469.694 253.045 471.156 257.343C464.797 266.115 461.288 273.615 456.946 283.586C454.792 288.188 452.406 292.677 449.796 297.037C437.984 313.469 432.676 300.765 433.247 296.232Z" fill="black"/>
</g>
<path d="M517.253 321.087C517.253 321.087 509.855 321.189 507.545 323.221L504.344 326.058C504.188 326.187 504.062 326.348 503.972 326.529C503.882 326.71 503.831 326.908 503.821 327.11C503.811 327.312 503.844 327.514 503.916 327.702C503.988 327.891 504.099 328.063 504.241 328.207C505.966 330.151 509.738 333.938 513.964 335.429C514.43 335.602 514.934 335.649 515.425 335.564C515.915 335.479 516.374 335.266 516.756 334.947C516.756 334.947 521.873 328.543 521.054 327.227L517.253 321.087Z" fill="#CB7A63"/>
<path d="M536.771 321.788C536.113 322.154 535.44 322.505 534.739 322.87L524.285 326.744C517.165 330.224 516.624 321.437 516.624 321.437L519.475 318.967L538.891 302.885C538.891 302.885 520.82 289.493 509.124 278.206C500.352 268.045 501.464 261.422 511.829 262.533C519.271 263.323 553.423 295.224 556.391 298.63C559.359 302.037 552.619 313.104 536.771 321.788Z" fill="#52BD94"/>
<path opacity="0.1" d="M536.771 321.788C536.113 322.154 535.44 322.505 534.739 322.87L524.285 326.744C517.165 330.224 516.624 321.437 516.624 321.437L519.475 318.967L538.891 302.885C538.891 302.885 520.82 289.493 509.124 278.206C500.352 268.045 501.464 261.422 511.829 262.533C519.271 263.323 553.423 295.224 556.391 298.63C559.359 302.037 552.619 313.104 536.771 321.788Z" fill="black"/>
<path d="M542.37 286.613L542.209 286.438L542.37 286.613Z" fill="#263238"/>
<path d="M474.797 221.363C474.197 221.261 473.583 221.89 473.408 222.825C473.232 223.761 473.554 224.58 474.153 224.682C474.753 224.785 475.381 224.156 475.615 223.22C475.849 222.285 475.367 221.363 474.797 221.363Z" fill="#263238"/>
<path d="M473.188 233.337C472.41 233.39 471.63 233.269 470.905 232.983C470.179 232.698 469.526 232.254 468.993 231.685C471.25 229.643 473.218 227.302 474.841 224.726L473.188 233.337Z" fill="#B74D3C"/>
<path d="M479.49 218.645C479.035 218.131 478.466 217.731 477.829 217.477C477.191 217.223 476.503 217.122 475.82 217.183H475.645C475.572 217.184 475.5 217.172 475.433 217.146C475.366 217.119 475.304 217.08 475.253 217.029C475.201 216.979 475.16 216.919 475.132 216.852C475.103 216.785 475.089 216.714 475.089 216.642C475.087 216.569 475.1 216.496 475.126 216.428C475.152 216.36 475.191 216.297 475.241 216.244C475.292 216.191 475.352 216.149 475.418 216.119C475.485 216.09 475.557 216.073 475.63 216.071C476.486 215.975 477.353 216.083 478.159 216.388C478.965 216.693 479.687 217.186 480.265 217.826C480.349 217.93 480.4 218.058 480.411 218.191C480.409 218.297 480.378 218.401 480.322 218.491C480.265 218.581 480.186 218.654 480.091 218.702C479.996 218.75 479.89 218.772 479.784 218.764C479.678 218.757 479.577 218.72 479.49 218.659V218.645Z" fill="#263238"/>
<path d="M486.639 273.849C502.268 273.688 504.49 265.077 504.49 265.077C499.753 260.691 499.344 252.299 500.177 244.843C498.96 246.631 497.418 248.173 495.63 249.39C493.996 250.549 492.136 251.351 490.171 251.744C488.206 252.136 486.181 252.112 484.227 251.671C484.164 251.683 484.099 251.683 484.036 251.671C484.074 251.82 484.103 251.971 484.124 252.124C485.177 258.06 484.49 264.449 478.276 266.437C478.291 266.437 469.431 273.996 486.639 273.849Z" fill="#CB7A63"/>
<path d="M483.554 249.478C483.729 250.194 483.919 250.94 484.036 251.671C484.099 251.684 484.164 251.684 484.227 251.671C486.181 252.112 488.206 252.137 490.171 251.744C492.136 251.351 493.996 250.549 495.63 249.39C497.428 248.195 498.985 246.673 500.221 244.902C500.426 243.016 500.733 241.159 501.04 239.463L484.139 249.142L483.554 249.478Z" fill="#CB7A63"/>
<path d="M506.069 264.464C506.069 264.464 503.715 257.665 500.323 255.575C496.931 253.484 482.297 256.028 480.016 257.037C477.735 258.045 475.528 263.338 475.528 263.338L506.069 264.464Z" fill="#52BD94"/>
<path opacity="0.8" d="M506.069 264.464C506.069 264.464 503.715 257.665 500.323 255.575C496.931 253.484 482.297 256.028 480.016 257.037C477.735 258.045 475.528 263.338 475.528 263.338L506.069 264.464Z" fill="#1E003D"/>
<path d="M486.917 600.562C485.455 600.562 484.153 600.372 483.7 599.729C483.582 599.565 483.519 599.368 483.519 599.166C483.519 598.964 483.582 598.767 483.7 598.603C483.794 598.451 483.917 598.32 484.063 598.217C484.208 598.113 484.374 598.041 484.548 598.004C486.376 597.492 490.206 599.671 490.396 599.758C490.439 599.786 490.473 599.826 490.494 599.873C490.515 599.919 490.521 599.971 490.513 600.022C490.507 600.078 490.482 600.13 490.442 600.17C490.402 600.209 490.35 600.235 490.294 600.241C489.179 600.443 488.049 600.55 486.917 600.562ZM485.191 598.443C485.027 598.414 484.859 598.414 484.694 598.443C484.585 598.462 484.482 598.504 484.391 598.567C484.3 598.63 484.224 598.713 484.168 598.808C483.993 599.13 484.051 599.276 484.168 599.378C484.68 600.08 487.458 600.095 489.49 599.802C488.167 599.037 486.706 598.54 485.191 598.34V598.443Z" fill="#52BD94"/>
<path d="M490.235 600.212H490.133C488.803 599.612 486.2 597.288 486.42 596.016C486.42 595.723 486.668 595.358 487.384 595.285C487.645 595.255 487.909 595.279 488.16 595.354C488.412 595.43 488.645 595.555 488.846 595.723C490.308 596.878 490.528 599.817 490.542 599.948C490.544 599.994 490.534 600.039 490.513 600.08C490.493 600.121 490.463 600.156 490.425 600.182C490.368 600.214 490.3 600.225 490.235 600.212ZM487.589 595.826H487.443C486.975 595.826 486.946 596.059 486.931 596.118C486.8 596.864 488.569 598.72 489.855 599.539C489.723 598.291 489.213 597.113 488.393 596.162C488.14 595.931 487.814 595.797 487.472 595.782L487.589 595.826Z" fill="#52BD94"/>
<path d="M501.347 574.7L490.425 574.714L491.346 599.948L502.326 599.934L501.347 574.7Z" fill="#CB7A63"/>
<path d="M488.759 599.539C481.288 604.13 478.993 604.334 470.367 606.235C468.481 606.644 469.665 611.22 474.197 611.206C481.668 611.206 482.458 610.84 488.817 610.84C494.27 610.84 500.513 611.074 504.899 611.133C505.03 611.148 505.163 611.148 505.294 611.133C505.705 611.035 506.062 610.779 506.286 610.421C506.511 610.063 506.585 609.63 506.493 609.217L504.358 599.466C504.311 599.253 504.193 599.063 504.022 598.927C503.852 598.792 503.64 598.718 503.423 598.72H491.449C490.494 598.741 489.563 599.024 488.759 599.539Z" fill="#263238"/>
<path opacity="0.2" d="M501.361 574.714L501.858 588.793L490.893 588.808L490.425 574.729L501.361 574.714Z" fill="black"/>
<path d="M582.912 596.016C582.628 594.851 582.817 593.62 583.438 592.595C583.605 592.459 583.809 592.378 584.024 592.363C584.238 592.347 584.452 592.397 584.637 592.507C584.964 592.677 585.214 592.964 585.339 593.311C586.04 595.153 584.154 599.32 584.067 599.524C584.047 599.577 584.011 599.621 583.963 599.651C583.915 599.68 583.859 599.692 583.803 599.685C583.748 599.678 583.697 599.655 583.655 599.619C583.613 599.582 583.584 599.534 583.57 599.481C583.249 598.347 583.029 597.188 582.912 596.016ZM584.958 594.027C584.98 593.852 584.98 593.676 584.958 593.501C584.929 593.392 584.876 593.29 584.803 593.205C584.729 593.119 584.638 593.05 584.534 593.004C584.184 592.858 584.023 592.931 583.935 593.004C583.262 593.603 583.511 596.469 584.023 598.545C584.651 597.104 584.988 595.554 585.017 593.983L584.958 594.027Z" fill="#52BD94"/>
<path d="M583.555 599.407C583.548 599.374 583.548 599.339 583.555 599.305C584.037 597.843 586.23 594.919 587.546 595.065C587.853 595.065 588.262 595.27 588.409 595.986C588.467 596.253 588.468 596.528 588.413 596.795C588.357 597.062 588.246 597.315 588.087 597.536C587.049 599.159 583.993 599.656 583.862 599.671C583.817 599.685 583.768 599.684 583.723 599.668C583.678 599.652 583.64 599.623 583.613 599.583C583.589 599.561 583.572 599.534 583.561 599.503C583.551 599.472 583.549 599.439 583.555 599.407ZM587.868 596.25V596.089C587.868 595.606 587.575 595.592 587.517 595.592C586.727 595.592 584.988 597.536 584.271 599.013C585.549 598.779 586.724 598.156 587.634 597.229C587.851 596.95 587.96 596.602 587.941 596.25H587.868Z" fill="#52BD94"/>
<path d="M575.777 574.539L565.119 575.314L571.406 600.753L582.137 599.978L575.777 574.539Z" fill="#CB7A63"/>
<path d="M584.724 597.917C588.058 601.235 589.812 602.931 598.803 604.993C600.792 605.446 599.491 610.183 594.768 610.139C586.976 610.051 591.245 609.73 584.534 609.671C578.847 609.598 573.876 609.671 569.359 609.671C569.208 609.686 569.056 609.686 568.906 609.671C568.474 609.57 568.099 609.303 567.861 608.929C567.623 608.555 567.542 608.102 567.634 607.668L569.914 597.522C569.965 597.302 570.09 597.106 570.269 596.967C570.447 596.828 570.668 596.756 570.894 596.762L581.83 597.01C582.348 596.962 582.871 597.017 583.368 597.173C583.865 597.329 584.326 597.581 584.724 597.917Z" fill="#263238"/>
<path opacity="0.2" d="M575.792 574.554L579.037 587.624L568.365 588.399L565.119 575.314L575.792 574.554Z" fill="black"/>
<path d="M517.984 352.943C522.027 359.368 525.416 366.18 528.101 373.28C533.949 389.099 531.873 397.388 533.832 408.09C537.268 426.964 542.429 441.438 546.04 455.751C557.312 500.532 581.128 580.021 581.128 580.021L561.873 584.261C561.873 584.261 526.171 489.436 516.04 457.403C506.917 428.631 483.481 352.943 483.481 352.943H517.984Z" fill="#52BD94"/>
<path opacity="0.4" d="M517.984 352.943C522.027 359.368 525.416 366.18 528.101 373.28C533.949 389.099 531.873 397.388 533.832 408.09C537.268 426.964 542.429 441.438 546.04 455.751C557.312 500.532 581.128 580.021 581.128 580.021L561.873 584.261C561.873 584.261 526.171 489.436 516.04 457.403C506.917 428.631 483.481 352.943 483.481 352.943H517.984Z" fill="black"/>
<path d="M583.409 576.498L583.613 583.355L560.411 585.855C560.411 585.855 558.365 578.384 558.452 578.384L583.409 576.498Z" fill="#52BD94"/>
<path opacity="0.8" d="M583.409 576.498L583.613 583.355L560.411 585.855C560.411 585.855 558.365 578.384 558.452 578.384L583.409 576.498Z" fill="#1E003D"/>
<path opacity="0.3" d="M494.373 387.783C501.756 411.57 511.113 441.658 516.098 457.433C516.332 458.208 516.595 458.997 516.858 459.83C514.899 433.514 509.724 389.26 496.463 387.637C495.764 387.531 495.05 387.581 494.373 387.783Z" fill="black"/>
<path d="M500.221 352.856C500.221 352.856 505.85 425.517 506.493 459.86C507.078 491.878 504.724 585.153 504.724 585.153H486.156C486.156 585.153 477.297 489.933 474.007 457.418C470.879 426.643 462.764 353.485 462.764 353.485L500.221 352.856Z" fill="#52BD94"/>
<path opacity="0.4" d="M500.221 352.856C500.221 352.856 505.85 425.517 506.493 459.86C507.078 491.878 504.724 585.153 504.724 585.153H486.156C486.156 585.153 477.297 489.933 474.007 457.418C470.879 426.643 462.764 353.485 462.764 353.485L500.221 352.856Z" fill="black"/>
<path d="M507.531 578.647L506.902 585.46H484.329C484.329 585.46 483.262 577.829 483.349 577.829L507.531 578.647Z" fill="#52BD94"/>
<path opacity="0.8" d="M507.531 578.647L506.902 585.46H484.329C484.329 585.46 483.262 577.829 483.349 577.829L507.531 578.647Z" fill="#1E003D"/>
<path d="M536.215 376.058L531.025 374.596C522.708 372.184 513.915 371.922 505.469 373.835L499.402 359.976L501.259 374.596H498.598C490.931 374.414 483.322 375.958 476.332 379.113C474.072 380.258 471.731 381.235 469.329 382.037C469.329 381.599 462.794 353.66 462.794 353.66C456.141 308.338 457.223 285.399 459.226 274.229C459.745 271.305 461.143 268.609 463.232 266.499C465.321 264.389 468.004 262.965 470.922 262.416C473.188 261.992 475.718 261.598 478.32 261.335C486.106 260.806 493.917 260.727 501.712 261.101L506.888 261.481C515.06 261.905 523.437 268.791 521.961 276.905C517.063 303.689 516.244 323.265 516.581 336.174L536.215 376.058Z" fill="#52BD94"/>
<path opacity="0.2" d="M457.984 310.736C457.984 310.736 457.823 288.411 457.984 284.274L474.607 272.841C467.436 284.693 461.847 297.433 457.984 310.736Z" fill="black"/>
<path opacity="0.2" d="M480.148 250.121C481.357 250.833 482.669 251.355 484.036 251.671L483.466 244.727C483.466 244.727 480.981 250.107 480.148 250.121Z" fill="black"/>
<path d="M520.089 228.864C518.832 230.501 517.165 232.226 515.119 232.402C513.912 232.506 512.698 232.315 511.581 231.846C507.926 238.191 500.177 244.902 500.177 244.902C498.234 245.639 496.173 246.015 494.095 246.013C491.923 246.011 489.77 245.599 487.75 244.799C487.359 244.627 486.959 244.476 486.551 244.346C485.981 244.215 483.042 231.846 478.949 229.96L478.028 229.522C478.305 228.22 477.896 224.609 479.168 223.381C479.855 222.709 477.969 220.998 478.115 219.697C478.107 219.59 478.107 219.482 478.115 219.375C476.814 218.557 476.653 216.788 477.209 214.989C478.452 210.282 480.937 211.568 480.937 211.568C480.508 210.957 480.212 210.262 480.069 209.529C479.925 208.797 479.937 208.042 480.104 207.314C480.615 204.624 485.645 203.279 485.645 203.279L487.443 203.63C488.588 202.705 490.039 202.245 491.507 202.343C492.579 202.439 493.617 202.767 494.548 203.305C495.48 203.842 496.283 204.577 496.902 205.457C497.7 204.826 498.642 204.404 499.644 204.229C500.646 204.055 501.675 204.133 502.64 204.456C503.604 204.78 504.472 205.34 505.165 206.084C505.858 206.828 506.355 207.733 506.61 208.717C507.538 208.436 508.526 208.424 509.461 208.683C510.395 208.942 511.237 209.461 511.888 210.179C512.599 210.87 513.111 211.74 513.368 212.697C513.625 213.655 513.619 214.664 513.35 215.618C514.031 215.809 514.638 216.202 515.092 216.745C515.546 217.287 515.826 217.955 515.894 218.659C515.954 220.184 515.831 221.71 515.528 223.206C515.244 224.693 515.449 226.231 516.113 227.592C516.491 228.269 517.112 228.777 517.85 229.013C518.588 229.249 519.389 229.196 520.089 228.864Z" fill="#263238"/>
<path d="M483.335 222.445C480.074 223.469 478.466 228.293 478.379 231.422C478.291 234.829 480.601 236.919 483.525 234.58C485.716 232.785 487.257 230.319 487.911 227.562C488.642 224.288 486.61 221.364 483.335 222.445Z" fill="#CB7A63"/>
<path d="M455.381 273.718L434.767 297.11C431.843 303.733 441.799 311.043 448.788 304.566L473.525 276.072C475.323 272.168 475.557 268.966 472.94 266.379C469.519 263.002 463.408 260.838 455.381 273.718Z" fill="#52BD94"/>
<path d="M173.625 318.338C179.401 324.789 185.652 330.8 192.324 336.321C196.169 339.347 229.078 319.332 233.157 317.051C233.157 317.051 229.473 313.426 227.953 313.82C222.207 315.282 196.578 324.054 196.578 324.054C195.394 323.689 183.566 310.107 183.566 310.107L173.625 318.338Z" fill="#B97964"/>
<path d="M237.412 312.007L237.309 311.934L237.426 312.051C237.426 312.051 234.502 316.832 230.526 318.031L227.514 315.107L228.874 306.335L228.961 305.794L229.283 305.487L233.391 301.481C233.797 301.089 234.34 300.87 234.904 300.87C235.469 300.87 236.011 301.089 236.417 301.481L239.502 304.405C239.837 304.724 240.06 305.143 240.137 305.599C240.213 306.055 240.139 306.524 239.926 306.934L237.412 312.007Z" fill="#B97964"/>
<path d="M191.227 314.434C182.85 302.475 168.098 294.668 163.902 294.61C157.85 294.507 155.978 295.911 158.274 300.458C162.148 308.265 168.508 316.218 177.44 325.721L191.227 314.434Z" fill="#263238"/>
<path d="M167.367 295.209C164.021 293.973 160.603 292.938 157.133 292.11C150.723 290.573 144.21 289.502 137.645 288.908C133.842 288.499 130.022 288.284 126.197 288.265C125.809 288.264 125.421 288.308 125.042 288.396C123.601 288.758 122.355 289.662 121.565 290.921C120.774 292.18 120.501 293.695 120.803 295.151C127.221 329.069 127.528 344.128 126.651 361.599L165.701 363.061C166.199 363.064 166.682 362.888 167.063 362.567C167.443 362.245 167.696 361.798 167.777 361.306C169.502 352.534 174.926 332.929 174.926 332.929C180.423 329.025 180.189 324.551 178.756 318.806C178.303 317.008 177.294 315.282 172.82 305.648C172.733 305.531 169.385 295.926 167.367 295.209Z" fill="#263238"/>
<path d="M142.689 362.168L156.929 362.68C159.048 345.779 157.981 333.162 157.908 313.981C157.967 331.89 147.703 353.455 142.689 362.168Z" fill="#1E003D"/>
<path d="M157.455 369.025C157.455 369.025 174.999 455.883 174.122 491.833C173.171 529.758 165.73 595.051 165.73 595.051L156.475 594.948C156.475 594.948 148.157 546.615 152.923 493.602C128.653 440.444 122.367 372.403 122.367 372.403L157.455 369.025Z" fill="#B97964"/>
<path d="M157.455 369.025C157.455 369.025 174.999 455.883 174.122 491.833C173.171 529.758 165.73 595.051 165.73 595.051L156.475 594.948C156.475 594.948 148.157 546.615 152.923 493.602C128.653 440.444 122.367 372.403 122.367 372.403L157.455 369.025Z" fill="#A86955"/>
<path d="M149.575 390.4C149.575 390.4 154.151 458.383 149.385 494.07C144.355 531.673 129.94 595.781 129.94 595.781L120.729 594.685C120.729 594.685 117.674 545.737 128.039 493.544C109.721 438.076 114.253 390.02 114.253 390.02L149.575 390.4Z" fill="#B97964"/>
<path d="M149.575 390.4C149.575 390.4 154.151 458.383 149.385 494.07C144.355 531.673 129.94 595.781 129.94 595.781L120.729 594.685C120.729 594.685 117.674 545.737 128.039 493.544C109.721 438.076 114.253 390.02 114.253 390.02L149.575 390.4Z" fill="#B97964"/>
<path d="M114.633 468.558C124.121 470.918 133.766 472.598 143.493 473.588L144.37 473.661C144.984 473.734 145.613 473.778 146.285 473.807C150.203 474.012 176.461 477.418 178.274 466.599C178.274 466.599 172.63 439.815 167.192 410.093C163.888 392.067 166.578 366.716 166.578 366.716C155.181 365.385 143.69 365.048 132.235 365.707L125.583 366.087C125.583 366.087 102.995 388.382 108.595 410.444C116.957 443.456 114.633 468.558 114.633 468.558Z" fill="#52BD94"/>
<g opacity="0.4">
<path opacity="0.4" d="M114.633 468.558C124.121 470.918 133.766 472.598 143.493 473.588L144.37 473.661C144.984 473.734 145.613 473.778 146.285 473.807C150.203 474.012 176.461 477.418 178.274 466.599C178.274 466.599 172.63 439.815 167.192 410.093C163.888 392.067 166.578 366.716 166.578 366.716C155.181 365.385 143.69 365.048 132.235 365.707L125.583 366.087C125.583 366.087 102.995 388.382 108.595 410.444C116.957 443.456 114.633 468.558 114.633 468.558Z" fill="black"/>
</g>
<path opacity="0.1" d="M132.06 288.367C132.973 291.8 134.509 295.036 136.592 297.914C142.25 305.706 150.598 314.171 154.282 315.092C155.335 312.651 156.972 307.87 156.972 307.87C159.385 309.054 160.057 312.46 160.861 315.063C164.736 308.776 167.689 297.957 166.709 294.025C166.709 294.025 162.016 292.636 159.706 292.066C153.315 290.577 146.827 289.536 140.291 288.951C137.562 288.586 134.813 288.39 132.06 288.367Z" fill="black"/>
<path d="M131.943 287.65L133.23 289.99C138.215 299.039 149.765 310.677 154.282 311.832C155.125 309.649 155.838 307.418 156.417 305.151C158.829 306.335 160.613 309.741 161.417 312.344C165.291 306.057 167.587 297.256 166.607 293.338C164.326 292.65 161.899 291.949 159.589 291.364C153.202 289.882 146.719 288.842 140.189 288.25C137.454 287.887 134.701 287.687 131.943 287.65Z" fill="#1E003D"/>
<path d="M126.651 366.101L146.431 366.642H148.083L152.367 366.745H154.005L165.613 367.052C165.978 367.052 166.3 366.876 166.315 366.642L166.768 362.929C166.768 362.666 166.49 362.446 166.081 362.432L154.604 361.978H153.23L147.557 361.759H146.212L127.206 361.013C127.076 360.999 126.945 361.018 126.824 361.069C126.704 361.121 126.599 361.202 126.519 361.306L125.949 365.487C125.846 365.765 126.183 366.101 126.651 366.101Z" fill="#52BD94"/>
<path opacity="0.2" d="M126.651 366.101L146.431 366.642H148.083L152.367 366.745H154.005L165.613 367.052C165.978 367.052 166.3 366.876 166.315 366.642L166.768 362.929C166.768 362.666 166.49 362.446 166.081 362.432L154.604 361.978H153.23L147.557 361.759H146.212L127.206 361.013C127.076 360.999 126.945 361.018 126.824 361.069C126.704 361.121 126.599 361.202 126.519 361.306L125.949 365.487C125.846 365.765 126.183 366.101 126.651 366.101Z" fill="#1E003D"/>
<path d="M160.145 367.476H158.873C158.824 367.484 158.774 367.482 158.725 367.47C158.677 367.458 158.631 367.437 158.592 367.407C158.552 367.376 158.519 367.339 158.494 367.295C158.47 367.252 158.454 367.204 158.449 367.154L159.151 361.876C159.151 361.716 159.399 361.584 159.662 361.584H160.934C161.183 361.584 161.373 361.73 161.358 361.891L160.657 367.183C160.612 367.279 160.539 367.358 160.447 367.411C160.356 367.463 160.25 367.486 160.145 367.476Z" fill="#263238"/>
<path d="M138.098 367.154H136.899C136.853 367.165 136.805 367.165 136.758 367.156C136.712 367.147 136.667 367.128 136.629 367.1C136.59 367.072 136.558 367.037 136.534 366.996C136.51 366.955 136.495 366.909 136.49 366.862L137.206 361.555C137.206 361.423 137.455 361.277 137.689 361.292H138.887C139.136 361.292 139.311 361.423 139.297 361.584L138.58 366.862C138.566 367.037 138.347 367.154 138.098 367.154Z" fill="#263238"/>
<path d="M180.072 351.715H150.247L153.727 311.832H183.566L180.072 351.715Z" fill="#52BD94"/>
<path d="M126.811 344.274C127.395 343.713 127.844 343.027 128.122 342.266C128.401 341.506 128.503 340.693 128.42 339.888C128.42 339.888 128.42 337.461 128.507 333.776C128.624 322.972 128.712 301.437 127.586 298.586C125.13 292.402 120.92 289.054 118.712 292.665C116.124 296.89 115.934 328.879 115.934 328.879C116.548 350.019 124.297 347.227 126.811 344.274Z" fill="#B97964"/>
<path d="M168.025 341.057V340.955V341.101C168.025 341.101 163.186 343.937 159.107 343.119L157.85 339.098L163.186 332.022L163.508 331.598L163.932 331.467L169.458 329.888C170.004 329.737 170.588 329.806 171.085 330.079C171.582 330.352 171.953 330.808 172.119 331.35L173.435 335.443C173.572 335.882 173.567 336.354 173.42 336.79C173.272 337.226 172.991 337.604 172.616 337.87L168.025 341.057Z" fill="#B97964"/>
<path d="M120.422 345.443C123.917 349.742 159.619 343.382 159.896 343.25C161.066 342.724 161.241 339.669 159.896 338.557C159.165 337.943 122.659 334.639 120.13 334.435C115.817 341.072 118.639 343.25 120.422 345.443Z" fill="#B97964"/>
<path d="M171.022 246.217C175.861 252.065 178.332 256.451 175.408 276.145C174.853 279.843 176.461 288.557 177.163 288.645C158.157 286.422 152.645 283.294 143.537 277.767C137.645 273.995 132.659 260.633 134.238 253.717C135.949 246.261 144.078 237.635 151.929 236.817C160.73 235.983 165.511 239.492 171.022 246.217Z" fill="#263238"/>
<path d="M157.981 283.191C155.949 287.212 154.721 291.788 159.648 295.852C160.709 296.698 161.443 297.887 161.724 299.215C162.133 301.349 161.241 303.601 153.654 300.677C142.689 296.379 142.426 289.522 142.426 289.522C147.411 287.051 148.727 275.443 148.888 268.908L157.981 283.191Z" fill="#B97964"/>
<path opacity="0.2" d="M151.022 278.381C150.7 281.217 154.253 285.048 156.68 286.408C157.019 285.323 157.454 284.271 157.981 283.264L152.586 274.799C151.828 275.875 151.295 277.094 151.022 278.381Z" fill="black"/>
<path d="M143.902 252.826C144.569 251.099 145.569 249.52 146.847 248.179C148.124 246.839 149.653 245.763 151.346 245.013C153.039 244.264 154.863 243.855 156.714 243.811C158.565 243.767 160.406 244.088 162.133 244.756C172.367 248.645 174.268 264.01 172.367 273.425C170.247 283.923 157.66 287.3 149.545 279.405C144.121 274.156 143.975 269.727 143.069 259.332C142.839 257.128 143.124 254.901 143.902 252.826Z" fill="#B97964"/>
<path d="M145.159 270.282C146.582 268.661 147.639 266.752 148.257 264.686C148.875 262.62 149.04 260.444 148.741 258.308C148.741 258.308 153.478 253.454 153.244 248.264C153.244 248.264 154.706 252.402 153.244 255.355C153.244 255.355 165.54 254.463 165.262 248.264C165.262 248.264 166.315 253.644 164.458 255.253C164.458 255.253 172.952 254.595 172.28 248.791C171.242 239.828 163.625 239.361 163.625 239.361C163.625 239.361 155.467 232.431 144.18 244.682C144.18 244.682 130.905 252.972 140.32 266.802L145.159 270.282Z" fill="#263238"/>
<path d="M166.168 269.712C166.674 269.818 167.195 269.815 167.7 269.704C168.204 269.594 168.678 269.377 169.092 269.068C167.825 267.45 166.787 265.664 166.008 263.761L166.168 269.712Z" fill="#B74D3C"/>
<path d="M158.274 270.647C158.232 270.601 158.208 270.541 158.208 270.479C158.208 270.417 158.232 270.357 158.274 270.311C158.295 270.288 158.322 270.271 158.35 270.258C158.379 270.246 158.41 270.24 158.442 270.24C158.473 270.24 158.504 270.246 158.533 270.258C158.562 270.271 158.588 270.288 158.61 270.311C159.268 271.135 160.112 271.791 161.072 272.226C162.033 272.661 163.083 272.861 164.136 272.811C164.2 272.811 164.261 272.835 164.307 272.879C164.353 272.922 164.381 272.982 164.385 273.045C164.389 273.076 164.386 273.108 164.377 273.138C164.368 273.168 164.353 273.196 164.332 273.219C164.311 273.243 164.285 273.262 164.257 273.275C164.228 273.287 164.197 273.294 164.165 273.294C163.762 273.323 163.356 273.323 162.952 273.294C161.106 273.06 159.425 272.109 158.274 270.647Z" fill="#263238"/>
<path d="M139.107 265.574C139.075 264.555 139.448 263.565 140.144 262.82C140.839 262.075 141.802 261.636 142.82 261.598C145.744 261.598 147.689 265.223 148.113 267.753C148.537 270.56 146.841 272.972 144.063 271.817C141.986 270.899 140.345 269.212 139.487 267.109C139.26 266.628 139.131 266.106 139.107 265.574Z" fill="#B97964"/>
<path d="M159.092 260.837C159.092 261.875 159.589 262.738 160.277 262.767C160.964 262.797 161.534 261.963 161.549 260.911C161.563 259.858 161.051 259.01 160.379 258.981C159.706 258.951 159.122 259.799 159.092 260.837Z" fill="#263238"/>
<path d="M168.771 261.948C168.771 262.986 169.268 263.849 169.955 263.878C170.642 263.907 171.198 263.074 171.227 262.021C171.256 260.969 170.73 260.121 170.057 260.092C169.385 260.062 168.785 260.837 168.771 261.948Z" fill="#263238"/>
<path d="M169.809 260.135L172.338 259.492C172.338 259.492 170.935 261.407 169.809 260.135Z" fill="#263238"/>
<path d="M156.168 257.402C156.08 257.387 155.999 257.347 155.934 257.285C155.886 257.237 155.847 257.18 155.821 257.118C155.794 257.055 155.781 256.987 155.781 256.919C155.781 256.851 155.794 256.784 155.821 256.721C155.847 256.658 155.886 256.601 155.934 256.554C156.574 255.846 157.378 255.305 158.275 254.979C159.172 254.652 160.135 254.551 161.081 254.682C161.212 254.711 161.327 254.789 161.401 254.901C161.475 255.013 161.501 255.15 161.475 255.282C161.463 255.346 161.438 255.408 161.402 255.462C161.366 255.517 161.32 255.564 161.265 255.601C161.211 255.638 161.15 255.663 161.085 255.676C161.021 255.689 160.955 255.689 160.891 255.677C160.108 255.59 159.317 255.689 158.58 255.966C157.843 256.243 157.182 256.69 156.651 257.27C156.591 257.336 156.514 257.383 156.429 257.406C156.343 257.429 156.253 257.428 156.168 257.402Z" fill="#263238"/>
<path d="M172.484 258.674C172.404 258.631 172.334 258.571 172.28 258.498C171.844 257.842 171.259 257.299 170.573 256.913C169.887 256.526 169.119 256.308 168.332 256.276C168.199 256.28 168.069 256.232 167.971 256.142C167.873 256.051 167.813 255.927 167.806 255.793C167.804 255.726 167.815 255.659 167.839 255.596C167.863 255.534 167.899 255.476 167.945 255.427C167.991 255.378 168.047 255.339 168.108 255.312C168.17 255.284 168.236 255.269 168.303 255.267C169.26 255.3 170.195 255.557 171.034 256.02C171.872 256.482 172.59 257.136 173.127 257.928C173.196 258.021 173.231 258.134 173.227 258.249C173.223 258.364 173.181 258.474 173.107 258.562C173.032 258.65 172.93 258.711 172.817 258.733C172.704 258.756 172.587 258.74 172.484 258.688V258.674Z" fill="#263238"/>
<path d="M160.072 259.039L162.586 258.396C162.586 258.396 161.256 260.311 160.072 259.039Z" fill="#263238"/>
<path d="M123.025 288.805C124.254 288.499 125.541 288.517 126.761 288.858C127.981 289.198 129.092 289.85 129.984 290.75C131.937 292.915 133.173 295.632 133.522 298.528C134.078 302.914 129.311 318.893 129.428 323.382C124.721 320.808 117.732 317.27 111.183 316.627C112.104 306.145 113.303 299.156 115.349 295.691C116.393 293.625 117.805 291.767 119.516 290.209C120.582 289.515 121.774 289.038 123.025 288.805Z" fill="#263238"/>
<path d="M168.142 596.205C171.475 599.509 173.23 601.22 182.221 603.281C184.209 603.72 182.923 608.471 178.201 608.428C170.394 608.34 174.663 608.018 167.967 607.945C162.265 607.945 157.309 607.945 152.776 607.945C152.626 607.96 152.474 607.96 152.323 607.945C151.894 607.841 151.523 607.573 151.288 607.199C151.053 606.825 150.973 606.374 151.066 605.942L153.347 595.796C153.391 595.576 153.513 595.378 153.69 595.239C153.866 595.1 154.087 595.028 154.312 595.036L165.262 595.284C165.779 595.238 166.301 595.295 166.795 595.453C167.29 595.612 167.748 595.867 168.142 596.205Z" fill="#263238"/>
<path d="M133.259 596.922C135.393 601.103 136.519 603.282 144.428 608.048C146.168 609.086 143.464 613.179 138.99 611.674C131.68 609.144 135.759 610.212 129.472 608.048C124.077 606.206 119.341 604.729 115.028 603.355C114.882 603.313 114.744 603.249 114.618 603.165C114.238 602.937 113.963 602.567 113.853 602.138C113.744 601.708 113.808 601.252 114.034 600.869L119.37 591.951C119.483 591.754 119.663 591.603 119.877 591.526C120.091 591.448 120.326 591.449 120.539 591.527L130.773 595.182C131.284 595.289 131.767 595.499 132.194 595.798C132.621 596.097 132.984 596.479 133.259 596.922Z" fill="#263238"/>
</svg>
