<svg width="217" height="65" viewBox="0 0 217 65" fill="none" xmlns="http://www.w3.org/2000/svg">
<path d="M35.7234 28.4402L35.401 37.0432C35.9384 37.74 36.7984 38.0884 37.9808 38.0884C40.7756 38.0884 44.9409 35.9712 50.4767 31.7367C56.0663 27.4486 61.0916 22.6244 65.5525 17.2643C70.0672 11.8506 72.3245 7.72327 72.3245 4.8824C72.3245 2.68475 70.8465 1.58592 67.8905 1.58592C63.6983 1.58592 58.6193 3.14036 52.6534 6.24923C46.6876 9.35811 40.7756 13.3514 34.9172 18.2291C29.0589 23.0533 23.5499 28.199 18.3903 33.6663C13.2845 39.0801 9.11913 44.4134 5.89437 49.6663C2.72335 54.8656 1.13784 59.1002 1.13784 62.3698C1.13784 62.7986 1.32595 63.0131 1.70217 63.0131C3.26081 63.0131 6.67368 59.9042 11.9408 53.6864C17.2079 47.4151 22.26 40.7953 27.0972 33.8271C31.9881 26.8053 34.8904 22.1152 35.8041 19.7568C35.9653 19.3816 36.1265 19.194 36.2878 19.194C36.879 19.194 37.1746 19.9444 37.1746 21.4452C37.1746 22.8925 37.0402 23.8037 36.7715 24.1789C36.1803 25.7869 34.9979 27.9578 33.2242 30.6914C29.0858 37.1772 23.2006 44.3598 15.5687 52.2392C7.99046 60.1186 3.28768 64.0583 1.46032 64.0583C0.600379 64.0583 0.17041 63.4955 0.17041 62.3698C0.17041 58.1889 2.69648 52.5608 7.74861 45.4854C12.8007 38.3564 18.8203 31.5223 25.8073 24.9829C32.848 18.3899 40.3456 12.6814 48.3 7.85728C56.3082 3.03315 62.9458 0.621094 68.2129 0.621094C72.7276 0.621094 74.9849 2.22913 74.9849 5.44521C74.9849 7.96448 73.5875 11.2074 70.7927 15.1739C67.9979 19.0868 64.6388 22.8388 60.7154 26.4301C56.7919 30.0214 52.5191 33.1035 47.8969 35.6764C43.2748 38.2492 39.2976 39.5357 35.9653 39.5357C35.6966 39.5357 35.4816 39.5089 35.3203 39.4553C35.8578 55.3213 38.4645 63.2543 43.1404 63.2543C44.7528 63.2543 46.7951 62.745 49.2674 61.7266C51.7935 60.7618 53.9165 59.7702 55.6364 58.7517L58.2162 57.2241C58.6461 56.9561 58.9686 56.8221 59.1836 56.8221C59.3986 56.8221 59.5061 56.9293 59.5061 57.1437C59.5061 57.3045 59.318 57.5457 58.9417 57.8673C58.1893 58.3497 57.2219 58.9662 56.0395 59.7166C54.857 60.467 52.7878 61.4586 49.8318 62.6914C46.8757 63.9779 44.4303 64.6211 42.4954 64.6211C40.6143 64.6211 39.0288 64.0047 37.7389 62.7718C36.449 61.5926 35.4816 59.9578 34.8366 57.8673C33.6005 54.1152 32.9824 49.6931 32.9824 44.601C32.9824 39.4553 33.278 35.4084 33.8692 32.4603C34.5142 29.5122 35.0785 28.0382 35.5622 28.0382C35.6697 28.0382 35.7234 28.1722 35.7234 28.4402Z" fill="#52BD94"/>
<path d="M79.6728 33.1839C78.7591 33.1839 78.3023 32.7819 78.3023 31.9779C78.3023 31.1203 78.7054 30.3162 79.5116 29.5658C80.3178 28.8154 80.9896 28.4402 81.5271 28.4402C82.1183 28.4402 82.5482 28.601 82.817 28.9226C83.1394 29.2442 83.3007 29.6194 83.3007 30.0482C83.3007 30.477 82.9244 31.1203 82.172 31.9779C81.4196 32.7819 80.5865 33.1839 79.6728 33.1839ZM59.2762 58.5909C59.8674 57.2509 62.2322 54.1956 66.3707 49.4251C70.5629 44.6546 73.7339 41.1973 75.8837 39.0533C76.2062 38.6244 76.3674 38.3296 76.3674 38.1688C76.3674 37.9544 76.1524 37.8204 75.7225 37.7668L73.8682 37.606C73.4383 37.606 73.0352 37.8204 72.659 38.2492C69.0042 41.9477 65.5376 45.9946 62.2591 50.3899C59.0343 54.7316 57.4219 57.4385 57.4219 58.5105C57.4219 59.529 57.7444 60.0382 58.3894 60.0382C59.2493 60.0382 60.9961 59.3414 63.6296 57.9477C66.2632 56.5005 68.6817 55.0533 70.8853 53.606L74.1907 51.4352L74.1101 50.3899C65.457 56.0717 60.6467 58.9126 59.6793 58.9126C59.4105 58.9126 59.2762 58.8054 59.2762 58.5909Z" fill="#52BD94"/>
<path d="M85.8351 45.807C85.8351 45.4318 85.9695 45.003 86.2382 44.5206C86.507 44.0382 86.7757 43.797 87.0444 43.797C87.3132 43.797 87.555 43.9846 87.77 44.3598C90.7798 42.0013 92.2847 40.2593 92.2847 39.1337C92.2847 38.9729 92.1503 38.8924 91.8816 38.8924C90.1617 38.8924 87.7969 40.0985 84.7871 42.5105C81.7773 44.9226 79.09 47.7099 76.7252 50.8723C74.4141 53.9812 73.2586 56.4469 73.2586 58.2693C73.2586 58.7517 73.5004 58.993 73.9841 58.993C75.9727 58.993 79.8962 57.1705 85.7545 53.5256L90.5917 50.3899L90.6723 51.4352C89.3286 52.2928 87.7969 53.2576 86.077 54.3296C79.8425 58.1889 75.5159 60.1186 73.0973 60.1186C72.0224 60.1186 71.4849 58.993 71.4849 56.7417C71.4849 54.4904 72.5867 51.8908 74.7903 48.9427C76.9939 45.941 79.7618 43.3414 83.0941 41.1437C86.4263 38.9461 89.463 37.8472 92.204 37.8472C93.279 37.8472 93.8164 38.276 93.8164 39.1337C93.8164 40.3129 92.8759 41.8673 90.9948 43.797C89.1674 45.7266 87.8506 46.6914 87.0444 46.6914C86.2382 46.6914 85.8351 46.3966 85.8351 45.807Z" fill="#52BD94"/>
<path d="M114.836 25.7065L103.146 39.2945C107.392 36.4536 113.922 30.5574 122.737 21.606C131.551 12.6546 135.958 7.32126 135.958 5.60602C135.958 5.33801 135.824 5.20401 135.555 5.20401C135.286 5.20401 134.991 5.28441 134.668 5.44521C131.175 7.37486 126.929 11.3146 121.93 17.2643C121.715 17.4787 120.587 18.8188 118.544 21.2844C116.556 23.6965 115.32 25.1705 114.836 25.7065ZM137.893 4.7216C137.893 7.24086 133.217 13.137 123.865 22.41C114.567 31.6295 106.774 38.3028 100.486 42.4301L99.1959 43.9578C97.8522 45.1906 95.138 48.5407 91.0533 54.008C90.7309 54.544 90.5696 54.8389 90.5696 54.8925C90.5696 54.9461 90.5965 54.9729 90.6502 54.9729C90.7577 54.9729 91.0802 54.812 91.6177 54.4904C92.1551 54.1152 94.1706 52.668 97.6641 50.1487C105.726 44.3062 111.611 40.4737 115.32 38.6512C115.642 38.544 115.857 38.4904 115.965 38.4904C116.556 38.4904 116.851 38.9997 116.851 40.0181C116.851 40.9829 116.072 42.5105 114.513 44.601C112.955 46.6378 111.235 48.5407 109.354 50.3095C104.302 55.0801 101.776 57.7601 101.776 58.3497C101.776 58.6713 101.883 58.8321 102.098 58.8321C105.108 57.8673 107.741 56.7149 109.999 55.3749L117.899 50.3899L117.98 51.4352C112.337 55.1873 108.118 57.5725 105.323 58.5909C102.582 59.6094 100.808 60.1186 100.002 60.1186C99.2496 60.1186 98.8734 59.8774 98.8734 59.395C98.8734 58.4301 100.244 56.5005 102.985 53.606C105.726 50.7116 108.44 47.8975 111.127 45.1638C113.869 42.3765 115.239 40.7149 115.239 40.1789C115.239 40.0717 115.158 40.0181 114.997 40.0181C114.299 40.0181 110.966 42.0281 105 46.0482C99.0346 50.0683 94.5468 53.2308 91.537 55.5357C88.581 57.7869 86.9418 59.1002 86.6193 59.4754C86.2968 59.797 85.4637 60.0382 84.1201 60.199C83.5826 60.199 83.3139 60.065 83.3139 59.797C83.3139 59.529 83.6901 58.8857 84.4426 57.8673C88.3123 53.1504 94.5468 45.807 103.146 35.8372C111.746 25.8137 116.368 20.5072 117.013 19.9176C117.658 19.2744 118.571 18.3363 119.754 17.1035C120.99 15.8707 122.065 14.7986 122.979 13.8874C123.946 12.9226 125.155 11.7702 126.606 10.4301C128.111 9.0365 129.401 7.88408 130.476 6.97285C133.217 4.7216 135.233 3.59597 136.523 3.59597C136.899 3.59597 137.221 3.72997 137.49 3.99798C137.759 4.21238 137.893 4.45359 137.893 4.7216Z" fill="#52BD94"/>
<path d="M141.704 50.3899L141.784 51.4352C133.131 57.1705 127.864 60.0382 125.983 60.0382C125.66 60.0382 125.499 59.8506 125.499 59.4754C125.499 58.3497 125.929 56.7417 126.789 54.6512L127.192 53.5256C127.192 53.4184 127.085 53.3648 126.87 53.3648C126.708 53.3648 125.15 54.4368 122.194 56.5809C119.291 58.7249 117.383 59.797 116.47 59.797C115.61 59.797 115.18 58.993 115.18 57.3849C115.18 52.936 117.706 48.5943 122.758 44.3598C127.864 40.1253 133.991 38.008 141.139 38.008C141.784 38.008 142.107 38.276 142.107 38.812C142.107 39.3481 139.581 42.4837 134.528 48.2191C129.476 53.9008 126.95 57.3313 126.95 58.5105C126.95 58.7249 127.111 58.8321 127.434 58.8321C127.756 58.8321 129.127 58.1353 131.546 56.7417C133.964 55.3481 136.248 53.9544 138.398 52.5608L141.704 50.3899ZM128.885 50.4703C129.799 49.7735 131.572 47.9243 134.206 44.9226C136.84 41.9209 138.156 40.1789 138.156 39.6965C138.156 39.4821 137.941 39.3749 137.511 39.3749C135.039 39.3749 132.164 40.5273 128.885 42.8321C125.607 45.0834 122.812 47.6563 120.501 50.5507C118.243 53.4452 117.115 55.7769 117.115 57.5457C117.115 57.8673 117.276 58.0281 117.598 58.0281C117.921 58.0281 118.431 57.8405 119.13 57.4653C119.883 57.0365 120.769 56.4737 121.791 55.7769C122.866 55.0265 123.779 54.3832 124.532 53.8472C127.111 51.9176 128.563 50.792 128.885 50.4703Z" fill="#52BD94"/>
<path d="M166.205 47.9779L166.85 48.7015C164.378 50.2023 162.363 51.462 160.804 52.4804C159.245 53.4988 158.063 54.008 157.257 54.008C156.074 54.008 155.483 53.4988 155.483 52.4804C155.483 51.73 155.886 50.2559 156.692 48.0583C157.552 45.807 158.144 44.2258 158.466 43.3146L158.224 43.0734C158.009 43.0734 157.767 43.1806 157.499 43.395C152.07 47.7367 148.55 50.658 146.937 52.1588C145.379 53.6596 143.847 55.2677 142.342 56.9829C140.891 58.6981 140.085 59.6362 139.924 59.797C139.816 59.9578 139.736 60.065 139.682 60.1186C139.521 60.2794 138.983 60.3598 138.069 60.3598C137.102 60.3598 136.618 60.2794 136.618 60.1186C136.726 59.9578 137.398 59.2074 138.634 57.8673C141.643 54.5976 144.358 51.462 146.776 48.4603L144.438 49.8271C141.966 51.328 140.165 52.4536 139.037 53.204L138.714 52.3196L143.793 49.1035C145.621 47.9243 147.179 46.6914 148.469 45.405C149.813 44.1186 150.727 43.0734 151.21 42.2693C151.694 41.4653 152.124 40.7953 152.5 40.2593C152.876 39.7233 153.226 39.4553 153.548 39.4553C153.871 39.4553 154.381 39.6429 155.08 40.0181C155.08 40.5541 154.65 41.4921 153.79 42.8321C152.93 44.1722 152.07 45.3782 151.21 46.4502L149.92 47.9779C149.92 48.0851 149.947 48.1387 150.001 48.1387C150.162 48.1387 150.35 48.0583 150.565 47.8975C150.78 47.6831 151.667 46.9327 153.226 45.6462C154.838 44.3062 156.236 43.1806 157.418 42.2693C158.6 41.3045 159.944 40.3933 161.449 39.5357C163.008 38.678 164.136 38.2492 164.835 38.2492C165.534 38.2492 165.883 38.41 165.883 38.7316C165.883 39.1605 164.566 40.0717 161.933 41.4653C161.341 41.7869 160.428 43.3414 159.192 46.1286C158.009 48.8623 157.418 50.8724 157.418 52.1588C157.418 52.4268 157.66 52.5608 158.144 52.5608C158.681 52.5608 159.702 52.0784 161.207 51.1136L166.205 47.9779Z" fill="#52BD94"/>
<path d="M161.833 58.5909C163.284 58.5909 166.858 56.5005 172.555 52.3196C178.253 48.0851 182.337 44.0382 184.81 40.1789C184.81 39.8037 184.487 39.6161 183.842 39.6161C182.337 39.6161 179.784 40.7417 176.183 42.993C172.582 45.2442 169.223 47.8975 166.106 50.9528C163.042 53.9544 161.511 56.3665 161.511 58.1889C161.511 58.4569 161.618 58.5909 161.833 58.5909ZM172.959 60.4402C172.314 60.4402 171.991 60.0918 171.991 59.395C171.991 58.6445 172.152 57.8941 172.475 57.1437C172.851 56.3933 173.389 55.4553 174.087 54.3296C175.001 52.8824 175.592 51.7836 175.861 51.0332L175.78 50.9528C167.665 56.8489 162.666 59.797 160.785 59.797C160.194 59.797 159.898 59.261 159.898 58.1889C159.898 55.4017 160.893 52.7216 162.881 50.1487C164.924 47.5759 167.369 45.4854 170.218 43.8774C173.066 42.2157 175.915 40.9025 178.763 39.9377C181.612 38.9729 184.003 38.4904 185.938 38.4904C196.741 26.6445 205.179 16.8087 211.253 8.98291C212.489 7.37486 213.886 6.54404 215.445 6.49044C215.929 6.49044 216.17 6.70485 216.17 7.13366C216.17 7.56247 212.596 11.8238 205.448 19.9176C198.3 28.0114 191.152 36.266 184.003 44.6814C176.855 53.0968 173.281 57.9209 173.281 59.1538C173.281 59.3682 173.415 59.4754 173.684 59.4754C173.953 59.4754 175.028 59.0198 176.909 58.1085C178.79 57.1973 180.483 56.2861 181.988 55.3749L189.889 50.3899L189.969 51.4352C181.047 57.4385 175.377 60.4402 172.959 60.4402Z" fill="#52BD94"/>
</svg>
