<svg width="172" height="146" viewBox="0 0 172 146" fill="none" xmlns="http://www.w3.org/2000/svg">
<path d="M20.0119 113.478H31.5179C34.1733 113.478 36.3373 115.642 36.3373 118.395C36.3373 121.05 34.1733 123.214 31.5179 123.214H22.1143C19.5571 123.214 17.2956 125.279 17.2956 128.032C17.2956 130.688 19.4593 132.852 22.1143 132.852H34.0746C36.1753 137.086 38.8239 140.995 41.9003 144.519H123.835C126.909 140.994 129.556 137.085 131.657 132.852H138.048C140.801 132.852 142.866 130.688 142.866 128.032C142.866 125.378 140.703 123.214 138.048 123.214H125.656C123.001 123.214 120.838 121.05 120.838 118.395C120.838 115.642 123.001 113.478 125.656 113.478H144.342C147.095 113.478 149.259 111.315 149.259 108.659C149.259 106.004 147.095 103.84 144.342 103.84H132.934C130.181 103.84 128.017 101.677 128.017 99.0218C128.017 96.2677 130.181 94.1045 132.934 94.1045H144.363C147.018 94.1045 149.28 92.0391 149.28 89.2859C149.28 86.6304 147.117 84.4665 144.363 84.4665H131.74C122.824 66.4922 104.311 54.124 82.8863 54.124C61.4587 54.124 42.9289 66.4884 34.0137 84.4665H26.4045C23.6506 84.4665 21.4874 86.7288 21.4874 89.2859C21.4874 91.9407 23.6506 94.1045 26.4045 94.1045H38.7958C41.4506 94.1045 43.6146 96.2677 43.6146 99.0218C43.6146 101.677 41.4506 103.84 38.7958 103.84H20.0119C17.3571 103.84 15.1934 106.004 15.1934 108.659C15.1933 111.315 17.3571 113.478 20.0119 113.478Z" fill="#FACBD6"/>
<path d="M119.799 65.9817V118.602C119.799 121.722 117.281 124.24 114.161 124.24H31.4719C28.352 124.24 25.834 121.722 25.834 118.602V65.9817C25.834 62.8808 28.352 60.3438 31.4719 60.3438H114.161C117.281 60.3438 119.799 62.8808 119.799 65.9817Z" fill="white"/>
<path d="M32.3909 118.937C31.8759 118.937 31.4722 118.534 31.4722 118.018V66.5672C31.4722 66.0603 31.8849 65.6484 32.3909 65.6484H113.243C113.749 65.6484 114.162 66.0603 114.162 66.5672V118.018C114.162 118.533 113.758 118.937 113.243 118.937H32.3909V118.937Z" fill="#45B9EA"/>
<path d="M95.7998 139.82V144.519H49.8501V139.82L62.0468 137.002H83.5843L95.7998 139.82Z" fill="#EAF3FB"/>
<path d="M102.879 88.3045V140.76C102.879 142.836 104.562 144.519 106.638 144.519H142.407C144.483 144.519 146.166 142.836 146.166 140.76V88.3045C146.166 86.2287 144.483 84.5459 142.407 84.5459H106.638C104.562 84.5459 102.879 86.2287 102.879 88.3045Z" fill="white"/>
<path d="M146.166 93.1475H102.879V134.079H146.166V93.1475Z" fill="#A8BAE0"/>
<path d="M129.399 87.9082H119.645C119.126 87.9082 118.705 88.3291 118.705 88.8483C118.705 89.3675 119.126 89.7884 119.645 89.7884H129.399C129.918 89.7884 130.339 89.3675 130.339 88.8483C130.339 88.3291 129.918 87.9082 129.399 87.9082Z" fill="#D1D2D2"/>
<path d="M124.521 142.119C126.079 142.119 127.341 140.856 127.341 139.299C127.341 137.741 126.079 136.479 124.521 136.479C122.963 136.479 121.701 137.741 121.701 139.299C121.701 140.856 122.963 142.119 124.521 142.119Z" fill="#D1D2D2"/>
<path d="M108.668 100.399V105.708C108.668 106.227 109.089 106.648 109.608 106.648H139.436C139.955 106.648 140.376 106.227 140.376 105.708V100.399C140.376 99.8798 139.955 99.4589 139.436 99.4589H109.608C109.089 99.4589 108.668 99.8798 108.668 100.399ZM108.668 113.357V126.831C108.668 127.351 109.089 127.771 109.608 127.771H120.762C121.281 127.771 121.702 127.351 121.702 126.831V113.357C121.702 112.837 121.281 112.417 120.762 112.417H109.608C109.089 112.417 108.668 112.837 108.668 113.357ZM127.342 113.357V126.831C127.342 127.351 127.763 127.771 128.282 127.771H139.436C139.956 127.771 140.376 127.351 140.376 126.831V113.357C140.376 112.837 139.956 112.417 139.436 112.417H128.282C127.763 112.417 127.342 112.837 127.342 113.357ZM64.262 73.8484V110.737C64.262 111.755 63.4443 112.554 62.4448 112.554H39.7566C38.7575 112.554 37.9395 111.755 37.9395 110.737V73.8484C37.9395 72.849 38.7575 72.0312 39.7566 72.0312H62.4448C63.4443 72.0313 64.262 72.849 64.262 73.8484Z" fill="white"/>
<path d="M97.2226 74.2393H70.729V76.1194H97.2226V74.2393Z" fill="white"/>
<path d="M97.2228 85.6494H82.0103V87.5296H97.2228V85.6494Z" fill="white"/>
<path d="M97.2226 97.0576H70.729V98.9378H97.2226V97.0576Z" fill="white"/>
<path d="M97.2228 108.467H82.0103V110.347H97.2228V108.467Z" fill="white"/>
<path d="M126.057 23.1954C123.606 23.1954 121.61 21.2005 121.61 18.7484C121.61 18.4886 121.399 18.2783 121.14 18.2783C120.881 18.2783 120.67 18.4886 120.67 18.7484C120.67 21.2005 118.674 23.1954 116.223 23.1954C115.964 23.1954 115.753 23.4057 115.753 23.6655C115.753 23.9253 115.964 24.1355 116.223 24.1355C118.674 24.1355 120.67 26.1305 120.67 28.5817C120.67 28.8415 120.881 29.0517 121.14 29.0517C121.399 29.0517 121.61 28.8415 121.61 28.5817C121.61 26.1305 123.606 24.1355 126.057 24.1355C126.316 24.1355 126.527 23.9253 126.527 23.6655C126.527 23.4057 126.316 23.1954 126.057 23.1954ZM121.14 26.4023C120.598 25.1851 119.621 24.2075 118.403 23.6655C119.621 23.1234 120.598 22.1457 121.14 20.9282C121.682 22.1457 122.66 23.1234 123.877 23.6655C122.66 24.2075 121.682 25.1851 121.14 26.4023Z" fill="#EF385A"/>
<path d="M51.4099 5.1173C48.9587 5.1173 46.9647 3.12235 46.9647 0.670241C46.9647 0.410438 46.7536 0.200195 46.4947 0.200195C46.2358 0.200195 46.0246 0.410438 46.0246 0.670241C46.0246 3.12237 44.0288 5.1173 41.5776 5.1173C41.3187 5.1173 41.1075 5.32754 41.1075 5.58734C41.1075 5.84715 41.3187 6.05739 41.5776 6.05739C44.0288 6.05739 46.0246 8.05233 46.0246 10.5044C46.0246 10.7643 46.2358 10.9745 46.4947 10.9745C46.7536 10.9745 46.9647 10.7643 46.9647 10.5044C46.9647 8.05232 48.9587 6.05739 51.4099 6.05739C51.6688 6.05739 51.88 5.84715 51.88 5.58734C51.88 5.32754 51.6688 5.1173 51.4099 5.1173ZM46.4947 8.32442C45.9525 7.10696 44.9748 6.12946 43.7575 5.58734C44.9748 5.04523 45.9525 4.06761 46.4947 2.85016C47.0368 4.06761 48.0141 5.04523 49.2314 5.58734C48.0141 6.12946 47.0368 7.10694 46.4947 8.32442Z" fill="#2F2666"/>
<path d="M30.9166 43.2276C28.4654 43.2276 26.4695 41.2327 26.4695 38.7806C26.4695 38.5208 26.2584 38.3105 25.9995 38.3105C25.7406 38.3105 25.5294 38.5208 25.5294 38.7806C25.5294 41.2327 23.5336 43.2276 21.0823 43.2276C20.8234 43.2276 20.6123 43.4379 20.6123 43.6977C20.6123 43.9575 20.8234 44.1677 21.0823 44.1677C23.5336 44.1677 25.5294 46.1627 25.5294 48.6148C25.5294 48.8746 25.7406 49.0848 25.9995 49.0848C26.2584 49.0848 26.4695 48.8746 26.4695 48.6148C26.4695 46.1627 28.4654 44.1677 30.9166 44.1677C31.1755 44.1677 31.3866 43.9575 31.3866 43.6977C31.3866 43.4379 31.1754 43.2276 30.9166 43.2276ZM25.9994 46.4349C25.4573 45.2173 24.48 44.2398 23.2623 43.6977C24.4801 43.1556 25.4573 42.178 25.9994 40.9604C26.5415 42.178 27.5193 43.1556 28.7366 43.6977C27.5193 44.2398 26.5415 45.2173 25.9994 46.4349Z" fill="#4AB74A"/>
<path d="M139.635 65.2111C137.184 65.2111 135.188 63.2161 135.188 60.764C135.188 60.5042 134.977 60.2939 134.718 60.2939C134.459 60.2939 134.248 60.5042 134.248 60.764C134.248 63.2161 132.254 65.2111 129.803 65.2111C129.544 65.2111 129.333 65.4213 129.333 65.6811C129.333 65.9409 129.544 66.1511 129.803 66.1511C132.254 66.1511 134.248 68.1461 134.248 70.5982C134.248 70.858 134.459 71.0682 134.718 71.0682C134.977 71.0682 135.188 70.858 135.188 70.5982C135.188 68.1461 137.184 66.1511 139.635 66.1511C139.894 66.1511 140.105 65.9409 140.105 65.6811C140.105 65.4213 139.894 65.2111 139.635 65.2111ZM134.718 68.4183C134.176 67.2007 133.199 66.2232 131.982 65.6811C133.199 65.139 134.176 64.1614 134.718 62.9438C135.26 64.1614 136.238 65.139 137.456 65.6811C136.238 66.2232 135.26 67.2007 134.718 68.4183Z" fill="#45B9EA"/>
<path d="M92.4812 45.165V46.6586C92.4812 49.8371 89.9157 52.403 86.7368 52.403H58.8957C55.7173 52.403 53.1514 49.8371 53.1514 46.6586V45.165C53.1514 38.7888 57.9 33.5422 64.066 32.7764L72.8163 39.6122L81.567 32.7764C87.7326 33.5422 92.4812 38.8079 92.4812 45.165Z" fill="#EF385A"/>
<path d="M72.614 7.30957C66.3985 7.30957 61.3599 9.12571 61.3599 16.7168C61.3599 24.3078 66.3985 32.4323 72.614 32.4323C78.8295 32.4323 83.8682 24.3077 83.8682 16.7168C83.8682 9.12571 78.8295 7.30957 72.614 7.30957Z" fill="#FED208"/>
<path d="M76.5189 10.2453C76.5189 10.2453 74.1982 13.312 66.4071 12.4832C66.4071 12.4832 61.517 17.2076 62.0143 21.6004C62.0143 21.6004 56.9303 12.1001 63.699 5.22599C68.2181 0.636549 75.5299 -0.0603211 80.7978 3.64566C84.6416 6.34976 87.5011 11.2813 83.5641 20.1914C83.5641 20.1914 77.5964 14.6382 76.5189 10.2453ZM17.8897 143.578H1.39224C0.872613 143.578 0.452148 143.999 0.452148 144.518C0.452148 145.038 0.872613 145.458 1.39224 145.458H17.8897C18.4093 145.458 18.8298 145.038 18.8298 144.518C18.8298 143.999 18.4093 143.578 17.8897 143.578ZM170.608 143.578H154.111C153.591 143.578 153.171 143.999 153.171 144.518C153.171 145.038 153.591 145.458 154.111 145.458H170.608C171.128 145.458 171.549 145.038 171.549 144.518C171.549 143.999 171.128 143.578 170.608 143.578ZM147.393 143.578H146.171C146.754 142.789 147.111 141.811 147.111 140.758V135.024C147.111 121.07 147.111 109.746 147.111 88.3013C147.111 85.7066 145.005 83.6008 142.41 83.6008H120.74V65.9823C120.74 62.355 117.789 59.4044 114.161 59.4044H31.4715C27.8451 59.4044 24.8945 62.355 24.8945 65.9823V118.603C24.8945 122.23 27.8451 125.181 31.4715 125.181H61.1114V136.246L49.6426 138.897C49.2101 139.01 48.909 139.386 48.909 139.818V143.578H24.6081C24.0884 143.578 23.668 143.999 23.668 144.518C23.668 145.038 24.0884 145.458 24.6081 145.458C100.214 145.459 103.859 145.459 147.393 145.458C147.912 145.458 148.333 145.038 148.333 144.518C148.333 143.999 147.912 143.578 147.393 143.578ZM145.231 140.758C145.231 142.318 143.954 143.577 142.413 143.578H106.628C105.088 143.577 103.81 142.318 103.81 140.758V135.024H145.231V140.758ZM103.81 94.0921H145.231V133.144H103.81V94.0921ZM101.93 88.3013C101.93 95.8359 101.93 110.479 101.93 118L32.4134 118.018L32.3913 66.5882L113.223 66.5671L113.23 83.6008H106.63C104.055 83.6008 101.93 85.7066 101.93 88.3013ZM145.231 88.3013V92.212H103.81V88.3013C103.81 86.7407 105.089 85.481 106.63 85.481H142.41C143.952 85.481 145.231 86.7407 145.231 88.3013ZM26.7747 118.603V65.9823C26.7747 63.3915 28.8825 61.2846 31.4715 61.2846H114.161C116.752 61.2846 118.859 63.3915 118.859 65.9823V83.6008H115.103V66.5671C115.103 65.5416 114.269 64.708 113.243 64.708H32.3913C31.3668 64.708 30.5332 65.5416 30.5332 66.5671V118.018C30.5332 119.061 31.3503 119.877 32.3913 119.877H101.93V123.301H31.4715C28.8825 123.301 26.7747 121.193 26.7747 118.603ZM101.93 125.181V135.024V140.758C101.93 141.811 102.288 142.789 102.889 143.578H96.7407V139.818C96.7407 139.386 96.44 139.01 96.0076 138.897L84.5383 136.246V125.181H101.93ZM82.6582 136.058H62.9916V125.19H82.6582V136.058ZM50.7892 140.57L62.1456 137.938H83.4858L94.8605 140.57V143.578H50.7892V140.57ZM58.8929 52.8786H86.7385C90.1601 52.8786 92.9427 50.0772 92.9427 46.6552V45.1699C92.9427 38.6457 88.0733 33.1179 81.624 32.3094L81.4362 32.2906L72.8249 39.0217L64.1951 32.2906L64.0069 32.3094C57.558 33.1179 52.6882 38.6457 52.6882 45.1699V46.6552C52.6882 50.0772 55.4708 52.8786 58.8929 52.8786ZM53.6283 45.1699C53.6283 39.1722 58.0469 34.0956 63.9316 33.2684L72.8249 40.2062L81.6992 33.2684C87.6033 34.0956 92.0026 39.1721 92.0026 45.1699V46.6552C92.0026 49.5695 89.6524 51.9385 86.7385 51.9385H58.8929C55.9785 51.9385 53.6283 49.5695 53.6283 46.6552V45.1699Z" fill="#010101"/>
<path d="M61.5998 21.8193C63.1981 27.723 67.3909 32.9124 72.6178 32.9124C78.2395 32.9124 82.6577 26.8958 83.9366 20.4656C83.9554 20.4468 83.9737 20.4279 83.993 20.3904C88.1858 10.8954 84.7261 5.83771 81.0598 3.26187C78.7849 1.64493 76.0582 0.798828 73.2196 0.798828C69.5153 0.798828 65.9243 2.28425 63.367 4.8976C56.6928 11.6663 61.1862 20.9921 61.581 21.7629C61.5809 21.8006 61.5998 21.8193 61.5998 21.8193ZM72.6178 31.9723C67.8797 31.9723 63.95 26.9711 62.4834 21.4245C62.1639 17.7769 65.7925 13.7909 66.5821 12.9825C67.4097 13.0577 68.1992 13.0953 68.9699 13.0953C73.1443 13.0953 75.3252 11.8731 76.2841 11.1211C77.6378 14.9943 81.9811 19.3187 83.0153 20.3151C81.7741 26.2941 77.6754 31.9723 72.6178 31.9723ZM64.0253 5.55576C66.432 3.13037 69.7787 1.73894 73.2196 1.73894C75.8705 1.73894 78.3901 2.52869 80.5333 4.03281C84.632 6.92825 85.9108 11.1775 84.3313 16.7052V16.724C84.0866 17.5701 83.7672 18.4538 83.3912 19.375L83.203 19.187C81.6428 17.6076 77.7883 13.4713 76.98 10.1434C76.9231 9.95529 76.7918 9.82379 76.6224 9.78615C76.4347 9.74851 76.2465 9.82379 76.1523 9.95531C76.1335 9.97413 74.3663 12.1552 68.9699 12.1552C68.1616 12.1552 67.3344 12.1176 66.4508 12.0236C66.319 12.0047 66.1873 12.0424 66.0748 12.1552C65.9243 12.2868 63.0287 15.1446 61.9385 18.5102C61.8256 18.8486 61.7315 19.187 61.6562 19.5255C61.3744 18.717 61.0733 17.6641 60.8855 16.4796C60.359 13.2645 60.6032 9.03406 64.0253 5.55576Z" fill="#010101"/>
<path d="M68.3639 21.1418C69.2797 21.1418 70.0222 20.3994 70.0222 19.4835C70.0222 18.5677 69.2797 17.8252 68.3639 17.8252C67.448 17.8252 66.7056 18.5677 66.7056 19.4835C66.7056 20.3994 67.448 21.1418 68.3639 21.1418Z" fill="#010101"/>
<path d="M76.8624 21.1418C77.7783 21.1418 78.5207 20.3994 78.5207 19.4835C78.5207 18.5677 77.7783 17.8252 76.8624 17.8252C75.9466 17.8252 75.2041 18.5677 75.2041 19.4835C75.2041 20.3994 75.9466 21.1418 76.8624 21.1418Z" fill="#010101"/>
<path d="M72.6135 28.025C71.6605 28.025 70.7057 27.6624 69.9805 26.9362C69.7969 26.7526 69.7969 26.4551 69.9805 26.2715C70.1641 26.0879 70.4616 26.0879 70.6452 26.2715C71.7322 27.3566 73.4948 27.3566 74.5818 26.2715C74.7654 26.0879 75.0629 26.0879 75.2465 26.2715C75.4301 26.4551 75.4301 26.7526 75.2465 26.9362C74.5212 27.6624 73.5664 28.025 72.6135 28.025Z" fill="#010101"/>
</svg>
