<svg width="131" height="145" viewBox="0 0 131 145" fill="none" xmlns="http://www.w3.org/2000/svg">
<path d="M65.4946 131.351C101.547 131.351 130.773 102.124 130.773 66.0723C130.773 30.02 101.547 0.793945 65.4946 0.793945C29.4424 0.793945 0.216309 30.02 0.216309 66.0723C0.216309 102.124 29.4424 131.351 65.4946 131.351Z" fill="#66C4A6"/>
<path d="M21.0733 125.872C17.5557 122.634 15.0342 118.37 13.8824 113.731C13.1664 110.867 13.0108 107.786 14.1625 105.046C15.2832 102.338 17.9604 100.128 20.8865 100.159C18.583 97.0149 16.2171 93.8085 14.9097 90.1353C13.6022 86.462 13.5088 82.1661 15.5322 78.8353C16.2482 77.6835 17.151 76.6874 17.8047 75.5045C20.6064 70.4615 17.6179 64.3601 17.0265 58.6323C16.4973 53.4337 18.7386 47.4257 23.657 45.6202C24.4664 45.3401 25.3692 45.1222 25.8672 44.4062C26.3342 43.7525 26.303 42.8497 26.303 42.0404C26.1785 37.4332 27.2992 32.6704 30.0697 28.9971C32.8402 25.2928 37.4162 22.8335 41.9922 23.1759C46.9107 16.7944 56.4051 14.4909 63.7205 17.884C68.7635 13.7749 76.4836 13.4013 81.9312 16.9501C83.3321 17.884 84.6084 19.0358 86.1959 19.6272C87.8769 20.2809 89.7136 20.2187 91.4568 20.53C96.7177 21.4327 101.169 25.8531 102.165 31.1139C102.321 32.0167 102.414 32.9817 102.881 33.7911C103.379 34.6938 104.313 35.2542 105.154 35.8456C107.831 37.6511 110.415 39.8302 111.815 42.7563C113.247 45.6825 113.279 49.418 111.193 51.9395C113.932 54.3053 116.578 56.9202 118.104 60.1888C119.629 63.4574 119.878 67.5353 117.948 70.586C117.419 71.4265 116.734 72.2359 116.765 73.2009C116.796 74.1036 117.419 74.8819 117.948 75.5978C120.251 78.6796 121.528 82.6331 120.967 86.4309C120.407 90.2286 117.792 93.8085 114.15 95.0537C116.36 97.8242 118.695 100.782 119.1 104.299C119.504 107.817 117.139 111.895 113.621 111.926C116.485 116.004 115.022 122.012 111.473 125.529C107.924 129.047 102.881 130.541 97.9629 131.382C78.1646 134.744 58.0861 129.078 38.4123 125C32.6534 123.817 26.2719 122.821 21.2289 125.841" fill="#342933"/>
<path d="M41.8052 64.7027C38.6922 65.6366 35.6727 67.5044 34.2719 70.4305C32.8711 73.3567 33.587 77.4346 36.4198 78.9911C33.4314 80.5476 32.4352 84.9368 34.3964 87.6139C34.6143 87.9252 34.8945 88.2365 34.9256 88.6412C34.9879 89.3883 34.2408 89.8864 33.6493 90.3222C30.2562 92.7192 29.5713 98.1357 32.2485 101.311C30.5052 101.311 30.1628 103.77 30.5052 105.482C31.1589 109.031 32.2796 112.766 35.1124 114.977C38.3809 117.529 43.0192 117.311 47.0972 116.533C53.4164 115.35 60.1093 112.642 62.942 106.883C63.9071 104.891 64.3429 102.712 64.6853 100.533C65.6192 94.8048 65.9927 88.9525 65.8682 83.1624C65.806 80.7966 65.6503 78.3996 64.9655 76.1583C63.658 71.9559 60.4517 68.5005 56.5916 66.4148C52.7316 64.3292 48.2178 63.5821 43.8597 63.7688" fill="#291F27"/>
<path d="M87.0671 56.9826C89.1839 56.2043 91.5185 57.6674 92.7637 59.5352C94.0089 61.4029 94.5381 63.6442 95.5342 65.6677C96.5304 67.6911 98.2736 69.6211 100.515 69.7145C100.92 69.7456 101.387 69.7145 101.729 69.9324C102.352 70.3371 102.289 71.3021 101.822 71.8624C101.355 72.4227 100.671 72.734 100.048 73.1698C98.2425 74.3528 97.2152 76.5941 97.402 78.742C97.6199 80.8899 99.0519 82.8822 101.044 83.7227C98.8651 84.6255 97.2775 86.7734 96.9973 89.1081C96.7172 91.4428 97.8067 93.8709 99.7056 95.2717C97.8067 95.4585 95.9701 96.797 95.472 98.6337C94.9739 100.47 96.0635 102.712 97.9312 103.179C95.472 104.112 93.3552 105.949 92.0789 108.253C90.6781 110.836 90.1177 114.167 87.5651 115.63C85.3549 116.907 82.491 116.16 80.2186 114.977C77.9461 113.794 75.8294 112.175 73.339 111.646C69.2611 110.805 65.2142 113.015 61.074 113.171C56.2801 113.358 51.6418 110.743 46.879 111.21C45.1669 111.366 43.517 111.926 41.8049 111.988C40.0928 112.05 38.1939 111.521 37.3223 110.058C36.4195 108.533 36.8865 106.572 37.8203 105.077C38.7542 103.583 40.0928 102.4 41.0889 100.937C42.4275 98.945 43.0812 96.5169 42.8945 94.1199C42.8322 93.2794 42.6765 92.4078 42.9256 91.5984C43.1435 90.9136 43.6415 90.3533 44.0151 89.7307C45.5093 87.1781 44.4509 83.9717 43.3925 81.2012C47.9063 79.2401 51.1126 74.5707 51.2683 69.6522C51.3305 67.8467 51.0192 65.9478 51.7041 64.2357C52.6068 61.9633 55.0349 60.7181 57.3696 60.0644C59.7043 59.4106 62.1947 59.1305 64.3115 57.9164C66.7396 56.5156 68.4828 54.0253 71.1288 53.0914C75.8293 51.4415 80.4365 55.4261 85.1993 56.8892" fill="#291F27"/>
<path d="M75.7361 78.3057C75.7361 78.3057 73.8684 94.4307 78.8491 100.003C78.8491 100.003 84.2345 103.303 90.616 104.143C90.616 104.143 121.216 110.151 120.594 144.456H9.1815C9.1815 144.456 5.04131 113.046 35.2368 106.633C35.2368 106.633 53.4164 103.116 53.2296 98.9756L54.4748 78.5236L75.7361 78.3057Z" fill="#F79C7F"/>
<path d="M54.4436 78.5236L53.2607 97.886C59.1442 100.158 66.8643 99.9717 75.9229 92.5318C74.8645 85.9635 75.7361 78.3057 75.7361 78.3057L54.4436 78.5236Z" fill="#D97D68"/>
<path d="M43.5487 60.6873C43.5487 58.7261 42.3657 56.9829 42.9261 55.1774C42.6459 55.1151 42.3346 55.084 42.0545 55.084C39.0972 55.084 36.7002 57.73 36.7002 60.9674C36.7002 64.2049 39.0972 66.8509 42.0545 66.8509C42.3658 66.8509 42.7082 66.8198 43.0195 66.7575C43.5487 64.7341 43.5487 62.7418 43.5487 60.6873ZM88.9976 55.084C88.6863 55.084 88.375 55.1151 88.0948 55.1774C88.6551 56.9829 87.6901 59.0063 87.6901 60.9674C87.6901 63.022 87.6901 64.9209 88.0326 66.7264C88.3438 66.7886 88.6863 66.8198 89.0287 66.8198C91.986 66.8198 94.383 64.1738 94.383 60.9363C94.3518 57.73 91.9549 55.084 88.9976 55.084Z" fill="#BE7C70"/>
<path d="M65.4945 89.4819C78.4575 89.4819 88.9661 75.4612 88.9661 58.1658C88.9661 40.8703 78.4575 26.8496 65.4945 26.8496C52.5315 26.8496 42.0229 40.8703 42.0229 58.1658C42.0229 75.4612 52.5315 89.4819 65.4945 89.4819Z" fill="#F79D7B"/>
<path d="M71.3472 50.3207C71.3472 50.3207 75.6742 42.1959 83.2386 48.9198C83.2386 48.9198 83.799 50.6008 81.5576 50.3207C81.5576 50.3207 77.075 46.3984 71.3472 50.3207ZM58.6153 50.3207C58.6153 50.3207 54.2883 42.1959 46.7239 48.9198C46.7239 48.9198 46.1635 50.6008 48.4048 50.3207C48.4048 50.3207 52.8875 46.3984 58.6153 50.3207Z" fill="#342933"/>
<path d="M54.0701 60.1262C54.861 60.1262 55.5021 58.8998 55.5021 57.3868C55.5021 55.8739 54.861 54.6475 54.0701 54.6475C53.2793 54.6475 52.6382 55.8739 52.6382 57.3868C52.6382 58.8998 53.2793 60.1262 54.0701 60.1262Z" fill="#372737"/>
<path d="M75.9232 60.1262C76.714 60.1262 77.3551 58.8998 77.3551 57.3868C77.3551 55.8739 76.714 54.6475 75.9232 54.6475C75.1323 54.6475 74.4912 55.8739 74.4912 57.3868C74.4912 58.8998 75.1323 60.1262 75.9232 60.1262Z" fill="#372737"/>
<path d="M66.5529 62.4922C66.5529 62.4922 68.981 64.609 70.5686 64.2977C72.1562 63.9864 69.9149 69.8699 68.0782 70.1189C68.0782 70.1189 66.9264 70.6792 66.0859 70.1189C66.0859 70.1189 69.2611 67.255 69.479 65.7608C69.4479 65.7608 67.5179 63.893 66.5529 62.4922Z" fill="#D97D68"/>
<path d="M53.7276 56.4532C53.9339 56.4532 54.1011 56.2302 54.1011 55.9551C54.1011 55.68 53.9339 55.457 53.7276 55.457C53.5213 55.457 53.354 55.68 53.354 55.9551C53.354 56.2302 53.5213 56.4532 53.7276 56.4532Z" fill="white"/>
<path d="M75.5494 56.4532C75.7557 56.4532 75.9229 56.2302 75.9229 55.9551C75.9229 55.68 75.7557 55.457 75.5494 55.457C75.3431 55.457 75.1758 55.68 75.1758 55.9551C75.1758 56.2302 75.3431 56.4532 75.5494 56.4532Z" fill="white"/>
<path d="M55.1284 74.1035H75.8295C75.8295 74.1035 64.7474 91.6294 55.1284 74.1035Z" fill="#372737"/>
<path d="M65.4945 76.4071C70.2884 76.4071 74.3041 75.4421 75.487 74.1035H55.502C56.6537 75.4421 60.7006 76.4071 65.4945 76.4071Z" fill="white"/>
<path d="M64.7473 78.2754C62.5683 78.2754 60.5138 78.5867 58.7705 79.1159C63.3777 83.6608 67.9537 81.8864 71.2223 79.2715C69.3234 78.6178 67.1132 78.2754 64.7473 78.2754Z" fill="#F05352"/>
<path d="M63.1909 27.783C63.1909 27.783 75.0824 24.7634 85.1372 42.9741C85.1372 42.9741 76.4209 28.9348 63.1909 29.3706C63.1909 29.3706 61.7901 28.6857 63.1909 27.783Z" fill="#F8BBAA"/>
<path d="M51.144 60.9668C51.144 60.9668 53.6033 63.6439 56.2804 60.9668C56.2804 60.9668 53.8523 62.5855 51.144 60.9668ZM72.9969 60.9668C72.9969 60.9668 75.4561 63.6439 78.1332 60.9668C78.1332 60.9668 75.674 62.5855 72.9969 60.9668Z" fill="#D97D68"/>
<path d="M37.7274 66.3213C39.9687 65.5119 41.743 63.7375 43.2061 61.8386C44.2645 60.4378 45.1984 58.3833 44.0466 57.0447C46.7237 56.0486 48.218 52.6244 47.0973 49.9784C46.8483 49.418 46.5058 48.8577 46.5058 48.2662C46.4747 46.772 48.218 45.9938 49.432 45.091C51.0819 43.8459 52.0157 41.6979 51.7978 39.6434C54.7862 39.0831 57.3389 36.6861 58.086 33.7599C60.3896 34.5693 63.1912 33.7288 64.6543 31.7677C66.6777 34.3203 70.2576 35.5343 73.4328 34.7561C72.8724 36.4993 73.7129 38.4605 75.0826 39.6745C76.4523 40.8886 78.3201 41.4178 80.1256 41.6668C79.8454 42.9431 80.5303 44.3128 81.5264 45.1844C82.5225 46.0561 83.7989 46.523 85.044 46.9899C85.4487 47.1456 85.8534 47.3012 86.1647 47.6125C86.4137 47.8927 86.5694 48.2351 86.725 48.5775C88.0636 51.2235 91.2076 52.3131 94.0715 53.1224C94.9743 50.4764 95.0054 47.5191 94.1649 44.842C93.3867 42.3828 91.9236 40.2349 90.9275 37.869C89.9936 35.5966 89.4644 33.1374 88.2503 31.0206C86.6005 28.1255 83.7988 26.0399 80.717 24.7324C77.6664 23.425 74.3355 22.8647 71.0358 22.4911C68.8256 22.211 66.5843 22.0242 64.343 22.1487C59.4868 22.3977 54.7551 24.1098 50.5527 26.5691C46.3502 29.0283 42.6458 32.2657 39.1904 35.69C36.8557 37.9935 34.5833 40.5462 33.5871 43.6591C33.0579 45.309 32.9334 47.0211 32.84 48.7332C32.5599 54.1497 32.8712 59.9709 36.0152 64.3913" fill="#342933"/>
<path d="M91.9858 104.485C83.363 108.626 75.0826 110.462 67.6115 110.991L64.9966 128.984L60.1716 111.085C49.8989 110.649 41.7741 107.972 37.3537 106.166C36.0774 106.447 35.2681 106.602 35.2681 106.602C5.1037 113.015 9.21279 144.424 9.21279 144.424H120.625C121.123 114.509 97.9004 106.135 91.9858 104.485Z" fill="#EF7C6E"/>
<path d="M60.1404 111.116C49.8677 110.68 41.7429 108.003 37.3225 106.197C36.0462 106.478 35.2369 106.633 35.2369 106.633C30.2251 107.692 26.2094 109.466 22.9097 111.614C33.4625 116.999 48.0622 122.634 63.3156 122.852L60.1404 111.116ZM65.8682 122.821C77.9464 122.509 90.3359 118.649 101.387 108.47C97.4023 106.166 93.8224 104.983 91.9546 104.485C83.3318 108.626 75.0514 110.462 67.5803 110.991L65.8682 122.821Z" fill="#FCD3CC"/>
<path d="M100.173 144.456C99.519 136.113 98.2427 125.529 95.9391 121.265V144.456H100.173ZM31.0344 144.456V121.265C28.7308 125.529 27.4856 136.113 26.8008 144.456H31.0344Z" fill="#B35750"/>
</svg>
