<svg width="50" height="57" viewBox="0 0 50 57" fill="none" xmlns="http://www.w3.org/2000/svg">
<path d="M25.1002 0.167725C11.756 0.167725 0.894531 11.0061 0.894531 24.3321C0.894531 37.0765 10.0704 46.6695 23.5977 48.1724C23.6291 48.8281 23.6364 49.7387 23.6184 50.6674C23.581 52.597 23.4736 54.5409 23.4736 54.5409C23.4705 54.573 23.4682 54.6052 23.4668 54.6374C23.4668 55.2405 23.9143 55.9921 24.3765 56.2846C24.8387 56.5775 25.2046 56.6152 25.5 56.6293C26.0908 56.6646 26.5393 56.5435 27.0507 56.3812C28.0737 56.0565 29.2584 55.452 30.5176 54.5271C32.8521 52.8125 35.2634 49.8008 36.438 45.6361C41.4563 43.6278 44.8728 40.6855 46.7764 37.0621C48.7894 33.2305 49.299 28.8613 49.299 24.3321C49.299 11.0061 38.4444 0.167725 25.1002 0.167725ZM25.1002 3.69657C36.5407 3.69657 45.7701 12.9166 45.7702 24.3321C45.7702 28.5882 45.2616 32.3619 43.6542 35.4217C42.0468 38.4812 39.3773 40.9654 34.4944 42.7344C33.9247 42.9406 33.5005 43.4246 33.371 44.0164C32.5546 47.7704 30.3814 50.2534 28.4292 51.6875C27.893 52.0813 27.537 52.1891 27.0852 52.4181C27.1136 51.7261 27.1308 51.5829 27.1472 50.7364C27.1667 49.7285 27.1708 48.7177 27.1265 47.8899C27.1045 47.4756 27.0767 47.1226 27.0025 46.7457C26.9654 46.5587 26.9302 46.3674 26.7888 46.0703C26.7181 45.9221 26.6237 45.7386 26.396 45.512C26.1682 45.2862 25.7295 45.008 25.2105 44.9744C12.3309 44.1455 4.42338 35.8647 4.42338 24.3321C4.42338 12.9166 13.6598 3.69657 25.1002 3.69657ZM38.4643 13.0356L29.1253 22.3746L26.844 19.0496L25.5965 19.2259V19.2416L21.337 19.5764L29.1253 27.3647L40.4424 16.0475H40.5389L38.4643 13.0356ZM11.4811 14.2831V35.4562H39.7118V24.7594H36.183V31.9273H15.0099V17.812H29.015V14.2831H11.4811Z" fill="white"/>
</svg>
