<?xml version="1.0" encoding="utf-8"?>
<!-- Generator: Adobe Illustrator 23.0.0, SVG Export Plug-In . SVG Version: 6.00 Build 0)  -->
<svg version="1.1" xmlns="http://www.w3.org/2000/svg" xmlns:xlink="http://www.w3.org/1999/xlink" x="0px" y="0px"
	 viewBox="0 0 293.8 218.2" style="enable-background:new 0 0 293.8 218.2;" xml:space="preserve">
<style type="text/css">
	.st0{opacity:0.9;}
	.st1{fill:none;stroke:#D1D7DB;stroke-width:0.6976;stroke-miterlimit:10;}
	.st2{fill:#D1D7DB;}
	.st3{fill:#FFFFFD;}
	.st4{opacity:0.26;fill:none;stroke:#2C7C23;stroke-miterlimit:10;enable-background:new    ;}
	.st5{fill:none;stroke:#D1D7DB;stroke-width:0.7562;stroke-miterlimit:10;}
	.st6{fill:none;stroke:#213033;stroke-width:1.0385;stroke-miterlimit:10;}
	.st7{fill:#EAEAEA;}
	.st8{fill:#141F13;}
	.st9{fill:#FFC9BD;}
	.st10{fill:#090B0C;}
	.st11{fill:#FFFFFF;}
	.st12{fill:#EFB2A8;}
	.st13{fill:#DD9790;}
	.st14{fill:none;stroke:#201D2F;stroke-width:0.5676;stroke-linecap:round;stroke-linejoin:round;stroke-miterlimit:10;}
	.st15{fill:#201D2F;}
	.st16{fill:none;stroke:#FFFFFF;stroke-width:0.7575;stroke-linecap:round;stroke-linejoin:round;stroke-miterlimit:10;}
	.st17{fill:#EFEFEF;enable-background:new    ;}
	.st18{fill:#DBDBDB;enable-background:new    ;}
	.st19{fill:#3D5056;}
	.st20{fill:#273237;}
	.st21{opacity:0.8;}
	.st22{fill:#F5F5F5;}
	.st23{opacity:0.3;fill:#FFFFFF;enable-background:new    ;}
	.st24{opacity:0.6;}
	.st25{opacity:0.6;fill:#FFFFFF;enable-background:new    ;}
	.st26{opacity:0.4;enable-background:new    ;}
	.st27{fill:#E4897B;}
	.st28{opacity:0.2;enable-background:new    ;}
	.st29{fill:#DE5753;}
	.st30{opacity:0.1;enable-background:new    ;}
	.st31{opacity:0.5;fill:#FFFFFF;enable-background:new    ;}
	.st32{opacity:0.4;fill:#FFFFFF;enable-background:new    ;}
	.st33{opacity:0.2;fill:#FFFFFF;enable-background:new    ;}
	.st34{opacity:0.7;fill:#FFFFFF;enable-background:new    ;}
	.st35{opacity:0.1;fill:#FFFFFF;enable-background:new    ;}
	.st36{fill:#EEC1BB;}
	.st37{fill:#D4827D;}
	.st38{opacity:0.3;enable-background:new    ;}
</style>
<g id="BACKGROUND">
</g>
<g id="OBJECTS">
	<g class="st0">
		<g>
			<rect x="11.6" y="45.9" class="st1" width="67" height="6.1"/>
		</g>
		<rect x="24.3" y="35.5" class="st1" width="11.1" height="10.5"/>
		<rect x="40.6" y="26" class="st1" width="6.3" height="19.9"/>
		<rect x="46.9" y="26" class="st1" width="6.3" height="19.9"/>
		
			<rect x="57.5" y="25.3" transform="matrix(0.9054 -0.4246 0.4246 0.9054 -9.229 29.0669)" class="st1" width="6.3" height="19.9"/>
		<g>
			<polygon class="st2" points="269.1,35.7 262.9,29.8 242.4,50.7 249.1,57 			"/>
			
				<ellipse transform="matrix(0.2637 -0.9646 0.9646 0.2637 146.2023 282.7025)" class="st2" cx="258.3" cy="45.6" rx="14.7" ry="14.7"/>
			
				<ellipse transform="matrix(0.9224 -0.3861 0.3861 0.9224 3.9084 100.9172)" class="st3" cx="253.2" cy="40.7" rx="14.7" ry="14.7"/>
		</g>
		<g>
			<line class="st4" x1="262.6" y1="34.8" x2="253.3" y2="40.7"/>
			<path class="st2" d="M255.1,40.7c0,1.2-0.9,2.1-2.1,2.1c-1.1,0-2.1-0.9-2.1-2.1c0-1.1,0.9-2.1,2.1-2.1
				C254.2,38.6,255.1,39.6,255.1,40.7z"/>
			<line class="st5" x1="247.9" y1="36.2" x2="252.6" y2="40.7"/>
		</g>
		<g>
			<line class="st6" x1="108.1" y1="141.4" x2="140.8" y2="193.1"/>
			<line class="st6" x1="136.6" y1="141.4" x2="106.6" y2="193.2"/>
		</g>
		<path class="st7" d="M145.2,145.6c0,0-5.2,4.8-25.9,2.7c-20.7-2.1-33.8-12.8-34.8-36.8c-1.1-24,11.9-40.9,11.9-40.9l49.9,52.3
			L145.2,145.6z"/>
		<g>
			<path class="st8" d="M107.9,56.4c0,0-9.2-4.1-11,4.3c0,0-6.9-1.1-10.4,6.7c-4.8,10.7,7.6,15.8,7.6,15.8l35.3-1.5
				c0,0,9.9-12.8-1.8-17.7c0,0,0.2-7.9-7.6-6.3L107.9,56.4z"/>
			<g>
				<g>
					<g>
						<g>
							<polygon class="st9" points="184,185.6 175.2,185.6 171,171.6 179.2,169.7 							"/>
						</g>
						<g>
							<path class="st10" d="M174.9,183.7c2.1,0.6,6.7,2.4,8.9-0.8l14.8,8l-26.2-0.2l1.2-6.3C173.8,184,174.4,183.6,174.9,183.7z"/>
							
								<rect x="172.5" y="190.9" transform="matrix(1 6.571562e-03 -6.571562e-03 1 1.2657 -1.2154)" class="st11" width="26.2" height="2.3"/>
						</g>
					</g>
					<path class="st8" d="M145.2,118.4l16.6,5.6c4.4,1.5,7.7,4.9,9.1,9.3l14.9,43.5l-15.7,1.9l-17.2-42.5L145.2,118.4z"/>
				</g>
				<g>
					<g>
						<g>
							<polygon class="st9" points="139.8,185.6 131,185.5 135.6,171.6 144.4,171.6 							"/>
						</g>
						<g>
							<path class="st10" d="M131.5,183.7c2.1,0.6,6.7,2.4,8.9-0.8l14.8,8l-26.2-0.2l1.2-6.3C130.4,184,130.9,183.6,131.5,183.7z"/>
							
								<rect x="129.1" y="190.9" transform="matrix(1 6.571566e-03 -6.571566e-03 1 1.2648 -0.9301)" class="st11" width="26.2" height="2.3"/>
						</g>
					</g>
					<path class="st8" d="M104.3,116.4c0,0-6.3,15.4,5.9,20.5c0,0,9.3,3,32.3,1.7l-12,38l14.7,1.6l15.2-40.9
						c1.8-4.9-0.2-10.4-4.7-13l-13.8-7.9H104.3z"/>
				</g>
			</g>
			<g>
				<g>
					<path class="st8" d="M124.7,72.7c0,0,4,0,5.8,6.1c1.7,6,6.6,20.5,6.6,20.5l-11.9,9.1l-1.8-17.8L124.7,72.7z"/>
					<g>
						<path class="st9" d="M160.4,107.6h10.2c1.9,0,3.7,0.6,5.1,1.8l3.3,2.7l-1.7,1.2h-18L160.4,107.6z"/>
						<polygon class="st8" points="137,99.3 161.9,104.8 161.1,111.9 128.1,111.9 127.4,100.5 						"/>
					</g>
				</g>
				<g>
					<path class="st11" d="M109.9,69.5l-11.5,4.1l5.1,39.7h23.3l1.1-18.5c0,0,1.5-1.8,1.8-6.4c0.3-4.8-0.7-8.4-3.2-12.5l-1.9-3.1
						l-8.9-2.7L109.9,69.5z"/>
					<path class="st4" d="M126.9,81.1c0,0,4.9,7.2,1.1,15.7l-0.4,7.4"/>
				</g>
				<g>
					<path class="st8" d="M98.4,73.6c0,0-5.2,0.4-4.7,9.6c0.4,6.1,1.3,17.5,1.9,24.4c0.3,3.2,3,5.7,6.2,5.7h8.7l-4-32.2L98.4,73.6z"
						/>
					<g>
						<path class="st9" d="M130.9,107.6h10.2c1.9,0,3.7,0.6,5.1,1.8l3.3,2.7l-1.7,1.2h-18L130.9,107.6z"/>
						<polygon class="st8" points="105.2,100.5 132.3,105 131.4,113.3 105.2,113.3 						"/>
					</g>
					<polyline class="st4" points="106.7,83.2 108.1,101 132.3,105 132,107.9 					"/>
					<line class="st4" x1="109" y1="101.1" x2="103.4" y2="100.5"/>
				</g>
			</g>
			<g>
				<g>
					<g>
						<path class="st12" d="M119.8,54.6c-0.2,1.9,1.2,3.7,3.1,4c1.9,0.2,3.7-1.2,4-3.1c0.2-1.9-1.2-3.7-3.1-4
							C121.8,51.2,120.1,52.6,119.8,54.6z"/>
					</g>
					<path class="st8" d="M117.3,38.4c0,3.1-2.5,5.7-5.7,5.7s-5.7-2.5-5.7-5.7c0-3.1,2.5-5.7,5.7-5.7S117.3,35.2,117.3,38.4z"/>
					<path class="st8" d="M125.2,48.3c0,6-4.8,10.8-10.8,10.8c-6,0-11.8-3.8-11.8-9.8s5.9-11.8,11.8-11.8
						C120.3,37.5,125.2,42.3,125.2,48.3z"/>
					<path class="st9" d="M118,64.6l-0.9,7.7c-0.3,2.7-2.1,4-4.8,3.6l0,0c-2.3-0.3-4.3-1.7-4.3-4l2-12L118,64.6z"/>
					<path class="st13" d="M117.6,68.3c-5.4-0.5-8.3-7.1-8.3-7.1l8.8,2.6L117.6,68.3z"/>
					<path class="st9" d="M115.5,65.4L115.5,65.4c4.6,0.2,8.5-3.2,8.8-6.9l0.7-8.8c0.4-4.7-3-8.8-7.6-9.4l0,0
						c-4.8-0.6-9.9,2.7-10.5,7.5l-0.5,7.1C106.1,60.4,109.7,64.9,115.5,65.4z"/>
					<g>
						<polyline class="st14" points="120.1,57.4 120.7,59 119.3,59 						"/>
						<path class="st15" d="M115.3,50.7c0,0,2.3-0.3,2.2,0.9c0,0-0.1,0.8-2.1,1c-2,0.2-2.5,0-2.6-0.7
							C112.7,51.1,114.2,50.7,115.3,50.7z"/>
						<path class="st15" d="M123.1,51.1c0,0-1.6-0.3-1.8,0.8c0,0-0.1,0.7,1.3,1c1.4,0.2,1.9,0,2-0.6
							C124.8,51.5,123.9,51.1,123.1,51.1z"/>
						<path class="st15" d="M116.6,55c0,0.4-0.4,0.8-0.8,0.8c-0.4,0-0.8-0.4-0.8-0.8c0-0.4,0.4-0.8,0.8-0.8
							C116.2,54.2,116.6,54.6,116.6,55z"/>
						<circle class="st15" cx="122.6" cy="55.3" r="0.7"/>
						<path class="st3" d="M115.8,60.2h4.6c0,0,0.2,1.6-2.3,1.6C115.6,61.8,115.8,60.2,115.8,60.2z"/>
					</g>
					<path class="st8" d="M108.1,52.8c0,0,6.5-1.6,8.5-8.7l-0.8-4.3c0,0-11.7-1.1-9.4,11.1L108.1,52.8z"/>
					<path class="st8" d="M113,44.7c0,0,3.6,4.8,15,5.7c0,0,0.6-11.6-12.4-10.5L113,44.7z"/>
					<path class="st16" d="M106.7,40.7c0,0,2.5-2.2,5.4-2.9c3.1-0.7,5.1,0,5.1,0"/>
					<polygon class="st8" points="110.2,51.4 107.4,55.7 106.7,49 					"/>
					<g>
						<path class="st9" d="M101.7,53.8c-0.2,1.9,1.2,3.7,3.1,4c1.9,0.2,3.7-1.2,4-3.1c0.2-1.9-1.2-3.7-3.1-4
							C103.7,50.4,101.9,51.8,101.7,53.8z"/>
						<path class="st14" d="M106.3,55.4c0,0,0.3-2.6-2.2-2.5"/>
					</g>
				</g>
				<path class="st9" d="M102.5,72.1c0,0,3.1,3.9,10.3,5.4c3.1,0.7,6.5-0.2,8.6-2.6c0.9-0.9,1.7-1.9,1.9-2.6c0,0-6.4-2.8-8.2-2.8
					l-6.8,0.5L102.5,72.1z"/>
			</g>
		</g>
		<g>
			<polyline class="st6" points="181.8,193.3 206.4,116.4 231.6,192.4 			"/>
			<polyline class="st6" points="68.9,193.3 93.5,116.4 118.7,192.4 			"/>
		</g>
		<rect x="60.6" y="113.3" class="st17" width="69.9" height="6.2"/>
		<rect x="129" y="113.3" class="st18" width="118.6" height="6.2"/>
		<g>
			<path class="st10" d="M151.9,110.9h30.5c0.7,0,1.2,0.6,1.2,1.2l0,0c0,0.7-0.6,1.2-1.2,1.2h-30.5c-0.7,0-1.2-0.6-1.2-1.2l0,0
				C150.7,111.4,151.3,110.9,151.9,110.9z"/>
			<path class="st19" d="M136.3,110.9h22c0.7,0,1.2,0.6,1.2,1.2l0,0c0,0.7-0.6,1.2-1.2,1.2h-22c-0.7,0-1.2-0.6-1.2-1.2l0,0
				C135,111.4,135.6,110.9,136.3,110.9z"/>
		</g>
		<g>
			<path class="st20" d="M156,101.6h64.4c1.6,0,2.9-1.3,2.9-2.9V57.6c0-1.6-1.3-2.9-2.9-2.9H156c-1.6,0-2.9,1.3-2.9,2.9v41.2
				C153.2,100.3,154.4,101.6,156,101.6z"/>
			<path class="st20" d="M157.6,101.6H222c1.6,0,2.9-1.3,2.9-2.9V57.6c0-1.6-1.3-2.9-2.9-2.9h-64.4c-1.6,0-2.9,1.3-2.9,2.9v41.2
				C154.7,100.3,156,101.6,157.6,101.6z"/>
		</g>
		<g>
			<polygon class="st10" points="185.2,76.5 168.4,101.6 192.6,101.6 			"/>
			<g>
				<path class="st19" d="M197.3,75.9h-10.8c-1,0-1.7,0.9-1.5,1.8l7,34.4c0.1,0.7,0.8,1.2,1.5,1.2h11.4c1,0,1.7-0.9,1.5-1.9
					l-7.5-34.4C198.6,76.4,198,75.9,197.3,75.9z"/>
				<path class="st19" d="M181.5,110.9h20v2.5h-20c-0.7,0-1.2-0.6-1.2-1.2l0,0C180.3,111.4,180.8,110.9,181.5,110.9z"/>
			</g>
		</g>
		<line class="st6" x1="272.5" y1="193.2" x2="21" y2="193.2"/>
	</g>
</g>
<g id="DESIGNED_BY_FREEPIK">
</g>
</svg>
