<svg width="155" height="143" viewBox="0 0 155 143" fill="none" xmlns="http://www.w3.org/2000/svg">
<path d="M146.126 15.9002H8.87442C5.14313 15.9002 2.01691 12.7606 2.01691 8.9122C2.01691 5.16503 5.14313 2.02551 8.87442 2.02551H146.025C149.857 2.02551 152.882 5.16503 152.882 8.9122C152.983 12.7606 149.958 15.9002 146.126 15.9002Z" stroke="#52BD94" stroke-width="4" stroke-miterlimit="10" stroke-linecap="round" stroke-linejoin="round"/>
<path d="M122.729 109.579H33.0774C22.3878 109.579 13.6142 100.87 13.6142 90.0333V15.9001H142.092V90.0333C142.092 100.768 133.419 109.579 122.729 109.579Z" stroke="white" stroke-width="4" stroke-miterlimit="10" stroke-linecap="round" stroke-linejoin="round"/>
<path d="M64.0371 111.402L49.9187 140.975" stroke="white" stroke-width="4" stroke-miterlimit="10" stroke-linecap="round" stroke-linejoin="round"/>
<path d="M77.853 110.086V138.949" stroke="white" stroke-width="4" stroke-miterlimit="10" stroke-linecap="round" stroke-linejoin="round"/>
<path d="M90.7612 109.579L105.989 140.367" stroke="white" stroke-width="3.9448" stroke-miterlimit="10" stroke-linecap="round" stroke-linejoin="round"/>
<path d="M13.6142 27.2429L41.3468 32.813" stroke="white" stroke-width="4" stroke-miterlimit="10" stroke-linecap="round" stroke-linejoin="round"/>
<path d="M13.6142 41.2189L41.3468 46.789" stroke="white" stroke-width="4" stroke-miterlimit="10" stroke-linecap="round" stroke-linejoin="round"/>
<path d="M13.6142 55.1948L41.3468 60.6637" stroke="white" stroke-width="4" stroke-miterlimit="10" stroke-linecap="round" stroke-linejoin="round"/>
<path d="M113.653 38.4844L80.7775 70.0821L67.9701 57.9291L39.6324 85.881" stroke="#52BD94" stroke-width="4" stroke-miterlimit="10" stroke-linecap="round" stroke-linejoin="round"/>
<path d="M94.19 38.4845L115.065 36.9653L114.46 57.5241" stroke="white" stroke-width="4" stroke-miterlimit="10" stroke-linecap="round" stroke-linejoin="round"/>
</svg>
