<svg width="104" height="148" viewBox="0 0 104 148" fill="none" xmlns="http://www.w3.org/2000/svg">
<path d="M54.8966 1.84314C54.8966 1.84314 24.2759 21.1956 22.5287 49.487C20.7816 77.8705 32.092 113.995 32.092 113.995H73.1954C73.1954 113.995 76.8736 101.739 79.4483 86.0723C79.5402 85.7037 79.5402 85.335 79.6322 85.0586C81.8391 71.5119 83.1264 55.477 80.5517 42.4832C80.5517 42.4832 77.0575 25.1582 61.6092 11.335" stroke="white" stroke-width="4" stroke-miterlimit="10" stroke-linecap="round" stroke-linejoin="round"/>
<path d="M19.3103 117.773L1.83908 123.303C1.93103 119.893 2.48276 115.838 3.77012 111.415C8.55172 96.2093 20.5057 87.9154 25.1954 85.0586" stroke="white" stroke-width="4" stroke-miterlimit="10" stroke-linecap="round" stroke-linejoin="round"/>
<path d="M80.9195 84.0449C80.9195 84.0449 102.713 101.554 102.161 120.722C102.161 120.722 87.1724 115.009 73.2874 113.995" stroke="white" stroke-width="4" stroke-miterlimit="10" stroke-linecap="round" stroke-linejoin="round"/>
<path d="M40.8276 122.197C40.2759 124.316 39.7241 127.634 40.5517 131.412C42.4828 140.812 50.7586 145.42 52.2299 146.157C53.5172 145.512 62.5287 140.996 64.4598 131.32C65.1954 127.542 64.6437 124.316 64.0919 122.289" stroke="#52BD94" stroke-width="4" stroke-miterlimit="10" stroke-linecap="round" stroke-linejoin="round"/>
<path d="M52.4138 126.436V83.2155" stroke="white" stroke-width="4" stroke-miterlimit="10" stroke-linecap="round" stroke-linejoin="round"/>
<path d="M36.6897 102.476H52.2299" stroke="white" stroke-width="4" stroke-miterlimit="10" stroke-linecap="round" stroke-linejoin="round"/>
<path d="M60.5977 102.476H76.2299" stroke="#52BD94" stroke-width="4" stroke-miterlimit="10" stroke-linecap="round" stroke-linejoin="round"/>
<path d="M52.2299 72.0648C60 72.0648 66.2989 65.7522 66.2989 57.9652C66.2989 50.1782 60 43.8656 52.2299 43.8656C44.4598 43.8656 38.1609 50.1782 38.1609 57.9652C38.1609 65.7522 44.4598 72.0648 52.2299 72.0648Z" stroke="#52BD94" stroke-width="4" stroke-miterlimit="10" stroke-linecap="round" stroke-linejoin="round"/>
</svg>
