<svg width="116" height="106" viewBox="0 0 116 106" fill="none" xmlns="http://www.w3.org/2000/svg">
<path d="M47.6975 105.377C46.2878 105.377 44.8879 105.008 43.6521 104.296L30.7754 96.6725C28.8522 95.597 29.7906 95.2165 30.425 94.9974C32.9893 94.0995 33.5097 93.8967 36.2468 92.3423C36.5345 92.1782 36.9111 92.2361 37.2055 92.4099L47.0979 98.28C47.4551 98.4731 47.962 98.4731 48.2932 98.28L86.8642 76.016C87.2214 75.8132 87.4532 75.3981 87.4532 74.9733V30.4645C87.4532 30.0204 87.2214 29.6245 86.8565 29.4025L48.3009 7.15773C47.9437 6.94532 47.4706 6.94532 47.1133 7.15773L8.56545 29.4025C8.19181 29.6149 7.9543 30.03 7.9543 30.4548V74.9636C7.9543 75.3884 8.18602 75.7939 8.5529 75.9967L19.1153 82.0985C24.8503 84.966 28.355 81.5868 28.355 78.1883V34.2588C28.355 33.6313 28.8474 33.1485 29.4749 33.1485H34.3603C34.9685 33.1485 35.4706 33.6313 35.4706 34.2588V78.2076C35.4706 85.8543 31.2997 90.2472 24.0489 90.2472C21.8186 90.2472 20.0615 90.2472 15.1568 87.8335L5.03854 82.002C2.53794 80.5538 0.993164 77.8504 0.993164 74.9636V30.4548C0.993164 27.5584 2.53794 24.855 5.03854 23.4261L43.6482 1.15242C46.0909 -0.228217 49.3349 -0.228217 51.7583 1.15242L90.3197 23.4358C92.8106 24.8743 94.3651 27.568 94.3651 30.4645V74.9733C94.3651 77.8601 92.8106 80.5538 90.3197 82.002L51.7583 104.276C50.5225 104.99 49.1225 105.357 47.6936 105.357" fill="#689F63"/>
<path d="M59.6114 74.7084C42.7348 74.7084 39.1963 66.9614 39.1963 60.4637C39.1963 59.8457 39.6945 59.3533 40.3134 59.3533H45.2952C45.8456 59.3533 46.309 59.754 46.3959 60.2976C47.149 65.3741 49.3889 67.9346 59.5941 67.9346C67.7234 67.9346 71.1798 66.0982 71.1798 61.7873C71.1798 59.306 70.1951 57.462 57.5665 56.2261C47.0042 55.1834 40.4775 52.8566 40.4775 44.4086C40.4775 36.6268 47.0428 31.9925 58.0396 31.9925C70.3882 31.9925 76.5093 36.2793 77.2817 45.49C77.3107 45.8086 77.1948 46.1175 76.9824 46.3493C76.77 46.5713 76.4707 46.7065 76.1617 46.7065H71.1509C70.6295 46.7065 70.1758 46.3396 70.0695 45.8375C68.8627 40.4984 65.9469 38.7895 58.0203 38.7895C49.1475 38.7895 48.1145 41.8791 48.1145 44.1962C48.1145 47.0058 49.331 47.8264 61.303 49.4098C73.1591 50.9836 78.7879 53.2042 78.7879 61.5363C78.7879 69.936 71.7785 74.7538 59.5554 74.7538L59.6114 74.7084ZM106.536 27.5513H107.83C108.892 27.5513 109.094 26.8079 109.094 26.3734C109.094 25.2341 108.312 25.2341 107.878 25.2341H106.546L106.536 27.5513ZM104.962 23.9018H107.83C108.814 23.9018 110.745 23.9018 110.745 26.1031C110.745 27.6382 109.761 27.9568 109.172 28.1499C110.321 28.2271 110.398 28.9802 110.552 30.0422C110.629 30.7084 110.755 31.8573 110.987 32.2435H109.22C109.172 31.8573 108.901 29.7333 108.901 29.6174C108.785 29.1443 108.621 28.9126 108.032 28.9126H106.574V32.2532H104.962V23.9018ZM101.515 28.0533C101.515 31.5098 104.306 34.3097 107.733 34.3097C111.189 34.3097 113.98 31.4518 113.98 28.0533C113.98 24.5873 111.151 21.8356 107.723 21.8356C104.344 21.8356 101.506 24.5486 101.506 28.0437L101.515 28.0533ZM115.177 28.0726C115.177 32.1663 111.827 35.5069 107.743 35.5069C103.688 35.5069 100.308 32.2049 100.308 28.0726C100.308 23.8631 103.765 20.6384 107.743 20.6384C111.749 20.6384 115.167 23.8728 115.167 28.0726" fill="#689F63"/>
</svg>
