<svg width="70" height="87" viewBox="0 0 70 87" fill="none" xmlns="http://www.w3.org/2000/svg">
<g clip-path="url(#clip0_144_56)">
<path d="M1.83653 7.22666C11.2311 7.01618 20.6256 6.80569 30.0202 6.59521C30.0908 6.17424 30.3734 4.20973 32.1393 2.73634C32.4924 2.45569 34.0464 1.26295 36.3068 1.40328C36.7306 1.40328 38.2139 1.61376 39.556 2.66618C41.6044 4.20973 41.887 6.59521 41.887 6.59521C50.6458 6.59521 59.4046 6.59521 68.1635 6.59521C68.3047 32.8355 68.446 59.0759 68.6579 85.246C46.2664 85.3162 23.8749 85.4565 1.48335 85.5267C1.55398 59.4267 1.69526 33.3267 1.83653 7.22666Z" stroke="#1C0732" stroke-width="3" stroke-miterlimit="10" stroke-linecap="round" stroke-linejoin="round"/>
<path d="M22.886 7.01628C22.886 9.47192 22.886 11.9977 22.886 14.4534L49.1625 14.1026C49.1625 11.5768 49.1625 9.05095 49.1625 6.52515" stroke="#1C0732" stroke-width="3" stroke-miterlimit="10" stroke-linecap="round" stroke-linejoin="round"/>
<path d="M13.6327 30.8008H36.0242" stroke="#1C0732" stroke-width="3" stroke-miterlimit="10" stroke-linecap="round" stroke-linejoin="round"/>
<path d="M13.6327 47.3589H36.0242" stroke="#1C0732" stroke-width="3" stroke-miterlimit="10" stroke-linecap="round" stroke-linejoin="round"/>
<path d="M13.6327 63.9871H36.0242" stroke="#1C0732" stroke-width="3" stroke-miterlimit="10" stroke-linecap="round" stroke-linejoin="round"/>
<path d="M42.0989 45.8855L48.668 52.4105L57.4975 40.1323" stroke="#1C0732" stroke-width="3" stroke-miterlimit="10" stroke-linecap="round" stroke-linejoin="round"/>
<path d="M42.0989 29.7483L48.668 36.2733L57.4975 23.9951" stroke="#1C0732" stroke-width="3" stroke-miterlimit="10" stroke-linecap="round" stroke-linejoin="round"/>
<path d="M54.1776 59.0056L45.4188 69.1088" stroke="#1C0732" stroke-width="3" stroke-miterlimit="10" stroke-linecap="round" stroke-linejoin="round"/>
<path d="M54.1776 69.0388L45.4188 58.9355" stroke="#1C0732" stroke-width="3" stroke-miterlimit="10" stroke-linecap="round" stroke-linejoin="round"/>
</g>
<defs>
<clipPath id="clip0_144_56">
<rect width="70" height="87" fill="white"/>
</clipPath>
</defs>
</svg>
