<svg width="75" height="77" viewBox="0 0 75 77" fill="none" xmlns="http://www.w3.org/2000/svg">
<g clip-path="url(#clip0_144_35)">
<path d="M68.9242 27.6577H73.9547V76.0911H10.453C10.453 76.0911 0.914633 76.6754 0.979964 63.6257C1.04529 50.6409 0.979964 18.5034 0.979964 18.5034C0.979964 18.5034 1.30662 10.1931 10.5836 9.5439C10.5836 9.5439 17.8354 8.76481 20.0566 17.5945L19.9913 27.5928H61.8031" stroke="#1C0732" stroke-width="3" stroke-miterlimit="10" stroke-linecap="round" stroke-linejoin="round"/>
<path d="M1.17595 66.807C1.17595 66.807 0.91463 62.3272 4.70383 59.4056C8.49303 56.484 13.3929 57.1982 15.7448 59.4056C18.0967 61.613 18.6193 62.0026 19.926 66.4823V27.6577" stroke="#1C0732" stroke-width="3" stroke-miterlimit="10" stroke-linecap="round" stroke-linejoin="round"/>
<path d="M41.6812 61.613C45.8305 61.613 49.1943 58.2702 49.1943 54.1467C49.1943 50.0232 45.8305 46.6804 41.6812 46.6804C37.5318 46.6804 34.1681 50.0232 34.1681 54.1467C34.1681 58.2702 37.5318 61.613 41.6812 61.613Z" stroke="#1C0732" stroke-width="3" stroke-miterlimit="10" stroke-linecap="round" stroke-linejoin="round"/>
<path d="M50.8275 41.4216L53.9634 44.3432L52.8528 45.5118C54.2901 47.3297 55.2047 49.4073 55.5967 51.5497L57.23 51.4848L57.3606 55.7698L55.7273 55.8347C55.466 58.0422 54.682 60.1847 53.3754 62.0675L54.5514 63.1712L51.6115 66.2875L50.4355 65.1838C48.6063 66.6121 46.5157 67.5211 44.2944 67.9755L44.3598 69.4688L40.0479 69.5986L39.9826 68.1054C37.7613 67.8457 35.5401 67.0666 33.5801 65.7032L32.6002 66.742L29.4643 63.8204L30.4442 62.7816C29.007 60.9637 28.027 58.8212 27.635 56.6138L26.1977 56.6788L26.0671 52.3938L27.5044 52.3288C27.7657 50.1214 28.615 47.914 29.9869 45.9663L28.9416 44.9924L31.8815 41.8761L32.9922 42.9148C34.8214 41.4865 36.9773 40.5776 39.1986 40.188L39.1333 38.6298L43.4451 38.5L43.5104 40.0582C45.7317 40.3179 47.8876 41.1619 49.7822 42.4604L50.8275 41.4216Z" stroke="#1C0732" stroke-width="3" stroke-miterlimit="10" stroke-linecap="round" stroke-linejoin="round"/>
<path d="M65.2657 55.8347L68.7935 48.2386C68.9242 32.4621 69.1202 16.7504 69.2509 0.973877C66.7683 1.0388 64.2204 1.0388 61.7378 1.10373C61.8031 16.8154 61.8031 32.5919 61.8685 48.3036L65.2657 55.8347Z" stroke="#1C0732" stroke-width="3" stroke-miterlimit="10" stroke-linecap="round" stroke-linejoin="round"/>
<path d="M62.3258 48.1088C62.3258 48.1088 64.2204 47.979 65.2003 49.0177C65.2003 49.0177 66.703 47.8491 68.7935 47.7842" stroke="#1C0732" stroke-width="3" stroke-miterlimit="10" stroke-linecap="round" stroke-linejoin="round"/>
<path d="M62.1298 4.67456H68.5322" stroke="#1C0732" stroke-width="3" stroke-miterlimit="10" stroke-linecap="round" stroke-linejoin="round"/>
</g>
<defs>
<clipPath id="clip0_144_35">
<rect width="75" height="77" fill="white"/>
</clipPath>
</defs>
</svg>
