<svg width="80" height="80" viewBox="0 0 80 80" fill="none" xmlns="http://www.w3.org/2000/svg">
<path d="M78.3299 1.67017H1.67015V78.3299H78.3299V1.67017Z" stroke="#1C0732" stroke-width="3" stroke-miterlimit="10" stroke-linecap="round" stroke-linejoin="round"/>
<path d="M66.5553 24.8016H12.7766V33.9039H66.5553V24.8016Z" stroke="#1C0732" stroke-width="3" stroke-miterlimit="10" stroke-linecap="round" stroke-linejoin="round"/>
<path d="M30.8977 43.2568H12.7766V67.3904H30.8977V43.2568Z" stroke="#1C0732" stroke-width="3" stroke-miterlimit="10" stroke-linecap="round" stroke-linejoin="round"/>
<path d="M67.0564 43.2568H39.666V67.3904H67.0564V43.2568Z" stroke="#1C0732" stroke-width="3" stroke-miterlimit="10" stroke-linecap="round" stroke-linejoin="round"/>
<path d="M39.666 43.2568L67.0564 67.3069" stroke="#1C0732" stroke-width="3" stroke-miterlimit="10" stroke-linecap="round" stroke-linejoin="round"/>
<path d="M67.0564 43.2568L39.666 67.3069" stroke="#1C0732" stroke-width="3" stroke-miterlimit="10" stroke-linecap="round" stroke-linejoin="round"/>
<path d="M50.6889 9.18579H57.8706" stroke="#1C0732" stroke-width="3" stroke-miterlimit="10" stroke-linecap="round" stroke-linejoin="round"/>
<path d="M63.5491 9.10229H70.6472" stroke="#1C0732" stroke-width="3" stroke-miterlimit="10" stroke-linecap="round" stroke-linejoin="round"/>
<path d="M44.6764 11.357C45.8755 11.357 46.8476 10.385 46.8476 9.18584C46.8476 7.98672 45.8755 7.01465 44.6764 7.01465C43.4773 7.01465 42.5052 7.98672 42.5052 9.18584C42.5052 10.385 43.4773 11.357 44.6764 11.357Z" fill="#1C0732"/>
<path d="M1.67015 14.8644H78.3299" stroke="#1C0732" stroke-width="3" stroke-miterlimit="10" stroke-linecap="round" stroke-linejoin="round"/>
</svg>
