<svg width="68" height="72" viewBox="0 0 68 72" fill="none" xmlns="http://www.w3.org/2000/svg">
<path fill-rule="evenodd" clip-rule="evenodd" d="M28.6558 68.9407H37.1912V47.168H28.6558V68.9407Z" fill="#6B7F9E"/>
<path fill-rule="evenodd" clip-rule="evenodd" d="M13.3452 68.9426H21.8762V53.7754H13.3452V68.9426Z" fill="#83CF8F"/>
<path fill-rule="evenodd" clip-rule="evenodd" d="M43.9673 68.9414H52.4983V30.6914H43.9673V68.9414Z" fill="#FF7069"/>
<path fill-rule="evenodd" clip-rule="evenodd" d="M2.84229 68.2647H55.5232V66.2754L58.2796 69.0341L55.5232 71.7906V69.8012H2.84229V68.2647Z" fill="white"/>
<path fill-rule="evenodd" clip-rule="evenodd" d="M2.84235 69.7997V21.8229H0.853027L3.60951 19.0664L6.36599 21.8229H4.37666V69.7997H2.84235Z" fill="#B9C1C9"/>
<path fill-rule="evenodd" clip-rule="evenodd" d="M44.049 24.1605C38.558 42.9371 19.3044 44.2692 9.09619 43.5394C25.3097 41.9787 34.9333 33.4235 39.2174 22.1514L35.6696 20.6764L44.4117 15.9548L47.1594 25.3739L44.049 24.1605ZM50.3885 14.8711H67.4879V16.3329H50.3885V14.8711ZM50.3885 24.3715H59.2624V25.8333H50.3885V24.3715ZM50.3885 21.2457H66.3866V22.7053H50.3885V21.2457ZM50.3885 18.0584H63.3641V19.5202H50.3885V18.0584Z" fill="#B9C1C9"/>
<path fill-rule="evenodd" clip-rule="evenodd" d="M17.0202 0.662109C14.0197 1.47103 11.5468 3.26252 9.85205 5.59696L12.1953 7.30272L14.134 8.71174C15.143 7.32251 16.6158 6.2564 18.4029 5.77281L17.8247 3.63401L17.7764 3.46036L17.0202 0.662109Z" fill="#83CF8F"/>
<path fill-rule="evenodd" clip-rule="evenodd" d="M14.1336 8.71439C12.7971 10.5542 12.2718 12.9612 12.9136 15.3286C14.0347 19.4831 18.3123 21.9407 22.4646 20.8196C24.9573 20.1448 26.8389 18.3357 27.7028 16.098L29.7712 16.8959L29.9405 16.9619L32.6442 18.0038C31.1934 21.7604 28.0325 24.8005 23.8472 25.9325C16.8681 27.8163 9.68453 23.6882 7.80071 16.7113C6.72582 12.7348 7.60508 8.69021 9.85159 5.59961L12.3421 7.41089L14.1336 8.71439Z" fill="#FF7069"/>
<path fill-rule="evenodd" clip-rule="evenodd" d="M17.7762 3.46189L17.8245 3.63554L18.4027 5.77434C22.5572 4.65329 26.8326 7.11082 27.9558 11.2653C28.4042 12.9249 28.2789 14.6065 27.703 16.0969L29.7715 16.8948L29.9408 16.9607L32.6445 18.0027C33.6117 15.499 33.8205 12.6743 33.0665 9.88269C31.1827 2.90576 23.9991 -1.22237 17.02 0.663643L17.7762 3.46189Z" fill="#6B7F9E"/>
</svg>
