<svg width="67" height="68" viewBox="0 0 67 68" fill="none" xmlns="http://www.w3.org/2000/svg">
<path d="M46.8658 67.0966H21.7573V66.0898C21.7573 65.4144 21.9969 64.7609 22.4335 64.2455C22.87 63.7302 23.4753 63.3864 24.1415 63.2754L25.0289 63.1274C26.0282 62.9609 26.936 62.4452 27.5909 61.6722C28.2457 60.8991 28.6051 59.9189 28.6051 58.9058V55.6836H40.0181V58.9058C40.0181 59.9189 40.3774 60.8991 41.0323 61.6722C41.6871 62.4452 42.595 62.9609 43.5943 63.1274L44.4817 63.2754C45.1479 63.3864 45.7531 63.7302 46.1897 64.2455C46.6262 64.7609 46.8658 65.4144 46.8658 66.0898V67.0966Z" fill="#24AFD6"/>
<path d="M64.8413 19.1621H1.49937C0.711474 19.1621 0.0727539 19.8008 0.0727539 20.5887V55.3983C0.0727539 56.1862 0.711474 56.8249 1.49937 56.8249H64.8413C65.6292 56.8249 66.2679 56.1862 66.2679 55.3983V20.5887C66.2679 19.8008 65.6292 19.1621 64.8413 19.1621Z" fill="#ECFBF9"/>
<path d="M0.0727539 48.8379H66.2679V55.4003C66.2679 55.7787 66.1176 56.1416 65.8501 56.4091C65.5825 56.6767 65.2197 56.827 64.8413 56.827H1.49937C1.12101 56.827 0.758144 56.6767 0.490601 56.4091C0.223058 56.1416 0.0727539 55.7787 0.0727539 55.4003V48.8379Z" fill="#57CEE6"/>
<path d="M60.2764 0.902344H6.0648C5.2769 0.902344 4.63818 1.54106 4.63818 2.32896V50.834C4.63818 51.6219 5.2769 52.2607 6.0648 52.2607H60.2764C61.0643 52.2607 61.703 51.6219 61.703 50.834V2.32896C61.703 1.54106 61.0643 0.902344 60.2764 0.902344Z" fill="#FFFDFA"/>
<path d="M6.0648 0.902344H60.2764C60.6547 0.902344 61.0176 1.05265 61.2851 1.32019C61.5527 1.58773 61.703 1.9506 61.703 2.32896V7.75012H4.63818V2.32896C4.63818 1.9506 4.78849 1.58773 5.05603 1.32019C5.32357 1.05265 5.68644 0.902344 6.0648 0.902344Z" fill="#FAC850"/>
<path d="M10.3446 3.18555H8.06201V5.46814H10.3446V3.18555Z" fill="#FFFDFA"/>
<path d="M14.91 3.18555H12.6274V5.46814H14.91V3.18555Z" fill="#FFFDFA"/>
<path d="M19.4745 3.18555H17.1919V5.46814H19.4745V3.18555Z" fill="#FFFDFA"/>
<path d="M58.2792 3.18555H55.9966V5.46814H58.2792V3.18555Z" fill="#FFFDFA"/>
<path d="M45.7252 41.9883H20.6167V46.5535H45.7252V41.9883Z" fill="#C85AED"/>
<path d="M12.7817 35.1425H19.3214L16.0516 31.2188L12.7817 35.1425Z" fill="#C85AED"/>
<path d="M19.3214 23.7285H12.7817L16.0516 27.6523L19.3214 23.7285Z" fill="#C85AED"/>
<path d="M20.6161 33.1293V25.7383L17.5366 29.4338L20.6161 33.1293Z" fill="#C85AED"/>
<path d="M11.4858 25.7383V33.1293L14.5653 29.4338L11.4858 25.7383Z" fill="#C85AED"/>
<path d="M21.7569 21.4453H10.3439C10.0412 21.4453 9.75095 21.5656 9.53691 21.7796C9.32288 21.9936 9.20264 22.2839 9.20264 22.5866V36.2822C9.20264 36.5849 9.32288 36.8751 9.53691 37.0892C9.75095 37.3032 10.0412 37.4235 10.3439 37.4235H21.7569C22.0596 37.4235 22.3499 37.3032 22.5639 37.0892C22.7779 36.8751 22.8982 36.5849 22.8982 36.2822V22.5866C22.8982 22.2839 22.7779 21.9936 22.5639 21.7796C22.3499 21.5656 22.0596 21.4453 21.7569 21.4453ZM21.7569 36.2822H10.3439V22.5866H21.7569V36.2822Z" fill="#C85AED"/>
<path d="M16.0504 16.8809H9.20264V19.1635H16.0504V16.8809Z" fill="#C85AED"/>
<path d="M22.8987 16.8809H18.3335V19.1635H22.8987V16.8809Z" fill="#C85AED"/>
<path d="M22.8982 12.3164H9.20264V14.599H22.8982V12.3164Z" fill="#C85AED"/>
<path d="M37.7353 33.1293V25.7383L34.6558 29.4338L37.7353 33.1293Z" fill="#C85AED"/>
<path d="M36.4405 23.7285H29.9009L33.1707 27.6523L36.4405 23.7285Z" fill="#C85AED"/>
<path d="M29.9009 35.1425H36.4405L33.1707 31.2188L29.9009 35.1425Z" fill="#C85AED"/>
<path d="M28.605 25.7383V33.1293L31.6845 29.4338L28.605 25.7383Z" fill="#C85AED"/>
<path d="M38.877 21.4453H27.464C27.1614 21.4453 26.8711 21.5656 26.657 21.7796C26.443 21.9936 26.3228 22.2839 26.3228 22.5866V36.2822C26.3228 36.5849 26.443 36.8751 26.657 37.0892C26.8711 37.3032 27.1614 37.4235 27.464 37.4235H38.877C39.1797 37.4235 39.47 37.3032 39.684 37.0892C39.8981 36.8751 40.0183 36.5849 40.0183 36.2822V22.5866C40.0183 22.2839 39.8981 21.9936 39.684 21.7796C39.47 21.5656 39.1797 21.4453 38.877 21.4453ZM38.877 36.2822H27.464V22.5866H38.877V36.2822Z" fill="#C85AED"/>
<path d="M33.1705 16.8809H26.3228V19.1635H33.1705V16.8809Z" fill="#C85AED"/>
<path d="M40.0178 16.8809H35.4526V19.1635H40.0178V16.8809Z" fill="#C85AED"/>
<path d="M40.0183 12.3164H26.3228V14.599H40.0183V12.3164Z" fill="#C85AED"/>
<path d="M53.5596 23.7285H47.02L50.2898 27.6523L53.5596 23.7285Z" fill="#C85AED"/>
<path d="M54.8554 33.1293V25.7383L51.7759 29.4338L54.8554 33.1293Z" fill="#C85AED"/>
<path d="M47.02 35.1406H53.5596L50.2898 31.2168L47.02 35.1406Z" fill="#C85AED"/>
<path d="M45.7241 25.7383V33.1293L48.8036 29.4338L45.7241 25.7383Z" fill="#C85AED"/>
<path d="M55.9962 21.4453H44.5832C44.2805 21.4453 43.9902 21.5656 43.7762 21.7796C43.5621 21.9936 43.4419 22.2839 43.4419 22.5866V36.2822C43.4419 36.5849 43.5621 36.8751 43.7762 37.0892C43.9902 37.3032 44.2805 37.4235 44.5832 37.4235H55.9962C56.2988 37.4235 56.5891 37.3032 56.8032 37.0892C57.0172 36.8751 57.1374 36.5849 57.1374 36.2822V22.5866C57.1374 22.2839 57.0172 21.9936 56.8032 21.7796C56.5891 21.5656 56.2988 21.4453 55.9962 21.4453ZM55.9962 36.2822H44.5832V22.5866H55.9962V36.2822Z" fill="#C85AED"/>
<path d="M50.2897 16.8789H43.4419V19.1615H50.2897V16.8789Z" fill="#C85AED"/>
<path d="M57.137 16.8789H52.5718V19.1615H57.137V16.8789Z" fill="#C85AED"/>
<path d="M57.1374 12.3145H43.4419V14.597H57.1374V12.3145Z" fill="#C85AED"/>
<path d="M57.137 45.4121H52.5718V47.6947H57.137V45.4121Z" fill="#FAC850"/>
<path d="M57.137 40.8477H49.1479V43.1302H57.137V40.8477Z" fill="#FAC850"/>
<path d="M13.7688 45.4121H9.20361V47.6947H13.7688V45.4121Z" fill="#FAC850"/>
<path d="M17.1927 40.8477H9.20361V43.1302H17.1927V40.8477Z" fill="#FAC850"/>
</svg>
