<svg width="65" height="64" viewBox="0 0 65 64" fill="none" xmlns="http://www.w3.org/2000/svg">
<path d="M52.6584 22.5483H11.9136V23.8137H52.6584V22.5483Z" fill="#1F3E75"/>
<path d="M25.8332 0.404785H0.525879V45.958H25.8332V0.404785Z" fill="#EBEAE0"/>
<path d="M25.8329 45.9572V38.7826C25.5039 38.9597 25.2002 39.1749 24.9345 39.4153C24.6688 39.4026 24.403 39.4026 24.1373 39.4532L23.0238 36.4037C22.2393 34.2399 19.8351 33.1264 17.6713 33.9109C15.5075 34.6955 14.394 37.0997 15.1785 39.2634L17.5447 45.7548L17.4056 45.9699H25.8329V45.9572Z" fill="#D7D5C1"/>
<path d="M64.0481 0.404785H38.7407V45.958H64.0481V0.404785Z" fill="#EBEAE0"/>
<path d="M25.8332 0.404785H0.525879V6.85816H25.8332V0.404785Z" fill="#E36414"/>
<path d="M64.0481 0.404785H38.7407V6.85816H64.0481V0.404785Z" fill="#E36414"/>
<path d="M20.7724 12.8062H8.1187V14.0715H20.7724V12.8062Z" fill="#1F3E75"/>
<path d="M6.8527 12.8062H5.58734V14.0715H6.8527V12.8062Z" fill="#1F3E75"/>
<path d="M20.7723 19.2593H8.11865V20.5246H20.7723V19.2593Z" fill="#1F3E75"/>
<path d="M6.85277 19.2593H5.5874V20.5246H6.85277V19.2593Z" fill="#1F3E75"/>
<path d="M20.7718 25.8384H5.5874V27.1037H20.7718V25.8384Z" fill="#1F3E75"/>
<path d="M20.7718 32.9253H14.1919V39.5052H20.7718V32.9253Z" fill="#1F3E75"/>
<path d="M58.9852 12.8062H46.3315V14.0715H58.9852V12.8062Z" fill="#1F3E75"/>
<path d="M45.0676 12.8062H43.8022V14.0715H45.0676V12.8062Z" fill="#1F3E75"/>
<path d="M58.9852 19.2593H46.3315V20.5246H58.9852V19.2593Z" fill="#1F3E75"/>
<path d="M45.0676 19.2593H43.8022V20.5246H45.0676V19.2593Z" fill="#1F3E75"/>
<path d="M58.9867 25.8384H43.8022V27.1037H58.9867V25.8384Z" fill="#1F3E75"/>
<path d="M58.9857 32.9253H52.4058V39.5052H58.9857V32.9253Z" fill="#DB3429"/>
<path d="M30.6041 40.6687C29.8954 40.9218 29.5411 41.7063 29.7942 42.4023L30.6926 44.8697L28.9591 41.6177C28.6174 40.9724 27.8582 40.6814 27.1749 40.9344C26.4157 41.2128 26.0234 42.048 26.3018 42.8072L27.4786 46.0465L25.8969 42.7059C25.6058 42.0859 24.8719 41.7822 24.2266 42.0226C23.5813 42.2631 23.2143 42.9337 23.3788 43.6044L24.2772 47.2233L20.6456 37.2649C20.3293 36.4171 19.3929 35.9742 18.5324 36.2779C17.6846 36.5942 17.2418 37.5306 17.5455 38.391L20.3546 46.0971L18.0769 49.4757L20.633 56.4858L28.5795 60.5603L29.8069 63.9262H41.2585L38.6898 56.8781L33.894 43.7182L32.1731 41.1875C31.8441 40.6687 31.1861 40.4662 30.6041 40.6687Z" fill="#FFC970"/>
<path d="M20.3665 46.1098L22.796 52.7656C21.5433 52.5379 20.5184 51.6648 20.1008 50.4627L19.1897 47.8433L20.3665 46.1098ZM24.2765 47.2107L20.6449 37.2649C20.3286 36.4171 19.3922 35.9742 18.5317 36.2779L22.1507 46.2237C22.467 47.0841 23.4161 47.527 24.2765 47.2107ZM27.4779 46.0465L25.8962 42.7059C25.6051 42.0859 24.8712 41.7822 24.2259 42.0226L25.2762 45.0595C25.5798 45.9326 26.5415 46.3882 27.4146 46.0718L27.4779 46.0465ZM30.6919 44.8824L28.9584 41.6304C28.6167 40.985 27.8575 40.694 27.1742 40.9471L28.3004 43.9966C28.6167 44.8571 29.5657 45.2873 30.4262 44.9836L30.6919 44.8824ZM33.906 43.7056L32.1851 41.1749C31.8308 40.6687 31.1854 40.4536 30.6033 40.6687L31.565 42.8831C31.9067 43.6676 32.7924 44.0725 33.6023 43.8068L33.906 43.7056Z" fill="#FFB233"/>
</svg>
