<svg width="53" height="47" viewBox="0 0 53 47" fill="none" xmlns="http://www.w3.org/2000/svg">
<path d="M15.6151 9.22646C14.5821 8.29671 12.9874 8.38033 12.0585 9.41338L0.986731 21.7149C0.124215 22.6742 0.124215 24.127 0.986731 25.0863L12.0585 37.3879C12.5553 37.9405 13.2416 38.2209 13.9311 38.2209C14.5312 38.2209 15.1339 38.0077 15.6151 37.5748C16.649 36.6434 16.7326 35.0512 15.8021 34.0165L6.24711 23.4006L15.8021 12.7848C16.7327 11.7501 16.649 10.1578 15.6151 9.22646ZM51.7459 21.715L40.6741 9.41338C39.7444 8.38033 38.1522 8.29669 37.1175 9.22644C36.0836 10.1578 36 11.7501 36.9305 12.7847L46.4855 23.4006L36.9305 34.0165C36 35.0512 36.0836 36.6434 37.1175 37.5748C37.5987 38.0077 38.2014 38.2209 38.8015 38.2209C39.491 38.2209 40.1773 37.9405 40.6741 37.3879L51.7459 25.0863C52.6084 24.1271 52.6084 22.6742 51.7459 21.715ZM32.0489 0.253629C30.6945 -0.0743208 29.3343 0.748837 29.0031 2.10001L18.8381 43.501C18.5061 44.8521 19.3325 46.2148 20.6837 46.5477C20.8854 46.5969 21.087 46.6198 21.2855 46.6198C22.4185 46.6198 23.4475 45.8507 23.7296 44.7013L33.8945 3.30032C34.2265 1.94914 33.4001 0.586499 32.0489 0.253629Z" fill="#FDFDFE"/>
</svg>
