<svg width="41" height="61" viewBox="0 0 41 61" fill="none" xmlns="http://www.w3.org/2000/svg">
<path d="M20.9081 0.410156C9.89369 0.410156 0.921875 9.38196 0.921875 20.3964C0.921875 27.9943 4.26177 33.2013 7.34713 37.127C8.8898 39.0896 10.3622 40.7697 11.3756 42.2875C12.3889 43.8052 12.9136 45.0713 12.9136 46.3784V54.1465V60.3922H18.7845H22.6569H28.9026V54.209V46.3784C28.9026 43.7638 31.3938 41.0186 34.4768 37.0802C37.5599 33.1413 40.8943 27.9372 40.8943 20.3964C40.8943 9.38196 31.9225 0.410156 20.9081 0.410156ZM20.9081 4.4074C29.7622 4.4074 36.897 11.5421 36.897 20.3964C36.897 26.7907 34.2356 30.8921 31.3228 34.6131C28.41 38.3341 24.9053 41.6021 24.9053 46.3784V48.377H22.9067V28.3908H24.9053V24.3936H16.9108V28.3908H18.9095V48.377H16.9108V46.3784C16.9108 43.9905 15.9365 41.9202 14.7014 40.0703C13.4663 38.2204 11.9408 36.5115 10.4856 34.6599C7.57508 30.9569 4.91912 26.8579 4.91912 20.3964C4.91912 11.5421 12.0539 4.4074 20.9081 4.4074ZM16.9108 52.3743H24.9053V54.209V56.3949H22.6569H18.7845H16.9108V54.1465V52.3743Z" fill="#FDFEFF"/>
</svg>
