<svg width="1600" height="1405" viewBox="0 0 1600 1405" fill="none" xmlns="http://www.w3.org/2000/svg">
<path d="M854.344 -211.985C646.983 -354.081 525.197 -163.49 490.224 -50.4321C430.371 162.912 569.378 108.174 597.119 304.265C624.861 500.357 706.92 333.238 823.519 331.949C940.118 330.66 820.229 560.218 1034.57 552.665C1248.92 545.112 1361.57 167.615 1068.7 243.49C775.828 319.365 1113.55 -34.3641 854.344 -211.985Z" stroke="#52BD94" stroke-opacity="0.1" stroke-width="2"/>
<path d="M857.705 -129.47C697.936 -238.843 604.178 -92.2548 577.271 -5.28872C531.226 158.821 638.287 116.75 659.711 267.612C681.135 418.474 744.298 289.931 834.114 288.972C923.929 288.014 831.644 464.581 996.75 458.83C1161.86 453.08 1248.53 162.701 1022.95 220.99C797.374 279.278 1057.42 7.24777 857.705 -129.47Z" stroke="#52BD94" stroke-opacity="0.1" stroke-width="2"/>
<path d="M851.013 -288.447C599.082 -460.975 451.198 -229.679 408.747 -92.465C336.101 166.465 504.942 100.065 538.696 338.079C572.45 576.092 672.083 373.275 813.72 371.743C955.358 370.212 809.789 648.804 1070.16 639.697C1330.53 630.59 1467.27 172.435 1111.53 264.445C755.785 356.456 1165.93 -72.7871 851.013 -288.447Z" stroke="#52BD94" stroke-opacity="0.1" stroke-width="2"/>
<path d="M848.485 -352.603C559.727 -550.533 390.098 -284.998 341.378 -127.489C257.995 169.734 451.587 93.4574 490.193 366.633C528.799 639.809 643.1 406.98 805.48 405.168C967.859 403.356 800.867 723.177 1099.37 712.624C1397.87 702.072 1554.82 176.155 1146.94 281.9C739.066 387.644 1209.43 -105.192 848.485 -352.603Z" stroke="#52BD94" stroke-opacity="0.1" stroke-width="2"/>
<path d="M844.332 -444.397C501.753 -678.933 300.706 -364.579 243.005 -178.085C144.265 173.84 373.832 83.6152 419.763 407.127C465.694 730.639 601.137 454.985 793.723 452.924C986.31 450.863 788.419 829.504 1142.45 817.164C1496.47 804.824 1682.34 182.122 1198.64 307.13C714.945 432.137 1272.56 -151.227 844.332 -444.397Z" stroke="#52BD94" stroke-opacity="0.1" stroke-width="2"/>
<path d="M839.363 -551.523C433.709 -828.842 195.926 -457.554 127.741 -237.245C11.0811 178.497 282.762 72.0372 337.331 454.298C391.899 836.559 552.051 510.956 780.013 508.64C1007.98 506.324 773.967 953.569 1193.02 939.208C1612.07 924.848 1831.7 189.234 1259.22 336.633C686.751 484.031 1346.43 -204.874 839.363 -551.523Z" stroke="#52BD94" stroke-opacity="0.1" stroke-width="2"/>
</svg>
