<svg width="54" height="33" viewBox="0 0 54 33" fill="none" xmlns="http://www.w3.org/2000/svg">
<path d="M18.5097 19.1259C20.0622 19.1259 21.3207 17.8674 21.3207 16.3149C21.3207 14.7625 20.0622 13.504 18.5097 13.504C16.9572 13.504 15.6987 14.7625 15.6987 16.3149C15.6987 17.8674 16.9572 19.1259 18.5097 19.1259Z" fill="#52BD94"/>
<path d="M26.9423 19.1259C28.4948 19.1259 29.7533 17.8674 29.7533 16.3149C29.7533 14.7625 28.4948 13.504 26.9423 13.504C25.3899 13.504 24.1313 14.7625 24.1313 16.3149C24.1313 17.8674 25.3899 19.1259 26.9423 19.1259Z" fill="#52BD94"/>
<path d="M35.3754 19.1259C36.9279 19.1259 38.1864 17.8674 38.1864 16.3149C38.1864 14.7625 36.9279 13.504 35.3754 13.504C33.823 13.504 32.5645 14.7625 32.5645 16.3149C32.5645 17.8674 33.823 19.1259 35.3754 19.1259Z" fill="#52BD94"/>
<path d="M16.616 32.2243C16.2468 32.2248 15.8811 32.1523 15.54 32.011C15.1989 31.8698 14.889 31.6625 14.6283 31.4011L1.51037 18.2832C0.412561 17.1854 0.412561 15.4056 1.51037 14.3079L14.6283 1.18996C15.7261 0.0922774 17.5058 0.0922774 18.6036 1.18996C19.7011 2.28765 19.7011 4.06747 18.6036 5.16527L7.47339 16.2955L18.6036 27.4257C19.7011 28.5233 19.7011 30.3032 18.6036 31.401C18.3429 31.6624 18.033 31.8697 17.6919 32.011C17.3508 32.1523 16.9852 32.2248 16.616 32.2243ZM37.2298 32.2243C37.599 32.2248 37.9647 32.1523 38.3058 32.011C38.6469 31.8698 38.9568 31.6625 39.2175 31.4011L52.3354 18.2832C53.4333 17.1854 53.4333 15.4056 52.3354 14.3079L39.2175 1.18996C38.1197 0.0922774 36.34 0.0922774 35.2422 1.18996C34.1447 2.28765 34.1447 4.06747 35.2422 5.16527L46.3724 16.2955L35.2422 27.4257C34.1447 28.5233 34.1447 30.3032 35.2422 31.401C35.503 31.6624 35.8128 31.8697 36.1539 32.011C36.495 32.1523 36.8606 32.2248 37.2298 32.2243Z" fill="#52BD94"/>
</svg>
