<svg width="56" height="51" viewBox="0 0 56 51" fill="none" xmlns="http://www.w3.org/2000/svg">
<path d="M50.2776 45.3446H55.2283V50.2952H0.771484V45.3446H5.7221V3.26437C5.7221 2.60788 5.98289 1.97827 6.4471 1.51406C6.91131 1.04985 7.54092 0.789063 8.19741 0.789062H47.8023C48.4588 0.789063 49.0884 1.04985 49.5527 1.51406C50.0169 1.97827 50.2776 2.60788 50.2776 3.26437V45.3446ZM45.327 45.3446V5.73968H10.6727V45.3446H45.327ZM18.0986 23.0668H25.5246V28.0175H18.0986V23.0668ZM18.0986 13.1656H25.5246V18.1162H18.0986V13.1656ZM18.0986 32.9681H25.5246V37.9187H18.0986V32.9681ZM30.4752 32.9681H37.9011V37.9187H30.4752V32.9681ZM30.4752 23.0668H37.9011V28.0175H30.4752V23.0668ZM30.4752 13.1656H37.9011V18.1162H30.4752V13.1656Z" fill="#52BD94"/>
</svg>
