<svg width="44" height="40" viewBox="0 0 44 40" fill="none" xmlns="http://www.w3.org/2000/svg">
<path d="M2.19229 0.252441H41.6535C42.2349 0.252441 42.7925 0.483414 43.2037 0.894548C43.6148 1.30568 43.8458 1.8633 43.8458 2.44473V37.5213C43.8458 38.1028 43.6148 38.6604 43.2037 39.0715C42.7925 39.4827 42.2349 39.7136 41.6535 39.7136H2.19229C1.61086 39.7136 1.05324 39.4827 0.642106 39.0715C0.230973 38.6604 0 38.1028 0 37.5213V2.44473C0 1.8633 0.230973 1.30568 0.642106 0.894548C1.05324 0.483414 1.61086 0.252441 2.19229 0.252441ZM20.0068 19.983H4.38458V35.3291H39.4612V19.983H36.9927C36.505 21.8645 35.4064 23.5309 33.8692 24.7204C32.3321 25.91 30.4434 26.5554 28.4998 26.5554C26.5561 26.5554 24.6674 25.91 23.1303 24.7204C21.5931 23.5309 20.4945 21.8645 20.0068 19.983ZM20.0068 15.5985C20.4945 13.717 21.5931 12.0506 23.1303 10.8611C24.6674 9.67154 26.5561 9.0261 28.4998 9.0261C30.4434 9.0261 32.3321 9.67154 33.8692 10.8611C35.4064 12.0506 36.505 13.717 36.9927 15.5985H39.4612V4.63702H4.38458V15.5985H20.0068ZM28.4998 22.1753C29.6626 22.1753 30.7779 21.7134 31.6001 20.8911C32.4224 20.0688 32.8843 18.9536 32.8843 17.7908C32.8843 16.6279 32.4224 15.5127 31.6001 14.6904C30.7779 13.8681 29.6626 13.4062 28.4998 13.4062C27.3369 13.4062 26.2217 13.8681 25.3994 14.6904C24.5771 15.5127 24.1152 16.6279 24.1152 17.7908C24.1152 18.9536 24.5771 20.0688 25.3994 20.8911C26.2217 21.7134 27.3369 22.1753 28.4998 22.1753ZM8.76916 26.5599H13.1537V30.9445H8.76916V26.5599Z" fill="#52BD94"/>
</svg>
