<?xml version="1.0" encoding="utf-8"?>
<!-- Generator: Adobe Illustrator 23.0.0, SVG Export Plug-In . SVG Version: 6.00 Build 0)  -->
<svg version="1.1" id="Layer_1" xmlns="http://www.w3.org/2000/svg" xmlns:xlink="http://www.w3.org/1999/xlink" x="0px" y="0px"
	 viewBox="0 0 595.3 356.9" style="enable-background:new 0 0 595.3 356.9;" xml:space="preserve">
<style type="text/css">
	.st0{fill:#D1D7DB;}
	.st1{fill:#FFFFFF;}
	.st2{fill:#F15E60;}
	.st3{fill:#213134;}
	.st4{fill:#FBC9BE;}
	.st5{fill:#0C0E0E;}
	.st6{fill:#2D4295;}
	.st7{fill:#4755A5;}
	.st8{fill:#C3CAE7;}
	.st9{fill:#9DABD7;}
	.st10{fill:#EFB2A8;}
	.st11{fill:#DE9891;}
	.st12{fill:#201D2F;}
	.st13{fill:#121D35;}
	.st14{fill:#24385B;}
	.st15{fill:#3E5157;}
	.st16{fill:#283338;}
</style>
<g>
	<g>
		<g>
			<g>
				<path class="st0" d="M180.4,69.6H54.3V56.8h126.2V69.6z M55.6,68.3h123.6V58.1H55.6V68.3z"/>
			</g>
			<path class="st0" d="M100,58.1H78V37.3h22V58.1z M79.3,56.8h19.4V38.6H79.3V56.8z"/>
			<path class="st0" d="M121.5,58.1h-13.1V19.7h13.1V58.1z M109.8,56.8h10.5V21h-10.5V56.8z"/>
			<path class="st0" d="M133.3,58.1h-13.1V19.7h13.1V58.1z M121.5,56.8H132V21h-10.5V56.8z"/>
			<path class="st0" d="M148.6,57.7l-16.3-34.9l11.8-5.6l16.3,34.9L148.6,57.7z M134,23.5L149.3,56l9.5-4.4l-15.2-32.5L134,23.5z"/>
		</g>
		<g>
			<g>
				<polygon class="st0" points="535.2,38.3 523.8,27.4 485.5,66.4 497.9,78.1 				"/>
				
					<ellipse transform="matrix(0.2637 -0.9646 0.9646 0.2637 324.4477 538.6768)" class="st0" cx="515.1" cy="56.8" rx="27.4" ry="27.4"/>
				
					<ellipse transform="matrix(0.9224 -0.3861 0.3861 0.9224 20.7671 198.9128)" class="st1" cx="505.6" cy="47.8" rx="27.4" ry="27.4"/>
			</g>
			<g>
				
					<rect x="504.2" y="41.5" transform="matrix(0.8418 -0.5397 0.5397 0.8418 58.5763 284.3322)" class="st2" width="20.6" height="1.4"/>
				<path class="st0" d="M509.1,47.8c0,2.1-1.7,3.9-3.9,3.9s-3.9-1.7-3.9-3.9c0-2.1,1.7-3.9,3.9-3.9S509.1,45.6,509.1,47.8z"/>
				
					<rect x="499.4" y="37.5" transform="matrix(0.6886 -0.7251 0.7251 0.6886 124.1183 376.1927)" class="st0" width="1.4" height="12.2"/>
			</g>
		</g>
	</g>
	<g>
		<g>
			<g>
				<g>
					
						<rect x="264.5" y="226.6" transform="matrix(0.8448 -0.535 0.535 0.8448 -110.6208 186.0599)" class="st3" width="1.9" height="114.2"/>
					
						<rect x="204.2" y="282.9" transform="matrix(0.502 -0.8649 0.8649 0.502 -115.9372 366.3277)" class="st3" width="111.8" height="1.9"/>
				</g>
				<path class="st1" d="M304.2,243.3c0,0-9.7,9-48.4,5.1s-63-23.9-64.9-68.7c-2-44.8,22.2-76.3,22.2-76.3l93.1,97.6L304.2,243.3z"
					/>
			</g>
			<g>
				<path class="st2" d="M234.6,77c0,0-17.2-7.6-20.6,8c0,0-12.8-2.1-19.3,12.5c-9,20,14.2,29.6,14.2,29.6l65.9-2.8
					c0,0,18.4-23.8-3.3-33c0,0,0.3-14.8-14.3-11.7L234.6,77z"/>
				<g>
					<g>
						<g>
							<g>
								<polygon class="st4" points="376.5,317.9 360.2,317.9 352.2,291.8 367.5,288.3 								"/>
							</g>
							<g>
								<path class="st5" d="M359.6,314.5c3.9,1,12.6,4.4,16.7-1.5l27.7,15l-48.8-0.3l2.3-11.7C357.5,314.9,358.5,314.2,359.6,314.5
									z"/>
								
									<rect x="355.1" y="327.8" transform="matrix(1 6.571562e-03 -6.571562e-03 1 2.1761 -2.4865)" class="st1" width="48.8" height="4.2"/>
							</g>
						</g>
						<path class="st6" d="M304.2,192.6l31,10.5c8.1,2.7,14.5,9.2,17.1,17.3l27.8,81.1l-29.3,3.5l-32.2-79.4L304.2,192.6z"/>
					</g>
					<g>
						<g>
							<g>
								<polygon class="st4" points="294.1,317.9 277.8,317.8 286.3,291.9 302.6,291.9 								"/>
							</g>
							<g>
								<path class="st5" d="M278.6,314.5c3.9,1,12.6,4.4,16.7-1.5l27.7,15l-48.8-0.3l2.3-11.7C276.5,314.9,277.6,314.2,278.6,314.5
									z"/>
								
									<rect x="274.1" y="327.8" transform="matrix(1 6.571566e-03 -6.571566e-03 1 2.1743 -1.9545)" class="st1" width="48.8" height="4.2"/>
							</g>
						</g>
						<path class="st7" d="M227.9,189c0,0-11.8,28.8,11,38.2c0,0,17.4,5.5,60.3,3.2l-22.4,70.8l27.3,3l28.3-76.3
							c3.4-9.1-0.3-19.4-8.8-24.2L297.8,189H227.9z"/>
					</g>
				</g>
				<g>
					<g>
						<path class="st8" d="M265.9,107.5c0,0,7.5,0.1,10.8,11.3C279.9,130,289,157,289,157l-22.2,17l-3.4-33.2L265.9,107.5z"/>
						<g>
							<path class="st4" d="M332.4,172.5h19c3.5,0,6.8,1.2,9.5,3.4l6.1,5l-3.2,2.2h-33.6L332.4,172.5z"/>
							<polygon class="st8" points="289,157 335.2,167.2 333.8,180.4 272.3,180.4 270.9,159.2 							"/>
						</g>
					</g>
					<g>
						<path class="st8" d="M238.4,101.5l-21.4,7.6l9.6,74H270l2-34.5c0,0,2.7-3.3,3.3-12c0.6-8.9-1.4-15.6-6-23.3l-3.5-5.8l-16.6-5
							L238.4,101.5z"/>
						<path class="st9" d="M272.1,166.1l-1.4-0.1l0.8-14.1c6.9-15.4-1.9-28.5-2-28.6l1.2-0.8c0.1,0.1,9.3,13.8,2.1,29.9L272.1,166.1
							z"/>
					</g>
					<g>
						<path class="st8" d="M216.9,109.1c0,0-9.8,0.8-8.8,17.9c0.7,11.4,2.4,32.6,3.5,45.4c0.5,6,5.6,10.7,11.6,10.7h16.2l-7.5-60.1
							L216.9,109.1z"/>
						<g>
							<path class="st4" d="M277.5,172.5h19c3.5,0,6.8,1.2,9.5,3.4l6.1,5l-3.2,2.2h-33.6L277.5,172.5z"/>
							<polygon class="st8" points="229.6,159.2 280.1,167.6 278.4,183.1 229.6,183.1 							"/>
						</g>
						<polygon class="st9" points="280.2,173.1 278.8,172.9 279.3,168.2 234.2,160.7 231.6,127 233,126.9 235.6,159.5 280.9,167.1 
													"/>
						
							<rect x="230.7" y="154.6" transform="matrix(0.112 -0.9937 0.9937 0.112 46.6855 371.8273)" class="st9" width="1.4" height="10.5"/>
					</g>
				</g>
				<g>
					<g>
						<g>
							<path class="st10" d="M256.8,73.6c-0.4,3.6,2.2,6.9,5.8,7.4c3.6,0.4,6.9-2.2,7.4-5.8c0.4-3.6-2.2-6.9-5.8-7.4
								C260.6,67.4,257.3,70,256.8,73.6z"/>
						</g>
						<path class="st2" d="M252.2,43.4c0,5.8-4.7,10.6-10.6,10.6s-10.6-4.7-10.6-10.6s4.7-10.6,10.6-10.6S252.2,37.5,252.2,43.4z"/>
						<path class="st2" d="M266.8,61.8c0,11.1-9,20.1-20.1,20.1c-11.1,0-22.1-7.1-22.1-18.2s10.9-22,22.1-22
							C257.8,41.7,266.8,50.7,266.8,61.8z"/>
						<path class="st4" d="M253.4,92.4l-1.6,14.4c-0.6,5-4,7.4-8.9,6.8l0,0c-4.2-0.5-7.9-3.2-8-7.4l3.7-22.5L253.4,92.4z"/>
						<path class="st11" d="M252.6,99.3C242.6,98.4,237.2,86,237.2,86l16.5,4.9L252.6,99.3z"/>
						<path class="st4" d="M248.8,93.7L248.8,93.7c8.5,0.5,15.9-5.9,16.5-12.8l1.3-16.4c0.8-8.7-5.5-16.4-14.2-17.5l0,0
							C243.6,46,234,52.1,232.9,61L232,74.2C231.3,84.4,237.9,92.9,248.8,93.7z"/>
						<g>
							<path class="st12" d="M255.8,82.4c-0.3,0-0.5-0.2-0.5-0.5c0-0.3,0.2-0.5,0.5-0.5l1.9,0l-0.8-2.4c-0.1-0.3,0.1-0.6,0.3-0.7
								c0.3-0.1,0.6,0.1,0.7,0.3l1.1,3.1c0.1,0.2,0,0.3-0.1,0.5c-0.1,0.1-0.3,0.2-0.4,0.2L255.8,82.4L255.8,82.4z"/>
							<path class="st2" d="M248.4,66.3c0,0,4.3-0.5,4.1,1.7c0,0-0.1,1.5-3.8,1.8c-3.7,0.3-4.6,0-4.9-1.4
								C243.6,67.1,246.4,66.4,248.4,66.3z"/>
							<path class="st2" d="M262.9,67c0,0-3-0.6-3.3,1.4c0,0-0.2,1.4,2.5,1.8c2.7,0.4,3.5,0,3.8-1.1C266.2,67.9,264.3,67.1,262.9,67
								z"/>
							<path class="st12" d="M250.8,74.4c0,0.8-0.7,1.5-1.5,1.5c-0.8,0-1.5-0.7-1.5-1.5c0-0.8,0.7-1.5,1.5-1.5
								C250.2,72.9,250.8,73.6,250.8,74.4z"/>
							<circle class="st12" cx="262" cy="75" r="1.4"/>
							<path class="st1" d="M249.3,84.2h8.7c0,0,0.3,3.1-4.3,3C249,87.1,249.3,84.2,249.3,84.2z"/>
						</g>
						<path class="st2" d="M234.9,70.4c0,0,12.1-3,15.8-16.2l-1.5-8.1c0,0-21.8-2.1-17.5,20.7L234.9,70.4z"/>
						<path class="st2" d="M244.2,55.1c0,0,6.7,8.9,28.1,10.6c0,0,1.1-21.7-23.1-19.6L244.2,55.1z"/>
						<path class="st1" d="M232.3,48.4c-0.2,0-0.4-0.1-0.5-0.2c-0.3-0.3-0.2-0.7,0.1-1c0.2-0.2,4.8-4.2,10.4-5.5
							c5.8-1.3,9.7,0,9.9,0c0.4,0.1,0.6,0.5,0.4,0.9c-0.1,0.4-0.5,0.6-0.9,0.4c0,0-3.7-1.2-9.1,0c-5.3,1.2-9.7,5.1-9.8,5.2
							C232.7,48.3,232.5,48.4,232.3,48.4z"/>
						<polygon class="st2" points="238.8,67.6 233.7,75.6 232.3,63.2 						"/>
						<g>
							<path class="st4" d="M223,72.1c-0.4,3.6,2.2,6.9,5.8,7.4c3.6,0.4,6.9-2.2,7.4-5.8c0.4-3.6-2.2-6.9-5.8-7.4
								C226.7,65.9,223.4,68.5,223,72.1z"/>
							<path class="st12" d="M231.6,75.6C231.6,75.6,231.6,75.6,231.6,75.6c-0.4,0-0.6-0.3-0.5-0.6c0,0,0.2-1.9-0.9-3.1
								c-0.6-0.6-1.5-0.9-2.7-0.9c-0.3,0-0.5-0.2-0.6-0.5c0-0.3,0.2-0.5,0.5-0.6c1.5-0.1,2.7,0.3,3.5,1.2c1.4,1.5,1.1,3.8,1.1,3.9
								C232.1,75.4,231.9,75.6,231.6,75.6z"/>
						</g>
					</g>
					<path class="st4" d="M224.6,106.4c0,0,5.9,7.2,19.1,10.1c5.9,1.3,12.1-0.4,16.1-4.9c1.6-1.8,3.1-3.5,3.5-4.9
						c0,0-12-5.2-15.3-5.2l-12.6,1L224.6,106.4z"/>
				</g>
			</g>
		</g>
		<g>
			<g>
				<g>
					<polygon class="st3" points="373.4,332.6 371.5,332 418.3,185.8 466.2,330.2 464.4,330.9 418.3,192.1 					"/>
					<polygon class="st3" points="162.8,332.6 160.9,332 207.7,185.8 255.6,330.2 253.8,330.9 207.7,192.1 					"/>
				</g>
				<rect x="146.4" y="183.2" class="st13" width="130.4" height="11.6"/>
				<rect x="273.9" y="183.2" class="st14" width="221.2" height="11.6"/>
			</g>
			<g>
				<g>
					<path class="st5" d="M316.7,178.6h56.9c1.3,0,2.3,1,2.3,2.3l0,0c0,1.3-1,2.3-2.3,2.3h-56.9c-1.3,0-2.3-1-2.3-2.3l0,0
						C314.5,179.7,315.5,178.6,316.7,178.6z"/>
					<path class="st15" d="M287.5,178.6h41c1.3,0,2.3,1,2.3,2.3l0,0c0,1.3-1,2.3-2.3,2.3h-41c-1.3,0-2.3-1-2.3-2.3l0,0
						C285.2,179.7,286.2,178.6,287.5,178.6z"/>
				</g>
				<g>
					<path class="st16" d="M324.3,161.4h120.1c3,0,5.4-2.4,5.4-5.4V79.2c0-3-2.4-5.4-5.4-5.4H324.3c-3,0-5.4,2.4-5.4,5.4V156
						C319,159,321.4,161.4,324.3,161.4z"/>
					<path class="st16" d="M327.2,161.4h120.1c3,0,5.4-2.4,5.4-5.4V79.2c0-3-2.4-5.4-5.4-5.4H327.2c-3,0-5.4,2.4-5.4,5.4V156
						C321.9,159,324.3,161.4,327.2,161.4z"/>
				</g>
				<g>
					<polygon class="st5" points="378.9,114.5 347.5,161.4 392.6,161.4 					"/>
					<g>
						<path class="st15" d="M401.3,113.4h-20.2c-1.8,0-3.2,1.7-2.8,3.4l13,64.1c0.3,1.3,1.4,2.3,2.8,2.3h21.2c1.8,0,3.2-1.7,2.8-3.5
							l-14-64.1C403.8,114.3,402.7,113.4,401.3,113.4z"/>
						<path class="st15" d="M371.9,178.6h37.2v4.6h-37.2c-1.3,0-2.3-1-2.3-2.3l0,0C369.6,179.7,370.6,178.6,371.9,178.6z"/>
					</g>
				</g>
			</g>
			<rect x="72.5" y="331.2" class="st3" width="469.1" height="1.9"/>
		</g>
	</g>
</g>
</svg>
