<svg width="52" height="49" viewBox="0 0 52 49" fill="none" xmlns="http://www.w3.org/2000/svg">
<path d="M37.6509 9.27772L29.9675 2.37645C29.0488 1.55487 27.7126 1.63703 26.7939 2.45861C19.9456 9.1134 13.0138 15.8504 6.16553 22.5052C13.0138 29.1599 19.8621 35.8969 26.6268 42.5517C27.462 43.3733 28.7983 43.4554 29.7169 42.6339L37.5674 35.7326C38.0685 35.2396 38.152 34.5002 37.6509 34.0073C33.8927 30.3102 30.051 26.5309 26.2928 22.8338C30.051 18.8902 33.8927 14.9466 37.6509 11.003C38.152 10.5101 38.152 9.68851 37.6509 9.27772Z" stroke="#52BD94" stroke-width="3" stroke-miterlimit="10" stroke-linecap="round" stroke-linejoin="round"/>
<path d="M35.8971 22.5051L43.2465 29.9814C45.0838 28.2561 47.0047 26.5308 48.842 24.7233C49.0926 24.3947 49.3431 23.7374 49.4266 22.9159C49.5101 21.437 48.842 20.369 48.5915 20.0403L43.4135 14.9465C40.908 17.4934 38.4026 20.0403 35.8971 22.5051Z" stroke="#52BD94" stroke-width="3" stroke-miterlimit="10" stroke-linecap="round" stroke-linejoin="round"/>
</svg>
