<svg width="45" height="46" viewBox="0 0 45 46" fill="none" xmlns="http://www.w3.org/2000/svg">
<path d="M14.5438 17.5583L22.4898 22.1488L30.5023 17.5209C31.0886 17.1841 31.808 17.1841 32.3942 17.5209L34.3735 18.6643V9.64141C34.3735 8.96781 34.0117 8.34411 33.4296 8.00315L23.4711 2.2526C22.8848 1.9158 22.1655 1.9158 21.5792 2.2526L11.6208 8.00315C11.0345 8.33995 10.6769 8.96365 10.6769 9.64141V18.7017L12.6561 17.5583C13.2382 17.2215 13.9617 17.2215 14.5438 17.5583Z" stroke="#52BD94" stroke-width="3" stroke-miterlimit="10"/>
<path d="M42.3569 23.2712L34.3777 18.6641V21.1422C34.3777 21.8158 34.0159 22.4395 33.4338 22.7805L25.4504 27.3834V36.4438C25.4504 37.1174 25.0886 37.7411 24.5065 38.082L22.5605 39.2047L30.5065 43.7952C31.0928 44.132 31.8122 44.132 32.3984 43.7952L42.3569 38.0446C42.9432 37.7078 43.3008 37.0841 43.3008 36.4064V24.9094C43.3008 24.2317 42.939 23.608 42.3569 23.2712Z" stroke="#52BD94" stroke-width="3" stroke-miterlimit="10"/>
<path d="M19.6 36.4107V27.3878L11.6208 22.7765C11.0345 22.4397 10.6769 21.816 10.6769 21.1383V18.6975L2.69351 23.3088C2.10722 23.6456 1.74963 24.2693 1.74963 24.947V36.4481C1.74963 37.1217 2.11138 37.7454 2.69351 38.0864L12.652 43.8369C13.2383 44.1737 13.9576 44.1737 14.5439 43.8369L22.5564 39.209L20.5439 38.049C19.9618 37.708 19.6 37.0843 19.6 36.4107Z" stroke="#52BD94" stroke-width="3" stroke-miterlimit="10"/>
<path d="M22.5274 15.292C24.1509 15.292 25.4671 13.9759 25.4671 12.3523C25.4671 10.7288 24.1509 9.4126 22.5274 9.4126C20.9038 9.4126 19.5876 10.7288 19.5876 12.3523C19.5876 13.9759 20.9038 15.292 22.5274 15.292Z" stroke="#52BD94" stroke-width="3" stroke-miterlimit="10"/>
</svg>
