<svg width="36" height="35" viewBox="0 0 36 35" fill="none" xmlns="http://www.w3.org/2000/svg">
<path d="M1.20408 19.1952C1.20408 13.1446 1.20408 7.09388 1.20408 1.04321H28.4667C28.4667 1.04321 33.1403 1.40834 34.0231 6.36363C34.9059 11.3189 29.1418 13.1967 26.1818 14.0313C24.2085 14.6051 15.0171 17.7869 9.20111 19.8733C6.34503 20.8644 4.3198 21.5946 4.3198 21.5946C4.3198 21.5946 1.30794 22.5857 1.20408 25.8197C1.15215 28.1669 1.25601 30.5141 1.20408 32.8614C1.20408 33.1744 1.25601 33.4873 1.46372 33.696C1.87915 34.0611 2.55423 33.9568 2.76194 33.9568C4.94295 33.6438 19.9504 33.6438 22.8064 33.696C25.2471 33.7481 26.9608 33.8525 29.0379 32.8092C30.7516 31.9747 32.2056 30.6185 32.9326 28.845C33.2961 28.0104 34.5424 25.4024 33.7115 22.2206C33.0883 19.8733 31.6863 18.4128 31.0112 17.839" stroke="#52BD94" stroke-width="3" stroke-miterlimit="10" stroke-linecap="round" stroke-linejoin="round"/>
<path d="M11.6418 12.936C13.2478 12.936 14.5498 11.6282 14.5498 10.015C14.5498 8.40178 13.2478 7.09399 11.6418 7.09399C10.0357 7.09399 8.73376 8.40178 8.73376 10.015C8.73376 11.6282 10.0357 12.936 11.6418 12.936Z" stroke="#52BD94" stroke-width="3" stroke-miterlimit="10" stroke-linecap="round" stroke-linejoin="round"/>
<path d="M21.8718 27.4368C23.4778 27.4368 24.7798 26.129 24.7798 24.5157C24.7798 22.9025 23.4778 21.5947 21.8718 21.5947C20.2657 21.5947 18.9637 22.9025 18.9637 24.5157C18.9637 26.129 20.2657 27.4368 21.8718 27.4368Z" stroke="#52BD94" stroke-width="3" stroke-miterlimit="10" stroke-linecap="round" stroke-linejoin="round"/>
</svg>
