<svg width="38" height="37" viewBox="0 0 38 37" fill="none" xmlns="http://www.w3.org/2000/svg">
<g clip-path="url(#clip0_303_1740)">
<path d="M11.3187 6.24452C11.3187 6.24452 11.4957 2.15935 15.9215 1.16724H35.9853V28.2461C35.9853 28.2461 35.1592 35.4827 27.7238 35.7161C20.2293 36.0079 7.95502 35.7161 7.95502 35.7161C7.95502 35.7161 11.2596 34.1404 11.4367 30.7556C11.6137 27.3123 11.3187 6.24452 11.3187 6.24452Z" stroke="#52BD94" stroke-width="3" stroke-miterlimit="10" stroke-linecap="round" stroke-linejoin="round"/>
<path d="M11.3777 11.2051H5.88962C5.88962 11.2051 1.46379 11.4969 1.40478 16.0489C1.34576 20.601 1.34576 31.3975 1.34576 31.3975C1.34576 31.3975 2.23093 35.8912 7.60095 35.8328C7.60095 35.8328 10.3745 34.8991 11.2596 31.806" stroke="#52BD94" stroke-width="3" stroke-miterlimit="10" stroke-linecap="round" stroke-linejoin="round"/>
<path d="M22.9439 8.57886H17.9279V13.5394H22.9439V8.57886Z" stroke="#52BD94" stroke-width="3" stroke-miterlimit="10" stroke-linecap="round" stroke-linejoin="round"/>
<path d="M16.9247 19.8423H30.4972" stroke="#52BD94" stroke-width="3" stroke-miterlimit="10" stroke-linecap="round" stroke-linejoin="round"/>
<path d="M16.9247 26.1453H30.4972" stroke="#52BD94" stroke-width="3" stroke-miterlimit="10" stroke-linecap="round" stroke-linejoin="round"/>
<path d="M1.34576 19.8423H11.4957" stroke="#52BD94" stroke-width="3" stroke-miterlimit="10" stroke-linecap="round" stroke-linejoin="round"/>
</g>
<defs>
<clipPath id="clip0_303_1740">
<rect width="37" height="37" fill="white" transform="translate(0.165527)"/>
</clipPath>
</defs>
</svg>
