<svg width="113" height="113" viewBox="0 0 113 113" fill="none" xmlns="http://www.w3.org/2000/svg">
<circle cx="56.5072" cy="56.1039" r="52.0492" fill="white" stroke="white" stroke-width="8"/>
<circle cx="56.5072" cy="56.1037" r="45.34" fill="#1F70C1"/>
<g clip-path="url(#clip0_1_74)">
<path d="M26.968 65.8828H38.4549V67.4594H26.968V65.8828Z" fill="white"/>
<path d="M26.968 62.8584H38.4549V64.4405H26.968V62.8584Z" fill="white"/>
<path d="M30.2451 59.8398H35.1722V61.422H30.2451V59.8398Z" fill="white"/>
<path d="M30.2451 56.8213H35.1722V58.4035H30.2451V56.8213Z" fill="white"/>
<path d="M30.2451 53.8027H35.1722V55.3849H30.2451V53.8027Z" fill="white"/>
<path d="M30.2451 50.7793H35.1722V52.3615H30.2451V50.7793Z" fill="white"/>
<path d="M38.4549 47.7607H26.968V49.3429H38.4549V47.7607Z" fill="white"/>
<path d="M38.4549 44.7422H26.968V46.3244H38.4549V44.7422Z" fill="white"/>
<path d="M40.0935 64.4406H57.7598C58.0582 63.9525 58.2806 63.4195 58.4152 62.8584H40.0935V64.4406Z" fill="white"/>
<path d="M56.3848 56.8213H43.3765V58.4035H57.76C57.3854 57.7975 56.9231 57.2645 56.3848 56.8213Z" fill="white"/>
<path d="M43.3765 53.8027V55.3849H56.3848C56.9349 54.9417 57.3971 54.4087 57.76 53.8027H43.3765Z" fill="white"/>
<path d="M57.7599 47.7607H40.0935V49.3429H58.4152C58.2631 48.7819 58.0407 48.2489 57.7599 47.7607Z" fill="white"/>
<path d="M52.3294 44.7422H40.0935V46.3244H56.5485C55.4484 45.3481 53.9562 44.7422 52.3294 44.7422Z" fill="white"/>
<path d="M48.2977 50.7793H43.3765V52.3615H48.2977V50.7793Z" fill="white"/>
<path d="M53.2249 52.3615H58.3743C58.5206 51.8566 58.5967 51.3235 58.5967 50.7793H53.2249V52.3615Z" fill="white"/>
<path d="M43.3765 59.8398H48.2977V61.422H43.3765V59.8398Z" fill="white"/>
<path d="M53.2249 59.8398V61.422H58.5967C58.5967 60.8778 58.5206 60.3448 58.3743 59.8398H53.2249Z" fill="white"/>
<path d="M40.0935 67.4482L52.3294 67.465C53.9679 67.465 55.4484 66.8591 56.5543 65.8828H40.0935V67.4482Z" fill="white"/>
<path d="M59.7903 65.8828H67.9943V67.4594H59.7903V65.8828Z" fill="white"/>
<path d="M59.7903 62.8584H67.9943V64.4405H59.7903V62.8584Z" fill="white"/>
<path d="M63.0671 59.8398H67.9943V61.422H63.0671V59.8398Z" fill="white"/>
<path d="M63.0671 56.8213H67.9943V58.4035H63.0671V56.8213Z" fill="white"/>
<path d="M70.2765 47.7607H59.7903V49.3429H70.8441L70.2765 47.7607Z" fill="white"/>
<path d="M69.1881 44.7422H59.7903V46.3244H69.7557L69.1881 44.7422Z" fill="white"/>
<path d="M77.8369 65.8828H86.0469V67.4594H77.8369V65.8828Z" fill="white"/>
<path d="M77.8369 62.8584H86.0469V64.4405H77.8369V62.8584Z" fill="white"/>
<path d="M77.8369 59.8398H82.764V61.422H77.8369V59.8398Z" fill="white"/>
<path d="M77.8369 56.8213H82.764V58.4035H77.8369V56.8213Z" fill="white"/>
<path d="M77.8369 55.3849H82.764V53.8027H77.8369H73.3779L72.9156 55.082L72.4533 53.8027H67.9943H63.0671V55.3849H67.9943V53.9318L68.5151 55.3849H77.3161L77.8369 53.9318V55.3849Z" fill="white"/>
<path d="M82.764 50.7793H74.4663L73.8987 52.3615H82.764V50.7793Z" fill="white"/>
<path d="M76.6489 44.7422L76.0813 46.3244H86.0468V44.7422H76.6489Z" fill="white"/>
<path d="M72.9158 67.4482L73.4833 65.8828H72.3481L72.9158 67.4482Z" fill="white"/>
<path d="M71.8271 64.4405H74.004L74.5891 62.8584H71.2478L71.8271 64.4405Z" fill="white"/>
<path d="M70.7212 61.422H75.11L75.6893 59.8398H70.1418L70.7212 61.422Z" fill="white"/>
<path d="M69.6211 58.4035H76.2159L76.7777 56.8213H69.0535L69.6211 58.4035Z" fill="white"/>
<path d="M63.0671 52.3615H71.9325L71.3649 50.7793H63.0671V52.3615Z" fill="white"/>
<path d="M74.9929 49.3429H86.0468V47.7607H75.5547L74.9929 49.3429Z" fill="white"/>
</g>
<defs>
<clipPath id="clip0_1_74">
<rect width="59.0789" height="22.7226" fill="white" transform="translate(26.968 44.7422)"/>
</clipPath>
</defs>
</svg>
