<svg width="36" height="42" viewBox="0 0 36 42" fill="none" xmlns="http://www.w3.org/2000/svg">
<path d="M2.30958 33.199V10.1247H8.77037C9.01516 10.1247 9.24992 10.0275 9.42301 9.85441C9.5961 9.68132 9.69335 9.44656 9.69335 9.20177V2.74098H27.2298C27.4746 2.74098 27.7093 2.83822 27.8824 3.01131C28.0555 3.1844 28.1528 3.41916 28.1528 3.66395V15.6626H29.9987V3.66395C29.9987 2.92959 29.707 2.2253 29.1877 1.70603C28.6684 1.18676 27.9641 0.895035 27.2298 0.895035H8.77037C8.64891 0.894333 8.52849 0.917615 8.41604 0.963546C8.30359 1.00948 8.20131 1.07715 8.11507 1.1627L0.7313 8.54646C0.645758 8.6327 0.578081 8.73498 0.532149 8.84744C0.486218 8.95989 0.462936 9.0803 0.463638 9.20177V33.199C0.463638 33.9334 0.755362 34.6376 1.27463 35.1569C1.79391 35.6762 2.49819 35.9679 3.23255 35.9679H16.0988V34.122H3.23255C2.98776 34.122 2.753 34.0247 2.57991 33.8516C2.40682 33.6786 2.30958 33.4438 2.30958 33.199ZM3.61097 8.2788L7.8474 4.04236V8.2788H3.61097ZM6.00146 12.8937H16.1541V14.7396H6.00146V12.8937ZM11.5393 8.2788H16.1541V10.1247H11.5393V8.2788ZM6.00146 17.5085H16.1541V19.3544H6.00146V17.5085ZM6.00146 22.1234H16.1541V23.9693H6.00146V22.1234ZM6.00146 26.7382H16.1541V28.5842H6.00146V26.7382ZM32.7676 17.5085H21.692C20.9576 17.5085 20.2533 17.8002 19.734 18.3195C19.2148 18.8388 18.9231 19.5431 18.9231 20.2774V38.7368C18.9231 39.4712 19.2148 40.1755 19.734 40.6947C20.2533 41.214 20.9576 41.5057 21.692 41.5057H32.7676C33.502 41.5057 34.2063 41.214 34.7255 40.6947C35.2448 40.1755 35.5365 39.4712 35.5365 38.7368V20.2774C35.5365 19.5431 35.2448 18.8388 34.7255 18.3195C34.2063 17.8002 33.502 17.5085 32.7676 17.5085ZM33.6906 38.7368C33.6906 38.9816 33.5933 39.2164 33.4202 39.3895C33.2472 39.5626 33.0124 39.6598 32.7676 39.6598H21.692C21.4472 39.6598 21.2124 39.5626 21.0393 39.3895C20.8662 39.2164 20.769 38.9816 20.769 38.7368V20.2774C20.769 20.0326 20.8662 19.7979 21.0393 19.6248C21.2124 19.4517 21.4472 19.3544 21.692 19.3544H32.7676C33.0124 19.3544 33.2472 19.4517 33.4202 19.6248C33.5933 19.7979 33.6906 20.0326 33.6906 20.2774V38.7368ZM30.9217 21.2004H23.5379C23.2931 21.2004 23.0584 21.2976 22.8853 21.4707C22.7122 21.6438 22.6149 21.8786 22.6149 22.1234V25.8152C22.6149 26.06 22.7122 26.2948 22.8853 26.4679C23.0584 26.641 23.2931 26.7382 23.5379 26.7382H30.9217C31.1665 26.7382 31.4012 26.641 31.5743 26.4679C31.7474 26.2948 31.8446 26.06 31.8446 25.8152V22.1234C31.8446 21.8786 31.7474 21.6438 31.5743 21.4707C31.4012 21.2976 31.1665 21.2004 30.9217 21.2004ZM29.9987 24.8923H24.4609V23.0463H29.9987V24.8923ZM22.6149 28.5842H26.3068V30.4301H22.6149V28.5842ZM28.1528 28.5842H31.8446V30.4301H28.1528V28.5842ZM22.6149 32.276H26.3068V34.122H22.6149V32.276ZM28.1528 32.276H31.8446V34.122H28.1528V32.276ZM22.6149 35.9679H26.3068V37.8139H22.6149V35.9679ZM28.1528 35.9679H31.8446V37.8139H28.1528V35.9679ZM20.769 8.2788V9.20177H23.5379C23.7827 9.20177 24.0175 9.29901 24.1905 9.4721C24.3636 9.64519 24.4609 9.87996 24.4609 10.1247V12.8937C24.4609 13.1384 24.3636 13.3732 24.1905 13.5463C24.0175 13.7194 23.7827 13.8166 23.5379 13.8166H22.6149V14.7396H20.769V13.8166H18.9231V11.9707H22.6149V11.0477H19.846C19.6012 11.0477 19.3665 10.9505 19.1934 10.7774C19.0203 10.6043 18.9231 10.3695 18.9231 10.1247V7.35583C18.9231 7.11104 19.0203 6.87628 19.1934 6.70319C19.3665 6.5301 19.6012 6.43286 19.846 6.43286H20.769V5.50989H22.6149V6.43286H24.4609V8.2788H20.769Z" fill="#52BD94"/>
</svg>
