<svg width="30" height="41" viewBox="0 0 30 41" fill="none" xmlns="http://www.w3.org/2000/svg">
<path d="M4.22743 0.339844C3.90229 0.402261 3.6453 0.71818 3.65113 1.04914V9.25033C2.89996 10.0687 2.34323 10.6775 1.92223 11.2009C1.10475 12.2173 0.813965 13.1308 0.813965 14.3484C0.813965 15.9429 2.08287 17.2873 3.65113 17.3629V39.3509C3.65117 39.7223 3.98905 40.0602 4.36042 40.0602H25.6392C26.0106 40.0602 26.3484 39.7223 26.3485 39.3509V17.3629C27.9167 17.2873 29.1856 15.9429 29.1856 14.3484V14.2154C29.1856 13.1096 29.0365 12.2282 28.2547 11.2009C27.8359 10.6508 27.1994 9.99642 26.3485 9.11733V1.04914C26.3484 0.67775 26.0106 0.339844 25.6392 0.339844H4.36042H4.22743ZM5.06972 1.75843H24.9299V7.65442C24.4506 7.1677 24.1188 6.81059 23.5113 6.1915C23.433 6.12888 23.3424 6.08355 23.2453 6.05851V6.01418H6.79862C6.76909 6.01233 6.73948 6.01233 6.70996 6.01418C6.57215 6.05075 6.44856 6.12799 6.35531 6.23583C5.82707 6.84491 5.49964 7.17565 5.06972 7.65442V1.75843ZM12.1626 3.17701V4.5956H17.837V3.17701H12.1626ZM7.19759 7.43276H22.7134C24.5654 9.31741 25.6713 10.4805 26.4371 11.3339H3.69546C4.46511 10.4686 5.54273 9.32525 7.19759 7.43276ZM2.54286 12.7525H27.5454C27.7579 13.1745 27.7671 13.479 27.7671 14.2154V14.3484C27.7671 15.2429 27.0718 15.9443 26.2155 15.9443C25.3591 15.9443 24.7082 15.2429 24.7082 14.3484C24.7082 14.1603 24.6335 13.9799 24.5005 13.8468C24.3675 13.7138 24.1871 13.6391 23.9989 13.6391C23.8108 13.6391 23.6304 13.7138 23.4974 13.8468C23.3644 13.9799 23.2897 14.1603 23.2897 14.3484C23.2897 15.2429 22.5944 15.9443 21.7381 15.9443C20.8817 15.9443 20.1865 15.2429 20.1865 14.3484C20.1865 14.1603 20.1117 13.9799 19.9787 13.8468C19.8457 13.7138 19.6653 13.6391 19.4772 13.6391C19.2891 13.6391 19.1087 13.7138 18.9757 13.8468C18.8427 13.9799 18.7679 14.1603 18.7679 14.3484C18.7679 15.2429 18.117 15.9443 17.2607 15.9443C16.4043 15.9443 15.7091 15.2429 15.7091 14.3484C15.7091 14.1603 15.6343 13.9799 15.5013 13.8468C15.3683 13.7138 15.1879 13.6391 14.9998 13.6391C14.8117 13.6391 14.6313 13.7138 14.4983 13.8468C14.3653 13.9799 14.2905 14.1603 14.2905 14.3484C14.2905 15.2429 13.5953 15.9443 12.7389 15.9443C11.8826 15.9443 11.2317 15.2429 11.2317 14.3484C11.2213 14.3027 11.2065 14.2581 11.1874 14.2154C11.1632 14.0827 11.1017 13.9597 11.01 13.8607C10.9816 13.8439 10.9519 13.8291 10.9214 13.8164C10.8696 13.763 10.8098 13.7182 10.7441 13.6834C10.6871 13.661 10.6275 13.6461 10.5667 13.6391C10.5372 13.6372 10.5076 13.6372 10.4781 13.6391C10.4324 13.6494 10.3878 13.6643 10.3451 13.6834C10.1964 13.7217 10.0641 13.8073 9.96821 13.9272C9.87229 14.0471 9.81786 14.1949 9.81311 14.3484C9.81311 15.2429 9.11788 15.9443 8.26153 15.9443C7.83333 15.9443 7.4767 15.7412 7.19759 15.4566C6.91854 15.1723 6.70996 14.7958 6.70996 14.3484C6.70994 14.1603 6.6352 13.9799 6.50219 13.8468C6.36917 13.7138 6.18877 13.6391 6.00066 13.6391C5.81255 13.6391 5.63215 13.7138 5.49914 13.8468C5.36613 13.9799 5.29139 14.1603 5.29137 14.3484C5.29137 14.7958 5.12712 15.1723 4.84806 15.4566C4.56896 15.7412 4.21233 15.9443 3.78413 15.9443C2.92778 15.9443 2.23255 15.2429 2.23255 14.3484C2.23255 13.6007 2.2693 13.2188 2.54286 12.7525ZM14.9998 16.0329C15.5368 16.7858 16.2755 17.3629 17.2607 17.3629C18.2266 17.3629 18.9379 16.8053 19.4772 16.0773C19.9442 16.7136 20.5926 17.1969 21.3834 17.3185V32.258H8.61618V17.3185C9.40705 17.1969 10.0554 16.7136 10.5224 16.0773C11.0617 16.8053 11.773 17.3629 12.7389 17.3629C13.7241 17.3629 14.4628 16.7858 14.9998 16.0329ZM6.00066 16.0773C6.08596 16.1936 6.07708 16.3734 6.17799 16.4762C6.46602 16.7698 6.81067 17.0313 7.19759 17.1855V32.9673V33.6766H7.90689H22.0927H22.802V32.9673V17.0969C23.2676 16.8665 23.682 16.5092 23.9989 16.0773C24.2686 16.4413 24.5639 16.7778 24.9299 17.0082V38.6416H5.06972V17.0525C5.36254 16.9045 5.63943 16.7089 5.86767 16.4762C5.96545 16.3769 5.91752 16.19 6.00066 16.0773ZM14.7782 34.3859C14.4415 34.4391 14.1353 34.6117 13.9155 34.8722C13.6957 35.1327 13.577 35.4636 13.5812 35.8044C13.5812 35.9907 13.6179 36.1752 13.6892 36.3473C13.7605 36.5194 13.865 36.6758 13.9967 36.8075C14.1284 36.9393 14.2848 37.0438 14.4569 37.115C14.629 37.1863 14.8135 37.223 14.9998 37.223C15.1861 37.223 15.3706 37.1863 15.5427 37.115C15.7148 37.0438 15.8712 36.9393 16.0029 36.8075C16.1346 36.6758 16.2391 36.5194 16.3104 36.3473C16.3817 36.1752 16.4184 35.9907 16.4184 35.8044C16.4184 35.6182 16.3817 35.4337 16.3104 35.2616C16.2391 35.0895 16.1346 34.9331 16.0029 34.8014C15.8712 34.6696 15.7148 34.5651 15.5427 34.4938C15.3706 34.4226 15.1861 34.3859 14.9998 34.3859C14.926 34.3801 14.8519 34.3801 14.7782 34.3859Z" fill="#52BD94"/>
</svg>
