<svg width="142" height="116" viewBox="0 0 142 116" fill="none" xmlns="http://www.w3.org/2000/svg">
<path d="M0.307007 0.958008H141.362V94.9946H0.307007V0.958008Z" fill="#75CFAD"/>
<path d="M5.83826 7.20361H17.1226V10.9651H5.83826V7.20361ZM20.6754 7.20361H31.9597V10.9651H20.6754V7.20361ZM35.5143 7.20361H46.7987V10.9651H35.5143V7.20361ZM50.3533 7.20361H61.6377V10.9651H50.3533V7.20361ZM65.1923 7.20361H76.4767V10.9651H65.1923V7.20361ZM80.0312 7.20361H91.3156V10.9651H80.0312V7.20361ZM94.8702 7.20361H106.155V10.9651H94.8702V7.20361ZM109.709 7.20361H120.994V10.9651H109.709V7.20361ZM124.546 7.20361H135.831V10.9651H124.546V7.20361Z" fill="#52BD94"/>
<path d="M5.83826 81.8296L5.83826 71.0154H9.59972V81.8296H5.83826Z" fill="#52BD94"/>
<path d="M5.83826 67.6055L5.83826 56.7913H9.59972V67.6055H5.83826Z" fill="#52BD94"/>
<path d="M5.83826 53.3833L5.83826 42.5691H9.59972V53.3833H5.83826Z" fill="#52BD94"/>
<path d="M5.83826 39.1614L5.83826 28.3472H9.59972V39.1614H5.83826Z" fill="#52BD94"/>
<path d="M5.83826 24.9392L5.83826 14.125H9.59972V24.9392H5.83826Z" fill="#52BD94"/>
<path d="M132.069 81.8313V71.0152H135.831V81.8294L132.069 81.8313Z" fill="#52BD94"/>
<path d="M132.069 67.6074V56.7913H135.831V67.6055L132.069 67.6074Z" fill="#52BD94"/>
<path d="M132.069 53.3853V42.5692H135.831V53.3834L132.069 53.3853Z" fill="#52BD94"/>
<path d="M132.069 39.1631V28.347H135.831V39.1612L132.069 39.1631Z" fill="#52BD94"/>
<path d="M132.069 24.9409V14.1248H135.831V24.939L132.069 24.9409Z" fill="#52BD94"/>
<path d="M5.83826 84.9871H17.1226V88.7485H5.83826V84.9871ZM20.6754 84.9871H31.9597V88.7485H20.6754V84.9871ZM35.5143 84.9871H46.7987V88.7485H35.5143V84.9871ZM50.3533 84.9871H61.6377V88.7485H50.3533V84.9871ZM65.1923 84.9871H76.4767V88.7485H65.1923V84.9871ZM94.8702 84.9871H106.155V88.7485H94.8702V84.9871ZM124.546 84.9871H135.831V88.7485H124.546V84.9871Z" fill="#52BD94"/>
<path d="M29.084 46.4338V44.1262C26.1933 43.8309 23.5979 42.6818 21.3015 40.6788L23.6111 37.9273C25.3827 39.4657 27.2051 40.3816 29.084 40.6788V34.5419C26.7011 33.9721 24.9558 33.2235 23.848 32.2963C22.7422 31.3673 22.1873 29.9925 22.1873 28.1681C22.1873 26.3438 22.823 24.8524 24.1 23.692C25.3789 22.5316 27.0377 21.8997 29.084 21.7925V20.2126H31.1077V21.8244C33.4266 21.9937 35.6214 22.7836 37.6865 24.1979L35.6308 27.1093C34.2938 26.1405 32.7417 25.5106 31.1077 25.2737V31.2187H31.2017C33.6278 31.7904 35.4089 32.5597 36.5467 33.5282C37.6865 34.4987 38.2563 35.9074 38.2563 37.7524C38.2563 39.5974 37.6018 41.1001 36.2947 42.2586C34.9876 43.4209 33.2592 44.0528 31.1077 44.1581V46.4338H29.084ZM26.8516 26.0166C26.594 26.2334 26.3881 26.505 26.2489 26.8115C26.1096 27.1179 26.0405 27.4516 26.0466 27.7882C26.0466 28.4954 26.2572 29.054 26.6804 29.464C27.0998 29.8759 27.9029 30.2727 29.084 30.6507V25.1778C28.1342 25.2624 27.3913 25.5426 26.8516 26.0166ZM33.5112 39.887C33.7912 39.6711 34.0169 39.393 34.1707 39.0747C34.3245 38.7565 34.402 38.4067 34.3971 38.0533C34.3971 37.316 34.1657 36.7292 33.7012 36.2967C33.2366 35.8641 32.3715 35.4597 31.1077 35.0798V40.7728C32.1195 40.6675 32.9207 40.3722 33.5112 39.887Z" fill="white"/>
<path d="M43.8703 20.2126H125.268V23.9741H43.8703V20.2126ZM43.8703 33.154H82.0116V36.9154H43.8703V33.154ZM43.8703 46.0953H68.8464V49.8567H43.8703V46.0953ZM21.3015 59.0385H63.2042V62.7999H21.3015V59.0385ZM21.3015 71.9779H70.7272V75.7394H21.3015V71.9779Z" fill="#52BD94"/>
<path d="M106.924 115.058L101.152 109.286C100.87 109.004 100.487 108.846 100.088 108.846C99.6895 108.846 99.307 109.004 99.0248 109.286L93.2529 115.058C93.0423 115.268 92.7743 115.411 92.4826 115.469C92.1909 115.527 91.8886 115.497 91.614 115.383C91.3393 115.269 91.1045 115.076 90.9393 114.829C90.7741 114.582 90.6858 114.291 90.6857 113.994V79.3H109.493V113.994C109.493 114.292 109.405 114.583 109.24 114.83C109.074 115.078 108.839 115.271 108.564 115.385C108.289 115.499 107.987 115.529 107.695 115.471C107.403 115.413 107.134 115.269 106.924 115.058Z" fill="#52BD94"/>
<path d="M123.997 68.6304L125.867 65.3918C126.229 64.7649 126.42 64.0536 126.42 63.3296C126.42 62.6056 126.229 61.8943 125.867 61.2674L123.997 58.0288C123.635 57.4021 123.444 56.6912 123.444 55.9675V52.2248C123.444 50.7522 122.658 49.3924 121.383 48.6552L118.143 46.7857C117.516 46.4235 116.996 45.9026 116.634 45.2755L114.763 42.0369C114.401 41.4099 113.881 40.8892 113.254 40.527C112.628 40.1649 111.917 39.974 111.193 39.9737H107.451C106.728 39.9737 106.017 39.7857 105.389 39.4227L102.151 37.5513C101.524 37.1895 100.813 36.999 100.089 36.999C99.3657 36.999 98.6548 37.1895 98.0281 37.5513L94.7876 39.4227C94.1608 39.7841 93.4499 39.9741 92.7263 39.9737H88.9837C87.5129 39.9737 86.1513 40.7599 85.414 42.0369L83.5446 45.2755C83.1816 45.9018 82.6606 46.4228 82.0344 46.7857L78.7957 48.6552C78.1688 49.0171 77.6483 49.5377 77.2865 50.1647C76.9246 50.7916 76.7342 51.5028 76.7345 52.2267V55.9675C76.7345 56.6897 76.5426 57.4006 76.1815 58.0288L74.3102 61.2674C73.948 61.8943 73.7573 62.6056 73.7573 63.3296C73.7573 64.0536 73.948 64.7649 74.3102 65.3918L76.1815 68.6304C76.5426 69.2586 76.7345 69.9695 76.7345 70.6936V74.4325C76.7345 75.907 77.5206 77.2668 78.7957 78.004L82.0344 79.8735C82.6606 80.2364 83.1816 80.7574 83.5446 81.3837L85.414 84.6223C85.7757 85.2495 86.2962 85.7705 86.9232 86.1326C87.5502 86.4948 88.2615 86.6855 88.9855 86.6855H92.7282C93.4504 86.6855 94.1613 86.8735 94.7876 87.2365L98.0281 89.1078C98.6548 89.4697 99.3657 89.6602 100.089 89.6602C100.813 89.6602 101.524 89.4697 102.151 89.1078L105.389 87.2365C106.016 86.8751 106.727 86.6851 107.451 86.6855H111.193C112.666 86.6855 114.027 85.8993 114.763 84.6223L116.634 81.3837C116.995 80.7574 117.516 80.2364 118.143 79.8735L121.383 78.004C122.01 77.6421 122.53 77.1214 122.892 76.4945C123.254 75.8675 123.445 75.1564 123.444 74.4325V70.6917C123.444 69.9676 123.634 69.2567 123.997 68.6304Z" fill="#EBF0F3"/>
<path d="M100.089 80.255C109.438 80.255 117.016 72.6767 117.016 63.3284C117.016 53.9801 109.438 46.4019 100.089 46.4019C90.741 46.4019 83.1627 53.9801 83.1627 63.3284C83.1627 72.6767 90.741 80.255 100.089 80.255Z" fill="#52BD94"/>
</svg>
