<svg width="306" height="266" viewBox="0 0 306 266" fill="none" xmlns="http://www.w3.org/2000/svg">
<path d="M152.835 265.544C236.911 265.544 305.069 261.565 305.069 256.656C305.069 251.747 236.911 247.768 152.835 247.768C68.7578 247.768 0.600098 251.747 0.600098 256.656C0.600098 261.565 68.7578 265.544 152.835 265.544Z" fill="#F5F5F5"/>
<path d="M185.599 151.311L179.6 152.285L181.862 166.182L148.649 186.211L110.805 177.739L108.544 163.842L102.537 164.816L105.568 183.416L151.044 201.852L151.068 202.032L151.201 201.915L151.366 201.985L151.335 201.805L188.622 169.911L185.599 151.311Z" fill="#263238"/>
<path opacity="0.2" d="M185.599 151.311L179.6 152.285L181.862 166.182L148.649 186.211L110.805 177.739L108.544 163.842L102.537 164.816L105.568 183.416L151.044 201.852L151.068 202.032L151.201 201.915L151.366 201.985L151.335 201.805L188.622 169.911L185.599 151.311Z" fill="white"/>
<path d="M191.692 155.386L173.798 155.409L163.442 149.733L202.032 149.678L191.692 155.386Z" fill="#263238"/>
<path d="M205.259 150.605L160.223 150.667C159.879 150.667 159.55 150.531 159.307 150.288C159.064 150.045 158.927 149.715 158.927 149.372C158.935 149.036 159.075 148.716 159.315 148.482C159.556 148.247 159.879 148.115 160.215 148.116L205.252 148.053C205.595 148.055 205.924 148.192 206.168 148.434C206.412 148.676 206.551 149.005 206.555 149.348C206.545 149.685 206.404 150.004 206.162 150.239C205.92 150.474 205.596 150.605 205.259 150.605Z" fill="#263238"/>
<path d="M96.4363 167.996L114.338 167.964L124.671 162.256L86.0801 162.319L96.4363 167.996Z" fill="#263238"/>
<path d="M82.861 163.253L127.898 163.183C128.241 163.181 128.569 163.044 128.811 162.801C129.054 162.559 129.191 162.23 129.193 161.887C129.193 161.544 129.057 161.214 128.814 160.971C128.571 160.728 128.241 160.592 127.898 160.592L82.8531 160.67C82.6834 160.67 82.5153 160.704 82.3585 160.769C82.2018 160.834 82.0595 160.93 81.9398 161.05C81.8201 161.171 81.7255 161.314 81.6612 161.471C81.597 161.628 81.5644 161.796 81.5655 161.966C81.5655 162.136 81.599 162.304 81.6642 162.46C81.7294 162.617 81.825 162.759 81.9454 162.879C82.0658 162.999 82.2087 163.093 82.3658 163.158C82.5229 163.222 82.6912 163.255 82.861 163.253Z" fill="#263238"/>
<path d="M159.736 242.829H139.439V191.974C139.442 189.283 140.512 186.703 142.416 184.801C144.319 182.899 146.9 181.83 149.592 181.83C152.282 181.83 154.862 182.899 156.765 184.801C158.667 186.704 159.736 189.284 159.736 191.974V242.829Z" fill="#263238"/>
<path opacity="0.3" d="M159.736 242.829H139.439V191.974C139.442 189.283 140.512 186.703 142.416 184.801C144.319 182.899 146.9 181.83 149.592 181.83C152.282 181.83 154.862 182.899 156.765 184.801C158.667 186.704 159.736 189.284 159.736 191.974V242.829Z" fill="white"/>
<path d="M170.5 252.636H128.675L135.883 239.1H163.293L170.5 252.636Z" fill="#263238"/>
<path opacity="0.2" d="M170.5 252.636H128.675L135.883 239.1H163.293L170.5 252.636Z" fill="white"/>
<path d="M123.972 251.058H175.211C176.211 251.058 177.169 251.455 177.876 252.161C178.583 252.868 178.98 253.827 178.98 254.826V258.579H120.203V254.826C120.203 253.827 120.6 252.868 121.307 252.161C122.014 251.455 122.972 251.058 123.972 251.058Z" fill="#263238"/>
<path d="M149.592 196.693C151.608 196.693 153.243 195.058 153.243 193.042C153.243 191.026 151.608 189.391 149.592 189.391C147.575 189.391 145.941 191.026 145.941 193.042C145.941 195.058 147.575 196.693 149.592 196.693Z" fill="#263238"/>
<path d="M211.792 0.35645H234.35C236.191 0.35645 237.956 1.08771 239.258 2.38937C240.559 3.69102 241.291 5.45644 241.291 7.29726V26.9262C241.292 27.8384 241.113 28.7418 240.765 29.5848C240.416 30.4278 239.905 31.1939 239.26 31.8392C238.616 32.4845 237.85 32.9965 237.008 33.3458C236.165 33.6951 235.262 33.8749 234.35 33.8749H225.423L223.067 40.0698L220.712 33.8749H211.792C209.949 33.8749 208.182 33.1428 206.879 31.8397C205.576 30.5366 204.844 28.7691 204.844 26.9262V7.29726C204.844 6.38512 205.023 5.48192 205.373 4.63931C205.722 3.7967 206.234 3.0312 206.879 2.38659C207.525 1.74197 208.291 1.23088 209.134 0.882535C209.977 0.534189 210.88 0.355418 211.792 0.35645Z" fill="#21A6DF"/>
<path opacity="0.7" d="M211.792 0.35645H234.35C236.191 0.35645 237.956 1.08771 239.258 2.38937C240.559 3.69102 241.291 5.45644 241.291 7.29726V26.9262C241.292 27.8384 241.113 28.7418 240.765 29.5848C240.416 30.4278 239.905 31.1939 239.26 31.8392C238.616 32.4845 237.85 32.9965 237.008 33.3458C236.165 33.6951 235.262 33.8749 234.35 33.8749H225.423L223.067 40.0698L220.712 33.8749H211.792C209.949 33.8749 208.182 33.1428 206.879 31.8397C205.576 30.5366 204.844 28.7691 204.844 26.9262V7.29726C204.844 6.38512 205.023 5.48192 205.373 4.63931C205.722 3.7967 206.234 3.0312 206.879 2.38659C207.525 1.74197 208.291 1.23088 209.134 0.882535C209.977 0.534189 210.88 0.355418 211.792 0.35645Z" fill="white"/>
<path d="M223.067 13.1387C218.537 8.4277 213.457 10.367 213.457 14.9524C213.457 19.5377 223.067 25.8896 223.067 25.8896C223.067 25.8896 232.677 19.5456 232.677 14.9524C232.677 10.3592 227.597 8.4277 223.067 13.1387Z" fill="#21A6DF"/>
<path d="M73.0624 22.1133H50.5048C49.5927 22.1123 48.6893 22.291 47.8463 22.6394C47.0033 22.9877 46.2372 23.4988 45.5918 24.1434C44.9465 24.788 44.4345 25.5535 44.0852 26.3962C43.7359 27.2388 43.5562 28.142 43.5562 29.0541V48.6831C43.5562 50.526 44.2882 52.2934 45.5914 53.5965C46.8945 54.8996 48.6619 55.6317 50.5048 55.6317H59.4007L61.7561 61.8266L64.1116 55.6317H73.0624C73.9746 55.6317 74.8778 55.4519 75.7204 55.1026C76.563 54.7533 77.3285 54.2414 77.9731 53.596C78.6177 52.9507 79.1288 52.1846 79.4771 51.3416C79.8255 50.4986 80.0043 49.5952 80.0032 48.6831V29.0541C80.0032 28.1426 79.8237 27.2401 79.4749 26.398C79.1261 25.5559 78.6148 24.7907 77.9703 24.1462C77.3258 23.5017 76.5607 22.9904 75.7186 22.6416C74.8765 22.2928 73.9739 22.1133 73.0624 22.1133Z" fill="#21A6DF"/>
<path opacity="0.7" d="M73.0624 22.1133H50.5048C49.5927 22.1123 48.6893 22.291 47.8463 22.6394C47.0033 22.9877 46.2372 23.4988 45.5918 24.1434C44.9465 24.788 44.4345 25.5535 44.0852 26.3962C43.7359 27.2388 43.5562 28.142 43.5562 29.0541V48.6831C43.5562 50.526 44.2882 52.2934 45.5914 53.5965C46.8945 54.8996 48.6619 55.6317 50.5048 55.6317H59.4007L61.7561 61.8266L64.1116 55.6317H73.0624C73.9746 55.6317 74.8778 55.4519 75.7204 55.1026C76.563 54.7533 77.3285 54.2414 77.9731 53.596C78.6177 52.9507 79.1288 52.1846 79.4771 51.3416C79.8255 50.4986 80.0043 49.5952 80.0032 48.6831V29.0541C80.0032 28.1426 79.8237 27.2401 79.4749 26.398C79.1261 25.5559 78.6148 24.7907 77.9703 24.1462C77.3258 23.5017 76.5607 22.9904 75.7186 22.6416C74.8765 22.2928 73.9739 22.1133 73.0624 22.1133Z" fill="white"/>
<path d="M60.6097 43.7836C60.4605 43.784 60.313 43.7519 60.1774 43.6895C60.0418 43.6272 59.9214 43.536 59.8246 43.4225L55.4277 38.2483C55.2507 38.04 55.1637 37.77 55.1857 37.4976C55.2078 37.2252 55.3372 36.9727 55.5455 36.7957C55.7537 36.6187 56.0237 36.5317 56.2961 36.5538C56.5685 36.5759 56.821 36.7053 56.998 36.9135L60.6097 41.1691L66.5691 34.1498C66.6545 34.0412 66.7609 33.951 66.8819 33.8845C67.0029 33.818 67.1361 33.7765 67.2734 33.7626C67.4108 33.7486 67.5496 33.7625 67.6815 33.8033C67.8134 33.8442 67.9357 33.9111 68.0412 34.0003C68.1467 34.0894 68.2331 34.1988 68.2954 34.3221C68.3576 34.4453 68.3945 34.5798 68.4036 34.7176C68.4128 34.8554 68.3941 34.9936 68.3487 35.124C68.3033 35.2544 68.2322 35.3744 68.1394 35.4767L61.4028 43.4225C61.3044 43.5362 61.1826 43.6274 61.0457 43.6897C60.9089 43.7521 60.7601 43.7841 60.6097 43.7836Z" fill="white"/>
<path d="M69.6925 46.7051C74.0649 42.3327 74.0649 35.2435 69.6925 30.8711C65.32 26.4986 58.2309 26.4986 53.8584 30.8711C49.486 35.2435 49.486 42.3327 53.8584 46.7051C58.2309 51.0776 65.32 51.0776 69.6925 46.7051Z" fill="#21A6DF"/>
<path d="M194.935 104.633L195.233 101.006L190.852 97.5825C190.531 97.332 190.136 97.1965 189.729 97.1978H186.808C186.381 97.1996 185.968 97.3504 185.64 97.6241C185.311 97.8978 185.089 98.2774 185.01 98.6974L184.429 101.94C184.348 102.387 184.437 102.848 184.678 103.233C184.919 103.618 185.295 103.899 185.733 104.021L188.473 104.806C188.553 104.829 188.632 104.858 188.708 104.892C189.384 105.151 193.561 106.887 194.935 104.633Z" fill="#E4897B"/>
<path d="M202.158 104.853L193.686 99.938L192.352 104.814L200.172 109.69L202.158 104.853Z" fill="#E4897B"/>
<path d="M219.495 87.6581C220.735 91.0265 219.063 116.269 213.669 119.551C210.033 121.773 195.218 107.483 195.218 107.483L195.751 100.974L208.259 108.402C209.044 94.5989 208.259 85.287 212.601 83.1592L219.495 87.6581Z" fill="#263238"/>
<path opacity="0.3" d="M219.055 103.754C218.207 110.153 216.699 116.521 214.43 118.9C214.199 119.144 213.934 119.355 213.645 119.528C213.321 119.677 212.971 119.758 212.614 119.768C212.258 119.777 211.904 119.714 211.572 119.583C206.225 118.083 195.233 107.46 195.233 107.46L195.767 100.951L208.275 108.379C209.06 94.5755 208.275 85.2635 212.617 83.1357L219.495 87.6583C220.123 89.3306 220.005 96.562 219.055 103.754Z" fill="white"/>
<path opacity="0.2" d="M219.055 103.754C218.207 110.153 216.699 116.52 214.43 118.9C212.618 110.633 212.506 102.085 214.1 93.7744L219.055 103.754Z" fill="black"/>
<path d="M261.297 146.867C261.297 146.867 241.668 138.23 219.683 146.412C219.683 146.412 213.975 99.8597 214.116 93.4292C214.258 86.9988 248.334 87.3285 248.334 87.3285C248.334 87.3285 250.053 105.984 252.754 117.165C255.455 128.345 262.325 144.645 261.297 146.867Z" fill="#263238"/>
<path d="M210.041 251.623L216.864 251.442C216.987 251.44 217.107 251.479 217.206 251.553C217.304 251.627 217.374 251.731 217.406 251.85L218.843 257.346C218.877 257.479 218.881 257.618 218.854 257.752C218.827 257.887 218.77 258.013 218.687 258.122C218.603 258.231 218.496 258.32 218.374 258.381C218.251 258.443 218.116 258.475 217.979 258.477C215.522 258.477 211.957 258.477 208.863 258.54C205.252 258.634 202.951 258.453 198.704 258.54C196.144 258.611 195.335 256.043 196.403 255.784C201.247 254.59 204.419 254.826 208.549 252.117C208.992 251.819 209.508 251.648 210.041 251.623Z" fill="#263238"/>
<path d="M244.753 251.623L251.576 251.442C251.699 251.44 251.819 251.479 251.918 251.553C252.016 251.627 252.086 251.731 252.118 251.85L253.555 257.346C253.591 257.479 253.596 257.617 253.57 257.752C253.544 257.886 253.488 258.013 253.405 258.122C253.322 258.231 253.216 258.32 253.093 258.382C252.971 258.443 252.836 258.476 252.699 258.477C250.234 258.477 246.669 258.477 243.575 258.54C239.964 258.634 237.663 258.453 233.423 258.54C230.856 258.611 230.047 256.043 231.115 255.784C235.967 254.59 239.131 254.826 243.261 252.117C243.705 251.821 244.22 251.65 244.753 251.623Z" fill="#263238"/>
<path d="M255.69 126.602C258.972 140.829 253.335 252.73 253.335 252.73H242.429L237.773 159.477L220.633 252.73L209.005 251.882C216.605 179.647 223.334 136.519 223.334 136.519V131.023L255.69 126.602Z" fill="#263238"/>
<path opacity="0.2" d="M209.005 251.882L220.641 252.73L234.122 179.318L237.773 159.477L242.429 252.73H253.335C253.335 252.73 258.972 140.829 255.69 126.61L223.342 131.062V136.558C223.342 136.558 216.613 179.64 209.005 251.882Z" fill="white"/>
<path d="M251.074 109.846C251.262 110.749 251.45 111.629 251.639 112.477L251.945 113.819C252.165 114.754 252.377 115.672 252.589 116.544C252.699 116.984 252.801 117.423 252.911 117.847C254.159 122.974 255.196 126.696 255.439 128.345L223.334 134.265C221.858 130.669 220.594 127.199 219.51 123.964C219.377 123.571 219.243 123.179 219.125 122.786C218.851 121.962 218.599 121.153 218.34 120.352C218.215 119.944 218.097 119.567 217.971 119.127C217.736 118.342 217.508 117.557 217.296 116.772C217.178 116.34 217.061 115.916 216.958 115.492C211.392 94.5359 213.614 82.5151 213.614 82.5151C215.985 81.4126 218.42 80.4556 220.908 79.6493C221.426 79.4687 221.968 79.3195 222.478 79.1546C226.978 78.0563 231.536 77.2174 236.132 76.6421C237.004 76.5243 237.883 76.4301 238.754 76.3516H238.88C239.921 76.2617 240.97 76.3824 241.963 76.7065C242.957 77.0306 243.874 77.5515 244.662 78.2381C245.45 78.9247 246.091 79.763 246.548 80.7028C247.005 81.6427 247.267 82.6649 247.321 83.7086C247.564 88.0505 248.019 92.3453 248.592 96.3732C249.197 100.692 249.943 104.79 250.728 108.52C250.791 108.865 250.862 109.203 250.932 109.532L251.074 109.846Z" fill="#21A6DF"/>
<path d="M230.738 61.4341C230.801 66.0744 231.602 74.3813 235.119 76.4777C235.119 76.4777 227.817 82.7119 225.697 82.759C224.205 82.759 222.133 80.2229 222.133 80.2229C226.561 77.7104 225.705 74.0987 224.213 70.9109L230.738 61.4341Z" fill="#E4897B"/>
<path opacity="0.2" d="M228.076 65.2969L224.206 70.9029C224.57 71.6606 224.867 72.4487 225.093 73.2584C226.82 72.4732 228.854 69.7095 228.65 67.6838C228.603 66.8602 228.409 66.0518 228.076 65.2969Z" fill="black"/>
<path d="M225.658 82.7664C225.658 82.7664 227.534 84.3367 229.678 85.8206C232.081 84.054 237.639 79.4844 236.792 76.2495C236.273 75.3545 233.651 75.166 233.651 75.166C233.651 75.166 231.539 79.1546 225.658 82.7664Z" fill="#21A6DF"/>
<path d="M225.658 82.7668C224.533 84.0209 223.594 85.4303 222.871 86.9517C220.727 86.0174 220.696 79.7518 221.3 78.9588C222.222 78.22 223.316 77.7282 224.48 77.5298C224.234 78.4325 224.213 79.3818 224.418 80.2947C224.624 81.2076 225.049 82.0563 225.658 82.7668Z" fill="#21A6DF"/>
<g opacity="0.5">
<path opacity="0.5" d="M225.658 82.7668C225.658 82.7668 227.535 84.3372 229.678 85.8211C232.081 84.0545 237.64 79.4849 236.792 76.25C236.274 75.3549 233.651 75.1665 233.651 75.1665C233.651 75.1665 231.539 79.1551 225.658 82.7668Z" fill="white"/>
<path opacity="0.5" d="M225.658 82.7673C224.533 84.0214 223.594 85.4308 222.871 86.9522C220.727 86.0178 220.696 79.7523 221.3 78.9593C222.222 78.2204 223.316 77.7286 224.48 77.5303C224.234 78.433 224.213 79.3823 224.418 80.2952C224.624 81.208 225.049 82.0568 225.658 82.7673Z" fill="white"/>
</g>
<path d="M263.118 148.037C262.686 149.183 260.291 149.537 260.291 149.537C261.194 142.981 258.949 137.759 257.151 134.32C252.668 125.904 240.089 116.419 235.339 104.21C235.127 103.684 234.939 103.157 234.766 102.639C229.647 86.9361 236.054 75.5513 236.054 75.5513C236.917 75.6612 237.757 75.779 238.55 75.9124C239.155 76.0067 239.736 76.1166 240.293 76.2186C243.304 76.7443 246.262 77.5325 249.134 78.5741C249.134 78.5741 251.325 105.497 253.555 117.644C255.785 129.79 263.542 146.899 263.118 148.037Z" fill="#263238"/>
<path opacity="0.3" d="M263.118 148.037C262.686 149.183 260.291 149.537 260.291 149.537C261.194 142.981 258.949 137.759 257.151 134.32C254.199 128.785 247.729 122.779 242.327 115.846C239.546 112.447 237.255 108.676 235.52 104.641C235.449 104.5 235.394 104.351 235.339 104.21C235.127 103.684 234.939 103.157 234.766 102.639C229.647 86.9361 236.054 75.5513 236.054 75.5513C236.917 75.6612 237.757 75.779 238.55 75.9124C239.155 76.0067 239.736 76.1166 240.293 76.2186C243.304 76.7443 246.262 77.5325 249.134 78.5741C249.134 78.5741 249.66 84.981 250.446 92.9582C250.744 95.9183 251.074 99.0982 251.435 102.247C252.087 107.986 252.817 113.624 253.555 117.644C255.769 129.767 263.542 146.899 263.118 148.037Z" fill="white"/>
<path opacity="0.2" d="M237.239 88.6791C237.239 88.6791 234.994 97.0097 235.308 104.21C235.096 103.684 234.907 103.157 234.734 102.639C229.615 86.9361 236.022 75.5513 236.022 75.5513C236.886 75.6612 237.726 75.779 238.519 75.9124L239.241 84.7533L234.31 85.8368L237.239 88.6791Z" fill="black"/>
<path d="M219.573 148.068L220.767 148.854C219.045 135.024 218.08 121.112 217.877 107.177C217.877 106.023 217.877 104.916 217.877 103.856C217.83 83.6539 220.79 79.838 221.018 79.6104L218.003 80.741L212.781 82.806C212.028 100.087 219.573 148.068 219.573 148.068Z" fill="#263238"/>
<path opacity="0.3" d="M219.573 148.068L220.767 148.854C219.045 135.024 218.08 121.112 217.877 107.177C217.877 106.023 217.877 104.916 217.877 103.856C217.83 83.6539 220.79 79.838 221.018 79.6104L218.003 80.741L212.781 82.806C212.028 100.087 219.573 148.068 219.573 148.068Z" fill="white"/>
<path opacity="0.2" d="M218.089 86.8181L214.862 89.0715C214.862 89.0715 216.173 98.8939 217.83 103.856C217.783 83.6539 220.743 79.838 220.971 79.6104L218.003 80.741C216.466 82.3054 215.2 84.1152 214.258 86.0958L218.089 86.8181Z" fill="black"/>
<path opacity="0.1" d="M248.459 90.328C248.763 92.6302 249.523 94.8486 250.697 96.8526C250.453 94.4972 250.218 92.1888 249.998 89.9668C249.465 89.977 248.941 90.1001 248.459 90.328Z" fill="black"/>
<path opacity="0.2" d="M234.122 179.318L237.773 159.477L237.066 148.979C237.066 148.979 232.065 167.187 234.122 179.318Z" fill="black"/>
<path d="M215.396 53.0326C214.312 55.0976 215.011 57.7436 215.317 59.4552C215.624 61.1669 215.836 63.4596 217.492 60.6251C219.149 57.7907 219.251 47.6543 215.396 53.0326Z" fill="#263238"/>
<path d="M230.785 57.8692C231.319 63.7186 232.293 64.5116 229.812 67.9114C226.082 73.0227 219.016 74.9778 217.068 69.3011C215.318 64.1583 213.292 54.6736 218.639 51.5486C219.819 50.8575 221.156 50.4771 222.523 50.4429C223.891 50.4088 225.245 50.7222 226.458 51.3536C227.671 51.985 228.705 52.9139 229.462 54.0534C230.218 55.193 230.674 56.5058 230.785 57.8692Z" fill="#FF8B7B"/>
<path d="M230.801 61.8813C227.786 62.4467 227.935 61.159 228.053 60.8371C228.555 59.4395 227.268 57.8299 225.839 55.7021C224.41 53.5744 228.477 49.8213 232.12 50.0726C235.449 50.3081 235.842 60.9627 230.801 61.8813Z" fill="#263238"/>
<path d="M218.521 66.4121C218.521 66.4121 220.712 66.5377 224.543 64.3628C224.331 65.7604 223.601 67.0559 221.285 67.6762C218.969 68.2964 218.521 66.4121 218.521 66.4121Z" fill="white"/>
<path d="M234.028 61.3319C233.725 62.6554 232.927 63.8128 231.798 64.5667C230.353 65.4775 229.262 64.0956 229.356 62.3055C229.435 60.6881 230.291 58.2698 231.884 58.097C233.478 57.9243 234.436 59.6359 234.028 61.3319Z" fill="#FF8B7B"/>
<path d="M218.788 60.4761C218.54 61.7079 218.122 62.8996 217.547 64.0171C217.839 64.1582 218.158 64.2347 218.481 64.2414C218.805 64.2482 219.127 64.1851 219.424 64.0564L218.788 60.4761Z" fill="#FF5652"/>
<path d="M231.649 47.615C230.031 45.9583 219.589 46.61 215.891 48.8791C213.975 50.049 214.132 51.9256 214.909 52.8677C217.657 56.1968 220.405 53.4409 220.405 53.4409C220.839 52.9981 221.357 52.6453 221.927 52.4028C222.498 52.1603 223.111 52.0329 223.731 52.0278C224.351 52.0227 224.966 52.14 225.54 52.3731C226.115 52.6061 226.638 52.9504 227.079 53.386L232.638 50.6536C232.744 50.1048 232.708 49.5382 232.535 49.0068C232.362 48.4754 232.057 47.9966 231.649 47.615Z" fill="#263238"/>
<path d="M223.648 59.1566C223.727 59.6434 223.538 60.0753 223.216 60.1224C222.894 60.1695 222.572 59.824 222.494 59.3372C222.415 58.8504 222.604 58.4186 222.918 58.3715C223.232 58.3244 223.562 58.6698 223.648 59.1566Z" fill="#263238"/>
<path d="M218.144 60.0207C218.23 60.5075 218.034 60.9393 217.72 60.9943C217.406 61.0492 217.076 60.6881 216.998 60.2091C216.919 59.7302 217.108 59.2905 217.422 59.2355C217.736 59.1806 218.066 59.5417 218.144 60.0207Z" fill="#263238"/>
<path d="M225.069 57.1157C225.02 57.1316 224.967 57.1341 224.916 57.1231C224.865 57.1121 224.817 57.0879 224.779 57.0529C224.522 56.7959 224.208 56.602 223.864 56.4862C223.519 56.3704 223.152 56.3359 222.792 56.3855C222.753 56.4019 222.711 56.4097 222.669 56.4082C222.627 56.4067 222.586 56.3961 222.548 56.3771C222.511 56.3581 222.478 56.331 222.451 56.298C222.425 56.2649 222.407 56.2265 222.397 56.1855C222.387 56.1445 222.386 56.1019 222.395 56.0605C222.403 56.0192 222.42 55.9802 222.445 55.9461C222.47 55.9121 222.502 55.884 222.539 55.8636C222.576 55.8432 222.617 55.8311 222.659 55.8281C223.111 55.7487 223.576 55.7785 224.014 55.9151C224.453 56.0516 224.852 56.291 225.179 56.6132C225.219 56.6457 225.248 56.6885 225.264 56.7368C225.281 56.785 225.283 56.8369 225.272 56.8867C225.261 56.9364 225.236 56.9819 225.2 57.0182C225.164 57.0545 225.119 57.0801 225.069 57.0922V57.1157Z" fill="#263238"/>
<path d="M215.459 58.5132C215.405 58.5291 215.348 58.5291 215.294 58.5132C215.257 58.5024 215.223 58.4845 215.194 58.4605C215.164 58.4365 215.139 58.4068 215.121 58.3733C215.103 58.3397 215.091 58.3029 215.087 58.265C215.083 58.227 215.087 58.1886 215.098 58.152C215.218 57.7115 215.443 57.3066 215.753 56.9717C216.063 56.6368 216.45 56.3818 216.88 56.2284C216.917 56.2164 216.955 56.212 216.994 56.2155C217.032 56.219 217.069 56.2303 217.103 56.2487C217.137 56.267 217.166 56.2921 217.19 56.3224C217.214 56.3527 217.231 56.3875 217.241 56.4247C217.252 56.4602 217.256 56.4976 217.252 56.5346C217.249 56.5717 217.238 56.6076 217.22 56.6405C217.203 56.6733 217.179 56.7023 217.15 56.7259C217.121 56.7495 217.088 56.7672 217.053 56.778C216.708 56.904 216.4 57.1134 216.156 57.3874C215.913 57.6614 215.74 57.9915 215.655 58.3483C215.638 58.3897 215.612 58.4263 215.577 58.455C215.543 58.4838 215.503 58.5037 215.459 58.5132Z" fill="#263238"/>
<path d="M200.235 109.596L164.981 105.387L157.224 132.734L163.505 142.957L201.915 146.168L208.259 116.482L200.235 109.596Z" fill="#263238"/>
<path opacity="0.5" d="M157.224 132.726L159.665 136.715L160.215 137.602L163.505 142.957L201.915 146.168L208.251 116.482L204.828 113.545L203.776 112.634L200.235 109.596L164.981 105.387L157.224 132.726Z" fill="white"/>
<path opacity="0.4" d="M208.251 116.482L173.382 112.752L164.981 105.387L200.235 109.596L208.251 116.482Z" fill="white"/>
<path opacity="0.2" d="M173.382 112.752L163.505 142.957L157.224 132.726L164.981 105.387L173.382 112.752Z" fill="white"/>
<path d="M159.666 136.715L160.215 137.602L169.347 109.305L204.828 113.545L203.776 112.634L168.703 108.724L159.666 136.715Z" fill="#263238"/>
<path d="M192.901 111.543L191.056 109.996L182.16 108.811L183.785 110.522L192.901 111.543Z" fill="#263238"/>
<path d="M196.332 112.037C196.332 112.037 196.332 102.773 196.011 102.168C195.689 101.563 183.244 100.134 182.31 100.001C181.375 99.8675 177.708 109.046 177.708 109.046L178.494 110.098L180.849 110.302C180.849 110.302 183.448 102.396 183.746 102.199C184.045 102.003 193.663 103.173 193.953 103.369C194.244 103.566 193.537 110.656 193.537 110.656L194.401 111.778L196.332 112.037Z" fill="#263238"/>
<path d="M159.398 128.486L162.099 131.737L162.319 131.054L164.047 125.707L164.259 125.063L164.628 123.917C164.628 123.917 163.913 124.796 162.94 125.801C161.953 126.926 160.748 127.839 159.398 128.486Z" fill="#21A6DF"/>
<path opacity="0.2" d="M160.254 128.73L162.319 131.085L164.047 125.738L164.259 125.094C163.395 126.256 161.825 128.141 160.254 128.73Z" fill="white"/>
<path opacity="0.2" d="M162.94 125.833C163.317 125.786 163.725 125.754 164.047 125.738L164.628 123.948C164.628 123.948 163.913 124.828 162.94 125.833Z" fill="black"/>
<path d="M158.127 121.969L157.867 126.735C159.784 125.754 161.948 125.363 164.086 125.612L164.298 124.945L165.633 120.799L165.774 120.368C165.774 120.368 161.471 120.069 158.127 121.969Z" fill="#21A6DF"/>
<path d="M162.712 113.702C163.713 115.444 164.998 117.007 166.512 118.327L166.661 117.824L167.07 116.505L167.753 114.307L168.082 113.239L168.177 112.933C167.501 112.006 166.91 111.02 166.41 109.988L162.712 113.702Z" fill="#21A6DF"/>
<path d="M170.446 107.224C170.954 107.949 171.359 108.742 171.647 109.58L172.205 109.65L172.99 109.737L174.207 109.894L175.384 110.035L175.801 110.082C175.689 108.265 174.928 106.549 173.657 105.246L170.446 107.224Z" fill="#21A6DF"/>
<path opacity="0.2" d="M171.176 107.287C171.602 108.033 171.947 108.823 172.204 109.642L172.99 109.729C172.919 109.633 172.871 109.523 172.849 109.406C172.827 109.289 172.832 109.168 172.864 109.054C172.945 108.875 173.087 108.731 173.265 108.647C173.443 108.564 173.644 108.547 173.834 108.599C174.023 108.651 174.187 108.769 174.297 108.931C174.408 109.094 174.456 109.29 174.434 109.485C174.394 109.642 174.306 109.781 174.183 109.886L175.361 110.027C175.219 109.022 174.803 106.965 173.625 105.842L171.176 107.287Z" fill="white"/>
<path opacity="0.2" d="M158.456 122.143L158.338 126.006C158.338 126.006 161.628 124.686 164.298 124.946L165.632 120.8C163.164 120.611 160.689 121.074 158.456 122.143ZM162.641 121.624C162.844 121.649 163.037 121.731 163.196 121.86C163.355 121.989 163.474 122.16 163.541 122.354C163.607 122.548 163.617 122.756 163.571 122.956C163.524 123.155 163.423 123.337 163.277 123.482C163.132 123.626 162.949 123.727 162.749 123.772C162.55 123.817 162.341 123.805 162.148 123.738C161.954 123.67 161.784 123.549 161.656 123.39C161.528 123.23 161.448 123.037 161.424 122.833C161.353 122.252 161.903 121.711 162.641 121.624Z" fill="white"/>
<path opacity="0.2" d="M163.395 113.89C164.329 115.32 165.425 116.637 166.661 117.816L167.07 116.497C166.803 116.39 166.586 116.187 166.461 115.929C166.335 115.671 166.309 115.376 166.388 115.1C166.467 114.824 166.645 114.587 166.888 114.435C167.132 114.282 167.423 114.226 167.706 114.275C167.706 114.275 167.745 114.275 167.753 114.275L168.082 113.207C167.387 112.501 166.807 111.69 166.363 110.805L163.395 113.89Z" fill="white"/>
<path opacity="0.2" d="M251.403 102.223C249.205 107.381 245.782 114 242.296 115.845C239.515 112.447 237.223 108.675 235.488 104.641C237.059 100.55 240.411 92.4397 242.869 90.7438C244.722 89.4718 247.941 91.1756 250.414 92.9344C250.713 95.8944 251.042 99.0743 251.403 102.223Z" fill="black"/>
<path d="M208.714 112.516L202.535 112.846L206.218 119.747C206.218 119.747 211.407 118.303 210.929 115.46L208.714 112.516Z" fill="#E4897B"/>
<path d="M198.711 116.167L202.017 121.742L206.225 119.748L202.535 112.846L198.711 116.167Z" fill="#E4897B"/>
<path d="M218.16 111.26L208.22 112.626L209.044 117.392L218.136 116.325L218.16 111.26Z" fill="#E4897B"/>
<path d="M249.103 78.5503C256.224 82.7587 246.802 113.937 241.314 115.696C235.826 117.455 216.833 116.874 216.833 116.874L215.828 110.836L237.239 107.931C239.024 102.498 240.337 96.9207 241.165 91.262C241.52 88.7042 242.41 86.25 243.778 84.0596C245.146 81.8692 246.96 79.9919 249.103 78.5503Z" fill="#263238"/>
<path opacity="0.3" d="M249.103 78.5503C256.224 82.7587 246.802 113.937 241.314 115.696C235.826 117.455 216.833 116.874 216.833 116.874L215.828 110.836L237.239 107.931C239.024 102.498 240.337 96.9207 241.165 91.262C241.52 88.7042 242.41 86.25 243.778 84.0596C245.146 81.8692 246.96 79.9919 249.103 78.5503Z" fill="white"/>
<path d="M75.7006 106.361C78.0561 110.546 80.1525 115.21 83.3245 118.822C85.4915 120.949 87.8784 122.928 90.2889 125.024C92.448 126.885 94.6229 128.77 96.735 130.725C97.1213 131.061 97.37 131.528 97.4334 132.036C97.4969 132.544 97.3708 133.058 97.0791 133.479C96.7874 133.9 96.3508 134.198 95.8527 134.317C95.3546 134.437 94.8301 134.368 94.3795 134.124C89.0933 131.549 84.0391 128.523 79.2731 125.079C78.6764 124.608 77.8755 123.988 77.3416 123.462C73.3687 119.599 70.5892 114.943 68.1945 110.012C66.051 105.05 73.0703 101.627 75.6614 106.361H75.7006Z" fill="#DC897C"/>
<path d="M88.6164 123.03L81.864 128.165C81.864 128.165 78.001 124.953 75.1509 122.142C74.0552 121.155 73.0943 120.028 72.2929 118.79C71.7198 117.628 72.3636 114.079 73.1802 110.726C74.0517 107.162 75.1116 103.825 75.1116 103.825C76.9568 105.992 81.5657 115.995 81.5657 115.995L88.6164 123.03Z" fill="#21A6DF"/>
<path opacity="0.2" d="M75.1509 122.143C74.0552 121.156 73.0943 120.028 72.2929 118.79C71.7198 117.628 72.3636 114.079 73.1802 110.727C74.3579 111.009 76.1716 115.995 75.1509 122.143Z" fill="black"/>
<path d="M72.599 140.264C70.4791 146.977 64.4805 152.316 57.3512 146.875C50.222 141.434 64.0644 114.527 69.1286 112.328C74.1929 110.13 72.599 140.264 72.599 140.264Z" fill="#21A6DF"/>
<path opacity="0.2" d="M72.599 140.264C70.4791 146.977 64.4805 152.316 57.3512 146.875C50.222 141.434 64.0644 114.527 69.1286 112.328C74.1929 110.13 72.599 140.264 72.599 140.264Z" fill="black"/>
<path d="M91.8277 258.572C87.1953 258.572 86.5829 258.501 83.9762 258.407C81.7463 258.328 81.2202 258.611 79.4301 258.572C77.9304 258.572 77.9854 257.104 78.4486 255.431C78.6763 254.599 79.0375 252.856 79.3516 251.505L86.1353 251.019C87.0854 252.84 89.276 255.439 91.8513 255.784C94.3481 256.161 93.6729 258.572 91.8277 258.572Z" fill="#21A6DF"/>
<path d="M51.9024 134.949H69.1759C70.2123 141.348 75.0724 171.851 75.9596 188.465C76.996 208.023 83.2616 239.343 86.5828 251.584C85.6485 252.416 81.2595 252.77 79.1866 251.733C79.1866 251.733 61.128 215.616 63.4835 193.027C49.7667 154.499 51.4548 137.783 51.9024 134.949Z" fill="#21A6DF"/>
<g opacity="0.7">
<path opacity="0.7" d="M51.9026 134.949H69.1761C70.2125 141.348 75.0726 171.851 75.9599 188.465C76.9963 208.023 83.2619 239.343 86.5831 251.584C85.6487 252.416 81.2597 252.77 79.1869 251.733C79.1869 251.733 61.1282 215.616 63.4837 193.027C49.767 154.499 51.4551 137.783 51.9026 134.949Z" fill="white"/>
</g>
<path d="M58.2936 258.572C53.6611 258.572 53.0487 258.501 50.442 258.407C48.2121 258.328 47.6861 258.611 45.8959 258.572C44.3962 258.572 44.4512 257.104 44.9144 255.431C45.1421 254.599 45.5033 252.856 45.8174 251.505L52.6011 251.019C53.5512 252.84 55.7418 255.439 58.3171 255.784C60.8924 256.13 60.1387 258.572 58.2936 258.572Z" fill="#21A6DF"/>
<path opacity="0.2" d="M58.9687 179.475C56.8174 172.408 55.2706 166.237 54.1714 160.969C55.2628 156.846 56.8017 153.313 58.8823 151.193C58.9059 151.193 61.9209 162.68 58.9687 179.475Z" fill="black"/>
<path d="M44.828 134.949H62.8003C61.5676 144.418 57.7675 173.312 55.4198 188.583C52.4441 207.937 52.0593 238.998 52.8052 251.655C51.7217 252.283 47.7724 253.045 45.6367 252.377C45.6367 252.377 35.5396 213.229 42.2449 190.491C36.631 149.144 43.6974 136.621 44.828 134.949Z" fill="#21A6DF"/>
<g opacity="0.7">
<path opacity="0.7" d="M44.828 134.949H62.8003C61.5676 144.418 57.7675 173.312 55.4198 188.583C52.4441 207.937 52.0593 238.998 52.8052 251.655C51.7217 252.283 47.7724 253.045 45.6367 252.377C45.6367 252.377 35.5396 213.229 42.2449 190.491C36.631 149.144 43.6974 136.621 44.828 134.949Z" fill="white"/>
</g>
<path d="M73.3214 77.2081C73.3214 77.2081 75.0723 87.9177 71.6411 91.6865C68.21 95.4552 56.3776 96.2325 52.444 89.276C48.5104 82.3195 50.9208 72.1517 59.958 70.0553C68.9952 67.9589 73.3214 77.2081 73.3214 77.2081Z" fill="#263238"/>
<path d="M47.9138 98.4464C48.2452 102.546 48.3553 106.661 48.2436 110.773C48.1886 113.066 48.0866 115.61 47.8903 118.35C47.5093 123.926 46.7962 129.474 45.7546 134.964L69.3094 138.89C69.3094 138.89 77.5928 111.983 72.929 102.09C72.9054 102.066 61.7562 94.3792 47.9138 98.4464Z" fill="#263238"/>
<path d="M122.3 129.021L120.478 128.738C120.141 128.684 119.797 128.711 119.473 128.818C119.149 128.924 118.856 129.107 118.617 129.351L116.348 131.628C115.9 132.08 115.568 132.634 115.379 133.242C115.191 133.85 115.151 134.495 115.265 135.122L115.398 135.907C118.382 136.59 122.111 135.122 122.111 135.122L123.218 134.831C123.448 134.777 123.665 134.677 123.856 134.539C124.046 134.4 124.208 134.225 124.331 134.023C124.453 133.822 124.535 133.598 124.57 133.364C124.606 133.131 124.595 132.893 124.537 132.664L123.98 130.458C123.865 130.084 123.646 129.75 123.348 129.496C123.051 129.241 122.687 129.077 122.3 129.021Z" fill="#E4897B"/>
<path d="M63.9702 107.735L55.8281 97.8656C58.5291 95.8791 58.4348 89.166 58.058 85.4443L64.3392 92.4401C63.3971 95.1253 63.028 98.0854 66.9067 99.7028C66.8832 99.7185 63.9624 107.711 63.9702 107.735Z" fill="#E4897B"/>
<path opacity="0.2" d="M60.6099 88.3179L64.3158 92.4478C64.085 93.0752 63.909 93.7215 63.7898 94.3793C62.298 93.9082 60.3665 91.8825 60.3508 90.2494C60.3177 89.5951 60.4056 88.9403 60.6099 88.3179Z" fill="black"/>
<path d="M55.6945 79.0221C56.0635 84.6203 56.1106 86.9915 58.9215 90.0144C63.1457 94.4898 69.8588 93.155 71.1778 87.6589C72.3399 82.6967 71.5312 74.374 66.1057 71.8851C64.9544 71.3006 63.667 71.0368 62.3787 71.1214C61.0903 71.206 59.8484 71.6359 58.7835 72.366C57.7185 73.096 56.8698 74.0993 56.3262 75.2705C55.7827 76.4417 55.5645 77.7376 55.6945 79.0221Z" fill="#E4897B"/>
<path d="M60.8767 75.6063C57.3906 79.1474 63.0594 84.3765 56.8802 83.3715C50.701 82.3665 54.2735 73.9025 58.1993 72.3793C62.1251 70.8561 60.8767 75.6063 60.8767 75.6063Z" fill="#263238"/>
<path d="M64.2607 80.953C64.2607 81.4241 64.5276 81.8166 64.826 81.8323C65.1244 81.848 65.3599 81.4712 65.3442 81.0001C65.3285 80.529 65.0851 80.1364 64.7867 80.1285C64.4884 80.1207 64.2528 80.4819 64.2607 80.953Z" fill="#263238"/>
<path d="M69.8982 81.2906C69.8982 81.7617 70.1573 82.1621 70.4557 82.17C70.754 82.1778 70.9896 81.8166 70.9817 81.3848C70.9739 80.953 70.7148 80.5211 70.4164 80.5054C70.1181 80.4897 69.8825 80.8195 69.8982 81.2906Z" fill="#263238"/>
<path d="M70.283 80.4823L71.3822 80.2075C71.3822 80.2075 70.8326 81.0712 70.283 80.4823Z" fill="#263238"/>
<path d="M68.3435 81.9976C68.7779 83.0944 69.3504 84.1313 70.0473 85.0832C69.8117 85.2426 69.5431 85.3466 69.2617 85.3874C68.9802 85.4282 68.6931 85.4047 68.422 85.3188L68.3435 81.9976Z" fill="#DE5753"/>
<path d="M65.831 86.9442C66.0892 87.001 66.352 87.0351 66.6161 87.0463C66.6333 87.0464 66.6503 87.0429 66.6661 87.0361C66.6819 87.0293 66.6961 87.0193 66.7079 87.0068C66.7196 86.9943 66.7287 86.9795 66.7346 86.9633C66.7404 86.9472 66.7428 86.93 66.7418 86.9128C66.7428 86.8947 66.7402 86.8765 66.7339 86.8593C66.7277 86.8422 66.7181 86.8266 66.7056 86.8133C66.6931 86.8001 66.678 86.7896 66.6612 86.7824C66.6445 86.7752 66.6265 86.7715 66.6083 86.7715C66.0242 86.749 65.4525 86.5963 64.935 86.3246C64.4174 86.0529 63.9671 85.6691 63.6168 85.2012C63.6097 85.1833 63.5988 85.1672 63.5849 85.154C63.571 85.1407 63.5543 85.1306 63.5362 85.1244C63.518 85.1182 63.4987 85.1159 63.4795 85.1179C63.4604 85.1198 63.4419 85.1258 63.4253 85.1355C63.4088 85.1452 63.3945 85.1584 63.3835 85.1742C63.3724 85.1899 63.365 85.2079 63.3615 85.2268C63.3581 85.2457 63.3588 85.2651 63.3635 85.2837C63.3683 85.3024 63.377 85.3197 63.3891 85.3347C63.9785 86.1521 64.8474 86.7249 65.831 86.9442Z" fill="#263238"/>
<path d="M54.5325 84.2196C54.6953 84.7359 54.9646 85.2123 55.323 85.618C55.6814 86.0237 56.1209 86.3498 56.6132 86.5751C57.8459 87.0619 58.5761 85.6643 58.3248 84.1568C58.105 82.7985 57.1863 80.9062 55.9065 81.0711C54.6267 81.236 54.0379 82.8613 54.5325 84.2196Z" fill="#E4897B"/>
<path d="M62.9967 78.2761C63.0692 78.2849 63.1424 78.2652 63.2008 78.2211C63.4459 77.9943 63.7438 77.8324 64.0674 77.7501C64.3911 77.6678 64.7301 77.6678 65.0538 77.75C65.0867 77.762 65.1218 77.7668 65.1568 77.764C65.1917 77.7611 65.2256 77.7508 65.2562 77.7336C65.2867 77.7165 65.3132 77.6929 65.3339 77.6646C65.3545 77.6363 65.3688 77.6038 65.3757 77.5694C65.393 77.4977 65.3823 77.4221 65.3458 77.3579C65.3094 77.2937 65.2499 77.2459 65.1794 77.224C64.771 77.1113 64.3407 77.1041 63.9288 77.2029C63.5168 77.3018 63.1367 77.5035 62.8239 77.7893C62.7736 77.8407 62.7454 77.9097 62.7454 77.9817C62.7454 78.0536 62.7736 78.1227 62.8239 78.174C62.866 78.2292 62.928 78.2658 62.9967 78.2761Z" fill="#263238"/>
<path d="M71.4686 78.7863C71.5319 78.8097 71.6015 78.8097 71.6648 78.7863C71.6937 78.7646 71.718 78.7375 71.7364 78.7065C71.7548 78.6754 71.7669 78.641 71.772 78.6053C71.7771 78.5696 71.7751 78.5332 71.7662 78.4982C71.7572 78.4633 71.7415 78.4304 71.7198 78.4016C71.4791 78.0302 71.1564 77.7189 70.7767 77.4916C70.397 77.2644 69.9702 77.1271 69.5292 77.0903C69.4941 77.0902 69.4594 77.0974 69.4273 77.1114C69.3952 77.1255 69.3663 77.1462 69.3427 77.1721C69.319 77.1979 69.301 77.2285 69.2899 77.2618C69.2787 77.295 69.2747 77.3302 69.278 77.3651C69.2818 77.4389 69.3127 77.5086 69.365 77.5608C69.4172 77.613 69.4869 77.644 69.5606 77.6478C69.9098 77.6794 70.2471 77.7907 70.5466 77.9731C70.846 78.1555 71.0997 78.4041 71.288 78.6999C71.3356 78.7498 71.3998 78.7805 71.4686 78.7863Z" fill="#263238"/>
<path d="M64.6533 80.1444L65.7447 79.8696C65.7447 79.8696 65.2029 80.7254 64.6533 80.1444Z" fill="#263238"/>
<path d="M66.2943 73.4394C66.2943 73.4394 66.679 77.0197 61.0651 79.3673C62.5505 78.4674 63.6243 77.0215 64.0566 75.3395C64.0566 75.3395 61.9209 79.8856 57.6732 79.6657C53.4255 79.4459 54.1165 89.9513 56.0322 93.2882C56.0322 93.2882 50.6146 89.9042 50.1278 85.9313C50.1278 85.9313 50.6539 89.7628 52.8524 91.7179C52.8524 91.7179 49.2406 90.0926 47.5133 83.1675C45.4012 74.7585 51.9259 68.328 57.0372 67.1581C64.7161 65.4072 66.946 68.1788 66.946 68.1788C66.946 68.1788 69.3642 66.8284 72.764 71.5C76.1637 76.1717 77.7654 86.1276 73.6512 91.1761C74.2124 87.3174 73.8628 83.3809 72.6305 79.6814C72.6305 79.6814 69.1208 78.7 67.1344 73.934C67.08 74.8973 66.763 75.8272 66.2176 76.6231C65.6723 77.4189 64.9195 78.0503 64.0409 78.4487C64.0409 78.4487 66.1215 77.1846 66.2943 73.4394Z" fill="#263238"/>
<path d="M69.6861 140.295L69.8431 136.943L45.778 132.954L44.4197 135.679L69.6861 140.295Z" fill="#21A6DF"/>
<path opacity="0.7" d="M69.6861 140.295L69.8431 136.943L45.778 132.954L44.4197 135.679L69.6861 140.295Z" fill="white"/>
<path d="M52.7347 136.88L44.7732 135.553L45.629 133.371L53.1116 134.611L52.7347 136.88Z" fill="#263238"/>
<path d="M67.5742 137.006L69.9532 137.406L69.7883 139.707L67.1973 139.283L67.5742 137.006Z" fill="#263238"/>
<path d="M53.8736 134.727L53.4971 136.996L66.3937 139.136L66.7702 136.866L53.8736 134.727Z" fill="#263238"/>
<path d="M59.2518 138.136L62.7374 138.715C62.9769 138.754 63.2034 138.592 63.2431 138.353L63.5322 136.61C63.572 136.371 63.41 136.144 63.1705 136.104L59.6849 135.526C59.4453 135.486 59.2189 135.648 59.1792 135.888L58.89 137.631C58.8503 137.87 59.0123 138.097 59.2518 138.136Z" fill="white"/>
<path d="M58.2306 109.235C58.2371 110.103 58.1714 110.969 58.0343 111.826C57.5475 114.904 55.9772 119.144 53.9515 123.36C50.3476 130.89 45.3147 138.372 42.4646 139.15L46.092 130.662L46.995 114.715L47.4896 105.898L47.9136 98.4469C47.9136 98.4469 51.2505 97.2299 53.1114 97.2613C53.1192 97.2613 58.1599 102.059 58.2306 109.235Z" fill="#21A6DF"/>
<path d="M69.0896 100.033C70.1531 104.474 70.7867 109.007 70.9818 113.569C71.288 121.004 72.5993 140.264 72.5993 140.264C72.5993 140.264 75.418 110.295 75.1118 103.794C75.1039 103.825 71.9162 100.645 69.0896 100.033Z" fill="#21A6DF"/>
<path d="M92.2047 158.716C90.2261 161.197 85.2168 160.49 81.0241 157.145C76.8313 153.8 75.0254 149.074 76.9962 146.601C78.9669 144.127 83.9841 144.818 88.1847 148.171C92.3853 151.523 94.1833 156.234 92.2047 158.716Z" fill="#263238"/>
<path d="M101.94 153.007C102.657 152.945 103.323 152.611 103.801 152.073C105.741 149.639 102.137 143.531 95.7456 138.443C89.3544 133.355 82.602 131.196 80.6627 133.63C80.2412 134.215 80.0638 134.942 80.168 135.655C79.8623 135.803 79.5939 136.018 79.3829 136.284C78.9667 136.865 78.7973 137.588 78.9118 138.294C78.5846 138.435 78.2964 138.653 78.0717 138.93C77.8652 139.218 77.7197 139.546 77.6441 139.893C77.5685 140.24 77.5644 140.599 77.632 140.947C77.2897 141.078 76.9868 141.294 76.7526 141.576C76.5496 141.867 76.4087 142.198 76.3385 142.546C76.2682 142.894 76.2702 143.254 76.3443 143.601C75.9931 143.723 75.6813 143.938 75.4414 144.222C73.871 146.247 76.8311 151.288 82.1388 155.559C87.4465 159.83 93.0682 161.581 94.7013 159.556C94.9282 159.259 95.0694 158.906 95.1096 158.535C95.4648 158.529 95.8151 158.451 96.1391 158.305C96.4631 158.159 96.754 157.949 96.994 157.687C97.2156 157.396 97.3588 157.052 97.4101 156.69C97.7646 156.676 98.1128 156.591 98.4338 156.44C98.7548 156.289 99.0422 156.075 99.2788 155.81C99.5003 155.532 99.6487 155.203 99.7106 154.853C100.426 154.802 101.093 154.475 101.571 153.942C101.763 153.662 101.889 153.343 101.94 153.007Z" fill="#263238"/>
<path opacity="0.3" d="M101.94 153.007C102.657 152.945 103.323 152.611 103.801 152.073C105.741 149.639 102.137 143.531 95.7456 138.443C89.3544 133.355 82.602 131.196 80.6627 133.63C80.2412 134.215 80.0638 134.942 80.168 135.655C79.8623 135.803 79.5939 136.018 79.3829 136.284C78.9667 136.865 78.7973 137.588 78.9118 138.294C78.5846 138.435 78.2964 138.653 78.0717 138.93C77.8652 139.218 77.7197 139.546 77.6441 139.893C77.5685 140.24 77.5644 140.599 77.632 140.947C77.2897 141.078 76.9868 141.294 76.7526 141.576C76.5496 141.867 76.4087 142.198 76.3385 142.546C76.2682 142.894 76.2702 143.254 76.3443 143.601C75.9931 143.723 75.6813 143.938 75.4414 144.222C73.871 146.247 76.8311 151.288 82.1388 155.559C87.4465 159.83 93.0682 161.581 94.7013 159.556C94.9282 159.259 95.0694 158.906 95.1096 158.535C95.4648 158.529 95.8151 158.451 96.1391 158.305C96.4631 158.159 96.754 157.949 96.994 157.687C97.2156 157.396 97.3588 157.052 97.4101 156.69C97.7646 156.676 98.1128 156.591 98.4338 156.44C98.7548 156.289 99.0422 156.075 99.2788 155.81C99.5003 155.532 99.6487 155.203 99.7106 154.853C100.426 154.802 101.093 154.475 101.571 153.942C101.763 153.662 101.889 153.343 101.94 153.007Z" fill="white"/>
<path d="M128.495 138.851C131.25 135.399 133.088 131.306 133.836 126.953C134.585 122.6 134.22 118.129 132.776 113.954C131.332 109.78 128.856 106.039 125.578 103.079C122.299 100.119 118.325 98.037 114.026 97.0257C109.726 96.0144 105.241 96.1071 100.987 97.2952C96.7325 98.4833 92.8481 100.728 89.6948 103.821C86.5415 106.914 84.2217 110.754 82.9514 114.984C81.6812 119.215 81.5016 123.697 82.4294 128.016C82.5888 128.708 82.574 129.429 82.3862 130.114C82.1985 130.799 81.8438 131.427 81.3538 131.942C81.3005 131.988 81.2531 132.041 81.2124 132.099C79.2417 134.572 82.9005 140.735 89.3938 145.941C95.8871 151.147 102.742 153.298 104.712 150.825L104.83 150.66C105.226 150.068 105.763 149.582 106.391 149.247C107.02 148.911 107.721 148.736 108.434 148.736C112.301 148.675 116.106 147.757 119.575 146.047C123.044 144.338 126.09 141.88 128.495 138.851Z" fill="#21A6DF"/>
<path opacity="0.7" d="M128.495 138.851C131.25 135.399 133.088 131.306 133.836 126.953C134.585 122.6 134.22 118.129 132.776 113.954C131.332 109.78 128.856 106.039 125.578 103.079C122.299 100.119 118.325 98.037 114.026 97.0257C109.726 96.0144 105.241 96.1071 100.987 97.2952C96.7325 98.4833 92.8481 100.728 89.6948 103.821C86.5415 106.914 84.2217 110.754 82.9514 114.984C81.6812 119.215 81.5016 123.697 82.4294 128.016C82.5888 128.708 82.574 129.429 82.3862 130.114C82.1985 130.799 81.8438 131.427 81.3538 131.942C81.3005 131.988 81.2531 132.041 81.2124 132.099C79.2417 134.572 82.9005 140.735 89.3938 145.941C95.8871 151.147 102.742 153.298 104.712 150.825L104.83 150.66C105.226 150.068 105.763 149.582 106.391 149.247C107.02 148.911 107.721 148.736 108.434 148.736C112.301 148.675 116.106 147.757 119.575 146.047C123.044 144.338 126.09 141.88 128.495 138.851Z" fill="white"/>
<path d="M95.9262 145.407C95.8871 145.409 95.8485 145.399 95.8155 145.378C95.7826 145.357 95.7571 145.326 95.7424 145.29C95.7277 145.254 95.7247 145.214 95.7337 145.176C95.7427 145.138 95.7633 145.104 95.7927 145.078C96.1696 144.724 104.861 136.582 112.336 137.148L108.983 134.478C108.956 134.454 108.935 134.424 108.924 134.389C108.913 134.354 108.912 134.317 108.921 134.282L109.886 130.843L103.487 133.983C103.455 133.999 103.419 134.006 103.384 134.002C103.348 133.998 103.315 133.984 103.287 133.962C103.259 133.94 103.237 133.91 103.226 133.876C103.214 133.843 103.212 133.806 103.22 133.771L104.83 126.791L98.8941 129.272C98.8636 129.288 98.83 129.296 98.7959 129.296C98.7618 129.296 98.7282 129.288 98.6978 129.272C98.6714 129.251 98.6516 129.223 98.6405 129.191C98.6294 129.159 98.6275 129.125 98.635 129.092L99.7499 122.764L96.5543 124.491C96.5239 124.51 96.4884 124.521 96.4522 124.521C96.416 124.521 96.3806 124.51 96.3501 124.491L92.8483 121.704C93.0446 123.792 93.5314 132.649 88.2944 139.22C88.2613 139.252 88.2177 139.271 88.1718 139.273C88.1258 139.275 88.0808 139.26 88.0451 139.231C88.0094 139.202 87.9855 139.161 87.9779 139.116C87.9703 139.07 87.9796 139.024 88.0039 138.985C93.8376 131.659 92.44 121.397 92.4243 121.295C92.4195 121.258 92.4259 121.22 92.4427 121.187C92.4594 121.153 92.4859 121.125 92.5186 121.107C92.5505 121.087 92.5872 121.077 92.6246 121.077C92.6619 121.077 92.6986 121.087 92.7306 121.107L96.4836 124.098L99.9148 122.206C99.9455 122.187 99.9808 122.177 100.017 122.177C100.053 122.177 100.088 122.187 100.119 122.206C100.147 122.226 100.168 122.254 100.181 122.286C100.193 122.318 100.196 122.353 100.19 122.387L99.0668 128.754L105.018 126.234C105.048 126.217 105.082 126.208 105.116 126.208C105.151 126.208 105.185 126.217 105.215 126.234C105.242 126.256 105.262 126.286 105.273 126.319C105.284 126.352 105.286 126.388 105.277 126.422L103.707 133.379L110.13 130.238C110.16 130.219 110.196 130.21 110.232 130.21C110.268 130.21 110.303 130.219 110.334 130.238C110.362 130.262 110.382 130.293 110.392 130.328C110.401 130.363 110.4 130.4 110.389 130.435L109.345 134.195L113.105 137.187C113.136 137.213 113.158 137.249 113.168 137.288C113.178 137.327 113.175 137.369 113.16 137.407C113.145 137.445 113.118 137.478 113.082 137.499C113.047 137.52 113.005 137.529 112.964 137.525C105.552 136.433 96.1774 145.196 96.0832 145.282C96.0758 145.318 96.0561 145.35 96.0274 145.373C95.9987 145.396 95.9629 145.408 95.9262 145.407Z" fill="#263238"/>
<path opacity="0.2" d="M127.709 118.971C124.569 122.998 117.322 122.598 111.519 118.075C105.717 113.553 103.55 106.628 106.683 102.6C109.815 98.5721 117.07 98.9726 122.873 103.495C128.675 108.018 130.85 114.943 127.709 118.971Z" fill="white"/>
<path opacity="0.2" d="M106.832 139.927C104.547 142.863 99.2552 142.573 95.0546 139.275C90.854 135.977 89.2444 130.921 91.5292 127.984C93.814 125.048 99.106 125.331 103.307 128.628C107.507 131.926 109.117 136.982 106.832 139.927Z" fill="white"/>
<path opacity="0.2" d="M58.2307 109.235C58.2373 110.102 58.1716 110.969 58.0345 111.826C57.5477 114.904 55.9773 119.143 53.9516 123.36C51.3027 120.763 48.9679 117.864 46.9951 114.723L47.4898 105.906C50.2771 104.995 53.6219 104.335 55.3414 105.442C56.5876 106.463 57.5772 107.762 58.2307 109.235Z" fill="black"/>
<path d="M53.6453 103.001C55.145 107.099 56.3698 111.253 58.1286 115.116C59.2514 117.087 61.1907 118.539 62.9573 120.18C65.6347 122.536 68.5005 124.781 71.3899 127.019L80.1366 133.748C80.5469 134.059 80.8258 134.513 80.9185 135.02C81.0112 135.527 80.9109 136.051 80.6374 136.488C80.3639 136.924 79.9369 137.243 79.4404 137.381C78.9438 137.519 78.4136 137.467 77.9539 137.234C74.5934 135.546 71.335 133.748 68.108 131.832C64.881 129.916 61.7168 127.906 58.6154 125.629C56.1814 123.8 53.4333 121.75 51.6275 119.097C51.0319 118.195 50.4892 117.259 50.0022 116.294C48.2699 112.845 46.8433 109.251 45.7388 105.553C44.2941 100.316 51.7688 97.913 53.6453 103.001Z" fill="#DC897C"/>
<path d="M47.9138 98.4468C49.8408 98.5106 51.6827 99.2563 53.1115 100.551C56.0715 103.48 57.7282 112.423 59.699 115.854C61.0495 118.209 67.1187 123.533 67.1187 123.533L59.699 128.707C59.699 128.707 53.7004 123.383 51.5961 119.882C49.4919 116.38 41.4048 103.071 47.9138 98.4468Z" fill="#21A6DF"/>
<path d="M77.9853 133.01L83.6149 131.376L82.555 137.791C82.555 137.791 77.4436 138.945 76.9568 136.292L77.9853 133.01Z" fill="#E4897B"/>
<path d="M89.2209 132.892L86.4336 138.105L82.5549 137.791L83.6149 131.376L89.2209 132.892Z" fill="#E4897B"/>
</svg>
