<svg width="301" height="254" viewBox="0 0 301 254" fill="none" xmlns="http://www.w3.org/2000/svg">
<path d="M150.834 253.314C233.669 253.314 300.819 249.393 300.819 244.557C300.819 239.721 233.669 235.8 150.834 235.8C68.0004 235.8 0.850098 239.721 0.850098 244.557C0.850098 249.393 68.0004 253.314 150.834 253.314Z" fill="#F5F5F5"/>
<path d="M245.982 224.26C246.074 223.602 248.302 208.201 243.839 202.886C243.394 202.326 242.83 201.872 242.188 201.556C241.545 201.241 240.841 201.071 240.126 201.061C231.098 200.844 229.861 208.1 229.853 208.17L230.913 208.332C230.959 208.077 232.027 201.943 240.095 202.144C240.658 202.152 241.213 202.286 241.717 202.536C242.222 202.786 242.664 203.147 243.011 203.59C247.173 208.533 244.937 223.95 244.914 224.105L245.982 224.26Z" fill="#52BD94"/>
<path d="M246.492 223.525H247.567C247.567 223.378 247.212 209.33 254.135 206.429C260.919 203.59 263.974 209.43 264.098 209.678L265.057 209.198C265.057 209.129 261.445 202.198 253.717 205.439C246.113 208.595 246.477 222.913 246.492 223.525Z" fill="#52BD94"/>
<path d="M246.461 224.631C246.461 224.406 246.531 202.198 250.863 195.684C255.017 189.449 261.731 192.381 262.01 192.513L262.458 191.53C262.381 191.53 254.638 188.08 249.965 195.089C245.448 201.857 245.386 223.71 245.386 224.631H246.461Z" fill="#52BD94"/>
<path d="M238.803 201.563C238.803 201.563 242.74 203.01 241.572 206.445C240.404 209.879 227.934 215.518 227.934 215.518C227.934 215.518 222.713 210.738 227.509 202.956C232.305 195.174 238.695 199.104 238.803 201.563Z" fill="#52BD94"/>
<path d="M251.056 194.516C251.056 194.516 248.256 194.215 248.48 192.513C248.704 190.811 259.356 186.417 265.645 193.511C265.645 193.511 261.623 200.426 255.806 200.519C249.989 200.612 251.056 194.516 251.056 194.516Z" fill="#52BD94"/>
<path d="M253.926 205.903C253.926 205.903 251.992 204.356 254.08 203.583C256.169 202.809 266.388 203.034 266.457 213.167C266.457 213.167 254.545 215.147 253.075 211.287C251.605 207.427 253.926 205.903 253.926 205.903Z" fill="#52BD94"/>
<path opacity="0.2" d="M238.803 201.563C238.803 201.563 242.74 203.01 241.572 206.445C240.404 209.879 227.934 215.518 227.934 215.518C227.934 215.518 222.713 210.738 227.509 202.956C232.305 195.174 238.695 199.104 238.803 201.563Z" fill="black"/>
<path opacity="0.2" d="M251.056 194.516C251.056 194.516 248.256 194.215 248.48 192.513C248.704 190.811 259.356 186.417 265.645 193.511C265.645 193.511 261.623 200.426 255.806 200.519C249.989 200.612 251.056 194.516 251.056 194.516Z" fill="black"/>
<path opacity="0.2" d="M253.926 205.903C253.926 205.903 251.992 204.356 254.08 203.583C256.169 202.809 266.388 203.034 266.457 213.167C266.457 213.167 254.545 215.147 253.075 211.287C251.605 207.427 253.926 205.903 253.926 205.903Z" fill="black"/>
<path d="M236.684 244.859H255.164L257.16 224.631H234.688L236.684 244.859Z" fill="#263238"/>
<path opacity="0.5" d="M236.684 244.859H255.164L257.16 224.631H234.688L236.684 244.859Z" fill="white"/>
<path d="M233.697 226.858H258.142V222.395H233.697V226.858Z" fill="#263238"/>
<path opacity="0.2" d="M233.697 226.858H258.142V222.395H233.697V226.858Z" fill="white"/>
<path d="M225.096 167.078C228.5 170.483 232.815 172.831 237.522 173.841C242.23 174.85 247.129 174.478 251.629 172.768C256.13 171.059 260.041 168.085 262.891 164.205C265.741 160.325 267.409 155.703 267.694 150.898C267.979 146.092 266.869 141.306 264.498 137.116C262.127 132.926 258.595 129.51 254.328 127.28C250.061 125.051 245.241 124.102 240.447 124.547C235.653 124.993 231.091 126.815 227.308 129.793L218.335 124.981L223.146 133.955C219.361 138.758 217.47 144.782 217.829 150.887C218.188 156.991 220.774 162.752 225.096 167.078Z" fill="#52BD94"/>
<path opacity="0.7" d="M225.096 167.078C228.5 170.483 232.815 172.831 237.522 173.841C242.23 174.85 247.129 174.478 251.629 172.768C256.13 171.059 260.041 168.085 262.891 164.205C265.741 160.325 267.409 155.703 267.694 150.898C267.979 146.092 266.869 141.306 264.498 137.116C262.127 132.926 258.595 129.51 254.328 127.28C250.061 125.051 245.241 124.102 240.447 124.547C235.653 124.993 231.091 126.815 227.308 129.793L218.335 124.981L223.146 133.955C219.361 138.758 217.47 144.782 217.829 150.887C218.188 156.991 220.774 162.752 225.096 167.078Z" fill="white"/>
<path d="M242.114 136.198L230.34 145.434V161.779C230.34 161.984 230.422 162.181 230.567 162.326C230.712 162.471 230.909 162.553 231.114 162.553H254.932C255.137 162.553 255.334 162.471 255.479 162.326C255.624 162.181 255.705 161.984 255.705 161.779V145.434L243.924 136.198C243.66 136.008 243.344 135.905 243.019 135.905C242.694 135.905 242.377 136.008 242.114 136.198Z" fill="#52BD94"/>
<path d="M251.76 133.823H234.316V157.486H251.76V133.823Z" fill="white"/>
<path d="M243.058 155.413L230.34 145.434V161.779C230.34 161.984 230.422 162.181 230.567 162.326C230.712 162.471 230.909 162.553 231.114 162.553H254.932C255.137 162.553 255.334 162.471 255.479 162.326C255.624 162.181 255.705 161.984 255.705 161.779V145.434L243.058 155.413Z" fill="#52BD94"/>
<path opacity="0.2" d="M243.058 155.413L230.34 145.434V161.779C230.34 161.984 230.422 162.181 230.567 162.326C230.712 162.471 230.909 162.553 231.114 162.553H254.932C255.137 162.553 255.334 162.471 255.479 162.326C255.624 162.181 255.705 161.984 255.705 161.779V145.434L243.058 155.413Z" fill="white"/>
<path d="M249.006 136.422H237.07V137.195H249.006V136.422Z" fill="#52BD94"/>
<path d="M249.006 138.635H237.07V139.408H249.006V138.635Z" fill="#52BD94"/>
<path d="M249.006 140.854H237.07V141.628H249.006V140.854Z" fill="#52BD94"/>
<path d="M249.006 143.075H237.07V143.848H249.006V143.075Z" fill="#52BD94"/>
<path d="M249.006 145.295H237.07V146.068H249.006V145.295Z" fill="#52BD94"/>
<path d="M244.365 147.515H237.07V148.289H244.365V147.515Z" fill="#52BD94"/>
<path d="M242.74 174.752C237.997 174.762 233.345 173.441 229.315 170.939C225.285 168.437 222.038 164.855 219.942 160.599C217.847 156.343 216.988 151.585 217.463 146.865C217.938 142.145 219.727 137.653 222.628 133.9L217.94 125.151C217.9 125.078 217.885 124.994 217.898 124.911C217.91 124.829 217.95 124.753 218.01 124.695C218.068 124.636 218.144 124.597 218.227 124.585C218.309 124.572 218.393 124.586 218.466 124.625L227.215 129.321C230.409 126.852 234.145 125.18 238.115 124.446C242.084 123.711 246.171 123.934 250.037 125.097C253.903 126.26 257.435 128.328 260.34 131.131C263.246 133.933 265.44 137.389 266.741 141.21C268.043 145.031 268.413 149.108 267.822 153.101C267.231 157.094 265.695 160.889 263.343 164.169C260.99 167.45 257.889 170.121 254.296 171.962C250.703 173.802 246.723 174.759 242.686 174.752H242.74ZM219.255 125.917L223.464 133.753C223.498 133.819 223.513 133.894 223.506 133.968C223.499 134.042 223.471 134.112 223.425 134.171C219.544 139.097 217.692 145.319 218.247 151.565C218.802 157.811 221.722 163.609 226.411 167.774C231.099 171.938 237.201 174.154 243.468 173.969C249.736 173.784 255.697 171.211 260.131 166.777C264.565 162.343 267.138 156.383 267.323 150.115C267.508 143.847 265.292 137.745 261.127 133.057C256.963 128.369 251.165 125.449 244.919 124.894C238.673 124.339 232.45 126.191 227.525 130.071C227.466 130.121 227.394 130.151 227.318 130.158C227.242 130.165 227.165 130.148 227.099 130.11L219.255 125.917Z" fill="#52BD94"/>
<g opacity="0.7">
<path opacity="0.7" d="M242.74 174.752C237.997 174.762 233.345 173.441 229.315 170.939C225.285 168.437 222.038 164.855 219.942 160.599C217.847 156.343 216.988 151.585 217.463 146.865C217.938 142.145 219.727 137.653 222.628 133.9L217.94 125.151C217.9 125.078 217.885 124.994 217.898 124.911C217.91 124.829 217.95 124.753 218.01 124.695C218.068 124.636 218.144 124.597 218.227 124.585C218.309 124.572 218.393 124.586 218.466 124.625L227.215 129.321C230.409 126.852 234.145 125.18 238.115 124.446C242.084 123.711 246.171 123.934 250.037 125.097C253.903 126.26 257.435 128.328 260.34 131.131C263.246 133.933 265.44 137.389 266.741 141.21C268.043 145.031 268.413 149.108 267.822 153.101C267.231 157.094 265.695 160.889 263.343 164.169C260.99 167.45 257.889 170.121 254.296 171.962C250.703 173.802 246.723 174.759 242.686 174.752H242.74ZM219.255 125.917L223.463 133.753C223.498 133.819 223.513 133.894 223.506 133.968C223.499 134.042 223.471 134.112 223.425 134.171C219.544 139.097 217.692 145.319 218.247 151.565C218.802 157.811 221.722 163.609 226.411 167.774C231.099 171.938 237.201 174.154 243.468 173.969C249.736 173.784 255.697 171.211 260.131 166.777C264.565 162.343 267.137 156.383 267.323 150.115C267.508 143.847 265.292 137.745 261.127 133.057C256.963 128.369 251.165 125.449 244.919 124.894C238.673 124.339 232.45 126.191 227.525 130.071C227.466 130.121 227.394 130.151 227.318 130.158C227.242 130.165 227.165 130.148 227.099 130.11L219.255 125.917Z" fill="#52BD94"/>
</g>
<path d="M260.401 78.0963C263.806 74.6928 266.156 70.3775 267.166 65.6698C268.177 60.9621 267.805 56.0627 266.096 51.5613C264.387 47.06 261.413 43.1485 257.533 40.2979C253.653 37.4472 249.031 35.7788 244.224 35.4936C239.418 35.2083 234.632 36.3184 230.441 38.69C226.251 41.0617 222.835 44.594 220.606 48.8616C218.376 53.1292 217.428 57.9502 217.874 62.7444C218.321 67.5386 220.144 72.1015 223.123 75.8839L218.311 84.8571L227.285 80.0533C232.088 83.8366 238.111 85.7269 244.214 85.3662C250.318 85.0055 256.077 82.4189 260.401 78.0963Z" fill="#52BD94"/>
<path opacity="0.7" d="M260.401 78.0963C263.806 74.6928 266.156 70.3775 267.166 65.6698C268.177 60.9621 267.805 56.0627 266.096 51.5613C264.387 47.06 261.413 43.1485 257.533 40.2979C253.653 37.4472 249.031 35.7788 244.224 35.4936C239.418 35.2083 234.632 36.3184 230.441 38.69C226.251 41.0617 222.835 44.594 220.606 48.8616C218.376 53.1292 217.428 57.9502 217.874 62.7444C218.321 67.5386 220.144 72.1015 223.123 75.8839L218.311 84.8571L227.285 80.0533C232.088 83.8366 238.111 85.7269 244.214 85.3662C250.318 85.0055 256.077 82.4189 260.401 78.0963Z" fill="white"/>
<path d="M255.303 54.9048H233.481C232.832 54.9048 232.305 55.4312 232.305 56.0806V70.2521C232.305 70.9015 232.832 71.4279 233.481 71.4279H255.303C255.952 71.4279 256.479 70.9015 256.479 70.2521V56.0806C256.479 55.4312 255.952 54.9048 255.303 54.9048Z" fill="#52BD94"/>
<path opacity="0.4" d="M256.479 56.0806V64.2338H232.305V56.0806C232.305 55.7687 232.429 55.4697 232.65 55.2492C232.87 55.0287 233.169 54.9048 233.481 54.9048H255.311C255.621 54.9068 255.918 55.0316 256.137 55.2519C256.356 55.4722 256.479 55.7701 256.479 56.0806Z" fill="white"/>
<path opacity="0.4" d="M232.305 68.063H256.479V70.2599C256.477 70.569 256.353 70.865 256.134 71.0836C255.916 71.3022 255.62 71.4259 255.311 71.4279H233.481C233.17 71.4279 232.873 71.3051 232.652 71.0863C232.432 70.8675 232.307 70.5704 232.305 70.2599V68.063Z" fill="white"/>
<path opacity="0.5" d="M252.224 63.3599C252.861 63.3599 253.377 62.8438 253.377 62.2073C253.377 61.5707 252.861 61.0547 252.224 61.0547C251.588 61.0547 251.072 61.5707 251.072 62.2073C251.072 62.8438 251.588 63.3599 252.224 63.3599Z" fill="white"/>
<path d="M253.771 63.3599C254.408 63.3599 254.924 62.8438 254.924 62.2073C254.924 61.5707 254.408 61.0547 253.771 61.0547C253.135 61.0547 252.619 61.5707 252.619 62.2073C252.619 62.8438 253.135 63.3599 253.771 63.3599Z" fill="#52BD94"/>
<path d="M237.434 61.9907H234.525V62.656H237.434V61.9907Z" fill="#52BD94"/>
<path d="M241.302 61.9907H238.393V62.656H241.302V61.9907Z" fill="#52BD94"/>
<path d="M243.963 61.9907H242.261V62.656H243.963V61.9907Z" fill="#52BD94"/>
<path d="M239.458 56.8149C240.346 53.0519 238.016 49.2814 234.253 48.3933C230.49 47.5052 226.719 49.8357 225.831 53.5987C224.943 57.3616 227.274 61.1321 231.037 62.0202C234.8 62.9084 238.57 60.5779 239.458 56.8149Z" fill="#52BD94"/>
<path opacity="0.3" d="M238.284 56.5375C239.019 53.4232 237.09 50.3026 233.976 49.5676C230.861 48.8325 227.741 50.7613 227.006 53.8757C226.271 56.99 228.199 60.1105 231.314 60.8456C234.428 61.5806 237.549 59.6518 238.284 56.5375Z" fill="white"/>
<path d="M233.094 58.7726V59.8092H232.321V58.7804C231.502 58.7592 230.708 58.4894 230.046 58.0068L230.464 57.0708C231.007 57.471 231.649 57.7145 232.321 57.7747V55.9182C231.292 55.6629 230.186 55.3303 230.186 54.0385C230.186 53.0947 230.874 52.267 232.321 52.1278V51.0835H233.094V52.1123C233.761 52.1405 234.409 52.3346 234.982 52.677L234.595 53.613C234.135 53.344 233.624 53.1752 233.094 53.1179V54.9899C234.123 55.2375 235.245 55.5624 235.245 56.8542C235.245 57.8057 234.548 58.6257 233.094 58.7726ZM232.321 54.8043V53.1489C231.663 53.2494 231.385 53.5898 231.385 53.9921C231.385 54.3943 231.795 54.6418 232.336 54.8043H232.321ZM234.046 56.947C234.046 56.4906 233.636 56.274 233.079 56.1193V57.7593C233.775 57.6587 234.061 57.3415 234.061 56.947H234.046Z" fill="#52BD94"/>
<path d="M242.733 85.793C237.132 85.7942 231.689 83.9328 227.262 80.5019L218.513 85.1897C218.44 85.2296 218.356 85.2452 218.274 85.2341C218.192 85.2229 218.116 85.1857 218.056 85.1278C217.996 85.07 217.957 84.9939 217.944 84.9114C217.931 84.8289 217.946 84.7445 217.987 84.6714L222.674 75.9147C219.694 72.052 217.89 67.4116 217.481 62.5498C217.071 57.688 218.072 52.8111 220.364 48.5039C222.656 44.1967 226.141 40.6419 230.402 38.2657C234.664 35.8895 239.52 34.7927 244.389 35.1068C249.258 35.421 253.933 37.1328 257.853 40.0369C261.774 42.941 264.774 46.9143 266.493 51.4803C268.213 56.0464 268.579 61.0114 267.547 65.7802C266.516 70.549 264.131 74.9193 260.679 78.3669C258.324 80.7247 255.526 82.5944 252.446 83.8687C249.366 85.143 246.066 85.797 242.733 85.793ZM227.262 79.6588C227.348 79.6571 227.432 79.6843 227.501 79.7361C232.228 83.4657 238.159 85.3306 244.169 84.977C250.179 84.6233 255.85 82.0758 260.107 77.8177C263.462 74.4665 265.777 70.2169 266.774 65.5805C267.77 60.9441 267.405 56.1185 265.722 51.6847C264.04 47.251 261.112 43.3981 257.29 40.5899C253.469 37.7818 248.917 36.1381 244.183 35.8567C239.449 35.5754 234.735 36.6684 230.608 39.0042C226.481 41.3399 223.117 44.8189 220.921 49.0221C218.725 53.2254 217.791 57.9738 218.231 62.6956C218.671 67.4174 220.467 71.9113 223.402 75.6363C223.447 75.6964 223.475 75.7682 223.482 75.8434C223.489 75.9187 223.474 75.9943 223.44 76.0617L219.232 83.9056L227.076 79.7052C227.141 79.6741 227.213 79.6608 227.285 79.6665L227.262 79.6588Z" fill="#52BD94"/>
<g opacity="0.7">
<path opacity="0.7" d="M242.733 85.793C237.132 85.7942 231.689 83.9328 227.262 80.5019L218.513 85.1897C218.44 85.2296 218.356 85.2452 218.274 85.2341C218.192 85.2229 218.116 85.1857 218.056 85.1278C217.996 85.07 217.957 84.9939 217.944 84.9114C217.931 84.8289 217.946 84.7445 217.987 84.6714L222.674 75.9147C219.694 72.052 217.89 67.4116 217.481 62.5498C217.071 57.688 218.072 52.8111 220.364 48.5039C222.656 44.1967 226.141 40.6419 230.403 38.2657C234.664 35.8895 239.52 34.7927 244.389 35.1068C249.258 35.421 253.933 37.1328 257.853 40.0369C261.774 42.941 264.774 46.9143 266.493 51.4803C268.213 56.0464 268.579 61.0114 267.548 65.7802C266.516 70.549 264.132 74.9193 260.679 78.3669C258.324 80.7247 255.526 82.5944 252.446 83.8687C249.366 85.143 246.066 85.797 242.733 85.793ZM227.262 79.6588C227.348 79.6571 227.432 79.6843 227.501 79.7361C232.228 83.4657 238.159 85.3306 244.169 84.977C250.179 84.6233 255.85 82.0758 260.107 77.8177C263.462 74.4665 265.777 70.2169 266.774 65.5805C267.77 60.9441 267.405 56.1185 265.722 51.6847C264.04 47.251 261.112 43.3981 257.29 40.5899C253.469 37.7818 248.917 36.1381 244.183 35.8567C239.449 35.5754 234.735 36.6684 230.608 39.0042C226.481 41.3399 223.117 44.8189 220.921 49.0221C218.725 53.2254 217.791 57.9738 218.231 62.6956C218.671 67.4174 220.467 71.9113 223.402 75.6363C223.447 75.6964 223.475 75.7682 223.482 75.8434C223.489 75.9187 223.474 75.9943 223.44 76.0617L219.232 83.9056L227.076 79.7052C227.141 79.6741 227.213 79.6608 227.285 79.6665L227.262 79.6588Z" fill="#52BD94"/>
</g>
<path d="M146.595 183.834C146.593 188.65 147.983 193.365 150.598 197.41C153.213 201.456 156.942 204.659 161.335 206.634C165.728 208.609 170.599 209.273 175.36 208.544C180.122 207.816 184.571 205.726 188.173 202.528C191.774 199.329 194.374 195.158 195.66 190.516C196.946 185.874 196.863 180.959 195.42 176.363C193.978 171.767 191.238 167.687 187.53 164.612C183.822 161.537 179.304 159.6 174.521 159.033L171.574 149.287L168.634 159.033C162.562 159.755 156.966 162.677 152.904 167.248C148.843 171.818 146.598 177.719 146.595 183.834Z" fill="#52BD94"/>
<path opacity="0.7" d="M146.595 183.834C146.593 188.65 147.983 193.365 150.598 197.41C153.213 201.456 156.942 204.659 161.335 206.634C165.728 208.609 170.599 209.273 175.36 208.544C180.122 207.816 184.571 205.726 188.173 202.528C191.774 199.329 194.374 195.158 195.66 190.516C196.946 185.874 196.863 180.959 195.42 176.363C193.978 171.767 191.238 167.687 187.53 164.612C183.822 161.537 179.304 159.6 174.521 159.033L171.574 149.287L168.634 159.033C162.562 159.755 156.966 162.677 152.904 167.248C148.843 171.818 146.598 177.719 146.595 183.834Z" fill="white"/>
<path d="M183.873 175.062H180.678C180.506 175.055 180.341 174.991 180.21 174.881C180.078 174.77 179.987 174.619 179.951 174.45L179.711 172.981C179.675 172.813 179.584 172.661 179.452 172.55C179.321 172.44 179.156 172.376 178.984 172.37H172.494C172.322 172.376 172.157 172.44 172.025 172.55C171.894 172.661 171.803 172.813 171.767 172.981L171.527 174.45C171.491 174.619 171.4 174.77 171.268 174.881C171.137 174.991 170.972 175.055 170.8 175.062H161.123C160.94 175.062 160.759 175.098 160.59 175.168C160.421 175.238 160.267 175.34 160.138 175.469C160.009 175.599 159.906 175.752 159.836 175.921C159.766 176.09 159.73 176.271 159.73 176.454V192.784C159.73 192.966 159.766 193.147 159.836 193.315C159.906 193.484 160.009 193.637 160.139 193.766C160.268 193.894 160.421 193.996 160.59 194.065C160.759 194.134 160.94 194.169 161.123 194.168H183.873C184.241 194.168 184.594 194.023 184.855 193.763C185.116 193.504 185.263 193.152 185.265 192.784V176.454C185.263 176.085 185.116 175.732 184.855 175.472C184.594 175.211 184.241 175.064 183.873 175.062Z" fill="#52BD94"/>
<path d="M184.043 176.454H161.03V192.784H184.043V176.454Z" fill="white"/>
<path d="M183.873 194.431H161.123C160.739 194.42 160.373 194.271 160.089 194.013C159.806 193.755 159.623 193.404 159.576 193.023L157.897 178.62C157.87 178.445 157.882 178.265 157.931 178.095C157.98 177.925 158.066 177.767 158.182 177.633C158.298 177.499 158.442 177.392 158.604 177.319C158.766 177.247 158.942 177.21 159.119 177.212H181.877C182.26 177.227 182.624 177.376 182.907 177.634C183.191 177.891 183.374 178.241 183.424 178.62L185.095 193C185.124 193.177 185.115 193.358 185.067 193.531C185.019 193.704 184.933 193.864 184.817 194C184.701 194.137 184.556 194.246 184.393 194.32C184.23 194.395 184.052 194.433 183.873 194.431Z" fill="#52BD94"/>
<path opacity="0.2" d="M183.873 194.431H161.123C160.739 194.42 160.373 194.271 160.089 194.013C159.806 193.755 159.623 193.404 159.576 193.023L157.897 178.62C157.87 178.445 157.882 178.265 157.931 178.095C157.98 177.925 158.066 177.767 158.182 177.633C158.298 177.499 158.442 177.392 158.604 177.319C158.766 177.247 158.942 177.21 159.119 177.212H181.877C182.26 177.227 182.624 177.376 182.907 177.634C183.191 177.891 183.374 178.241 183.424 178.62L185.095 193C185.124 193.177 185.115 193.358 185.067 193.531C185.019 193.704 184.933 193.864 184.817 194C184.701 194.137 184.556 194.246 184.393 194.32C184.23 194.395 184.052 194.433 183.873 194.431Z" fill="white"/>
<path d="M171.573 209.206C165.118 209.22 158.9 206.772 154.187 202.361C149.474 197.95 146.62 191.907 146.207 185.465C145.794 179.023 147.852 172.666 151.963 167.689C156.074 162.711 161.928 159.489 168.332 158.678L171.202 149.178C171.226 149.094 171.277 149.02 171.347 148.968C171.416 148.915 171.501 148.887 171.589 148.887C171.676 148.887 171.761 148.915 171.831 148.968C171.901 149.02 171.952 149.094 171.976 149.178L174.815 158.678C181.219 159.489 187.073 162.711 191.184 167.689C195.295 172.666 197.353 179.023 196.94 185.465C196.527 191.907 193.673 197.95 188.96 202.361C184.247 206.772 178.029 209.22 171.573 209.206ZM171.573 150.625L168.998 159.134C168.975 159.206 168.933 159.27 168.875 159.318C168.818 159.366 168.747 159.396 168.673 159.405C162.446 160.145 156.737 163.235 152.713 168.044C148.689 172.853 146.655 179.018 147.025 185.277C147.396 191.537 150.143 197.419 154.706 201.719C159.269 206.02 165.303 208.416 171.573 208.416C177.844 208.416 183.878 206.02 188.441 201.719C193.004 197.419 195.751 191.537 196.122 185.277C196.492 179.018 194.458 172.853 190.434 168.044C186.41 163.235 180.701 160.145 174.474 159.405C174.4 159.395 174.33 159.365 174.272 159.317C174.215 159.269 174.172 159.205 174.149 159.134L171.573 150.625Z" fill="#52BD94"/>
<g opacity="0.7">
<path opacity="0.7" d="M171.573 209.206C165.118 209.22 158.9 206.772 154.187 202.361C149.474 197.95 146.62 191.907 146.207 185.465C145.794 179.023 147.852 172.666 151.963 167.689C156.074 162.711 161.928 159.489 168.332 158.678L171.202 149.178C171.226 149.094 171.277 149.02 171.347 148.968C171.416 148.915 171.501 148.887 171.589 148.887C171.676 148.887 171.761 148.915 171.831 148.968C171.901 149.02 171.952 149.094 171.976 149.178L174.815 158.678C181.219 159.489 187.073 162.711 191.184 167.689C195.295 172.666 197.353 179.023 196.94 185.465C196.527 191.907 193.673 197.95 188.96 202.361C184.247 206.772 178.029 209.22 171.573 209.206ZM171.573 150.625L168.998 159.134C168.975 159.206 168.933 159.27 168.875 159.318C168.818 159.366 168.747 159.396 168.673 159.405C162.446 160.145 156.737 163.235 152.713 168.044C148.689 172.853 146.655 179.018 147.025 185.277C147.396 191.537 150.143 197.419 154.706 201.719C159.269 206.02 165.303 208.416 171.573 208.416C177.844 208.416 183.878 206.02 188.441 201.719C193.004 197.419 195.751 191.537 196.122 185.277C196.492 179.018 194.458 172.853 190.434 168.044C186.41 163.235 180.701 160.145 174.474 159.405C174.4 159.395 174.33 159.365 174.272 159.317C174.215 159.269 174.172 159.205 174.149 159.134L171.573 150.625Z" fill="#52BD94"/>
</g>
<path d="M196.559 26.0054C196.56 21.1893 195.169 16.4756 192.553 12.4317C189.937 8.38775 186.208 5.18601 181.816 3.2118C177.423 1.23758 172.553 0.575043 167.792 1.30393C163.031 2.03281 158.583 4.12205 154.982 7.32017C151.381 10.5183 148.781 14.689 147.495 19.3303C146.209 23.9716 146.292 28.8856 147.733 33.4809C149.175 38.0762 151.914 42.157 155.621 45.232C159.327 48.307 163.844 50.2452 168.626 50.8133L171.566 60.5523L174.513 50.8133C180.587 50.0937 186.187 47.1708 190.25 42.5985C194.313 38.0262 196.558 32.1223 196.559 26.0054Z" fill="#52BD94"/>
<path opacity="0.7" d="M196.559 26.0054C196.56 21.1893 195.169 16.4756 192.553 12.4317C189.937 8.38775 186.208 5.18601 181.816 3.2118C177.423 1.23758 172.553 0.575043 167.792 1.30393C163.031 2.03281 158.583 4.12205 154.982 7.32017C151.381 10.5183 148.781 14.689 147.495 19.3303C146.209 23.9716 146.292 28.8856 147.733 33.4809C149.175 38.0762 151.914 42.157 155.621 45.232C159.327 48.307 163.844 50.2452 168.626 50.8133L171.566 60.5523L174.513 50.8133C180.587 50.0937 186.187 47.1708 190.25 42.5985C194.313 38.0262 196.558 32.1223 196.559 26.0054Z" fill="white"/>
<path d="M166.453 39.032C166.415 39.0281 166.378 39.0168 166.345 38.9987C166.312 38.9807 166.282 38.9562 166.259 38.9267C166.235 38.8972 166.217 38.8633 166.207 38.8269C166.196 38.7905 166.193 38.7524 166.197 38.7148C166.538 34.9476 168.564 31.9075 170.065 29.6952C171.055 28.2099 171.829 27.0419 171.674 26.3457C171.64 26.2336 171.584 26.1297 171.508 26.0405C171.432 25.9514 171.338 25.8788 171.233 25.8274C170.919 25.6792 170.572 25.6116 170.225 25.6305C169.878 25.6494 169.542 25.7543 169.245 25.9357C166.924 27.0728 164.155 31.1262 163.521 36.3864C163.516 36.424 163.504 36.4603 163.486 36.4933C163.467 36.5263 163.442 36.5552 163.412 36.5786C163.383 36.6019 163.348 36.6192 163.312 36.6293C163.275 36.6395 163.237 36.6424 163.2 36.6378C163.162 36.6332 163.126 36.6213 163.093 36.6027C163.06 36.5841 163.031 36.5592 163.008 36.5294C162.984 36.4995 162.967 36.4654 162.957 36.429C162.947 36.3925 162.944 36.3544 162.948 36.3168C163.606 30.8555 166.553 26.6164 168.99 25.4097C169.37 25.179 169.803 25.05 170.247 25.0351C170.692 25.0202 171.132 25.1199 171.527 25.3246C171.703 25.4151 171.857 25.542 171.979 25.6967C172.102 25.8514 172.191 26.0304 172.239 26.2219C172.455 27.1579 171.651 28.3569 170.552 30.0123C169.106 32.1783 167.126 35.1487 166.793 38.769C166.79 38.8096 166.779 38.8492 166.76 38.8852C166.741 38.9211 166.715 38.9526 166.682 38.9775C166.65 39.0024 166.613 39.0201 166.573 39.0295C166.534 39.0389 166.493 39.0397 166.453 39.032Z" fill="#52BD94"/>
<path d="M167.783 39.5656C167.745 39.5637 167.707 39.5541 167.673 39.5373C167.638 39.5206 167.608 39.4971 167.582 39.4682C167.557 39.4394 167.538 39.4057 167.526 39.3693C167.514 39.3329 167.509 39.2944 167.512 39.2562C167.768 35.6978 169.833 32.797 171.442 30.4686C172.711 28.6585 173.801 27.0959 173.569 25.9047C173.484 25.5974 173.336 25.3111 173.135 25.0636C172.934 24.816 172.684 24.6126 172.401 24.4658C171.87 24.1109 171.254 23.9037 170.617 23.8656C169.979 23.8276 169.343 23.96 168.773 24.2492C165.849 25.5875 163.119 30.2443 162.415 35.079C162.403 35.1558 162.362 35.225 162.299 35.2714C162.237 35.3178 162.159 35.3376 162.082 35.3265C162.007 35.3133 161.939 35.2711 161.895 35.209C161.85 35.1468 161.831 35.0697 161.842 34.9939C162.569 29.9735 165.447 25.1234 168.534 23.7155C169.191 23.3888 169.922 23.2398 170.655 23.2832C171.388 23.3267 172.097 23.561 172.711 23.963C173.062 24.1514 173.37 24.4111 173.615 24.7255C173.86 25.0399 174.037 25.402 174.134 25.7886C174.42 27.2197 173.314 28.7977 171.914 30.7935C170.32 33.06 168.34 35.8912 168.093 39.3026C168.09 39.3402 168.079 39.3769 168.062 39.4105C168.045 39.4442 168.021 39.474 167.993 39.4985C167.964 39.5229 167.931 39.5415 167.895 39.553C167.859 39.5645 167.821 39.5688 167.783 39.5656Z" fill="#52BD94"/>
<path d="M165.4 38.4518C165.325 38.444 165.256 38.4074 165.207 38.3498C165.158 38.2922 165.133 38.2179 165.137 38.1424C165.424 34.5918 167.319 31.4821 168.448 29.6333C168.801 29.1147 169.101 28.5629 169.346 27.9856C168.123 28.1171 165.153 32.6269 164.55 37.3766C164.546 37.415 164.534 37.4522 164.516 37.4861C164.497 37.5199 164.472 37.5497 164.442 37.5735C164.411 37.5973 164.376 37.6148 164.339 37.6248C164.302 37.6349 164.263 37.6372 164.225 37.6318C164.149 37.6203 164.081 37.58 164.035 37.5194C163.989 37.4588 163.968 37.3826 163.977 37.307C164.565 32.6037 167.682 27.3977 169.346 27.3977C169.446 27.3876 169.547 27.4062 169.638 27.4514C169.728 27.4966 169.804 27.5665 169.856 27.653C170.08 28.063 169.701 28.6895 168.936 29.935C167.76 31.8689 165.981 34.7852 165.71 38.1965C165.7 38.2704 165.663 38.3378 165.605 38.3852C165.548 38.4325 165.475 38.4564 165.4 38.4518Z" fill="#52BD94"/>
<path d="M169.578 39.999C169.54 39.9981 169.502 39.9894 169.468 39.9735C169.433 39.9576 169.403 39.9348 169.377 39.9066C169.352 39.8783 169.332 39.8452 169.32 39.8092C169.308 39.7732 169.304 39.7351 169.307 39.6973C169.462 36.7655 171.21 33.9807 172.749 31.5286C175.008 27.9315 176.787 25.0849 173.708 22.741C173.064 22.2731 172.306 21.9856 171.513 21.9081C170.721 21.8306 169.922 21.9659 169.199 22.3001C165.571 23.6925 162.237 28.2874 161.339 33.2226C161.323 33.2973 161.278 33.3627 161.215 33.4058C161.152 33.4489 161.075 33.4664 160.999 33.4547C160.923 33.4397 160.857 33.3956 160.813 33.332C160.77 33.2683 160.753 33.1902 160.767 33.1143C161.734 27.9934 165.192 23.2206 168.99 21.7586C169.804 21.3838 170.704 21.235 171.595 21.3275C172.487 21.42 173.337 21.7506 174.057 22.2846C177.561 24.9456 175.464 28.2951 173.237 31.838C171.689 34.3443 170.034 36.9434 169.887 39.7282C169.881 39.8048 169.845 39.8761 169.788 39.9267C169.73 39.9773 169.654 40.0033 169.578 39.999Z" fill="#52BD94"/>
<path d="M172.301 40.0921C172.242 40.09 172.184 40.0705 172.136 40.0361C172.088 40.0017 172.051 39.954 172.03 39.8987C171.102 37.4466 172.27 33.8031 175.488 29.069C177.661 25.8819 181.228 26.3693 182.659 26.7483C182.695 26.7575 182.73 26.7737 182.76 26.7962C182.79 26.8186 182.816 26.8468 182.835 26.8791C182.855 26.9114 182.867 26.9473 182.873 26.9845C182.878 27.0218 182.877 27.0598 182.867 27.0964C182.858 27.133 182.842 27.1674 182.82 27.1977C182.797 27.228 182.769 27.2535 182.737 27.2729C182.704 27.2923 182.669 27.3052 182.631 27.3107C182.594 27.3163 182.556 27.3144 182.519 27.3053C181.204 26.9804 177.932 26.5317 175.967 29.4171C172.873 33.9192 171.728 37.4775 172.571 39.7131C172.586 39.7485 172.593 39.7866 172.593 39.8249C172.592 39.8632 172.583 39.901 172.567 39.9359C172.551 39.9707 172.528 40.0019 172.5 40.0275C172.471 40.053 172.438 40.0724 172.401 40.0844C172.369 40.0948 172.334 40.0975 172.301 40.0921Z" fill="#52BD94"/>
<path d="M174.737 39.6122C174.691 39.6122 174.644 39.601 174.603 39.5794C174.561 39.5579 174.525 39.5267 174.498 39.4884C172.432 36.5334 174.498 31.7529 177.708 29.1692C178.374 28.5594 179.211 28.1693 180.107 28.0517C181.002 27.934 181.912 28.0946 182.713 28.5117C182.753 28.5249 182.79 28.5467 182.821 28.5756C182.852 28.6044 182.876 28.6396 182.892 28.6787C182.909 28.7179 182.916 28.76 182.914 28.8023C182.913 28.8447 182.902 28.8861 182.883 28.9239C182.864 28.9616 182.837 28.9948 182.803 29.0211C182.77 29.0474 182.732 29.0663 182.691 29.0764C182.65 29.0864 182.607 29.0875 182.565 29.0795C182.524 29.0715 182.484 29.0546 182.45 29.0299C181.748 28.671 180.954 28.5349 180.173 28.64C179.391 28.7451 178.661 29.0862 178.079 29.6179C175.124 32.0081 173.121 36.5025 174.985 39.1558C175.007 39.1867 175.023 39.2216 175.031 39.2587C175.04 39.2957 175.041 39.334 175.035 39.3715C175.028 39.4089 175.014 39.4447 174.994 39.4767C174.973 39.5088 174.947 39.5364 174.915 39.558C174.863 39.5939 174.801 39.6128 174.737 39.6122Z" fill="#52BD94"/>
<path d="M176.269 38.9933C176.217 38.9927 176.167 38.9788 176.122 38.9531C176.077 38.9274 176.04 38.8906 176.014 38.8463C175.698 38.1892 175.523 37.4733 175.501 36.7446C175.478 36.0159 175.608 35.2905 175.882 34.615C176.54 32.7043 178.025 30.8555 179.324 30.2986C179.839 30.0889 180.396 30.0034 180.949 30.0491C181.503 30.0948 182.038 30.2704 182.512 30.5616C182.545 30.5804 182.574 30.6055 182.597 30.6355C182.62 30.6655 182.637 30.6998 182.647 30.7364C182.657 30.773 182.66 30.8113 182.655 30.849C182.651 30.8867 182.639 30.9231 182.62 30.9561C182.601 30.9891 182.576 31.0181 182.546 31.0414C182.516 31.0647 182.482 31.0819 182.445 31.0919C182.408 31.102 182.37 31.1047 182.332 31.1C182.295 31.0953 182.258 31.0832 182.225 31.0644C181.83 30.814 181.381 30.6622 180.915 30.6218C180.45 30.5814 179.981 30.6536 179.549 30.8323C178.543 31.2655 177.104 32.8668 176.455 34.8006C176.206 35.4002 176.085 36.0452 176.101 36.6941C176.117 37.343 176.269 37.9813 176.547 38.5678C176.583 38.6357 176.592 38.715 176.57 38.7888C176.548 38.8625 176.498 38.9248 176.431 38.9624C176.381 38.9876 176.325 38.9983 176.269 38.9933Z" fill="#52BD94"/>
<path d="M178.203 37.7865C178.161 37.788 178.12 37.7797 178.082 37.7622C178.045 37.7447 178.012 37.7186 177.986 37.6859C176.95 36.5411 177.259 34.5917 178.76 32.9131C179.121 32.4045 179.663 32.0542 180.275 31.9347C180.887 31.8152 181.522 31.9356 182.047 32.271C182.08 32.2902 182.109 32.3156 182.131 32.3459C182.154 32.3761 182.171 32.4106 182.18 32.4473C182.189 32.484 182.191 32.5222 182.186 32.5596C182.18 32.5971 182.168 32.6331 182.148 32.6656C182.108 32.7321 182.043 32.78 181.968 32.7988C181.892 32.8177 181.812 32.8059 181.746 32.7661C181.335 32.5017 180.838 32.4094 180.36 32.5093C179.882 32.6092 179.463 32.8932 179.193 33.2999C177.7 34.9707 177.754 36.5488 178.419 37.2991C178.473 37.354 178.503 37.4276 178.503 37.5041C178.503 37.5807 178.473 37.6542 178.419 37.7091C178.391 37.7371 178.357 37.7586 178.32 37.7719C178.282 37.7853 178.242 37.7903 178.203 37.7865Z" fill="#52BD94"/>
<path d="M179.58 36.5333C179.525 36.5333 179.472 36.5181 179.425 36.4895C179.379 36.4608 179.341 36.4197 179.317 36.3709C179.177 36.0908 179.118 35.7773 179.147 35.4657C179.176 35.1541 179.292 34.8568 179.481 34.6074C179.67 34.358 179.925 34.1665 180.217 34.0543C180.509 33.9422 180.827 33.914 181.135 33.9728C181.207 33.9963 181.268 34.0471 181.304 34.1145C181.34 34.1818 181.348 34.2605 181.327 34.3338C181.306 34.4072 181.257 34.4695 181.191 34.5075C181.124 34.5455 181.046 34.5563 180.972 34.5375C180.806 34.5023 180.634 34.5109 180.473 34.5624C180.311 34.614 180.166 34.7067 180.052 34.8315C179.863 34.9812 179.738 35.1957 179.699 35.4332C179.66 35.6706 179.712 35.9139 179.843 36.1156C179.86 36.15 179.869 36.1875 179.871 36.2258C179.874 36.2641 179.868 36.3024 179.855 36.3385C179.842 36.3745 179.822 36.4076 179.796 36.4358C179.77 36.464 179.738 36.4866 179.703 36.5024C179.666 36.5233 179.623 36.534 179.58 36.5333Z" fill="#52BD94"/>
<path d="M160.164 30.4377C160.084 30.4282 160.011 30.3898 159.959 30.3299C159.906 30.2699 159.877 30.1927 159.877 30.1128C160.661 26.9204 162.532 24.1005 165.169 22.1375C166.758 20.9627 168.463 19.9543 170.259 19.1283C171.526 18.6382 172.682 17.8961 173.654 16.9469C174.252 16.2765 174.638 15.4442 174.763 14.5549C174.888 13.6656 174.747 12.7592 174.358 11.9498C174.326 11.8799 174.323 11.8003 174.349 11.728C174.375 11.6557 174.428 11.5965 174.498 11.563C174.569 11.5336 174.648 11.5324 174.72 11.5597C174.792 11.587 174.851 11.6408 174.884 11.71C175.323 12.6194 175.484 13.6382 175.347 14.6386C175.209 15.639 174.779 16.5766 174.111 17.3337C173.092 18.3452 171.875 19.1352 170.537 19.6544C168.774 20.4643 167.099 21.4546 165.54 22.6093C163.029 24.4783 161.24 27.1557 160.473 30.1902C160.473 30.2281 160.464 30.2655 160.447 30.2997C160.431 30.3338 160.407 30.3639 160.377 30.3876C160.348 30.4113 160.313 30.4281 160.276 30.4368C160.239 30.4454 160.201 30.4457 160.164 30.4377Z" fill="#52BD94"/>
<path d="M160.063 25.8198C160.02 25.8306 159.975 25.8306 159.931 25.8198C159.898 25.8026 159.868 25.7789 159.843 25.7502C159.819 25.7214 159.801 25.6881 159.789 25.6521C159.777 25.6162 159.773 25.5783 159.776 25.5407C159.78 25.5031 159.79 25.4665 159.808 25.433C161.355 22.3388 164.58 20.5596 167.419 18.9893C170.073 17.5273 172.362 16.2664 172.765 14.3015C172.883 13.8183 172.873 13.3128 172.738 12.8342C172.602 12.3556 172.345 11.9204 171.991 11.5709C171.964 11.5442 171.942 11.5123 171.927 11.4771C171.912 11.4419 171.905 11.4041 171.905 11.3659C171.905 11.3277 171.912 11.2899 171.927 11.2547C171.942 11.2195 171.964 11.1876 171.991 11.1609C172.046 11.1075 172.119 11.0776 172.196 11.0776C172.273 11.0776 172.346 11.1075 172.401 11.1609C172.814 11.5834 173.114 12.1035 173.272 12.6729C173.43 13.2423 173.442 13.8425 173.306 14.4176C172.85 16.6299 170.444 17.9604 167.667 19.4921C164.89 21.0237 161.765 22.7487 160.295 25.6805C160.27 25.7206 160.236 25.7542 160.196 25.7784C160.156 25.8027 160.11 25.8168 160.063 25.8198Z" fill="#52BD94"/>
<path d="M160.063 23.267C160.012 23.282 159.959 23.282 159.908 23.267C159.843 23.2256 159.797 23.1602 159.779 23.0849C159.762 23.0096 159.775 22.9305 159.815 22.8647C161.115 20.7993 163.436 19.3915 165.679 18.03C167.922 16.6686 170.189 15.2916 170.475 13.5279C170.535 13.1542 170.463 12.7714 170.273 12.4443C170.083 12.1172 169.785 11.866 169.431 11.7333C169.365 11.6944 169.317 11.6321 169.295 11.5589C169.273 11.4857 169.28 11.407 169.315 11.3388C169.332 11.3048 169.357 11.2748 169.387 11.2504C169.416 11.2261 169.45 11.208 169.487 11.1972C169.524 11.1864 169.563 11.183 169.601 11.1874C169.639 11.1918 169.676 11.2038 169.709 11.2227C170.169 11.4144 170.551 11.7551 170.793 12.19C171.036 12.6249 171.126 13.1289 171.047 13.6207C170.715 15.6475 168.417 17.0476 165.981 18.5251C163.791 19.8556 161.533 21.2248 160.31 23.1664C160.28 23.202 160.242 23.2298 160.199 23.2473C160.156 23.2649 160.109 23.2716 160.063 23.267Z" fill="#52BD94"/>
<path d="M160.241 20.8611C160.186 20.8604 160.132 20.8442 160.085 20.8142C160.039 20.7843 160.002 20.7418 159.978 20.6917C159.955 20.6416 159.946 20.586 159.953 20.5311C159.959 20.4762 159.982 20.4244 160.016 20.3815C161.255 19.0402 162.686 17.8905 164.263 16.9701C166.097 15.7711 167.682 14.7346 167.806 13.5046C167.844 13.2602 167.8 13.0102 167.681 12.7933C167.562 12.5765 167.375 12.405 167.149 12.3056C167.082 12.2681 167.032 12.2058 167.01 12.132C166.989 12.0583 166.997 11.979 167.033 11.9111C167.05 11.8774 167.073 11.8475 167.102 11.8232C167.131 11.799 167.165 11.7809 167.201 11.77C167.237 11.7592 167.275 11.7558 167.313 11.7601C167.35 11.7644 167.387 11.7763 167.419 11.7951C167.747 11.9474 168.017 12.2011 168.19 12.5186C168.363 12.8362 168.429 13.2008 168.379 13.5588C168.232 15.0672 166.545 16.1734 164.58 17.4265C163.057 18.324 161.671 19.4364 160.465 20.7296C160.441 20.7677 160.408 20.7994 160.369 20.8223C160.33 20.8452 160.286 20.8585 160.241 20.8611Z" fill="#52BD94"/>
<path d="M161.471 17.3958C161.429 17.3947 161.388 17.3844 161.351 17.3657C161.313 17.347 161.28 17.3203 161.254 17.2875C161.227 17.2615 161.206 17.2303 161.191 17.1958C161.176 17.1612 161.168 17.124 161.168 17.0864C161.168 17.0488 161.176 17.0116 161.191 16.9771C161.206 16.9425 161.227 16.9113 161.254 16.8853C161.972 16.3129 162.751 15.8201 163.575 15.4155C164.349 15.021 164.967 14.642 165.014 14.348C165.04 14.1889 165.027 14.0258 164.977 13.8725C164.928 13.7191 164.842 13.5798 164.728 13.4662C164.674 13.4113 164.644 13.3378 164.644 13.2612C164.644 13.1846 164.674 13.1111 164.728 13.0562C164.754 13.0288 164.786 13.0071 164.821 12.9922C164.857 12.9774 164.894 12.9697 164.933 12.9697C164.971 12.9697 165.009 12.9774 165.044 12.9922C165.079 13.0071 165.111 13.0288 165.138 13.0562C165.309 13.2333 165.437 13.4475 165.513 13.6824C165.588 13.9172 165.608 14.1662 165.571 14.4099C165.493 15.0365 164.759 15.4233 163.83 15.957C163.045 16.3401 162.303 16.8069 161.618 17.3494C161.574 17.377 161.523 17.393 161.471 17.3958Z" fill="#52BD94"/>
<path d="M182.372 25.6726C179.015 25.6726 176.401 24.3112 175.356 22.0137C174.312 19.7163 175.31 18.1459 176.416 16.2662C176.968 15.2901 177.17 14.1548 176.988 13.0482C176.988 12.97 177.018 12.8946 177.071 12.8372C177.124 12.7798 177.197 12.7447 177.275 12.7388C177.311 12.7356 177.349 12.74 177.384 12.7517C177.419 12.7634 177.451 12.7821 177.478 12.8068C177.506 12.8314 177.528 12.8614 177.544 12.895C177.559 12.9285 177.568 12.9649 177.569 13.0018C177.763 14.2223 177.533 15.4725 176.919 16.5447C175.813 18.4476 175.008 19.8246 175.89 21.7662C176.857 23.9012 179.356 25.1311 182.581 25.0847C182.619 25.0837 182.658 25.0903 182.693 25.1042C182.729 25.1182 182.761 25.1391 182.789 25.1658C182.816 25.1924 182.838 25.2244 182.853 25.2596C182.868 25.2948 182.875 25.3327 182.875 25.3709C182.875 25.4476 182.845 25.5212 182.792 25.5761C182.738 25.631 182.666 25.6629 182.589 25.6649L182.372 25.6726Z" fill="#52BD94"/>
<path d="M181.908 23.7077C180.013 23.7077 178.535 22.9805 177.808 21.6423C177.494 21.081 177.348 20.4412 177.388 19.7992C177.428 19.1572 177.652 18.5402 178.033 18.0221C178.74 17.1292 179.187 16.0585 179.324 14.9278C179.336 14.8519 179.376 14.7833 179.436 14.7359C179.497 14.6884 179.573 14.6658 179.649 14.6726C179.687 14.6764 179.724 14.6877 179.757 14.7058C179.79 14.7238 179.819 14.7483 179.843 14.7778C179.867 14.8073 179.885 14.8413 179.895 14.8776C179.906 14.914 179.909 14.9521 179.905 14.9897C179.757 16.2273 179.269 17.3999 178.497 18.3779C178.183 18.8071 177.999 19.3177 177.967 19.8486C177.936 20.3794 178.058 20.9081 178.319 21.3715C179.023 22.6556 180.562 23.29 182.558 23.1043C182.634 23.0998 182.709 23.1244 182.768 23.1732C182.827 23.2221 182.865 23.2914 182.875 23.3673C182.879 23.4055 182.876 23.4442 182.865 23.4811C182.854 23.5179 182.835 23.5522 182.811 23.5818C182.786 23.6114 182.756 23.6357 182.722 23.6534C182.688 23.671 182.65 23.6816 182.612 23.6845C182.372 23.6999 182.14 23.7077 181.908 23.7077Z" fill="#52BD94"/>
<path d="M181.715 22.0913C181.362 22.1159 181.008 22.0595 180.681 21.9266C180.353 21.7936 180.06 21.5875 179.825 21.3241C179.589 21.0607 179.416 20.7468 179.32 20.4065C179.224 20.0662 179.207 19.7085 179.27 19.3607C179.496 18.5021 179.963 17.7262 180.616 17.1251L180.887 16.8002C180.939 16.7445 181.009 16.7108 181.085 16.7061C181.161 16.7014 181.235 16.7261 181.293 16.775C181.351 16.8238 181.388 16.8932 181.396 16.9685C181.404 17.0438 181.382 17.1193 181.336 17.1792L181.05 17.5041C180.491 18.0305 180.075 18.6908 179.843 19.4225C179.797 19.7204 179.823 20.0248 179.917 20.3111C180.011 20.5973 180.171 20.8574 180.384 21.0702C180.682 21.2907 181.028 21.4378 181.394 21.4996C181.759 21.5614 182.134 21.5362 182.488 21.4261C182.564 21.412 182.642 21.4274 182.707 21.4691C182.772 21.5108 182.818 21.5756 182.837 21.6504C182.844 21.6885 182.845 21.7278 182.837 21.766C182.83 21.8042 182.815 21.8405 182.793 21.8729C182.772 21.9053 182.744 21.9331 182.711 21.9546C182.679 21.9762 182.643 21.9911 182.604 21.9985C182.311 22.0568 182.014 22.0879 181.715 22.0913Z" fill="#52BD94"/>
<path d="M182.318 20.3972H182.217C182.102 20.3613 181.995 20.3013 181.905 20.2213C181.814 20.1414 181.741 20.0431 181.691 19.9331C181.637 19.7766 181.616 19.6105 181.629 19.4453C181.642 19.2802 181.69 19.1196 181.769 18.9739C181.782 18.9351 181.803 18.8994 181.831 18.8692C181.858 18.839 181.892 18.8149 181.93 18.7985C181.967 18.7821 182.008 18.7737 182.049 18.7739C182.09 18.7741 182.13 18.7829 182.168 18.7997C182.205 18.8165 182.239 18.841 182.266 18.8715C182.293 18.902 182.314 18.9379 182.327 18.9769C182.339 19.0159 182.344 19.0571 182.34 19.0979C182.335 19.1387 182.323 19.1781 182.302 19.2137C182.222 19.3625 182.192 19.5337 182.217 19.701C182.237 19.7379 182.265 19.7701 182.298 19.7954C182.332 19.8208 182.37 19.8387 182.411 19.848C182.447 19.8601 182.481 19.8795 182.51 19.9049C182.538 19.9303 182.562 19.9613 182.579 19.9959C182.595 20.0306 182.605 20.0682 182.606 20.1066C182.608 20.145 182.602 20.1833 182.589 20.2193C182.566 20.2722 182.528 20.3173 182.48 20.3489C182.432 20.3806 182.376 20.3974 182.318 20.3972Z" fill="#52BD94"/>
<path d="M173.964 21.2399C173.886 21.2397 173.811 21.2092 173.755 21.1549C173.298 20.7678 172.734 20.5302 172.138 20.4741C172.076 20.4649 172.018 20.4358 171.974 20.3912C171.929 20.3467 171.9 20.2889 171.891 20.2266C171.883 20.1637 171.896 20.1 171.928 20.0454C171.96 19.9908 172.01 19.9484 172.069 19.9249C172.641 19.6865 173.175 19.366 173.654 18.9734C173.7 18.9321 173.755 18.9044 173.816 18.8934C173.876 18.8825 173.938 18.8888 173.995 18.9115C174.049 18.9394 174.094 18.9832 174.123 19.0371C174.152 19.091 174.164 19.1524 174.157 19.2132C174.082 19.7574 174.108 20.3108 174.235 20.8454C174.258 20.908 174.259 20.9766 174.238 21.0398C174.216 21.1031 174.174 21.1573 174.119 21.1935C174.073 21.2239 174.019 21.2401 173.964 21.2399ZM173.036 20.0951C173.212 20.1527 173.382 20.2251 173.546 20.3117C173.546 20.1338 173.546 19.9636 173.546 19.8011C173.381 19.9079 173.211 20.0061 173.036 20.0951Z" fill="#52BD94"/>
<path d="M176.578 26.7793C176.543 26.7798 176.507 26.7732 176.474 26.7599C176.441 26.7467 176.41 26.7269 176.385 26.7019C176.338 26.6619 176.306 26.6076 176.294 26.5475C176.281 26.4873 176.289 26.4246 176.315 26.3693C176.477 25.9805 176.52 25.5526 176.439 25.1393C176.424 25.0794 176.428 25.016 176.452 24.9589C176.476 24.9017 176.517 24.8537 176.571 24.8222C176.621 24.7839 176.682 24.7632 176.745 24.7632C176.808 24.7632 176.869 24.7839 176.919 24.8222C177.322 25.116 177.775 25.3336 178.257 25.4642C178.319 25.4831 178.374 25.5222 178.412 25.5754C178.45 25.6286 178.469 25.6929 178.466 25.7582C178.465 25.8233 178.441 25.8861 178.399 25.9356C178.356 25.985 178.298 26.0181 178.234 26.0289C177.706 26.1951 177.199 26.4236 176.725 26.7097C176.683 26.7452 176.633 26.7692 176.578 26.7793ZM177.058 25.6422C177.065 25.7323 177.065 25.8228 177.058 25.9129L177.352 25.7737L177.058 25.6422Z" fill="#52BD94"/>
<path d="M171.573 60.9391C171.491 60.9396 171.41 60.9136 171.343 60.8649C171.276 60.8161 171.227 60.7473 171.202 60.6684L168.332 51.1614C161.939 50.3377 156.099 47.1108 152 42.1364C147.9 37.162 145.848 30.8134 146.261 24.3806C146.673 17.9477 149.52 11.9133 154.221 7.5036C158.923 3.09387 165.127 0.639648 171.573 0.639648C178.019 0.639648 184.224 3.09387 188.925 7.5036C193.627 11.9133 196.473 17.9477 196.886 24.3806C197.299 30.8134 195.247 37.162 191.147 42.1364C187.048 47.1108 181.208 50.3377 174.815 51.1614L171.945 60.6684C171.92 60.7473 171.87 60.8161 171.804 60.8649C171.737 60.9136 171.656 60.9396 171.573 60.9391ZM171.573 1.41412C165.301 1.41087 159.264 3.80479 154.698 8.10605C150.132 12.4073 147.383 18.2907 147.012 24.5525C146.642 30.8142 148.678 36.9809 152.704 41.7907C156.731 46.6005 162.443 49.6898 168.673 50.4265C168.748 50.4332 168.819 50.4627 168.877 50.5111C168.935 50.5595 168.977 50.6244 168.997 50.6973L171.573 59.2064L174.149 50.6973C174.17 50.625 174.213 50.5606 174.27 50.5124C174.328 50.4641 174.399 50.4342 174.474 50.4265C180.703 49.6898 186.416 46.6005 190.442 41.7907C194.469 36.9809 196.505 30.8142 196.134 24.5525C195.764 18.2907 193.014 12.4073 188.449 8.10605C183.883 3.80479 177.846 1.41087 171.573 1.41412Z" fill="#52BD94"/>
<g opacity="0.7">
<path opacity="0.7" d="M171.574 60.9391C171.491 60.9396 171.41 60.9136 171.343 60.8649C171.277 60.8161 171.227 60.7473 171.202 60.6684L168.332 51.1614C161.939 50.3377 156.099 47.1108 152 42.1364C147.9 37.162 145.848 30.8134 146.261 24.3806C146.674 17.9477 149.52 11.9133 154.222 7.5036C158.923 3.09387 165.128 0.639648 171.574 0.639648C178.02 0.639648 184.224 3.09387 188.926 7.5036C193.627 11.9133 196.474 17.9477 196.886 24.3806C197.299 30.8134 195.247 37.162 191.147 42.1364C187.048 47.1108 181.208 50.3377 174.815 51.1614L171.945 60.6684C171.92 60.7473 171.871 60.8161 171.804 60.8649C171.737 60.9136 171.656 60.9396 171.574 60.9391ZM171.574 1.41412C165.301 1.41087 159.264 3.80479 154.698 8.10605C150.133 12.4073 147.383 18.2907 147.013 24.5525C146.642 30.8142 148.678 36.9809 152.705 41.7907C156.731 46.6005 162.443 49.6898 168.673 50.4265C168.748 50.4332 168.82 50.4627 168.878 50.5111C168.936 50.5595 168.978 50.6244 168.998 50.6973L171.574 59.2064L174.15 50.6973C174.171 50.625 174.213 50.5606 174.271 50.5124C174.329 50.4641 174.4 50.4342 174.474 50.4265C180.704 49.6898 186.416 46.6005 190.443 41.7907C194.469 36.9809 196.505 30.8142 196.135 24.5525C195.764 18.2907 193.015 12.4073 188.449 8.10605C183.883 3.80479 177.846 1.41087 171.574 1.41412Z" fill="#52BD94"/>
</g>
<path d="M82.762 77.7096C79.3579 74.305 77.0103 69.9892 76.0018 65.2815C74.9932 60.5739 75.3666 55.6751 77.0771 51.1748C78.7875 46.6744 81.7621 42.7642 85.6429 39.9149C89.5237 37.0656 94.1452 35.3985 98.9512 35.1144C103.757 34.8302 108.543 35.941 112.733 38.3132C116.922 40.6853 120.337 44.2177 122.566 48.4851C124.795 52.7525 125.743 57.5732 125.296 62.3669C124.849 67.1605 123.026 71.7229 120.047 75.505L124.851 84.4782L115.878 79.6667C111.075 83.4499 105.051 85.3402 98.9481 84.9796C92.8448 84.6189 87.0858 82.0322 82.762 77.7096Z" fill="#52BD94"/>
<path opacity="0.7" d="M82.762 77.7096C79.3579 74.305 77.0103 69.9892 76.0018 65.2815C74.9932 60.5739 75.3666 55.6751 77.0771 51.1748C78.7875 46.6744 81.7621 42.7642 85.6429 39.9149C89.5237 37.0656 94.1452 35.3985 98.9512 35.1144C103.757 34.8302 108.543 35.941 112.733 38.3132C116.922 40.6853 120.337 44.2177 122.566 48.4851C124.795 52.7525 125.743 57.5732 125.296 62.3669C124.849 67.1605 123.026 71.7229 120.047 75.505L124.851 84.4782L115.878 79.6667C111.075 83.4499 105.051 85.3402 98.9481 84.9796C92.8448 84.6189 87.0858 82.0322 82.762 77.7096Z" fill="white"/>
<path d="M104.228 50.5501L95.7885 48.7168L87.3413 50.5501V72.666L95.7885 70.8327L104.228 72.666L112.667 70.8327V48.7168L104.228 50.5501Z" fill="#52BD94"/>
<path opacity="0.4" d="M104.228 50.5501L95.7885 48.7168L87.3413 50.5501V72.666L95.7885 70.8327L104.228 72.666L112.667 70.8327V48.7168L104.228 50.5501Z" fill="white"/>
<path d="M111.809 49.7843V70.1365L104.228 71.7919L98.3028 70.5001L96.044 70.0127L95.7888 69.9508L88.2002 71.6062V51.2463L90.5131 50.7435L92.4934 50.318L95.7888 49.5986L104.228 51.432L107.013 50.8286L109.96 50.1865L111.809 49.7843Z" fill="#52BD94"/>
<path opacity="0.3" d="M111.809 59.9642L111.136 60.1576L111.809 62.486V66.4234L110.092 60.4516L96.5314 64.3426L98.3028 70.5L96.044 70.0127L94.5743 64.9073L88.2002 66.7328V64.621L94.0096 62.9579L92.4393 57.4579L88.2002 58.6801V57.4502L92.1144 56.3208L90.5131 50.7435L92.4934 50.318L95.9667 62.3932L103.13 60.3355L101.853 55.8954H101.861L101.853 55.8799L107.013 50.8286L109.96 50.1865L103.803 56.228L104.847 59.8482L111.809 57.8447V59.9642Z" fill="white"/>
<path opacity="0.2" d="M95.7886 48.7168V70.8327L104.228 72.666V50.5501L95.7886 48.7168Z" fill="white"/>
<path d="M106.974 63.9635C106.474 63.4629 105.795 63.1816 105.087 63.1816C104.379 63.1816 103.7 63.4629 103.199 63.9635C102.699 64.464 102.417 65.143 102.417 65.8509C102.417 66.5589 102.699 67.2378 103.199 67.7384L105.087 69.6181L106.974 67.7384C107.222 67.4906 107.419 67.1963 107.553 66.8725C107.687 66.5486 107.756 66.2015 107.756 65.8509C107.756 65.5004 107.687 65.1533 107.553 64.8294C107.419 64.5055 107.222 64.2113 106.974 63.9635ZM105.822 66.5858C105.626 66.7795 105.362 66.8881 105.087 66.8881C104.812 66.8881 104.547 66.7795 104.352 66.5858C104.158 66.3903 104.05 66.1262 104.05 65.8509C104.05 65.5757 104.158 65.3116 104.352 65.1161C104.448 65.0196 104.563 64.943 104.689 64.8908C104.815 64.8385 104.95 64.8117 105.087 64.8117C105.223 64.8117 105.358 64.8385 105.484 64.8908C105.611 64.943 105.725 65.0196 105.822 65.1161C105.918 65.2126 105.995 65.3271 106.047 65.4532C106.099 65.5793 106.126 65.7145 106.126 65.8509C106.126 65.9874 106.099 66.1225 106.047 66.2486C105.995 66.3747 105.918 66.4893 105.822 66.5858Z" fill="white"/>
<path d="M100.422 85.4219C94.6908 85.4278 89.1263 83.4931 84.6349 79.9328C80.1434 76.3726 76.9897 71.3965 75.6873 65.8151C74.3848 60.2337 75.0105 54.3757 77.4623 49.1953C79.9141 44.0148 84.0477 39.8171 89.1897 37.2857C94.3318 34.7543 100.179 34.0384 105.78 35.2546C111.381 36.4709 116.405 39.5475 120.034 43.9836C123.663 48.4196 125.684 53.9536 125.766 59.6844C125.848 65.4152 123.988 71.0051 120.488 75.5436L125.184 84.2925C125.221 84.3663 125.235 84.4501 125.223 84.532C125.21 84.6139 125.172 84.6898 125.114 84.7489C125.056 84.8081 124.98 84.8468 124.897 84.8593C124.815 84.8718 124.731 84.8576 124.658 84.8186L115.909 80.1308C111.476 83.5624 106.028 85.4236 100.422 85.4219ZM100.422 35.4658C96.4998 35.4636 92.6338 36.3998 89.1468 38.1961C85.6599 39.9924 82.6532 42.5967 80.3778 45.7917C78.1025 48.9867 76.6243 52.6796 76.0669 56.5622C75.5095 60.4448 75.8889 64.4045 77.1734 68.1106C78.458 71.8167 80.6105 75.1617 83.4511 77.8665C86.2918 80.5713 89.7383 82.5574 93.5029 83.6588C97.2675 84.7603 101.241 84.9453 105.092 84.1984C108.942 83.4514 112.558 81.7942 115.638 79.365C115.698 79.3192 115.77 79.2913 115.845 79.2845C115.92 79.2777 115.996 79.2922 116.063 79.3263L123.907 83.5345L119.707 75.6906C119.665 75.6275 119.643 75.5535 119.643 75.4779C119.643 75.4023 119.665 75.3283 119.707 75.2652C122.568 71.6389 124.35 67.2797 124.847 62.6874C125.344 58.095 124.537 53.4555 122.519 49.3008C120.5 45.1461 117.351 41.6445 113.433 39.1975C109.515 36.7505 104.987 35.4572 100.368 35.4658H100.422Z" fill="#52BD94"/>
<path d="M149.249 118.901H147.315V119.674H149.249V118.901Z" fill="#52BD94"/>
<path d="M144.994 119.675H141.127V118.901H144.994V119.675ZM138.806 119.675H134.938V118.901H138.806V119.675ZM132.617 119.675H128.75V118.901H132.617V119.675ZM126.429 119.675H122.561V118.901H126.429V119.675ZM120.241 119.675H116.373V118.901H120.241V119.675ZM114.052 119.675H110.184V118.901H114.052V119.675ZM107.864 119.675H103.996V118.901H107.864V119.675ZM101.675 119.675H97.8075V118.901H101.675V119.675ZM95.4405 119.04L92.8181 116.31L93.3673 115.76L96.098 118.491L95.4405 119.04ZM91.0776 114.67L88.347 111.947L88.8962 111.398L91.6191 114.128L91.0776 114.67ZM86.707 110.307L83.9841 107.576L84.5256 107.035L87.2563 109.758L86.707 110.307Z" fill="#52BD94"/>
<path d="M81.625 104.031L81.0779 104.578L82.4451 105.946L82.9922 105.399L81.625 104.031Z" fill="#52BD94"/>
<path d="M80.8588 105.186C80.5862 105.186 80.3197 105.105 80.0931 104.953C79.8665 104.801 79.69 104.586 79.586 104.334C79.482 104.082 79.4552 103.804 79.509 103.537C79.5627 103.27 79.6946 103.024 79.888 102.832C80.0813 102.64 80.3274 102.509 80.595 102.457C80.8626 102.405 81.1397 102.433 81.3911 102.539C81.6426 102.644 81.8571 102.822 82.0075 103.049C82.1578 103.277 82.2373 103.544 82.2358 103.816C82.2337 104.18 82.0877 104.528 81.8297 104.785C81.5717 105.041 81.2227 105.186 80.8588 105.186ZM80.8588 103.213C80.7395 103.213 80.6229 103.248 80.5236 103.315C80.4244 103.381 80.3471 103.475 80.3014 103.585C80.2557 103.696 80.2438 103.817 80.2671 103.934C80.2903 104.051 80.3478 104.159 80.4322 104.243C80.5166 104.327 80.6241 104.385 80.7411 104.408C80.8582 104.431 80.9795 104.419 81.0897 104.374C81.2 104.328 81.2942 104.251 81.3605 104.152C81.4268 104.052 81.4622 103.936 81.4622 103.816C81.4622 103.656 81.3986 103.503 81.2855 103.39C81.1723 103.277 81.0189 103.213 80.8588 103.213Z" fill="#52BD94"/>
<path d="M193.736 80.1689H149.419C147.966 80.1689 146.789 81.3465 146.789 82.799V127.039C146.789 128.491 147.966 129.669 149.419 129.669H193.736C195.188 129.669 196.366 128.491 196.366 127.039V82.799C196.366 81.3465 195.188 80.1689 193.736 80.1689Z" fill="#52BD94"/>
<path opacity="0.4" d="M189.025 114.816H154.114C153.435 114.816 152.884 115.367 152.884 116.046V122.529C152.884 123.208 153.435 123.759 154.114 123.759H189.025C189.704 123.759 190.255 123.208 190.255 122.529V116.046C190.255 115.367 189.704 114.816 189.025 114.816Z" fill="white"/>
<path d="M158.609 119.287L159.668 119.868L159.305 120.502L158.23 119.868V121.067H157.526V119.875L156.458 120.502L156.087 119.868L157.154 119.287L156.087 118.7L156.458 118.058L157.526 118.692V117.508H158.23V118.707L159.305 118.065L159.668 118.707L158.609 119.287Z" fill="#263238"/>
<path d="M163.211 119.287L164.271 119.868L163.908 120.502L162.832 119.868V121.067H162.129V119.875L161.061 120.502L160.69 119.868L161.757 119.287L160.69 118.7L161.061 118.058L162.129 118.692V117.508H162.832V118.707L163.908 118.065L164.271 118.707L163.211 119.287Z" fill="#263238"/>
<path d="M167.737 119.287L168.797 119.868L168.433 120.502L167.358 119.868V121.067H166.654V119.875L165.586 120.502L165.215 119.868L166.283 119.287L165.215 118.7L165.586 118.058L166.654 118.692V117.508H167.358V118.707L168.433 118.065L168.797 118.707L167.737 119.287Z" fill="#263238"/>
<path d="M172.301 119.287L173.353 119.868L172.997 120.502L171.922 119.868V121.067H171.218V119.875L170.15 120.502L169.779 119.868L170.846 119.287L169.779 118.7L170.15 118.058L171.218 118.692V117.508H171.922V118.707L172.997 118.065L173.353 118.707L172.301 119.287Z" fill="#263238"/>
<path d="M176.865 119.288L177.917 119.868L177.561 120.502L176.478 119.868V121.067H175.766V119.876L174.699 120.502L174.327 119.868L175.395 119.288L174.327 118.7L174.699 118.058L175.766 118.692V117.501H176.478V118.7L177.561 118.058L177.917 118.7L176.865 119.288Z" fill="#263238"/>
<path d="M181.421 119.287L182.481 119.868L182.117 120.502L181.042 119.868V121.067H180.338V119.875L179.278 120.502L178.907 119.868L179.967 119.287L178.907 118.7L179.278 118.058L180.338 118.692V117.508H181.042V118.707L182.117 118.065L182.481 118.707L181.421 119.287Z" fill="#263238"/>
<path d="M185.985 119.287L187.044 119.868L186.681 120.502L185.606 119.868V121.067H184.902V119.875L183.834 120.502L183.463 119.868L184.53 119.287L183.463 118.7L183.834 118.058L184.902 118.692V117.508H185.644V118.707L186.72 118.065L187.083 118.707L185.985 119.287Z" fill="#263238"/>
<path d="M177.909 96.8933H176.362V95.3926C176.362 94.8166 176.248 94.2463 176.028 93.7142C175.807 93.182 175.484 92.6985 175.077 92.2912C174.67 91.8839 174.186 91.5609 173.654 91.3404C173.122 91.12 172.552 91.0066 171.976 91.0066C171.4 91.0066 170.829 91.12 170.297 91.3404C169.765 91.5609 169.282 91.8839 168.874 92.2912C168.467 92.6985 168.144 93.182 167.923 93.7142C167.703 94.2463 167.59 94.8166 167.59 95.3926V96.8933H166.042V95.3926C166.042 93.8191 166.668 92.3099 167.78 91.1973C168.893 90.0846 170.402 89.4595 171.976 89.4595C173.549 89.4595 175.058 90.0846 176.171 91.1973C177.284 92.3099 177.909 93.8191 177.909 95.3926V96.8933Z" fill="white"/>
<path d="M178.744 97.7056H165.254C164.946 97.7056 164.651 97.8278 164.433 98.0454C164.216 98.263 164.093 98.5582 164.093 98.8659V106.857C164.095 107.163 164.218 107.456 164.436 107.672C164.653 107.888 164.947 108.009 165.254 108.009H178.744C179.051 108.009 179.345 107.888 179.562 107.672C179.78 107.456 179.903 107.163 179.905 106.857V98.8659C179.905 98.5582 179.782 98.263 179.565 98.0454C179.347 97.8278 179.052 97.7056 178.744 97.7056ZM172.494 102.927V105.464H171.55V102.927C171.246 102.816 170.991 102.602 170.829 102.321C170.668 102.041 170.61 101.713 170.666 101.394C170.723 101.075 170.889 100.787 171.137 100.579C171.385 100.371 171.699 100.257 172.022 100.257C172.346 100.257 172.659 100.371 172.907 100.579C173.155 100.787 173.322 101.075 173.378 101.394C173.434 101.713 173.377 102.041 173.215 102.321C173.053 102.602 172.798 102.816 172.494 102.927Z" fill="white"/>
<path d="M27.2979 174.079H103.771C104.633 174.079 105.46 174.421 106.069 175.031C106.678 175.64 107.02 176.466 107.02 177.328V186.874H24.0413V177.328C24.0413 176.901 24.1256 176.478 24.2893 176.083C24.4531 175.688 24.6931 175.33 24.9956 175.028C25.2981 174.726 25.6572 174.487 26.0522 174.324C26.4473 174.161 26.8706 174.078 27.2979 174.079Z" fill="#52BD94"/>
<path opacity="0.6" d="M27.2979 174.079H103.771C104.633 174.079 105.46 174.421 106.069 175.031C106.678 175.64 107.02 176.466 107.02 177.328V186.874H24.0413V177.328C24.0413 176.901 24.1256 176.478 24.2893 176.083C24.4531 175.688 24.6931 175.33 24.9956 175.028C25.2981 174.726 25.6572 174.487 26.0522 174.324C26.4473 174.161 26.8706 174.078 27.2979 174.079Z" fill="white"/>
<path opacity="0.6" d="M27.2979 174.079H50.8604C51.7221 174.079 52.5484 174.421 53.1577 175.031C53.767 175.64 54.1093 176.466 54.1093 177.328V186.874H24.0413V177.328C24.0413 176.901 24.1256 176.478 24.2893 176.083C24.4531 175.688 24.6931 175.33 24.9956 175.028C25.2981 174.726 25.6572 174.487 26.0522 174.324C26.4473 174.161 26.8706 174.078 27.2979 174.079Z" fill="white"/>
<path d="M81.2301 244.859H78.7624L77.1147 186.177H81.2301V244.859Z" fill="#2E353A"/>
<path d="M26.3541 244.859H23.8865V186.177H28.0018L26.3541 244.859Z" fill="#2E353A"/>
<path d="M51.3631 244.859H48.8955V186.177H53.0108L51.3631 244.859Z" fill="#2E353A"/>
<path d="M106.239 244.859H103.771L102.124 186.177H106.239V244.859Z" fill="#2E353A"/>
<path d="M108.993 186.177H23.0511C22.4316 186.177 21.9294 186.679 21.9294 187.299V191.584C21.9294 192.204 22.4316 192.706 23.0511 192.706H108.993C109.612 192.706 110.115 192.204 110.115 191.584V187.299C110.115 186.679 109.612 186.177 108.993 186.177Z" fill="#52BD94"/>
<path opacity="0.3" d="M108.993 186.177H23.0511C22.4316 186.177 21.9294 186.679 21.9294 187.299V191.584C21.9294 192.204 22.4316 192.706 23.0511 192.706H108.993C109.612 192.706 110.115 192.204 110.115 191.584V187.299C110.115 186.679 109.612 186.177 108.993 186.177Z" fill="white"/>
<path d="M67.1669 113.069C67.1391 113.077 67.1096 113.077 67.0818 113.069C67.0587 113.057 67.0382 113.041 67.0214 113.022C67.0046 113.002 66.9918 112.979 66.9839 112.955C66.976 112.93 66.973 112.905 66.9752 112.879C66.9774 112.853 66.9847 112.828 66.9967 112.806C68.5438 109.711 66.548 103.562 64.3975 100.483C63.7848 99.6019 63.4174 98.5737 63.3331 97.5039C63.2489 96.4341 63.4507 95.3611 63.9179 94.395C63.9439 94.3512 63.9854 94.3189 64.0342 94.3046C64.083 94.2902 64.1354 94.2949 64.1809 94.3176C64.2248 94.3435 64.2568 94.3856 64.2698 94.4348C64.2829 94.4841 64.2759 94.5365 64.2506 94.5806C63.8185 95.4835 63.6338 96.4848 63.7154 97.4823C63.7969 98.4798 64.1418 99.4379 64.7147 100.259C66.9193 103.422 68.9847 109.789 67.337 112.983C67.319 113.012 67.2936 113.035 67.2637 113.049C67.2337 113.064 67.2003 113.071 67.1669 113.069Z" fill="#263238"/>
<path d="M65.1014 94.4647C65.1014 94.4647 69.3637 84.9887 61.6901 79.5274C55.5016 75.1104 45.6234 77.8023 42.1578 88.5315C38.9321 98.4795 43.9912 98.7811 38.4834 103.763C32.9757 108.745 33.1382 112.891 38.1044 119.891C43.0706 126.892 53.8617 128.88 59.8413 123.96C65.8208 119.041 66.5248 106.393 63.8792 101.187C61.2337 95.9809 65.1014 94.4647 65.1014 94.4647Z" fill="#263238"/>
<path d="M33.3858 114.028C33.3489 114.029 33.3125 114.019 33.281 114C33.2495 113.981 33.2241 113.953 33.2079 113.92C31.4519 110.47 34.4688 106.958 37.1375 103.863C38.2606 102.679 39.2347 101.362 40.0384 99.9415C40.6727 98.5955 40.5489 96.9711 40.4097 95.0914C40.1776 91.9971 39.8914 88.083 43.1249 83.7975C48.238 77.0057 56.136 78.9473 56.2211 78.9705C56.2701 78.9833 56.3121 79.0147 56.3381 79.0581C56.3641 79.1015 56.3721 79.1533 56.3604 79.2025C56.3459 79.2521 56.3129 79.2942 56.2683 79.3201C56.2237 79.346 56.1708 79.3538 56.1206 79.3418C56.0432 79.3418 48.385 77.4466 43.4343 84.0295C40.2859 88.2067 40.5567 91.8502 40.7965 95.0604C40.9357 96.9943 41.0595 98.6652 40.3942 100.112C39.5742 101.563 38.5763 102.907 37.4238 104.111C34.8401 107.12 31.9083 110.524 33.556 113.742C33.5781 113.788 33.5816 113.841 33.5658 113.89C33.55 113.939 33.516 113.98 33.4709 114.005L33.3858 114.028Z" fill="#263238"/>
<path d="M65.7437 110.075C67.7704 109.657 72.0327 120.193 72.0327 120.193L71.3443 115.652L75.212 115.018C75.212 115.018 79.2887 129.391 75.622 130.288C73.5025 130.799 67.7163 125.005 64.1812 120.758L65.7437 110.075Z" fill="#EBB376"/>
<path opacity="0.1" d="M65.7437 110.075C67.7704 109.657 72.0327 120.193 72.0327 120.193L71.3443 115.652L75.212 115.018C75.212 115.018 79.2887 129.391 75.622 130.288C73.5025 130.799 67.7163 125.005 64.1812 120.758L65.7437 110.075Z" fill="black"/>
<path d="M98.0318 237.936L93.638 237.488L93.5297 231.299L93.4446 225.613L98.7512 225.289L98.3721 231.988L98.0318 237.936Z" fill="#EBB376"/>
<path d="M92.462 237.456C92.4079 236.977 98.3875 236.528 98.3875 236.528C98.3875 236.528 102.557 239.73 106.208 240.071C109.859 240.411 108.188 242.809 104.228 243.358L94.4346 244.728C91.6189 245.145 93.0422 242.476 92.462 237.456Z" fill="#2E353A"/>
<path d="M101.397 237.657C100.634 237.613 99.8795 237.47 99.1533 237.232C99.1236 237.224 99.0968 237.208 99.0759 237.185C99.0574 237.138 99.0574 237.086 99.0759 237.038C99.0759 236.976 99.4008 235.491 100.167 235.058C100.282 234.988 100.41 234.944 100.543 234.928C100.677 234.912 100.812 234.925 100.94 234.965C101.319 235.081 101.412 235.29 101.42 235.437C101.42 235.739 101.134 236.079 100.731 236.389C101.131 236.276 101.554 236.276 101.954 236.389C102.041 236.421 102.121 236.47 102.189 236.534C102.257 236.598 102.311 236.675 102.348 236.76C102.405 236.868 102.43 236.991 102.419 237.113C102.408 237.235 102.362 237.352 102.286 237.448C102.159 237.54 102.015 237.606 101.862 237.642C101.71 237.678 101.551 237.683 101.397 237.657ZM99.7799 237.023C100.685 237.255 101.737 237.41 101.969 237.162C102.023 237.108 102.015 237.007 101.969 236.876C101.952 236.836 101.926 236.8 101.894 236.771C101.862 236.742 101.825 236.72 101.783 236.706C101.099 236.622 100.405 236.732 99.7799 237.023ZM100.6 235.267C100.496 235.269 100.395 235.298 100.306 235.352C99.9026 235.7 99.6186 236.165 99.4936 236.683C100.267 236.242 101.041 235.685 101.041 235.445C101.041 235.398 100.956 235.344 100.824 235.298C100.751 235.278 100.676 235.267 100.6 235.267Z" fill="#577AFA"/>
<path opacity="0.2" d="M98.3566 232.118L93.5219 231.414L93.4368 225.675L98.7433 225.319L98.3566 232.118Z" fill="black"/>
<path d="M110.44 170.636C109.279 164.046 100.321 157.339 65.5734 151.661L49.3906 175.966C49.3906 175.966 73.0459 174.86 94.6049 174.86C94.6049 174.86 91.5648 209.059 92.8179 228.769L99.1998 228.885C99.1998 228.885 111.608 177.235 110.44 170.636Z" fill="#2E353A"/>
<path opacity="0.3" d="M110.44 170.636C109.279 164.046 100.321 157.339 65.5734 151.661L49.3906 175.966C49.3906 175.966 73.0459 174.86 94.6049 174.86C94.6049 174.86 91.5648 209.059 92.8179 228.769L99.1998 228.885C99.1998 228.885 111.608 177.235 110.44 170.636Z" fill="black"/>
<path d="M73.9665 238.57L69.6887 237.472L70.5087 231.33L71.2745 225.698L76.5656 226.17L75.1964 232.738L73.9665 238.57Z" fill="#EBB376"/>
<path d="M68.5361 237.263C68.5361 236.776 74.5312 237.263 74.5312 237.263C74.5312 237.263 78.1669 241.053 81.733 241.904C85.299 242.755 83.2801 244.913 79.2808 244.859L69.387 244.743C66.5172 244.712 68.3505 242.314 68.5361 237.263Z" fill="#2E353A"/>
<path d="M77.6796 238.825C76.8051 238.717 75.9566 238.455 75.1733 238.051L75.1192 238.013C75.1166 237.995 75.1166 237.977 75.1192 237.959C75.1098 237.937 75.105 237.913 75.105 237.889C75.105 237.865 75.1098 237.841 75.1192 237.819C75.1192 237.765 75.6684 236.357 76.4961 236.025C76.618 235.971 76.7497 235.943 76.8829 235.943C77.0161 235.943 77.1478 235.971 77.2696 236.025C77.6255 236.203 77.6874 236.412 77.6719 236.559C77.6719 236.86 77.2929 237.154 76.8519 237.394C77.2636 237.343 77.6814 237.407 78.0587 237.58C78.1403 237.623 78.2115 237.683 78.2676 237.757C78.3236 237.83 78.3632 237.915 78.3836 238.005C78.4282 238.119 78.4366 238.244 78.4075 238.363C78.3784 238.482 78.3134 238.59 78.2211 238.67C78.064 238.783 77.8726 238.838 77.6796 238.825ZM75.7999 237.928C76.6585 238.291 77.6796 238.608 77.9426 238.392C77.9968 238.345 78.0123 238.253 77.9426 238.106C77.9316 238.064 77.9121 238.026 77.8855 237.993C77.8589 237.96 77.8257 237.932 77.7879 237.912C77.1357 237.74 76.4494 237.746 75.7999 237.928ZM76.79 236.311C76.7129 236.311 76.6367 236.327 76.5657 236.357C76.1174 236.641 75.7686 237.058 75.5678 237.549C76.4265 237.232 77.2387 236.775 77.2542 236.551C77.2542 236.504 77.1846 236.435 77.0608 236.381C76.9868 236.341 76.905 236.317 76.821 236.311H76.79Z" fill="#577AFA"/>
<path opacity="0.2" d="M75.1578 232.869L70.4778 231.446L71.2591 225.76L76.5579 226.201L75.1578 232.869Z" fill="black"/>
<path d="M70.4776 155.026C70.4776 155.026 69.1936 153.154 66.2308 143.423L42.6529 144.97C42.6529 144.97 31.885 164.804 40.2162 173.274C42.065 175.154 45.6852 175.997 49.3906 175.966C49.3906 175.966 57.8997 176.005 78.9094 175.023C78.9094 175.023 71.901 209.059 70.1837 228.723L76.4727 229.798C76.4727 229.798 96.5 177.289 96.3298 170.598C96.1596 163.907 94.6899 160.433 70.4776 155.026Z" fill="#2E353A"/>
<path d="M69.2633 226.82L77.9116 227.802L76.2407 231.19L69.2478 230.293L69.2633 226.82Z" fill="#52BD94"/>
<path d="M91.6267 227.021L100.314 226.696L99.1766 230.301L92.1218 230.463L91.6267 227.021Z" fill="#52BD94"/>
<path opacity="0.6" d="M56.9251 146.13C56.9251 146.368 56.9956 146.6 57.1277 146.797C57.2598 146.994 57.4475 147.148 57.667 147.239C57.8866 147.329 58.1281 147.352 58.3609 147.306C58.5936 147.259 58.8073 147.144 58.9746 146.975C59.142 146.807 59.2556 146.592 59.301 146.359C59.3464 146.126 59.3215 145.885 59.2296 145.666C59.1376 145.447 58.9828 145.26 58.7846 145.129C58.5864 144.999 58.3538 144.93 58.1163 144.931C57.9592 144.931 57.8037 144.962 57.6587 145.023C57.5136 145.083 57.382 145.171 57.2712 145.283C57.1605 145.394 57.0729 145.526 57.0135 145.672C56.9541 145.817 56.9241 145.973 56.9251 146.13Z" fill="white"/>
<path opacity="0.5" d="M42.653 144.939L41.6628 147.391L66.7569 146.138L66.2309 143.121L42.653 144.939Z" fill="black"/>
<path d="M55.9039 144.034L56.1979 146.788C56.2116 146.932 56.282 147.065 56.3936 147.158C56.5052 147.251 56.649 147.296 56.7935 147.283L60.4679 146.997C60.5429 146.991 60.6159 146.97 60.6828 146.936C60.7496 146.901 60.8089 146.854 60.8572 146.796C60.9054 146.738 60.9417 146.672 60.9639 146.6C60.986 146.528 60.9936 146.453 60.9862 146.378L60.7232 143.663C60.7094 143.517 60.6393 143.384 60.528 143.29C60.4166 143.196 60.2729 143.149 60.1275 143.16L56.4222 143.415C56.3465 143.419 56.2723 143.438 56.2044 143.472C56.1365 143.505 56.0763 143.553 56.0276 143.611C55.9789 143.669 55.9428 143.737 55.9215 143.809C55.9002 143.882 55.8942 143.959 55.9039 144.034Z" fill="white"/>
<path d="M49.7464 144.359L49.4524 147.6H48.5474L48.6866 144.359H49.7464Z" fill="#263238"/>
<path d="M62.9666 143.376L63.3301 146.765H64.1733L63.8793 143.229L62.9666 143.376Z" fill="#263238"/>
<path d="M56.0819 107.662C55.8131 109.397 55.8867 111.168 56.2985 112.875L48.385 111.715C49.847 110.756 50.3189 105.055 50.5896 102.726C50.7134 101.605 50.7598 100.576 50.7676 99.8642C50.7753 99.1525 50.7676 98.874 50.7676 98.874L53.6606 100.197L58.3793 102.355C57.2883 103.965 56.509 105.765 56.0819 107.662Z" fill="#EBB376"/>
<path opacity="0.2" d="M58.3871 102.355C57.2879 103.963 56.5006 105.763 56.0665 107.662C53.7044 106.726 51.7558 104.975 50.5742 102.726C50.698 101.605 50.7444 100.576 50.7521 99.8643C51.781 99.9648 52.7402 100.073 53.653 100.197L58.3871 102.355Z" fill="black"/>
<path d="M57.7527 83.1554C64.0572 83.8593 65.7126 87.4641 65.4883 93.9851C65.1556 102.177 62.7112 107.747 55.0144 105.132C44.5327 101.62 47.2711 81.995 57.7527 83.1554Z" fill="#EBB376"/>
<path d="M61.4117 93.2114C61.8139 94.2105 62.3332 95.1583 62.9588 96.0349C62.7453 96.2745 62.4698 96.4504 62.1627 96.5433C61.8555 96.6361 61.5287 96.6422 61.2183 96.5609L61.4117 93.2114Z" fill="#D58745"/>
<path d="M57.6058 92.2676C57.5594 92.7859 57.2422 93.1882 56.9019 93.1572C56.5615 93.1263 56.3062 92.6776 56.3526 92.1593C56.399 91.641 56.7162 91.2388 57.0643 91.2697C57.4124 91.3007 57.6522 91.7493 57.6058 92.2676Z" fill="#263238"/>
<path d="M56.9172 91.2856L58.0853 90.9375C58.0853 90.9375 57.4433 91.8426 56.9172 91.2856Z" fill="#263238"/>
<path d="M64.0804 92.755C64.034 93.2733 63.7169 93.6756 63.3688 93.6446C63.0207 93.6137 62.7809 93.165 62.8273 92.6467C62.8737 92.1285 63.1908 91.7339 63.5312 91.7649C63.8716 91.7958 64.1269 92.2058 64.0804 92.755Z" fill="#263238"/>
<path d="M63.4229 91.7417L64.5987 91.4014C64.5987 91.4014 63.9102 92.2987 63.4229 91.7417Z" fill="#263238"/>
<path d="M55.1844 88.8329C55.1092 88.8299 55.0377 88.7997 54.9833 88.7478C54.9573 88.7219 54.9367 88.6912 54.9227 88.6573C54.9086 88.6235 54.9014 88.5872 54.9014 88.5505C54.9014 88.5139 54.9086 88.4776 54.9227 88.4437C54.9367 88.4099 54.9573 88.3792 54.9833 88.3533C55.4065 87.9992 55.9071 87.7496 56.4446 87.6246C56.9821 87.4997 57.5414 87.5028 58.0775 87.6339C58.1135 87.6411 58.1477 87.6556 58.1779 87.6765C58.2082 87.6974 58.2338 87.7242 58.2534 87.7553C58.2729 87.7865 58.2859 87.8212 58.2916 87.8575C58.2972 87.8938 58.2955 87.9309 58.2864 87.9665C58.268 88.0388 58.2222 88.1011 58.1586 88.1401C58.095 88.1791 58.0187 88.1918 57.946 88.1754C57.5004 88.0761 57.0384 88.0766 56.593 88.1769C56.1477 88.2772 55.73 88.4748 55.37 88.7555C55.3196 88.8029 55.2536 88.8304 55.1844 88.8329Z" fill="#263238"/>
<path d="M65.1016 89.2277C65.0358 89.2269 64.9725 89.2022 64.9237 89.1581C64.6342 88.8767 64.2848 88.6644 63.9017 88.5371C63.5186 88.4099 63.1116 88.3709 62.7113 88.4232C62.6395 88.4394 62.5642 88.4266 62.5019 88.3874C62.4396 88.3483 62.3953 88.2861 62.3787 88.2144C62.3694 88.1788 62.3672 88.1418 62.3723 88.1054C62.3774 88.069 62.3897 88.034 62.4084 88.0023C62.4271 87.9707 62.4518 87.943 62.4813 87.921C62.5107 87.899 62.5442 87.883 62.5798 87.874C63.0667 87.8004 63.564 87.8396 64.0334 87.9885C64.5028 88.1373 64.9317 88.3919 65.2872 88.7327C65.3132 88.7585 65.3338 88.7893 65.3479 88.8231C65.3619 88.857 65.3691 88.8932 65.3691 88.9299C65.3691 88.9666 65.3619 89.0028 65.3479 89.0367C65.3338 89.0705 65.3132 89.1013 65.2872 89.1272C65.2404 89.1831 65.174 89.2191 65.1016 89.2277Z" fill="#263238"/>
<path d="M49.6692 93.026C49.6692 93.026 53.1966 88.168 53.1966 84.1223C53.1966 84.1223 66.2696 80.4016 65.4729 93.1652C65.4729 93.1652 67.9483 82.026 57.1262 80.5717C46.3042 79.1175 44.5869 94.9908 49.6614 100.344C49.6614 100.344 47.48 96.066 49.6692 93.026Z" fill="#263238"/>
<path d="M50.5509 94.4725C50.5697 93.7357 50.2964 93.0214 49.7907 92.4852C49.285 91.9491 48.5878 91.6346 47.8512 91.6104C45.8709 91.6104 44.494 95.4781 49.2514 97.0252C49.9321 97.2418 50.4039 96.623 50.5509 94.4725Z" fill="#EBB376"/>
<path d="M48.2922 90.4346C48.2922 90.4346 50.5201 81.036 59.0524 81.5775C66.579 82.0493 66.2851 88.5394 66.2851 88.5394C66.2851 88.5394 66.9194 80.8039 58.418 80.2856C49.3365 79.7596 47.4568 89.7849 47.4568 89.7849L48.2922 90.4346Z" fill="#52BD94"/>
<path d="M60.2357 99.5082H60.1815C57.5747 99.0209 57.2343 97.1875 57.2266 97.1179C57.22 97.0817 57.2208 97.0446 57.229 97.0088C57.2373 96.9729 57.2527 96.9391 57.2744 96.9094C57.2961 96.8798 57.3237 96.8548 57.3553 96.8361C57.387 96.8175 57.4221 96.8054 57.4586 96.8008C57.5303 96.7895 57.6036 96.8066 57.6628 96.8485C57.722 96.8904 57.7626 96.9538 57.7758 97.0251C57.7758 97.0947 58.0852 98.5722 60.2898 98.959C60.3257 98.9654 60.36 98.979 60.3905 98.999C60.421 99.019 60.4471 99.045 60.4673 99.0753C60.4876 99.1056 60.5015 99.1397 60.5082 99.1756C60.5149 99.2114 60.5143 99.2483 60.5064 99.2839C60.494 99.3467 60.4603 99.4033 60.4109 99.4442C60.3616 99.485 60.2997 99.5076 60.2357 99.5082Z" fill="#263238"/>
<path d="M75.9082 106.184C75.9082 106.184 79.335 106.911 79.3118 107.538C79.2886 108.164 77.9117 113.1 77.2928 113.726C76.6494 114.245 75.9486 114.689 75.2042 115.049L74.8871 120.1L72.6902 120.34L71.321 115.699C71.321 115.699 69.7043 113.177 70.911 110.733C72.1177 108.288 75.9082 106.184 75.9082 106.184Z" fill="#EBB376"/>
<path opacity="0.1" d="M75.9082 106.184C75.9082 106.184 79.335 106.911 79.3118 107.538C79.2886 108.164 77.9117 113.1 77.2928 113.726C76.6494 114.245 75.9486 114.689 75.2042 115.049L74.8871 120.1L72.6902 120.34L71.321 115.699C71.321 115.699 69.7043 113.177 70.911 110.733C72.1177 108.288 75.9082 106.184 75.9082 106.184Z" fill="black"/>
<path d="M69.1163 109.201C69.0943 109.274 69.0887 109.352 69.0997 109.427C69.1108 109.503 69.1383 109.576 69.1803 109.64C69.2223 109.704 69.2778 109.758 69.3429 109.799C69.408 109.839 69.4811 109.865 69.5572 109.874L75.4594 110.763C75.6257 110.791 75.7962 110.757 75.9388 110.667C76.0814 110.577 76.186 110.438 76.233 110.276L79.3272 98.8198C79.3556 98.7412 79.3669 98.6575 79.3604 98.5742C79.3538 98.4909 79.3296 98.41 79.2894 98.3368C79.2491 98.2636 79.1937 98.1998 79.1269 98.1497C79.0601 98.0996 78.9833 98.0643 78.9018 98.0462L72.9995 97.1489C72.8249 97.1429 72.6534 97.1962 72.5129 97.3002C72.3725 97.4041 72.2713 97.5526 72.226 97.7213L69.1163 109.201Z" fill="#263238"/>
<path opacity="0.5" d="M72.8602 97.7677L69.7659 109.371C69.7391 109.437 69.728 109.508 69.7336 109.579C69.7392 109.65 69.7613 109.719 69.7981 109.779C69.8349 109.84 69.8854 109.892 69.9457 109.93C70.0059 109.967 70.0742 109.991 70.145 109.998L75.1499 110.771C75.4902 110.818 76.1323 110.725 76.2174 110.4L79.3116 98.7965C79.3967 98.4716 78.8707 98.1158 78.538 98.0616L73.5332 97.2881C73.3816 97.271 73.2291 97.3105 73.1049 97.3991C72.9807 97.4876 72.8935 97.6188 72.8602 97.7677Z" fill="white"/>
<path d="M66.2309 143.4L42.6607 144.947C42.6607 144.947 42.4905 138.627 41.6706 132.787C41.4144 130.758 41.0085 128.752 40.4561 126.784C39.845 124.773 39.0792 122.514 38.1354 119.892C38.0194 119.567 37.8956 119.242 37.7641 118.901C37.4547 118.089 37.1376 117.238 36.7817 116.349V116.31C36.6047 115.84 36.531 115.338 36.5657 114.838C36.6004 114.337 36.7427 113.85 36.9828 113.41C37.2229 112.969 37.5552 112.585 37.957 112.285C38.3589 111.985 38.8208 111.774 39.3112 111.669C40.8119 111.351 42.3204 111.065 43.852 110.825L45.1748 110.624C48.7062 110.098 52.2655 109.78 55.8344 109.673C57.6832 109.673 59.6557 109.727 61.3421 109.804L62.7422 109.874C64.5291 109.982 65.7668 110.091 65.7668 110.091C65.7668 110.091 66.5403 110.245 66.9967 114.392C66.9967 114.593 67.0432 114.825 67.0664 115.065C67.1283 115.923 67.1747 117.006 67.1979 118.306C67.2443 123.651 66.9581 132.578 66.2309 143.4Z" fill="#52BD94"/>
<path opacity="0.4" d="M57.1493 121.81C59.0682 123.474 61.4477 124.516 63.9721 124.796C63.9721 124.796 64.3357 132.385 58.4721 136.446C58.4721 136.446 52.5158 134.69 50.4426 126.39C50.4426 126.366 55.6873 124.533 57.1493 121.81Z" fill="white"/>
<path opacity="0.4" d="M57.3118 122.924C55.7646 124.873 52.7246 126.258 51.3708 126.792C53.15 132.98 57.1493 135.045 58.3328 135.533C62.5178 132.4 63.0979 127.202 63.1675 125.415C61.0481 125.052 59.0428 124.199 57.3118 122.924ZM58.0853 130.853C58.052 130.897 58.0102 130.934 57.9624 130.962C57.9146 130.99 57.8617 131.008 57.8068 131.015C57.756 131.018 57.7052 131.011 57.6574 130.993C57.6095 130.976 57.5656 130.949 57.5283 130.915L55.0143 128.594C54.9473 128.522 54.91 128.428 54.9099 128.33C54.9098 128.232 54.9469 128.138 55.0137 128.066C55.0805 127.994 55.172 127.951 55.2697 127.944C55.3675 127.937 55.4642 127.968 55.5403 128.029L57.7295 130.064L59.965 126.923C60.0288 126.855 60.115 126.812 60.2079 126.802C60.3007 126.793 60.3939 126.817 60.4702 126.871C60.5466 126.925 60.6009 127.004 60.6232 127.095C60.6455 127.185 60.6343 127.281 60.5916 127.364L58.0853 130.853Z" fill="white"/>
<path d="M61.1873 116.604L64.5832 111.963C64.5832 111.963 66.9038 105.233 67.4221 104.575C67.9404 103.918 73.4868 105.488 74.1056 105.589C74.7245 105.689 73.0149 112.551 72.2568 113.131C71.4987 113.711 69.0775 113.765 69.0775 113.765L63.9643 119.83L61.1873 116.604Z" fill="#EBB376"/>
<path d="M36.774 112.705C37.2551 112.314 37.8121 112.026 38.4098 111.86C39.0075 111.695 39.6331 111.655 40.2471 111.743C40.861 111.831 41.4502 112.045 41.9774 112.371C42.5046 112.698 42.9585 113.13 43.3105 113.641C47.0313 118.979 51.7732 124.045 52.5235 124.471C53.6065 125.097 55.989 123.334 63.2295 113.842L67.0973 116.163C67.0973 116.163 57.2964 132.616 54.2253 131.928C48.2767 130.597 40.1002 124.966 35.8998 118.777C35.2645 117.845 35.0033 116.707 35.1681 115.591C35.3329 114.474 35.9117 113.461 36.7894 112.751L36.774 112.705Z" fill="#EBB376"/>
<path d="M62.6959 109.858C62.6959 112.891 61.6438 118.019 55.0609 118.019C50.1798 118.019 45.7782 113.285 43.8057 110.81L45.1284 110.609C48.6598 110.082 52.2192 109.764 55.788 109.657C57.6368 109.657 59.6094 109.711 61.2957 109.789L62.6959 109.858Z" fill="#EBB376"/>
</svg>
