<svg width="290" height="256" viewBox="0 0 290 256" fill="none" xmlns="http://www.w3.org/2000/svg">
<path d="M52.3868 229.916H47.9418V230.092H52.3868V229.916Z" fill="#EBEBEB"/>
<path d="M150.073 255.28C225.269 255.28 286.227 251.721 286.227 247.331C286.227 242.941 225.269 239.382 150.073 239.382C74.8773 239.382 13.9192 242.941 13.9192 247.331C13.9192 251.721 74.8773 255.28 150.073 255.28Z" fill="#F5F5F5"/>
<path d="M289.457 141.879H10.647L9.86047 0.191406H288.671L289.457 141.879Z" fill="#52BD94"/>
<path opacity="0.7" d="M289.457 141.879H10.647L9.86047 0.191406H288.671L289.457 141.879Z" fill="black"/>
<path d="M283.671 4.52393H13.9053V111.507H283.671V4.52393Z" fill="white"/>
<path opacity="0.5" d="M13.9053 111.508H283.664L140.769 140.65L13.9053 111.508Z" fill="white"/>
<path d="M125.58 99.5556L80.9183 41.7697L37.0856 62.71L36.4817 61.439L81.3396 40.0142L125.966 97.7579L169.686 74.5214L214.256 80.9748L214.06 82.3652L169.939 75.982L125.58 99.5556Z" fill="#263238"/>
<path d="M36.7837 65.7927C38.8391 65.7927 40.5054 64.1264 40.5054 62.0709C40.5054 60.0154 38.8391 58.3491 36.7837 58.3491C34.7282 58.3491 33.0619 60.0154 33.0619 62.0709C33.0619 64.1264 34.7282 65.7927 36.7837 65.7927Z" fill="#52BD94"/>
<path d="M84.8508 41.2784C84.8508 42.0145 84.6325 42.7341 84.2235 43.3461C83.8146 43.9582 83.2333 44.4352 82.5533 44.7169C81.8732 44.9986 81.1249 45.0723 80.4029 44.9287C79.681 44.7851 79.0178 44.4306 78.4973 43.9101C77.9768 43.3896 77.6223 42.7265 77.4787 42.0045C77.3351 41.2825 77.4088 40.5342 77.6905 39.8542C77.9722 39.1741 78.4492 38.5928 79.0613 38.1839C79.6733 37.7749 80.3929 37.5566 81.129 37.5566C81.6178 37.5566 82.1017 37.6529 82.5533 37.8399C83.0048 38.027 83.4151 38.3011 83.7607 38.6467C84.1063 38.9923 84.3804 39.4026 84.5675 39.8542C84.7545 40.3057 84.8508 40.7897 84.8508 41.2784Z" fill="#52BD94"/>
<path d="M129.189 98.2354C129.189 98.9718 128.97 99.6917 128.561 100.304C128.152 100.916 127.57 101.393 126.89 101.675C126.209 101.956 125.461 102.029 124.738 101.885C124.016 101.741 123.353 101.386 122.833 100.865C122.313 100.343 121.959 99.6796 121.816 98.9572C121.673 98.2348 121.748 97.4863 122.031 96.8063C122.313 96.1264 122.792 95.5456 123.405 95.1375C124.018 94.7294 124.738 94.5123 125.474 94.5137C125.963 94.5137 126.446 94.61 126.897 94.7971C127.349 94.9842 127.758 95.2585 128.103 95.6042C128.448 95.9499 128.722 96.3602 128.908 96.8117C129.094 97.2632 129.19 97.747 129.189 98.2354Z" fill="#52BD94"/>
<path d="M173.534 76.0035C173.534 76.7396 173.316 77.4592 172.907 78.0712C172.498 78.6833 171.917 79.1603 171.237 79.442C170.557 79.7237 169.808 79.7974 169.087 79.6538C168.365 79.5102 167.701 79.1557 167.181 78.6352C166.66 78.1147 166.306 77.4516 166.162 76.7296C166.019 76.0076 166.092 75.2593 166.374 74.5793C166.656 73.8992 167.133 73.3179 167.745 72.909C168.357 72.5 169.076 72.2817 169.813 72.2817C170.302 72.2808 170.786 72.3765 171.238 72.5632C171.69 72.7499 172.101 73.024 172.446 73.3698C172.792 73.7155 173.066 74.1262 173.253 74.5782C173.44 75.0301 173.535 75.5145 173.534 76.0035Z" fill="#52BD94"/>
<path d="M217.88 82.0421C217.88 82.7782 217.661 83.4978 217.252 84.1098C216.843 84.7218 216.262 85.1989 215.582 85.4806C214.902 85.7623 214.154 85.836 213.432 85.6924C212.71 85.5488 212.047 85.1943 211.526 84.6738C211.006 84.1533 210.651 83.4901 210.508 82.7682C210.364 82.0462 210.438 81.2979 210.719 80.6178C211.001 79.9378 211.478 79.3565 212.09 78.9476C212.702 78.5386 213.422 78.3203 214.158 78.3203C214.647 78.3203 215.131 78.4166 215.582 78.6036C216.034 78.7907 216.444 79.0648 216.79 79.4104C217.135 79.756 217.409 80.1663 217.596 80.6178C217.783 81.0694 217.88 81.5533 217.88 82.0421Z" fill="#52BD94"/>
<path d="M262.218 34.4176C262.218 35.154 262 35.8738 261.59 36.486C261.181 37.0982 260.599 37.5752 259.919 37.8567C259.238 38.1382 258.49 38.2115 257.768 38.0673C257.045 37.9231 256.382 37.568 255.862 37.0468C255.342 36.5256 254.988 35.8618 254.845 35.1394C254.702 34.4169 254.777 33.6684 255.06 32.9884C255.343 32.3085 255.821 31.7277 256.434 31.3196C257.047 30.9115 257.767 30.6944 258.503 30.6958C258.992 30.6958 259.475 30.7921 259.926 30.9792C260.378 31.1664 260.787 31.4406 261.132 31.7863C261.477 32.132 261.751 32.5423 261.937 32.9938C262.123 33.4454 262.219 33.9292 262.218 34.4176Z" fill="#52BD94"/>
<path d="M249.037 56.7129L245.695 53.2018L214.158 82.035L239.515 46.7273L236.173 43.2162L254.297 38.8203L249.037 56.7129Z" fill="#263238"/>
<path d="M31.6152 10.1138C32.5422 10.1138 32.9354 10.6615 32.9354 11.5533V12.2555C32.9354 13.1965 32.5 13.66 31.531 13.66H30.9551V15.9843H30.295V10.1138H31.6152ZM31.559 13.0912C32.0506 13.0912 32.2613 12.8665 32.2613 12.2977V11.5182C32.2613 10.9775 32.0646 10.7107 31.559 10.7107H30.927V13.0912H31.559Z" fill="#52BD94"/>
<path d="M34.031 14.8187L33.8062 16.0054H33.1953L34.3259 10.1138H35.2809L36.4045 16.0054H35.7514L35.5197 14.8187H34.031ZM34.1152 14.2569H35.4284L34.7613 10.8511L34.1152 14.2569Z" fill="#52BD94"/>
<path d="M39.4731 11.5254V11.687H38.8482V11.4903C38.8482 10.9637 38.6515 10.6477 38.1459 10.6477C37.6403 10.6477 37.4437 10.9637 37.4437 11.4833C37.4437 12.8035 39.424 12.9299 39.424 14.5942C39.424 15.486 38.9956 16.0618 38.0968 16.0618C37.1979 16.0618 36.7766 15.486 36.7766 14.5942V14.2571H37.3875V14.6222C37.3875 15.1559 37.6052 15.4649 38.0898 15.4649C38.5743 15.4649 38.792 15.1559 38.792 14.6222C38.792 13.3091 36.8187 13.2178 36.8187 11.5254C36.8187 10.6196 37.2401 10.0508 38.1249 10.0508C39.0097 10.0508 39.4731 10.6336 39.4731 11.5254Z" fill="#52BD94"/>
<path d="M40.9056 16.0054V10.7107H39.8242V10.1138H42.6331V10.7107H41.5587V16.0054H40.9056Z" fill="#52BD94"/>
<path d="M142.84 16.0054H142.25V10.1138H143.086L144.455 14.3692V10.1138H145.038V16.0054H144.336L142.826 11.2373L142.84 16.0054Z" fill="#52BD94"/>
<path d="M145.656 11.5325C145.656 10.6336 146.098 10.0508 147.004 10.0508C147.91 10.0508 148.36 10.6336 148.36 11.5325V14.5801C148.36 15.479 147.91 16.0618 147.004 16.0618C146.098 16.0618 145.656 15.479 145.656 14.5801V11.5325ZM146.302 14.6152C146.302 15.1559 146.534 15.4649 147.004 15.4649C147.475 15.4649 147.706 15.1559 147.706 14.6152V11.4974C147.706 10.9707 147.489 10.6477 147.004 10.6477C146.52 10.6477 146.302 10.9707 146.302 11.4974V14.6152Z" fill="#52BD94"/>
<path d="M150.551 16.0054H149.652L148.837 10.1138H149.483L150.185 15.1276L150.846 10.1208H151.478L152.124 15.1417L152.826 10.1138H153.402L152.601 16.0054H151.73L151.169 12.0027L150.551 16.0054Z" fill="#52BD94"/>
<path d="M252.324 12.5929V13.1897H250.968V15.7458H250.308V9.84717H252.654V10.4441H250.968V12.5929H252.324Z" fill="#52BD94"/>
<path d="M253.798 14.3554C253.798 14.8821 254.009 15.2051 254.501 15.2051C254.992 15.2051 255.203 14.8821 255.203 14.3554V9.84717H255.814V14.3203C255.814 15.2121 255.399 15.809 254.494 15.809C253.588 15.809 253.18 15.2121 253.18 14.3203V9.84717H253.826L253.798 14.3554Z" fill="#52BD94"/>
<path d="M257.288 15.7458V10.4441H256.2V9.84717H259.009V10.4441H257.934V15.7458H257.288Z" fill="#52BD94"/>
<path d="M260.097 14.3554C260.097 14.8821 260.308 15.2051 260.799 15.2051C261.291 15.2051 261.502 14.8821 261.502 14.3554V9.84717H262.12V14.3203C262.12 15.2121 261.705 15.809 260.792 15.809C259.88 15.809 259.479 15.2121 259.479 14.3203V9.84717H260.132L260.097 14.3554Z" fill="#52BD94"/>
<path d="M264.044 9.84717C264.971 9.84717 265.357 10.3177 265.357 11.1954V11.6729C265.357 12.326 265.132 12.7263 264.655 12.8878C265.195 13.0493 265.399 13.4847 265.399 14.1167V15.0366C265.381 15.2762 265.42 15.5167 265.511 15.7388H264.851C264.759 15.5169 264.72 15.2762 264.739 15.0366V14.1026C264.739 13.4004 264.43 13.2249 263.882 13.2249H263.419V15.7458H262.759V9.84717H264.044ZM263.875 12.6561C264.402 12.6561 264.711 12.4875 264.711 11.8485V11.2516C264.711 10.7249 264.514 10.4441 264.008 10.4441H263.369V12.628L263.875 12.6561Z" fill="#52BD94"/>
<path d="M268.152 12.4594V13.0493H266.747V15.156H268.51V15.7529H266.087V9.84717H268.51V10.4441H266.712V12.4594H268.152Z" fill="#52BD94"/>
<path d="M63.3978 155.193L22.0159 155.383L24.1928 129.134L65.5817 128.951L63.3978 155.193Z" fill="#52BD94"/>
<path d="M62.836 157.251L22.058 157.433C21.7875 157.44 21.5188 157.389 21.2699 157.283C21.021 157.177 20.7978 157.018 20.6154 156.819C20.433 156.619 20.2956 156.382 20.2125 156.125C20.1294 155.867 20.1026 155.595 20.1339 155.326L22.3037 129.246C22.3586 128.678 22.6197 128.15 23.0377 127.762C23.4557 127.374 24.0016 127.152 24.5719 127.139L65.3499 126.957C65.6204 126.95 65.8891 127.001 66.138 127.107C66.3869 127.213 66.6101 127.371 66.7925 127.571C66.9749 127.771 67.1123 128.007 67.1954 128.265C67.2785 128.522 67.3053 128.795 67.274 129.063L65.1042 155.144C65.0479 155.711 64.7863 156.238 64.3686 156.626C63.9509 157.014 63.4059 157.236 62.836 157.251Z" fill="#52BD94"/>
<g opacity="0.7">
<path opacity="0.7" d="M63.3978 155.193L22.0159 155.383L24.1928 129.134L65.5817 128.951L63.3978 155.193Z" fill="#52BD94"/>
<path opacity="0.9" d="M61.5369 155.2L24.2348 155.368C23.9526 155.369 23.6733 155.312 23.4145 155.199C23.1558 155.086 22.9233 154.921 22.7318 154.714C22.5403 154.506 22.3941 154.262 22.3022 153.995C22.2104 153.728 22.175 153.445 22.1984 153.163L24.0382 130.98C24.0804 130.472 24.3115 129.999 24.686 129.653C25.0604 129.307 25.5509 129.114 26.0606 129.112L63.3556 128.944C63.6378 128.943 63.9172 129.001 64.1759 129.113C64.4347 129.226 64.6671 129.391 64.8586 129.599C65.0501 129.806 65.1964 130.051 65.2882 130.318C65.3801 130.585 65.4154 130.868 65.3921 131.149L63.5522 153.325C63.5134 153.834 63.2845 154.309 62.911 154.656C62.5376 155.004 62.0469 155.198 61.5369 155.2Z" fill="white"/>
</g>
<path opacity="0.1" d="M56.5091 126.971L48.5599 157.244L51.2775 157.23L59.1354 126.964L56.5091 126.971Z" fill="white"/>
<path opacity="0.1" d="M60.7013 126.957L52.7592 157.222L58.1522 157.201L66.0101 126.936L60.7013 126.957Z" fill="white"/>
<path d="M49.9011 157.103L63.6647 157.222C63.8402 158.823 63.138 159.399 62.2602 159.392L11.8828 159.315C11.6194 159.315 11.3586 159.263 11.1153 159.162C10.872 159.061 10.6511 158.913 10.4652 158.726C10.2792 158.54 10.132 158.318 10.0318 158.075C9.93164 157.831 9.88056 157.57 9.88148 157.307L49.9011 157.103Z" fill="#52BD94"/>
<path opacity="0.2" d="M63.6998 157.223C63.8754 158.824 63.1731 159.4 62.2954 159.393H44.8522C46.0038 159.393 47.4574 158.276 47.4574 157.131L63.6998 157.223Z" fill="white"/>
<path opacity="0.2" d="M49.9011 157.103L63.6647 157.222C63.8402 158.823 63.138 159.399 62.2602 159.392L11.8828 159.315C11.6194 159.315 11.3586 159.263 11.1153 159.162C10.872 159.061 10.6511 158.913 10.4652 158.726C10.2792 158.54 10.132 158.318 10.0318 158.075C9.93164 157.831 9.88056 157.57 9.88148 157.307L49.9011 157.103Z" fill="white"/>
<path d="M17.2618 161.906V247.816H19.4949L22.3038 161.906H17.2618Z" fill="#52BD94"/>
<path d="M43.6233 164.715V244.305H45.8564L48.6652 164.715H43.6233Z" fill="#52BD94"/>
<path opacity="0.5" d="M43.6233 164.715V244.305H45.8564L48.6652 164.715H43.6233Z" fill="black"/>
<path d="M151.176 161.906V244.305H148.942L146.134 161.906H151.176Z" fill="#52BD94"/>
<path opacity="0.5" d="M151.176 161.906V244.305H148.942L146.134 161.906H151.176Z" fill="black"/>
<path d="M124.814 164.715V247.297H122.581L119.772 164.715H124.814Z" fill="#52BD94"/>
<path d="M166.596 159.322H0.211914V162.925H166.596V159.322Z" fill="#52BD94"/>
<path d="M155.656 166.78H11.9952L6.16675 162.924H161.484L155.656 166.78Z" fill="#52BD94"/>
<path opacity="0.5" d="M155.656 166.78H11.9952L6.16675 162.924H161.484L155.656 166.78Z" fill="black"/>
<path d="M149.659 158.185H145.951V159.652H149.659V158.185Z" fill="#263238"/>
<path d="M149.42 158.908L121.394 158.606C117.946 158.606 116.823 152.096 116.823 149.582C116.823 147.534 117.637 145.569 119.085 144.12C120.534 142.672 122.499 141.858 124.547 141.858H151.478C152.688 141.862 153.847 142.343 154.703 143.198C155.56 144.053 156.043 145.212 156.049 146.422C156.049 146.422 155.48 158.908 149.42 158.908Z" fill="#52BD94"/>
<g opacity="0.5">
<g opacity="0.7">
<path opacity="0.7" d="M149.42 158.908L121.394 158.606C117.946 158.606 116.823 152.096 116.823 149.582C116.823 147.534 117.637 145.569 119.085 144.12C120.534 142.672 122.499 141.858 124.547 141.858H151.478C152.688 141.862 153.847 142.343 154.703 143.198C155.56 144.053 156.043 145.212 156.049 146.422C156.049 146.422 155.48 158.908 149.42 158.908Z" fill="white"/>
</g>
</g>
<path d="M152.236 141.935L124.969 141.879C121.138 141.863 117.405 143.096 114.337 145.39L111.044 147.834C110.881 147.957 110.761 148.129 110.701 148.325C110.642 148.521 110.646 148.731 110.713 148.924C110.78 149.117 110.907 149.285 111.074 149.402C111.242 149.519 111.443 149.579 111.648 149.575L138.964 148.873L152.236 141.935Z" fill="#52BD94"/>
<path opacity="0.5" d="M152.236 141.935L125.551 141.879C121.177 141.879 117.546 142.757 113.845 145.755L110.187 148.536C110.08 148.616 110.001 148.729 109.962 148.857C109.922 148.985 109.925 149.122 109.969 149.248C110.012 149.375 110.095 149.484 110.205 149.561C110.315 149.637 110.446 149.677 110.58 149.674L138.507 149.175L152.236 141.935Z" fill="white"/>
<path d="M115.439 158.185H111.732V159.652H115.439V158.185Z" fill="#263238"/>
<path d="M140.088 158.185H136.38V159.652H140.088V158.185Z" fill="#263238"/>
<path d="M125.776 158.185H122.068V159.652H125.776V158.185Z" fill="#263238"/>
<path d="M138.262 158.908H113.291C111.78 158.904 110.331 158.302 109.263 157.234C108.194 156.165 107.592 154.717 107.589 153.206C107.594 151.696 108.197 150.249 109.265 149.182C110.334 148.115 111.781 147.514 113.291 147.511H138.262C139.771 147.514 141.217 148.116 142.285 149.183C143.352 150.25 143.953 151.696 143.957 153.206C143.953 154.716 143.352 156.163 142.285 157.231C141.218 158.299 139.772 158.902 138.262 158.908Z" fill="#52BD94"/>
<path d="M138.339 151.05H114.07V152.005H138.339V151.05Z" fill="#263238"/>
<path d="M138.339 152.545H114.07V153.5H138.339V152.545Z" fill="#263238"/>
<path d="M138.339 154.034H114.07V154.989H138.339V154.034Z" fill="#263238"/>
<path d="M138.339 155.53H114.07V156.485H138.339V155.53Z" fill="#263238"/>
<path d="M145.656 141.781L145.502 141.935L141.008 143.958C136.661 145.973 134.287 145.769 135.025 143.958C135.025 143.958 135.804 136.725 140.6 136.725C141.941 136.726 143.226 137.26 144.173 138.208C145.121 139.155 145.654 140.44 145.656 141.781Z" fill="#52BD94"/>
<g opacity="0.7">
<path opacity="0.7" d="M145.656 141.781L145.502 141.935L141.008 143.958C136.661 145.973 134.287 145.769 135.025 143.958C135.025 143.958 135.804 136.725 140.6 136.725C141.941 136.726 143.226 137.26 144.173 138.208C145.121 139.155 145.654 140.44 145.656 141.781Z" fill="white"/>
</g>
<path d="M134.528 55.0377L115.753 59.5557L116.31 61.8701L135.085 57.3522L134.528 55.0377Z" fill="#52BD94"/>
<path opacity="0.3" d="M134.528 55.0377L115.753 59.5557L116.31 61.8701L135.085 57.3522L134.528 55.0377Z" fill="white"/>
<path d="M155.315 49.4488L127.193 56.2158L128.078 59.8958L156.2 53.1287L155.315 49.4488Z" fill="#52BD94"/>
<path opacity="0.2" d="M155.315 49.4488L127.193 56.2158L128.078 59.8958L156.2 53.1287L155.315 49.4488Z" fill="white"/>
<path d="M174.707 52.268L143.929 56.6358L142.77 51.8185L172.165 41.7065L173.359 43.5815C174.558 45.4598 175.103 47.6814 174.911 49.9015L174.707 52.268Z" fill="#52BD94"/>
<path opacity="0.2" d="M174.707 52.268L143.929 56.6358L142.77 51.8185L172.165 41.7065L173.359 43.5815C174.558 45.4598 175.103 47.6814 174.911 49.9015L174.707 52.268Z" fill="white"/>
<path d="M94.4781 83.3204C89.7662 86.5717 82.9546 91.1291 79.6823 93.7975H79.6401C78.0972 95.4646 76.6506 97.2183 75.3074 99.0501L74.7105 99.8928L74.6544 99.9701L74.5841 100.11C74.5279 100.215 74.4786 100.323 74.4367 100.434C74.2131 101.036 74.0484 101.66 73.9451 102.294C73.7204 103.699 73.7134 109.204 74.2681 115.44C74.3053 115.862 74.181 116.282 73.9203 116.616C73.6596 116.949 73.282 117.172 72.8637 117.238L71.3399 117.49C70.9416 117.559 70.532 117.48 70.188 117.268C69.844 117.056 69.5894 116.726 69.472 116.339C68.5924 113.353 67.9606 110.3 67.583 107.21C67.3397 105.329 67.2645 103.43 67.3583 101.536C67.4127 100.374 67.5988 99.2221 67.913 98.1021C67.9708 97.8798 68.0435 97.6616 68.1307 97.4491L68.3133 96.9856L68.552 96.487C68.7416 96.1078 68.8329 95.9674 68.9523 95.7848L69.3175 95.1669C69.7746 94.3428 70.2787 93.5456 70.8272 92.7793C71.368 92.0771 71.9087 91.3046 72.4775 90.5603C73.6361 89.0154 74.9072 87.5829 76.1922 86.1784C76.74 85.5815 77.2947 85.0057 77.8635 84.4299C82.1962 79.086 88.5794 71.9584 91.6903 72.127C96.7603 72.3587 98.867 78.3135 94.4781 83.3204Z" fill="#52BD94"/>
<path d="M71.0449 116.585C69.5843 118.165 71.0449 120.749 71.0449 120.749L75.799 119.562L73.2148 116.318L71.0449 116.585Z" fill="#FF8B7B"/>
<path d="M75.7991 119.562L71.0731 120.763L72.7725 124.597L76.2977 123.81L75.7991 119.562Z" fill="#FF8B7B"/>
<path d="M115.664 59.5715C115.959 59.6487 116.114 60.063 115.994 60.5335C115.875 61.004 115.566 61.313 115.243 61.2358C114.92 61.1585 114.8 60.7302 114.92 60.2737C115.039 59.8173 115.348 59.4942 115.664 59.5715Z" fill="#263238"/>
<path d="M113.796 65.4419C114.142 65.6298 114.525 65.7404 114.918 65.7658C115.31 65.7913 115.704 65.7311 116.071 65.5894C115.475 64.1722 115.08 62.6783 114.899 61.1514L113.796 65.4419Z" fill="#FF5652"/>
<path d="M113.761 57.1906C113.748 57.1569 113.741 57.1209 113.741 57.0846C113.742 57.0483 113.749 57.0125 113.763 56.9792C113.778 56.9459 113.799 56.9157 113.825 56.8905C113.851 56.8653 113.882 56.8456 113.916 56.8324C114.318 56.6631 114.755 56.5932 115.19 56.6286C115.626 56.664 116.046 56.8038 116.416 57.0361L116.472 57.0782C116.519 57.1288 116.546 57.1956 116.546 57.2652C116.547 57.3347 116.52 57.4017 116.473 57.4526C116.426 57.5036 116.361 57.5346 116.291 57.5394C116.222 57.5442 116.153 57.5224 116.1 57.4785C115.802 57.3019 115.467 57.1978 115.122 57.1746C114.777 57.1514 114.431 57.2098 114.112 57.3451C114.058 57.3662 113.998 57.3662 113.944 57.3451C113.903 57.3364 113.865 57.3177 113.833 57.2908C113.801 57.2638 113.776 57.2294 113.761 57.1906Z" fill="#263238"/>
<path d="M106.732 69.7673C104.836 72.5762 103.53 75.8626 107.61 78.538C107.61 78.538 110.419 84.1558 102.245 81.1854C94.8083 78.5099 95.1735 74.0578 95.1735 74.0578C98.9374 72.4006 99.8573 65.8348 100.51 61.5513L106.732 69.7673Z" fill="#FF8B7B"/>
<path d="M107.645 78.8332C107.645 78.8332 108.881 75.28 106.704 73.5525C104.527 71.8251 97.5749 71.186 96.1002 71.186C94.766 71.186 94.8713 72.6677 94.9837 73.9949L107.645 78.8332Z" fill="#52BD94"/>
<path opacity="0.5" d="M107.645 78.8332C107.645 78.8332 108.881 75.28 106.704 73.5525C104.527 71.8251 97.5749 71.186 96.1002 71.186C94.766 71.186 94.8713 72.6677 94.9837 73.9949L107.645 78.8332Z" fill="white"/>
<path opacity="0.3" d="M91.0864 86.8738C87.9826 89.9214 85.3001 92.0281 85.3001 92.0281L84.949 91.5997L92.7085 81.1226L91.0864 86.8738Z" fill="black"/>
<path d="M105.131 120.714L96.4163 119.162L85.4897 117.238L78.299 115.967C78.4956 112.294 80.511 97.0067 84.1344 79.732C85.1386 74.9569 88.8393 71.3054 93.6214 72.2393H93.7549C97.574 72.9898 101.347 73.9605 105.054 75.1465C107.164 75.9128 109.219 76.8232 111.205 77.8711C111.631 78.0757 111.998 78.3843 112.273 78.7685C112.548 79.1527 112.722 79.6 112.778 80.0691C113.199 83.6645 106.535 101.705 105.131 120.714Z" fill="#52BD94"/>
<path opacity="0.3" d="M104.492 87.5618C104.777 91.858 106.187 96.0037 108.579 99.5839C109.035 97.3578 111.479 87.6953 111.942 85.7642L104.492 87.5618Z" fill="black"/>
<path d="M133.29 64.2198L134.603 64.3743C136.878 61.3688 135.446 57.3521 135.446 57.3521L129.006 58.8899L130.179 61.8463C130.434 62.4865 130.858 63.0454 131.406 63.4634C131.954 63.8814 132.605 64.1428 133.29 64.2198Z" fill="#FF8B7B"/>
<path d="M129.042 58.8899L135.446 57.3591L134.912 53.9393L129.224 53.2651L129.042 58.8899Z" fill="#FF8B7B"/>
<path d="M146.407 78.1523C146.224 77.4972 145.964 76.8656 145.635 76.2704C145.391 75.7883 145.121 75.3195 144.827 74.8659C144.42 74.2339 140.242 67.9772 137.061 63.8902C136.739 63.4796 136.337 63.1395 135.878 62.8909C135.42 62.6423 134.915 62.4906 134.396 62.4451C133.876 62.3997 133.353 62.4615 132.858 62.6268C132.364 62.792 131.908 63.0571 131.52 63.4057C133.515 66.2146 137.054 74.7536 137.91 76.1791L138.346 76.8813C138.736 76.84 139.129 76.84 139.519 76.8813C140.34 77.0499 141.162 76.3898 141.948 76.5372L142.257 76.6004H142.412H142.489C142.384 76.5934 142.278 76.5934 142.173 76.6004C141.876 76.6369 141.587 76.7199 141.316 76.8462C140.816 77.0859 140.393 77.4604 140.094 77.9276C139.876 78.277 139.737 78.6702 139.687 79.0793C139.677 79.2195 139.677 79.3603 139.687 79.5006C139.658 79.366 139.611 79.2361 139.547 79.1144C139.413 78.7933 139.263 78.4792 139.097 78.1734C138.879 77.738 138.627 77.2886 138.353 76.8322H138.121L137.917 76.0808C137.917 76.0808 100.847 77.5625 101.627 82.8994C96.9709 96.677 138.374 84.6971 140.045 84.2055H140.094C141.758 83.804 143.399 83.3141 145.01 82.7379C145.481 82.379 145.867 81.9216 146.143 81.3975C146.418 80.8735 146.576 80.2956 146.604 79.7043C146.62 79.1798 146.554 78.6561 146.407 78.1523ZM139.715 79.7745C139.696 79.7275 139.684 79.6777 139.68 79.627C139.698 79.6744 139.71 79.724 139.715 79.7745Z" fill="#52BD94"/>
<path d="M142.489 76.7053C142.384 76.6983 142.278 76.6983 142.173 76.7053C141.876 76.7418 141.587 76.8247 141.316 76.9511C140.816 77.1907 140.393 77.5653 140.095 78.0325C139.876 78.3819 139.737 78.775 139.687 79.1841C139.677 79.3244 139.677 79.4652 139.687 79.6055C139.658 79.4709 139.611 79.3409 139.547 79.2192C139.413 78.8981 139.263 78.5841 139.097 78.2783C138.88 77.8429 138.627 77.3935 138.353 76.937C138.743 76.8957 139.136 76.8957 139.526 76.937C140.347 77.1056 141.169 76.4455 141.955 76.5929L142.264 76.6561H142.419L142.489 76.7053Z" fill="#52BD94"/>
<path d="M101.451 52.1136C102.069 51.2857 102.844 50.5877 103.732 50.0595C104.62 49.5313 105.604 49.1833 106.626 49.0352C107.649 48.8872 108.69 48.9421 109.692 49.1968C110.693 49.4515 111.634 49.9009 112.462 50.5195C117.378 54.143 115.973 62.6118 113.515 67.3167C110.756 72.5412 103.214 73.3347 100.082 67.9416C97.9751 64.3603 98.9231 61.095 100.012 55.4351C100.228 54.2315 100.721 53.0945 101.451 52.1136Z" fill="#FF8B7B"/>
<path d="M102.245 47.5001C99.3165 49.1854 97.3292 52.1698 96.2618 55.386C95.2717 58.3986 95.1733 71.0385 107.153 68.0752C107.373 64.6431 108.627 61.3579 110.749 58.6514C111.921 63.2369 111.879 56.0812 113.874 54.6698C115.369 53.6094 117.385 53.6586 119.021 52.8018C120.216 52.101 121.085 50.9566 121.44 49.6178C121.795 48.2789 121.607 46.854 120.917 45.6532C121.05 46.2993 120.046 48.1882 119.428 48.413C119.858 47.2139 119.928 45.9157 119.632 44.6771C119.428 45.6673 118.592 47.8652 117.673 47.9706C117.989 47.3596 117.673 45.3794 117.167 44.5156C117.588 45.2951 116.268 47.479 115.762 47.9706C114.26 49.3399 109.288 43.4412 102.245 47.5001Z" fill="#263238"/>
<path d="M110.145 57.1066C111.549 58.0897 111.612 60.6949 111.191 62.1766C110.727 63.8268 109.288 64.501 108.235 62.935C107.447 61.7368 107.075 60.3134 107.174 58.8832C107.329 57.1627 108.719 56.1234 110.145 57.1066Z" fill="#FF8B7B"/>
<path d="M48.8057 234.425C48.7924 234.405 48.7853 234.382 48.7853 234.358C48.7853 234.334 48.7924 234.311 48.8057 234.291C48.8209 234.273 48.8404 234.259 48.8625 234.25C48.8846 234.242 48.9086 234.239 48.9321 234.242C48.9882 234.242 50.6946 234.6 51.0949 235.267C51.1399 235.336 51.1683 235.414 51.1781 235.496C51.1878 235.577 51.1786 235.66 51.1511 235.738C51.0598 236.047 50.8772 236.145 50.7438 236.145C50.4137 236.194 49.9994 235.871 49.6343 235.492C49.3195 235.168 49.0416 234.81 48.8057 234.425ZM49.1708 234.551C49.6132 235.204 50.3505 235.955 50.7157 235.906C50.7157 235.906 50.8561 235.906 50.9193 235.667C50.9399 235.625 50.9506 235.578 50.9506 235.531C50.9506 235.483 50.9399 235.436 50.9193 235.394C50.8905 235.351 50.8576 235.311 50.821 235.274C50.3322 234.912 49.7682 234.665 49.1708 234.551Z" fill="#52BD94"/>
<path d="M48.7846 234.354C48.7811 234.333 48.7832 234.31 48.7906 234.289C48.7979 234.269 48.8103 234.25 48.8267 234.235C48.8758 234.193 50.0345 233.245 50.7999 233.336C50.8941 233.344 50.9855 233.371 51.068 233.417C51.1504 233.463 51.2219 233.527 51.2774 233.603C51.3379 233.67 51.3747 233.755 51.3823 233.845C51.3899 233.935 51.3679 234.025 51.3196 234.102C50.9755 234.579 49.4517 234.628 48.8688 234.446H48.8197C48.7968 234.421 48.7843 234.388 48.7846 234.354ZM50.7718 233.596C50.1859 233.664 49.6346 233.909 49.1918 234.298C49.8449 234.404 50.9193 234.298 51.1159 233.996C51.1159 233.996 51.1791 233.912 51.1159 233.786V233.744C51.0735 233.695 51.0205 233.656 50.9609 233.63C50.9012 233.605 50.8366 233.593 50.7718 233.596Z" fill="#52BD94"/>
<path d="M49.6061 221.708L54.3812 223.442L48.321 234.144L43.5459 232.409L49.6061 221.708Z" fill="#FF8B7B"/>
<path d="M49.4095 234.53C49.4868 236.201 50.7788 239.494 52.9206 242.956C53.3981 243.729 51.6566 245.063 50.1539 243.462C48.6511 241.861 45.4068 238.083 44.3184 236.959C42.5418 235.127 41.7483 234.474 40.3438 233.069C40.3029 233.03 40.2674 232.985 40.2385 232.936C40.1845 232.852 40.1478 232.758 40.1305 232.659C40.1133 232.561 40.1159 232.46 40.1381 232.362C40.1603 232.265 40.2018 232.173 40.26 232.092C40.3182 232.011 40.3921 231.942 40.4772 231.889L44.4799 229.432C44.5685 229.379 44.6723 229.358 44.7743 229.372C44.8762 229.386 44.9705 229.435 45.0417 229.509L49.0724 233.673C49.2891 233.906 49.4095 234.212 49.4095 234.53Z" fill="#263238"/>
<path opacity="0.2" d="M46.4742 227.227L51.0246 229.369L54.3813 223.442L49.6062 221.708L46.4742 227.227Z" fill="black"/>
<path d="M96.4303 119.162C96.4303 119.162 86.3043 156.338 81.6837 170.726C76.5926 186.477 54.5288 227.789 54.5288 227.789L45.8704 224.018C45.8704 224.018 62.5692 186.407 66.1365 170.649C69.9776 153.585 66.6561 123.754 78.299 115.967H78.3341L85.5248 117.238L96.4303 119.162Z" fill="#52BD94"/>
<path opacity="0.5" d="M96.4303 119.162C96.4303 119.162 91.5569 137.055 87.0205 152.819C85.0192 159.778 83.0811 166.323 81.6626 170.726C76.5715 186.477 54.5076 227.789 54.5076 227.789L45.8492 224.018C45.8492 224.018 62.5481 186.407 66.1154 170.649C69.9565 153.585 66.635 123.754 78.2779 115.967H78.313L85.5037 117.238L96.4303 119.162Z" fill="white"/>
<path d="M46.0248 221.82L44.5361 224.706L54.2549 229.004L56.6144 226.082L46.0248 221.82Z" fill="#263238"/>
<path opacity="0.3" d="M92.4276 131.626C89.2606 143.908 84.7031 161.204 81.8451 170.15C82.3086 157.145 84.0711 131.949 90.9389 131.296C91.4582 131.234 91.9832 131.35 92.4276 131.626Z" fill="black"/>
<path d="M97.8629 247.683C97.8383 247.679 97.8152 247.669 97.7965 247.653C97.7778 247.636 97.7642 247.615 97.7575 247.591C97.7523 247.567 97.7542 247.541 97.7629 247.517C97.7716 247.494 97.7868 247.473 97.8067 247.458C97.8839 247.409 99.6184 246.271 100.489 246.447C100.657 246.479 100.805 246.574 100.903 246.713C100.958 246.792 100.988 246.885 100.988 246.98C100.988 247.076 100.958 247.169 100.903 247.247C100.707 247.549 100.075 247.683 99.4148 247.725C98.8972 247.751 98.3783 247.737 97.8629 247.683ZM100.201 246.678C99.4926 246.804 98.8153 247.066 98.207 247.451C99.176 247.521 100.482 247.451 100.7 247.093C100.749 247.044 100.784 246.966 100.7 246.819C100.672 246.777 100.636 246.742 100.593 246.716C100.551 246.689 100.504 246.671 100.454 246.664C100.377 246.654 100.299 246.654 100.222 246.664L100.201 246.678Z" fill="#52BD94"/>
<path d="M97.7786 247.676C97.7615 247.662 97.7476 247.645 97.7379 247.626C97.7282 247.606 97.7229 247.585 97.7224 247.563C97.7224 247.507 97.7716 246.11 98.4246 245.527C98.518 245.439 98.6286 245.371 98.7494 245.327C98.8702 245.284 98.9987 245.266 99.1269 245.274C99.4709 245.274 99.5974 245.45 99.6044 245.59C99.7378 246.159 98.5791 247.36 97.9682 247.697H97.919C97.8956 247.704 97.8707 247.706 97.8464 247.702C97.822 247.699 97.7988 247.69 97.7786 247.676ZM99.0005 245.513C98.8625 245.526 98.7323 245.583 98.6283 245.674C98.264 246.142 98.0531 246.711 98.0244 247.303C98.6142 246.889 99.4288 245.962 99.3235 245.611C99.3235 245.611 99.3235 245.485 99.0777 245.492H99.0005V245.513Z" fill="#52BD94"/>
<path d="M91.9852 235.955L97.1325 235.639L97.3572 247.591L92.2099 247.914L91.9852 235.955Z" fill="#FF8B7B"/>
<path d="M98.5651 247.318C102.182 249.249 104.183 249.221 108.284 249.845C109.183 249.993 108.719 252.163 106.613 252.296C103.101 252.514 101.809 252.43 98.8249 252.619C96.2758 252.774 93.3546 253.104 91.3252 253.23C91.2692 253.237 91.2126 253.237 91.1566 253.23C91.059 253.216 90.9653 253.182 90.8809 253.131C90.7964 253.08 90.723 253.012 90.6649 252.933C90.6067 252.853 90.565 252.762 90.5421 252.666C90.5192 252.57 90.5157 252.471 90.5317 252.373L91.2339 247.732C91.2511 247.63 91.3021 247.538 91.3785 247.469C91.455 247.4 91.5525 247.359 91.6552 247.353L97.273 247.009C97.7242 246.987 98.1723 247.094 98.5651 247.318Z" fill="#263238"/>
<path opacity="0.2" d="M91.9783 235.962L92.1117 242.675L97.259 242.359L97.1326 235.639L91.9783 235.962Z" fill="black"/>
<path d="M105.131 120.714C105.131 120.714 106.402 158.24 105.278 173.942C104.099 190.276 99.3657 239.424 99.3657 239.424L90.6441 239.965C90.6441 239.965 89.3028 190.676 89.4924 174.602C89.5626 169.125 89.1203 161.604 88.5023 153.838C87.0979 136.71 84.7805 118.417 84.7805 118.417L96.4163 119.162L105.131 120.714Z" fill="#52BD94"/>
<path opacity="0.5" d="M105.131 120.714C105.131 120.714 106.402 158.24 105.278 173.942C104.099 190.276 99.3657 239.424 99.3657 239.424L90.6441 239.965C90.6441 239.965 89.3028 190.676 89.4924 174.602C89.5626 169.125 89.1203 161.604 88.5023 153.838C87.0979 136.71 84.7805 118.417 84.7805 118.417L96.4163 119.162L105.131 120.714Z" fill="white"/>
<path d="M89.1975 238.013L89.682 241.229L100.286 240.569C100.286 240.569 100.595 236.917 100.559 236.917L89.1975 238.013Z" fill="#263238"/>
</svg>
