<svg width="320" height="254" viewBox="0 0 320 254" fill="none" xmlns="http://www.w3.org/2000/svg">
<path d="M159.835 253.774C248.057 253.774 319.575 249.598 319.575 244.447C319.575 239.297 248.057 235.121 159.835 235.121C71.6124 235.121 0.0942383 239.297 0.0942383 244.447C0.0942383 249.598 71.6124 253.774 159.835 253.774Z" fill="#F5F5F5"/>
<path d="M207.166 0.111816H230.836C232.769 0.111816 234.624 0.880004 235.991 2.24738C237.359 3.61476 238.127 5.46932 238.127 7.40308V27.9999C238.127 29.9336 237.359 31.7882 235.991 33.1556C234.624 34.5229 232.769 35.2911 230.836 35.2911H225.596L226.42 41.7915L220.653 35.2911H207.166C206.209 35.2911 205.261 35.1025 204.377 34.7359C203.493 34.3694 202.689 33.8322 202.013 33.1551C201.337 32.4779 200.8 31.674 200.435 30.7895C200.069 29.9049 199.882 28.957 199.883 27.9999V7.40308C199.882 6.44597 200.069 5.49803 200.435 4.61346C200.8 3.72889 201.337 2.92504 202.013 2.24788C202.689 1.57071 203.493 1.03351 204.377 0.666989C205.261 0.300468 206.209 0.111816 207.166 0.111816Z" fill="#52BD94"/>
<path opacity="0.7" d="M207.166 0.111816H230.836C232.769 0.111816 234.624 0.880004 235.991 2.24738C237.359 3.61476 238.127 5.46932 238.127 7.40308V27.9999C238.127 29.9336 237.359 31.7882 235.991 33.1556C234.624 34.5229 232.769 35.2911 230.836 35.2911H225.596L226.42 41.7915L220.653 35.2911H207.166C206.209 35.2911 205.261 35.1025 204.377 34.7359C203.493 34.3694 202.689 33.8322 202.013 33.1551C201.337 32.4779 200.8 31.674 200.435 30.7895C200.069 29.9049 199.882 28.957 199.883 27.9999V7.40308C199.882 6.44597 200.069 5.49803 200.435 4.61346C200.8 3.72889 201.337 2.92504 202.013 2.24788C202.689 1.57071 203.493 1.03351 204.377 0.666989C205.261 0.300468 206.209 0.111816 207.166 0.111816Z" fill="white"/>
<path d="M219.005 13.5657C214.251 8.62248 208.921 10.6657 208.921 15.4771C208.921 20.2885 219.005 26.9536 219.005 26.9536C219.005 26.9536 229.089 20.2967 229.089 15.4771C229.089 10.6575 223.759 8.62248 219.005 13.5657Z" fill="#52BD94"/>
<path d="M198.416 91.7677L192.518 89.0654L191.9 95.2692C191.9 95.2692 197.84 96.9169 198.713 95.2033L198.416 91.7677Z" fill="#EEC1BB"/>
<path d="M187.212 91.4217L187.895 95.8459L191.899 95.2692L192.517 89.0654L187.212 91.4217Z" fill="#EEC1BB"/>
<path d="M232.063 78.5039C232.063 78.5039 221.856 87.8631 219.129 89.2142C216.402 90.5654 197.312 91.0103 197.312 91.0103L198.021 96.5137C198.021 96.5137 215.718 98.5404 221.213 97.0987C226.585 95.6899 235.548 88.1844 235.548 88.1844L232.063 78.5039Z" fill="#263238"/>
<path opacity="0.2" d="M235.548 88.143L234.972 88.6209C234.148 89.3047 232.385 90.6723 230.325 92.1223C227.433 94.1655 223.874 96.357 221.221 97.0656C215.71 98.5073 198.021 96.4806 198.021 96.4806L197.312 90.9771C197.312 90.9771 216.369 90.6723 219.129 89.2552C221.889 87.8382 232.055 78.5449 232.055 78.5449L234.296 84.7157L235.062 86.8248L235.548 88.143Z" fill="white"/>
<path opacity="0.2" d="M235.062 86.7917C235.09 87.4029 235.059 88.0152 234.972 88.6207C234.148 89.3045 232.385 90.6721 230.325 92.1221C230.836 88.8267 233.447 85.63 234.296 84.7073C234.461 84.5178 234.56 84.4189 234.56 84.4189C234.862 85.175 235.032 85.9778 235.062 86.7917Z" fill="black"/>
<path d="M267.852 115.215C267.852 115.215 267.482 121.608 264.359 132.813C262.4 139.737 260.023 146.535 257.241 153.171C255.684 156.919 253.896 160.899 251.844 165.084C250.922 166.987 249.933 168.923 248.895 170.909C247.7 204.819 228.669 239.29 228.669 239.29C227.614 239.834 223.932 239.241 223.956 238.17C226.774 233.696 232.319 190.245 235.894 169.632C236.117 166.831 236.438 163.865 236.834 160.726C237.88 152.405 239.429 143.358 240.953 135.4C243.317 122.861 245.567 113.032 245.567 113.032L251.836 113.641L267.852 115.215Z" fill="#EEC1BB"/>
<path d="M275.333 162.16C274.828 165.807 274.177 169.709 273.38 173.867C280.177 196.548 266.196 240.815 266.196 240.815C263.832 241.284 261.739 240.98 260.676 240.18C263.313 226.842 261.418 192.165 259.366 171.445C259.185 169.566 258.955 167.499 258.707 165.291C258.287 161.55 257.785 157.431 257.249 153.171C256.343 146.045 255.329 138.548 254.415 131.899C253.295 123.866 252.322 117.069 251.82 113.65C251.614 112.151 251.49 111.302 251.49 111.302L271.115 113.428C271.115 113.428 276.108 119.022 276.882 136.496C277.138 145.08 276.619 153.669 275.333 162.16Z" fill="#EEC1BB"/>
<path opacity="0.2" d="M275.333 162.16C269.964 163.972 264.368 165.026 258.707 165.29C258.287 161.55 257.785 157.431 257.249 153.171C255.692 156.92 253.904 160.899 251.853 165.084C246.617 164.609 241.521 163.132 236.842 160.734C237.888 152.413 239.437 143.367 240.961 135.409C243.041 134.188 245.29 133.28 247.635 132.715C249.863 132.178 252.147 131.901 254.44 131.891C257.779 131.875 261.112 132.182 264.392 132.805C268.652 133.603 272.819 134.84 276.824 136.496C277.099 145.078 276.6 153.667 275.333 162.16Z" fill="black"/>
<path d="M266.682 246.606H265.587L265.282 245.255L261.665 246.903H252.487C252.487 246.903 251.029 245.436 255.403 244.275C255.616 244.214 255.823 244.134 256.021 244.036C258.345 242.94 261.665 239.249 261.665 239.249H266.699C266.85 239.485 266.988 239.73 267.111 239.982C267.663 241.07 268.585 243.426 266.682 246.606Z" fill="#263238"/>
<path d="M267.111 239.966C266.443 239.225 263.42 242.479 261.204 243.591C259.226 244.572 257.002 245.008 256.021 244.011C258.345 242.916 262.011 238.146 262.011 238.146H266.056C266.056 238.146 266.872 239.488 267.111 239.966Z" fill="#FFC2BC"/>
<path d="M228.463 246.606H227.392L227.087 245.255L223.462 246.903H214.276C214.276 246.903 212.818 245.436 217.184 244.275C217.397 244.214 217.604 244.134 217.802 244.036C220.134 242.94 223.446 239.249 223.446 239.249H228.479C228.635 239.483 228.773 239.728 228.891 239.982C229.443 241.07 230.391 243.426 228.463 246.606Z" fill="#263238"/>
<path d="M228.891 239.966C228.232 239.225 225.209 242.479 222.992 243.591C221.015 244.572 218.791 245.008 217.802 244.011C220.134 242.916 223.8 238.146 223.8 238.146H227.845C227.845 238.146 228.661 239.488 228.891 239.966Z" fill="#FFC2BC"/>
<path d="M245.188 111.302H271.247L271.955 114.664C271.955 114.664 281.529 127.911 276.676 160.949C276.676 160.949 255.708 163.371 235.96 159.136C235.96 159.136 240.393 125.193 245.023 114.112L245.188 111.302Z" fill="#263238"/>
<path opacity="0.6" d="M254.876 107.315C254.877 107.381 254.865 107.447 254.84 107.509C254.816 107.571 254.779 107.628 254.732 107.675C254.685 107.723 254.629 107.761 254.568 107.786C254.506 107.812 254.44 107.825 254.374 107.825C254.238 107.825 254.108 107.771 254.012 107.676C253.917 107.58 253.863 107.45 253.863 107.315C253.863 107.179 253.917 107.049 254.012 106.953C254.108 106.858 254.238 106.804 254.374 106.804C254.44 106.804 254.506 106.817 254.568 106.843C254.629 106.869 254.685 106.906 254.732 106.954C254.779 107.001 254.816 107.058 254.84 107.12C254.865 107.182 254.877 107.248 254.876 107.315Z" fill="white"/>
<path d="M231.602 60.873C232.6 62.9918 233.304 65.237 233.695 67.5464C233.695 67.5464 247.701 65.1901 250.213 61.6722C252.726 58.1542 249.497 42.9208 241.777 43.7859C234.057 44.651 227.038 52.2883 231.602 60.873Z" fill="#263238"/>
<path d="M252.685 69.7709C252.685 69.7709 240.945 81.0168 240.162 74.3517C240.162 74.3517 235.021 75.917 232.302 79.0312C232.302 79.0312 232.92 88.0362 241.991 109.91L240.681 119.59L249.694 121.139L252.396 113.222L258.287 119.673L272.005 110.717L266.485 103.245C266.485 103.245 261.887 83.4719 263.469 73.33C263.469 73.33 260.767 67.1181 252.685 69.7709Z" fill="#52BD94"/>
<path opacity="0.7" d="M252.685 69.7709C252.685 69.7709 240.945 81.0168 240.162 74.3517C240.162 74.3517 235.021 75.917 232.302 79.0312C232.302 79.0312 233.307 88.6458 241.991 109.91L240.681 119.59L249.694 121.139L252.396 113.222L258.287 119.673L272.005 110.717L266.485 103.245C266.485 103.245 261.887 83.4719 263.469 73.33C263.469 73.33 260.767 67.1181 252.685 69.7709Z" fill="white"/>
<path d="M248.055 58.0552C248.211 61.9109 249.076 68.7655 252.125 70.4132C252.125 70.4132 256.071 71.9456 246.613 74.6067C246.407 76.8065 244.636 81.9474 244.636 81.9474C244.636 81.9474 241.966 78.446 242.164 76.8147C235.969 78.1906 241.085 73.8817 241.085 73.8817C244.817 71.6655 244.01 68.6914 242.658 66.0879L248.055 58.0552Z" fill="#EEC1BB"/>
<path opacity="0.2" d="M245.863 61.3506L242.675 66.1043C243.006 66.7127 243.282 67.3496 243.499 68.0075C244.957 67.3072 246.638 64.9591 246.415 63.2867C246.349 62.6133 246.162 61.9574 245.863 61.3506Z" fill="black"/>
<path d="M248.854 49.9893C249.571 56.0612 250.007 58.607 247.602 62.3474C243.977 68.0321 236.529 67.9662 234.049 62.3474C231.816 57.2723 231.009 48.2015 236.323 44.4529C237.437 43.6095 238.757 43.0795 240.145 42.9178C241.533 42.7562 242.939 42.9688 244.218 43.5336C245.496 44.0983 246.6 44.9948 247.415 46.1299C248.23 47.265 248.727 48.5975 248.854 49.9893Z" fill="#EEC1BB"/>
<path d="M242.625 47.3944C247.066 50.4839 242.04 57.2232 248.458 54.9081C254.876 52.593 249.348 44.2472 244.833 43.3739C240.319 42.5006 242.625 47.3944 242.625 47.3944Z" fill="#263238"/>
<path d="M240.071 53.7957C240.154 54.3065 239.964 54.7761 239.643 54.8503C239.322 54.9244 239 54.5702 238.918 54.0264C238.836 53.4827 239.025 53.046 239.346 52.9719C239.668 52.8977 239.989 53.2932 240.071 53.7957Z" fill="#263238"/>
<path d="M234.107 55.2872C234.189 55.798 233.999 56.2676 233.686 56.3417C233.373 56.4159 233.044 56.0699 232.953 55.5591C232.863 55.0483 233.068 54.5787 233.382 54.5045C233.695 54.4304 234.024 54.7599 234.107 55.2872Z" fill="#263238"/>
<path d="M233.53 54.5043L232.302 54.4219C232.302 54.4219 233.06 55.2375 233.53 54.5043Z" fill="#263238"/>
<path d="M235.911 55.7319C235.665 56.9917 235.261 58.2152 234.708 59.3735C234.992 59.4976 235.3 59.5562 235.609 59.5447C235.919 59.5333 236.222 59.4523 236.496 59.3075L235.911 55.7319Z" fill="#D4827D"/>
<path d="M240.129 49.8162C240.094 49.8324 240.056 49.8408 240.018 49.8408C239.98 49.8408 239.942 49.8324 239.907 49.8162C239.597 49.6245 239.244 49.5129 238.88 49.4913C238.516 49.4697 238.153 49.5389 237.822 49.6926C237.789 49.7105 237.753 49.7214 237.715 49.7244C237.677 49.7274 237.639 49.7226 237.604 49.7102C237.568 49.6978 237.535 49.6781 237.508 49.6524C237.48 49.6266 237.458 49.5954 237.443 49.5608C237.41 49.488 237.405 49.4055 237.43 49.3293C237.454 49.2531 237.506 49.1888 237.575 49.1488C237.991 48.9503 238.45 48.8584 238.91 48.8814C239.37 48.9044 239.818 49.0416 240.212 49.2807C240.276 49.3271 240.321 49.3958 240.337 49.4734C240.354 49.5509 240.342 49.632 240.302 49.7008C240.257 49.7557 240.197 49.7959 240.129 49.8162Z" fill="#263238"/>
<path d="M231.915 52.9139C231.882 52.93 231.845 52.9383 231.808 52.9383C231.771 52.9383 231.734 52.93 231.701 52.9139C231.666 52.8972 231.634 52.8737 231.608 52.8445C231.582 52.8154 231.563 52.7813 231.55 52.7443C231.538 52.7074 231.533 52.6683 231.537 52.6295C231.54 52.5906 231.551 52.5529 231.569 52.5184C231.748 52.0658 232.029 51.6607 232.391 51.3348C232.753 51.0089 233.185 50.7711 233.653 50.64C233.691 50.6342 233.729 50.6361 233.766 50.6455C233.803 50.6549 233.837 50.6717 233.867 50.6948C233.897 50.7179 233.922 50.7469 233.941 50.7799C233.959 50.813 233.971 50.8495 233.975 50.8872C233.985 50.9664 233.965 51.0465 233.92 51.112C233.874 51.1775 233.805 51.2237 233.728 51.2414C233.357 51.3424 233.016 51.5283 232.73 51.7842C232.444 52.0402 232.221 52.3593 232.08 52.7162C232.07 52.7599 232.05 52.8007 232.022 52.8351C231.993 52.8695 231.956 52.8965 231.915 52.9139Z" fill="#263238"/>
<path d="M239.495 53.0048L238.267 52.9307C238.267 52.9307 239.017 53.7381 239.495 53.0048Z" fill="#263238"/>
<path d="M239.404 44.9144C239.404 44.9144 242.65 51.3159 247.494 51.0358C252.339 50.7557 246.16 43.8269 246.16 43.8269C246.16 43.8269 244.067 40.4655 238.003 42.3687C231.94 44.2718 226.881 52.6259 231.602 60.8728C230.866 59.1028 230.641 57.1621 230.951 55.2705C231.569 52.5188 233.579 54.0924 239.404 44.9144Z" fill="#263238"/>
<path d="M242.955 41.9238C250.164 42.4758 253.813 45.9443 254.736 50.7804C255.659 55.6166 251.441 62.3558 250.576 62.8254L247.824 64.1354C247.824 64.1354 250.296 56.5805 248.813 54.7597C247.33 52.939 246.382 53.0049 246.382 53.0049L242.955 41.9238Z" fill="#263238"/>
<path d="M251.144 55.3446C251.067 55.9237 250.871 56.4805 250.567 56.9797C250.264 57.4789 249.86 57.9096 249.381 58.2446C248.153 59.019 247.099 57.6679 247.058 56.0036C247.058 54.5042 247.626 52.288 249.035 52.2138C250.444 52.1397 251.391 53.7874 251.144 55.3446Z" fill="#EEC1BB"/>
<path d="M237.674 60.634C238.475 61.197 239.232 61.8194 239.939 62.496C240.08 62.3971 240.211 62.2982 240.351 62.1829C242.205 60.7576 242.592 59.4806 242.461 58.5002C242.385 58.0229 242.195 57.5708 241.909 57.182C241.753 56.957 241.567 56.7546 241.357 56.5806C240.829 57.9235 239.206 59.39 238.3 60.1314C237.929 60.4528 237.674 60.634 237.674 60.634Z" fill="#263238"/>
<path d="M238.3 60.1314L238.984 60.667C240.722 59.3158 241.769 58.1294 241.909 57.182C241.753 56.957 241.568 56.7546 241.357 56.5806C240.829 57.9235 239.206 59.39 238.3 60.1314Z" fill="white"/>
<path d="M240.351 62.1744C242.205 60.7491 242.592 59.4721 242.461 58.4917C241.765 59.0475 241.173 59.7226 240.714 60.4855C240.418 60.996 240.291 61.5873 240.351 62.1744Z" fill="#DE5753"/>
<path d="M281.438 123.298L273.092 126.684C273.092 126.684 260.141 108.377 256.227 100.584C255.956 100.056 255.733 99.5785 255.56 99.1584C255.288 98.482 255.051 97.7918 254.852 97.0905C254.346 95.1953 253.966 93.2687 253.715 91.3234C252.652 83.3812 252.891 73.1982 255.074 69.326C255.074 69.326 258.048 68.947 259.152 68.9305C260.256 68.9141 263.461 69.1447 263.461 69.1447C263.131 71.2374 263.28 74.9118 263.651 79.0806C263.997 82.9116 264.532 87.171 265.068 91.0103C265.974 97.4694 266.888 102.726 266.888 102.726C275.366 111.203 281.438 123.298 281.438 123.298Z" fill="#263238"/>
<path opacity="0.2" d="M281.438 123.298L273.092 126.684C273.092 126.684 260.141 108.377 256.227 100.584C255.956 100.056 255.733 99.5785 255.56 99.1584C255.288 98.482 255.051 97.7918 254.852 97.0905C254.346 95.1953 253.966 93.2687 253.715 91.3234C252.652 83.3812 252.891 73.1982 255.074 69.326C255.074 69.326 258.048 68.947 259.152 68.9305C260.256 68.9141 263.461 69.1447 263.461 69.1447C263.131 71.2374 263.28 74.9118 263.651 79.0806C263.997 82.9116 264.532 87.171 265.068 91.0103C265.974 97.4694 266.888 102.726 266.888 102.726C275.366 111.203 281.438 123.298 281.438 123.298Z" fill="white"/>
<path d="M253.443 80.0035L256.129 83.3402L255.89 86.3391L255 97.3625L254.852 97.0906C254.014 95.431 253.336 93.6959 252.825 91.9084C251.243 86.545 250.156 77.9026 255.074 69.3179C255.074 69.3179 255.898 72.6957 257.348 80.0282L253.443 80.0035Z" fill="#263238"/>
<path opacity="0.2" d="M265.067 91.0099C263.766 94.0829 262.192 97.4855 261.261 98.4247C260.091 99.5616 257.735 100.278 256.227 100.633C255.955 100.105 255.733 99.6275 255.56 99.2074C255.288 98.531 255.051 97.8408 254.851 97.1395C254.014 95.4799 253.335 93.7447 252.825 91.9573L253.649 91.3888C254.184 90.9769 254.992 88.9172 255.824 86.4456C257.356 81.9473 258.864 76.1802 258.864 76.1802C260.746 76.5502 262.437 77.5711 263.642 79.0637C263.996 82.8947 264.532 87.1541 265.067 91.0099Z" fill="black"/>
<path d="M244.248 108.221L241.95 130.828L238.531 131.899L241.521 109.078C241.521 109.078 240.895 108.007 239.964 106.178C239.033 104.349 237.872 101.926 236.669 99.0099C234.296 93.1604 231.956 85.5726 231.997 78.512C233.62 77.1968 235.423 76.1229 237.353 75.3236C237.715 75.1753 238.094 75.0435 238.473 74.9199C238.473 74.9199 236.825 82.2277 240.945 97.7164C240.994 97.9059 241.043 98.1119 241.101 98.3096V98.392C241.661 100.435 242.312 102.618 243.087 104.983C243.46 106.01 243.847 107.089 244.248 108.221Z" fill="#263238"/>
<path opacity="0.2" d="M244.248 108.221L241.95 130.828L238.531 131.899L241.521 109.078C241.521 109.078 240.895 108.007 239.964 106.178C239.033 104.349 237.872 101.926 236.669 99.0099C234.296 93.1604 231.956 85.5726 231.997 78.512C233.62 77.1968 235.423 76.1229 237.353 75.3236C237.715 75.1753 238.094 75.0435 238.473 74.9199C238.473 74.9199 236.825 82.2277 240.945 97.7164C240.994 97.9059 241.043 98.1119 241.101 98.3096V98.392C241.661 100.435 242.312 102.618 243.087 104.983C243.46 106.01 243.847 107.089 244.248 108.221Z" fill="white"/>
<path d="M241.126 98.3756L240.788 97.7577L235.26 87.5829L236.529 85.1113L233.81 88.069C233.81 88.069 235.153 77.1197 236.735 75.818C236.937 75.6513 237.148 75.4973 237.369 75.3566C237.895 74.9251 238.56 74.6997 239.239 74.7222C237.344 76.6995 240.319 94.0338 240.986 97.733C241.035 98.0213 241.077 98.2273 241.093 98.3426L241.126 98.3756Z" fill="#263238"/>
<path opacity="0.2" d="M243.111 104.933C242.287 105.288 241.06 105.757 239.964 106.177C239.058 104.406 237.872 101.926 236.669 99.0097C237.707 98.7378 239.14 98.3259 240.788 97.7574L240.953 97.6997H241.002C241.052 97.9881 241.093 98.194 241.109 98.3094V98.3918C241.686 100.418 242.337 102.602 243.111 104.933Z" fill="black"/>
<path d="M243.507 71.5669C243.507 71.5669 241.085 74.6976 242.172 76.8397L237.278 79.7974C237.278 79.7974 238.745 73.4783 243.507 71.5669Z" fill="#52BD94"/>
<path d="M255 75.2739L246.868 75.1915C246.868 75.1915 249.785 70.8168 250.468 68.7241L253.484 69.7952C253.591 69.9187 254.876 71.4841 255 75.2739Z" fill="#52BD94"/>
<path opacity="0.6" d="M243.507 71.5669C243.507 71.5669 241.085 74.6976 242.172 76.8397L237.278 79.7974C237.278 79.7974 238.745 73.4783 243.507 71.5669Z" fill="white"/>
<path opacity="0.6" d="M255 75.2739L246.868 75.1915C246.868 75.1915 249.785 70.8168 250.468 68.7241L253.484 69.7952C253.591 69.9187 254.876 71.4841 255 75.2739Z" fill="white"/>
<path d="M239.972 100.501L233.489 100.402L235.416 106.334C235.416 106.334 241.513 105.453 241.62 103.525L239.972 100.501Z" fill="#EEC1BB"/>
<path d="M229.575 104.703L231.989 108.476L235.416 106.334L233.48 100.402L229.575 104.703Z" fill="#EEC1BB"/>
<path d="M263.461 69.1284C270.052 73.2478 261.228 96.4727 259.465 97.7909C257.702 99.1091 241.398 104.744 241.398 104.744L237.806 99.8423C237.806 99.8423 253.789 92.1556 254.992 91.4224C256.194 90.6891 259.111 74.9038 259.111 74.9038L263.461 69.1284Z" fill="#263238"/>
<path opacity="0.2" d="M263.461 69.1284C270.052 73.2478 261.228 96.4727 259.465 97.7909C257.702 99.1091 241.398 104.744 241.398 104.744L237.806 99.8423C237.806 99.8423 253.789 92.1556 254.992 91.4224C256.194 90.6891 259.111 74.9038 259.111 74.9038L263.461 69.1284Z" fill="white"/>
<path d="M95.2512 241.456L101.743 242.824L108.68 231.422L102.188 230.046L95.2512 241.456Z" fill="#EEC1BB"/>
<path d="M103.053 240.081H95.7866C95.6671 240.08 95.5509 240.121 95.4579 240.196C95.3648 240.271 95.3005 240.376 95.2758 240.493L94.0977 245.815C94.0488 246.043 94.0924 246.282 94.2191 246.478C94.3457 246.674 94.545 246.812 94.7733 246.861H94.971C97.319 246.82 99.0327 246.672 101.99 246.672C103.811 246.672 109.298 246.861 111.803 246.861C114.307 246.861 114.645 244.39 113.615 244.159C109.002 243.154 105.533 241.761 104.058 240.435C103.782 240.191 103.422 240.063 103.053 240.081Z" fill="#263238"/>
<path d="M103.465 240.904C103.437 240.899 103.412 240.885 103.392 240.864C103.373 240.844 103.361 240.817 103.358 240.789C103.353 240.762 103.356 240.733 103.368 240.708C103.38 240.683 103.4 240.662 103.424 240.649C103.638 240.509 105.574 239.322 106.233 239.668C106.308 239.703 106.372 239.759 106.415 239.83C106.459 239.9 106.482 239.981 106.481 240.064C106.501 240.205 106.484 240.349 106.432 240.482C106.38 240.615 106.295 240.732 106.184 240.822C105.846 241.053 105.439 241.16 105.03 241.127C104.502 241.11 103.977 241.036 103.465 240.904ZM103.877 240.707C104.576 240.944 105.339 240.905 106.011 240.599C106.082 240.536 106.136 240.456 106.169 240.367C106.202 240.278 106.213 240.183 106.2 240.089C106.2 239.982 106.143 239.924 106.11 239.924C106.048 239.907 105.982 239.907 105.92 239.924C105.197 240.056 104.504 240.321 103.877 240.707Z" fill="#52BD94"/>
<path d="M103.424 240.954C103.402 240.94 103.385 240.92 103.373 240.897C103.362 240.874 103.356 240.848 103.358 240.822C103.358 240.74 103.514 239.018 104.182 238.458C104.262 238.384 104.358 238.33 104.462 238.298C104.566 238.267 104.676 238.259 104.783 238.276C104.89 238.278 104.992 238.315 105.075 238.382C105.157 238.45 105.214 238.543 105.236 238.647C105.36 239.281 104.165 240.6 103.589 240.929H103.523C103.494 240.95 103.459 240.958 103.424 240.954ZM104.388 238.622C103.968 239.163 103.721 239.818 103.679 240.501C104.297 240.031 105.055 239.034 104.981 238.647C104.981 238.647 104.981 238.507 104.775 238.507H104.709C104.594 238.5 104.479 238.535 104.388 238.606V238.622Z" fill="#52BD94"/>
<path opacity="0.2" d="M102.188 230.046L108.68 231.422L105.096 237.304L98.6042 235.928L102.188 230.046Z" fill="black"/>
<path d="M73.7893 202.817C74.1435 202.817 78.0899 202.817 78.4606 202.751C85.5771 202.025 92.6019 200.581 99.4281 198.442C105.55 196.597 109.784 194.883 109.784 194.883C111.226 202.998 98.044 234.124 98.044 234.124L108.796 234.792C108.796 234.792 138.859 190.443 126.047 176.618C116.482 166.303 88.0587 177.508 88.0587 177.508L85.3976 171.428L56.661 174.723C56.661 174.723 48.7765 204.152 73.7893 202.817Z" fill="#263238"/>
<path opacity="0.2" d="M73.7893 202.817C74.1435 202.817 78.0899 202.817 78.4606 202.751C85.5771 202.025 92.6019 200.581 99.4281 198.442C105.55 196.597 109.784 194.883 109.784 194.883C111.226 202.998 98.044 234.124 98.044 234.124L108.796 234.792C108.796 234.792 138.859 190.443 126.047 176.618C116.482 166.303 88.0587 177.508 88.0587 177.508L85.3976 171.428L56.661 174.723C56.661 174.723 48.7765 204.152 73.7893 202.817Z" fill="white"/>
<path d="M108.26 236.06L97.5415 234.347L98.5713 231.43L110.229 233.861L108.26 236.06Z" fill="#52BD94"/>
<path opacity="0.2" d="M77.3813 202.817L78.4606 202.751C85.577 202.025 92.6019 200.581 99.4281 198.442C89.0226 196.531 79.095 189.05 79.095 189.05L77.3813 202.817Z" fill="black"/>
<path d="M22.4457 229.296L21.8855 235.245L35.6359 237.041L36.1961 231.076L22.4457 229.296Z" fill="#EEC1BB"/>
<path d="M22.4951 236.143L23.1789 228.901C23.1869 228.783 23.1557 228.666 23.0902 228.567C23.0246 228.469 22.9283 228.395 22.8164 228.357L17.626 226.709C17.402 226.639 17.1595 226.661 16.9512 226.769C16.7428 226.877 16.5856 227.063 16.5137 227.286C16.5105 227.349 16.5105 227.412 16.5137 227.476C16.3325 229.824 16.316 231.546 16.0359 234.479C15.8629 236.291 15.1626 241.737 14.9319 244.241C14.7012 246.746 17.1316 247.298 17.453 246.293C18.8535 241.778 20.6001 238.483 22.0254 237.107C22.2974 236.856 22.465 236.512 22.4951 236.143Z" fill="#263238"/>
<path d="M21.63 236.472C21.6397 236.445 21.6575 236.421 21.6809 236.403C21.7044 236.385 21.7325 236.375 21.7618 236.374C21.7893 236.374 21.8161 236.382 21.8394 236.396C21.8627 236.411 21.8814 236.431 21.8936 236.456C22.009 236.678 23.0141 238.722 22.6104 239.348C22.5657 239.417 22.503 239.473 22.429 239.509C22.3549 239.545 22.2724 239.561 22.1902 239.554C22.0469 239.557 21.9048 239.526 21.7768 239.461C21.6488 239.396 21.5389 239.301 21.457 239.183C21.2639 238.825 21.1971 238.413 21.2675 238.013C21.3336 237.488 21.4551 236.972 21.63 236.472ZM21.7948 236.901C21.4912 237.571 21.4558 238.331 21.6959 239.026C21.752 239.104 21.8265 239.167 21.9128 239.208C21.9991 239.25 22.0945 239.27 22.1902 239.265C22.2973 239.265 22.355 239.265 22.3632 239.191C22.3958 239.136 22.4155 239.074 22.4209 239.01C22.3454 238.274 22.133 237.559 21.7948 236.901Z" fill="#52BD94"/>
<path d="M21.6051 236.431C21.6198 236.41 21.6399 236.394 21.6631 236.384C21.6863 236.374 21.7118 236.37 21.737 236.373C21.8194 236.373 23.5248 236.695 24.0191 237.436C24.1405 237.617 24.185 237.84 24.1427 238.054C24.1337 238.161 24.0876 238.261 24.0124 238.338C23.9372 238.415 23.8376 238.463 23.7307 238.474C23.0881 238.532 21.8935 237.222 21.6134 236.579V236.505C21.6031 236.482 21.6002 236.456 21.6051 236.431ZM23.8378 237.601C23.3382 237.133 22.7097 236.826 22.0336 236.719C22.4373 237.378 23.36 238.227 23.7555 238.194C23.7555 238.194 23.9037 238.194 23.9202 237.996V237.93C23.9299 237.814 23.9009 237.699 23.8378 237.601Z" fill="#52BD94"/>
<path opacity="0.2" d="M36.188 231.076L35.6278 237.041L28.5425 236.11L29.1027 230.145L36.188 231.076Z" fill="black"/>
<path d="M80.8994 181.635C83.0827 184.873 92.3842 233.786 79.2517 243.104C69.5959 249.951 30.7998 238.606 30.7998 238.606L31.4754 228.719C31.4754 228.719 64.1336 232.633 67.182 229.988C70.2303 227.344 56.3975 193.894 55.6478 187.419C54.898 180.943 80.8994 181.635 80.8994 181.635Z" fill="#263238"/>
<path opacity="0.5" d="M108.26 236.06L97.5415 234.347L98.5713 231.43L110.229 233.861L108.26 236.06Z" fill="white"/>
<path opacity="0.2" d="M80.8994 181.635C83.0827 184.873 92.3842 233.786 79.2517 243.104C69.5959 249.951 30.7998 238.606 30.7998 238.606L31.4754 228.719C31.4754 228.719 64.1336 232.633 67.182 229.988C70.2303 227.344 56.3975 193.894 55.6478 187.419C54.898 180.943 80.8994 181.635 80.8994 181.635Z" fill="white"/>
<path d="M32.8264 227.937L32.0272 239.891L29.0283 239.133L30.3795 227.294L32.8264 227.937Z" fill="#52BD94"/>
<path opacity="0.5" d="M32.8264 227.937L32.0272 239.891L29.0283 239.133L30.3795 227.294L32.8264 227.937Z" fill="white"/>
<path d="M71.2186 122.976C75.2226 122.514 79.2596 122.152 83.2719 121.723C87.2841 121.295 91.3293 120.949 95.2015 120.455C96.0254 120.455 97.4589 119.631 98.8348 118.51C103.226 114.844 106.933 110.107 110.526 105.559L113.821 107.528C112.023 111.327 109.886 114.956 107.436 118.37C104.734 121.921 101.488 126.09 96.8575 127.293C92.6063 128.199 88.4128 128.809 84.1452 129.369C80.0917 129.913 76.0465 130.382 71.9684 130.728L71.2021 122.976H71.2186Z" fill="#EBC0BB"/>
<path d="M68.8706 135.012C73.6161 138.003 90.8598 131.717 90.8598 131.717L87.8691 121.097C82.8572 120.911 77.8422 121.374 72.9488 122.473C65.5339 124.376 63.5896 131.684 68.8706 135.012Z" fill="#52BD94"/>
<path opacity="0.2" d="M68.8706 135.012C73.6161 138.003 90.8598 131.717 90.8598 131.717L87.8691 121.097C82.8572 120.911 77.8422 121.374 72.9488 122.473C65.5339 124.376 63.5896 131.684 68.8706 135.012Z" fill="white"/>
<path opacity="0.1" d="M69.4724 135.325C68.9204 132.854 70.3868 130.522 75.19 128.957C79.8701 127.629 84.7299 127.045 89.5913 127.227L90.86 131.75C90.86 131.75 74.877 137.616 69.4724 135.325Z" fill="black"/>
<path d="M108.087 109.134L110.929 101.25L117.331 104.809C117.331 104.809 116.12 110.576 111.308 111.4L108.087 109.134Z" fill="#EEC1BB"/>
<path d="M115.345 97.2383L119.489 101.036L117.331 104.801L110.929 101.242L115.345 97.2383Z" fill="#EEC1BB"/>
<path d="M75.1979 122.531C75.1979 122.531 85.7023 138.415 86.2131 172.087L55.5074 178.678C54.2798 174.006 52.2943 150.378 42.9763 129.146C46.2296 127.752 49.5707 126.571 52.9781 125.612C57.2707 124.426 61.6279 123.488 66.0282 122.803C69.0732 122.475 72.1389 122.384 75.1979 122.531Z" fill="#52BD94"/>
<path opacity="0.2" d="M86.2131 172.087L55.5074 178.678C54.7412 175.753 53.6702 165.397 50.696 152.841C49.8721 149.496 48.9741 145.978 47.8701 142.419C46.4867 137.908 44.8529 133.477 42.9763 129.147C46.2272 127.753 49.5654 126.572 52.9699 125.612C57.2644 124.423 61.6246 123.485 66.0282 122.803C69.0751 122.464 72.1436 122.362 75.2062 122.498C75.2062 122.498 85.6858 138.415 86.2131 172.087Z" fill="white"/>
<path d="M52.7312 110.321C54.2224 114.441 56.2491 122.094 53.7198 125.382C58.0534 126.486 61.1347 127.194 65.0975 129.765C65.9214 126.972 66.9183 123.347 66.9183 123.347C61.975 122.951 61.5878 119.417 61.9009 115.99L52.7312 110.321Z" fill="#EEC1BB"/>
<path opacity="0.2" d="M56.5044 112.636L61.9255 115.989C61.8557 116.79 61.8557 117.595 61.9255 118.395C60.08 118.395 57.2871 116.805 56.801 114.943C56.5662 114.198 56.4657 113.417 56.5044 112.636Z" fill="black"/>
<path d="M49.1636 126.798L51.5034 123.396L59.9728 124.384L64.57 128.932L64.6853 123.289L66.1188 121.295L69.6532 122.522L69.9087 126.032L67.4123 125.414L65.6575 130.465L58.7946 128.215L57.4435 130.217L49.1636 126.798Z" fill="#263238"/>
<path opacity="0.3" d="M49.1636 126.798L51.5034 123.396L59.9728 124.384L64.57 128.932L64.6853 123.289L66.1188 121.295L69.6532 122.522L69.9087 126.032L67.4123 125.414L65.6575 130.465L58.7946 128.215L57.4435 130.217L49.1636 126.798Z" fill="white"/>
<path opacity="0.1" d="M65.6577 130.465L66.0367 124.549L69.9089 126.032L67.4126 125.414L65.6577 130.465Z" fill="black"/>
<path opacity="0.1" d="M65.6576 130.464L59.149 126.378L57.4436 130.217L58.7948 128.215L65.6576 130.464Z" fill="black"/>
<path opacity="0.1" d="M50.6962 152.849C49.8724 149.505 48.9743 145.987 47.8704 142.428C48.7811 141.116 50.1412 140.184 51.6931 139.808C51.6931 139.808 53.1431 147.947 50.6962 152.849Z" fill="black"/>
<path d="M47.8704 135.63C47.1865 143.045 46.0414 150.831 46.6098 158.279C46.6593 158.616 46.7252 159.004 46.7664 159.185C46.7028 159.088 46.6217 159.005 46.5274 158.938C46.4286 158.872 46.3956 158.938 46.5274 158.938C47.3513 159.391 49.1885 159.3 50.3749 159.193C53.8932 158.735 57.3697 157.999 60.7722 156.993L62.354 160.511C58.9427 162.565 55.2597 164.129 51.413 165.158C40.1754 167.737 39.0549 161.195 38.9561 151.811C38.9538 146.078 39.353 140.352 40.1507 134.675L47.8704 135.672V135.63Z" fill="#EBC0BB"/>
<path d="M42.9766 129.154C34.9026 133.274 36.8964 153.096 36.8964 153.096L48.2988 153.055C50.0824 147.954 51.4599 142.72 52.4181 137.401C53.5551 129.855 48.34 126.436 42.9766 129.154Z" fill="#52BD94"/>
<path opacity="0.2" d="M42.9766 129.154C34.9026 133.274 36.8964 153.096 36.8964 153.096L48.2988 153.055C50.0824 147.954 51.4599 142.72 52.4181 137.401C53.5551 129.855 48.34 126.436 42.9766 129.154Z" fill="white"/>
<path d="M58.3831 157.603L64.3644 151.737L68.5908 157.719C68.5908 157.719 64.9905 162.406 60.3027 161.014L58.3831 157.603Z" fill="#EEC1BB"/>
<path d="M70.0819 150.048L72.1663 155.263L68.5907 157.718L64.3643 151.737L70.0819 150.048Z" fill="#EEC1BB"/>
<path d="M63.0459 94.0744C66.1025 95.0713 68.64 103.088 65.1303 105.263C61.6206 107.438 57.2541 92.196 63.0459 94.0744Z" fill="#263238"/>
<path d="M50.7539 104.422C52.6406 110.024 53.4562 113.394 57.1389 115.635C58.3278 116.377 59.6969 116.78 61.0981 116.8C62.4994 116.82 63.8795 116.457 65.0892 115.749C66.2989 115.042 67.2922 114.017 67.9616 112.786C68.631 111.554 68.9511 110.164 68.8873 108.764C68.739 103.367 65.6742 95.1122 59.454 94.1565C58.1127 93.9158 56.7316 94.0317 55.4492 94.4927C54.1668 94.9536 53.028 95.7435 52.1469 96.7831C51.2659 97.8227 50.6734 99.0756 50.4289 100.416C50.1844 101.757 50.2965 103.138 50.7539 104.422Z" fill="#EEC1BB"/>
<path d="M56.2244 96.7764L55.2934 91.8332C43.7592 89.4851 40.2083 100.896 45.8024 106.918C48.7354 110.074 51.7755 111.268 53.5056 109.497C55.1533 108.451 54.6755 102.494 53.8434 100.368C52.5911 97.1307 56.2244 96.7764 56.2244 96.7764Z" fill="#263238"/>
<path d="M50.0947 110.56C51.1467 111.581 52.5217 112.205 53.9834 112.323C55.8288 112.43 56.0431 110.675 54.9473 109.192C53.9587 107.824 51.8001 106.119 50.2348 106.72C48.6694 107.322 48.76 109.283 50.0947 110.56Z" fill="#EEC1BB"/>
<path d="M59.874 103.985C59.9975 104.447 60.3518 104.768 60.6978 104.694C61.0439 104.62 61.1427 104.191 61.0191 103.73C60.8956 103.269 60.5495 102.947 60.2447 103.021C59.9399 103.096 59.7504 103.524 59.874 103.985Z" fill="#263238"/>
<path d="M65.1469 102.758C65.2787 103.219 65.6248 103.532 65.9708 103.466C66.3168 103.4 66.4239 102.956 66.2921 102.494C66.1603 102.033 65.8225 101.72 65.5177 101.786C65.2128 101.852 65.0233 102.288 65.1469 102.758Z" fill="#263238"/>
<path d="M63.5322 103.368C64.4735 104.654 65.5817 105.809 66.8277 106.803C66.5661 107.106 66.2405 107.348 65.8744 107.51C65.5083 107.673 65.1108 107.752 64.7104 107.742L63.5322 103.368Z" fill="#D4827D"/>
<path d="M57.7895 102.675C57.7437 102.688 57.6953 102.688 57.6495 102.675C57.5802 102.646 57.5251 102.591 57.4959 102.522C57.4666 102.453 57.4656 102.375 57.493 102.305C57.6564 101.893 57.9183 101.527 58.2558 101.24C58.5934 100.952 58.9962 100.752 59.4291 100.657C59.4654 100.65 59.5028 100.65 59.539 100.658C59.5752 100.666 59.6094 100.681 59.6395 100.703C59.6695 100.724 59.6949 100.752 59.714 100.784C59.7331 100.816 59.7454 100.851 59.7504 100.888C59.7574 100.924 59.757 100.961 59.7491 100.997C59.7412 101.034 59.7259 101.068 59.7043 101.098C59.6827 101.128 59.6552 101.153 59.6235 101.172C59.5917 101.192 59.5564 101.204 59.5197 101.209C59.1814 101.29 58.8677 101.451 58.6052 101.679C58.3427 101.907 58.1392 102.195 58.012 102.519C57.9926 102.563 57.9617 102.6 57.9225 102.628C57.8833 102.656 57.8374 102.672 57.7895 102.675Z" fill="#263238"/>
<path d="M66.9347 100.426C66.8885 100.431 66.8418 100.425 66.7986 100.408C66.7555 100.391 66.7173 100.363 66.6875 100.327C66.4604 100.048 66.1723 99.8235 65.8453 99.6721C65.5183 99.5207 65.1611 99.4461 64.8009 99.4539C64.764 99.4585 64.7267 99.4557 64.6909 99.4458C64.6552 99.4358 64.6218 99.4188 64.5926 99.3958C64.5635 99.3728 64.5392 99.3443 64.5212 99.3118C64.5032 99.2794 64.4919 99.2437 64.4878 99.2068C64.4809 99.1315 64.5037 99.0566 64.5515 98.998C64.5993 98.9395 64.6681 98.902 64.7432 98.8937C65.1943 98.8788 65.6428 98.9676 66.0541 99.1533C66.4655 99.339 66.8288 99.6166 67.1159 99.9647C67.1663 100.018 67.1944 100.089 67.1944 100.162C67.1944 100.236 67.1663 100.307 67.1159 100.36C67.0656 100.404 67.0011 100.427 66.9347 100.426Z" fill="#263238"/>
<path d="M46.7169 94.3626C45.893 97.9464 55.3181 100.435 61.7772 97.7817C61.0954 97.7639 60.4237 97.6127 59.8 97.3368C59.8 97.3368 65.7648 96.7683 66.8358 92.3112L65.8307 93.135C65.8307 93.135 66.6546 89.4441 64.529 87.508L64.4136 88.7026C64.4136 88.7026 61.4559 86.1651 58.0286 87.6728L59.3798 88.0765C59.3798 88.0765 48.2163 88.0518 46.7169 94.3626Z" fill="#263238"/>
<path d="M65.9872 109.274C63.5812 108.932 61.1478 108.821 58.7207 108.945C59.3716 110.543 60.5662 111.837 63.3014 111.771C63.6456 111.801 63.9923 111.758 64.3191 111.646C64.6459 111.534 64.9455 111.354 65.1985 111.119C65.4516 110.884 65.6526 110.598 65.7884 110.28C65.9243 109.963 65.992 109.62 65.9872 109.274Z" fill="#263238"/>
<path d="M62.016 110.527C63.0653 110.449 64.1122 110.706 65.0067 111.26C64.5065 111.606 63.9095 111.785 63.3013 111.771C62.2545 111.849 61.2099 111.592 60.3188 111.037C60.8157 110.691 61.4103 110.512 62.016 110.527Z" fill="#A02724"/>
<path d="M65.7401 109.233C65.5918 109.579 65.4518 109.926 64.9162 110.057C63.3306 110.083 61.7457 109.973 60.179 109.728C59.9269 109.712 59.6827 109.633 59.4685 109.5C59.2542 109.366 59.0765 109.181 58.9514 108.962C61.2179 108.875 63.4878 108.966 65.7401 109.233Z" fill="white"/>
<path d="M125.726 100.715C125.726 103.459 121.912 105.658 117.273 105.584C112.635 105.51 108.911 103.269 108.944 100.526C108.977 97.7822 112.759 95.5825 117.389 95.6648C122.019 95.7472 125.759 97.9799 125.726 100.715Z" fill="#263238"/>
<path d="M129.351 91.6691C129.807 91.2371 130.081 90.648 130.118 90.0214C130.118 87.3356 124.458 85.0782 117.405 85.0123C110.353 84.9463 104.611 87.0472 104.578 89.733C104.606 90.355 104.868 90.9435 105.311 91.3808C105.178 91.6359 105.102 91.9171 105.088 92.2046C105.097 92.5154 105.168 92.8213 105.297 93.1043C105.426 93.3872 105.61 93.6416 105.838 93.8524C105.689 94.1197 105.606 94.4195 105.599 94.7257C105.608 95.0388 105.682 95.3467 105.815 95.6301C105.948 95.9136 106.138 96.1666 106.374 96.3734C106.207 96.6408 106.116 96.9483 106.11 97.2632C106.13 97.5721 106.213 97.8736 106.355 98.1486C106.496 98.4237 106.694 98.6664 106.934 98.8615C106.76 99.1294 106.663 99.4401 106.654 99.7595C106.654 101.992 111.358 103.879 117.224 103.928C123.09 103.978 127.86 102.281 127.885 99.9985C127.884 99.6777 127.792 99.3637 127.621 99.0922C127.86 98.8996 128.057 98.6597 128.199 98.3875C128.341 98.1152 128.424 97.8166 128.445 97.5104C128.442 97.1984 128.36 96.8922 128.206 96.6206C128.443 96.422 128.637 96.1784 128.778 95.9041C128.92 95.6297 129.005 95.33 129.03 95.0223C129.028 94.7149 128.951 94.4125 128.808 94.1407C129.044 93.9403 129.238 93.6952 129.38 93.4195C129.521 93.1438 129.607 92.843 129.632 92.5342C129.605 92.2282 129.51 91.9323 129.351 91.6691Z" fill="#263238"/>
<path opacity="0.3" d="M129.351 91.6691C129.807 91.2371 130.081 90.648 130.118 90.0214C130.118 87.3356 124.458 85.0782 117.405 85.0123C110.353 84.9463 104.611 87.0472 104.578 89.733C104.606 90.355 104.868 90.9435 105.311 91.3808C105.178 91.6359 105.102 91.9171 105.088 92.2046C105.097 92.5154 105.168 92.8213 105.297 93.1043C105.426 93.3872 105.61 93.6416 105.838 93.8524C105.689 94.1197 105.606 94.4195 105.599 94.7257C105.608 95.0388 105.682 95.3467 105.815 95.6301C105.948 95.9136 106.138 96.1666 106.374 96.3734C106.207 96.6408 106.116 96.9483 106.11 97.2632C106.13 97.5721 106.213 97.8736 106.355 98.1486C106.496 98.4237 106.694 98.6664 106.934 98.8615C106.76 99.1294 106.663 99.4401 106.654 99.7595C106.654 101.992 111.358 103.879 117.224 103.928C123.09 103.978 127.86 102.281 127.885 99.9985C127.884 99.6777 127.792 99.3637 127.621 99.0922C127.86 98.8996 128.057 98.6597 128.199 98.3875C128.341 98.1152 128.424 97.8166 128.445 97.5104C128.442 97.1984 128.36 96.8922 128.206 96.6206C128.443 96.422 128.637 96.1784 128.778 95.9041C128.92 95.6297 129.005 95.33 129.03 95.0223C129.028 94.7149 128.951 94.4125 128.808 94.1407C129.044 93.9403 129.238 93.6952 129.38 93.4195C129.521 93.1438 129.607 92.843 129.632 92.5342C129.605 92.2282 129.51 91.9323 129.351 91.6691Z" fill="white"/>
<path d="M139.93 67.9416C139.975 64.1307 139.055 60.3705 137.256 57.0105C135.458 53.6506 132.839 50.8001 129.643 48.7241C126.447 46.6482 122.777 45.4142 118.976 45.137C115.175 44.8598 111.366 45.5484 107.903 47.1387C104.439 48.7289 101.434 51.1693 99.1672 54.2327C96.9001 57.2962 95.4446 60.8832 94.936 64.6602C94.4274 68.4372 94.8823 72.2815 96.2583 75.8354C97.6344 79.3894 99.8868 82.5377 102.806 84.9875C103.277 85.3751 103.644 85.8724 103.877 86.4356C104.11 86.9988 104.2 87.6105 104.141 88.217C104.136 88.2774 104.136 88.338 104.141 88.3983C104.141 91.1253 109.908 93.4074 117.059 93.4898C124.21 93.5722 130.052 91.4219 130.085 88.6866C130.085 88.629 130.085 88.5713 130.085 88.5136C130.03 87.8944 130.13 87.2712 130.376 86.7003C130.622 86.1293 131.006 85.6285 131.493 85.2429C134.09 83.161 136.193 80.5299 137.652 77.5384C139.111 74.5469 139.889 71.2695 139.93 67.9416Z" fill="#52BD94"/>
<path opacity="0.7" d="M139.93 67.9416C139.975 64.1307 139.055 60.3705 137.256 57.0105C135.458 53.6506 132.839 50.8001 129.643 48.7241C126.447 46.6482 122.777 45.4142 118.976 45.137C115.175 44.8598 111.366 45.5484 107.903 47.1387C104.439 48.7289 101.434 51.1693 99.1672 54.2327C96.9001 57.2962 95.4446 60.8832 94.936 64.6602C94.4274 68.4372 94.8823 72.2815 96.2583 75.8354C97.6344 79.3894 99.8868 82.5377 102.806 84.9875C103.277 85.3751 103.644 85.8724 103.877 86.4356C104.11 86.9988 104.2 87.6105 104.141 88.217C104.136 88.2774 104.136 88.338 104.141 88.3983C104.141 91.1253 109.908 93.4074 117.059 93.4898C124.21 93.5722 130.052 91.4219 130.085 88.6866C130.085 88.629 130.085 88.5713 130.085 88.5136C130.03 87.8944 130.13 87.2712 130.376 86.7003C130.622 86.1293 131.006 85.6285 131.493 85.2429C134.09 83.161 136.193 80.5299 137.652 77.5384C139.111 74.5469 139.889 71.2695 139.93 67.9416Z" fill="white"/>
<path d="M121.113 89.7497C121.061 89.7396 121.015 89.7101 120.984 89.6672C120.954 89.6243 120.941 89.5712 120.948 89.519C121.014 89.0823 122.596 79.0311 127.926 75.3896H124.351C124.311 75.3903 124.273 75.3789 124.24 75.3567C124.208 75.3346 124.183 75.3029 124.169 75.266L123.008 72.4566L120.289 77.8283C120.272 77.8623 120.247 77.8911 120.215 77.9114C120.183 77.9318 120.146 77.9429 120.108 77.9436C120.071 77.9433 120.035 77.9323 120.004 77.9118C119.973 77.8913 119.949 77.8623 119.935 77.8283L117.356 72.2836L114.678 77.0785C114.637 77.1444 114.563 77.1939 114.505 77.1774C114.47 77.1777 114.436 77.1687 114.405 77.1514C114.375 77.134 114.35 77.1089 114.332 77.0785L111.77 72.2342L110.543 75.0436C110.528 75.0811 110.502 75.1127 110.468 75.1336C110.433 75.1545 110.393 75.1634 110.353 75.1589H106.571C107.914 76.5925 112.8 82.3184 112.718 89.4696C112.718 89.5849 112.627 89.692 112.52 89.6673C112.467 89.6673 112.417 89.6465 112.38 89.6094C112.343 89.5723 112.322 89.522 112.322 89.4696C112.413 81.3956 106.036 75.1589 105.97 75.1013C105.941 75.0751 105.92 75.0404 105.911 75.0021C105.902 74.9637 105.906 74.9234 105.921 74.887C105.938 74.8508 105.964 74.82 105.998 74.7982C106.031 74.7764 106.07 74.7643 106.11 74.7635L110.229 74.8047L111.572 71.7481C111.587 71.7137 111.611 71.684 111.642 71.6623C111.672 71.6405 111.708 71.6274 111.745 71.6245C111.782 71.6244 111.819 71.6343 111.851 71.6531C111.883 71.672 111.909 71.6991 111.927 71.7316L114.522 76.5925L117.216 71.7728C117.235 71.7424 117.262 71.7174 117.294 71.7001C117.326 71.6828 117.361 71.6738 117.397 71.6739C117.433 71.6747 117.468 71.6861 117.497 71.7067C117.526 71.7272 117.549 71.7559 117.562 71.7893L120.132 77.3092L122.826 71.847C122.843 71.8132 122.869 71.785 122.901 71.7659C122.933 71.7469 122.97 71.7378 123.008 71.7399C123.046 71.7408 123.082 71.7531 123.113 71.7751C123.144 71.7971 123.168 71.8279 123.181 71.8634L124.458 74.9529L128.577 75.0024C128.619 75.0045 128.659 75.0197 128.691 75.0458C128.723 75.0719 128.747 75.1076 128.758 75.1478C128.769 75.188 128.767 75.2306 128.752 75.2696C128.737 75.3086 128.711 75.3419 128.676 75.3649C123.065 78.5615 121.335 89.4696 121.311 89.5767C121.304 89.6247 121.281 89.6689 121.245 89.7008C121.208 89.7327 121.161 89.7501 121.113 89.7497Z" fill="#263238"/>
<path opacity="0.2" d="M128.832 54.8173C128.832 59.2168 123.683 62.7924 117.298 62.7924C110.913 62.7924 105.764 59.2168 105.764 54.8173C105.764 50.4178 110.913 46.834 117.298 46.834C123.683 46.834 128.832 50.4096 128.832 54.8173Z" fill="white"/>
<path opacity="0.2" d="M125.726 80.1597C125.726 83.3728 121.97 85.9845 117.331 85.9845C112.693 85.9845 108.944 83.3728 108.944 80.1597C108.944 76.9466 112.701 74.335 117.331 74.335C121.961 74.335 125.726 76.9466 125.726 80.1597Z" fill="white"/>
<path d="M101.068 44.107C105.632 38.6777 122.958 35.0444 132.523 43.6209C132.523 43.6209 129.228 38.5294 132.523 34.1793C132.523 34.1793 128.173 37.0052 124.285 34.1793C120.396 31.3535 119.465 17.2323 119.465 17.2323C119.465 17.2323 118.551 31.5759 112.157 32.8859C105.764 34.1958 101.669 25.1003 101.669 25.1003C101.669 25.1003 105.146 35.0774 103.408 36.6345C101.669 38.1916 98.1926 36.6345 98.1926 36.6345L101.068 44.107Z" fill="#52BD94"/>
<path d="M90.8601 54.0096C90.8601 54.0096 84.5657 66.2276 90.8601 77.1522C89.5579 76.3202 88.0814 75.7997 86.5454 75.6311C85.0094 75.4625 83.4551 75.6504 82.0035 76.18C82.0035 76.18 84.4751 73.5683 84.1208 70.8001C83.7666 68.0319 72.3889 64.1185 72.3889 64.1185C72.3889 64.1185 81.3526 64.9424 83.3052 61.8364C85.2578 58.7304 78.362 52.7162 78.362 52.7162C78.362 52.7162 85.9004 56.7861 87.5317 55.4844C89.1629 54.1827 87.5317 50.1045 87.5317 50.1045L90.8601 54.0096Z" fill="#52BD94"/>
<path d="M141.808 79.1709C141.808 79.1709 148.169 70.3555 143.11 56.9676L147.477 54.3477C147.477 54.3477 145.829 57.1406 146.826 58.9119C147.823 60.6832 157.091 59.4557 157.091 59.4557C157.091 59.4557 149.759 60.9304 149.437 64.8026C149.116 68.6748 158.558 74.3348 158.558 74.3348C158.558 74.3348 149.923 72.1762 148.136 74.3348C146.348 76.4933 150.171 80.6786 150.171 80.6786C150.171 80.6786 145.887 77.6055 141.808 79.1709Z" fill="#52BD94"/>
<path d="M174.887 175.085H91.89V246.894H174.887V175.085Z" fill="#52BD94"/>
<path opacity="0.7" d="M174.887 175.085H91.89V246.894H174.887V175.085Z" fill="white"/>
<path opacity="0.5" d="M112.05 240.896C112.854 240.74 113.575 240.3 114.082 239.658C114.59 239.016 114.851 238.213 114.818 237.395H112.091L111.704 238.219H111.96L110.987 239.866L111.531 238.474H111.119L111.506 237.378H108.59C108.557 238.195 108.817 238.997 109.323 239.639C109.829 240.281 110.548 240.721 111.35 240.88V243.467L109.776 244.291V244.769H113.698V244.291L112.116 243.467L112.05 240.896Z" fill="black"/>
<path opacity="0.5" d="M100.771 237.304H93.5212V244.554H100.771V237.304Z" fill="black"/>
<path opacity="0.5" d="M172.168 236.061H162.067V244.448H172.168V236.061Z" fill="black"/>
<path opacity="0.5" d="M134.155 180.194H122.2V187.798H134.155V180.194Z" fill="black"/>
<path opacity="0.1" d="M119.49 175.085H91.89V246.894H119.49V175.085Z" fill="black"/>
<path d="M105.632 193.178H78.0325L91.89 175.085H119.49L105.632 193.178Z" fill="#52BD94"/>
<path opacity="0.1" d="M119.49 175.085L106.489 195.938L91.89 201.491V175.085H119.49Z" fill="black"/>
<path d="M132.466 191.546H187.863L174.887 175.085H119.49L132.466 191.546Z" fill="#52BD94"/>
<path opacity="0.6" d="M105.632 193.178H78.0325L91.89 175.085H119.49L105.632 193.178Z" fill="white"/>
<path opacity="0.6" d="M132.466 191.546H187.863L174.887 175.085H119.49L132.466 191.546Z" fill="white"/>
</svg>
