<svg width="41" height="46" viewBox="0 0 41 46" fill="none" xmlns="http://www.w3.org/2000/svg">
<path d="M21.59 0.0557168C9.9661 -0.781662 0.165527 8.31785 0.165527 19.5946C0.165527 25.5679 2.90057 30.8713 7.17408 34.4999C7.6869 34.9465 8.19972 35.3373 8.71254 35.6722C8.88348 35.7839 9.1114 35.7839 9.22536 35.6164L9.62422 35.2814C9.6812 35.2814 9.6812 35.2256 9.73818 35.2256L15.7211 29.5873C16.063 29.2523 16.2339 28.6941 16.006 28.3033C15.6641 27.5776 14.6954 27.4659 14.1826 27.9683L9.1114 32.7693C9.1114 32.7693 8.99744 32.881 8.88348 32.881C8.71254 32.881 8.59858 32.7693 8.59858 32.7693C7.28804 31.597 4.43903 28.8615 3.12849 24.3397C2.61567 22.4975 2.38775 20.4878 2.50171 18.4222C3.07151 9.88096 10.137 2.9028 18.855 2.28873C29.2254 1.563 37.8863 9.60183 37.8863 19.5946C37.8863 24.5072 35.7781 28.9732 32.4162 32.1552C32.2453 32.2669 32.0174 32.2669 31.9034 32.1552L28.3137 28.6382C28.1427 28.4708 28.1997 28.2475 28.3137 28.1358C30.6499 26.0145 32.0744 22.9999 32.0744 19.5946C32.0744 12.9513 26.3764 7.5363 19.4818 7.92708C13.4419 8.26203 8.48462 13.1747 8.2567 19.0921C8.14274 21.2135 8.65556 23.2232 9.56724 24.9538L9.62422 24.898L9.90912 25.4562C10.0801 25.847 10.5359 26.0703 10.9348 26.0703C11.2197 26.0703 11.5046 25.9586 11.7325 25.7353C12.0744 25.4004 12.1313 24.898 11.9034 24.4514L10.9917 22.6091C10.9917 22.6091 10.9917 22.5533 10.9348 22.5533C10.6499 21.6043 10.4219 20.6552 10.4219 19.5946C10.4219 14.012 15.3792 9.54601 21.1912 10.2159C25.5786 10.7183 29.1114 14.1237 29.6812 18.4222C30.137 21.7717 28.7125 24.8421 26.3764 26.8518L24.8379 27.8567C24.667 27.9683 24.61 28.2475 24.7809 28.4149L26.1484 29.7547L30.365 33.83L31.7895 35.2256C31.9034 35.3373 32.1313 35.3931 32.3023 35.2814C32.8151 34.8907 33.3279 34.4999 33.7838 34.0533C37.9433 30.2572 40.4504 24.7863 40.1655 18.7572C39.6527 8.82028 31.6185 0.72562 21.59 0.0557168Z" fill="#52BD94"/>
<path d="M20.159 34.43L14.8407 39.6406L20.159 44.8512L25.4774 39.6406L20.159 34.43Z" stroke="#52BD94" stroke-width="2" stroke-miterlimit="10" stroke-linecap="round" stroke-linejoin="round"/>
</svg>
