<svg width="109" height="109" viewBox="0 0 109 109" fill="none" xmlns="http://www.w3.org/2000/svg">
<path d="M104.784 45.8991V58.5554L95.3345 59.5679C94.322 65.4741 92.1282 70.8741 88.922 75.7679L94.4907 83.0241L85.547 91.9679L78.4595 86.3991C73.7345 89.7741 68.1657 92.1366 62.0907 93.3179L60.9095 102.262H48.2532L47.072 93.3179C41.1657 92.3054 35.597 89.7741 30.7032 86.3991L23.6157 91.9679L14.672 83.0241L20.2407 75.7679C17.5407 70.8741 15.1782 65.4741 14.3345 59.5679L5.05322 58.3866V45.7304L14.672 44.5491C15.8532 38.8116 18.047 33.5804 21.422 29.0241L15.347 21.2616L23.9532 12.3179L31.8845 18.5616C36.4407 15.5241 41.672 13.3304 47.2407 12.3179L48.422 2.19287H61.0782L62.2595 12.3179C67.8282 13.3304 73.0595 15.5241 77.6157 18.5616L85.7157 12.3179L94.6595 21.2616L88.5845 29.0241C91.7907 33.5804 94.1532 38.8116 95.3345 44.5491L104.784 45.8991Z" fill="#E3ECFF"/>
<path d="M31.0407 86.2304L23.9532 91.7991L15.0095 82.8554L20.5782 75.5991C17.5407 70.8741 15.1782 65.4741 14.3345 59.5679L5.05322 58.3866V45.7304L14.672 44.5491C15.8532 38.8116 18.047 33.5804 21.422 29.0241L15.347 21.2616L23.9532 12.3179L31.8845 18.5616C36.4407 15.5241 41.672 13.3304 47.2407 12.3179L48.422 2.19287H61.0782L62.2595 12.3179C67.8282 13.3304 73.0595 15.5241 77.6157 18.5616L85.7157 12.3179L94.6595 21.2616L88.5845 29.0241C91.7907 33.5804 94.1532 38.8116 95.3345 44.5491L104.953 45.7304V58.3866L95.3345 59.5679C94.322 65.4741 92.1282 70.8741 88.922 75.7679L94.4907 83.0241L85.547 91.9679L78.4595 86.3991" stroke="#2A3C65" stroke-width="2" stroke-miterlimit="10" stroke-linecap="round" stroke-linejoin="round"/>
<path d="M58.0407 24.6366C71.372 25.9866 82.0032 36.7866 83.3532 50.1179C84.3657 60.2429 80.147 69.3554 73.0595 75.0929C69.1782 78.2991 66.4782 82.5179 65.6345 87.4116H44.0345C43.1907 82.6866 40.4907 78.2991 36.6095 75.2616C30.197 70.0304 26.147 62.0991 26.147 53.1554C26.3157 36.2804 40.8282 22.7804 58.0407 24.6366Z" fill="#FECB4D"/>
<path d="M73.0594 75.0929C69.1782 78.2992 66.4782 82.5179 65.6344 87.4117H44.0344C43.1907 82.6867 40.4907 78.2992 36.6095 75.2617C35.4282 74.2492 34.4157 73.2367 33.4032 72.0554C36.6094 73.2367 40.1532 73.7429 43.6969 73.7429C60.7407 73.7429 74.4094 59.9054 74.4094 43.0304C74.4094 38.3054 73.3969 33.9179 71.5407 29.8679C77.9532 34.5929 82.3407 41.8492 83.1844 50.1179C84.1969 60.2429 79.9782 69.3554 73.0594 75.0929Z" fill="#F9B826"/>
<path d="M51.2907 87.4116H65.4657C66.3095 82.5179 69.0095 78.2991 72.8907 75.0929C79.9782 69.3554 84.197 60.0741 83.1845 50.1179C81.8345 36.7866 71.2032 26.1554 57.872 24.6366C40.6595 22.7804 26.147 36.2804 26.147 52.9866C26.147 61.9304 30.197 69.8616 36.6095 75.0929C38.297 76.4429 39.8157 78.1304 40.997 79.9866" stroke="#2A3C65" stroke-width="1.5" stroke-miterlimit="10" stroke-linecap="round" stroke-linejoin="round"/>
<path d="M71.7095 38.3054C74.747 41.6804 76.6032 46.0679 77.1095 50.7929C77.447 53.6617 77.1095 56.3617 76.4345 58.8929" stroke="white" stroke-miterlimit="10" stroke-linecap="round" stroke-linejoin="round"/>
<path d="M61.2471 31.5554C63.2721 32.0617 65.1283 33.0742 66.8158 34.0867L61.2471 31.5554Z" fill="#FECB4D"/>
<path d="M61.2471 31.5554C63.2721 32.0617 65.1283 33.0742 66.8158 34.0867" stroke="white" stroke-miterlimit="10" stroke-linecap="round" stroke-linejoin="round"/>
<path d="M68.1656 87.4116V98.2116C68.1656 102.937 64.2844 106.818 59.5594 106.818H50.2781C45.5531 106.818 41.6719 102.937 41.6719 98.2116V87.4116H68.1656Z" fill="#02BEFF"/>
<path d="M67.9969 87.4116H41.5032V92.9804H67.9969V87.4116Z" fill="#00ADDB"/>
<path d="M68.1656 87.4116V98.2116C68.1656 102.937 64.2844 106.818 59.5594 106.818H50.2781C45.5531 106.818 41.6719 102.937 41.6719 98.2116V87.4116H68.1656Z" stroke="#2A3C65" stroke-width="1.5" stroke-miterlimit="10" stroke-linecap="round" stroke-linejoin="round"/>
<path d="M51.2908 93.3179H71.7095" stroke="#2A3C65" stroke-miterlimit="10" stroke-linecap="round" stroke-linejoin="round"/>
<path d="M37.9595 93.3179H46.9032" stroke="#2A3C65" stroke-miterlimit="10" stroke-linecap="round" stroke-linejoin="round"/>
<path opacity="0.3" d="M61.7038 101.372C62.9559 100.119 63.3833 98.5167 62.6584 97.7918C61.9334 97.0669 60.3307 97.4943 59.0786 98.7465C57.8265 99.9986 57.3992 101.601 58.1241 102.326C58.849 103.051 60.4517 102.624 61.7038 101.372Z" fill="white"/>
<path d="M63.6094 99.3928H71.7094" stroke="#2A3C65" stroke-miterlimit="10" stroke-linecap="round" stroke-linejoin="round"/>
<path d="M37.9595 99.3928H56.1845" stroke="#2A3C65" stroke-miterlimit="10" stroke-linecap="round" stroke-linejoin="round"/>
<path d="M58.2095 60.4116C58.2095 59.5678 58.0408 58.8928 57.5345 58.3866C57.0283 57.8803 56.1845 57.3741 55.0033 56.8678C53.822 56.3616 52.8095 56.0241 51.9658 55.5178C51.122 55.0116 50.447 54.5053 49.772 53.9991C49.097 53.4928 48.7595 52.8178 48.422 51.9741C48.0845 51.1303 47.9158 50.2866 47.9158 49.2741C47.9158 47.4178 48.422 45.8991 49.6033 44.8866C50.7845 43.8741 52.3033 43.0303 54.1595 42.8616V39.4866H56.6908V43.0303C58.547 43.3678 60.0658 44.0428 61.0783 45.3928C62.0908 46.7428 62.7658 48.4303 62.7658 50.4553H58.2095C58.2095 49.1053 57.872 48.2616 57.3658 47.5866C56.8595 46.9116 56.1845 46.5741 55.172 46.5741C54.3283 46.5741 53.6533 46.7428 53.147 47.2491C52.6408 47.7553 52.472 48.4303 52.472 49.2741C52.472 50.1178 52.6408 50.7928 53.147 51.2991C53.6533 51.8053 54.497 52.3116 55.847 52.8178C57.197 53.3241 58.2095 53.8303 59.0533 54.3366C59.897 54.8428 60.572 55.3491 61.0783 55.8553C61.5845 56.3616 62.0908 57.0366 62.4283 57.8803C62.7658 58.7241 62.9345 59.3991 62.9345 60.4116C62.9345 62.2678 62.4283 63.7866 61.247 64.7991C60.0658 65.9803 58.547 66.6553 56.522 66.8241V70.0303H53.9908V66.8241C51.797 66.6553 50.1095 65.8116 48.9283 64.4616C47.747 63.1116 47.072 61.4241 47.072 59.2303H51.4595C51.4595 60.5803 51.797 61.4241 52.3033 62.0991C52.9783 62.7741 53.822 63.1116 55.0033 63.1116C56.0158 63.1116 56.6908 62.9428 57.197 62.4366C57.872 61.9303 58.2095 61.2553 58.2095 60.4116Z" fill="white"/>
<path opacity="0.3" d="M44.1531 42.0636C46.5255 39.6911 47.2734 36.5925 45.8236 35.1427C44.3737 33.6929 41.2752 34.4409 38.9028 36.8134C36.5304 39.1859 35.7825 42.2844 37.2324 43.7342C38.6822 45.184 41.7807 44.436 44.1531 42.0636Z" fill="white"/>
</svg>
