<svg width="56" height="44" viewBox="0 0 56 44" fill="none" xmlns="http://www.w3.org/2000/svg">
<path d="M51.4158 0.0117188L55.9745 4.03412C53.0546 6.59654 50.6709 9.06958 48.8236 11.4532C47.0358 13.7773 45.9036 15.5352 45.4269 16.727C44.9501 17.9189 44.5032 19.3491 44.0861 21.0176L44.4436 21.5539C48.4362 21.5539 51.3562 22.418 53.2035 24.1461C55.0509 25.8743 55.9745 28.5559 55.9745 32.191C55.9745 34.9917 54.9615 37.5244 52.9354 39.7888C50.9689 42.0533 48.4958 43.1855 45.5163 43.1855C42.1196 43.1855 39.289 42.2321 37.0245 40.3252C34.7601 38.4182 33.6278 35.3493 33.6278 31.1183C33.6278 25.5167 35.356 19.7364 38.8123 13.7773C42.3281 7.75857 46.5293 3.17005 51.4158 0.0117188ZM18.2533 0.0117188L22.812 4.03412C19.8921 6.59654 17.5382 9.03978 15.7505 11.3638C13.9627 13.6879 12.8007 15.4756 12.2644 16.727C11.7877 17.9785 11.3407 19.4086 10.9236 21.0176L11.2811 21.5539C15.2737 21.5539 18.1937 22.418 20.041 24.1461C21.8884 25.8743 22.812 28.5559 22.812 32.191C22.812 34.9917 21.799 37.5244 19.7729 39.7888C17.8064 42.0533 15.3333 43.1855 12.3538 43.1855C8.95708 43.1855 6.12649 42.2321 3.86203 40.3252C1.59756 38.4182 0.465332 35.3493 0.465332 31.1183C0.465332 25.5167 2.19348 19.7364 5.64977 13.7773C9.16564 7.75857 13.3668 3.17005 18.2533 0.0117188Z" fill="white"/>
</svg>
