<svg width="34" height="28" viewBox="0 0 34 28" fill="none" xmlns="http://www.w3.org/2000/svg">
<path d="M25.0753 14.8213C24.7026 11.7154 22.0937 9.23071 18.8635 9.23071C15.3849 9.23071 12.6517 11.9639 12.6517 15.4425C12.6517 18.9211 15.3849 21.6543 18.8635 21.6543C22.0937 21.6543 24.7026 19.1696 24.9511 16.0637C25.3238 16.0637 25.5723 15.8152 25.5723 15.4425C25.6965 15.0698 25.448 14.8213 25.0753 14.8213ZM18.8635 20.412C16.1303 20.412 13.8941 18.1757 13.8941 15.4425C13.8941 12.7093 16.1303 10.4731 18.8635 10.4731C21.3483 10.4731 23.4603 12.3366 23.7087 14.8213H22.4664C22.2179 13.082 20.7271 11.7154 18.8635 11.7154C16.7515 11.7154 15.1365 13.3305 15.1365 15.4425C15.1365 17.5545 16.7515 19.1696 18.8635 19.1696C20.7271 19.1696 22.2179 17.803 22.5906 16.0637H23.833C23.4603 18.5484 21.3483 20.412 18.8635 20.412ZM21.3483 15.4425C21.3483 16.8091 20.2301 17.9272 18.8635 17.9272C17.4969 17.9272 16.3788 16.8091 16.3788 15.4425C16.3788 14.0759 17.4969 12.9578 18.8635 12.9578C20.2301 12.9578 21.3483 14.0759 21.3483 15.4425Z" fill="white"/>
<path d="M31.0387 2.89467C28.4297 1.40383 25.5723 0.53418 22.4664 0.53418H15.1365C12.1548 0.53418 9.17315 1.40383 6.56419 2.89467C4.94912 3.88855 3.831 5.75209 3.831 7.73987V10.4731H3.33405C2.34016 10.4731 1.47051 11.3427 1.47051 12.3366V13.082C0.725094 13.3305 0.228149 14.0759 0.228149 14.8213C0.228149 15.3183 0.476622 15.691 0.725094 16.0637C0.476622 16.4364 0.228149 16.8091 0.228149 17.306C0.228149 17.803 0.476622 18.1757 0.725094 18.5484C0.476622 18.9211 0.228149 19.2938 0.228149 19.7908C0.228149 20.2877 0.476622 20.6604 0.725094 21.0331C0.476622 21.4058 0.228149 21.7785 0.228149 22.2755C0.228149 23.2694 1.0978 24.139 2.09169 24.139C2.4644 24.139 2.71287 23.8906 2.71287 23.5179C2.71287 23.1451 2.4644 22.8967 2.09169 22.8967C1.71898 22.8967 1.47051 22.6482 1.47051 22.2755C1.47051 21.9028 1.71898 21.6543 2.09169 21.6543C2.4644 21.6543 2.71287 21.4058 2.71287 21.0331C2.71287 20.6604 2.4644 20.4119 2.09169 20.4119C1.71898 20.4119 1.47051 20.1635 1.47051 19.7908C1.47051 19.4181 1.71898 19.1696 2.09169 19.1696C2.4644 19.1696 2.71287 18.9211 2.71287 18.5484C2.71287 18.1757 2.4644 17.9272 2.09169 17.9272C1.71898 17.9272 1.47051 17.6788 1.47051 17.306C1.47051 16.9333 1.71898 16.6849 2.09169 16.6849C2.4644 16.6849 2.71287 16.4364 2.71287 16.0637C2.71287 15.691 2.4644 15.4425 2.09169 15.4425C1.71898 15.4425 1.47051 15.194 1.47051 14.8213C1.47051 14.4486 1.71898 14.2001 2.09169 14.2001C2.4644 14.2001 2.71287 13.9517 2.71287 13.579V12.3366C2.71287 11.9639 2.96134 11.7154 3.33405 11.7154H4.07947C4.32794 12.4608 5.07336 12.9578 5.81877 12.9578H9.79433C9.54585 13.2063 9.29738 13.4547 8.92467 13.579L8.30349 13.8274C7.3096 14.2001 6.43995 15.0698 6.19148 16.1879L4.57641 24.139C4.45218 25.0087 4.57641 26.0026 5.19759 26.748C5.81877 27.4934 6.68842 27.8661 7.55808 27.8661H30.0448C31.0387 27.8661 31.9083 27.4934 32.4053 26.748C33.0265 26.0026 33.2749 25.1329 33.0265 24.139L31.4114 16.0637C31.1629 14.9456 30.4175 14.0759 29.2994 13.7032L28.6782 13.4547C28.3055 13.3305 28.057 13.082 27.8086 12.8335H31.9083C32.9022 12.8335 33.7719 11.9639 33.7719 10.97V7.61563C33.7719 5.75209 32.778 3.88855 31.0387 2.89467ZM5.19759 7.73987C5.19759 6.24904 6.06724 4.75821 7.3096 4.01279C9.67009 2.52196 12.4033 1.77654 15.2607 1.77654H22.5906C25.3238 1.77654 28.057 2.52196 30.5417 4.01279C31.7841 4.75821 32.6538 6.24904 32.6538 7.73987V7.98834H27.6843V7.36716C27.5601 6.37327 26.6904 5.50362 25.6965 5.50362H12.0306C11.0367 5.50362 10.167 6.37327 10.167 7.36716V7.98834H5.19759V7.73987ZM5.19759 11.0942V9.2307H10.167V11.5912C10.0428 11.7154 9.91856 11.7154 9.79433 11.7154H5.81877C5.44606 11.7154 5.19759 11.467 5.19759 11.0942ZM30.169 26.6238H7.55808C6.9369 26.6238 6.43995 26.3753 6.06724 26.0026C6.06724 25.7541 5.94301 25.6299 5.81877 25.3814H31.9083C31.7841 25.6299 31.7841 25.7541 31.6599 26.0026C31.1629 26.3753 30.666 26.6238 30.169 26.6238ZM28.4297 14.6971L29.0509 14.9456C29.6721 15.194 30.169 15.691 30.2933 16.3122L31.9083 24.139H5.81877L7.43384 16.3122C7.55808 15.691 8.05502 15.0698 8.6762 14.9456L9.29738 14.6971C10.5397 14.3244 11.4094 13.082 11.4094 11.7154V7.24293C11.4094 6.87022 11.6579 6.62175 12.0306 6.62175H25.6965C26.0693 6.62175 26.3177 6.87022 26.3177 7.24293V11.7154C26.3177 13.082 27.1874 14.3244 28.4297 14.6971ZM31.9083 11.7154H27.9328C27.8086 11.7154 27.6843 11.7154 27.5601 11.5912V9.2307H32.5295V11.0942C32.5295 11.467 32.2811 11.7154 31.9083 11.7154Z" fill="white"/>
</svg>
