<svg width="34" height="28" viewBox="0 0 34 28" fill="none" xmlns="http://www.w3.org/2000/svg">
<path d="M25.0752 14.8213C24.7025 11.7154 22.0936 9.23071 18.8634 9.23071C15.3848 9.23071 12.6516 11.9639 12.6516 15.4425C12.6516 18.9211 15.3848 21.6543 18.8634 21.6543C22.0936 21.6543 24.7025 19.1696 24.951 16.0637C25.3237 16.0637 25.5722 15.8152 25.5722 15.4425C25.6964 15.0698 25.4479 14.8213 25.0752 14.8213ZM18.8634 20.412C16.1302 20.412 13.894 18.1757 13.894 15.4425C13.894 12.7093 16.1302 10.4731 18.8634 10.4731C21.3481 10.4731 23.4601 12.3366 23.7086 14.8213H22.4663C22.2178 13.082 20.727 11.7154 18.8634 11.7154C16.7514 11.7154 15.1363 13.3305 15.1363 15.4425C15.1363 17.5545 16.7514 19.1696 18.8634 19.1696C20.727 19.1696 22.2178 17.803 22.5905 16.0637H23.8329C23.4601 18.5484 21.3481 20.412 18.8634 20.412ZM21.3481 15.4425C21.3481 16.8091 20.23 17.9272 18.8634 17.9272C17.4968 17.9272 16.3787 16.8091 16.3787 15.4425C16.3787 14.0759 17.4968 12.9578 18.8634 12.9578C20.23 12.9578 21.3481 14.0759 21.3481 15.4425Z" fill="#52BD94"/>
<path d="M31.0386 2.89467C28.4296 1.40383 25.5722 0.53418 22.4663 0.53418H15.1364C12.1547 0.53418 9.17302 1.40383 6.56407 2.89467C4.949 3.88855 3.83087 5.75209 3.83087 7.73987V10.4731H3.33393C2.34004 10.4731 1.47039 11.3427 1.47039 12.3366V13.082C0.724972 13.3305 0.228027 14.0759 0.228027 14.8213C0.228027 15.3183 0.4765 15.691 0.724972 16.0637C0.4765 16.4364 0.228027 16.8091 0.228027 17.306C0.228027 17.803 0.4765 18.1757 0.724972 18.5484C0.4765 18.9211 0.228027 19.2938 0.228027 19.7908C0.228027 20.2877 0.4765 20.6604 0.724972 21.0331C0.4765 21.4058 0.228027 21.7785 0.228027 22.2755C0.228027 23.2694 1.09768 24.139 2.09157 24.139C2.46428 24.139 2.71275 23.8906 2.71275 23.5179C2.71275 23.1451 2.46428 22.8967 2.09157 22.8967C1.71886 22.8967 1.47039 22.6482 1.47039 22.2755C1.47039 21.9028 1.71886 21.6543 2.09157 21.6543C2.46428 21.6543 2.71275 21.4058 2.71275 21.0331C2.71275 20.6604 2.46428 20.4119 2.09157 20.4119C1.71886 20.4119 1.47039 20.1635 1.47039 19.7908C1.47039 19.4181 1.71886 19.1696 2.09157 19.1696C2.46428 19.1696 2.71275 18.9211 2.71275 18.5484C2.71275 18.1757 2.46428 17.9272 2.09157 17.9272C1.71886 17.9272 1.47039 17.6788 1.47039 17.306C1.47039 16.9333 1.71886 16.6849 2.09157 16.6849C2.46428 16.6849 2.71275 16.4364 2.71275 16.0637C2.71275 15.691 2.46428 15.4425 2.09157 15.4425C1.71886 15.4425 1.47039 15.194 1.47039 14.8213C1.47039 14.4486 1.71886 14.2001 2.09157 14.2001C2.46428 14.2001 2.71275 13.9517 2.71275 13.579V12.3366C2.71275 11.9639 2.96122 11.7154 3.33393 11.7154H4.07934C4.32782 12.4608 5.07323 12.9578 5.81865 12.9578H9.7942C9.54573 13.2063 9.29726 13.4547 8.92455 13.579L8.30337 13.8274C7.30948 14.2001 6.43983 15.0698 6.19136 16.1879L4.57629 24.139C4.45205 25.0087 4.57629 26.0026 5.19747 26.748C5.81865 27.4934 6.6883 27.8661 7.55795 27.8661H30.0447C31.0386 27.8661 31.9082 27.4934 32.4052 26.748C33.0263 26.0026 33.2748 25.1329 33.0263 24.139L31.4113 16.0637C31.1628 14.9456 30.4174 14.0759 29.2993 13.7032L28.6781 13.4547C28.3054 13.3305 28.0569 13.082 27.8084 12.8335H31.9082C32.9021 12.8335 33.7718 11.9639 33.7718 10.97V7.61563C33.7718 5.75209 32.7779 3.88855 31.0386 2.89467ZM5.19747 7.73987C5.19747 6.24904 6.06712 4.75821 7.30948 4.01279C9.66997 2.52196 12.4032 1.77654 15.2606 1.77654H22.5905C25.3237 1.77654 28.0569 2.52196 30.5416 4.01279C31.784 4.75821 32.6536 6.24904 32.6536 7.73987V7.98834H27.6842V7.36716C27.56 6.37327 26.6903 5.50362 25.6964 5.50362H12.0305C11.0366 5.50362 10.1669 6.37327 10.1669 7.36716V7.98834H5.19747V7.73987ZM5.19747 11.0942V9.2307H10.1669V11.5912C10.0427 11.7154 9.91844 11.7154 9.7942 11.7154H5.81865C5.44594 11.7154 5.19747 11.467 5.19747 11.0942ZM30.1689 26.6238H7.55795C6.93677 26.6238 6.43983 26.3753 6.06712 26.0026C6.06712 25.7541 5.94289 25.6299 5.81865 25.3814H31.9082C31.784 25.6299 31.784 25.7541 31.6597 26.0026C31.1628 26.3753 30.6659 26.6238 30.1689 26.6238ZM28.4296 14.6971L29.0508 14.9456C29.672 15.194 30.1689 15.691 30.2932 16.3122L31.9082 24.139H5.81865L7.43372 16.3122C7.55796 15.691 8.0549 15.0698 8.67608 14.9456L9.29726 14.6971C10.5396 14.3244 11.4093 13.082 11.4093 11.7154V7.24293C11.4093 6.87022 11.6577 6.62175 12.0305 6.62175H25.6964C26.0691 6.62175 26.3176 6.87022 26.3176 7.24293V11.7154C26.3176 13.082 27.1873 14.3244 28.4296 14.6971ZM31.9082 11.7154H27.9327C27.8084 11.7154 27.6842 11.7154 27.56 11.5912V9.2307H32.5294V11.0942C32.5294 11.467 32.2809 11.7154 31.9082 11.7154Z" fill="#52BD94"/>
</svg>
