<svg width="38" height="38" viewBox="0 0 38 38" fill="none" xmlns="http://www.w3.org/2000/svg">
<path d="M36.7626 16.049C36.6874 15.6311 36.3235 15.3271 35.8988 15.3275H19.3708C18.8864 15.3272 18.4935 15.7197 18.4933 16.2039C18.4933 16.2044 18.4933 16.2047 18.4933 16.205V22.9934C18.493 23.4778 18.8853 23.8706 19.3697 23.8709C19.37 23.8709 19.3703 23.8709 19.3708 23.8709H27.6811C27.161 25.3814 26.1575 26.6783 24.8258 27.5607C23.1989 28.5989 21.3002 29.1304 19.3708 29.0878C15.2575 29.0456 11.635 26.3705 10.3843 22.4519L10.3829 22.4496C9.71074 20.4689 9.71074 18.3217 10.3829 16.3409L10.3843 16.3387C11.6352 12.4201 15.2576 9.7452 19.3708 9.70278C21.6387 9.66615 23.8303 10.5217 25.4737 12.085C25.8181 12.4154 26.3638 12.4093 26.7008 12.0713L31.7342 7.0378C32.0771 6.69504 32.0772 6.13933 31.7344 5.79646C31.7271 5.78907 31.7196 5.78179 31.712 5.77472C28.3702 2.6439 23.9498 0.922692 19.3708 0.969179C12.3989 0.948185 6.01779 4.88193 2.90443 11.1201C0.290322 16.3272 0.290322 22.4633 2.90443 27.6704C6.018 33.9087 12.3986 37.8429 19.3708 37.8231C23.8601 37.9407 28.2249 36.3386 31.5721 33.3446L31.58 33.3397C35.2458 29.8037 37.2492 24.8848 37.0968 19.7937C37.0964 18.538 36.9846 17.2849 36.7626 16.049ZM19.3708 2.72413C23.1913 2.68449 26.901 4.00799 29.8336 6.45692L26.0427 10.2478C24.1539 8.72837 21.7945 7.91506 19.3708 7.94784C14.9462 7.97847 10.9509 10.6009 9.16285 14.6482L4.80955 11.2723C7.74188 5.98134 13.3215 2.7057 19.3708 2.72413ZM2.69877 19.3961C2.69427 17.1581 3.14393 14.9425 4.02055 12.8832L8.5357 16.3847C7.98653 18.3542 7.98653 20.4363 8.5357 22.4058L4.02237 25.9059C3.15132 23.846 2.70134 21.6327 2.69877 19.3961ZM19.3708 36.0681C13.3212 36.0861 7.74146 32.8098 4.80955 27.5182L9.16285 24.1423C10.9505 28.1899 14.9461 30.8126 19.3709 30.8427C21.4302 30.8741 23.4615 30.3615 25.2595 29.3568L25.4511 29.5056L29.5988 32.7279C26.6723 34.9792 23.0619 36.1582 19.3708 36.0681ZM30.9219 31.5334L26.7487 28.2925C28.2803 26.9616 29.3133 25.1489 29.6777 23.1528C29.7662 22.677 29.4525 22.2194 28.9767 22.1307C28.9236 22.1209 28.8696 22.1158 28.8156 22.116H20.2482V17.0825H35.1516C35.2784 17.9806 35.342 18.8866 35.3418 19.7937C35.4682 24.1357 33.8805 28.3528 30.9219 31.5334Z" fill="#52BD94"/>
</svg>
