<svg width="68" height="49" viewBox="0 0 68 49" fill="none" xmlns="http://www.w3.org/2000/svg">
<path d="M11.435 3.98125C12.2481 2.45 13.1121 1.42917 14.0269 0.918756C15.0434 0.306252 16.5172 0 18.4484 0H26.6816C29.2227 0 30.4933 0.765627 30.4933 2.29688C30.4933 2.90938 30.1883 3.77709 29.5785 4.9L21.1928 19.9063C24.1405 20.5188 26.6308 22.101 28.6637 24.6531C30.6966 27.1031 31.713 30.1656 31.713 33.8406C31.713 36.801 31.0015 39.4552 29.5785 41.8031C28.2571 44.049 26.3767 45.8354 23.9372 47.1625C21.5994 48.3875 18.9058 49 15.8565 49C11.0792 49 7.21674 47.6219 4.26906 44.8656C1.42302 42.0073 0 38.1792 0 33.3812C0 30.3187 0.508221 27.3073 1.52466 24.3469C2.54111 21.3865 4.11659 17.8646 6.25112 13.7813L11.435 3.98125ZM47.722 3.98125C48.5351 2.45 49.3991 1.42917 50.3139 0.918756C51.3303 0.306252 52.7534 0 54.583 0H62.9686C65.5097 0 66.7803 0.765627 66.7803 2.29688C66.7803 2.90938 66.4753 3.77709 65.8655 4.9L57.4798 19.9063C60.4275 20.5188 62.9178 22.101 64.9507 24.6531C66.9836 27.1031 68 30.1656 68 33.8406C68 36.801 67.2885 39.4552 65.8655 41.8031C64.5441 44.049 62.6637 45.8354 60.2242 47.1625C57.8864 48.3875 55.1928 49 52.1435 49C47.2646 49 43.3513 47.6219 40.4036 44.8656C37.5576 42.0073 36.1345 38.1792 36.1345 33.3812C36.1345 30.3187 36.6428 27.3073 37.6592 24.3469C38.6756 21.3865 40.2511 17.8646 42.3857 13.7813L47.722 3.98125Z" fill="#21A6DF" fill-opacity="0.5"/>
</svg>
