<svg width="119" height="37" viewBox="0 0 119 37" fill="none" xmlns="http://www.w3.org/2000/svg">
<path fill-rule="evenodd" clip-rule="evenodd" d="M17.2121 17.7998L17.2121 17.7998C16.6487 17.0217 16.1203 16.2919 16.1203 14.8166V9.09202C16.1203 8.8886 16.1216 8.68684 16.1228 8.4869V8.48682C16.1364 6.30848 16.1486 4.34483 14.5201 2.77726C13.0978 1.41989 10.7864 0.947754 9.00846 0.947754C5.5118 0.947754 1.60029 2.24611 0.770572 6.55431C0.711306 7.02644 1.00763 7.26251 1.30396 7.32152L4.85988 7.67562C5.21548 7.67562 5.45254 7.32152 5.5118 7.02644C5.80813 5.55103 7.0527 4.84284 8.47507 4.84284C9.24553 4.84284 10.0752 5.13792 10.5494 5.7871C11.0016 6.43755 10.9852 7.25769 10.9697 8.03172V8.03174C10.967 8.17067 10.9642 8.30812 10.9642 8.44284V8.91497C10.672 8.9473 10.3676 8.97852 10.0548 9.0106C8.0833 9.21281 5.77736 9.44932 4.08943 10.2133C1.77808 11.2166 0.118652 13.2232 0.118652 16.233C0.118652 20.01 2.54853 21.9576 5.63034 21.9576C8.23801 21.9576 9.66038 21.3674 11.6754 19.3019C11.7588 19.4226 11.8354 19.5357 11.9081 19.6431C12.4044 20.3756 12.7236 20.8466 13.809 21.7215C14.1053 21.8396 14.4609 21.8396 14.6979 21.6625C15.4091 21.0133 16.7722 19.833 17.4834 19.2428C17.7797 18.9478 17.7205 18.5346 17.4834 18.1805C17.3934 18.0502 17.3023 17.9244 17.2121 17.7998ZM10.2531 16.5871C9.66048 17.5904 8.7715 18.2396 7.70472 18.2396C6.28235 18.2396 5.45264 17.1773 5.45264 15.5838C5.45264 12.456 8.23811 11.9248 10.9051 11.9248V12.692L10.9071 12.7417C10.9656 14.1361 11.0146 15.304 10.2531 16.5871ZM58.1784 9.06975L58.1784 9.06975L58.1785 9.06974C58.4913 9.03766 58.7957 9.00644 59.0878 8.97412L59.2063 8.561C59.2063 8.48128 59.2068 8.4006 59.2073 8.31922V8.31904C59.2122 7.49684 59.2175 6.60333 58.7322 5.90526C58.2581 5.25608 57.4284 4.961 56.6579 4.961C55.2356 4.961 53.991 5.6692 53.6947 7.14461C53.6354 7.43969 53.3983 7.79379 53.0427 7.79379L49.4868 7.43969C49.1905 7.38067 48.8942 7.14461 48.9534 6.67247C49.7831 2.36428 53.6947 1.06592 57.1913 1.06592C58.9693 1.06592 61.2806 1.53805 62.703 2.89543C64.3315 4.463 64.3192 6.42665 64.3057 8.60498C64.3044 8.80495 64.3032 9.00673 64.3032 9.21018V14.9348C64.3032 16.41 64.8316 17.1398 65.395 17.918C65.4852 18.0425 65.5763 18.1684 65.6663 18.2987C65.9033 18.5938 65.9626 19.0069 65.6663 19.243C64.9551 19.8331 63.592 21.0135 62.8808 21.6626C62.6437 21.8397 62.2882 21.8397 61.9918 21.7217C60.9064 20.8467 60.5873 20.3757 60.091 19.6432C60.0182 19.5358 59.9416 19.4227 59.8583 19.302C57.8432 21.3676 56.4209 21.9577 53.8132 21.9577C50.7314 21.9577 48.3015 20.0102 48.3015 16.2331C48.3015 13.2823 49.9017 11.2758 52.213 10.2725C53.901 9.50846 56.2069 9.27196 58.1784 9.06975ZM55.8876 18.2396C56.8951 18.2396 57.8433 17.5904 58.436 16.5871C59.0958 15.3825 59.0925 14.2795 59.0885 12.9953L59.0885 12.9913V12.9907C59.0882 12.8923 59.0879 12.7927 59.0879 12.692V11.9248C56.421 11.9248 53.6355 12.456 53.6355 15.5838C53.6355 17.1773 54.4652 18.2396 55.8876 18.2396ZM84.3347 11.571C84.3347 5.72834 87.2387 1.18408 92.5726 1.18408C98.025 1.18408 100.929 5.84638 100.988 11.748C100.988 17.4726 97.7287 22.0169 92.5726 22.0169C87.2387 22.0169 84.3347 17.3546 84.3347 11.571ZM89.7278 11.1162C89.7267 13.4688 89.7244 18.1807 92.5726 18.1807C95.4174 18.1807 95.5359 14.2266 95.5952 11.8069C95.5952 10.2725 95.5359 8.32494 95.0618 6.84953C94.6469 5.55117 93.8172 5.02002 92.6319 5.02002C89.9057 5.02002 89.7279 8.67904 89.7279 10.9807L89.7278 11.1162ZM24.7138 21.6631H21.0393C20.6837 21.604 20.3874 21.368 20.3281 21.0139V2.18765C20.3281 1.83356 20.6245 1.53847 21.0393 1.53847H24.4767C24.8323 1.59749 25.1286 1.83356 25.1286 2.18765V4.66634H25.1879C26.1361 2.30569 27.7956 1.18437 30.0477 1.18437C32.2997 1.18437 33.7814 2.30569 34.7889 4.66634C35.6779 2.30569 37.6929 1.18437 39.8857 1.18437C41.4266 1.18437 43.1453 1.83356 44.1528 3.24995C45.1706 4.61817 45.1397 6.50853 45.1106 8.28588V8.28598V8.28608V8.28618V8.28628C45.1058 8.57872 45.1011 8.8681 45.1011 9.15159V21.0139C45.1011 21.368 44.8047 21.6631 44.3899 21.6631H40.7154C40.3598 21.6631 40.0635 21.368 40.0635 21.0139V11.0401C40.0635 10.8952 40.0653 10.7158 40.0674 10.5143C40.077 9.56703 40.0916 8.13178 39.945 7.49913C39.7079 6.25978 38.8782 5.90569 37.8114 5.90569C36.9224 5.90569 35.9742 6.49585 35.6186 7.44011C35.2481 8.28351 35.2558 9.64482 35.2616 10.683C35.2623 10.8071 35.263 10.9266 35.263 11.0401V21.0139C35.263 21.368 34.9667 21.6631 34.5518 21.6631H30.8774C30.5218 21.6631 30.2254 21.368 30.2254 21.0139V11.0401C30.2254 10.8182 30.2293 10.586 30.2333 10.348V10.348V10.3479V10.3478V10.3477C30.2674 8.30765 30.3085 5.84667 27.9734 5.84667C25.4139 5.84667 25.4199 8.6187 25.4246 10.7722V10.7728V10.7735C25.4248 10.8635 25.4249 10.9525 25.4249 11.0401V21.0139C25.4249 21.368 25.1286 21.6631 24.7138 21.6631ZM81.905 16.5876C79.7715 15.4072 77.3416 15.0531 75.0302 15.1122L81.3124 6.20067C81.905 5.37444 82.2014 4.90231 82.2014 4.4892V2.18756C82.2014 1.77444 81.905 1.53838 81.4902 1.53838H69.4C69.0444 1.53838 68.7481 1.83346 68.7481 2.18756V4.8433C68.7481 5.25641 69.0444 5.49248 69.4593 5.49248H75.7414L68.511 15.8203C68.0962 16.4695 68.0962 17.2367 68.0962 17.6499V20.3646C68.0962 20.7777 68.511 21.1908 68.9259 20.9548C73.0152 18.7712 77.9342 19.0072 81.668 20.9548C82.1421 21.1908 82.557 20.7187 82.557 20.3646V17.4728C82.4977 17.2367 82.3792 16.8236 81.905 16.5876ZM68.5702 25.3217C67.859 25.3807 67.7997 24.7906 68.3924 24.3774C72.3039 21.6037 78.8231 22.4299 79.5343 23.4332C80.3047 24.3184 79.2972 30.8102 75.6227 33.8791C75.0894 34.3512 74.556 34.1152 74.793 33.466L74.8356 33.36L74.8357 33.3599C75.6856 31.245 77.5043 26.7193 76.6303 25.6168C75.7761 24.5394 71.1466 25.042 68.8402 25.2925L68.5702 25.3217ZM48.9534 32.1086C56.5986 32.1086 65.0143 30.5152 72.7188 27.2693C73.9041 26.7381 74.8523 27.9775 73.667 28.9217C66.7922 33.9381 56.7764 36.6529 48.1829 36.6529C36.152 36.6529 25.3065 32.2266 17.0686 24.8496C16.4166 24.2594 17.0093 23.4332 17.7797 23.9053C26.6696 29.0398 37.6337 32.1086 48.9534 32.1086ZM108.574 4.96142C109.582 2.42372 111.004 1.18437 113.553 1.18437C115.153 1.18437 116.753 1.77454 117.879 3.48601C118.827 4.96142 118.827 7.49913 118.827 9.32864V21.1319C118.768 21.486 118.472 21.7221 118.116 21.7221H114.442C114.086 21.7221 113.849 21.427 113.79 21.1319V10.9221C113.79 10.7638 113.791 10.6 113.793 10.4324C113.81 8.4129 113.831 5.84667 111.478 5.84667C110.589 5.84667 109.76 6.43683 109.345 7.32208C108.811 8.44339 108.752 9.62372 108.752 10.8631V20.9549C108.752 21.309 108.456 21.604 108.041 21.604H104.367C104.011 21.604 103.715 21.309 103.715 20.9549V2.18765C103.774 1.89257 104.07 1.59749 104.426 1.59749H107.804C108.1 1.59749 108.397 1.83356 108.456 2.12864V4.96142H108.574Z" fill="#545961"/>
</svg>
