<svg width="109" height="37" viewBox="0 0 109 37" fill="none" xmlns="http://www.w3.org/2000/svg">
<path fill-rule="evenodd" clip-rule="evenodd" d="M14.0572 12.8842H26.8107C26.8107 12.8842 27.0374 13.7985 27.0374 15.3985C27.0374 22.9984 21.5959 28.084 14.1706 28.084C5.72491 28.084 0 21.1698 0 14.0842C0 6.82711 6.065 0.141464 13.9438 0.198606C20.1222 0.198606 23.5231 3.97 23.5231 3.97L20.9158 6.71283C20.9158 6.71283 18.4217 3.97 14.1139 3.97C8.55902 3.97 4.13781 8.42709 4.13781 14.1985C4.13781 20.0841 8.78575 24.3126 14.1139 24.3126C18.2517 24.3126 22.6729 21.9698 23.1264 16.6556H14.0572V12.8842ZM37.1836 10.0838C31.9688 10.0838 28.2278 14.198 28.2278 18.998C28.2278 23.9122 31.8554 28.0836 37.2969 28.0836C42.2283 28.0836 46.1961 24.3694 46.1961 19.1123C46.1394 13.1695 41.4914 10.0838 37.1836 10.0838ZM37.2402 13.6839C39.7909 13.6839 42.2283 15.7982 42.2283 19.1124C42.2283 22.4267 39.8476 24.5409 37.2402 24.5409C34.4061 24.5409 32.1955 22.2552 32.1955 19.0553C32.1388 15.9696 34.3494 13.6839 37.2402 13.6839ZM47.7264 18.998C47.7264 14.198 51.4675 10.0838 56.6822 10.0838C60.9901 10.0838 65.638 13.1695 65.6947 19.1123C65.6947 24.3694 61.727 28.0836 56.7956 28.0836C51.3541 28.0836 47.7264 23.9122 47.7264 18.998ZM61.7269 19.1124C61.7269 15.7982 59.2896 13.6839 56.7389 13.6839C53.8481 13.6839 51.6375 15.9696 51.6942 19.0553C51.6942 22.2552 53.9048 24.5409 56.7389 24.5409C59.3463 24.5409 61.7269 22.4267 61.7269 19.1124ZM75.7842 10.1414C70.9662 10.1414 67.2252 14.3699 67.2252 19.1127C67.2252 24.4841 71.5898 28.1412 75.6709 28.1412C78.2216 28.1412 79.5253 27.1698 80.6022 25.9698V27.7412C80.6022 30.8269 78.7317 32.7126 75.8976 32.7126C73.1769 32.7126 71.8165 30.6555 71.3063 29.5126L67.8487 30.9412C69.0391 33.5126 71.4764 36.1983 75.8409 36.1983C80.6022 36.1983 84.2299 33.1697 84.2299 26.827V10.6557H80.4889V12.1985C79.4686 10.9414 77.8815 10.1414 75.7842 10.1414ZM76.1244 13.6844C78.4484 13.6844 80.8857 15.7415 80.8857 19.17C80.8857 22.7129 78.5051 24.5985 76.0677 24.5985C73.517 24.5985 71.1364 22.4843 71.1364 19.2272C71.193 15.6844 73.6304 13.6844 76.1244 13.6844ZM92.6755 19.0551C92.6755 13.6838 96.4733 10.0838 101.008 10.0838C104.522 10.0838 107.186 12.4838 108.377 15.2266L109 16.7123L97.0401 21.7408C97.7769 23.1122 98.9106 24.4836 101.405 24.4836C103.615 24.4836 104.976 23.2837 105.769 22.0265L108.887 24.1408C107.526 25.9693 105.146 28.0836 101.405 28.0836C96.9267 28.0836 92.6755 24.7122 92.6755 19.0551ZM104.466 15.5125C103.899 14.4268 102.765 13.5696 101.121 13.5696C98.5706 13.5696 96.0766 16.2553 96.53 18.8839L104.466 15.5125ZM90.9184 27.5697H87.0073V1.05566H90.9184V27.5697Z" fill="#545961"/>
</svg>
