<svg width="84" height="84" viewBox="0 0 84 84" fill="none" xmlns="http://www.w3.org/2000/svg">
<circle cx="42.1465" cy="42.0322" r="37.5825" fill="white" stroke="white" stroke-width="8"/>
<g clip-path="url(#clip0_1_47)">
<path d="M65.6468 66.1512C65.4381 66.357 65.1774 66.4599 64.8644 66.4599C64.5515 66.4599 64.2908 66.357 64.0821 66.1512C63.8735 65.9454 63.7692 65.6882 63.7692 65.3795C63.7692 65.0709 63.8735 64.7879 64.1082 64.5821C64.3168 64.3763 64.5776 64.2991 64.8644 64.2991C65.1774 64.2991 65.4381 64.402 65.6468 64.6078C65.8554 64.8136 65.9597 65.0709 65.9597 65.3795C65.9858 65.6882 65.8815 65.9454 65.6468 66.1512ZM64.2386 64.7364C64.0561 64.9165 63.9778 65.1223 63.9778 65.3538C63.9778 65.611 64.0561 65.8168 64.2386 65.9969C64.4211 66.177 64.6298 66.2541 64.8905 66.2541C65.1513 66.2541 65.3599 66.177 65.5424 65.9969C65.725 65.8168 65.8032 65.611 65.8032 65.3538C65.8032 65.1223 65.725 64.8908 65.5424 64.7364C65.3599 64.5564 65.1513 64.4535 64.8905 64.4535C64.6298 64.4792 64.4211 64.5564 64.2386 64.7364ZM65.2295 65.9197C65.1252 65.9969 65.0209 66.0226 64.9166 66.0226C64.7601 66.0226 64.6037 65.9712 64.4733 65.8426C64.3429 65.7139 64.2908 65.5596 64.2908 65.3795C64.2908 65.1995 64.3429 65.0451 64.4472 64.9165C64.5515 64.7879 64.708 64.7364 64.8905 64.7364C64.9948 64.7364 65.0991 64.7622 65.2034 64.8136C65.3338 64.8908 65.4381 65.0194 65.4642 65.2252H65.1774C65.1513 65.148 65.1252 65.0708 65.0731 65.0451C65.0209 65.0194 64.9688 64.9937 64.9166 64.9937C64.8384 64.9937 64.7601 65.0194 64.708 65.0966C64.6558 65.1737 64.6298 65.2766 64.6298 65.4053C64.6298 65.5339 64.6558 65.6368 64.708 65.6882C64.7601 65.7397 64.8384 65.7911 64.9166 65.7911C64.9948 65.7911 65.047 65.7654 65.0991 65.7397L65.1774 65.5853H65.4381C65.4121 65.7397 65.3338 65.8426 65.2295 65.9197ZM67.9937 54.4985C67.9937 54.3956 67.9676 54.2927 67.9676 54.1898C67.9676 54.1126 67.9415 54.0612 67.9415 54.0097C67.9155 53.8554 67.8894 53.7268 67.8372 53.5724C67.7329 53.2895 67.5765 53.0065 67.3678 52.775C67.1592 52.5435 66.9245 52.3634 66.6898 52.2348C66.4291 52.1062 66.1683 52.029 65.9597 51.9776C65.8815 51.9776 65.8293 51.9519 65.7771 51.9519C66.064 50.7171 65.6989 49.7654 65.4642 49.328L65.5164 49.2766C65.8293 48.9679 66.0901 48.685 66.3248 48.402L66.3769 48.3506C66.5594 48.0933 66.6638 47.8361 66.742 47.6046C66.7941 47.3988 66.8463 47.2187 66.8463 47.0387V46.8843V46.7814V46.5499C66.8202 46.1641 66.7681 45.6753 66.5073 45.1351C66.3769 44.8779 66.1944 44.5949 65.9597 44.3377C65.725 44.0804 65.4381 43.8489 65.0991 43.6689C65.0731 43.6432 65.047 43.6432 65.0209 43.6174C64.3168 42.6142 63.5345 41.8168 62.8304 41.2251C62.4654 40.9165 62.1264 40.6592 61.8395 40.4534C61.5527 40.2476 61.318 40.0933 61.1876 39.9904C60.8747 39.7589 60.64 39.6303 60.5357 39.5788C60.2749 39.4245 60.0924 39.2959 59.9881 39.2187C59.9098 39.1415 59.8577 39.1158 59.8316 39.0901C59.8316 39.0901 59.8316 39.0644 59.8055 39.0129C59.7794 38.9357 59.7794 38.8329 59.7794 38.6528C59.7794 38.3956 59.7794 38.0097 59.8055 37.4952C59.8577 36.6721 59.9359 35.566 60.0402 34.0483C60.0663 33.5595 60.0663 33.0965 60.0663 32.6849C60.0402 31.9904 59.9359 31.373 59.8055 30.8071C59.7794 30.6785 59.7273 30.5499 59.7012 30.4213C59.6751 30.3184 59.6491 30.2669 59.623 30.2155C59.5969 30.1383 59.5708 30.0611 59.5187 29.9582C59.4926 29.9068 59.4926 29.8553 59.4404 29.8039C59.3883 29.6753 59.3361 29.5467 59.2579 29.418L59.2318 29.3923L59.2057 29.3151L59.1797 29.2637C59.0493 29.0322 58.8928 28.8264 58.7364 28.6463C58.6581 28.2862 58.5277 27.7717 58.293 27.1801C58.0844 26.6656 57.8237 26.0997 57.4325 25.5338C57.3021 25.328 57.1457 25.1479 56.9892 24.9679L57.0414 24.9164C57.1196 24.8393 58.945 22.9357 60.4053 20.4663C63.0912 15.8617 62.2046 13.0579 60.979 11.5145L60.9529 11.463L60.9268 11.4116C59.7534 10.1254 58.1366 9.35369 56.1808 9.09645C52.0867 8.58198 47.445 10.5884 46.2194 11.1543L43.9768 8.73632C43.7682 8.53053 43.5596 8.32475 43.3249 8.17041C43.0902 8.01606 42.8294 7.86172 42.5686 7.73311C42.0471 7.50159 41.4734 7.34725 40.8476 7.27008C39.6219 7.11574 38.2138 7.27008 36.7013 7.65593C34.4326 8.22185 31.9032 9.35369 29.2433 10.9228C26.5835 12.492 23.8193 14.5241 21.1334 16.9421C17.8477 19.8746 15.1357 22.9872 13.1538 25.9711C12.1629 27.4373 11.3545 28.8778 10.7547 30.2669C10.155 31.6303 9.7638 32.9422 9.60734 34.1254C9.50304 35 9.50304 35.8232 9.68557 36.5692C9.7638 36.9036 9.86811 37.2123 10.0246 37.521C10.2071 37.9068 10.4418 38.2669 10.7287 38.5756L13.0495 40.9679L13.3103 41.2251L13.2842 41.2509L13.206 41.4052C13.1538 41.4824 13.1277 41.5595 13.0756 41.611L12.9973 41.7653C12.9713 41.8425 12.9191 41.9197 12.893 41.9968L12.8148 42.1512C12.7887 42.2284 12.7366 42.3055 12.7105 42.3827C12.6844 42.4341 12.6583 42.4856 12.6583 42.537L12.5801 42.7686C12.554 42.82 12.554 42.8714 12.528 42.9229C12.5019 43.0001 12.4758 43.0772 12.4497 43.1801C12.4497 43.2058 12.4237 43.2316 12.4237 43.2573C12.4237 43.283 12.3976 43.3087 12.3976 43.3345C12.3715 43.4116 12.3454 43.5145 12.3193 43.5917C12.3193 43.6432 12.2933 43.6946 12.2933 43.746C12.2933 43.7718 12.2672 43.8232 12.2672 43.8489C12.2672 43.9004 12.2411 43.9518 12.2411 44.0033C12.2411 44.0547 12.215 44.1062 12.215 44.1576C12.189 44.2605 12.189 44.3634 12.1629 44.492C12.1629 44.5177 12.1629 44.5435 12.1368 44.5949V44.6206C12.1368 44.6978 12.1107 44.775 12.1107 44.8264C12.1107 44.9293 12.0847 45.0579 12.0847 45.1608V46.447C12.0847 46.4985 12.0847 46.5499 12.1107 46.6014C12.1107 46.6528 12.1107 46.73 12.1368 46.8071V46.8843C12.1368 46.9358 12.1629 47.0129 12.1629 47.0644C12.1629 47.1158 12.189 47.1673 12.189 47.2444C12.189 47.2702 12.189 47.2959 12.215 47.3216C12.215 47.3473 12.2411 47.3988 12.2411 47.4245V47.476C12.2411 47.5274 12.2672 47.5788 12.2933 47.6817C12.2933 47.7075 12.2933 47.7075 12.3193 47.7332C12.3454 47.7846 12.3454 47.8361 12.3454 47.8618L12.3715 47.9133C12.3715 47.939 12.3715 47.939 12.3976 47.9647L12.4237 48.0161V48.0933C12.4237 48.119 12.4237 48.119 12.4497 48.1448L12.4758 48.1962C12.4758 48.2477 12.5019 48.2734 12.5019 48.3248C12.528 48.3763 12.528 48.4277 12.554 48.5306V48.5049V48.5306C12.554 48.5563 12.554 48.5563 12.5801 48.5821C12.6062 48.6592 12.6323 48.7107 12.6323 48.7364C12.6583 48.7879 12.6844 48.8393 12.7105 48.9422L12.7366 48.9679C12.7627 49.0194 12.7627 49.0708 12.7887 49.0965L12.8148 49.148C12.8148 49.1737 12.8409 49.1994 12.8409 49.2252C12.8409 49.2509 12.867 49.3023 12.893 49.328L12.9191 49.3795C12.9452 49.4052 12.9452 49.4567 12.9713 49.4824C12.9973 49.5081 12.9973 49.5338 12.9973 49.5596C13.0234 49.611 13.0495 49.6625 13.0756 49.7396L13.1017 49.7654C13.1277 49.7911 13.1277 49.8168 13.1538 49.8425C13.1799 49.8682 13.1799 49.9197 13.206 49.9454C13.232 49.9711 13.2581 50.0226 13.2842 50.0998L13.3103 50.1255C13.3363 50.1512 13.3364 50.1769 13.3624 50.2026C13.3885 50.2541 13.4146 50.2798 13.4146 50.3055C13.4407 50.3313 13.4667 50.3827 13.4928 50.4342V50.4599C13.5189 50.4856 13.5189 50.5113 13.545 50.5371C13.571 50.5885 13.5971 50.6142 13.6232 50.6399C13.6493 50.6657 13.6754 50.7171 13.7275 50.7943C13.7536 50.82 13.7797 50.8457 13.7797 50.8715C13.8057 50.9229 13.8318 50.9486 13.8579 50.9744C13.884 51.0001 13.91 51.0515 13.9361 51.103C13.9622 51.1287 13.9883 51.1801 14.0144 51.2059C14.0404 51.2573 14.0665 51.283 14.1187 51.3088L14.1969 51.3859L14.223 51.4117C14.2751 51.4631 14.3012 51.5145 14.3534 51.566L14.4055 51.6174L14.4837 51.6946L14.6402 51.849L14.6924 51.9004L14.7706 51.9776L14.7967 52.0033C14.8488 52.0547 14.927 52.1062 14.9792 52.1834L15.0053 52.2091C15.0314 52.2348 15.0574 52.2348 15.0835 52.2863C15.1617 52.3634 15.24 52.4149 15.3182 52.492L15.3704 52.5178L15.3964 52.5435L15.4486 52.5692C15.5268 52.6207 15.579 52.6721 15.6572 52.7236L15.6833 52.7493C15.7094 52.775 15.7354 52.775 15.7354 52.775L15.7876 52.8264C15.8397 52.8779 15.8919 52.9036 15.944 52.9551L15.9962 52.9808L16.0484 53.0322L16.0744 53.058C16.1266 53.0837 16.2048 53.1351 16.257 53.1609C16.283 53.1866 16.3091 53.2123 16.3613 53.2123L16.4134 53.238L16.4395 53.2638H16.4656C16.5699 53.3152 16.6481 53.3666 16.7264 53.4181L16.7785 53.4438L17.0914 53.5982H17.1175L17.1697 53.6239L17.3261 53.701C17.3522 53.701 17.3783 53.7268 17.4044 53.7268C17.4304 53.7525 17.4565 53.7525 17.5087 53.7782H17.5347C17.5869 53.8039 17.6391 53.8297 17.6912 53.8297H17.7173C17.7694 53.8554 17.8216 53.8811 17.8998 53.9068H17.9259L17.9781 53.9326C18.0041 53.9326 18.0302 53.9583 18.0563 53.9583H18.0824C18.1606 53.984 18.2388 54.0097 18.3431 54.0355H18.3692C18.4996 54.0869 18.63 54.1126 18.7604 54.1384H18.7864C18.8907 54.1641 19.0211 54.1898 19.1254 54.2155H19.2297C19.3341 54.2412 19.4384 54.267 19.5427 54.267H19.647C19.7252 54.267 19.7774 54.2927 19.8556 54.2927C19.8556 54.3184 19.8817 54.3441 19.8817 54.3699C20.0642 54.8586 20.2467 55.3474 20.4554 55.8104C23.5324 64.222 32.0596 70.7557 41.7863 71.9648C51.513 73.148 61.9177 66.7686 66.1422 58.1512C66.3248 57.8168 66.4812 57.5081 66.6377 57.1737C67.0549 56.7364 67.3939 56.2991 67.6025 55.8361C67.9415 55.5531 68.0198 54.9872 67.9937 54.4985ZM13.9883 51.1544H14.0144H13.9883Z" fill="#664F44"/>
<path d="M59.6756 12.4148C59.2063 11.9003 58.6586 11.5145 58.0589 11.2315C57.9546 11.1801 57.8502 11.1544 57.7199 11.1286C57.6677 11.1029 57.6156 11.0515 57.5634 11.0257C57.0419 10.82 56.4942 10.6913 55.9206 10.6142C53.1042 10.254 49.8707 11.283 48.0453 12.0032C47.941 12.0547 47.8367 12.0804 47.7324 12.1319C47.5759 12.209 47.4195 12.2605 47.263 12.3376C47.0022 12.4405 46.7415 12.5692 46.4546 12.6978C46.4025 12.7235 46.3764 12.7235 46.3242 12.7492L45.8288 12.1833L45.5941 11.9261L45.3855 11.6946L45.3072 11.5917L43.4036 9.43088L43.2471 9.25082L43.0385 9.0193H43.0124L42.4648 9.14792L41.839 9.27654C41.5 9.1222 41.0828 9.0193 40.6134 8.94213C39.6746 8.81352 38.4751 8.94213 37.1191 9.27654C35.763 9.61095 34.2245 10.2026 32.6077 11C29.3481 12.5949 25.7495 15.0386 22.2552 18.1769C21.0296 19.2573 19.9082 20.3891 18.8652 21.4952C17.8482 22.5756 16.9355 23.6817 16.101 24.7364C14.406 26.9229 13.1282 29.0322 12.2938 30.9357C11.7462 32.1962 11.4071 33.3538 11.2768 34.357C11.1725 35.0772 11.1985 35.7203 11.3289 36.2348C11.3811 36.4149 11.4332 36.5435 11.4854 36.6978C11.6158 37.0065 11.7722 37.2637 11.9808 37.4952L14.0931 39.6817L14.3278 39.9133L14.3538 39.8875C14.406 39.8104 14.4842 39.7332 14.5625 39.6817L14.5885 39.656L14.6668 39.5788C14.7189 39.5017 14.7972 39.4502 14.8493 39.3731C14.9015 39.3216 14.9275 39.2959 14.9797 39.2702C15.0318 39.2444 15.0579 39.193 15.1101 39.1673L15.1622 39.1158C15.2144 39.0901 15.2405 39.0387 15.2926 39.0129C15.3448 38.9615 15.423 38.91 15.4752 38.8586C15.5012 38.8329 15.5534 38.8071 15.5795 38.7814H15.6055C15.6838 38.73 15.7359 38.6785 15.8142 38.6271C15.8663 38.6014 15.8924 38.5756 15.9445 38.5242C16.0228 38.4727 16.0749 38.4213 16.1532 38.3698C16.2053 38.3441 16.2314 38.3184 16.2835 38.2927C16.3618 38.2412 16.44 38.1898 16.5182 38.1641C16.5704 38.1383 16.5965 38.1126 16.6486 38.0869C16.7269 38.0354 16.8051 38.0097 16.8833 37.9583C16.9355 37.9325 16.9615 37.9068 17.0137 37.8811L17.0659 37.8554C17.1441 37.8296 17.1962 37.7782 17.2745 37.7525C17.3005 37.7268 17.3527 37.7268 17.3788 37.701C17.4309 37.6753 17.4831 37.6496 17.5613 37.6239L17.7178 37.5467L17.7699 37.521L18.1611 37.3666C18.2132 37.3409 18.2393 37.3409 18.2915 37.3152C18.3436 37.2895 18.3697 37.2895 18.4219 37.2637L18.474 37.238C18.5001 37.238 18.5262 37.2123 18.5522 37.2123C18.6044 37.1866 18.6565 37.1866 18.7348 37.1608H18.7869C18.8652 37.1351 18.9173 37.1351 18.9956 37.1094C19.0477 37.0837 19.1259 37.0837 19.1781 37.0579C19.2563 37.0322 19.3346 37.0322 19.4128 37.0065C19.4389 37.0065 19.4649 36.9808 19.5171 36.9808C19.5432 36.9808 19.5953 36.9808 19.6214 36.955C19.6996 36.9293 19.7779 36.9293 19.8561 36.9293C19.9343 36.9293 19.9865 36.9036 20.0647 36.9036C20.1169 36.9036 20.169 36.8779 20.2212 36.8779H20.4298C20.6906 36.8779 21.0035 36.8779 21.3164 36.9036H21.3686C21.6815 36.9293 22.0466 36.9808 22.4116 37.0579C22.4899 37.0837 22.5942 37.0837 22.6724 37.1094C22.6985 37.0837 22.6985 37.0322 22.7246 37.0065C22.9332 36.6721 23.1157 36.312 23.3243 35.9776C24.4978 34.0483 25.7495 32.3505 27.0273 30.8586C27.4706 30.3441 27.9139 29.8811 28.3572 29.4181C30.2087 27.5145 32.0601 26.0483 33.729 24.9164C34.0941 24.6592 34.4853 24.4277 34.8243 24.1962C35.3197 23.8875 35.7891 23.6303 36.2324 23.373C36.5975 23.1672 36.9365 22.9872 37.2755 22.8328C37.8231 22.5499 38.3186 22.3184 38.7619 22.1383L39.1531 21.984C39.3356 21.9068 39.5181 21.8296 39.6746 21.7782C39.5442 21.7524 39.3877 21.7524 39.2574 21.7524H38.7358C38.6054 21.7524 38.449 21.7524 38.3186 21.7782C38.0578 21.8039 37.771 21.8296 37.4841 21.8553C37.3798 21.8811 37.3016 21.8811 37.1973 21.9068C37.9014 21.5467 38.6054 21.2894 39.2574 21.0836C39.7007 20.955 40.144 20.8521 40.5612 20.775C41.1349 20.6721 41.6825 20.5949 42.178 20.5692C42.517 20.5434 42.8299 20.5434 43.1168 20.5434C43.4036 20.5434 43.6904 20.5692 43.9251 20.5692C44.7857 20.6206 45.3072 20.7492 45.3072 20.7492C45.1768 20.5692 45.0204 20.4405 44.8639 20.3119C44.551 20.0804 44.212 19.9261 43.8991 19.7975C43.7687 19.746 43.6644 19.7203 43.5601 19.6688C43.4818 19.6431 43.4036 19.6174 43.3515 19.6174C43.5079 19.5917 43.6383 19.5659 43.7687 19.5659C43.9251 19.5402 44.0555 19.5402 44.212 19.5145C45.4376 19.4116 46.5328 19.5145 47.3412 19.6431C48.3061 19.8232 48.9058 20.0547 48.9058 20.0547C48.7755 19.7975 48.5668 19.5659 48.3321 19.3602C48.1757 19.2315 47.9932 19.1029 47.8367 19C48.1757 19.0772 48.4625 19.1544 48.7755 19.2573C49.5578 19.4888 50.2097 19.7717 50.7312 20.0032L51.2006 20.2348C51.2528 20.2605 51.2789 20.2862 51.3049 20.2862C51.7743 20.5434 52.0351 20.7235 52.0351 20.7235C51.9569 20.4405 51.8004 20.1833 51.5918 19.9518C51.5396 19.9004 51.4875 19.8232 51.4353 19.7717H51.4614C51.4875 19.7717 51.5135 19.7975 51.5657 19.7975C51.5918 19.7975 51.6439 19.8232 51.6961 19.8489C51.9047 19.9261 52.2176 20.0547 52.5827 20.2348C52.6088 20.2348 52.6088 20.2605 52.6349 20.2605L52.7913 20.3377C52.9217 20.4148 53.0521 20.4663 53.1825 20.5692L53.5736 20.8007C53.6519 20.8521 53.704 20.8778 53.7822 20.9293C53.9126 21.0322 54.0691 21.1351 54.1995 21.2637C54.3559 21.3923 54.4863 21.5209 54.6167 21.6496L54.6949 21.7267C54.7992 21.8296 54.9035 21.9325 54.9818 22.0354C55.1643 22.2412 55.3208 22.4727 55.4772 22.7042C55.6598 22.9872 55.7902 23.3216 55.9206 23.656C55.9206 23.6817 55.9206 23.7074 55.9466 23.7074C56.0249 23.6303 56.1813 23.4759 56.3639 23.2701C57.8763 21.5209 62.4137 15.8618 59.6756 12.4148Z" fill="#132134"/>
<path d="M66.4286 54.6782C66.4286 54.6782 66.4808 54.2923 66.2722 53.9322C66.2722 53.9065 66.2461 53.8808 66.2461 53.8808L66.22 53.855L66.1418 53.7779C66.0896 53.7264 66.0375 53.675 65.9593 53.6235C65.9332 53.5978 65.881 53.5721 65.8289 53.5464C65.6985 53.4949 65.5681 53.4435 65.3856 53.4177C65.2552 53.392 65.1248 53.392 64.9683 53.392H64.7597V53.4435C64.7597 53.4692 64.7858 53.4949 64.7858 53.5464C64.7858 53.5721 64.7858 53.5978 64.8119 53.5978C64.838 53.675 64.864 53.8036 64.8901 53.9065C64.8901 53.9065 64.8901 53.9322 64.864 53.9837V54.0094C64.7858 54.1894 64.5772 54.601 64.1078 55.1155C64.0296 55.2184 63.9513 55.2956 63.847 55.3984C62.5432 56.7361 59.7269 58.6139 53.7813 59.6686C51.7734 59.9515 49.8959 59.9772 48.3312 59.7714C45.9843 59.4885 44.2372 58.7425 43.4027 57.7393C43.3245 57.6621 43.2723 57.5592 43.1941 57.4821C43.1419 57.4049 43.1158 57.3534 43.0637 57.2763C43.0376 57.2505 43.0376 57.2248 43.0115 57.1991C42.6725 56.5817 42.5161 55.9129 42.5161 55.2698C42.5161 54.4724 42.7768 53.7264 43.1941 53.1605C43.5331 52.6975 43.9764 52.3374 44.524 52.183C44.7848 52.1058 45.0716 52.0544 45.3585 52.0801C45.4106 52.0801 45.4888 52.0801 45.5932 52.1058C45.7757 52.1316 46.0625 52.1573 46.4015 52.2087C46.4276 52.2087 46.4798 52.2087 46.5058 52.2345C47.6272 52.3631 49.4004 52.5431 51.5387 52.4145C55.4502 52.183 60.5874 50.974 65.2552 46.8068V46.7811C65.2813 46.4209 65.2291 45.8036 64.7858 45.3148C64.7076 45.2377 64.6293 45.1605 64.525 45.0833C64.4729 45.0319 64.3946 45.0062 64.3425 44.9547C64.2643 44.929 64.2121 44.8775 64.16 44.8518L63.9253 44.6975V44.6717C63.8992 44.6203 63.8731 44.5689 63.821 44.5174C62.6214 42.7168 60.9525 41.6621 60.2745 41.1734C59.9616 40.9418 59.7529 40.8389 59.7529 40.8389C58.3187 39.9644 58.1101 39.6814 58.2405 37.3406C58.2926 36.4917 58.3709 35.3856 58.4752 33.8679C58.4752 33.6621 58.5013 33.482 58.5013 33.302V33.1733V32.556C58.5013 32.4274 58.4752 32.2987 58.4752 32.1959C58.4752 32.1444 58.4752 32.093 58.4491 32.0415C58.423 31.9129 58.423 31.7843 58.3969 31.6557C58.3969 31.6042 58.3709 31.527 58.3709 31.4756C58.3709 31.3984 58.3448 31.347 58.3187 31.2698C58.2926 31.2184 58.2926 31.1412 58.2666 31.0897C58.2405 31.0126 58.2144 30.9354 58.2144 30.8582C58.2144 30.8325 58.1883 30.8068 58.1883 30.7811C58.1883 30.7553 58.1622 30.7296 58.1622 30.7039V30.6782L58.1362 30.601C58.1101 30.5495 58.084 30.4981 58.084 30.4467V30.4209L58.0579 30.3695L58.0319 30.318C57.9797 30.2151 57.9536 30.1123 57.9015 30.0351L57.8754 29.9579C57.8232 29.8807 57.7711 29.7778 57.7189 29.7007L57.6929 29.675L57.6668 29.6492C57.6146 29.5978 57.5886 29.5463 57.5364 29.4949L57.4842 29.4177C57.4321 29.3405 57.3799 29.2891 57.3278 29.2376V29.0319C57.3017 28.929 57.2756 28.8004 57.2496 28.6717C57.2496 28.646 57.2235 28.5946 57.2235 28.5688V28.5431C57.2235 28.4917 57.1974 28.4659 57.1974 28.4145C57.1713 28.3116 57.1452 28.2087 57.0931 28.1058C57.0931 28.0801 57.067 28.0286 57.067 28.0029L56.9888 27.7714C56.9627 27.72 56.9627 27.6685 56.9366 27.6428C56.9106 27.5656 56.8845 27.4885 56.8323 27.4113L56.7541 27.2569C56.728 27.1798 56.6759 27.1026 56.6498 27.0254L56.5716 26.8711C56.5194 26.7939 56.4933 26.7167 56.4412 26.6396L56.3629 26.4852C56.3108 26.4081 56.2586 26.3309 56.2065 26.228C56.1804 26.1766 56.1543 26.1508 56.1283 26.0994C56.1022 26.0737 56.0761 26.0222 56.05 25.9965C55.9718 25.9193 55.9196 25.8421 55.8414 25.765L55.7892 25.7393C55.6849 25.6364 55.6067 25.5335 55.5024 25.4563L55.4763 25.4306C55.4242 25.4048 55.372 25.3534 55.3459 25.3277H55.3199C55.2677 25.302 55.2416 25.2762 55.1895 25.2505L55.1634 25.2248C55.1112 25.1991 55.033 25.1476 54.9287 25.0962C54.9026 25.0704 54.8505 25.0704 54.7983 25.0447C54.5636 24.9675 54.2768 24.8647 53.9117 24.7618C53.8856 24.7618 53.8596 24.7618 53.8335 24.736C53.5466 24.6589 53.2076 24.5817 52.8425 24.5303C52.7122 24.5045 52.6079 24.5045 52.4775 24.4788C52.4253 24.4788 52.3732 24.4788 52.2949 24.4531H52.2167C51.9299 24.4274 51.6691 24.4016 51.3822 24.4016H51.3562C50.9911 24.4016 50.626 24.4274 50.287 24.5045C50.3652 24.3759 50.5999 24.2216 50.8085 24.0929C51.0954 23.9386 51.3562 23.8357 51.3562 23.8357C51.1997 23.8357 51.0432 23.8614 50.8868 23.8872C50.8346 23.8872 50.7825 23.9129 50.7303 23.9129C50.7042 23.9129 50.6521 23.9129 50.626 23.9386H50.5999C50.5739 23.9386 50.5478 23.9386 50.5217 23.9643C49.7133 24.1444 48.931 24.4274 48.4877 24.6074L48.3312 24.6846H48.3052C48.253 24.6846 48.2269 24.6846 48.1748 24.7103C48.4877 24.1187 48.9571 23.81 49.3222 23.6557C49.3743 23.6299 49.4525 23.6042 49.5047 23.5785C49.5308 23.5785 49.5308 23.5785 49.5569 23.5528C49.609 23.527 49.6612 23.527 49.6872 23.5013C49.7655 23.4756 49.8176 23.4756 49.8176 23.4756H49.4004C48.5138 23.5785 47.7054 23.8614 47.0274 24.2473C46.558 24.5045 46.1408 24.7875 45.7757 25.0704C45.6714 25.0962 45.5932 25.1219 45.4888 25.1219C44.4979 25.3277 43.3766 25.5849 42.2032 25.945C41.7598 26.0737 41.3165 26.228 40.8732 26.3823C40.5342 26.511 40.1691 26.6396 39.8301 26.7682C39.5694 26.8711 39.3347 26.974 39.0739 27.0769C37.2746 27.8743 35.4753 28.929 33.9889 30.3438L33.8324 30.4981L33.4413 30.884L33.2848 31.0383C33.2327 31.1155 33.1544 31.1926 33.1023 31.2441C32.8154 31.5528 32.5547 31.8872 32.2939 32.2473C32.1114 32.5045 31.9288 32.7875 31.7724 33.0705L31.7463 33.0962C31.4073 33.6878 31.0944 34.3052 30.8597 34.9997C30.7293 35.3341 30.625 35.6942 30.5207 36.0544C30.4946 36.1573 30.4685 36.2344 30.4424 36.3373L30.4164 36.3888C30.3121 36.7746 30.2338 37.1862 30.1817 37.5978C30.1817 37.675 30.1556 37.7521 30.1556 37.855C30.1295 38.0608 30.1034 38.2666 30.1034 38.4981C30.0774 38.7039 30.0774 38.884 30.0774 39.0898V39.8872C30.0774 40.1187 30.0774 40.3502 30.1034 40.5817V40.6074C30.1034 40.8389 30.1295 41.0705 30.1556 41.3277C30.1556 41.4306 30.1817 41.5335 30.1817 41.6364V41.7135C30.1817 41.765 30.1817 41.8164 30.2077 41.8936C30.2338 42.1508 30.286 42.4338 30.3121 42.7168C30.3121 42.7939 30.3381 42.8711 30.3381 42.9483C30.3903 43.1798 30.4164 43.437 30.4685 43.6685C30.4685 43.6685 30.4164 43.3599 30.4424 42.8968C30.4424 42.7939 30.4685 42.6653 30.4685 42.5624C30.4946 42.3052 30.5468 41.9965 30.6511 41.7135L30.7293 41.482C30.7293 41.4563 30.7554 41.4306 30.7814 41.3791C30.8336 41.2505 30.9118 41.0962 30.9901 40.9676C31.0161 41.0705 31.0161 41.1734 31.0422 41.2505V42.6139C31.0683 43.4885 31.1465 44.5431 31.3291 45.4435C31.3291 45.4435 31.3551 43.8229 31.642 43.6171C31.642 43.6171 32.1374 46.6525 32.5808 47.7843C32.6329 47.9386 32.7111 48.0415 32.7633 48.1187V47.81L32.7111 46.138V45.9579C33.0501 46.6525 33.4413 47.347 33.8846 48.093C34.015 48.2988 34.1193 48.5046 34.2497 48.7103C33.4152 49.4306 32.6329 50.4853 32.0592 51.72C31.981 51.9258 31.8767 52.1316 31.7984 52.3374C31.7463 52.466 31.7202 52.5689 31.6681 52.6975C31.6681 52.7232 31.642 52.7747 31.642 52.8004C31.6159 52.8775 31.5898 52.9804 31.5638 53.0576C31.5638 53.1091 31.5377 53.1348 31.5377 53.1862C31.5116 53.2634 31.4855 53.3663 31.4594 53.4435C31.4594 53.4949 31.4334 53.5206 31.4334 53.5721L31.3551 53.9579C31.3291 54.0866 31.303 54.2152 31.303 54.3438C31.303 54.3952 31.303 54.421 31.2769 54.4724C31.2769 54.5753 31.2508 54.6525 31.2508 54.7554C31.2508 54.8068 31.2508 54.8583 31.2248 54.9097C31.2248 55.0126 31.1987 55.0898 31.1987 55.1927V56.093C31.1987 56.1959 31.1987 56.2988 31.2248 56.4274V56.5046C31.2248 56.6332 31.2508 56.7618 31.2769 56.9161C31.2769 56.9676 31.2769 56.9933 31.303 57.0448C31.303 57.1477 31.3291 57.2248 31.3551 57.3277C31.3551 57.3792 31.3812 57.4306 31.3812 57.4821C31.4073 57.5592 31.4073 57.6621 31.4334 57.7393C31.4334 57.7907 31.4594 57.8422 31.4594 57.8936C31.4855 57.9708 31.5116 58.048 31.5116 58.1509C31.5377 58.2023 31.5377 58.2538 31.5638 58.3309C31.5898 58.4081 31.6159 58.511 31.642 58.5882C31.6681 58.6396 31.6681 58.6911 31.6941 58.7425C31.7202 58.8197 31.7463 58.9226 31.7724 58.9997C31.7984 59.0512 31.7984 59.1026 31.8245 59.1541C31.8506 59.257 31.9028 59.3599 31.9288 59.437C31.9549 59.4885 31.9549 59.5142 31.981 59.5657L32.3721 60.4145C32.3982 60.466 32.4243 60.4917 32.4504 60.5432L32.6068 60.8518C32.6329 60.9033 32.659 60.9547 32.7111 61.0062C32.7633 61.0833 32.8154 61.1862 32.8676 61.2634C32.8937 61.3149 32.9458 61.3663 32.9719 61.4178C33.0241 61.4949 33.0762 61.5978 33.1544 61.675C33.2066 61.7264 33.2327 61.7779 33.2848 61.855C33.337 61.9322 33.4152 62.0351 33.4674 62.1123C33.5195 62.1637 33.5456 62.2152 33.5978 62.2924C33.676 62.3695 33.7281 62.4724 33.8064 62.5496C33.8585 62.601 33.8846 62.6525 33.9368 62.7039C34.015 62.8068 34.0932 62.884 34.1975 62.9869L34.3279 63.1155C34.4583 63.2441 34.5887 63.3985 34.7191 63.5271C34.7191 63.5271 34.6408 63.4242 34.5365 63.2184C34.5104 63.1927 34.4844 63.1412 34.4844 63.0898L34.4061 62.9354C34.3801 62.884 34.354 62.8325 34.3279 62.7554C34.1193 62.2924 33.9368 61.6235 33.9628 60.9033L34.1975 61.212C34.2758 61.392 34.4061 61.6235 34.5365 61.8808C34.5887 61.9579 34.6408 62.0608 34.6669 62.138C34.8755 62.4981 35.0841 62.9097 35.3449 63.2956C35.6578 63.7843 35.9708 64.2473 36.3098 64.6846C36.3098 64.6846 35.9186 63.8615 35.7882 63.3213C35.7621 63.1669 35.7361 63.0383 35.7621 62.9612C35.7882 62.9869 35.8143 63.0383 35.8665 63.0641C35.8925 63.0898 35.9186 63.1412 35.9708 63.167C36.0229 63.2441 36.1011 63.347 36.2055 63.4756L36.2576 63.5271C36.3098 63.5785 36.3358 63.6557 36.388 63.7071C36.4401 63.7843 36.4923 63.8615 36.5705 63.9387C37.1181 64.6332 37.8744 65.5592 38.3959 66.048C38.5785 66.2023 38.7349 66.3309 38.8392 66.3824L38.083 65.0448C39.8041 66.4338 46.9492 68.2088 53.9639 66.228C54.8244 65.9965 55.6589 65.6879 56.4933 65.3277C56.9888 65.1219 57.4842 64.8647 57.9797 64.6075L58.0579 64.556C58.3969 64.376 58.7359 64.1702 59.0749 63.9644C59.3357 63.81 59.5965 63.63 59.8312 63.4756C60.2484 63.1927 60.6656 62.884 61.0829 62.5496C61.1089 62.5239 61.135 62.4981 61.1611 62.4981C61.5523 62.1637 61.9434 61.8036 62.2824 61.4435C62.7518 60.9547 63.169 60.466 63.5341 59.9772L63.5602 59.9515C63.6645 59.8229 63.7427 59.72 63.821 59.5914L63.847 59.5657C63.8731 59.5142 63.8992 59.4885 63.9253 59.437C64.0556 59.257 64.16 59.1026 64.2903 58.9226C64.3164 58.8711 64.3425 58.8454 64.3686 58.794C64.4207 58.6911 64.4729 58.6139 64.5511 58.511C64.6033 58.4338 64.6293 58.3824 64.6815 58.3052C64.7336 58.228 64.7858 58.1509 64.8119 58.0737C64.8901 57.9451 64.9683 57.7907 65.0466 57.6621L65.1248 57.5078L65.2813 57.1991L65.3595 57.0448L65.3856 56.9933C65.4377 56.8647 65.516 56.7361 65.5681 56.6075V56.5817C65.8028 56.3759 65.9593 56.1702 66.1157 55.9901C66.1418 55.9644 66.1679 55.9386 66.1679 55.9129C66.3243 55.4242 66.4286 55.0383 66.4286 54.6782ZM24.4708 49.6878C24.4708 49.6621 24.4708 49.6364 24.4447 49.5849C24.3665 49.1476 24.2883 48.6846 24.2622 48.2216V48.1187C24.184 48.1444 24.1057 48.2473 24.0014 48.3759C23.9754 48.4274 23.9232 48.4788 23.8971 48.556C23.6624 48.9933 23.4538 49.6107 23.4538 49.6107C23.4799 49.4049 23.506 49.1991 23.506 48.9933V48.9161C23.532 48.7103 23.5581 48.4788 23.5842 48.273V48.1959C23.6103 47.9386 23.6624 47.7071 23.7146 47.4756C23.7146 47.4499 23.7146 47.4242 23.7407 47.3727V47.347C23.7407 47.3213 23.7407 47.2955 23.7667 47.2698C23.7667 47.2184 23.7928 47.1927 23.7928 47.1412C23.8189 46.9611 23.871 46.7811 23.8971 46.601C23.9232 46.4467 23.9493 46.2923 23.9754 46.1637V46.1123C23.9754 46.0865 23.9754 46.0608 24.0014 46.0608V46.0094C24.0014 45.9836 24.0275 45.9322 24.0275 45.9065C24.0275 45.8808 24.0275 45.855 24.0536 45.8293C24.0536 45.7779 24.0797 45.7264 24.0797 45.7007C24.0797 45.675 24.1057 45.6235 24.1057 45.5978C24.1057 45.5464 24.1318 45.4949 24.1318 45.4692C24.1318 45.4435 24.1318 45.4177 24.1579 45.392C24.1579 45.3663 24.1579 45.3406 24.184 45.3406C24.184 45.2891 24.21 45.2634 24.21 45.2377V45.1605L24.1579 45.2119C24.1057 45.2377 24.0797 45.2891 24.0275 45.3148L23.9754 45.3663C23.9232 45.4177 23.871 45.4692 23.845 45.5206L23.8189 45.5464L23.6624 45.7779L23.6364 45.8036C23.6364 45.8293 23.6103 45.8293 23.6103 45.855L23.532 46.0094V46.0608C23.506 46.138 23.4538 46.2152 23.4277 46.2923C23.3495 46.4981 23.2713 46.7039 23.2191 46.884C23.193 46.9354 23.193 47.0126 23.167 47.0383C23.1409 47.1412 23.1148 47.2441 23.1148 47.2698V47.2955V47.2698C23.1148 47.1927 23.1148 47.1412 23.1409 47.064C23.1409 46.9354 23.167 46.7811 23.167 46.6525C23.167 46.5496 23.193 46.4209 23.2191 46.3181C23.2191 46.2923 23.2191 46.2409 23.2452 46.2152C23.2452 46.1637 23.2713 46.1123 23.2713 46.0608C23.2713 46.0094 23.2974 45.9579 23.2974 45.9065V45.8293C23.2974 45.7779 23.3234 45.7007 23.3234 45.6492V45.5206V45.4692C23.3234 45.4435 23.3234 45.4177 23.3495 45.392C23.3756 45.3148 23.4017 45.2119 23.4017 45.1348V45.109C23.4277 45.0576 23.4277 44.9804 23.4538 44.929V44.9033C23.4799 44.7746 23.532 44.646 23.5581 44.5174V44.466C23.5581 44.4402 23.5581 44.4145 23.5842 44.3888C23.6364 44.183 23.7146 43.9772 23.7667 43.7972V43.7714C23.8189 43.6171 23.8971 43.437 23.9493 43.2827V43.257C23.9754 43.1798 24.0014 43.1283 24.0275 43.0512C24.0797 42.9483 24.1057 42.8454 24.1579 42.7425C24.1579 42.7168 24.184 42.6653 24.2361 42.5624C24.2622 42.5367 24.2622 42.4853 24.2883 42.4595C24.3144 42.4081 24.3404 42.3566 24.3665 42.2795L24.3926 42.228L24.8359 41.4306C24.862 41.4049 24.862 41.3534 24.888 41.3277V41.302L24.9141 41.2505C24.9663 41.1734 25.0184 41.0705 25.0706 40.9933C25.1488 40.8647 25.201 40.7361 25.2792 40.6332C25.4096 40.4016 25.5139 40.1959 25.5921 40.093C25.6182 40.0158 25.6443 39.9901 25.6704 39.9644C25.6443 39.9644 25.5139 39.8615 25.3053 39.7328C25.0445 39.5785 24.6794 39.3727 24.2361 39.1669C24.0797 39.0898 23.9493 39.0383 23.7928 38.9611C23.6103 38.884 23.4017 38.8068 23.193 38.7296C23.1409 38.7039 23.0887 38.7039 23.0366 38.6782C22.854 38.6267 22.6976 38.5753 22.515 38.5238C22.3847 38.4981 22.2543 38.4724 22.15 38.4467C22.0457 38.4209 21.9414 38.4209 21.837 38.3952C21.7849 38.3952 21.7327 38.3952 21.6806 38.3695C21.6284 38.3695 21.5763 38.3695 21.5241 38.3438C21.3937 38.3438 21.2373 38.318 21.1069 38.318H20.8983C20.5854 38.318 20.2985 38.3438 20.0117 38.3952H19.9595C19.438 38.4724 18.9425 38.601 18.447 38.7811C18.2906 38.8325 18.1341 38.9097 17.9516 38.9869C17.8994 39.0126 17.8733 39.0383 17.8212 39.0383L17.6647 39.1155C17.1953 39.347 16.752 39.6557 16.3348 39.9901H16.3087C15.9437 40.273 15.6307 40.6074 15.3439 40.9418L15.1092 41.2505C15.0049 41.3791 14.9267 41.5078 14.8484 41.6364C14.692 41.8679 14.5355 42.1251 14.4051 42.3824C14.353 42.4853 14.3008 42.5624 14.2747 42.6653C14.2747 42.691 14.2486 42.691 14.2486 42.7168C13.9879 43.3341 13.7793 43.9772 13.701 44.6717C13.675 44.8004 13.675 44.929 13.6489 45.0833V45.1348C13.6489 45.2377 13.6228 45.3406 13.6228 45.4692V45.9322C13.6228 46.0351 13.6228 46.138 13.6489 46.2409V46.3695C13.6489 46.4467 13.675 46.5238 13.675 46.601V46.6267C13.675 46.6782 13.675 46.7039 13.701 46.7554C13.701 46.8325 13.7271 46.9097 13.7271 46.9611C13.7271 47.0126 13.7532 47.064 13.7532 47.1155C13.7793 47.1927 13.7793 47.2441 13.8053 47.3213C13.8053 47.3727 13.8314 47.4242 13.8575 47.4756V47.5013L13.8836 47.5528V47.6042L13.9096 47.6557C13.9357 47.7071 13.9357 47.7586 13.9618 47.81C13.9879 47.8615 13.9879 47.9386 14.014 47.9901C14.04 48.0415 14.0661 48.093 14.0661 48.1701L14.0922 48.2216C14.1183 48.273 14.1183 48.2988 14.1443 48.3502C14.1704 48.4017 14.1965 48.4531 14.2226 48.5303L14.3008 48.6846C14.3269 48.7103 14.3269 48.7361 14.353 48.7618C14.379 48.7875 14.379 48.8132 14.4051 48.839L14.4833 48.9933C14.5094 49.0447 14.5355 49.1219 14.5877 49.1734C14.6137 49.2248 14.6398 49.2763 14.6659 49.302C14.692 49.3534 14.7441 49.4306 14.7702 49.482C14.7963 49.5335 14.8223 49.5592 14.8484 49.6107C14.8745 49.6621 14.9267 49.7393 14.9788 49.7907C15.0049 49.8422 15.031 49.8679 15.057 49.8936C15.1092 49.9451 15.1353 50.0222 15.1874 50.0737C15.2135 50.0994 15.2396 50.1509 15.2657 50.1766C15.3178 50.228 15.37 50.3052 15.4221 50.3566C15.4482 50.3824 15.4743 50.4081 15.5003 50.4595C15.5525 50.511 15.6047 50.5882 15.6568 50.6396L15.735 50.7168C15.7872 50.7682 15.8393 50.8454 15.9176 50.8968L15.9958 50.974L16.1783 51.1541C16.2044 51.1798 16.2305 51.2055 16.2566 51.2055C16.3087 51.257 16.387 51.3084 16.4652 51.3856C16.4913 51.4113 16.5173 51.4113 16.5434 51.437C16.6217 51.4885 16.6738 51.5399 16.752 51.5914C16.7781 51.6171 16.8042 51.6171 16.8042 51.6428L17.0389 51.7972L17.091 51.8229L17.3257 51.9772L17.3779 52.0029C17.4561 52.0544 17.5604 52.1058 17.6387 52.1573L17.6908 52.183C17.769 52.2345 17.8733 52.2859 17.9516 52.3116L18.0037 52.3374C18.108 52.3888 18.1863 52.4145 18.2906 52.466L18.3167 52.4917C18.421 52.5431 18.5253 52.5689 18.6035 52.6203H18.6296C18.7339 52.646 18.8382 52.6975 18.9425 52.7232H18.9686C19.0207 52.7489 19.0729 52.7489 19.125 52.7747C19.1772 52.8004 19.2293 52.8004 19.3076 52.8261H19.3337C19.438 52.8518 19.5683 52.8775 19.6727 52.9033C19.777 52.929 19.9073 52.9547 20.0117 52.9547C20.3767 53.0062 20.7418 53.0319 21.1069 53.0576H21.3677C21.498 53.0576 21.6024 53.0576 21.7327 53.0319C21.8892 53.0062 22.0717 53.0062 22.2543 52.9804C22.4107 52.9547 22.5672 52.929 22.6976 52.9033C22.9323 52.8518 23.167 52.8004 23.3756 52.7232C24.0536 52.5431 24.6273 52.2859 24.9924 52.0029C24.9924 52.0029 24.7577 50.974 24.5751 49.9451C24.523 49.8936 24.4969 49.7907 24.4708 49.6878Z" fill="#90694C"/>
<path d="M41.2129 11.4629L41.1347 10.4339L41.6562 9.30211L41.8649 9.25066C41.5259 9.09632 41.1086 8.99343 40.6392 8.91625C39.7005 8.78764 38.5009 8.91625 37.1449 9.25066C35.7889 9.58507 34.2504 10.1767 32.6336 10.9741C29.374 12.569 25.7754 15.0127 22.2811 18.151C21.0554 19.2314 19.9341 20.3632 18.891 21.4693C17.874 22.5497 16.9613 23.6558 16.1269 24.7105C14.4319 26.897 13.1541 29.0063 12.3196 30.9099C11.772 32.1703 11.433 33.3279 11.3026 34.3311C11.1983 35.0513 11.2244 35.6944 11.3548 36.2089C11.407 36.389 11.4591 36.5176 11.5113 36.6719C11.6416 36.9806 11.7981 37.2378 12.0067 37.4694L14.119 39.6559L14.3536 39.8874L14.3797 39.8616C14.4319 39.7845 14.5101 39.7073 14.5883 39.6559L14.6144 39.6301L14.6927 39.553C14.7448 39.4758 14.823 39.4243 14.8752 39.3472C14.9273 39.2957 14.9534 39.27 15.0056 39.2443C15.0577 39.2186 15.0838 39.1671 15.136 39.1414L15.1881 39.0899C15.2403 39.0642 15.2663 39.0128 15.3185 38.987C15.3707 38.9356 15.4489 38.8842 15.501 38.8327C15.5271 38.807 15.5793 38.7813 15.6053 38.7555H15.6314C15.7097 38.7041 15.7618 38.6526 15.84 38.6012C15.8922 38.5755 15.9183 38.5497 15.9704 38.4983C16.0487 38.4469 16.1008 38.3954 16.179 38.344C16.2312 38.3182 16.2573 38.2925 16.3094 38.2668C16.3877 38.2153 16.4659 38.1639 16.5441 38.1382C16.5963 38.1124 16.6223 38.0867 16.6745 38.061C16.7527 38.0096 16.831 37.9838 16.9092 37.9324C16.9613 37.9067 16.9874 37.8809 17.0396 37.8552L17.0917 37.8295C17.5872 36.4661 18.3434 34.9485 19.3344 33.405C20.5339 31.5015 22.0724 29.4951 23.8978 27.4886C25.0452 26.2282 26.2969 24.9677 27.6529 23.7587C29.4001 22.1896 31.1994 20.7748 32.9726 19.5401C34.1722 18.7169 35.3456 17.9709 36.493 17.3278C36.5973 17.2764 36.7016 17.1992 36.832 17.1478C37.1449 16.9677 37.4318 16.8134 37.7447 16.659C38.3966 16.3246 39.0485 16.0159 39.6744 15.7587L39.3615 15.3986L39.3093 15.3471L38.9182 14.9098L36.7538 12.3375L36.7799 10.4854L36.7538 10.4597L38.2923 9.99664L41.2129 11.4629Z" fill="#2F83C1"/>
<path d="M66.4292 54.6784C66.4292 54.6784 66.4814 54.2925 66.2727 53.9324C66.2727 53.9067 66.2467 53.8809 66.2467 53.8809L66.2206 53.8552L66.1424 53.778C66.0902 53.7266 66.0381 53.6751 65.9598 53.6237C65.9337 53.598 65.8816 53.5723 65.8294 53.5465C65.6991 53.4951 65.5687 53.4436 65.3861 53.4179C65.2557 53.3922 65.1254 53.3922 64.9689 53.3922H64.7603V53.4436C64.7603 53.4694 64.7864 53.4951 64.7864 53.5465C64.7864 53.5723 64.7864 53.598 64.8124 53.598C64.8385 53.6751 64.8646 53.8038 64.8907 53.9067C64.8907 53.9067 64.8907 53.9324 64.8646 53.9838V54.0096C64.7864 54.1896 64.5777 54.6012 64.1084 55.1157C64.0301 55.2186 63.9519 55.2957 63.8476 55.3986C62.5437 56.7362 59.7274 58.6141 53.7819 59.6687C51.774 59.9517 49.8964 59.9774 48.3318 59.7716C45.9849 59.4887 44.2377 58.7427 43.4033 57.7395C43.325 57.6623 43.2729 57.5594 43.1946 57.4822C43.1425 57.4051 43.1164 57.3536 43.0643 57.2764C43.0382 57.2507 43.0382 57.225 43.0121 57.1993C42.6731 56.5819 42.5166 55.9131 42.5166 55.27C42.5166 54.4726 42.7774 53.7266 43.1946 53.1607C43.5336 52.6977 43.9769 52.3375 44.5246 52.1832C44.7853 52.106 45.0722 52.0546 45.359 52.0803C45.4112 52.0803 45.4894 52.0803 45.5937 52.106C45.7763 52.1317 46.0631 52.1575 46.4021 52.2089C46.4282 52.2089 46.4803 52.2089 46.5064 52.2346C47.6277 52.3632 49.401 52.5433 51.5393 52.4147C55.4508 52.1832 60.588 50.9742 65.2557 46.807V46.7812C65.2818 46.4211 65.2297 45.8037 64.7864 45.315C64.7081 45.2378 64.6299 45.1607 64.5256 45.0835C64.4734 45.032 64.3952 45.0063 64.3431 44.9549C64.2648 44.9291 64.2127 44.8777 64.1605 44.852L63.9258 44.6976V44.6719C63.8997 44.6205 63.8737 44.569 63.8215 44.5176C62.622 42.7169 60.953 41.6623 60.275 41.1735C59.9621 40.942 59.7535 40.8391 59.7535 40.8391C58.3193 39.9645 58.1107 39.6815 58.241 37.3407C58.2932 36.4918 58.3714 35.3857 58.4757 33.868C58.4757 33.6622 58.5018 33.4822 58.5018 33.3021V33.1735V32.5561C58.5018 32.4275 58.4757 32.2989 58.4757 32.196C58.4757 32.1446 58.4757 32.0931 58.4497 32.0417C58.4236 31.913 58.4236 31.7844 58.3975 31.6558C58.3975 31.6044 58.3714 31.5272 58.3714 31.4757C58.3714 31.3986 58.3454 31.3471 58.3193 31.27C58.2932 31.2185 58.2932 31.1413 58.2671 31.0899C58.241 31.0127 58.215 30.9355 58.215 30.8584C58.215 30.8327 58.1889 30.8069 58.1889 30.7812C58.1889 30.7555 58.1628 30.7298 58.1628 30.704V30.6783L58.1367 30.6011C58.1107 30.5497 58.0846 30.4982 58.0846 30.4468V30.4211L58.0585 30.3696L58.0324 30.3182C57.9803 30.2153 57.9542 30.1124 57.902 30.0352L57.876 29.9581C57.8238 29.8809 57.7717 29.778 57.7195 29.7008L57.6934 29.6751L57.6674 29.6494C57.6152 29.5979 57.5891 29.5465 57.537 29.495L57.4848 29.4179C57.4327 29.3407 57.3805 29.2892 57.3284 29.2378L57.1197 29.032C57.0415 28.9806 56.9633 28.9291 56.885 28.9034C56.859 28.8777 56.8329 28.8777 56.8068 28.8777L56.6504 28.8005C56.6243 28.8005 56.5982 28.7748 56.5721 28.7748C56.52 28.749 56.4678 28.749 56.4417 28.7233C56.4157 28.7233 56.3896 28.6976 56.3374 28.6976C56.2853 28.6976 56.2592 28.6719 56.207 28.6719H55.6333C55.6073 28.6719 55.5812 28.6719 55.5551 28.6976C55.529 28.6976 55.503 28.6976 55.4769 28.7233C55.4247 28.7233 55.3726 28.749 55.2943 28.7748H55.2422C55.0857 28.8262 54.9553 28.8777 54.7989 28.9291L54.7467 28.9548C54.6946 28.9806 54.6424 29.0063 54.5642 29.032L54.486 29.0577L54.3295 29.1349L54.2513 29.1863L54.0948 29.2635L54.0166 29.315C53.9644 29.3407 53.9123 29.3921 53.8601 29.4179L53.808 29.4436C53.7558 29.495 53.6776 29.5208 53.6254 29.5722L53.5993 29.5979C53.5211 29.6494 53.469 29.7008 53.3907 29.7265C53.2603 29.8037 53.13 29.9066 52.9996 29.9838C52.8953 30.0609 52.791 30.1381 52.6606 30.2153L52.6084 30.241C52.5041 30.3182 52.3737 30.3954 52.2694 30.4468L52.2173 30.4725C52.113 30.5497 51.9826 30.6011 51.8783 30.6783L51.8261 30.704C51.7218 30.7812 51.5914 30.8327 51.461 30.8841L51.4089 30.9098C51.2785 30.9613 51.1742 31.0127 51.0438 31.0642L50.9916 31.0899C50.8613 31.1413 50.7309 31.1671 50.6005 31.2185H50.5744C50.444 31.2442 50.2876 31.27 50.1572 31.2957C49.9225 31.3214 49.6617 31.3471 49.427 31.3471C49.0359 31.3471 48.6447 31.3214 48.2275 31.27L47.8363 31.1928C47.7842 31.1928 47.732 31.1671 47.706 31.1671C47.367 31.0899 47.0019 31.0127 46.6629 30.9355C46.5064 30.9098 46.376 30.8584 46.2196 30.8327C45.9849 30.7812 45.7502 30.7298 45.4894 30.6783C45.4373 30.6783 45.3851 30.6526 45.359 30.6526C45.3329 30.6526 45.2808 30.6269 45.2547 30.6269C45.2026 30.6269 45.1504 30.6011 45.0983 30.6011C45.0461 30.6011 44.9939 30.5754 44.9418 30.5754H44.8896C44.8375 30.5754 44.7853 30.5497 44.7593 30.5497C44.6549 30.524 44.5506 30.4982 44.4203 30.4982C44.3942 30.4982 44.342 30.4982 44.3159 30.4725C44.2377 30.4725 44.1595 30.4468 44.0813 30.4468C44.0291 30.4468 44.003 30.4468 43.9509 30.4211C43.8726 30.4211 43.8205 30.3954 43.7423 30.3954H42.5427C42.4123 30.3954 42.308 30.4211 42.1776 30.4211H42.0733C41.9951 30.4211 41.9169 30.4468 41.8386 30.4468H41.8126C41.7604 30.4468 41.7343 30.4725 41.6822 30.4725C41.6039 30.4982 41.5257 30.4982 41.4475 30.524C41.3953 30.524 41.3432 30.5497 41.3171 30.5497C41.2389 30.5754 41.1606 30.6011 41.0824 30.6011C41.0303 30.6011 41.0042 30.6269 40.952 30.6526C40.8738 30.6783 40.7695 30.704 40.6912 30.7298C40.6391 30.7555 40.613 30.7555 40.5869 30.7812C40.4566 30.8327 40.3262 30.8841 40.2219 30.9355C39.2309 31.5015 38.3704 32.2732 37.7185 33.1478C37.4838 33.4565 37.2752 33.7651 37.0926 34.0738C36.884 34.4082 36.7276 34.7684 36.5711 35.1285C36.5189 35.2314 36.4929 35.3343 36.4407 35.4372C36.3886 35.6172 36.3103 35.7973 36.2582 35.9774C36.2582 36.0031 36.2582 36.0288 36.2321 36.0288C36.1799 36.2346 36.1278 36.4404 36.0756 36.6719C36.0235 36.9034 35.9974 37.1092 35.9713 37.3407C35.9452 37.4693 35.9452 37.5722 35.9452 37.7008C35.9192 38.0352 35.9192 38.3439 35.9452 38.6783V38.7555C35.9452 38.8327 35.9452 38.9098 35.9713 39.0127C35.9974 39.2442 36.0235 39.4758 36.0756 39.7073C36.1017 39.7844 36.1278 39.8616 36.1278 39.9645C36.1539 40.0417 36.1539 40.1188 36.1799 40.196C36.3364 40.7877 36.5711 41.3279 36.8579 41.7909C37.9271 43.6172 39.7003 44.7234 41.0042 45.315C41.4996 45.5208 42.0212 45.7266 42.5688 45.9066L42.5166 45.9581C42.4123 45.9838 42.308 46.0095 42.1776 46.0353C41.9951 46.0867 41.7604 46.1639 41.5257 46.241C41.2649 46.3182 40.952 46.4468 40.6391 46.5755C39.8046 46.9099 38.8659 47.3986 38.0314 48.0674C37.9271 48.1446 37.8228 48.2475 37.7185 48.3246C37.5359 48.479 37.3795 48.6333 37.223 48.8134L37.1709 48.8648L37.0926 48.942C37.0405 49.0192 36.9622 49.0706 36.9101 49.1478L36.8319 49.225C36.7536 49.3279 36.6754 49.4308 36.6232 49.5337C36.545 49.6366 36.4929 49.7394 36.4146 49.8423C35.9192 50.6912 35.6323 51.7202 35.7106 52.9549V52.9034C35.7106 52.8777 35.7106 52.852 35.7366 52.8263V52.8005C35.7366 52.7748 35.7627 52.7491 35.7627 52.6976V52.6719C35.7627 52.6462 35.7888 52.5948 35.7888 52.5433C35.7888 52.4919 35.8149 52.4661 35.8409 52.4147V52.389C35.867 52.3375 35.867 52.2861 35.8931 52.2346V52.2089C35.9192 52.1575 35.9192 52.106 35.9452 52.0546V52.0288C35.9713 51.9774 35.9974 51.9259 36.0235 51.8488L36.0496 51.8231C36.0756 51.7716 36.1017 51.6944 36.1539 51.643C36.206 51.5401 36.2582 51.4629 36.3103 51.36C36.3364 51.3343 36.3625 51.2829 36.3886 51.2571L36.4146 51.2314L36.5711 50.9999C36.6232 50.9485 36.6754 50.8713 36.7276 50.8198L36.7797 50.7684C36.8319 50.7169 36.8579 50.6655 36.9101 50.6398L36.9622 50.5883C37.0144 50.5369 37.0926 50.4854 37.1448 50.4083C37.1448 50.4083 36.0235 52.9292 36.5189 54.9099V54.8841V54.8327V54.7555V54.6526V54.524C36.5189 54.4726 36.5189 54.4211 36.545 54.3697C36.545 54.3182 36.545 54.2668 36.5711 54.2153V54.1896C36.5711 54.1382 36.5972 54.061 36.5972 54.0096V53.9581C36.6232 53.8809 36.6232 53.8295 36.6493 53.7523V53.7266C36.6754 53.6494 36.7015 53.5723 36.7015 53.5208C36.7015 53.4951 36.7276 53.4694 36.7276 53.4436L36.7536 53.3922C36.7797 53.3407 36.8058 53.2636 36.8319 53.2121C36.8579 53.1349 36.9101 53.0578 36.9622 52.9806C36.9622 52.9549 36.9883 52.9292 36.9883 52.9292L37.1448 52.6976C37.1448 52.6976 37.0926 53.315 37.0926 54.061C37.0926 54.1896 37.0926 54.2925 37.1187 54.4211C37.1187 54.4983 37.1187 54.5755 37.1448 54.6526C37.1969 53.8552 37.3534 53.1092 37.562 52.4147C37.3534 53.1092 37.1969 53.8552 37.1448 54.6526C37.1187 55.1671 37.1187 55.6816 37.1709 56.2218C37.2491 57.1221 37.4838 58.0996 37.8749 59.1028C37.8749 59.1028 37.5099 57.9453 38.0314 56.7877L38.1879 57.0964C38.24 57.4308 38.2922 57.9195 38.3965 58.4597C38.5008 59.36 38.918 62.061 40.7956 63.9388C40.7956 63.9388 40.0915 63.0385 40.1958 61.881C40.274 62.0353 40.3523 62.1639 40.4044 62.2925C40.7173 62.8842 41.3432 63.9646 42.0473 64.7363C42.0473 64.7363 41.4996 63.6816 41.63 63.4501C41.63 63.4501 43.4554 65.688 44.0291 65.8938L43.2729 64.6591L43.2468 64.6334C45.8806 66.5369 49.5313 67.2314 54.0166 65.9967C54.7989 65.7909 55.5812 65.508 56.4157 65.1736C56.9111 64.9678 57.4066 64.7105 57.902 64.4533L57.9803 64.4019C58.3193 64.2218 58.6583 64.016 58.9973 63.8102C59.258 63.6559 59.5188 63.4758 59.7535 63.3215C60.1707 63.0385 60.588 62.7298 61.0052 62.3954C61.0313 62.3697 61.0574 62.344 61.0834 62.344C61.4746 62.0096 61.8657 61.6494 62.2047 61.2893C62.6741 60.8006 63.0914 60.3118 63.4564 59.8231L63.4825 59.7973C63.5868 59.6687 63.6651 59.5658 63.7433 59.4372L63.7694 59.4115C63.7954 59.36 63.8215 59.3343 63.8476 59.2829C63.978 59.1028 64.0823 58.9485 64.2127 58.7684C64.2387 58.717 64.2648 58.6912 64.2909 58.6398C64.3431 58.5369 64.3952 58.4597 64.4734 58.3568C64.5256 58.2797 64.5517 58.2282 64.6038 58.151C64.656 58.0739 64.7081 57.9967 64.7342 57.9195C64.8124 57.7909 64.8907 57.6366 64.9689 57.508L65.0471 57.3536L65.2036 57.0449L65.2818 56.8906L65.3079 56.8391C65.3601 56.7105 65.4383 56.5819 65.4904 56.4533V56.4276C65.7251 56.2218 65.8816 56.016 66.0381 55.8359C66.0641 55.8102 66.0902 55.7845 66.0902 55.7588C66.3249 55.4243 66.4292 55.0385 66.4292 54.6784ZM24.2628 48.1189C24.1845 48.1446 24.1063 48.2475 24.002 48.3761C23.9759 48.4275 23.9238 48.479 23.8977 48.5562C23.663 48.9935 23.4544 49.6108 23.4544 49.6108C23.4805 49.405 23.5065 49.1993 23.5065 48.9935V48.9163C23.5326 48.7105 23.5587 48.479 23.5848 48.2732V48.196C23.6108 47.9388 23.663 47.7073 23.7152 47.4758C23.7152 47.4501 23.7152 47.4243 23.7412 47.3729V47.3472C23.7412 47.3214 23.7412 47.2957 23.7673 47.27C23.7673 47.2185 23.7934 47.1928 23.7934 47.1414C23.8195 46.9613 23.8716 46.7812 23.8977 46.6012C23.9238 46.4468 23.9498 46.2925 23.9759 46.1639V46.1124C23.9759 46.0867 23.9759 46.061 24.002 46.061V46.0095C24.002 45.9838 24.0281 45.9324 24.0281 45.9066C24.0281 45.8809 24.0281 45.8552 24.0542 45.8295C24.0542 45.778 24.0802 45.7266 24.0802 45.7008C24.0802 45.6751 24.1063 45.6237 24.1063 45.598C24.1063 45.5465 24.1324 45.4951 24.1324 45.4693C24.1324 45.4436 24.1324 45.4179 24.1585 45.3922C24.1585 45.3664 24.1585 45.3407 24.1845 45.3407C24.1845 45.2893 24.2106 45.2635 24.2106 45.2378V45.1607L24.1585 45.2121C24.1063 45.2378 24.0802 45.2893 24.0281 45.315L23.9759 45.3664C23.9238 45.4179 23.8716 45.4693 23.8455 45.5208L23.8195 45.5465L23.663 45.778L23.6369 45.8037C23.6369 45.8295 23.6108 45.8295 23.6108 45.8552L23.5326 46.0095V46.061C23.5065 46.1382 23.4544 46.2153 23.4283 46.2925C23.3501 46.4983 23.2718 46.7041 23.2197 46.8841C23.1936 46.9356 23.1936 47.0127 23.1675 47.0385C23.1415 47.1414 23.1154 47.2443 23.1154 47.27V47.2957V47.27C23.1154 47.1928 23.1154 47.1414 23.1415 47.0642C23.1415 46.9356 23.1675 46.7812 23.1675 46.6526C23.1675 46.5497 23.1936 46.4211 23.2197 46.3182C23.2197 46.2925 23.2197 46.241 23.2458 46.2153C23.2458 46.1639 23.2718 46.1124 23.2718 46.061C23.2718 46.0095 23.2979 45.9581 23.2979 45.9066V45.8295C23.2979 45.778 23.324 45.7009 23.324 45.6494V45.5208V45.4693C23.324 45.4436 23.324 45.4179 23.3501 45.3922C23.3762 45.315 23.4022 45.2121 23.4022 45.1349V45.1092C23.4283 45.0578 23.4283 44.9806 23.4544 44.9291V44.9034C23.4805 44.7748 23.5326 44.6462 23.5587 44.5176V44.4661C23.5587 44.4404 23.5587 44.4147 23.5848 44.389C23.6369 44.1832 23.7152 43.9774 23.7673 43.7973V43.7716C23.8195 43.6172 23.8977 43.4372 23.9498 43.2828V43.2571C23.9759 43.1799 24.002 43.1285 24.0281 43.0513C24.0802 42.9484 24.1063 42.8455 24.1585 42.7426C24.1585 42.7169 24.1845 42.6655 24.2367 42.5626C24.2628 42.5369 24.2628 42.4854 24.2888 42.4597C24.3149 42.4082 24.341 42.3568 24.3671 42.2796L24.3932 42.2282C24.3671 42.2025 24.3149 42.2025 24.2888 42.1767H24.2628L24.2106 42.151C23.9759 42.0481 23.7152 41.9452 23.4544 41.868H23.4022C23.2197 41.8166 23.0632 41.7909 22.8807 41.7652C22.7764 41.7652 22.6721 41.7394 22.5678 41.7394H22.307C22.1766 41.7394 22.0462 41.7652 21.9158 41.7652C21.8637 41.7652 21.8376 41.7652 21.7855 41.7909C21.7333 41.7909 21.6551 41.8166 21.6029 41.8166C21.5768 41.8166 21.5508 41.8166 21.5247 41.8423C21.4725 41.8423 21.4465 41.868 21.3943 41.868C21.3161 41.8938 21.2118 41.9195 21.1335 41.9452C21.1075 41.9452 21.0553 41.9709 21.0292 41.9709C20.9249 42.0224 20.7945 42.0481 20.6902 42.0996C20.6381 42.1253 20.612 42.151 20.5598 42.151L20.4034 42.2282L20.3512 42.2539C20.2991 42.2796 20.2469 42.3053 20.1948 42.3568C20.1426 42.3825 20.0905 42.4082 20.0383 42.4597C19.9861 42.4854 19.934 42.5369 19.8818 42.5626C19.8558 42.5883 19.8036 42.614 19.7775 42.6398C19.6993 42.7169 19.595 42.7941 19.5168 42.8713L19.3864 42.9999C19.3081 43.0771 19.256 43.1542 19.1778 43.2314L19.1517 43.2571C19.1256 43.3086 19.0735 43.3343 19.0474 43.3857L18.9691 43.4629C18.8388 43.643 18.7084 43.8488 18.6041 44.0545C18.578 44.0803 18.578 44.106 18.5519 44.1317C18.4998 44.2346 18.4737 44.3375 18.4215 44.4404C18.3955 44.4918 18.3955 44.5176 18.3694 44.569C18.3433 44.6719 18.2911 44.7748 18.2651 44.9034V45.0063C18.239 45.0835 18.239 45.1607 18.2129 45.2378C18.2129 45.2893 18.2129 45.315 18.1868 45.3664C18.1868 45.4179 18.1868 45.4436 18.1608 45.4951V45.598C18.1608 45.7266 18.1347 45.8552 18.1608 45.9838C18.1608 46.0867 18.1608 46.1896 18.1868 46.2925V46.3439C18.1868 46.3954 18.2129 46.4468 18.2129 46.4983C18.239 46.7041 18.2911 46.8841 18.3433 47.0899C18.3955 47.2443 18.4476 47.3729 18.4998 47.5015C18.6041 47.7587 18.7345 47.9902 18.8909 48.2218C19.2038 48.6848 19.6211 49.0964 20.1165 49.405C20.3773 49.5851 20.6902 49.7137 21.0031 49.8166C21.29 49.9195 21.6029 49.9967 21.9419 50.0224C22.0201 50.0224 22.0984 50.0481 22.1505 50.0481H22.4895C22.5938 50.0481 22.6982 50.0224 22.8025 50.0224C22.8546 50.0224 22.9328 50.0224 22.985 49.9967C23.1415 49.971 23.2718 49.9452 23.4283 49.9195H23.4544C23.5065 49.8938 23.5587 49.8938 23.6369 49.8681C23.8195 49.8166 24.002 49.7394 24.1585 49.6623L24.1845 49.6366C24.2367 49.6108 24.2888 49.5851 24.3149 49.5851C24.2367 49.1478 24.1585 48.6848 24.1324 48.2218C24.2628 48.1703 24.2628 48.1446 24.2628 48.1189Z" fill="#FCE9CD"/>
<path d="M41.8655 11.7715L41.9437 11.8229L41.8655 11.7715Z" fill="#4D9ED7"/>
<path d="M64.8385 53.6238C64.8385 53.5981 64.8385 53.5724 64.8124 53.5724C64.7863 53.521 64.7863 53.4952 64.7863 53.4695C64.6559 53.0579 64.4995 52.7492 64.343 52.5177C64.1605 52.2348 64.004 52.0804 64.004 52.0804L64.0823 51.7718C64.1083 51.6431 64.1344 51.5145 64.1344 51.3859C64.2387 50.4598 64.004 49.7396 63.7954 49.328C63.7693 49.2508 63.7433 49.1994 63.7172 49.1479C63.5607 49.2508 63.4303 49.3537 63.2739 49.4566C60.4576 51.3345 57.3022 52.5435 53.8862 53.0579C51.5392 53.4181 49.0619 53.4438 46.4803 53.1351L46.5324 53.1608C46.5324 53.1608 44.9678 53.3666 44.5506 54.8329L44.5767 54.8586L44.4463 55.8361C44.4984 57.1737 45.0982 57.9969 45.8023 58.4342C46.5324 58.7171 47.4191 58.9229 48.41 59.0515C50.105 59.2573 52.0868 59.2059 54.0687 58.8972C56.7285 58.537 60.4836 57.148 63.1696 55.3473C63.7693 54.9357 64.343 54.4984 64.8124 54.0611L64.8385 54.0354L64.8646 54.0097C64.8646 53.8296 64.8385 53.7267 64.8385 53.6238Z" fill="white"/>
<path d="M59.754 40.9165C58.3198 40.0419 58.1112 39.7589 58.2416 37.4181C58.2937 36.5692 58.372 35.4631 58.4763 33.9454C58.4763 33.7396 58.5023 33.5596 58.5023 33.3795V33.2509V32.6335C58.5023 32.5049 58.4763 32.3763 58.4763 32.2734C58.4763 32.2219 58.4763 32.1705 58.4502 32.1191C58.4241 31.9904 58.4241 31.8618 58.398 31.7332C58.398 31.6818 58.372 31.6046 58.372 31.5531C58.372 31.476 58.3459 31.4245 58.3198 31.3473C58.2937 31.2959 58.2937 31.2187 58.2677 31.1673C58.059 30.8586 57.8244 30.6014 57.5375 30.3699L57.4853 30.3184L57.4332 30.2927H57.4071C57.355 30.267 57.3289 30.2412 57.2767 30.2155C57.2246 30.1898 57.1724 30.1641 57.1463 30.1383C56.7291 29.8811 56.2337 29.7268 55.7382 29.6496C55.4513 29.5981 55.1645 29.5981 54.8777 29.5981C54.7473 29.5981 54.5908 29.6239 54.4604 29.6239C54.0953 29.6753 53.7303 29.7525 53.3391 29.8554C53.2087 29.9326 53.0783 30.0354 52.948 30.1126C52.8436 30.1898 52.7393 30.267 52.609 30.3441L52.5568 30.3699C52.4525 30.447 52.3221 30.5242 52.2178 30.5756L52.1656 30.6014C52.0613 30.6785 51.931 30.73 51.8266 30.8072L51.7745 30.8329C51.6702 30.91 51.5398 30.9615 51.4094 31.0129L51.3573 31.0387C51.2269 31.0901 51.1226 31.1416 50.9922 31.193L50.94 31.2187C50.8096 31.2702 50.6793 31.2959 50.5489 31.3473H50.5228C50.3924 31.3731 50.2359 31.3988 50.1056 31.4245C49.8709 31.4502 49.6101 31.476 49.3754 31.476C48.9843 31.476 48.5931 31.4502 48.1759 31.3988L47.7847 31.3216C47.7326 31.3216 47.6804 31.2959 47.6543 31.2959C47.3153 31.2187 46.9503 31.1416 46.6113 31.0644C46.4548 31.0387 46.3244 30.9872 46.1679 30.9615C45.9332 30.91 45.6986 30.8586 45.4378 30.8072C45.3856 30.8072 45.3335 30.7814 45.3074 30.7814C45.0988 30.7814 44.8902 30.8072 44.7076 30.8329H44.6555C44.0557 30.91 43.482 31.0387 42.8822 31.2445C42.8562 31.2445 42.8301 31.2702 42.7779 31.2702C42.6736 31.2959 42.5954 31.3473 42.4911 31.3731C42.3607 31.4245 42.2564 31.476 42.126 31.5274C41.2655 31.8875 40.4571 32.402 39.6748 33.0451C39.3619 33.3023 39.075 33.5853 38.7882 33.8683C38.3709 34.3056 38.0058 34.7686 37.6668 35.2573C37.6408 35.283 37.6408 35.3088 37.6147 35.3345C37.4322 35.5917 37.2757 35.8747 37.1453 36.1319C37.0932 36.2348 37.041 36.3377 36.9888 36.4149V36.4406C36.8324 36.775 36.702 37.0837 36.5977 37.4181C36.5977 37.4438 36.5977 37.4695 36.5716 37.4695C36.5455 37.521 36.5455 37.5724 36.5195 37.6239C36.4673 37.7782 36.4152 37.9326 36.3891 38.0869C36.3369 38.2413 36.3108 38.3956 36.2848 38.5757C36.2848 38.6014 36.2587 38.6528 36.2587 38.6786C36.2326 38.7814 36.2326 38.8843 36.2065 38.9615C36.1544 39.3216 36.1283 39.6818 36.1022 40.0419V40.2991C36.2587 40.8908 36.4934 41.431 36.7802 41.894C37.8494 43.7204 39.6226 44.8265 40.9265 45.4181C41.4219 45.6239 41.9435 45.8297 42.4911 46.0098L42.5172 46.0355L42.5432 46.0098C42.6215 45.9583 42.6736 45.9069 42.7519 45.8554C42.7779 45.8297 42.804 45.8297 42.8301 45.804L43.0648 45.6496C43.0909 45.6239 43.1169 45.6239 43.143 45.5982L43.3777 45.4438C43.4038 45.4181 43.4299 45.4181 43.4559 45.3924C43.5342 45.341 43.6124 45.2895 43.7167 45.2381C43.7428 45.2123 43.7689 45.2123 43.7949 45.1866C43.8732 45.1352 43.9775 45.0837 44.0557 45.0323C44.0818 45.0065 44.1079 45.0065 44.1339 44.9808C44.2122 44.9294 44.3165 44.8779 44.3947 44.8265C44.4208 44.8008 44.4729 44.8008 44.499 44.775C44.5772 44.7236 44.6816 44.6721 44.7598 44.6207C44.7859 44.595 44.838 44.5692 44.8641 44.5692C44.9423 44.5178 45.0466 44.4663 45.1509 44.4149C45.2031 44.3892 45.2292 44.3635 45.2813 44.3635C45.3856 44.312 45.4639 44.2606 45.5682 44.2348C45.6203 44.2091 45.6464 44.1834 45.6986 44.1834C45.8029 44.1319 45.8811 44.1062 45.9854 44.0548L46.1419 43.9776C46.2462 43.9262 46.3244 43.9004 46.4287 43.849C46.4809 43.8233 46.533 43.7975 46.6113 43.7718C46.7156 43.7461 46.7938 43.6946 46.8981 43.6689C46.9502 43.6432 47.0285 43.6175 47.0806 43.5917C47.1849 43.566 47.2632 43.5146 47.3675 43.4889C47.4457 43.4631 47.4979 43.4374 47.5761 43.4117C47.6804 43.386 47.7586 43.3345 47.8629 43.3088L48.0976 43.2316C48.1759 43.2059 48.2802 43.1802 48.3584 43.1287C48.4366 43.103 48.5409 43.0773 48.6192 43.0516C48.6974 43.0258 48.8017 43.0001 48.8799 42.9744C48.9843 42.9487 49.0886 42.9229 49.1668 42.8972C49.245 42.8715 49.3233 42.8458 49.4276 42.82C49.5319 42.7943 49.6362 42.7686 49.7666 42.7172C49.8187 42.6914 49.8709 42.6914 49.923 42.6657C50.3403 41.611 51.618 38.9872 53.7824 38.7043C54.0171 38.6786 54.2257 38.6528 54.4343 38.6528H54.5908C54.5647 38.4985 54.5387 38.3441 54.5387 38.1641C54.4604 37.0322 54.8255 36.0805 55.321 36.0548C55.7121 36.029 56.025 36.5949 56.0772 36.775C56.2337 37.1094 56.338 37.5467 56.364 38.0355C56.3901 38.4728 56.338 38.8843 56.2597 39.2445C56.3119 39.2959 56.338 39.3474 56.3901 39.3731C56.8856 39.9905 56.9638 40.8136 56.9377 41.431C57.1203 41.4053 57.3289 41.4052 57.5375 41.3795C57.5897 41.3795 57.6418 41.3795 57.694 41.3538H57.7983C58.033 41.3281 58.2937 41.3024 58.5545 41.3024C59.1282 41.2509 59.7019 41.2252 60.3017 41.1995C59.9627 41.0194 59.754 40.9165 59.754 40.9165ZM65.2041 56.7622C64.2654 57.5854 63.2744 58.2542 62.2835 58.7944C61.788 59.0516 61.2926 59.2831 60.8232 59.4889C59.754 59.9519 58.737 60.2606 57.8244 60.4921C55.8164 60.9809 54.4343 60.9809 54.4343 60.9809C55.5296 61.5725 56.9117 61.5725 57.8504 61.4953C58.5023 61.4439 58.9457 61.3153 58.9457 61.3153C58.9196 61.7011 58.8674 62.0612 58.8153 62.4214C58.737 62.8072 58.6327 63.1416 58.5023 63.4503V63.476C58.3459 63.8619 58.1373 64.1963 57.9287 64.505C57.9026 64.5307 57.8765 64.5822 57.8504 64.6079L57.9287 64.5564C58.2677 64.3764 58.6067 64.1706 58.9457 63.9648C59.2064 63.8105 59.4672 63.6304 59.7019 63.476C60.1191 63.1931 60.5364 62.8844 60.9536 62.55C60.9797 62.5243 61.0057 62.4986 61.0318 62.4986C61.423 62.1641 61.8141 61.804 62.1531 61.4439C62.6225 60.9551 63.0397 60.4664 63.4048 59.9776L63.4309 59.9519C63.5352 59.8233 63.6134 59.7204 63.6917 59.5918L63.7177 59.5661C63.7438 59.5146 63.7699 59.4889 63.796 59.4375C63.9264 59.2574 64.0307 59.103 64.1611 58.923C64.1871 58.8715 64.2132 58.8458 64.2393 58.7944C64.2914 58.6915 64.3436 58.6143 64.4218 58.5114C64.474 58.4342 64.5001 58.3828 64.5522 58.3056C64.6044 58.2284 64.6565 58.1513 64.6826 58.0741C64.7608 57.9455 64.8391 57.7911 64.9173 57.6625L64.9955 57.5082L65.152 57.1995L65.2302 57.0452L65.2563 56.9937C65.3084 56.8651 65.3867 56.7365 65.4388 56.6079C65.3345 56.6336 65.2824 56.685 65.2041 56.7622ZM41.4219 46.3956C41.1612 46.4728 40.8482 46.6014 40.5353 46.73C39.7009 47.0644 38.7621 47.5532 37.9276 48.222C37.8233 48.2992 37.719 48.4021 37.6147 48.4792C37.4322 48.6336 37.2757 48.7879 37.1192 48.968L37.0671 49.0194L36.9888 49.0966C36.9367 49.1738 36.8585 49.2252 36.8063 49.3024L36.7281 49.3795C36.6498 49.4824 36.5716 49.5853 36.5195 49.6882C36.4412 49.7911 36.3891 49.894 36.3108 49.9969C35.8154 50.8458 35.5285 51.8747 35.6068 53.1095V53.058C35.6068 53.0323 35.6068 53.0066 35.6328 52.9808V52.9551C35.6328 52.9294 35.6589 52.9037 35.6589 52.8522V52.8265C35.6589 52.8008 35.685 52.7493 35.685 52.6979C35.685 52.6464 35.7111 52.6207 35.7372 52.5693V52.5435C35.7632 52.4921 35.7632 52.4406 35.7893 52.3892V52.3635C35.8154 52.312 35.8154 52.2606 35.8415 52.2091V52.1834C35.8675 52.132 35.8936 52.0805 35.9197 52.0033L35.9458 51.9776C35.9718 51.9262 35.9979 51.849 36.0501 51.7976C36.1022 51.6947 36.1544 51.6175 36.2065 51.5146C36.2326 51.4889 36.2587 51.4374 36.2848 51.4117L36.3108 51.386L36.4673 51.1545C36.5195 51.103 36.5716 51.0259 36.6238 50.9744L36.6759 50.923C36.7281 50.8715 36.7542 50.8201 36.8063 50.7943L36.8585 50.7429C36.9106 50.6914 36.9888 50.64 37.041 50.5628C37.041 50.5628 35.9197 53.0837 36.4152 55.0644V55.0387V54.9873V54.9101V54.8072V54.6786C36.4152 54.6271 36.4152 54.5757 36.4412 54.5243C36.4412 54.4728 36.4412 54.4214 36.4673 54.3699V54.3442C36.4673 54.2927 36.4934 54.2156 36.4934 54.1641V54.1127C36.5195 54.0355 36.5195 53.9841 36.5455 53.9069V53.8812C36.5716 53.804 36.5977 53.7268 36.5977 53.6754C36.5977 53.6497 36.6238 53.6239 36.6238 53.5982L36.6498 53.5468C36.6759 53.4953 36.702 53.4181 36.7281 53.3667C36.7542 53.2895 36.8063 53.2124 36.8585 53.1352C36.8585 53.1095 36.8845 53.0837 36.8845 53.0837L37.041 52.8522C37.041 52.8522 36.9888 53.4696 36.9888 54.2156C36.9888 54.3442 36.9888 54.4471 37.0149 54.5757C37.0149 54.6529 37.0149 54.73 37.041 54.8072C37.0932 54.0098 37.2496 53.2638 37.4582 52.5693C37.5104 52.3892 37.5886 52.1834 37.6408 52.0033C37.6408 51.9776 37.6668 51.9519 37.6668 51.9262C37.7451 51.7461 37.7972 51.5918 37.8755 51.4117C37.9015 51.386 37.9015 51.3603 37.9276 51.3088C38.0058 51.1545 38.0841 50.9744 38.1623 50.8201C38.1884 50.7943 38.1884 50.7686 38.1884 50.7429C38.3709 50.4085 38.5535 50.0998 38.736 49.8168C38.7621 49.7911 38.7621 49.7654 38.7882 49.7397C38.8664 49.6368 38.9446 49.5339 39.0228 49.4053C39.0489 49.3795 39.0489 49.3538 39.075 49.3281C39.1011 49.3024 39.1011 49.2767 39.1272 49.2509C39.2315 49.1223 39.3097 48.9937 39.414 48.8651C39.4401 48.8394 39.4401 48.8136 39.4662 48.8136C39.5705 48.685 39.6748 48.5564 39.7791 48.4535C39.9095 48.2992 40.0399 48.1705 40.1702 48.0162C40.2745 47.9133 40.3528 47.8104 40.4571 47.7332L40.5614 47.6303C40.77 47.4246 40.9786 47.2188 41.1872 47.0387C41.7609 46.5242 42.2303 46.1898 42.3868 46.0869C42.2825 46.1127 42.1782 46.1384 42.0478 46.1641C41.8913 46.2413 41.6827 46.3184 41.4219 46.3956Z" fill="#F2D2AC"/>
<path d="M56.4416 40.8133C56.4416 40.8133 56.4416 40.7618 56.4155 40.6589C56.3112 40.2988 55.9461 39.4242 54.5119 39.5528C52.9994 39.7072 52.4779 40.9162 52.3475 41.3278C52.3214 41.4049 52.3214 41.4564 52.3214 41.4564L52.3735 41.4821C52.5561 41.3278 52.9212 41.3278 53.2602 41.5593C53.4166 41.6622 53.5209 41.7651 53.6252 41.8937C53.7556 42.0995 53.7817 42.3053 53.7035 42.4596L53.6252 42.5368C53.6252 42.5368 53.6774 42.5625 53.7817 42.5882C54.1989 42.7168 55.3724 42.9483 55.9983 42.1509C56.0243 42.0995 56.0504 42.0737 56.0765 42.0223C55.9461 41.9708 55.8939 41.7908 55.8939 41.5593C55.8939 41.4564 55.92 41.3535 55.9461 41.2249C56.0243 40.9162 56.259 40.7361 56.4416 40.8133ZM48.9053 51.8229C47.9144 52.0287 47.0539 52.1831 46.4019 52.286C46.428 52.286 46.4802 52.286 46.5062 52.3117C47.6275 52.4403 49.4008 52.6204 51.5391 52.4917C55.4506 52.2602 60.5878 51.0512 65.2556 46.884V46.8583C65.2817 46.4982 65.2295 45.8808 64.7862 45.3921C64.708 45.3149 64.6297 45.2377 64.5254 45.1606C64.4993 45.1606 64.4993 45.1348 64.4733 45.1348C64.3429 45.0577 64.2386 45.0062 64.1343 44.929L63.8996 44.7747V44.749C63.6127 45.1606 63.2737 45.5464 62.9086 45.9065C62.7783 46.0352 62.6479 46.1638 62.4914 46.2924C61.2136 47.4242 59.5447 48.4017 57.7454 49.1734C54.7726 50.4596 51.4348 51.3085 48.9053 51.8229ZM24.1843 45.1091C24.1322 45.1348 24.1061 45.1863 24.054 45.212L24.0018 45.2635C23.9497 45.3149 23.8975 45.3663 23.8714 45.4178L23.8453 45.4435L23.6889 45.675L23.6628 45.7007C23.6628 45.7265 23.6367 45.7265 23.6367 45.7522L23.5585 45.9065V45.958C23.5324 46.0352 23.4803 46.1123 23.4542 46.1895C23.376 46.3953 23.2977 46.6011 23.2456 46.7811C23.2195 46.8326 23.2195 46.9098 23.1934 46.9355C23.1673 47.0384 23.1413 47.1413 23.1413 47.167V47.1927V47.167C23.1413 47.0898 23.1413 47.0384 23.1673 46.9612C23.1673 46.8326 23.1934 46.6782 23.1934 46.5496C23.1934 46.4467 23.2195 46.3181 23.2456 46.2152C23.2456 46.1895 23.2456 46.138 23.2717 46.1123C23.2717 46.0609 23.2977 46.0094 23.2977 45.958C23.2977 45.9065 23.3238 45.8551 23.3238 45.8036V45.7265C23.3238 45.675 23.3499 45.5979 23.3499 45.5464V45.4178V45.3663C23.3499 45.3406 23.3499 45.3149 23.376 45.2892C23.402 45.212 23.4281 45.1091 23.4281 45.0319V45.0062C23.4542 44.9548 23.4542 44.8776 23.4803 44.8262V44.8004C23.5063 44.6718 23.5585 44.5432 23.5846 44.4146V44.3631C23.5846 44.3374 23.5846 44.3117 23.6107 44.286C23.6628 44.0802 23.741 43.8744 23.7932 43.6943V43.6686C23.8453 43.5143 23.9236 43.3342 23.9757 43.1798V43.1541C24.0018 43.077 24.0279 43.0255 24.054 42.9483C24.1061 42.8454 24.1322 42.7425 24.1843 42.6397C24.1843 42.6139 24.2104 42.5625 24.2626 42.4596C24.2887 42.4339 24.2887 42.3824 24.3147 42.3567C24.3408 42.3052 24.3669 42.2538 24.393 42.1766L24.419 42.1252C24.393 42.0995 24.3408 42.0995 24.3147 42.0737H24.2887L24.2365 42.048C24.0018 41.9451 23.741 41.8422 23.4803 41.7651H23.4281C23.2456 41.7136 23.0891 41.6879 22.9066 41.6622C22.8023 41.6622 22.698 41.6364 22.5937 41.6364H22.3329C22.2025 41.6364 22.0721 41.6622 21.9417 41.6622C21.8896 41.6622 21.8635 41.6622 21.8113 41.6879C21.7592 41.6879 21.681 41.7136 21.6288 41.7136C21.6027 41.7136 21.5767 41.7136 21.5506 41.7393C21.4984 41.7393 21.4723 41.7651 21.4202 41.7651C21.342 41.7908 21.2377 41.8165 21.1594 41.8422C21.1333 41.8422 21.0812 41.868 21.0551 41.868C20.9508 41.9194 20.8204 41.9451 20.7161 41.9966C20.664 42.0223 20.6379 42.048 20.5857 42.048L20.4293 42.1252L20.3771 42.1509C20.325 42.1766 20.2728 42.2024 20.2207 42.2538C20.1685 42.2795 20.1163 42.3052 20.0642 42.3567C20.012 42.3824 19.9599 42.4339 19.9077 42.4596C19.8817 42.4853 19.8295 42.511 19.8034 42.5368C19.7252 42.6139 19.6209 42.6911 19.5426 42.7683L19.4123 42.8969C19.334 42.9741 19.2819 43.0512 19.2036 43.1284L19.1776 43.1541C19.1515 43.2056 19.0993 43.2313 19.0733 43.2827L18.995 43.3599C18.8646 43.54 18.7343 43.7458 18.63 43.9516C18.6039 43.9773 18.6039 44.003 18.5778 44.0287C18.5256 44.1316 18.4996 44.2345 18.4474 44.3374C18.4213 44.3889 18.4213 44.4146 18.3953 44.466C18.3953 44.4917 18.4213 44.5175 18.4213 44.5432C18.4474 44.6461 18.4735 44.7233 18.4996 44.8262V44.8776C18.5256 44.9548 18.5778 45.0577 18.6039 45.1348C18.7082 45.3921 18.8125 45.6236 18.9429 45.8294C18.969 45.8551 18.969 45.8808 18.995 45.9065V45.9323L19.0211 45.958C19.0993 46.1123 19.1776 46.2409 19.2558 46.3438C19.3862 46.5239 19.4905 46.6525 19.5687 46.7554L19.6209 46.8069C19.6209 46.8326 19.647 46.8326 19.647 46.8326L19.6991 46.884C19.6991 46.8326 19.673 46.7811 19.673 46.7554C19.5948 46.421 19.5687 46.1123 19.5687 45.7779V45.7265C19.5687 45.5207 19.5687 45.3149 19.5948 45.1348L19.673 45.3663C19.6991 45.4692 19.7513 45.5721 19.7773 45.675V45.7265C19.9338 46.1638 20.1163 46.5239 20.2989 46.8069C20.5075 47.167 20.69 47.3985 20.8204 47.5528C20.8465 47.5786 20.8726 47.6043 20.8726 47.63L20.9247 47.6815C20.8465 47.3213 20.7943 46.9869 20.7943 46.6525V46.3181C20.7943 46.1638 20.7943 46.0352 20.8204 45.9065C20.8726 46.138 20.9508 46.3696 21.029 46.5753V46.6011C21.3159 47.3471 21.6549 47.8872 21.8896 48.2217L21.9157 48.2474C21.9678 48.2988 21.9939 48.3503 22.02 48.4017C22.046 48.4274 22.0721 48.4532 22.0721 48.4789L22.1243 48.5303L22.1503 48.5561V48.5046C22.1503 48.4532 22.1243 48.4017 22.1243 48.3503C22.0982 48.1702 22.0721 47.9901 22.046 47.8358C22.046 47.7329 22.02 47.6043 22.02 47.5014V47.1927V47.1413V46.9355C22.02 46.8069 22.046 46.6525 22.046 46.5239C22.0721 46.6011 22.0982 46.704 22.1243 46.7811C22.1503 46.8326 22.1764 46.9098 22.2025 46.9612V46.9869L22.2286 47.0126C22.2547 47.0898 22.2807 47.167 22.3068 47.2184C22.359 47.3471 22.4111 47.4757 22.4893 47.5786C22.5676 47.7329 22.6197 47.8615 22.698 47.9644C22.7501 48.0416 22.7762 48.093 22.8023 48.1445C22.8544 48.2216 22.9066 48.2988 22.9327 48.3503C22.9848 48.4017 23.0109 48.4532 23.037 48.5046L23.063 48.5303C23.0891 48.5818 23.1413 48.6075 23.1673 48.6589C23.1934 48.6847 23.2195 48.7104 23.2195 48.7361C23.2717 48.7876 23.2977 48.839 23.3238 48.839L23.3499 48.8647V48.7876C23.376 48.5818 23.402 48.3503 23.4281 48.1445V48.0673C23.4542 47.8101 23.5063 47.5786 23.5585 47.3471C23.5585 47.3213 23.5585 47.2956 23.5846 47.2442V47.2184C23.5846 47.1927 23.5846 47.167 23.6107 47.1413C23.6107 47.0898 23.6367 47.0641 23.6367 47.0126C23.6628 46.8326 23.715 46.6525 23.741 46.4725C23.7671 46.3181 23.7932 46.1638 23.8193 46.0352V45.9837C23.8193 45.958 23.8193 45.9323 23.8453 45.9323V45.8808C23.8453 45.8551 23.8714 45.8036 23.8714 45.7779C23.8714 45.7522 23.8714 45.7265 23.8975 45.7007C23.8975 45.6493 23.9236 45.5979 23.9236 45.5721C23.9236 45.5464 23.9497 45.495 23.9497 45.4692C23.9497 45.4178 23.9757 45.3663 23.9757 45.3406C23.9757 45.3149 23.9757 45.2892 24.0018 45.2635C24.0018 45.2377 24.0018 45.212 24.0279 45.212C24.0279 45.1606 24.054 45.1348 24.054 45.1091V45.0319L24.1843 45.1091ZM55.7896 55.8615C56.1547 55.7329 56.4676 55.63 56.7284 55.5271C57.2239 55.3213 57.4846 55.167 57.4846 55.1155C57.4586 55.0641 57.1717 55.0898 56.6502 55.2184C56.3894 55.2699 56.0765 55.3213 55.6853 55.4242C55.5028 55.4757 55.2942 55.5014 55.0856 55.5271C54.8769 55.5528 54.6423 55.6043 54.4076 55.63C53.9382 55.7072 53.4166 55.7586 52.8429 55.8101L51.9824 55.8872C51.6955 55.913 51.3826 55.913 51.0697 55.9387C49.818 55.9644 48.4359 55.913 47.0278 55.6557C46.2976 55.5271 45.2806 55.1927 44.5765 54.8069L44.5505 54.7811C44.9677 53.3149 46.5323 53.1091 46.5323 53.1091L46.4802 53.0834H46.4019C46.1672 53.0577 45.9847 53.0319 45.8022 53.0062C45.6718 52.9805 45.5675 52.9805 45.4892 52.9548C45.411 52.9548 45.3328 52.929 45.3067 52.929C44.3679 52.8776 43.8464 53.6493 43.6899 53.9837L43.6117 54.1381C43.4813 54.4467 43.377 54.7811 43.3509 55.167C43.2988 55.8615 43.4813 56.6075 44.0289 57.2506C44.394 57.6879 45.0198 58.0737 45.8282 58.3824C45.1242 57.9451 44.4983 57.0963 44.4722 55.7844C45.2806 56.1188 46.1933 56.3245 46.8974 56.4532C48.3838 56.7361 49.8441 56.7618 51.1219 56.6847C51.4348 56.659 51.7738 56.6332 52.0606 56.6075C52.3736 56.5561 52.6604 56.5303 52.9472 56.5046C53.5209 56.4017 54.0164 56.3245 54.5119 56.2217C54.7466 56.1702 54.9813 56.1188 55.1899 56.0416C55.4246 55.9901 55.6071 55.9387 55.7896 55.8615Z" fill="#F2D2AC"/>
<path d="M54.5642 38.6787C55.3465 38.7044 55.868 38.9359 56.2331 39.2961C56.3113 38.9617 56.3635 38.5501 56.3374 38.0871C56.3113 37.5983 56.207 37.161 56.0505 36.8266C55.9984 36.6208 55.6855 36.0806 55.2943 36.1064C54.7988 36.1321 54.4338 37.0838 54.512 38.2157C54.512 38.37 54.5381 38.5244 54.5642 38.6787ZM55.868 41.5855C55.868 41.7913 55.9462 41.9713 56.0505 42.0485C56.2331 42.1514 56.4678 41.9456 56.5721 41.6112C56.5721 41.5855 56.5982 41.5597 56.5982 41.534C56.6764 41.2253 56.5982 40.9167 56.4156 40.8395C56.2331 40.7366 55.9984 40.9424 55.8941 41.2768C55.8941 41.3797 55.868 41.4826 55.868 41.5855ZM52.3215 42.1514C52.3998 42.28 52.5301 42.4086 52.6866 42.5115C53.0256 42.7173 53.3907 42.743 53.5993 42.563L53.6775 42.4858C53.7558 42.3314 53.7297 42.1257 53.5993 41.9199C53.5211 41.7913 53.3907 41.6626 53.2342 41.5855C52.8952 41.3797 52.5302 41.354 52.3476 41.5083C52.3215 41.534 52.2955 41.5597 52.2694 41.6112C52.1912 41.7398 52.2172 41.9456 52.3215 42.1514ZM65.2818 46.8588C65.2557 46.8588 65.2557 46.8588 65.2818 46.8588V46.8588ZM64.8645 53.9842C64.3691 54.4472 63.8215 54.8845 63.1956 55.2961C60.5097 57.0967 56.7546 58.5115 54.0948 58.8459C52.0868 59.1546 50.1311 59.2061 48.4361 59.0003C47.4451 58.8717 46.5846 58.6659 45.8284 58.3829C45.02 58.0742 44.3941 57.6884 44.0291 57.2511C43.4814 56.608 43.325 55.8363 43.3511 55.1675C43.3771 54.8074 43.4554 54.4472 43.6118 54.1385L43.6901 53.9842C43.8726 53.6498 44.3681 52.8524 45.3068 52.9295C45.3329 52.9295 45.4111 52.9295 45.4894 52.9553C45.5676 52.9553 45.698 52.981 45.8023 53.0067C45.9848 53.0324 46.1674 53.0582 46.4021 53.0839H46.4803C49.0619 53.3926 51.5392 53.3668 53.8862 53.0067C57.3022 52.4922 60.4575 51.2832 63.2739 49.4054C63.4303 49.3025 63.5607 49.1996 63.7172 49.0967L65.2557 46.8331C60.5879 51.026 55.4508 52.235 51.5392 52.4665C49.4009 52.5951 47.6277 52.4408 46.5064 52.2864C46.4542 52.2864 46.4281 52.2864 46.4021 52.2607C46.0631 52.2093 45.8023 52.1836 45.5937 52.1578C45.4894 52.1578 45.4111 52.1321 45.359 52.1321C45.0721 52.1064 44.7853 52.1578 44.5245 52.235C44.003 52.3893 43.5336 52.7495 43.1946 53.2125C42.7774 53.7784 42.5166 54.5501 42.5166 55.3218C42.5166 55.9649 42.6731 56.6337 43.0121 57.2511C43.0381 57.2768 43.0381 57.3025 43.0642 57.3283C43.1164 57.4054 43.1424 57.4569 43.1946 57.534C43.2468 57.6112 43.325 57.7141 43.4032 57.7913C44.2116 58.7945 45.9848 59.5148 48.3318 59.8234C49.9225 60.0292 51.7739 60.0035 53.7818 59.7205C59.7274 58.6659 62.5437 56.7623 63.8475 55.4504C63.9519 55.3475 64.0301 55.2704 64.1083 55.1675C64.5777 54.6273 64.7863 54.2157 64.8645 54.0614V54.0356C64.8906 53.9842 64.8906 53.9585 64.8906 53.9585L64.8645 53.9842Z" fill="#664F44"/>
<path d="M45.9588 33.6627C45.7762 33.5598 45.5676 33.4826 45.359 33.4312C45.2286 33.4055 45.0982 33.3797 44.9418 33.354C44.8896 33.354 44.8375 33.354 44.7853 33.3283C44.0812 33.2768 43.4815 33.3797 43.4815 33.3797C43.3511 33.4055 43.2207 33.4312 43.1164 33.4826C42.1776 33.7656 41.5257 34.2543 41.0563 34.8203C40.6912 35.2833 40.4305 35.772 40.3001 36.2608C40.274 36.3122 40.274 36.3379 40.274 36.3894C40.2479 36.518 40.1958 36.6466 40.1697 36.7495C40.0915 37.1611 40.0393 37.5212 40.0393 37.8299C40.0393 38.2415 40.0654 38.4987 40.0654 38.4987C40.2218 38.1386 40.4044 37.8299 40.5869 37.5212C41.0302 36.7752 41.4996 36.1579 41.9951 35.6691C42.9339 34.7174 43.8987 34.2029 44.6289 33.9457C45.4112 33.6884 45.9588 33.6627 45.9588 33.6627ZM57.2501 32.3508L57.224 32.2993C57.1197 32.1707 56.9893 32.0421 56.8329 31.9392C56.4678 31.7077 55.9723 31.5791 55.2943 31.7077C55.2943 31.7077 54.486 31.8878 54.0166 32.428C54.0166 32.428 55.4247 31.8363 56.9372 32.891C57.0676 32.9939 57.224 33.0968 57.3544 33.2254C57.4848 33.354 57.6413 33.4826 57.7716 33.6627C57.7716 33.6627 57.7195 33.0196 57.3283 32.4537C57.3023 32.4022 57.2762 32.3765 57.2501 32.3508Z" fill="#E9B784"/>
<path d="M46.1411 42.5882C46.6888 42.4339 47.2625 42.2795 47.9144 42.1252C48.0187 41.6364 48.0448 41.0448 47.9665 40.4017C47.784 38.9097 47.106 37.7522 46.428 37.8293C45.75 37.9065 45.3588 39.1927 45.5414 40.6846C45.6457 41.4564 45.8543 42.1252 46.1411 42.5882Z" fill="#664F44"/>
<path d="M43.0378 8.96777L41.6296 9.27646L41.9165 11.7974L38.1875 9.91954L36.6489 10.3826L36.675 10.4083L41.2124 15.5016L41.2645 15.4758L41.3167 15.4501C41.4471 15.3729 41.6036 15.27 41.7339 15.1929C41.7861 15.1671 41.8382 15.1414 41.8904 15.09C42.099 14.9614 42.3076 14.8327 42.5162 14.7298L40.5865 12.5433L43.6897 14.0353C43.794 13.9839 43.8722 13.9324 43.9766 13.881L43.6897 11.6945L45.0979 13.3151H45.1239C45.2543 13.2636 45.3586 13.1864 45.489 13.135L45.5412 13.1093L45.5933 13.0835C45.6194 13.0835 45.6455 13.0578 45.6455 13.0578L45.8019 12.9806C45.8019 12.9806 45.828 12.9806 45.828 12.9549C45.9845 12.8778 46.167 12.8006 46.3235 12.7234L43.0378 8.96777Z" fill="#FFD250"/>
<path d="M41.6563 9.35389V9.27672V9.35389ZM41.6563 9.27672L41.8649 9.22527C41.5259 9.07093 41.1087 8.96803 40.6393 8.89086C39.7006 8.76225 38.501 8.89086 37.145 9.22527C35.789 9.55968 34.2505 10.1513 32.6337 10.9487C29.3741 12.5436 25.7754 14.9873 22.2811 18.1256C21.0555 19.206 19.9342 20.3378 18.8911 21.4439L23.1156 26.5886C24.263 25.3539 25.4886 24.1192 26.8446 22.9102C28.6439 21.2896 30.4693 19.8491 32.2686 18.6144C34.0158 17.4053 35.7629 16.3764 37.4058 15.5533L36.6756 12.2606L36.7017 10.4086L36.6756 10.3828L38.2142 9.9198L41.213 11.4375L41.1348 10.4086L41.6563 9.27672Z" fill="#4D9ED7"/>
<path d="M41.6568 9.27637L41.1353 10.4082L41.2135 11.4629L41.9437 11.823L41.6568 9.27637ZM40.5876 12.5433L43.7169 14.0609L42.5174 14.7298L40.5876 12.5433ZM43.7169 11.6944L44.0037 13.8809L45.1251 13.315L43.7169 11.6944Z" fill="#132134"/>
<path d="M55.5027 10.8972H56.0764C56.5979 10.8972 57.0934 10.9744 57.5628 11.0773C57.5888 11.0773 57.6149 11.0773 57.641 11.103H57.6671L57.7192 11.1288H57.7714C57.7192 11.103 57.6671 11.0516 57.6149 11.0259C57.0934 10.8201 56.5458 10.6915 55.9721 10.6143C53.1558 10.2542 49.9222 11.2831 48.0968 12.0034C47.9925 12.0548 47.8882 12.0805 47.7839 12.132C47.6274 12.2091 47.471 12.2606 47.3145 12.3378C47.0538 12.4407 46.793 12.5693 46.5061 12.6979C46.454 12.7236 46.4279 12.7236 46.3758 12.7493C46.2193 12.8265 46.0368 12.9037 45.8803 12.9809C45.8803 12.9809 45.8542 12.9809 45.8542 13.0066L45.6978 13.0837C45.6717 13.0837 45.6456 13.1095 45.6456 13.1095H45.5413L45.5152 13.1352C45.3848 13.1866 45.2805 13.2381 45.1501 13.3153H45.1241C45.098 13.341 45.0719 13.341 45.0458 13.3667H45.0198C44.9937 13.3667 44.9676 13.3924 44.9676 13.3924C44.7851 13.4953 44.6025 13.5725 44.42 13.6754C44.2896 13.7526 44.1592 13.804 44.0288 13.8812H44.0028C43.8984 13.9326 43.8202 13.9841 43.7159 14.0355C43.403 14.1899 43.1161 14.3699 42.8032 14.55C42.7771 14.5757 42.7511 14.5757 42.6989 14.6014C42.6728 14.6272 42.6467 14.6272 42.6207 14.6529C42.5946 14.6786 42.5685 14.6786 42.5424 14.7043L42.5164 14.7301C42.3077 14.8587 42.0991 14.9616 41.8905 15.0902C41.8384 15.1159 41.7862 15.1416 41.7341 15.1931C41.6037 15.2702 41.4472 15.3731 41.3168 15.4503L41.2647 15.476L41.2125 15.5018L40.0391 16.2735C39.3871 16.7108 38.7613 17.1481 38.1354 17.6111C38.0572 17.6625 37.979 17.7397 37.9007 17.7912C36.2579 19.0002 34.6933 20.3121 33.1808 21.6497C31.5901 23.0902 30.0516 24.5564 28.6173 26.0484C27.835 26.8201 27.157 27.5146 26.6355 28.0806C25.5403 29.2381 24.9405 29.9584 24.9666 29.9841C24.9666 29.9841 25.0709 29.9069 25.2534 29.7269C25.123 29.8812 24.9666 30.0613 24.8362 30.2156C27.2353 27.6947 29.869 25.1224 32.7114 22.7043C34.4325 21.2381 36.2318 19.8233 38.0833 18.5114C38.8917 17.9455 39.7261 17.3796 40.5606 16.8394C40.8214 16.6593 41.1082 16.505 41.369 16.3249C41.4994 16.2477 41.6297 16.1706 41.7862 16.0934C41.8644 16.042 41.9427 15.9905 42.0209 15.9648C42.1774 15.8876 42.3077 15.7847 42.4642 15.7075C42.5946 15.6304 42.7511 15.5532 42.8814 15.4503C42.9597 15.3989 43.0379 15.3731 43.1161 15.3217L43.6637 15.013C43.7681 14.9616 43.8724 14.8844 43.9767 14.8329C44.3157 14.6529 44.6547 14.4728 45.0198 14.2928C45.0458 14.267 45.0719 14.267 45.098 14.2413L45.2544 14.1641C45.3327 14.1384 45.3848 14.087 45.4631 14.0612C45.4891 14.0355 45.5152 14.0355 45.5413 14.0098L45.6978 13.9326C45.6978 13.9326 45.7238 13.9326 45.7238 13.9069H45.7499C45.9064 13.8297 46.0628 13.7526 46.1932 13.7011C46.2193 13.7011 46.2454 13.6754 46.2714 13.6497L46.4279 13.5725C46.6104 13.4953 46.7669 13.4182 46.9494 13.341C47.0016 13.3153 47.0538 13.2895 47.0798 13.2638C47.1059 13.2638 47.132 13.2381 47.1581 13.2381C47.2102 13.2124 47.2624 13.1866 47.3145 13.1866C47.5231 13.1095 47.7057 13.0066 47.9143 12.9294C48.0968 12.8522 48.2533 12.7751 48.4358 12.6979C49.4268 12.2863 50.3395 11.9519 51.2 11.669C52.8168 11.2317 54.251 10.9487 55.5027 10.8972Z" fill="white"/>
</g>
<defs>
<clipPath id="clip0_1_47">
<rect width="58.4403" height="65.1834" fill="white" transform="translate(9.55469 7.19287)"/>
</clipPath>
</defs>
</svg>
