<svg width="69" height="49" viewBox="0 0 69 49" fill="none" xmlns="http://www.w3.org/2000/svg">
<path d="M57.265 45.0187C56.4518 46.55 55.5878 47.5708 54.673 48.0812C53.6566 48.6937 52.1828 49 50.2515 49L42.0183 49C39.4772 49 38.2067 48.2344 38.2067 46.7031C38.2067 46.0906 38.5116 45.2229 39.1215 44.1L47.5071 29.0937C44.5594 28.4812 42.0692 26.899 40.0363 24.3469C38.0034 21.8969 36.9869 18.8344 36.9869 15.1594C36.9869 12.199 37.6985 9.54479 39.1215 7.19688C40.4429 4.95104 42.3233 3.16458 44.7627 1.8375C47.1006 0.612501 49.7941 -1.6528e-06 52.8435 -1.38622e-06C57.6207 -9.68576e-07 61.4832 1.37813 64.4309 4.13438C67.2769 6.99271 68.7 10.8208 68.7 15.6188C68.7 18.6813 68.1917 21.6927 67.1753 24.6531C66.1588 27.6135 64.5834 31.1354 62.4488 35.2187L57.265 45.0187ZM20.978 45.0187C20.1648 46.55 19.3008 47.5708 18.386 48.0812C17.3696 48.6937 15.9466 49 14.117 49L5.73134 49C3.19023 49 1.91968 48.2344 1.91968 46.7031C1.91968 46.0906 2.22461 45.2229 2.83448 44.1L11.2201 29.0937C8.27244 28.4812 5.78216 26.899 3.74928 24.3469C1.71639 21.8969 0.699954 18.8344 0.699954 15.1594C0.699954 12.199 1.41146 9.54479 2.83448 7.19687C4.15586 4.95104 6.03627 3.16458 8.47574 1.8375C10.8136 0.612498 13.5071 -4.82511e-06 16.5565 -4.55853e-06C21.4354 -4.132e-06 25.3487 1.37812 28.2964 4.13437C31.1424 6.99271 32.5654 10.8208 32.5654 15.6187C32.5654 18.6813 32.0572 21.6927 31.0408 24.6531C30.0243 27.6135 28.4488 31.1354 26.3143 35.2187L20.978 45.0187Z" fill="#52BD94" fill-opacity="0.5"/>
</svg>
