<svg width="163" height="146" viewBox="0 0 163 146" fill="none" xmlns="http://www.w3.org/2000/svg">
<path d="M82.0561 73.7857H68.1658C66.4989 73.7857 65.3877 72.6745 65.3877 71.0076C65.3877 69.3408 66.4989 68.2296 68.1658 68.2296H82.0561C88.1679 68.2296 93.1684 63.2291 93.1684 57.1173V50.4499C93.1684 48.7831 94.2796 47.6719 95.9464 47.6719C97.6133 47.6719 98.7245 48.7831 98.7245 50.4499V57.1173C98.7245 66.0071 91.5015 73.7857 82.0561 73.7857Z" fill="#004463"/>
<path d="M33.716 57.114H24.8262C21.4925 57.114 19.27 54.8915 19.27 51.5578V48.7798C19.27 45.4461 21.4925 43.2236 24.8262 43.2236H33.1604V57.114H33.716Z" fill="#607D95"/>
<path d="M20.3823 54.3359H23.716C25.3828 54.3359 26.4941 53.2247 26.4941 51.5578V43.2236H29.2721V57.114H24.8272C23.1604 57.114 21.4936 56.0027 20.3823 54.3359Z" fill="#4B6C85"/>
<path d="M84.8345 57.114H93.1687C96.5024 57.114 98.7248 54.8915 98.7248 51.5578V48.7798C98.7248 45.4461 96.5024 43.2236 93.1687 43.2236H84.8345V57.114Z" fill="#607D95"/>
<path d="M98.1677 54.3359H94.834C93.1671 54.3359 92.0559 53.2247 92.0559 51.5578V43.2236H89.2778V57.114H93.7227C95.3896 57.114 97.0564 56.0027 98.1677 54.3359Z" fill="#4B6C85"/>
<path d="M43.1627 94.3427L17.0488 103.233C7.6034 106.566 0.936035 115.456 0.936035 125.457V145.459H117.615V124.901C117.615 114.9 110.948 106.011 101.502 102.677L75.3882 93.7871H43.1627V94.3427Z" fill="#D5E5F2"/>
<path d="M56.4974 93.7841H43.1627L17.0488 102.674C8.71462 105.452 0.936035 114.897 0.936035 124.898V145.456H10.3815V124.898C10.3815 118.231 15.382 112.119 21.4937 110.453L32.0504 106.563C36.4953 104.896 40.9402 106.008 44.2739 108.23C45.3851 108.786 47.6076 109.897 48.1632 110.453C50.9413 112.119 54.8305 112.119 57.6086 110.453C62.6091 107.674 69.2765 102.674 69.2765 96.5622L67.6097 93.2285H56.4974V93.7841ZM117.615 145.456V124.898C117.615 120.454 116.504 116.564 114.281 113.231C100.391 114.897 89.8342 126.565 89.8342 141.011V145.456H117.615Z" fill="#B0C4DA"/>
<path d="M0.936035 145.459V124.901C0.936035 120.456 2.04726 116.567 4.26972 113.233C18.1601 114.9 28.7167 126.568 28.7167 141.014V145.459H0.936035Z" fill="#B0C4DA"/>
<path d="M10.382 124.901C10.382 121.568 11.4932 118.234 13.7157 116.011C10.9376 114.345 7.60394 113.789 4.82587 113.233C2.60341 116.567 1.49219 121.012 1.49219 124.901V145.459H10.9376L10.382 124.901Z" fill="#99B5CE"/>
<path d="M42.6069 75.4531V93.7884C42.6069 102.678 58.7197 109.901 58.7197 109.901C58.7197 109.901 74.8325 102.678 74.8325 93.7884V75.4531H42.6069Z" fill="#F0C9AE"/>
<path d="M42.6069 84.8957C47.0518 87.6737 53.1636 89.8962 58.7197 89.8962C64.8315 89.8962 70.3876 88.2294 74.8325 84.8957V76.0059H42.6069V84.8957Z" fill="#E2B698"/>
<path d="M52.0524 94.3427V82.6748H42.6069V94.3427C42.6069 103.232 58.7197 110.455 58.7197 110.455L63.1646 108.233C58.7197 104.899 52.0524 99.8988 52.0524 94.3427Z" fill="#E2B698"/>
<path d="M89.2776 24.335V54.3381C89.2776 71.0065 75.9429 84.8968 58.7189 84.8968C42.0505 84.8968 28.1602 71.5621 28.1602 54.3381V24.335" fill="#F0C9AE"/>
<path d="M38.1622 56.0023V50.4462C38.1622 46.5569 41.4959 43.2232 45.3852 43.7788C57.0531 46.0012 69.2766 43.2232 78.722 36.0002C80.3889 34.889 82.6113 36.0002 82.6113 37.667V28.7772C82.6113 27.1104 80.3889 25.9992 78.722 27.1104C69.2766 34.3334 57.0531 37.1114 45.3852 34.889L40.3847 33.7778C39.8291 33.7778 38.7178 33.7778 38.1622 34.3334L36.4954 35.4446V36.5558C36.4954 36.5558 35.9398 37.667 35.9398 38.2227C35.9398 41.0007 33.7173 42.6676 31.4949 42.6676H28.7168V54.3355C28.7168 64.8921 34.2729 74.3375 42.6071 79.8937C39.8291 72.6707 38.1622 64.3365 38.1622 56.0023Z" fill="#E2B698"/>
<path d="M28.7181 43.2254H31.4962C34.2743 43.2254 35.9411 41.0029 35.9411 38.7805C35.9411 36.0024 38.1636 34.3356 40.386 34.3356L45.3866 35.4468C57.0544 37.6692 69.2779 34.8912 78.7234 27.6682C80.3902 26.557 82.6127 27.6682 82.6127 29.335V38.7805C82.6127 41.5585 84.8351 43.2254 87.0576 43.2254H89.28L93.7249 28.2238C95.3918 21.5565 89.8356 14.8891 83.1683 14.8891V14.3335C83.1683 5.99928 75.9453 -0.112472 67.6111 0.998755L35.3855 6.55489C28.1625 7.66612 23.162 14.8891 24.2732 22.6677L28.7181 43.2254Z" fill="#8A6845"/>
<path d="M33.7187 22.667C32.6074 14.8884 37.608 7.66541 44.8309 6.55418L73.7228 1.55366C72.056 0.998046 69.8336 0.998047 67.6111 0.998047L35.3855 6.55418C28.1625 7.66541 23.162 14.8884 24.2732 22.667L28.7181 43.2247H31.4962C34.2743 43.2247 35.9411 41.0022 35.9411 38.7798C35.9411 37.6685 36.4967 37.1129 36.4967 36.5573L33.7187 22.667ZM92.0581 28.7787C92.0581 27.1119 89.8356 26.0007 88.1688 27.1119C86.502 28.2231 84.2795 29.3343 82.6127 30.4456V38.2242C82.6127 41.0022 84.8351 42.6691 87.0576 42.6691H89.28L91.5025 34.8905V28.7787H92.0581Z" fill="#745539"/>
<path d="M156.508 17.667H117.615C114.281 17.667 112.059 19.8894 112.059 23.2231V45.4477C112.059 48.7814 114.281 51.0038 117.615 51.0038H123.171V62.1161L139.839 51.0038H156.508C159.841 51.0038 162.064 48.7814 162.064 45.4477V23.2231C162.064 19.8894 159.841 17.667 156.508 17.667Z" fill="#EEF2FA"/>
<path d="M150.952 42.6696H128.727C125.393 42.6696 123.171 40.4471 123.171 37.1135V17.667H117.615C114.281 17.667 112.059 19.8894 112.059 23.2231V45.4477C112.059 48.7814 114.281 51.0038 117.615 51.0038H123.171V62.1161L139.839 51.0038H156.508C159.841 51.0038 162.064 48.7814 162.064 45.4477V42.6696H150.952Z" fill="#D5E5F2"/>
<path d="M150.395 31.5571H122.614C120.948 31.5571 119.836 30.4459 119.836 28.779C119.836 27.1122 120.948 26.001 122.614 26.001H150.395C152.062 26.001 153.173 27.1122 153.173 28.779C153.173 30.4459 152.062 31.5571 150.395 31.5571ZM139.283 42.6694H122.614C120.948 42.6694 119.836 41.5582 119.836 39.8913C119.836 38.2245 120.948 37.1132 122.614 37.1132H139.283C140.95 37.1132 142.061 38.2245 142.061 39.8913C142.061 41.5582 140.95 42.6694 139.283 42.6694Z" fill="#99B5CE"/>
<path d="M92.0571 62.1152C90.3903 65.4489 86.501 68.227 82.0561 68.227H68.1658C66.4989 68.227 65.3877 69.3382 65.3877 71.0051C65.3877 72.6719 66.4989 73.7831 68.1658 73.7831H82.0561C89.2791 73.7831 95.9464 68.7826 98.1689 62.1152H92.0571Z" fill="#004463"/>
</svg>
