<svg width="259" height="260" viewBox="0 0 259 260" fill="none" xmlns="http://www.w3.org/2000/svg">
<path d="M129.835 259.314C201.065 259.314 258.809 255.943 258.809 251.784C258.809 247.625 201.065 244.254 129.835 244.254C58.6038 244.254 0.859863 247.625 0.859863 251.784C0.859863 255.943 58.6038 259.314 129.835 259.314Z" fill="#F5F5F5"/>
<path d="M101.457 80.7819C93.0093 77.8218 96.3885 54.0278 76.0668 66.8129C71.4637 69.7131 65.876 88.7643 69.7341 93.1546C75.1289 99.3342 111.429 84.2742 101.457 80.7819Z" fill="#263238"/>
<path d="M77.67 103.372C77.5037 103.692 77.3973 103.858 77.2643 104.084L76.8784 104.709C76.619 105.109 76.3396 105.494 76.0603 105.88C75.4891 106.641 74.8785 107.372 74.231 108.069C72.9029 109.483 71.393 110.716 69.7409 111.734C68.028 112.794 66.1406 113.542 64.1666 113.942C63.1724 114.143 62.1609 114.246 61.1466 114.248C60.641 114.248 60.1421 114.248 59.6366 114.195L58.8982 114.109L58.5257 114.062L58.0069 113.969C56.759 113.66 55.6129 113.032 54.6809 112.146C53.9226 111.433 53.2527 110.631 52.6853 109.758C51.6872 108.201 50.862 106.539 50.2241 104.803C48.9984 101.517 48.1308 98.1096 47.6365 94.6383L50.4968 93.9731C51.5477 97.0526 52.801 100.059 54.2485 102.973C54.9283 104.336 55.7369 105.63 56.6632 106.838C57.0502 107.344 57.4969 107.802 57.9936 108.202C58.297 108.463 58.6642 108.64 59.0579 108.714L59.9359 108.76C60.2752 108.76 60.6011 108.76 60.947 108.721C61.6202 108.672 62.288 108.565 62.9426 108.401C64.2558 108.05 65.5043 107.49 66.6411 106.745C67.8324 105.959 68.9169 105.022 69.8673 103.958C70.3692 103.427 70.8401 102.867 71.2775 102.281C71.497 101.989 71.7099 101.689 71.9094 101.39L72.2021 100.944L72.4349 100.565L77.67 103.372Z" fill="#FF8B7B"/>
<path d="M79.2799 96.4605C73.2931 96.4605 68.5769 101.995 68.5769 101.995L75.894 111.84C75.894 111.84 81.7943 106.292 82.4263 103.152C83.0515 99.8796 82.8719 96.4406 79.2799 96.4605Z" fill="#263238"/>
<path d="M50.2108 95.4161L52.8183 91.0923L46.7717 91.2453C46.7717 91.2453 46.2928 94.099 47.8892 95.9016L50.2108 95.4161Z" fill="#FF8B7B"/>
<path d="M52.5789 86.0303L48.1088 86.9815L46.7717 91.2454L52.8184 91.0924L52.5789 86.0303Z" fill="#FF8B7B"/>
<path d="M109.28 245.638L103.566 246.183L100.653 232.866L106.367 232.32L109.28 245.638Z" fill="#FF8B7B"/>
<path d="M161.152 228.396L156.821 232.247L146.518 223.46L150.841 219.608L161.152 228.396Z" fill="#FF8B7B"/>
<path d="M155.258 231.509L157.773 225.522C157.814 225.418 157.893 225.332 157.994 225.282C158.094 225.232 158.21 225.22 158.318 225.249L163.354 226.546C163.479 226.585 163.595 226.649 163.694 226.734C163.793 226.82 163.872 226.925 163.928 227.044C163.984 227.162 164.014 227.291 164.017 227.422C164.02 227.553 163.996 227.683 163.946 227.804C163.034 229.879 162.489 230.837 161.385 233.478C160.719 235.101 159.442 238.799 158.504 241.041C157.566 243.283 155.298 242.471 155.484 241.453C156.336 236.89 155.81 234.462 155.218 232.553C155.108 232.211 155.122 231.841 155.258 231.509Z" fill="#263238"/>
<path d="M102.848 244.453H109.719C109.843 244.454 109.963 244.496 110.062 244.572C110.16 244.647 110.231 244.753 110.265 244.872L111.755 250.307C111.792 250.436 111.799 250.571 111.774 250.703C111.75 250.835 111.694 250.959 111.613 251.065C111.531 251.172 111.425 251.257 111.304 251.315C111.183 251.373 111.05 251.401 110.916 251.398C108.515 251.358 107.344 251.218 104.324 251.218C102.462 251.218 97.6724 251.411 95.0914 251.411C92.5105 251.411 92.0515 248.87 93.0958 248.637C97.7522 247.613 100.413 246.189 101.876 244.832C102.139 244.586 102.487 244.45 102.848 244.453Z" fill="#263238"/>
<path opacity="0.2" d="M100.653 232.872L102.156 239.737H107.99L106.373 232.327L100.653 232.872Z" fill="black"/>
<path opacity="0.2" d="M150.848 219.608L146.518 223.46L151.832 227.99L156.163 224.138L150.848 219.608Z" fill="black"/>
<path d="M73.692 98.0641C73.692 98.0641 71.2907 99.7404 85.7321 131.005L108.395 124.692C105.448 115.579 103.852 109.891 102.987 89.7358C99.6313 89.9618 96.2964 90.4331 93.0093 91.146C89.5146 91.8531 86.0755 92.8112 82.7187 94.013C78.4149 95.6428 73.692 98.0641 73.692 98.0641Z" fill="#263238"/>
<path d="M88.7657 79.8438C89.0385 83.336 90.0961 89.5822 93.0163 91.1521C93.2034 93.7173 92.8832 96.2942 92.074 98.7356C91.2647 101.177 89.9824 103.435 88.3001 105.381C80.4375 101.296 82.7258 94.0191 82.7258 94.0191C86.1715 92.11 85.3134 89.396 83.9497 87.0013L88.7657 79.8438Z" fill="#FF8B7B"/>
<path opacity="0.2" d="M89.9762 86.4827L86.0249 85.1523C86.0821 85.9311 86.2804 86.6929 86.6103 87.4007C87.2755 88.6978 89.4773 89.1834 91.0471 89.0238C90.5976 88.2188 90.2384 87.3666 89.9762 86.4827Z" fill="black"/>
<path d="M77.2844 76.1918C78.8143 81.7329 79.3398 84.1077 82.7789 86.3959C87.9607 89.8283 94.4331 86.7418 94.5927 80.8549C94.7391 75.5333 92.218 67.3847 86.2512 66.307C84.9363 66.0629 83.5808 66.1591 82.3136 66.5865C81.0464 67.0138 79.9095 67.7581 79.0109 68.7486C78.1124 69.7392 77.4821 70.943 77.1799 72.2457C76.8777 73.5485 76.9137 74.9069 77.2844 76.1918Z" fill="#FF8B7B"/>
<path d="M85.566 65.4028C85.1137 69.1678 82.3065 82.1125 77.0116 82.0327C72.6413 78.2211 74.7965 71.0436 76.1535 68.1234C77.5105 65.2032 85.566 65.4028 85.566 65.4028Z" fill="#263238"/>
<path d="M83.3375 68.0705C85.9983 69.4874 91.2334 70.106 90.4019 67.9441C89.5704 65.7822 89.8098 63.953 86.2045 64.0328C82.5991 64.1126 83.3375 68.0705 83.3375 68.0705Z" fill="#263238"/>
<path d="M77.4971 81.4404C77.6674 81.964 77.9396 82.4487 78.2981 82.8665C78.6566 83.2844 79.0942 83.6271 79.5859 83.875C80.9162 84.5402 81.8409 83.4227 81.7078 82.0324C81.5881 80.7818 80.7566 78.9326 79.3198 78.8528C79.0057 78.8415 78.6938 78.9088 78.4122 79.0485C78.1307 79.1882 77.8885 79.3959 77.7075 79.6528C77.5265 79.9098 77.4125 80.2078 77.3757 80.5199C77.339 80.8321 77.3807 81.1485 77.4971 81.4404Z" fill="#FF8B7B"/>
<path d="M85.7322 131.004C85.7322 131.004 84.4018 176.783 88.0936 194.065C91.9052 212.025 99.3554 237.742 99.3554 237.742L110.211 237.216C110.211 237.216 104.956 204.622 103.679 190.719C101.923 171.561 102.349 126.381 102.349 126.381L85.7322 131.004Z" fill="#21A6DF"/>
<path opacity="0.4" d="M85.7322 131.004C85.7322 131.004 84.4018 176.783 88.0936 194.065C91.9052 212.025 99.3554 237.742 99.3554 237.742L110.211 237.216C110.211 237.216 104.956 204.622 103.679 190.719C101.923 171.561 102.349 126.381 102.349 126.381L85.7322 131.004Z" fill="#FAFAFA"/>
<path opacity="0.2" d="M102.295 143.603C100.606 139.366 99.1224 137.031 98.9695 141.255C98.5836 150.189 100.14 160.4 102.575 165.462C102.389 157.892 102.329 150.162 102.295 143.603Z" fill="black"/>
<path d="M110.97 237.741L98.5903 238.333L97.1335 233.81L110.544 232.766L110.97 237.741Z" fill="#263238"/>
<path d="M91.719 129.335C91.719 129.335 105.615 166.732 115.001 187.379C122.564 204.063 149.378 227.364 149.378 227.364L155.471 222.216C155.471 222.216 136.087 195.648 130.859 184.3C114.109 148.093 118.48 132.754 108.409 124.658L91.719 129.335Z" fill="#21A6DF"/>
<path opacity="0.4" d="M91.719 129.335C91.719 129.335 105.615 166.732 115.001 187.379C122.564 204.063 149.378 227.364 149.378 227.364L155.471 222.216C155.471 222.216 136.087 195.648 130.859 184.3C114.109 148.093 118.48 132.754 108.409 124.658L91.719 129.335Z" fill="#FAFAFA"/>
<path d="M155.963 222.156L149.152 228.17L145.686 225.662L153.715 218.817L155.963 222.156Z" fill="#263238"/>
<path d="M108.362 123.241L109.952 124.984C110.072 125.124 109.952 125.337 109.666 125.403L85.9053 132.055C85.6991 132.115 85.4995 132.055 85.453 131.936L84.6814 129.94C84.6281 129.8 84.7745 129.634 85.0007 129.567L107.943 123.182C108.012 123.155 108.087 123.146 108.161 123.157C108.234 123.167 108.303 123.196 108.362 123.241Z" fill="#21A6DF"/>
<path d="M105.994 126.694L106.613 126.521C106.732 126.487 106.805 126.401 106.779 126.321L105.754 123.767C105.754 123.694 105.601 123.66 105.482 123.694L104.863 123.867C104.743 123.9 104.664 123.986 104.697 124.066L105.721 126.62C105.748 126.694 105.887 126.727 105.994 126.694Z" fill="#263238"/>
<path d="M87.6878 131.789L88.3065 131.616C88.4262 131.583 88.506 131.497 88.4728 131.417L87.4484 128.862C87.4484 128.789 87.2954 128.756 87.1756 128.789L86.557 128.962C86.4373 128.996 86.3641 129.082 86.3907 129.162L87.4151 131.716C87.4417 131.789 87.5681 131.823 87.6878 131.789Z" fill="#263238"/>
<path d="M96.8411 129.228L97.4598 129.055C97.5795 129.055 97.6527 128.935 97.6261 128.856L96.5751 126.315C96.5751 126.241 96.4221 126.208 96.3023 126.241L95.6837 126.414C95.564 126.414 95.4908 126.534 95.5174 126.614L96.5418 129.168C96.5751 129.228 96.7214 129.275 96.8411 129.228Z" fill="#263238"/>
<path d="M86.1513 75.9658C86.2444 76.4248 86.5704 76.7441 86.8631 76.6776C87.1558 76.6111 87.3287 76.192 87.2356 75.7397C87.1425 75.2873 86.8165 74.9614 86.5172 75.0213C86.2178 75.0811 86.0515 75.5068 86.1513 75.9658Z" fill="#263238"/>
<path d="M91.3198 74.8754C91.4129 75.3344 91.7322 75.6537 92.0315 75.5938C92.3309 75.5339 92.4972 75.1082 92.3974 74.6492C92.2976 74.1902 91.985 73.871 91.6856 73.9375C91.3863 74.004 91.2532 74.4231 91.3198 74.8754Z" fill="#263238"/>
<path d="M91.5593 74.018L92.5911 73.4722C92.5911 73.4722 92.205 74.4174 91.5593 74.018Z" fill="#263238"/>
<path d="M90.1157 75.9526C90.7436 76.9098 91.5001 77.776 92.3641 78.5269C92.1678 78.7469 91.9252 78.9206 91.6538 79.0356C91.3823 79.1506 91.0888 79.2041 90.7942 79.1921L90.1157 75.9526Z" fill="#FF5652"/>
<path d="M89.6169 81.294C89.6388 81.2787 89.6555 81.2572 89.665 81.2323C89.6745 81.2074 89.6763 81.1802 89.6701 81.1543C89.6679 81.1362 89.6619 81.1188 89.6523 81.1032C89.6427 81.0877 89.6299 81.0745 89.6148 81.0643C89.5996 81.0542 89.5824 81.0475 89.5644 81.0447C89.5464 81.0418 89.528 81.0429 89.5105 81.0478C88.9437 81.179 88.354 81.1751 87.7889 81.0365C87.2239 80.8978 86.6994 80.6283 86.2577 80.2496C86.2464 80.232 86.2314 80.2171 86.2136 80.2061C86.1959 80.1951 86.1759 80.1881 86.1551 80.1859C86.1343 80.1836 86.1133 80.186 86.0936 80.193C86.0738 80.1999 86.0559 80.2112 86.0412 80.226C86.0264 80.2408 86.0151 80.2587 86.0082 80.2784C86.0012 80.2981 85.9988 80.3191 86.0011 80.3399C86.0033 80.3607 86.0102 80.3807 86.0213 80.3984C86.0323 80.4162 86.0472 80.4313 86.0648 80.4425C86.5344 80.8593 87.0979 81.1562 87.7072 81.3079C88.3165 81.4597 88.9535 81.4617 89.5637 81.3139L89.6169 81.294Z" fill="#263238"/>
<path d="M84.3418 74.5825C84.3828 74.5572 84.4153 74.5201 84.4349 74.476C84.5731 74.161 84.7837 73.8829 85.0495 73.6645C85.3154 73.446 85.629 73.2933 85.9649 73.2188C86.0007 73.214 86.0352 73.2022 86.0664 73.184C86.0977 73.1659 86.1251 73.1418 86.147 73.1131C86.1689 73.0843 86.185 73.0516 86.1942 73.0166C86.2035 72.9817 86.2058 72.9453 86.201 72.9095C86.1962 72.8737 86.1844 72.8392 86.1662 72.8079C86.1481 72.7767 86.124 72.7493 86.0952 72.7273C86.0665 72.7054 86.0338 72.6894 85.9988 72.6801C85.9639 72.6708 85.9275 72.6685 85.8917 72.6733C85.4637 72.7589 85.0626 72.9463 84.7222 73.2195C84.3818 73.4927 84.1122 73.8438 83.936 74.2432C83.9096 74.2979 83.9023 74.3598 83.9151 74.4192C83.9279 74.4786 83.9601 74.532 84.0067 74.5709C84.0533 74.6099 84.1116 74.6321 84.1723 74.6342C84.233 74.6363 84.2926 74.6181 84.3418 74.5825Z" fill="#263238"/>
<path d="M93.249 71.9616H93.2889C93.3405 71.9093 93.3694 71.8388 93.3694 71.7653C93.3694 71.6919 93.3405 71.6214 93.2889 71.5691C92.9824 71.2589 92.607 71.0254 92.1931 70.8879C91.7793 70.7503 91.3388 70.7125 90.9075 70.7775C90.8361 70.7934 90.7739 70.837 90.7346 70.8988C90.6953 70.9605 90.6821 71.0354 90.698 71.1068C90.7139 71.1783 90.7575 71.2405 90.8192 71.2798C90.881 71.3191 90.9558 71.3322 91.0273 71.3163C91.3703 71.2688 91.7198 71.3045 92.0463 71.4202C92.3727 71.536 92.6666 71.7285 92.9031 71.9815C92.9541 72.0188 93.0165 72.0372 93.0796 72.0335C93.1427 72.0299 93.2026 72.0045 93.249 71.9616Z" fill="#263238"/>
<path d="M107.058 94.9634C107.57 95.5554 108.209 96.2472 108.808 96.8924C109.406 97.5377 110.052 98.1763 110.69 98.8015C111.974 100.045 113.291 101.263 114.681 102.394C117.351 104.653 120.3 106.56 123.455 108.068C126.382 109.398 129.941 109.964 133.513 110.216C135.309 110.349 137.132 110.396 138.961 110.363C140.79 110.329 142.653 110.256 144.436 110.117L144.974 113.003C141.203 113.972 137.338 114.532 133.447 114.673C131.448 114.75 129.447 114.677 127.46 114.454C125.384 114.229 123.343 113.746 121.387 113.017C119.489 112.288 117.658 111.397 115.912 110.356C114.198 109.341 112.556 108.209 110.996 106.97C109.449 105.753 107.965 104.457 106.553 103.085C105.841 102.42 105.156 101.695 104.477 100.977C103.799 100.258 103.147 99.5532 102.482 98.7018L107.058 94.9634Z" fill="#FF8B7B"/>
<path d="M143.691 113.263L149.418 112.365L144.695 107.862C144.695 107.862 142.447 109.684 142.447 112.092L143.691 113.263Z" fill="#FF8B7B"/>
<path d="M152.505 107.828L148.52 105.58L144.688 107.895L149.418 112.392L152.505 107.828Z" fill="#FF8B7B"/>
<path d="M102.987 89.7358C105.455 89.7956 110.358 96.8533 110.358 96.8533L103.3 105.601C103.3 105.601 99.189 99.8401 99.3087 96.6405C99.4684 93.3079 100.18 89.6692 102.987 89.7358Z" fill="#263238"/>
<path d="M154.167 234.655C154.098 234.629 154.032 234.598 153.968 234.562C153.893 234.524 153.829 234.466 153.784 234.394C153.74 234.323 153.716 234.24 153.715 234.156C153.715 233.418 155.418 232.234 155.618 232.101C155.639 232.086 155.665 232.079 155.691 232.079C155.717 232.079 155.742 232.086 155.764 232.101C155.787 232.115 155.805 232.136 155.817 232.161C155.829 232.186 155.833 232.213 155.83 232.24C155.704 232.999 155.391 234.322 154.726 234.628C154.64 234.67 154.546 234.694 154.45 234.699C154.353 234.703 154.258 234.688 154.167 234.655ZM155.498 232.52C154.833 233.012 153.981 233.764 153.988 234.149C153.988 234.203 153.988 234.262 154.108 234.322C154.178 234.376 154.261 234.409 154.349 234.42C154.437 234.43 154.525 234.417 154.606 234.382C154.972 234.216 155.292 233.531 155.498 232.52Z" fill="#21A6DF"/>
<path d="M153.316 232.905C153.263 232.886 153.211 232.862 153.163 232.832C153.073 232.769 153.007 232.678 152.976 232.573C152.944 232.468 152.949 232.355 152.99 232.253C153.018 232.153 153.067 232.059 153.135 231.98C153.203 231.901 153.288 231.837 153.383 231.794C154.141 231.428 155.684 232.06 155.744 232.087C155.767 232.096 155.787 232.111 155.802 232.131C155.817 232.15 155.826 232.173 155.83 232.197C155.833 232.221 155.83 232.246 155.821 232.269C155.812 232.292 155.797 232.311 155.777 232.326C155.051 232.804 154.179 233.009 153.316 232.905ZM155.345 232.24C154.766 231.984 154.122 231.916 153.502 232.047C153.44 232.073 153.385 232.113 153.341 232.164C153.298 232.214 153.266 232.275 153.25 232.34C153.203 232.506 153.25 232.573 153.316 232.606C153.655 232.832 154.773 232.606 155.391 232.253L155.345 232.24Z" fill="#21A6DF"/>
<path d="M99.8011 245.591C99.3354 245.622 98.8712 245.511 98.4707 245.271C98.3665 245.194 98.2812 245.094 98.2212 244.979C98.1613 244.863 98.1283 244.736 98.1248 244.606C98.1172 244.534 98.1292 244.462 98.1597 244.396C98.1901 244.33 98.2379 244.274 98.2977 244.234C98.9164 243.815 101.258 244.899 101.723 245.092C101.749 245.105 101.769 245.126 101.782 245.151C101.795 245.176 101.8 245.205 101.797 245.233C101.793 245.261 101.781 245.288 101.762 245.309C101.743 245.33 101.718 245.345 101.69 245.351C101.071 245.498 100.437 245.578 99.8011 245.591ZM98.7035 244.407C98.6116 244.399 98.5195 244.418 98.4374 244.46C98.4042 244.46 98.3776 244.513 98.3842 244.593C98.3847 244.683 98.4067 244.772 98.4483 244.851C98.49 244.931 98.5501 245 98.6237 245.052C99.0295 245.358 99.9541 245.398 101.205 245.165C100.415 244.785 99.5712 244.529 98.7035 244.407Z" fill="#21A6DF"/>
<path d="M101.65 245.358H101.597C100.825 245.039 99.2556 243.789 99.3487 243.137C99.3487 242.997 99.4618 242.817 99.8143 242.778C101.145 242.611 101.757 245.092 101.81 245.199C101.816 245.224 101.815 245.251 101.807 245.275C101.798 245.3 101.783 245.322 101.763 245.339C101.747 245.35 101.728 245.357 101.709 245.361C101.689 245.364 101.669 245.363 101.65 245.358ZM99.9407 243.03H99.8476C99.7012 243.03 99.6281 243.09 99.6148 243.157C99.5682 243.529 100.646 244.52 101.437 244.959C101.231 244.367 100.766 243.03 99.9407 243.03Z" fill="#21A6DF"/>
<path d="M86.3906 75.0751L87.4224 74.5293C87.4224 74.5293 87.0429 75.5078 86.3906 75.0751Z" fill="#263238"/>
<path d="M120.475 137.538C120.475 137.538 108.655 147.19 113.052 168.436C115.646 180.962 123.462 187.334 130.307 185.944C137.152 184.554 141.868 175.64 139.367 163.094C135.156 141.821 120.475 137.538 120.475 137.538Z" fill="#21A6DF"/>
<path opacity="0.2" d="M120.475 137.538C120.475 137.538 108.655 147.19 113.052 168.436C115.646 180.962 123.462 187.334 130.307 185.944C137.152 184.554 141.868 175.64 139.367 163.094C135.156 141.821 120.475 137.538 120.475 137.538Z" fill="white"/>
<path d="M195.024 96.3212C195.024 96.3212 173.318 91.4985 152.963 115.665C140.99 129.92 140.717 144.608 148.473 151.186C156.23 157.765 170.684 155.138 182.791 140.976C203.292 116.956 195.024 96.3212 195.024 96.3212Z" fill="#21A6DF"/>
<path d="M166.487 0.400391C166.487 0.400391 161.637 1.73078 160.134 8.72198C159.243 12.8462 160.753 15.8063 163.001 16.2985C165.249 16.7908 167.857 14.7353 168.775 10.6244C170.332 3.64654 166.487 0.400391 166.487 0.400391Z" fill="#21A6DF"/>
<path d="M128.039 215.431C125.253 205.542 123.944 195.296 124.154 185.025C124.372 175.062 125.833 165.164 128.504 155.563C129.797 150.869 131.329 146.245 133.094 141.707C133.966 139.452 134.897 137.231 135.868 135.055C136.334 133.945 136.866 132.874 137.358 131.783L138.103 130.2L138.828 128.67C142.706 120.521 146.398 112.319 149.731 103.997C153.086 95.7025 156.002 87.236 158.465 78.6336C160.933 70.0573 162.658 61.2841 163.62 52.4116C164.606 43.5281 164.329 34.5495 162.795 25.7439C161.192 16.8153 157.786 8.30724 152.784 0.739258C158.712 7.85998 163.126 16.1147 165.755 24.9989C168.39 33.9827 169.734 43.2956 169.746 52.6577C169.78 62.02 169.003 71.3676 167.425 80.5959C165.877 89.7898 163.836 98.894 161.312 107.869C158.837 116.836 155.99 125.676 152.97 134.41L152.405 136.047L152.119 136.865L151.859 137.636C151.527 138.674 151.154 139.692 150.848 140.73C150.183 142.798 149.598 144.867 149.052 146.949C147.954 151.074 147.066 155.253 146.391 159.468C145.062 167.689 144.765 176.045 145.507 184.34C146.234 192.337 148.142 200.183 151.168 207.622L128.039 215.431Z" fill="#21A6DF"/>
<path opacity="0.2" d="M128.039 215.431C125.253 205.542 123.944 195.296 124.154 185.025C124.372 175.062 125.833 165.164 128.504 155.563C129.797 150.869 131.329 146.245 133.094 141.707C133.966 139.452 134.897 137.231 135.868 135.055C136.334 133.945 136.866 132.874 137.358 131.783L138.103 130.2L138.828 128.67C142.706 120.521 146.398 112.319 149.731 103.997C153.086 95.7025 156.002 87.236 158.465 78.6336C160.933 70.0573 162.658 61.2841 163.62 52.4116C164.606 43.5281 164.329 34.5495 162.795 25.7439C161.192 16.8153 157.786 8.30724 152.784 0.739258C158.712 7.85998 163.126 16.1147 165.755 24.9989C168.39 33.9827 169.734 43.2956 169.746 52.6577C169.78 62.02 169.003 71.3676 167.425 80.5959C165.877 89.7898 163.836 98.894 161.312 107.869C158.837 116.836 155.99 125.676 152.97 134.41L152.405 136.047L152.119 136.865L151.859 137.636C151.527 138.674 151.154 139.692 150.848 140.73C150.183 142.798 149.598 144.867 149.052 146.949C147.954 151.074 147.066 155.253 146.391 159.468C145.062 167.689 144.765 176.045 145.507 184.34C146.234 192.337 148.142 200.183 151.168 207.622L128.039 215.431Z" fill="black"/>
<path d="M173.891 191.65L173.225 199.26L168.795 248.704C168.72 249.545 168.333 250.328 167.71 250.898C167.087 251.468 166.274 251.784 165.429 251.784H109.247C108.403 251.782 107.59 251.466 106.967 250.896C106.345 250.326 105.957 249.545 105.881 248.704L101.457 199.26L100.792 191.65H173.891Z" fill="#21A6DF"/>
<path d="M173.086 219.146L171.498 236.896L172.161 236.955L173.748 219.205L173.086 219.146Z" fill="#21A6DF"/>
<path d="M175.062 209.132L174.683 213.342L175.348 213.402L175.727 209.191L175.062 209.132Z" fill="#21A6DF"/>
<path d="M126.296 35.0034C126.296 35.0034 113.75 51.7065 126.542 78.4872C134.085 94.2789 146.558 100.179 155.192 96.0949C163.826 92.0106 167.165 78.6203 159.755 62.7753C147.163 35.9014 126.296 35.0034 126.296 35.0034Z" fill="#21A6DF"/>
<path opacity="0.2" d="M126.296 35.0034C126.296 35.0034 113.75 51.7065 126.542 78.4872C134.085 94.2789 146.558 100.179 155.192 96.0949C163.826 92.0106 167.165 78.6203 159.755 62.7753C147.163 35.9014 126.296 35.0034 126.296 35.0034Z" fill="black"/>
<path opacity="0.2" d="M173.891 191.65L173.206 199.26H101.458L100.772 191.65H173.891Z" fill="black"/>
<path d="M178.234 182.265H96.4218C95.5438 182.265 94.832 182.976 94.832 183.854V193.866C94.832 194.744 95.5438 195.455 96.4218 195.455H178.234C179.112 195.455 179.824 194.744 179.824 193.866V183.854C179.824 182.976 179.112 182.265 178.234 182.265Z" fill="#21A6DF"/>
<path d="M209.945 72.8602C221.699 64.0158 224.058 47.3176 215.214 35.5637C206.369 23.8097 189.671 21.4511 177.917 30.2954C166.163 39.1398 163.805 55.838 172.649 67.5919C181.493 79.3459 198.191 81.7045 209.945 72.8602Z" fill="#21A6DF"/>
<path opacity="0.1" d="M215.292 58.1792C216.195 54.6354 216.192 50.9217 215.284 47.3793C214.377 43.8369 212.593 40.5795 210.098 37.9064C207.603 35.2332 204.475 33.2302 201.004 32.0813C197.532 30.9324 193.827 30.6744 190.23 31.3312C186.633 31.988 183.258 33.5385 180.416 35.8401C177.575 38.1416 175.357 41.1205 173.967 44.503C172.578 47.8855 172.06 51.563 172.463 55.1975C172.866 58.8321 174.176 62.3072 176.272 65.3034C173.909 62.2687 172.369 58.6762 171.8 54.8726C171.23 51.069 171.651 47.1828 173.021 43.5892C174.392 39.9957 176.666 36.8162 179.623 34.3576C182.581 31.899 186.122 30.2445 189.906 29.5537C193.689 28.863 197.587 29.1593 201.222 30.4141C204.858 31.6689 208.108 33.8398 210.66 36.7172C213.212 39.5946 214.979 43.0814 215.79 46.8408C216.602 50.6002 216.43 54.5054 215.292 58.1792Z" fill="black"/>
<path d="M202.135 55.4319L199.474 61.0661C199.373 61.2803 199.228 61.4713 199.05 61.627C198.871 61.7827 198.662 61.8998 198.436 61.9708C198.211 62.0559 197.971 62.094 197.731 62.0825C197.49 62.0711 197.255 62.0104 197.039 61.9042L192.083 59.5627L190.208 63.5539C190.11 63.7705 189.969 63.9646 189.792 64.1237C189.616 64.2829 189.409 64.4037 189.183 64.4785C188.962 64.5589 188.727 64.5944 188.491 64.5829C188.256 64.5715 188.025 64.5134 187.813 64.412C187.592 64.3132 187.394 64.171 187.229 63.9938C187.065 63.8167 186.937 63.6083 186.855 63.381C186.769 63.1587 186.73 62.921 186.74 62.6829C186.751 62.4448 186.81 62.2114 186.915 61.9974L188.811 58.0062L183.895 55.6847C183.465 55.4788 183.135 55.1119 182.974 54.6636C182.813 54.2153 182.836 53.7217 183.037 53.29C183.24 52.8598 183.606 52.5279 184.053 52.367C184.501 52.2061 184.994 52.2294 185.425 52.4319L196.926 57.8598L198.03 55.5184L186.582 50.0704C186.366 49.9725 186.172 49.8323 186.011 49.658C185.849 49.4837 185.725 49.2789 185.644 49.0557C185.564 48.8324 185.529 48.5953 185.541 48.3583C185.554 48.1213 185.614 47.8892 185.718 47.6757L188.378 42.0615C188.478 41.8464 188.619 41.6533 188.793 41.4934C188.968 41.3335 189.173 41.21 189.396 41.1301C189.619 41.0502 189.855 41.0156 190.092 41.0281C190.328 41.0407 190.56 41.1003 190.773 41.2034L195.649 43.5049L197.525 39.5138C197.625 39.2934 197.77 39.096 197.949 38.9338C198.129 38.7716 198.34 38.648 198.57 38.5707C198.799 38.4933 199.042 38.4639 199.284 38.4843C199.525 38.5046 199.759 38.5743 199.973 38.6889C200.185 38.785 200.376 38.9237 200.533 39.0965C200.689 39.2693 200.809 39.4725 200.884 39.6934C200.967 39.9154 201.004 40.1519 200.993 40.3887C200.981 40.6255 200.922 40.8574 200.817 41.0703L198.942 45.0615L203.937 47.4163C204.156 47.5161 204.352 47.6597 204.514 47.8381C204.675 48.0166 204.798 48.2262 204.875 48.454C204.964 48.6737 205.007 48.9096 205 49.1467C204.993 49.3837 204.937 49.6168 204.835 49.8309C204.621 50.2681 204.245 50.6045 203.786 50.7685C203.328 50.9325 202.824 50.9111 202.381 50.709L190.879 45.281L189.789 47.6025L201.243 53.0106C201.463 53.1103 201.66 53.2538 201.822 53.4322C201.985 53.6106 202.109 53.8202 202.188 54.0483C202.278 54.2695 202.319 54.5073 202.31 54.7458C202.301 54.9844 202.241 55.2182 202.135 55.4319Z" fill="#FAFAFA"/>
</svg>
