<svg width="326" height="254" viewBox="0 0 326 254" fill="none" xmlns="http://www.w3.org/2000/svg">
<path d="M160.709 253.314C249.325 253.314 321.162 249.12 321.162 243.946C321.162 238.772 249.325 234.578 160.709 234.578C72.0925 234.578 0.254883 238.772 0.254883 243.946C0.254883 249.12 72.0925 253.314 160.709 253.314Z" fill="#F5F5F5"/>
<path d="M143.744 239.585L159.236 224.093L174.727 239.585C175.128 239.982 175.669 240.206 176.233 240.205C176.655 240.206 177.067 240.082 177.417 239.848C177.768 239.615 178.041 239.282 178.203 238.893C178.364 238.504 178.406 238.076 178.324 237.662C178.241 237.249 178.038 236.87 177.74 236.572L159.236 218.068L140.698 236.572C140.4 236.87 140.197 237.249 140.114 237.662C140.032 238.076 140.074 238.504 140.235 238.893C140.397 239.282 140.67 239.615 141.021 239.848C141.371 240.082 141.783 240.206 142.205 240.205C142.49 240.21 142.773 240.157 143.037 240.051C143.301 239.944 143.542 239.786 143.744 239.585Z" fill="#21A6DF"/>
<path opacity="0.2" d="M159.757 218.598H158.714L153.964 223.34V229.141H154.188L159.236 224.093L164.284 229.141H164.507V223.34L159.757 218.598Z" fill="black"/>
<path d="M156.066 170.277H162.405V237.723C162.405 238.381 162.144 239.013 161.678 239.478C161.212 239.944 160.581 240.205 159.923 240.205H158.549C157.89 240.205 157.259 239.944 156.793 239.478C156.328 239.013 156.066 238.381 156.066 237.723V170.277Z" fill="#21A6DF"/>
<path opacity="0.2" d="M162.405 170.277H156.066V195.129H162.405V170.277Z" fill="black"/>
<path d="M272.064 186.216H46.4073C44.1795 186.212 42.0443 185.324 40.4698 183.748C38.8953 182.172 38.0099 180.036 38.0077 177.808V2.74805H280.48V177.808C280.478 180.039 279.59 182.177 278.012 183.754C276.434 185.33 274.294 186.216 272.064 186.216ZM40.8462 5.58654V177.808C40.8462 179.284 41.4318 180.699 42.4745 181.743C43.5172 182.788 44.9317 183.375 46.4073 183.377H272.064C273.539 183.375 274.954 182.788 275.997 181.743C277.039 180.699 277.625 179.284 277.625 177.808V5.58654H40.8462Z" fill="#21A6DF"/>
<g opacity="0.8">
<path opacity="0.8" d="M272.064 186.216H46.4073C44.1795 186.212 42.0443 185.324 40.4698 183.748C38.8953 182.172 38.0099 180.036 38.0077 177.808V2.74805H280.48V177.808C280.478 180.039 279.59 182.177 278.012 183.754C276.434 185.33 274.294 186.216 272.064 186.216ZM40.8462 5.58654V177.808C40.8462 179.284 41.4318 180.699 42.4745 181.743C43.5172 182.788 44.9317 183.375 46.4073 183.377H272.064C273.539 183.375 274.954 182.788 275.997 181.743C277.039 180.699 277.625 179.284 277.625 177.808V5.58654H40.8462Z" fill="white"/>
</g>
<path d="M40.8463 5.58643V177.808C40.8463 179.284 41.432 180.699 42.4746 181.743C43.5173 182.787 44.9318 183.375 46.4075 183.377H272.064C273.54 183.375 274.954 182.787 275.997 181.743C277.039 180.699 277.625 179.284 277.625 177.808V5.58643H40.8463Z" fill="white"/>
<path d="M285.942 0.977051H32.5293V7.36574H285.942V0.977051Z" fill="#21A6DF"/>
<path opacity="0.5" d="M285.942 0.977051H32.5293V4.1714H285.942V0.977051Z" fill="white"/>
<path d="M63.3556 152.841C63.3556 152.841 204.577 150.209 248.073 27.1357L246.575 153.122L63.3556 152.841Z" fill="#21A6DF"/>
<g opacity="0.7">
<path opacity="0.7" d="M63.3556 152.841C63.3556 152.841 204.577 150.209 248.073 27.1357L246.575 153.122L63.3556 152.841Z" fill="white"/>
</g>
<path d="M64.448 153.552C64.2285 153.558 64.0158 153.476 63.8568 153.325C63.6977 153.173 63.6052 152.965 63.5997 152.745C63.5943 152.526 63.6762 152.313 63.8275 152.154C63.9788 151.995 64.1871 151.903 64.4066 151.897C71.2587 151.574 107.365 149.1 146.243 132.152C195.896 110.487 229.759 75.0509 246.807 26.8047C246.892 26.616 247.045 26.4661 247.236 26.3846C247.426 26.3031 247.64 26.296 247.835 26.3646C248.031 26.4332 248.193 26.5725 248.291 26.7551C248.389 26.9377 248.414 27.1503 248.363 27.3509C238.97 53.9566 224.223 77.0039 204.503 95.8969C188.465 111.281 169.075 123.984 146.872 133.666C107.729 150.739 71.3498 153.23 64.4563 153.528L64.448 153.552Z" fill="#21A6DF"/>
<path d="M71.8131 161.298C71.5937 161.298 71.3832 161.211 71.228 161.056C71.0728 160.901 70.9856 160.69 70.9856 160.471V153.594C70.9856 153.374 71.0728 153.164 71.228 153.009C71.3832 152.853 71.5937 152.766 71.8131 152.766C72.0326 152.766 72.2431 152.853 72.3983 153.009C72.5535 153.164 72.6407 153.374 72.6407 153.594V160.471C72.6407 160.69 72.5535 160.901 72.3983 161.056C72.2431 161.211 72.0326 161.298 71.8131 161.298Z" fill="#21A6DF"/>
<path d="M100.538 161.331C100.318 161.331 100.108 161.244 99.9523 161.089C99.7971 160.934 99.71 160.723 99.71 160.504V153.627C99.71 153.407 99.7971 153.197 99.9523 153.042C100.108 152.887 100.318 152.799 100.538 152.799C100.757 152.799 100.967 152.887 101.123 153.042C101.278 153.197 101.365 153.407 101.365 153.627V160.504C101.365 160.723 101.278 160.934 101.123 161.089C100.967 161.244 100.757 161.331 100.538 161.331Z" fill="#21A6DF"/>
<path d="M129.262 161.356C129.042 161.356 128.832 161.269 128.676 161.114C128.521 160.959 128.434 160.748 128.434 160.529V153.652C128.434 153.432 128.521 153.222 128.676 153.067C128.832 152.911 129.042 152.824 129.262 152.824C129.481 152.824 129.692 152.911 129.847 153.067C130.002 153.222 130.089 153.432 130.089 153.652V160.529C130.089 160.748 130.002 160.959 129.847 161.114C129.692 161.269 129.481 161.356 129.262 161.356Z" fill="#21A6DF"/>
<path d="M157.986 161.381C157.767 161.381 157.556 161.294 157.401 161.139C157.246 160.984 157.158 160.773 157.158 160.554V153.677C157.158 153.457 157.246 153.247 157.401 153.092C157.556 152.936 157.767 152.849 157.986 152.849C158.205 152.849 158.416 152.936 158.571 153.092C158.726 153.247 158.814 153.457 158.814 153.677V160.554C158.814 160.773 158.726 160.984 158.571 161.139C158.416 161.294 158.205 161.381 157.986 161.381Z" fill="#21A6DF"/>
<path d="M186.71 161.406C186.491 161.406 186.28 161.319 186.125 161.164C185.97 161.009 185.883 160.798 185.883 160.579V153.71C185.883 153.49 185.97 153.28 186.125 153.125C186.28 152.969 186.491 152.882 186.71 152.882C186.93 152.882 187.14 152.969 187.296 153.125C187.451 153.28 187.538 153.49 187.538 153.71V160.579C187.538 160.798 187.451 161.009 187.296 161.164C187.14 161.319 186.93 161.406 186.71 161.406Z" fill="#21A6DF"/>
<path d="M215.426 161.439C215.207 161.439 214.996 161.352 214.841 161.196C214.686 161.041 214.599 160.831 214.599 160.611V153.734C214.599 153.515 214.686 153.304 214.841 153.149C214.996 152.994 215.207 152.907 215.426 152.907C215.646 152.907 215.856 152.994 216.011 153.149C216.167 153.304 216.254 153.515 216.254 153.734V160.611C216.254 160.831 216.167 161.041 216.011 161.196C215.856 161.352 215.646 161.439 215.426 161.439Z" fill="#21A6DF"/>
<path d="M244.142 161.464C243.923 161.464 243.712 161.377 243.557 161.222C243.402 161.067 243.315 160.856 243.315 160.637V153.76C243.315 153.54 243.402 153.33 243.557 153.174C243.712 153.019 243.923 152.932 244.142 152.932C244.362 152.932 244.572 153.019 244.727 153.174C244.883 153.33 244.97 153.54 244.97 153.76V160.637C244.97 160.856 244.883 161.067 244.727 161.222C244.572 161.377 244.362 161.464 244.142 161.464Z" fill="#21A6DF"/>
<path d="M63.7363 34.7908H60.0288C59.8094 34.7908 59.5989 34.7037 59.4437 34.5485C59.2885 34.3933 59.2013 34.1828 59.2013 33.9633C59.2013 33.7438 59.2885 33.5333 59.4437 33.3781C59.5989 33.2229 59.8094 33.1357 60.0288 33.1357H63.7363C63.9558 33.1357 64.1662 33.2229 64.3214 33.3781C64.4766 33.5333 64.5638 33.7438 64.5638 33.9633C64.5638 34.1828 64.4766 34.3933 64.3214 34.5485C64.1662 34.7037 63.9558 34.7908 63.7363 34.7908Z" fill="#21A6DF"/>
<path d="M63.7363 52.8065H60.0288C59.8094 52.8065 59.5989 52.7193 59.4437 52.5641C59.2885 52.4089 59.2013 52.1984 59.2013 51.9789C59.2013 51.7594 59.2885 51.5489 59.4437 51.3938C59.5989 51.2386 59.8094 51.1514 60.0288 51.1514H63.7363C63.9558 51.1514 64.1662 51.2386 64.3214 51.3938C64.4766 51.5489 64.5638 51.7594 64.5638 51.9789C64.5638 52.1984 64.4766 52.4089 64.3214 52.5641C64.1662 52.7193 63.9558 52.8065 63.7363 52.8065Z" fill="#21A6DF"/>
<path d="M63.7363 70.8309H60.0288C59.8094 70.8309 59.5989 70.7437 59.4437 70.5885C59.2885 70.4333 59.2013 70.2228 59.2013 70.0033C59.2013 69.7839 59.2885 69.5734 59.4437 69.4182C59.5989 69.263 59.8094 69.1758 60.0288 69.1758H63.7363C63.9558 69.1758 64.1662 69.263 64.3214 69.4182C64.4766 69.5734 64.5638 69.7839 64.5638 70.0033C64.5638 70.2228 64.4766 70.4333 64.3214 70.5885C64.1662 70.7437 63.9558 70.8309 63.7363 70.8309Z" fill="#21A6DF"/>
<path d="M63.7363 88.8709H60.0288C59.8094 88.8709 59.5989 88.7837 59.4437 88.6285C59.2885 88.4733 59.2013 88.2629 59.2013 88.0434C59.2013 87.8239 59.2885 87.6134 59.4437 87.4582C59.5989 87.303 59.8094 87.2158 60.0288 87.2158H63.7363C63.9558 87.2158 64.1662 87.303 64.3214 87.4582C64.4766 87.6134 64.5638 87.8239 64.5638 88.0434C64.5638 88.2629 64.4766 88.4733 64.3214 88.6285C64.1662 88.7837 63.9558 88.8709 63.7363 88.8709Z" fill="#21A6DF"/>
<path d="M63.7363 106.87H60.0288C59.8094 106.87 59.5989 106.783 59.4437 106.628C59.2885 106.473 59.2013 106.262 59.2013 106.043C59.2013 105.823 59.2885 105.613 59.4437 105.458C59.5989 105.303 59.8094 105.215 60.0288 105.215H63.7363C63.9558 105.215 64.1662 105.303 64.3214 105.458C64.4766 105.613 64.5638 105.823 64.5638 106.043C64.5638 106.262 64.4766 106.473 64.3214 106.628C64.1662 106.783 63.9558 106.87 63.7363 106.87Z" fill="#21A6DF"/>
<path d="M63.7363 124.894H60.0288C59.8094 124.894 59.5989 124.807 59.4437 124.652C59.2885 124.497 59.2013 124.286 59.2013 124.067C59.2013 123.847 59.2885 123.637 59.4437 123.482C59.5989 123.326 59.8094 123.239 60.0288 123.239H63.7363C63.9558 123.239 64.1662 123.326 64.3214 123.482C64.4766 123.637 64.5638 123.847 64.5638 124.067C64.5638 124.286 64.4766 124.497 64.3214 124.652C64.1662 124.807 63.9558 124.894 63.7363 124.894Z" fill="#21A6DF"/>
<path d="M63.7363 142.91H60.0288C59.8094 142.91 59.5989 142.823 59.4437 142.668C59.2885 142.512 59.2013 142.302 59.2013 142.082C59.2013 141.863 59.2885 141.652 59.4437 141.497C59.5989 141.342 59.8094 141.255 60.0288 141.255H63.7363C63.9558 141.255 64.1662 141.342 64.3214 141.497C64.4766 141.652 64.5638 141.863 64.5638 142.082C64.5638 142.302 64.4766 142.512 64.3214 142.668C64.1662 142.823 63.9558 142.91 63.7363 142.91Z" fill="#21A6DF"/>
<path d="M253.576 154.421H64.4479C64.2284 154.421 64.0179 154.334 63.8627 154.179C63.7075 154.024 63.6204 153.813 63.6204 153.594V26.8461C63.6204 26.6266 63.7075 26.4161 63.8627 26.2609C64.0179 26.1057 64.2284 26.0186 64.4479 26.0186C64.6674 26.0186 64.8779 26.1057 65.0331 26.2609C65.1883 26.4161 65.2755 26.6266 65.2755 26.8461V152.766H253.576C253.796 152.766 254.006 152.853 254.161 153.009C254.317 153.164 254.404 153.374 254.404 153.594C254.404 153.813 254.317 154.024 254.161 154.179C254.006 154.334 253.796 154.421 253.576 154.421Z" fill="#21A6DF"/>
<path d="M115.044 30.0405V32.1508L108.424 47.0053H105.114L111.486 32.7052H104.816V35.5934H101.886V30.0405H115.044Z" fill="#21A6DF"/>
<path d="M116.534 38.5227C116.534 32.945 119.588 29.792 123.618 29.792C127.648 29.792 130.718 32.945 130.718 38.5227C130.718 44.1003 127.664 47.245 123.618 47.245C119.571 47.245 116.534 44.1003 116.534 38.5227ZM127.54 38.5227C127.54 34.4263 125.943 32.5312 123.618 32.5312C121.292 32.5312 119.712 34.4263 119.712 38.5227C119.712 42.619 121.309 44.5058 123.618 44.5058C125.927 44.5058 127.54 42.619 127.54 38.5227Z" fill="#21A6DF"/>
<path d="M132.588 34.5263C132.588 31.7375 134.243 29.8672 136.635 29.8672C139.027 29.8672 140.707 31.7126 140.707 34.5263C140.707 37.34 139.052 39.1771 136.635 39.1771C134.219 39.1771 132.588 37.3151 132.588 34.5263ZM138.721 34.5263C138.721 32.6312 137.943 31.5637 136.635 31.5637C135.328 31.5637 134.55 32.656 134.55 34.5263C134.55 36.3966 135.377 37.4806 136.635 37.4806C137.893 37.4806 138.721 36.4131 138.721 34.5263ZM146.814 30.041H149.189L137.603 47.0058H135.228L146.814 30.041ZM143.711 42.5287C143.711 39.7399 145.366 37.8779 147.757 37.8779C150.149 37.8779 151.829 39.7399 151.829 42.5287C151.829 45.3176 150.174 47.1878 147.757 47.1878C145.341 47.1878 143.711 45.3093 143.711 42.5287ZM149.843 42.5287C149.843 40.6667 149.015 39.5744 147.757 39.5744C146.5 39.5744 145.664 40.6336 145.664 42.5287C145.664 44.4238 146.491 45.4913 147.749 45.4913C149.007 45.4913 149.843 44.3907 149.843 42.5287Z" fill="#21A6DF"/>
<path d="M146.682 51.5571H108.399V54.2218H146.682V51.5571Z" fill="#21A6DF"/>
<path d="M146.682 57.9707H101.986V60.6354H146.682V57.9707Z" fill="#21A6DF"/>
<path d="M146.682 64.2183H101.986V66.883H146.682V64.2183Z" fill="#21A6DF"/>
<path d="M136.809 70.4668H101.986V73.1315H136.809V70.4668Z" fill="#21A6DF"/>
<path d="M286.604 169.913C286.604 169.913 292.628 182.889 293.001 210.794H297.097C297.097 210.794 293.704 168.738 285.909 165.725C281.746 164.178 286.604 169.913 286.604 169.913Z" fill="#21A6DF"/>
<g opacity="0.1">
<path opacity="0.1" d="M286.604 169.913C286.604 169.913 292.629 182.889 293.001 210.794H297.097C297.097 210.794 293.704 168.738 285.909 165.725C281.746 164.178 286.604 169.913 286.604 169.913Z" fill="black"/>
</g>
<path d="M284.204 165.75C285.032 163.268 285.454 163.309 286.935 161.679C284.734 161.315 282.061 160.197 278.461 161.629C275.3 163.119 274.116 166.594 274.729 169.987C274.754 170.111 274.753 170.238 274.724 170.361C274.696 170.484 274.641 170.599 274.563 170.699C274.475 170.808 274.363 170.894 274.235 170.951C274.107 171.008 273.968 171.034 273.828 171.027C273.689 171.02 273.553 170.979 273.431 170.909C273.31 170.839 273.208 170.742 273.131 170.624C272.441 169.502 272.043 168.225 271.975 166.909C271.907 165.593 272.171 164.281 272.742 163.094C269.921 163.988 266.668 165.461 264.93 167.86C263.027 170.484 263.664 176.666 265.89 179.248C265.983 179.358 266.033 179.497 266.033 179.641C266.033 179.784 265.983 179.924 265.89 180.034C265.839 180.103 265.773 180.161 265.698 180.203C265.623 180.245 265.54 180.271 265.454 180.279C265.368 180.287 265.281 180.276 265.199 180.248C265.118 180.22 265.043 180.175 264.98 180.116C263.856 179.246 262.937 178.139 262.29 176.872C261.612 175.399 261.306 173.662 262.175 172.296C258.583 172.842 255.554 180.439 255.918 180.356C256.423 183.046 258.848 185.496 260.056 186.58C260.264 186.766 260.4 187.019 260.443 187.295C260.485 187.572 260.43 187.854 260.288 188.094C260.199 188.244 260.078 188.373 259.934 188.473C259.791 188.572 259.627 188.639 259.455 188.67C259.284 188.701 259.107 188.694 258.938 188.65C258.769 188.606 258.611 188.527 258.475 188.417C257.185 187.366 255.231 185.578 254.685 184.056C253.494 184.883 253.535 186.911 253.56 188.367C253.626 193.018 257.127 196.386 259.882 199.796C263.451 201.104 267.315 201.391 271.038 200.623C273.743 199.988 276.098 198.33 277.608 195.997V195.939C275.076 195.385 272.279 194.665 269.697 194.077C269.457 194.025 269.246 193.885 269.104 193.684C268.963 193.483 268.903 193.236 268.936 192.993C268.975 192.742 269.109 192.516 269.311 192.361C269.513 192.207 269.767 192.137 270.02 192.166C273.421 192.571 276.061 193.341 279.553 193.705C281.44 192.05 284.469 185.876 283.914 186.042C280.927 185.86 275.854 186.207 273.032 184.966C272.837 184.871 272.687 184.704 272.614 184.499C272.542 184.295 272.552 184.07 272.643 183.874C272.724 183.73 272.846 183.614 272.994 183.54C273.141 183.466 273.307 183.438 273.471 183.46C277.289 184.216 281.209 184.3 285.056 183.708C287.332 180.621 288.971 178.238 289.236 175.937L280.224 175.11C280.033 175.099 279.853 175.017 279.719 174.88C279.585 174.743 279.507 174.562 279.5 174.371C279.492 174.179 279.557 173.993 279.68 173.846C279.803 173.7 279.976 173.604 280.166 173.579H280.215C283.89 173.148 288.201 174.464 291.147 172.371C291.147 172.371 295.045 168.589 293.737 166.379C290.667 168.076 283.865 166.867 284.204 165.75Z" fill="#21A6DF"/>
<path d="M299.464 171.08C296.754 175.884 294.75 181.055 293.514 186.431C289.376 205.059 289.484 210.554 289.484 210.554L286.025 210.67C286.025 210.67 292.761 175.002 298.314 169.987C303.867 164.972 299.464 171.08 299.464 171.08Z" fill="#21A6DF"/>
<path opacity="0.4" d="M299.464 171.08C296.754 175.884 294.75 181.055 293.514 186.431C289.376 205.059 289.484 210.554 289.484 210.554L286.025 210.67C286.025 210.67 292.761 175.002 298.314 169.987C303.867 164.972 299.464 171.08 299.464 171.08Z" fill="black"/>
<path d="M300.755 167.182C299.505 166.197 299.299 166.354 297.974 165.965C299.05 165.138 300.143 163.83 302.551 163.483C303.555 163.412 304.555 163.671 305.4 164.219C306.245 164.766 306.889 165.574 307.235 166.52C307.265 166.589 307.309 166.651 307.365 166.703C307.42 166.754 307.486 166.793 307.557 166.818C307.636 166.849 307.72 166.861 307.804 166.855C307.887 166.848 307.968 166.822 308.04 166.779C308.113 166.735 308.174 166.676 308.219 166.605C308.264 166.535 308.293 166.454 308.302 166.371C308.308 165.599 308.108 164.839 307.725 164.169C307.341 163.498 306.786 162.942 306.118 162.556C307.93 162.183 310.164 161.968 311.91 162.639C313.781 163.383 315.403 166.602 315.022 168.522C315.006 168.604 315.021 168.689 315.063 168.761C315.106 168.833 315.174 168.886 315.254 168.911C315.353 168.95 315.462 168.948 315.56 168.906C315.657 168.864 315.735 168.786 315.775 168.688C316.11 167.943 316.257 167.128 316.205 166.313C316.19 165.844 316.054 165.386 315.808 164.986C315.563 164.585 315.218 164.255 314.807 164.029C316.925 163.267 320.997 166.123 320.765 166.189C321.353 167.662 320.815 169.565 320.5 170.442C320.445 170.601 320.452 170.774 320.519 170.928C320.587 171.082 320.71 171.204 320.864 171.27C320.958 171.32 321.061 171.351 321.168 171.359C321.274 171.368 321.38 171.355 321.481 171.321C321.582 171.287 321.675 171.232 321.754 171.161C321.833 171.09 321.896 171.003 321.94 170.906C322.428 169.899 322.658 168.787 322.611 167.67C323.521 167.736 324.142 168.738 324.597 169.458C326.037 171.766 325.217 174.423 324.812 176.906C323.239 178.607 321.238 179.856 319.019 180.522C317.346 180.986 315.563 180.852 313.979 180.141C315.171 179.14 316.462 177.973 317.678 176.939C317.733 176.894 317.778 176.839 317.811 176.776C317.844 176.714 317.863 176.645 317.869 176.574C317.874 176.504 317.865 176.433 317.843 176.366C317.82 176.3 317.784 176.238 317.736 176.186C317.631 176.077 317.491 176.007 317.34 175.989C317.19 175.971 317.037 176.005 316.909 176.086C315.196 177.27 314.012 178.412 312.233 179.595C310.669 179.322 307.069 177.17 307.425 177.112C308.989 176.161 311.844 174.87 312.986 173.438C313.025 173.388 313.052 173.331 313.066 173.269C313.08 173.208 313.08 173.144 313.067 173.082C313.053 173.021 313.027 172.963 312.988 172.913C312.95 172.863 312.901 172.822 312.846 172.793C312.755 172.739 312.65 172.715 312.545 172.722C312.44 172.73 312.34 172.769 312.258 172.834C310.394 174.326 308.297 175.5 306.051 176.31C303.833 175.482 302.187 174.746 301.309 173.695L305.919 170.666C305.969 170.636 306.014 170.596 306.049 170.549C306.084 170.502 306.11 170.449 306.124 170.392C306.139 170.335 306.142 170.276 306.134 170.218C306.126 170.16 306.106 170.104 306.076 170.053C306.046 170.003 306.007 169.959 305.96 169.923C305.913 169.888 305.859 169.863 305.803 169.848C305.746 169.833 305.686 169.83 305.628 169.838C305.57 169.847 305.514 169.866 305.464 169.896C303.329 170.724 301.409 172.644 299.15 172.462C299.15 172.462 295.839 171.733 295.839 170.269C297.991 170.194 301.309 167.62 300.755 167.182Z" fill="#21A6DF"/>
<path opacity="0.2" d="M300.755 167.182C299.505 166.197 299.299 166.354 297.974 165.965C299.05 165.138 300.143 163.83 302.551 163.483C303.555 163.412 304.555 163.671 305.4 164.219C306.245 164.766 306.889 165.574 307.235 166.52C307.265 166.589 307.309 166.651 307.365 166.703C307.42 166.754 307.486 166.793 307.557 166.818C307.636 166.849 307.72 166.861 307.804 166.855C307.887 166.848 307.968 166.822 308.04 166.779C308.113 166.735 308.174 166.676 308.219 166.605C308.264 166.535 308.293 166.454 308.302 166.371C308.308 165.599 308.108 164.839 307.725 164.169C307.341 163.498 306.786 162.942 306.118 162.556C307.93 162.183 310.164 161.968 311.91 162.639C313.781 163.383 315.403 166.602 315.022 168.522C315.006 168.604 315.021 168.689 315.063 168.761C315.106 168.833 315.174 168.886 315.254 168.911C315.353 168.95 315.462 168.948 315.56 168.906C315.657 168.864 315.735 168.786 315.775 168.688C316.11 167.943 316.257 167.128 316.205 166.313C316.19 165.844 316.054 165.386 315.808 164.986C315.563 164.585 315.218 164.255 314.807 164.029C316.925 163.267 320.997 166.123 320.765 166.189C321.353 167.662 320.815 169.565 320.5 170.442C320.445 170.601 320.452 170.774 320.519 170.928C320.587 171.082 320.71 171.204 320.864 171.27C320.958 171.32 321.061 171.351 321.168 171.359C321.274 171.368 321.38 171.355 321.481 171.321C321.582 171.287 321.675 171.232 321.754 171.161C321.833 171.09 321.896 171.003 321.94 170.906C322.428 169.899 322.658 168.787 322.611 167.67C323.521 167.736 324.142 168.738 324.597 169.458C326.037 171.766 325.217 174.423 324.812 176.906C323.239 178.607 321.238 179.856 319.019 180.522C317.346 180.986 315.563 180.852 313.979 180.141C315.171 179.14 316.462 177.973 317.678 176.939C317.733 176.894 317.778 176.839 317.811 176.776C317.844 176.714 317.863 176.645 317.869 176.574C317.874 176.504 317.865 176.433 317.843 176.366C317.82 176.3 317.784 176.238 317.736 176.186C317.631 176.077 317.491 176.007 317.34 175.989C317.19 175.971 317.037 176.005 316.909 176.086C315.196 177.27 314.012 178.412 312.233 179.595C310.669 179.322 307.069 177.17 307.425 177.112C308.989 176.161 311.844 174.87 312.986 173.438C313.025 173.388 313.052 173.331 313.066 173.269C313.08 173.208 313.08 173.144 313.067 173.082C313.053 173.021 313.027 172.963 312.988 172.913C312.95 172.863 312.901 172.822 312.846 172.793C312.755 172.739 312.65 172.715 312.545 172.722C312.44 172.73 312.34 172.769 312.258 172.834C310.394 174.326 308.297 175.5 306.051 176.31C303.833 175.482 302.187 174.746 301.309 173.695L305.919 170.666C305.969 170.636 306.014 170.596 306.049 170.549C306.084 170.502 306.11 170.449 306.124 170.392C306.139 170.335 306.142 170.276 306.134 170.218C306.126 170.16 306.106 170.104 306.076 170.053C306.046 170.003 306.007 169.959 305.96 169.923C305.913 169.888 305.859 169.863 305.803 169.848C305.746 169.833 305.686 169.83 305.628 169.838C305.57 169.847 305.514 169.866 305.464 169.896C303.329 170.724 301.409 172.644 299.15 172.462C299.15 172.462 295.839 171.733 295.839 170.269C297.991 170.194 301.309 167.62 300.755 167.182Z" fill="white"/>
<path d="M296.493 177.352C296.493 177.352 289.74 187.192 287.92 196.452C286.099 205.712 285.95 209.693 285.95 209.693L281.854 209.734C281.854 209.734 289.103 181.598 295.335 176.036C301.566 170.475 296.493 177.352 296.493 177.352Z" fill="#21A6DF"/>
<path opacity="0.2" d="M296.493 177.352C296.493 177.352 289.74 187.192 287.92 196.452C286.099 205.712 285.95 209.693 285.95 209.693L281.854 209.734C281.854 209.734 289.103 181.598 295.335 176.036C301.566 170.475 296.493 177.352 296.493 177.352Z" fill="black"/>
<path d="M296.758 176.484C296.344 174.348 295.997 174.348 294.962 172.851C296.799 172.793 299.1 172.164 301.905 173.728C304.33 175.292 304.926 178.246 304.049 180.977C304.016 181.077 304.005 181.182 304.017 181.286C304.028 181.391 304.061 181.491 304.115 181.581C304.175 181.679 304.258 181.762 304.356 181.822C304.454 181.882 304.565 181.917 304.679 181.926C304.794 181.935 304.909 181.917 305.015 181.873C305.121 181.828 305.215 181.76 305.29 181.672C305.977 180.83 306.44 179.828 306.639 178.759C306.837 177.691 306.763 176.589 306.424 175.557C308.633 176.599 311.141 178.147 312.299 180.299C313.574 182.657 312.382 187.647 310.28 189.517C310.19 189.594 310.131 189.7 310.111 189.817C310.091 189.933 310.113 190.053 310.173 190.155C310.207 190.216 310.254 190.269 310.31 190.311C310.367 190.353 310.431 190.383 310.499 190.399C310.567 190.416 310.638 190.418 310.707 190.406C310.776 190.393 310.842 190.367 310.901 190.328C311.917 189.738 312.791 188.93 313.458 187.962C313.859 187.438 314.123 186.822 314.227 186.171C314.331 185.519 314.271 184.852 314.054 184.229C316.925 185.057 318.597 191.611 318.299 191.504C317.587 193.647 315.345 195.393 314.228 196.146C314.037 196.277 313.898 196.47 313.835 196.692C313.772 196.914 313.787 197.151 313.88 197.363C313.937 197.495 314.022 197.614 314.129 197.71C314.236 197.807 314.362 197.879 314.5 197.922C314.637 197.966 314.782 197.979 314.925 197.961C315.068 197.943 315.206 197.894 315.328 197.818C316.495 197.098 318.291 195.848 318.903 194.657C319.789 195.484 319.532 197.139 319.358 198.306C318.796 202.105 315.568 204.488 312.945 206.979C309.88 207.659 306.687 207.467 303.726 206.424C301.581 205.614 299.833 204.003 298.852 201.931V201.873C300.987 201.691 303.354 201.418 305.53 201.211C305.733 201.188 305.921 201.091 306.057 200.938C306.193 200.786 306.268 200.588 306.266 200.383C306.266 200.164 306.179 199.953 306.024 199.798C305.869 199.643 305.658 199.556 305.439 199.556C302.609 199.514 300.366 199.862 297.47 199.779C296.104 198.198 294.292 192.836 294.722 193.026C297.205 193.208 301.343 194.044 303.751 193.333C303.834 193.307 303.911 193.265 303.978 193.21C304.045 193.155 304.101 193.086 304.142 193.01C304.182 192.933 304.207 192.849 304.216 192.762C304.224 192.675 304.215 192.588 304.189 192.505C304.143 192.373 304.055 192.26 303.938 192.182C303.822 192.104 303.684 192.067 303.544 192.075C300.335 192.277 297.115 191.921 294.027 191.024C292.496 188.251 291.412 186.125 291.445 184.205L298.893 184.478C299.045 184.479 299.192 184.426 299.307 184.328C299.423 184.23 299.501 184.095 299.526 183.945C299.551 183.796 299.521 183.642 299.443 183.512C299.365 183.382 299.244 183.285 299.1 183.236C296.137 182.475 292.48 183.096 290.286 181.052C290.286 181.052 287.498 177.543 288.813 175.871C291.213 177.684 296.948 177.419 296.758 176.484Z" fill="#21A6DF"/>
<path opacity="0.1" d="M296.758 176.484C296.344 174.348 295.997 174.348 294.962 172.851C296.799 172.793 299.1 172.164 301.905 173.728C304.33 175.292 304.926 178.246 304.049 180.977C304.016 181.077 304.005 181.182 304.017 181.286C304.028 181.391 304.061 181.491 304.115 181.581C304.175 181.679 304.258 181.762 304.356 181.822C304.454 181.882 304.565 181.917 304.679 181.926C304.794 181.935 304.909 181.917 305.015 181.873C305.121 181.828 305.215 181.76 305.29 181.672C305.977 180.83 306.44 179.828 306.639 178.759C306.837 177.691 306.763 176.589 306.424 175.557C308.633 176.599 311.141 178.147 312.299 180.299C313.574 182.657 312.382 187.647 310.28 189.517C310.19 189.594 310.131 189.7 310.111 189.817C310.091 189.933 310.113 190.053 310.173 190.155C310.207 190.216 310.254 190.269 310.31 190.311C310.367 190.353 310.431 190.383 310.499 190.399C310.567 190.416 310.638 190.418 310.707 190.406C310.776 190.393 310.842 190.367 310.901 190.328C311.917 189.738 312.791 188.93 313.458 187.962C313.859 187.438 314.123 186.822 314.227 186.171C314.331 185.519 314.271 184.852 314.054 184.229C316.925 185.057 318.597 191.611 318.299 191.504C317.587 193.647 315.345 195.393 314.228 196.146C314.037 196.277 313.898 196.47 313.835 196.692C313.772 196.914 313.787 197.151 313.88 197.363C313.937 197.495 314.022 197.614 314.129 197.71C314.236 197.807 314.362 197.879 314.5 197.922C314.637 197.966 314.782 197.979 314.925 197.961C315.068 197.943 315.206 197.894 315.328 197.818C316.495 197.098 318.291 195.848 318.903 194.657C319.789 195.484 319.532 197.139 319.358 198.306C318.796 202.105 315.568 204.488 312.945 206.979C309.88 207.659 306.687 207.467 303.726 206.424C301.581 205.614 299.833 204.003 298.852 201.931V201.873C300.987 201.691 303.354 201.418 305.53 201.211C305.733 201.188 305.921 201.091 306.057 200.938C306.193 200.786 306.268 200.588 306.266 200.383C306.266 200.164 306.179 199.953 306.024 199.798C305.869 199.643 305.658 199.556 305.439 199.556C302.609 199.514 300.366 199.862 297.47 199.779C296.104 198.198 294.292 192.836 294.722 193.026C297.205 193.208 301.343 194.044 303.751 193.333C303.834 193.307 303.911 193.265 303.978 193.21C304.045 193.155 304.101 193.086 304.142 193.01C304.182 192.933 304.207 192.849 304.216 192.762C304.224 192.675 304.215 192.588 304.189 192.505C304.143 192.373 304.055 192.26 303.938 192.182C303.822 192.104 303.684 192.067 303.544 192.075C300.335 192.277 297.115 191.921 294.027 191.024C292.496 188.251 291.412 186.125 291.445 184.205L298.893 184.478C299.045 184.479 299.192 184.426 299.307 184.328C299.423 184.23 299.501 184.095 299.526 183.945C299.551 183.796 299.521 183.642 299.443 183.512C299.365 183.382 299.244 183.285 299.1 183.236C296.137 182.475 292.48 183.096 290.286 181.052C290.286 181.052 287.498 177.543 288.813 175.871C291.213 177.684 296.948 177.419 296.758 176.484Z" fill="black"/>
<path d="M283.17 240.313H297.37C299.814 240.312 302.185 239.478 304.092 237.95C306 236.422 307.33 234.29 307.864 231.905L313.218 207.964H267.314L272.668 231.905C273.202 234.291 274.534 236.424 276.442 237.953C278.351 239.481 280.724 240.314 283.17 240.313Z" fill="#21A6DF"/>
<g opacity="0.3">
<path opacity="0.3" d="M283.17 240.313H297.371C299.815 240.312 302.185 239.478 304.093 237.95C306 236.422 307.33 234.29 307.864 231.905L313.218 207.964H267.314L272.668 231.905C273.202 234.291 274.534 236.424 276.443 237.953C278.352 239.481 280.724 240.314 283.17 240.313Z" fill="black"/>
</g>
<path opacity="0.1" d="M284.204 165.75C285.032 163.268 285.454 163.309 286.935 161.679C284.734 161.315 282.061 160.197 278.461 161.629C275.3 163.119 274.116 166.594 274.729 169.987C274.754 170.111 274.753 170.238 274.724 170.361C274.696 170.484 274.641 170.599 274.563 170.699C274.475 170.808 274.363 170.894 274.235 170.951C274.107 171.008 273.968 171.034 273.828 171.027C273.689 171.02 273.553 170.979 273.431 170.909C273.31 170.839 273.208 170.742 273.131 170.624C272.441 169.502 272.043 168.225 271.975 166.909C271.907 165.593 272.171 164.281 272.742 163.094C269.921 163.988 266.668 165.461 264.93 167.86C263.027 170.484 263.664 176.666 265.89 179.248C265.983 179.358 266.033 179.497 266.033 179.641C266.033 179.784 265.983 179.924 265.89 180.034C265.839 180.103 265.773 180.161 265.698 180.203C265.623 180.245 265.54 180.271 265.454 180.279C265.368 180.287 265.281 180.276 265.199 180.248C265.118 180.22 265.043 180.175 264.98 180.116C263.856 179.246 262.937 178.139 262.29 176.872C261.612 175.399 261.306 173.662 262.175 172.296C258.583 172.842 255.554 180.439 255.918 180.356C256.423 183.046 258.848 185.496 260.056 186.58C260.264 186.766 260.4 187.019 260.443 187.295C260.485 187.572 260.43 187.854 260.288 188.094C260.199 188.244 260.078 188.373 259.934 188.473C259.791 188.572 259.627 188.639 259.455 188.67C259.284 188.701 259.107 188.694 258.938 188.65C258.769 188.606 258.611 188.527 258.475 188.417C257.185 187.366 255.231 185.578 254.685 184.056C253.494 184.883 253.535 186.911 253.56 188.367C253.626 193.018 257.127 196.386 259.882 199.796C263.451 201.104 267.315 201.391 271.038 200.623C273.743 199.988 276.098 198.33 277.608 195.997V195.939C275.076 195.385 272.279 194.665 269.697 194.077C269.457 194.025 269.246 193.885 269.104 193.684C268.963 193.483 268.903 193.236 268.936 192.993C268.975 192.742 269.109 192.516 269.311 192.361C269.513 192.207 269.767 192.137 270.02 192.166C273.421 192.571 276.061 193.341 279.553 193.705C281.44 192.05 284.469 185.876 283.914 186.042C280.927 185.86 275.854 186.207 273.032 184.966C272.837 184.871 272.687 184.704 272.614 184.499C272.542 184.295 272.552 184.07 272.643 183.874C272.724 183.73 272.846 183.614 272.994 183.54C273.141 183.466 273.307 183.438 273.471 183.46C277.289 184.216 281.209 184.3 285.056 183.708C287.332 180.621 288.971 178.238 289.236 175.937L280.224 175.11C280.033 175.099 279.853 175.017 279.719 174.88C279.585 174.743 279.507 174.562 279.5 174.371C279.492 174.179 279.557 173.993 279.68 173.846C279.803 173.7 279.976 173.604 280.166 173.579H280.215C283.89 173.148 288.201 174.464 291.147 172.371C291.147 172.371 295.045 168.589 293.737 166.379C290.667 168.076 283.865 166.867 284.204 165.75Z" fill="white"/>
<path d="M259.171 91.8089C258.749 92.1234 258.443 92.3551 258.07 92.6365C257.698 92.9178 257.367 93.1247 257.011 93.3647C256.299 93.8364 255.571 94.275 254.835 94.7136C253.344 95.5892 251.805 96.3794 250.225 97.0804C248.576 97.8187 246.868 98.4194 245.119 98.8762C244.183 99.1257 243.233 99.3137 242.272 99.4389C241.784 99.4969 241.271 99.5217 240.75 99.5631H239.922H239.409L238.863 99.5217C237.596 99.3699 236.369 98.9796 235.246 98.3714C234.332 97.883 233.47 97.3036 232.673 96.6418C231.281 95.4726 230.017 94.1607 228.899 92.7275C226.822 90.0593 225.074 87.1501 223.694 84.0631L227.509 81.688C229.499 83.936 231.612 86.0716 233.84 88.0849C234.85 89.0079 235.942 89.8388 237.1 90.5676C237.568 90.8585 238.064 91.0998 238.581 91.2876C238.878 91.4058 239.197 91.4594 239.517 91.4448H239.599L239.988 91.3869C240.261 91.3372 240.535 91.2876 240.816 91.2048C241.387 91.0641 241.983 90.8821 242.587 90.6752C243.868 90.1985 245.12 89.6458 246.336 89.0201C247.593 88.3663 248.86 87.6712 250.101 86.9098C250.705 86.5623 251.334 86.1402 251.955 85.7513L252.865 85.1554L255.348 83.5003L259.171 91.8089Z" fill="#21A6DF"/>
<path opacity="0.2" d="M259.171 91.8089C258.749 92.1234 258.443 92.3551 258.07 92.6365C257.698 92.9178 257.367 93.1247 257.011 93.3647C256.299 93.8364 255.571 94.275 254.835 94.7136C253.344 95.5892 251.805 96.3794 250.225 97.0804C248.576 97.8187 246.868 98.4194 245.119 98.8762C244.183 99.1257 243.233 99.3137 242.272 99.4389C241.784 99.4969 241.271 99.5217 240.75 99.5631H239.922H239.409L238.863 99.5217C237.596 99.3699 236.369 98.9796 235.246 98.3714C234.332 97.883 233.47 97.3036 232.673 96.6418C231.281 95.4726 230.017 94.1607 228.899 92.7275C226.822 90.0593 225.074 87.1501 223.694 84.0631L227.509 81.688C229.499 83.936 231.612 86.0716 233.84 88.0849C234.85 89.0079 235.942 89.8388 237.1 90.5676C237.568 90.8585 238.064 91.0998 238.581 91.2876C238.878 91.4058 239.197 91.4594 239.517 91.4448H239.599L239.988 91.3869C240.261 91.3372 240.535 91.2876 240.816 91.2048C241.387 91.0641 241.983 90.8821 242.587 90.6752C243.868 90.1985 245.12 89.6458 246.336 89.0201C247.593 88.3663 248.86 87.6712 250.101 86.9098C250.705 86.5623 251.334 86.1402 251.955 85.7513L252.865 85.1554L255.348 83.5003L259.171 91.8089Z" fill="black"/>
<path d="M225.423 84.3855L221.848 82.6725L224.728 78.2285C224.728 78.2285 227.749 80.7112 228.038 83.2518L225.423 84.3855Z" fill="#FF8B7B"/>
<path d="M217.976 79.7846L220.392 77.0371L224.737 78.2371L221.849 82.6727L217.976 79.7846Z" fill="#FF8B7B"/>
<path d="M293.481 242.034C293.863 241.121 294.401 240.281 295.07 239.551C295.07 239.551 297.76 234.925 295.683 226.89L299.382 223.638C300.39 223.645 301.357 224.042 302.079 224.747C302.551 225.265 302.983 225.818 303.37 226.402C304.728 228.727 307.699 234.065 307.699 234.065L307.144 234.371C306.168 232.791 305.101 231.269 303.95 229.811C302.733 228.446 302.758 230.879 303.205 232.939C303.652 235 302.328 238.261 298.802 240.387C294.723 242.936 292.91 243.739 293.481 242.034Z" fill="#263238"/>
<path d="M300.259 231.028C300.259 232.393 301.177 234.802 299.961 236.597C299.42 237.427 298.699 238.124 297.853 238.639C297.007 239.153 296.056 239.47 295.07 239.568C295.07 239.568 297.172 235.968 296.229 229.596C296.092 228.691 295.91 227.794 295.682 226.907C295.682 226.907 298.893 224.532 300.366 224.201L301.144 226.319C301.017 227.724 300.74 229.111 300.317 230.457C300.261 230.642 300.241 230.836 300.259 231.028Z" fill="#FF8B7B"/>
<path d="M301.144 226.319C301.017 227.724 300.74 229.111 300.317 230.457C300.252 230.64 300.224 230.834 300.234 231.028L297.205 232.31L296.204 229.596L292.646 219.922L297.95 217.671L300.342 224.2L301.144 226.319Z" fill="#FF8B7B"/>
<path opacity="0.2" d="M297.975 217.68L292.67 219.922L294.483 224.838H294.549C295.529 224.884 296.507 224.72 297.418 224.356C298.329 223.992 299.151 223.436 299.829 222.728L297.975 217.68Z" fill="black"/>
<path d="M253.08 239.005C253.893 238.471 254.787 238.074 255.728 237.83C255.728 237.83 260.487 235.389 263.06 227.494L268.026 226.493C268.46 226.705 268.846 227.004 269.161 227.371C269.475 227.739 269.711 228.166 269.855 228.628C269.896 229.494 269.88 230.362 269.805 231.226C269.722 233.932 269.275 240.942 269.275 240.942H268.638C268.684 238.788 268.617 236.634 268.44 234.487C268.15 232.683 266.859 234.735 266.122 236.721C265.386 238.707 262.523 240.718 258.393 240.627C253.602 240.42 251.657 240.114 253.08 239.005Z" fill="#263238"/>
<path d="M267.256 230.382C266.697 231.355 265.971 232.223 265.113 232.947C264.12 233.7 263.789 236.919 261.472 237.913C260.568 238.326 259.584 238.534 258.591 238.519C257.597 238.505 256.62 238.269 255.729 237.83C255.729 237.83 259.312 235.993 261.952 230.332C262.556 229.021 262.73 227.552 262.448 226.137L260.694 216.942L266.718 216.156L268.241 227.13C268.345 228.3 267.992 229.466 267.256 230.382Z" fill="#FF8B7B"/>
<path opacity="0.2" d="M260.181 213.459L261.571 221.536L262.092 221.66C262.988 221.863 263.916 221.872 264.816 221.687C265.715 221.501 266.564 221.125 267.306 220.584L266.28 212.764L260.181 213.459Z" fill="black"/>
<path d="M280.274 87.4643C280.27 87.2346 280.253 87.0053 280.224 86.7774C280.115 85.7956 279.813 84.8451 279.336 83.9803C278.858 83.1156 278.214 82.3537 277.442 81.7385C276.669 81.1233 275.782 80.6669 274.832 80.3955C273.882 80.1241 272.888 80.043 271.907 80.157H271.775C271.27 80.2149 270.749 80.2894 270.235 80.3639C266.733 80.8233 263.268 81.5313 259.866 82.4824C259.287 82.6397 258.691 82.83 258.112 83.0203C257.326 83.2851 256.54 83.5582 255.795 83.8479C254.092 84.4735 252.673 85.6932 251.799 87.2823C250.924 88.8713 250.654 90.7228 251.036 92.4958C252.207 98.9586 254.297 105.22 257.243 111.091C258.219 113.027 258.368 116.95 259.196 119.366L282.003 114.749V114.79C280.927 107.607 280.464 95.417 280.274 87.4643Z" fill="#263238"/>
<path d="M259.212 119.317C259.212 119.317 257.946 148.447 256.813 170.807C255.919 188.591 259.386 218.971 259.386 218.971C262.534 219.773 265.87 219.309 268.68 217.68C268.812 219.111 270.053 189.708 268.68 172.777C275.085 148.008 284.478 124.597 277.543 115.477L259.212 119.317Z" fill="#263238"/>
<path opacity="0.3" d="M270.062 136.414L279.471 131.076C278.197 139.906 274.746 151.004 271.394 162.846C268.779 153.42 267.562 143.597 270.062 136.414Z" fill="black"/>
<path d="M263.301 120.028C263.301 120.028 269.54 142.596 273.562 164.22C275.308 179.761 292.033 222.247 292.033 222.247L294.913 221.701C296.28 221.437 297.546 220.798 298.571 219.856L299.539 218.97C299.539 218.97 294.574 188.177 289.782 176.186C289.898 151.128 290.361 124.125 280.944 115.717L263.301 120.028Z" fill="#263238"/>
<path d="M270.732 80.1902C270.732 80.1902 268.34 106.862 274.39 141.52C284.32 140.924 290.452 138.168 290.452 138.168C290.452 138.168 288.417 119.375 282.293 109.792C281.242 103.072 282.185 88.7388 281.556 83.5087C281.442 82.5917 281.028 81.7382 280.379 81.081C279.729 80.4239 278.88 80.0001 277.965 79.8757C275.55 79.7017 273.123 79.8073 270.732 80.1902Z" fill="#21A6DF"/>
<path opacity="0.1" d="M270.732 80.1902C270.732 80.1902 268.34 106.862 274.39 141.52C284.32 140.924 290.452 138.168 290.452 138.168C290.452 138.168 288.417 119.375 282.293 109.792C281.242 103.072 282.185 88.7388 281.556 83.5087C281.442 82.5917 281.028 81.7382 280.379 81.081C279.729 80.4239 278.88 80.0001 277.965 79.8757C275.55 79.7017 273.123 79.8073 270.732 80.1902Z" fill="black"/>
<path d="M259.775 82.1182C259.775 82.1182 258.476 94.7549 266.602 142.174C263.383 143.878 256.506 143.291 256.506 143.291C256.506 143.291 256.622 127.501 257.698 114.889C258.219 108.757 253.775 107.847 251.268 101.069C250.035 93.2239 250.78 86.8435 251.888 85.9415C253.684 84.4932 256.63 82.5154 259.775 82.1182Z" fill="#21A6DF"/>
<path opacity="0.1" d="M259.775 82.1182C259.775 82.1182 258.476 94.7549 266.602 142.174C263.383 143.878 256.506 143.291 256.506 143.291C256.506 143.291 256.622 127.501 257.698 114.889C258.219 108.757 253.775 107.847 251.268 101.069C250.035 93.2239 250.78 86.8435 251.888 85.9415C253.684 84.4932 256.63 82.5154 259.775 82.1182Z" fill="black"/>
<path opacity="0.7" d="M270.624 80.1157C270.624 80.1157 270.161 91.0311 270.326 99.0169C271.154 93.3647 273.157 87.9608 273.099 86.1733C272.522 85.8671 271.969 85.5185 271.444 85.1306C272.081 84.6098 272.775 84.1628 273.513 83.7983C273.611 82.46 273.631 81.117 273.57 79.7764C271.973 79.9171 270.624 80.1157 270.624 80.1157Z" fill="white"/>
<path opacity="0.7" d="M259.866 82.019C259.702 88.3338 259.979 94.6523 260.694 100.929C258.931 95.8888 256.655 91.0724 256.862 89.1773C257.781 88.4077 258.592 87.5222 258.592 87.5222C258.007 87.1572 257.363 86.8968 256.688 86.7526C256.713 85.3434 256.821 83.9369 257.011 82.5404C258.575 82.2508 259.866 82.019 259.866 82.019Z" fill="white"/>
<path d="M278.9 84.0052C278.153 85.3236 277.943 86.8795 278.315 88.3486C278.686 89.8178 279.61 91.0869 280.894 91.8917H280.944C282.599 92.9096 284.171 93.9358 285.711 94.9868C287.25 96.0377 288.756 97.1301 290.121 98.2142C290.763 98.7331 291.376 99.2856 291.959 99.8693C292.191 100.095 292.412 100.333 292.621 100.581C292.794 100.78 292.877 100.929 292.852 100.829L292.637 99.6955C292.72 100.412 292.572 101.137 292.215 101.764C291.701 102.851 291.068 103.878 290.328 104.826C289.518 105.909 288.648 106.945 287.722 107.93C286.803 108.956 285.769 109.982 284.825 110.934L287.266 114.699C288.7 114.037 290.083 113.271 291.404 112.407C292.76 111.536 294.046 110.562 295.252 109.494C296.58 108.341 297.754 107.023 298.745 105.571C299.384 104.607 299.896 103.564 300.267 102.468C300.618 101.417 300.786 100.315 300.764 99.2073V98.7521L300.565 98.1645C300.319 97.4427 299.992 96.7513 299.589 96.104C299.168 95.4355 298.697 94.7992 298.182 94.2006C297.43 93.3228 296.622 92.4936 295.765 91.7179C294.207 90.2854 292.569 88.9426 290.858 87.696C289.203 86.463 287.506 85.3127 285.802 84.212C284.097 83.1114 282.392 82.0687 280.555 81.0591L278.9 84.0052Z" fill="#21A6DF"/>
<path d="M287.68 111.041C285.879 110.427 283.917 110.48 282.152 111.19L284.238 117.504L287.49 114.682L287.68 111.041Z" fill="#FF8B7B"/>
<path d="M284.238 117.504L282.152 111.19L278.949 114.724L281.647 119.085L284.238 117.504Z" fill="#FF8B7B"/>
<path d="M256.779 79.5613C255.467 71.7775 256.567 63.7785 259.932 56.6382C263.872 48.3627 280.315 54.1555 277.832 68.0418C276.368 76.2263 272.867 74.836 279.049 80.3061C282.616 83.4508 272.097 84.2701 271.229 82.1681C271.229 82.1681 267.471 82.5239 264.865 80.4137C264.832 80.4137 257.441 83.848 256.779 79.5613Z" fill="#263238"/>
<path d="M263.176 87.8036C266.76 88.3828 269.06 83.7982 269.962 81.5307H269.557C268.531 78.6757 269.259 74.0331 269.929 71.2856L263.309 76.4909C263.714 78.6095 263.78 80.8107 261.819 81.9859C261.422 82.0521 260.992 82.1348 260.636 82.2176C260.197 84.3196 260.156 87.3236 263.176 87.8036Z" fill="#FF8B7B"/>
<path opacity="0.2" d="M267.083 73.4209L263.177 76.4994C263.308 77.1153 263.391 77.7407 263.425 78.3696C264.865 78.2207 267.074 77.029 267.289 75.5312C267.345 74.821 267.275 74.1067 267.083 73.4209Z" fill="black"/>
<path d="M273.446 66.4035C271.336 71.617 270.558 73.8514 266.958 75.7051C261.538 78.4691 255.588 74.7452 256.093 69.002C256.548 63.8298 259.916 56.1667 265.833 55.7612C267.139 55.6716 268.446 55.9173 269.63 56.475C270.814 57.0327 271.836 57.8838 272.599 58.9476C273.362 60.0114 273.84 61.2525 273.988 62.553C274.137 63.8536 273.95 65.1705 273.446 66.3786V66.4035Z" fill="#FF8B7B"/>
<path d="M261.025 64.7314C260.306 65.594 259.471 66.3516 258.542 66.9824C258.706 67.2185 258.92 67.4152 259.169 67.5584C259.418 67.7015 259.696 67.7874 259.982 67.8099L261.025 64.7314Z" fill="#D85B5B"/>
<path d="M266.487 63.9706C266.524 63.9832 266.565 63.9832 266.603 63.9706C266.63 63.9598 266.654 63.9436 266.675 63.923C266.696 63.9023 266.712 63.8777 266.723 63.8506C266.733 63.8235 266.739 63.7945 266.738 63.7654C266.737 63.7362 266.731 63.7075 266.718 63.681C266.559 63.2938 266.308 62.9505 265.989 62.6799C265.669 62.4092 265.289 62.219 264.881 62.1252C264.822 62.1153 264.761 62.1294 264.712 62.1643C264.663 62.1992 264.63 62.2521 264.621 62.3114C264.611 62.3706 264.625 62.4314 264.66 62.4803C264.695 62.5291 264.747 62.5622 264.807 62.572C265.143 62.654 265.454 62.8144 265.716 63.0403C265.978 63.2662 266.183 63.551 266.313 63.8713C266.332 63.9002 266.358 63.9243 266.388 63.9415C266.418 63.9587 266.452 63.9687 266.487 63.9706Z" fill="#263238"/>
<path d="M258.351 60.7345C258.39 60.7431 258.429 60.7431 258.467 60.7345C258.784 60.5985 259.127 60.5389 259.471 60.5605C259.815 60.582 260.148 60.6842 260.445 60.8587C260.469 60.8763 260.496 60.889 260.525 60.896C260.554 60.9031 260.584 60.9043 260.613 60.8997C260.642 60.8951 260.67 60.8847 260.695 60.8691C260.721 60.8535 260.742 60.8331 260.76 60.809C260.792 60.7592 260.804 60.6987 260.794 60.6402C260.783 60.5816 260.75 60.5295 260.702 60.4946C260.343 60.2762 259.937 60.1464 259.519 60.1162C259.1 60.086 258.68 60.1561 258.294 60.3208C258.266 60.33 258.241 60.3447 258.219 60.364C258.197 60.3834 258.18 60.4069 258.167 60.4332C258.155 60.4595 258.148 60.488 258.147 60.517C258.146 60.5461 258.151 60.575 258.161 60.6021C258.176 60.6421 258.202 60.6771 258.235 60.7034C258.269 60.7297 258.309 60.7462 258.351 60.7511V60.7345Z" fill="#263238"/>
<path d="M264.327 65.0379C264.186 65.4682 263.838 65.7413 263.549 65.6503C263.259 65.5592 263.151 65.1289 263.309 64.6903C263.466 64.2517 263.797 63.9869 264.078 64.0779C264.36 64.169 264.476 64.5993 264.327 65.0379Z" fill="#263238"/>
<path d="M259.428 63.3989C259.279 63.8292 258.931 64.1023 258.65 64.0113C258.368 63.9203 258.252 63.4899 258.401 63.0596C258.55 62.6293 258.89 62.3479 259.171 62.4472C259.452 62.5465 259.577 62.9603 259.428 63.3989Z" fill="#263238"/>
<path d="M259.287 62.5054L258.352 61.8599C258.352 61.8599 258.617 62.8529 259.287 62.5054Z" fill="#263238"/>
<path d="M264.194 64.144L263.251 63.4985C263.251 63.4985 263.516 64.4916 264.194 64.144Z" fill="#263238"/>
<path d="M263.218 70.905C263.501 70.8277 263.778 70.7281 264.045 70.6071C264.082 70.5891 264.111 70.558 264.127 70.5197C264.142 70.4814 264.142 70.4388 264.128 70.4002C264.11 70.3632 264.079 70.3342 264.041 70.3188C264.002 70.3035 263.96 70.3031 263.921 70.3175C263.313 70.6029 262.647 70.7418 261.976 70.7231C261.305 70.7045 260.647 70.5287 260.056 70.2099C260.039 70.198 260.019 70.1895 259.999 70.1852C259.978 70.1808 259.957 70.1805 259.936 70.1843C259.915 70.1882 259.896 70.1961 259.878 70.2075C259.86 70.219 259.845 70.2339 259.833 70.2513C259.821 70.2687 259.813 70.2882 259.808 70.3089C259.804 70.3295 259.804 70.3508 259.807 70.3716C259.811 70.3923 259.819 70.4121 259.831 70.4298C259.842 70.4475 259.857 70.4628 259.874 70.4747C260.892 71.0416 262.089 71.1956 263.218 70.905Z" fill="#263238"/>
<path d="M263.929 57.4242C263.929 57.4242 262.117 58.9221 263.193 60.3703C264.268 61.8185 267.604 61.1979 268.241 63.9702C268.878 66.7424 267.67 68.8858 269.681 69.763C271.692 70.6402 273.62 67.8927 273.62 67.8927C273.62 67.8927 276.789 61.4378 272.875 57.9621C268.961 54.4864 264.409 53.2699 261.687 54.8423C258.964 56.4146 257.441 57.5484 258.451 58.227C259.46 58.9055 261.033 59.3938 261.711 58.7152C262.31 58.0796 263.081 57.6312 263.929 57.4242Z" fill="#263238"/>
<path d="M273.297 71.0291C272.665 71.9055 271.714 72.4995 270.649 72.6842C269.226 72.9159 268.671 71.6084 269.193 70.3422C269.664 69.2167 270.972 67.7189 272.346 68.0582C272.819 68.1931 273.22 68.51 273.46 68.9396C273.7 69.3692 273.761 69.8764 273.628 70.3505C273.57 70.5985 273.457 70.8303 273.297 71.0291Z" fill="#FF8B7B"/>
<path d="M259.784 82.309C260.281 82.0071 260.858 81.8629 261.439 81.8953C261.439 81.8953 259.833 86.993 263.491 87.2826C267.149 87.5723 269.904 81.316 269.904 81.316C270.155 81.2209 270.425 81.1849 270.691 81.2108C270.958 81.2366 271.216 81.3236 271.444 81.4649C271.444 81.4649 268.547 88.7143 263.507 88.5074C258.468 88.3005 259.784 82.309 259.784 82.309Z" fill="#21A6DF"/>
<path opacity="0.7" d="M259.784 82.309C260.281 82.0071 260.858 81.8629 261.439 81.8953C261.439 81.8953 259.833 86.993 263.491 87.2826C267.149 87.5723 269.904 81.316 269.904 81.316C270.155 81.2209 270.425 81.1849 270.691 81.2108C270.958 81.2366 271.216 81.3236 271.444 81.4649C271.444 81.4649 268.547 88.7143 263.507 88.5074C258.468 88.3005 259.784 82.309 259.784 82.309Z" fill="white"/>
<path d="M270.285 66.6183L266.768 65.2528C266.652 64.2598 265.394 63.7715 264.856 63.5563C264.318 63.3412 262.953 62.8198 262.208 63.5977L260.983 63.126C260.983 62.0502 259.618 61.5206 259.055 61.3054C258.493 61.0902 256.672 60.3785 256.093 61.8681C255.916 62.4846 255.976 63.1448 256.261 63.7193C256.545 64.2939 257.034 64.7415 257.632 64.9745C258.229 65.2075 258.892 65.209 259.491 64.9788C260.089 64.7487 260.58 64.3034 260.868 63.7301C260.899 63.6522 260.924 63.572 260.942 63.4901L261.993 63.8956C261.951 63.9668 261.915 64.0415 261.885 64.1191C261.709 64.7355 261.769 65.3957 262.054 65.9703C262.338 66.5449 262.827 66.9925 263.425 67.2254C264.022 67.4584 264.685 67.46 265.284 67.2298C265.882 66.9996 266.373 66.5543 266.66 65.9811C266.708 65.8669 266.741 65.7474 266.76 65.6252L270.153 66.9493C270.62 67.1279 271.009 67.4647 271.253 67.901L271.56 67.7272C271.275 67.2221 270.825 66.8306 270.285 66.6183ZM257.773 64.6156C257.247 64.4447 256.81 64.0735 256.556 63.5825C256.302 63.0915 256.251 62.5202 256.415 61.9923C256.73 61.1647 257.483 61.0737 258.898 61.6364C260.313 62.1992 260.826 62.7867 260.512 63.5977C260.276 64.0895 259.859 64.4706 259.348 64.6605C258.837 64.8504 258.272 64.8343 257.773 64.6156ZM263.565 66.8665C263.04 66.6974 262.603 66.3278 262.349 65.8381C262.095 65.3484 262.044 64.7783 262.208 64.2515C262.531 63.4239 263.276 63.3246 264.691 63.8874C266.106 64.4501 266.619 65.0376 266.305 65.8486C266.071 66.3419 265.654 66.7244 265.142 66.9145C264.63 67.1046 264.065 67.0874 263.565 66.8665Z" fill="#263238"/>
<path d="M64.5638 72.5186C64.5638 72.5186 57.8689 73.0151 54.2194 80.6865C50.5699 88.3579 48.079 102.766 56.7021 103.146C65.3251 103.527 64.5472 101.417 64.5472 101.417V97.5768L59.0109 95.9217C58.7352 95.8384 58.4792 95.7002 58.2583 95.5154C58.0373 95.3306 57.8561 95.103 57.7255 94.8463C57.5948 94.5897 57.5174 94.3092 57.498 94.0218C57.4785 93.7345 57.5175 93.4461 57.6124 93.1742L60.5253 84.8987L64.5638 72.5186Z" fill="#21A6DF"/>
<path opacity="0.2" d="M64.5638 72.5186C64.5638 72.5186 57.8689 73.0151 54.2194 80.6865C50.5699 88.3579 48.079 102.766 56.7021 103.146C65.3251 103.527 64.5472 101.417 64.5472 101.417V97.5768L59.0109 95.9217C58.7352 95.8384 58.4792 95.7002 58.2583 95.5154C58.0373 95.3306 57.8561 95.103 57.7255 94.8463C57.5948 94.5897 57.5174 94.3092 57.498 94.0218C57.4785 93.7345 57.5175 93.4461 57.6124 93.1742L60.5253 84.8987L64.5638 72.5186Z" fill="black"/>
<path d="M82.0003 52.6328C82.2816 52.5832 82.5713 52.8811 82.6623 53.3032C82.7533 53.7252 82.5961 54.1307 82.3147 54.1307C82.0334 54.1307 81.7437 53.8907 81.6527 53.4687C81.5617 53.0466 81.7189 52.6825 82.0003 52.6328Z" fill="#263238"/>
<path d="M82.8112 58.2518C83.1786 58.2639 83.5441 58.1962 83.8827 58.0533C84.2213 57.9104 84.5249 57.6958 84.7725 57.4242C83.7059 56.4764 82.7732 55.3878 82.0002 54.1885L82.8112 58.2518Z" fill="#EC837E"/>
<path d="M79.799 51.4082C80.0056 51.1615 80.268 50.9676 80.5644 50.8424C80.8608 50.7172 81.1828 50.6644 81.5037 50.6883C81.5306 50.6971 81.5596 50.6971 81.5865 50.6883C81.6545 50.6883 81.7197 50.6612 81.7679 50.6131C81.816 50.565 81.843 50.4998 81.843 50.4317C81.8442 50.3977 81.8383 50.3638 81.8258 50.3322C81.8133 50.3005 81.7945 50.2718 81.7704 50.2478C81.7464 50.2237 81.7176 50.2048 81.686 50.1924C81.6543 50.1799 81.6205 50.174 81.5865 50.1752C81.1863 50.1275 80.7806 50.1779 80.4042 50.3221C80.0279 50.4662 79.6924 50.6999 79.4266 51.0027C79.3842 51.0508 79.3607 51.1125 79.3604 51.1765C79.3623 51.2447 79.3897 51.3097 79.4372 51.3587C79.4847 51.4078 79.5488 51.4372 79.6169 51.4413C79.6796 51.4499 79.7433 51.4383 79.799 51.4082Z" fill="#263238"/>
<path d="M78.0363 65.8653C77.2584 68.9355 77.2088 72.7423 80.5769 73.785C80.5769 73.785 84.7643 77.2938 76.704 77.2938C69.3884 77.2938 68.3043 73.2967 68.3043 73.2967C71.0683 70.6568 70.5966 65.2033 69.827 61.2559L78.0363 65.8653Z" fill="#FFC2BC"/>
<path d="M65.3169 72.6183C65.3169 72.6183 66.641 69.1095 68.445 68.0668C70.2491 67.0241 77.8295 68.5799 79.0046 69.1012C80.1797 69.6226 81.2555 72.4114 81.2555 72.4114L65.3169 72.6183Z" fill="#21A6DF"/>
<path opacity="0.2" d="M65.3169 72.6183C65.3169 72.6183 66.641 69.1095 68.445 68.0668C70.2491 67.0241 77.8295 68.5799 79.0046 69.1012C80.1797 69.6226 81.2555 72.4114 81.2555 72.4114L65.3169 72.6183Z" fill="black"/>
<path d="M76.8612 235.298C76.8355 235.295 76.8116 235.283 76.7929 235.265C76.7743 235.246 76.7618 235.223 76.7572 235.197C76.7526 235.172 76.7562 235.145 76.7674 235.122C76.7787 235.098 76.797 235.079 76.8198 235.067C76.9191 235.017 78.806 233.949 79.6997 234.189C79.7849 234.209 79.8654 234.246 79.9364 234.297C80.0075 234.348 80.0676 234.413 80.1135 234.487C80.1697 234.569 80.1998 234.666 80.1998 234.765C80.1998 234.864 80.1697 234.96 80.1135 235.042C79.89 235.356 79.2859 235.456 78.5246 235.456C77.9668 235.448 77.4105 235.396 76.8612 235.298ZM79.3439 234.396C78.5999 234.486 77.8804 234.719 77.2253 235.083C78.2267 235.224 79.5921 235.216 79.8404 234.868C79.8983 234.818 79.9232 234.744 79.8404 234.587C79.8144 234.541 79.7786 234.502 79.7357 234.472C79.6928 234.442 79.6438 234.422 79.5921 234.413C79.5102 234.396 79.4258 234.396 79.3439 234.413V234.396Z" fill="#21A6DF"/>
<path d="M76.8115 235.273C76.7792 235.243 76.7587 235.202 76.7535 235.158C76.79 234.392 77.0813 233.661 77.5811 233.08C77.6796 232.996 77.7942 232.933 77.918 232.894C78.0418 232.856 78.1722 232.843 78.3011 232.857C78.6569 232.898 78.781 233.08 78.781 233.221C78.8803 233.85 77.5894 234.992 76.9356 235.29H76.886C76.8602 235.29 76.8349 235.284 76.8115 235.273ZM78.2349 233.105C78.1501 233.105 78.0661 233.121 77.9878 233.154C77.9096 233.187 77.8388 233.235 77.7797 233.296C77.3753 233.76 77.1239 234.338 77.0597 234.951C77.7301 234.545 78.599 233.627 78.5411 233.296C78.5411 233.296 78.541 233.155 78.2928 233.155H78.2183L78.2349 233.105Z" fill="#21A6DF"/>
<path d="M71.5152 222.678H76.9026L76.3646 235.157H70.9773L71.5152 222.678Z" fill="#FFC2BC"/>
<path d="M77.6309 234.958C81.2721 237.201 82.3975 237.3 86.6098 238.269C87.5366 238.467 86.9243 240.702 84.7147 240.702C81.0569 240.702 80.6762 240.536 77.5564 240.536C74.8834 240.536 71.8215 240.652 69.6946 240.693C69.6315 240.702 69.5675 240.702 69.5043 240.693C69.3035 240.646 69.1297 240.521 69.021 240.346C68.9124 240.17 68.8779 239.959 68.925 239.758L69.9843 234.975C70.0085 234.87 70.0673 234.776 70.1514 234.708C70.2355 234.641 70.3399 234.604 70.4477 234.603H76.3316C76.7892 234.599 77.2388 234.722 77.6309 234.958Z" fill="#263238"/>
<path d="M84.1767 72.5355C78.8213 72.1374 73.449 72.0131 68.0809 72.1631C66.674 72.2624 65.2755 72.4031 63.8852 72.5769C63.1909 72.6653 62.5216 72.893 61.9175 73.2464C61.3134 73.5997 60.7869 74.0715 60.3696 74.6334C59.9523 75.1952 59.6527 75.8356 59.4889 76.516C59.3251 77.1964 59.3005 77.9029 59.4164 78.5932C62.6107 97.7427 61.0053 116.528 60.5667 120.302L89.3572 120.029C92.3695 96.3276 91.5667 84.3777 90.4082 78.5766C90.1052 77.0562 89.3469 75.6641 88.2338 74.585C87.1208 73.506 85.7057 72.7911 84.1767 72.5355Z" fill="#21A6DF"/>
<path opacity="0.1" d="M84.1767 72.5355C78.8213 72.1374 73.449 72.0131 68.0809 72.1631C66.674 72.2624 65.2755 72.4031 63.8852 72.5769C63.1909 72.6653 62.5216 72.893 61.9175 73.2464C61.3134 73.5997 60.7869 74.0715 60.3696 74.6334C59.9523 75.1952 59.6527 75.8356 59.4889 76.516C59.3251 77.1964 59.3005 77.9029 59.4164 78.5932C62.6107 97.7427 61.0053 116.528 60.5667 120.302L89.3572 120.029C92.3695 96.3276 91.5667 84.3777 90.4082 78.5766C90.1052 77.0562 89.3469 75.6641 88.2338 74.585C87.1208 73.506 85.7057 72.7911 84.1767 72.5355Z" fill="black"/>
<path opacity="0.2" d="M71.5069 222.686L71.2338 229.116H76.6294L76.9025 222.686H71.5069Z" fill="black"/>
<path d="M67.1209 52.1448C67.4876 50.2437 68.5939 48.5659 70.1967 47.4798C71.7995 46.3936 73.7678 45.988 75.6695 46.352C81.2141 47.3947 83.5064 55.0082 83.3409 59.9404C83.1754 65.4105 77.1756 69.1179 72.3841 65.8904C69.198 63.7388 68.6436 60.6521 67.2615 55.4881C66.9599 54.3991 66.9118 53.2554 67.1209 52.1448Z" fill="#FFC2BC"/>
<path d="M60.9887 118.307C60.9887 118.307 55.469 135.992 51.1988 153.991C45.6294 177.419 32.2065 225.417 32.2065 225.417L41.7068 227.511C41.7068 227.511 61.3032 171.701 66.4506 154.877C71.1593 139.517 79.5838 118.324 79.5838 118.324L60.9887 118.307Z" fill="#263238"/>
<path opacity="0.3" d="M72.4586 137.978C63.9845 161.025 62.1887 167.944 62.0646 168.39C63.0907 154.363 67.3112 138.714 72.4586 137.978C72.8393 137.92 72.111 137.87 72.4586 137.978Z" fill="black"/>
<path d="M70.8532 118.307C70.8532 118.307 70.2242 137.912 69.827 156.209C69.4546 173 69.827 227.875 69.827 227.875H78.9301C78.9301 227.875 85.9394 171.891 87.7931 154.819C89.5889 138.417 89.7792 118.307 89.7792 118.307H70.8532Z" fill="#263238"/>
<path d="M68.478 224.648L68.7842 228.024H79.8817C79.8817 228.024 80.4361 224.234 80.3948 224.234L68.478 224.648Z" fill="#21A6DF"/>
<path d="M31.9418 235.24C31.9328 235.264 31.9169 235.284 31.8962 235.298C31.8755 235.312 31.851 235.32 31.826 235.32C31.8009 235.32 31.7764 235.312 31.7557 235.298C31.735 235.284 31.7191 235.264 31.7101 235.24C31.6604 235.149 30.6012 233.254 30.8826 232.361C30.9254 232.192 31.0323 232.046 31.1805 231.955C31.2633 231.898 31.3614 231.868 31.4618 231.868C31.5623 231.868 31.6604 231.898 31.7432 231.955C32.0494 232.187 32.1404 232.824 32.1404 233.544C32.1222 234.114 32.0557 234.682 31.9418 235.24ZM31.0646 232.716C31.1403 233.459 31.3625 234.179 31.7184 234.835C31.8673 233.834 31.8673 232.476 31.5198 232.22C31.5198 232.162 31.4039 232.137 31.2384 232.22C31.192 232.247 31.1522 232.284 31.1221 232.328C31.092 232.373 31.0724 232.423 31.0646 232.476C31.0481 232.556 31.0481 232.637 31.0646 232.716Z" fill="#21A6DF"/>
<path d="M31.9335 235.29C31.9203 235.308 31.9027 235.322 31.8823 235.331C31.8619 235.339 31.8396 235.342 31.8176 235.34C31.0553 235.301 30.3275 235.01 29.7487 234.512C29.6659 234.413 29.6041 234.298 29.5671 234.174C29.5301 234.05 29.5187 233.92 29.5336 233.792C29.5336 233.444 29.7487 233.329 29.8977 233.329C30.5101 233.229 31.6604 234.529 31.95 235.174V235.224C31.9513 235.247 31.9455 235.27 31.9335 235.29ZM29.8066 233.875C29.8161 234.04 29.8801 234.197 29.9887 234.322C30.4536 234.726 31.0314 234.977 31.6438 235.042C31.2466 234.371 30.3363 233.494 29.9887 233.552C29.9887 233.552 29.848 233.552 29.848 233.8V233.875H29.8066Z" fill="#21A6DF"/>
<path d="M34.292 224.896L39.5469 225.293L37.1222 235.612L31.859 235.24L34.292 224.896Z" fill="#FFC2BC"/>
<path opacity="0.2" d="M34.3582 224.606L33.2906 229.15L38.5456 229.522L39.6214 224.971L34.3582 224.606Z" fill="black"/>
<path d="M30.6342 234.52C29.2191 236.175 28.466 237.061 24.3531 238.36C23.4428 238.641 24.2538 240.843 26.4633 240.619C30.1046 240.296 28.1185 240.305 31.1969 240.023C33.8534 239.792 36.9153 239.643 39.0338 239.494C39.1053 239.502 39.1775 239.502 39.249 239.494C39.4399 239.421 39.597 239.28 39.6902 239.098C39.7834 238.916 39.8061 238.706 39.7538 238.509L38.2725 233.825C38.2407 233.723 38.1747 233.636 38.0858 233.577C37.9968 233.518 37.8903 233.492 37.7842 233.502L31.9252 234.024C31.4463 234.013 30.9825 234.191 30.6342 234.52Z" fill="#263238"/>
<path d="M31.0728 223.638L31.0149 227.072L42.4434 228.297C42.4434 228.297 43.4199 224.589 43.3785 224.589L31.0728 223.638Z" fill="#21A6DF"/>
<path d="M68.9001 45.2428C71.631 44.1918 72.0365 43.9436 73.6337 41.4857C74.5192 40.112 74.395 38.9121 77.0846 38.4735C78.5184 38.2293 79.9924 38.493 81.2526 39.219C82.5128 39.9451 83.4803 41.0881 83.9882 42.451C84.4961 43.8138 84.5126 45.3112 84.0349 46.6849C83.5572 48.0587 82.6152 49.2227 81.3713 49.9764C79.9644 50.8453 82.0499 48.7433 80.5437 49.3806C79.0376 50.0178 79.352 49.2895 79.261 50.9446C79.1865 52.2108 79.9562 53.3528 80.4527 54.5279C80.9492 55.703 81.0651 57.2837 80.0306 58.0285C80.3203 57.0602 77.9618 59.6836 78.0528 60.7097C78.3011 63.5068 75.8184 66.0723 73.0461 66.4529C66.9388 67.2805 62.9252 60.1967 61.1625 55.3224C58.7709 48.8344 62.4535 47.7172 68.9001 45.2428Z" fill="#263238"/>
<path d="M78.8803 53.2202C80.4113 53.6837 81.1892 55.9594 81.2471 57.3994C81.2968 58.9883 80.2292 59.9813 78.8555 58.9055C77.8188 58.0742 77.0834 56.926 76.7618 55.6367C76.406 54.114 77.3494 52.7485 78.8803 53.2202Z" fill="#FFC2BC"/>
<path opacity="0.1" d="M84.2512 72.9744C85.8278 72.8898 87.3894 73.3182 88.7022 74.1954C90.015 75.0726 91.0084 76.3514 91.5336 77.8404C93.0646 81.7298 96.11 90.3695 97.6658 94.8217C97.7476 95.0587 97.8971 95.2666 98.0958 95.4195C98.2945 95.5725 98.5336 95.6639 98.7837 95.6824C99.0338 95.7008 99.2837 95.6456 99.5028 95.5236C99.7218 95.4015 99.9002 95.2179 100.016 94.9955L102.093 91.0812C102.093 91.0812 105.163 91.6605 106.314 94.3417C107.464 97.023 100.521 104.339 96.9127 104.322C92.8577 104.322 87.5945 94.3914 86.1546 89.8647C84.4093 84.4158 83.7624 78.6749 84.2512 72.9744Z" fill="white"/>
<path d="M102.093 92.3469L104.468 88.3167C104.468 88.3167 103.128 85.834 104.005 84.1789C104.882 82.5238 105.751 83.8645 106.603 83.3514C107.456 82.8383 109.367 79.3378 110.286 81.1005C111.204 82.8631 112.346 85.9085 107.613 89.5084L105.056 95.9302L102.093 92.3469Z" fill="#FFC2BC"/>
<path d="M102.449 90.6502C103.488 90.8722 104.446 91.3756 105.218 92.1053C105.99 92.8351 106.547 93.7632 106.827 94.788V94.8707C106.893 95.2431 107.356 97.9989 106.827 98.0485C106.297 98.0982 105.536 95.4583 101.183 93.166C101.12 93.133 101.065 93.0878 101.02 93.0331C100.975 92.9784 100.942 92.9152 100.921 92.8473C100.901 92.7794 100.895 92.7082 100.903 92.6378C100.911 92.5675 100.933 92.4994 100.968 92.4377L101.903 90.8985C101.955 90.8041 102.037 90.7291 102.135 90.6844C102.233 90.6397 102.343 90.6277 102.449 90.6502Z" fill="#21A6DF"/>
<path d="M102.449 90.6502C103.488 90.8722 104.446 91.3756 105.218 92.1053C105.99 92.8351 106.547 93.7632 106.827 94.788V94.8707C106.893 95.2431 107.356 97.9989 106.827 98.0485C106.297 98.0982 105.536 95.4583 101.183 93.166C101.12 93.133 101.065 93.0878 101.02 93.0331C100.975 92.9784 100.942 92.9152 100.921 92.8473C100.901 92.7794 100.895 92.7082 100.903 92.6378C100.911 92.5675 100.933 92.4994 100.968 92.4377L101.903 90.8985C101.955 90.8041 102.037 90.7291 102.135 90.6844C102.233 90.6397 102.343 90.6277 102.449 90.6502Z" fill="#21A6DF"/>
<path d="M84.2512 72.9744C85.8278 72.8898 87.3894 73.3182 88.7022 74.1954C90.015 75.0726 91.0084 76.3514 91.5336 77.8404C93.0646 81.7298 96.11 90.3695 97.6658 94.8217C97.7476 95.0587 97.8971 95.2666 98.0958 95.4195C98.2945 95.5725 98.5336 95.6639 98.7837 95.6824C99.0338 95.7008 99.2837 95.6456 99.5028 95.5236C99.7218 95.4015 99.9002 95.2179 100.016 94.9955L102.093 91.0812C102.093 91.0812 105.163 91.6605 106.314 94.3417C107.464 97.023 100.521 104.339 96.9127 104.322C92.8577 104.322 87.5945 94.3914 86.1546 89.8647C84.4093 84.4158 83.7624 78.6749 84.2512 72.9744Z" fill="#21A6DF"/>
<path opacity="0.1" d="M84.2512 72.9744C85.8278 72.8898 87.3894 73.3182 88.7022 74.1954C90.015 75.0726 91.0084 76.3514 91.5336 77.8404C93.0646 81.7298 96.11 90.3695 97.6658 94.8217C97.7476 95.0587 97.8971 95.2666 98.0958 95.4195C98.2945 95.5725 98.5336 95.6639 98.7837 95.6824C99.0338 95.7008 99.2837 95.6456 99.5028 95.5236C99.7218 95.4015 99.9002 95.2179 100.016 94.9955L102.093 91.0812C102.093 91.0812 105.163 91.6605 106.314 94.3417C107.464 97.023 100.521 104.339 96.9127 104.322C92.8577 104.322 87.5945 94.3914 86.1546 89.8647C84.4093 84.4158 83.7624 78.6749 84.2512 72.9744Z" fill="white"/>
</svg>
