<svg width="37" height="34" viewBox="0 0 37 34" fill="none" xmlns="http://www.w3.org/2000/svg">
<path d="M36.0584 29.514C35.9643 29.514 35.9172 29.514 35.8231 29.4668L7.2022 22.714C6.77854 22.6195 6.49609 22.2418 6.49609 21.8168V7.83897C6.49609 7.41397 6.77854 7.03619 7.2022 6.94175L35.8231 0.0473055C36.1055 8.33121e-05 36.388 0.0473055 36.6233 0.236194C36.8587 0.425083 36.9999 0.708417 36.9999 0.99175V28.6168C36.9999 28.9001 36.8587 29.1834 36.6233 29.3723C36.4821 29.4668 36.2467 29.514 36.0584 29.514ZM8.33197 21.0612L35.117 27.389V2.12508L8.33197 8.54731V21.0612Z" fill="#FEFEFE"/>
<path d="M7.39059 22.7141C7.34351 22.7141 7.34351 22.7141 7.29644 22.7141L2.91857 22.2891C1.27099 22.1474 0 20.778 0 19.078V10.3891C0 8.68908 1.31807 7.27241 3.01272 7.13075L7.29644 6.84741C7.57888 6.84741 7.81425 6.94186 8.00254 7.08352C8.19084 7.22519 8.28499 7.50852 8.28499 7.79186V21.7696C8.28499 22.053 8.19084 22.2891 7.95547 22.478C7.86132 22.6669 7.62595 22.7141 7.39059 22.7141ZM6.44911 8.83075L3.15394 9.01963C2.44784 9.06686 1.88295 9.68075 1.88295 10.3891V19.078C1.88295 19.7863 2.40076 20.353 3.10687 20.4474L6.44911 20.778V8.83075Z" fill="#FEFEFE"/>
<path d="M17.888 17.7556C17.6527 17.7556 17.4644 17.6611 17.2761 17.5195L6.77862 8.54724C6.40203 8.21668 6.35495 7.6028 6.68447 7.22502C7.01399 6.84724 7.62595 6.80002 8.00254 7.13057L17.888 15.5834L32.1514 4.43891C32.5751 4.10835 33.1399 4.2028 33.4695 4.58057C33.799 5.00557 33.7048 5.57224 33.3282 5.9028L18.4529 17.5195C18.3117 17.6611 18.0763 17.7556 17.888 17.7556Z" fill="#FEFEFE"/>
<path d="M12.9924 34.0001C11.2978 34.0001 9.8385 32.3945 9.22654 30.789C8.9441 30.0334 8.9441 29.4195 8.89702 29.1834C8.80287 27.3417 8.84995 24.9806 8.9441 22.3362C8.9441 21.8167 9.36776 21.439 9.88557 21.439H9.93265C10.4505 21.439 10.8741 21.9112 10.827 22.4306C10.7329 25.0279 10.7329 27.3417 10.827 29.089C10.827 29.2306 10.8741 29.6556 11.0153 30.1279C11.3449 31.0723 12.2393 32.1112 12.9924 32.1112C13.2749 32.1112 13.5573 31.9223 13.8868 31.6862C15.6286 30.3167 17.5115 25.8306 18.1235 24.2251C18.2647 23.8001 18.7354 23.564 19.1591 23.6112C19.6298 23.7056 19.9123 24.0834 19.9123 24.5556C19.9123 25.0751 17.4174 31.2612 15.0166 33.1501C14.593 33.5279 13.9339 33.9529 12.9924 34.0001C13.0395 34.0001 13.0395 34.0001 12.9924 34.0001Z" fill="#FEFEFE"/>
</svg>
