<svg width="40" height="46" viewBox="0 0 40 46" fill="none" xmlns="http://www.w3.org/2000/svg">
<path d="M21.4245 0.0557168C9.80057 -0.781662 0 8.31785 0 19.5946C0 25.5679 2.73504 30.8713 7.00855 34.4999C7.52137 34.9465 8.03419 35.3373 8.54701 35.6722C8.71795 35.7839 8.94587 35.7839 9.05983 35.6164L9.45869 35.2815C9.51567 35.2815 9.51567 35.2256 9.57265 35.2256L15.5556 29.5873C15.8974 29.2523 16.0684 28.6941 15.8405 28.3033C15.4986 27.5776 14.5299 27.4659 14.0171 27.9683L8.94587 32.7693C8.94587 32.7693 8.83191 32.881 8.71795 32.881C8.54701 32.881 8.43305 32.7693 8.43305 32.7693C7.12251 31.597 4.2735 28.8615 2.96296 24.3397C2.45014 22.4975 2.22222 20.4878 2.33618 18.4222C2.90598 9.88096 9.97151 2.9028 18.6895 2.28873C29.0598 1.563 37.7208 9.60183 37.7208 19.5946C37.7208 24.5072 35.6125 28.9732 32.2507 32.1552C32.0798 32.2669 31.8519 32.2669 31.7379 32.1552L28.1482 28.6382C27.9772 28.4708 28.0342 28.2475 28.1482 28.1358C30.4843 26.0145 31.9088 22.9999 31.9088 19.5946C31.9088 12.9513 26.2108 7.5363 19.3162 7.92708C13.2764 8.26203 8.31909 13.1747 8.09117 19.0921C7.97721 21.2135 8.49003 23.2232 9.40171 24.9538L9.45869 24.898L9.74359 25.4562C9.91453 25.847 10.3704 26.0703 10.7692 26.0703C11.0541 26.0703 11.339 25.9586 11.567 25.7353C11.9088 25.4004 11.9658 24.898 11.7379 24.4514L10.8262 22.6091C10.8262 22.6091 10.8262 22.5533 10.7692 22.5533C10.4843 21.6043 10.2564 20.6552 10.2564 19.5946C10.2564 14.012 15.2137 9.54601 21.0256 10.2159C25.4131 10.7183 28.9459 14.1237 29.5157 18.4222C29.9715 21.7717 28.547 24.8421 26.2108 26.8518L24.6724 27.8567C24.5014 27.9683 24.4444 28.2475 24.6154 28.4149L25.9829 29.7547L30.1994 33.83L31.6239 35.2256C31.7379 35.3373 31.9658 35.3931 32.1368 35.2815C32.6496 34.8907 33.1624 34.4999 33.6182 34.0533C37.7778 30.2572 40.2849 24.7863 40 18.7572C39.4872 8.82028 31.453 0.72562 21.4245 0.0557168Z" fill="#FEFEFE"/>
<path d="M19.9935 34.4299L14.6752 39.6405L19.9935 44.8511L25.3119 39.6405L19.9935 34.4299Z" stroke="#FEFEFE" stroke-width="2" stroke-miterlimit="10" stroke-linecap="round" stroke-linejoin="round"/>
</svg>
