<svg width="37" height="37" viewBox="0 0 37 37" fill="none" xmlns="http://www.w3.org/2000/svg">
<path d="M2.03855 20.1952C2.03855 14.1446 2.03855 8.09388 2.03855 2.04321H29.3012C29.3012 2.04321 33.9747 2.40834 34.8575 7.36363C35.7403 12.3189 29.9762 14.1967 27.0163 15.0313C25.043 15.6051 15.8516 18.7869 10.0356 20.8733C7.1795 21.8644 5.15428 22.5946 5.15428 22.5946C5.15428 22.5946 2.14241 23.5857 2.03855 26.8197C1.98662 29.1669 2.09048 31.5141 2.03855 33.8614C2.03855 34.1744 2.09048 34.4873 2.29819 34.696C2.71362 35.0611 3.3887 34.9568 3.59641 34.9568C5.77742 34.6438 20.7848 34.6438 23.6409 34.696C26.0816 34.7481 27.7952 34.8525 29.8724 33.8092C31.586 32.9747 33.04 31.6185 33.767 29.845C34.1305 29.0104 35.3768 26.4024 34.546 23.2206C33.9228 20.8733 32.5207 19.4128 31.8457 18.839" stroke="#FEFEFE" stroke-width="3" stroke-miterlimit="10" stroke-linecap="round" stroke-linejoin="round"/>
<path d="M12.4762 13.936C14.0823 13.936 15.3843 12.6282 15.3843 11.015C15.3843 9.40178 14.0823 8.09399 12.4762 8.09399C10.8702 8.09399 9.56824 9.40178 9.56824 11.015C9.56824 12.6282 10.8702 13.936 12.4762 13.936Z" stroke="#FEFEFE" stroke-width="3" stroke-miterlimit="10" stroke-linecap="round" stroke-linejoin="round"/>
<path d="M22.7062 28.4368C24.3122 28.4368 25.6142 27.129 25.6142 25.5157C25.6142 23.9025 24.3122 22.5947 22.7062 22.5947C21.1001 22.5947 19.7982 23.9025 19.7982 25.5157C19.7982 27.129 21.1001 28.4368 22.7062 28.4368Z" stroke="#FEFEFE" stroke-width="3" stroke-miterlimit="10" stroke-linecap="round" stroke-linejoin="round"/>
</svg>
