<svg width="38" height="37" viewBox="0 0 38 37" fill="none" xmlns="http://www.w3.org/2000/svg">
<path d="M11.3185 6.24452C11.3185 6.24452 11.4955 2.15935 15.9213 1.16724H35.9851V28.2461C35.9851 28.2461 35.159 35.4827 27.7236 35.7161C20.2292 36.0079 7.95483 35.7161 7.95483 35.7161C7.95483 35.7161 11.2595 34.1404 11.4365 30.7556C11.6135 27.3123 11.3185 6.24452 11.3185 6.24452Z" stroke="#21A6DF" stroke-width="3" stroke-miterlimit="10" stroke-linecap="round" stroke-linejoin="round"/>
<path d="M11.3776 11.2051H5.88956C5.88956 11.2051 1.46373 11.4969 1.40471 16.0489C1.3457 20.601 1.3457 31.3975 1.3457 31.3975C1.3457 31.3975 2.23087 35.8912 7.60089 35.8328C7.60089 35.8328 10.3744 34.8991 11.2596 31.806" stroke="#21A6DF" stroke-width="3" stroke-miterlimit="10" stroke-linecap="round" stroke-linejoin="round"/>
<path d="M22.9437 8.57886H17.9277V13.5394H22.9437V8.57886Z" stroke="#21A6DF" stroke-width="3" stroke-miterlimit="10" stroke-linecap="round" stroke-linejoin="round"/>
<path d="M16.9246 19.8423H30.4971" stroke="#21A6DF" stroke-width="3" stroke-miterlimit="10" stroke-linecap="round" stroke-linejoin="round"/>
<path d="M16.9246 26.1453H30.4971" stroke="#21A6DF" stroke-width="3" stroke-miterlimit="10" stroke-linecap="round" stroke-linejoin="round"/>
<path d="M1.3457 19.8423H11.4956" stroke="#21A6DF" stroke-width="3" stroke-miterlimit="10" stroke-linecap="round" stroke-linejoin="round"/>
</svg>
