<svg width="47" height="30" viewBox="0 0 47 30" fill="none" xmlns="http://www.w3.org/2000/svg">
<path d="M19.8988 27.0393C19.8988 27.0393 11.9753 30.0977 6.3319 24.9438C0.175474 19.3934 0.68851 9.48209 7.18696 4.44146C11.1772 1.32646 16.9916 1.49637 20.7539 3.25209C22.578 4.10164 24.0031 5.51755 26.9103 8.29273C29.4185 10.6715 31.2996 12.8803 32.4967 14.4094C32.6677 14.7493 33.1808 15.6554 33.0668 16.8448C32.8957 18.2041 31.9267 19.5067 30.6726 19.8465C29.6465 20.1297 28.7345 19.7333 27.8794 19.2802C27.1954 18.9404 19.3288 10.8414 19.3288 10.8414C19.3288 10.8414 17.0486 9.14227 14.8255 11.0113C13.7994 11.8042 13.6284 12.9369 13.5714 13.2767C13.5144 13.5599 13.3434 14.8059 14.0274 15.8254C14.1414 15.9386 14.1984 16.0519 14.2555 16.1085C17.3337 19.62 19.0438 21.0359 19.0438 21.0359C23.7751 25.0004 26.1123 26.9827 27.9934 27.4924C31.1856 28.3986 35.4039 28.2287 39.0522 25.85C45.7216 21.6023 47.2037 11.521 41.3323 5.85736C37.7411 2.40255 32.2117 1.15655 26.8533 2.91228" stroke="#21A6DF" stroke-width="3" stroke-miterlimit="10" stroke-linecap="round"/>
</svg>
