<svg width="46" height="46" viewBox="0 0 46 46" fill="none" xmlns="http://www.w3.org/2000/svg">
<path d="M14.9165 17.4434L22.9642 22L31.0793 17.4063C31.6731 17.072 32.4016 17.072 32.9954 17.4063L35 18.5413V9.585C35 8.91637 34.6336 8.29727 34.044 7.95883L23.9581 2.25074C23.3643 1.91642 22.6357 1.91642 22.0419 2.25074L11.956 7.95883C11.3622 8.29314 11 8.91224 11 9.585V18.5784L13.0046 17.4434C13.5941 17.1091 14.3269 17.1091 14.9165 17.4434Z" stroke="white" stroke-width="3" stroke-miterlimit="10"/>
<path d="M43.0443 23.5375L34.9651 19V21.4407C34.9651 22.1041 34.5988 22.7184 34.0094 23.0542L25.926 27.5876V36.511C25.926 37.1744 25.5597 37.7886 24.9703 38.1245L23 39.2302L31.0455 43.7512C31.6391 44.0829 32.3675 44.0829 32.9611 43.7512L43.0443 38.0876C43.6379 37.7559 44 37.1416 44 36.4741V25.1509C44 24.4834 43.6337 23.8692 43.0443 23.5375Z" stroke="white" stroke-width="3" stroke-miterlimit="10"/>
<path d="M20.0162 36.4397V27.5561L11.9628 23.016C11.3711 22.6844 11.0102 22.0704 11.0102 21.4031V19L2.95264 23.5401C2.36091 23.8717 2 24.4857 2 25.153V36.4766C2 37.1398 2.36511 37.7538 2.95264 38.0895L13.0036 43.7513C13.5953 44.0829 14.3213 44.0829 14.9131 43.7513L23 39.1949L20.9688 38.0527C20.3813 37.717 20.0162 37.1029 20.0162 36.4397Z" stroke="white" stroke-width="3" stroke-miterlimit="10"/>
<path d="M23 15C24.6569 15 26 13.6569 26 12C26 10.3431 24.6569 9 23 9C21.3431 9 20 10.3431 20 12C20 13.6569 21.3431 15 23 15Z" stroke="white" stroke-width="3" stroke-miterlimit="10"/>
</svg>
