<svg width="47" height="30" viewBox="0 0 47 30" fill="none" xmlns="http://www.w3.org/2000/svg">
<path d="M20.0644 27.0393C20.0644 27.0393 12.1408 30.0977 6.49743 24.9438C0.341002 19.3934 0.854037 9.48209 7.35249 4.44146C11.3428 1.32646 17.1572 1.49637 20.9194 3.25209C22.7436 4.10164 24.1687 5.51755 27.0759 8.29273C29.584 10.6715 31.4652 12.8803 32.6623 14.4094C32.8333 14.7493 33.3463 15.6554 33.2323 16.8448C33.0613 18.2041 32.0922 19.5067 30.8381 19.8465C29.8121 20.1297 28.9 19.7333 28.0449 19.2802C27.3609 18.9404 19.4943 10.8414 19.4943 10.8414C19.4943 10.8414 17.2142 9.14227 14.991 11.0113C13.9649 11.8042 13.7939 12.9369 13.7369 13.2767C13.6799 13.5599 13.5089 14.8059 14.193 15.8254C14.307 15.9386 14.364 16.0519 14.421 16.1085C17.4992 19.62 19.2093 21.0359 19.2093 21.0359C23.9406 25.0004 26.2778 26.9827 28.1589 27.4924C31.3512 28.3986 35.5695 28.2287 39.2177 25.85C45.8872 21.6023 47.3693 11.521 41.4979 5.85736C37.9066 2.40255 32.3772 1.15655 27.0189 2.91228" stroke="white" stroke-width="3" stroke-miterlimit="10" stroke-linecap="round"/>
</svg>
